<svg width="243" height="210" viewBox="0 0 243 210" fill="none" xmlns="http://www.w3.org/2000/svg">
<g opacity="0.1">
<path d="M141.673 5.6489e-05C114.831 0.0283893 89.0966 10.5926 70.1164 29.3748C51.1363 48.1569 40.4606 73.6228 40.432 100.185C40.432 103.225 40.5834 106.243 40.8647 109.219L74.59 104.787C74.4819 103.246 74.3521 101.726 74.3521 100.185C74.3047 85.4403 79.186 71.0942 88.2357 59.3808C97.2855 47.6673 109.996 39.2441 124.387 35.4231C138.777 31.602 154.041 32.5975 167.801 38.2546C181.561 43.9116 193.044 53.9127 200.462 66.7002C207.88 79.4876 210.816 94.3436 208.814 108.954C206.811 123.565 199.982 137.111 189.39 147.481C178.799 157.851 165.039 164.464 150.253 166.291C135.468 168.117 120.487 165.053 107.645 157.577L88.6296 185.406C101.953 193.541 117.001 198.507 132.592 199.913C148.183 201.319 163.891 199.128 178.481 193.511C193.071 187.894 206.145 179.004 216.676 167.541C227.207 156.078 234.908 142.354 239.172 127.448C243.437 112.542 244.149 96.8601 241.253 81.6354C238.357 66.4108 231.932 52.0584 222.483 39.7066C213.034 27.3549 200.818 17.3404 186.796 10.4506C172.774 3.56088 157.328 -0.0163952 141.673 5.6489e-05Z" fill="white"/>
<path d="M141.327 68.5035C132.784 68.503 124.586 71.836 118.511 77.7794C112.436 83.7228 108.975 91.7971 108.878 100.25L150.37 94.7913L126.876 129.321C131.257 131.493 136.078 132.656 140.978 132.721C145.878 132.787 150.729 131.753 155.167 129.698C159.606 127.643 163.516 124.62 166.605 120.856C169.694 117.092 171.882 112.684 173.003 107.964C174.125 103.243 174.151 98.3328 173.081 93.6008C172.011 88.8688 169.872 84.4381 166.824 80.6412C163.776 76.8443 159.898 73.7798 155.483 71.6776C151.067 69.5755 146.227 68.4903 141.327 68.5035Z" fill="white"/>
<path d="M50.8585 209.124L115.757 115.404L0 131.031L43.8495 162.264L50.8585 209.124Z" fill="#FE724C"/>
</g>
</svg>
