<svg width="122" height="16" viewBox="0 0 122 16" fill="none" xmlns="http://www.w3.org/2000/svg">
<path d="M8.67358 9.396C7.93758 10.2387 6.83358 10.66 5.36158 10.66C3.88958 10.66 2.78024 10.2387 2.03358 9.396C1.29758 8.54267 0.929578 7.3 0.929578 5.668C0.929578 3.89733 1.29224 2.60667 2.01758 1.796C2.74291 0.974666 3.85758 0.563999 5.36158 0.563999C6.86558 0.563999 7.97491 0.974666 8.68958 1.796C9.41491 2.60667 9.77758 3.89733 9.77758 5.668C9.77758 7.3 9.40958 8.54267 8.67358 9.396ZM3.08958 8.452C3.59091 9.06 4.34824 9.364 5.36158 9.364C7.36691 9.364 8.36958 8.132 8.36958 5.668C8.36958 4.292 8.12425 3.31067 7.63358 2.724C7.15358 2.13733 6.39625 1.844 5.36158 1.844C4.31625 1.844 3.55358 2.13733 3.07358 2.724C2.59358 3.31067 2.35358 4.292 2.35358 5.668C2.35358 6.90533 2.59891 7.83333 3.08958 8.452ZM13.2975 7.204V10.5H11.8895V0.707999H13.2975V5.316L17.5055 0.707999H19.1535L15.6335 4.644L19.2655 10.5H17.7775L14.7695 5.62L13.2975 7.204ZM24.463 6.916H22.735V10.5H21.327V0.707999H25.567C26.5803 0.707999 27.3323 0.985333 27.823 1.54C28.3136 2.084 28.559 2.836 28.559 3.796C28.559 4.532 28.383 5.14533 28.031 5.636C27.6896 6.116 27.199 6.44667 26.559 6.628C26.7403 6.71333 26.879 6.82 26.975 6.948C27.0816 7.076 27.183 7.26267 27.279 7.508L28.543 10.5H27.071L25.919 7.732C25.791 7.412 25.631 7.19867 25.439 7.092C25.247 6.97467 24.9216 6.916 24.463 6.916ZM27.167 3.796C27.167 2.55867 26.5643 1.94 25.359 1.94H22.735V5.684H25.199C26.511 5.684 27.167 5.05467 27.167 3.796Z" fill="#F95700"/>
<path d="M40.6428 7.524C40.6428 8.08933 40.7388 8.5 40.9308 8.756C41.1335 9.00133 41.4268 9.124 41.8108 9.124H42.1948C42.2482 9.124 42.2855 9.172 42.3068 9.268C42.3388 9.35333 42.3548 9.54 42.3548 9.828C42.3548 10.1053 42.3388 10.2867 42.3068 10.372C42.2855 10.4573 42.2482 10.5 42.1948 10.5H41.8108C40.6268 10.5 39.9122 9.99333 39.6668 8.98C39.4428 9.22533 39.1228 9.412 38.7068 9.54C38.2908 9.65733 37.8482 9.716 37.3788 9.716C36.4722 9.716 35.7788 9.47067 35.2988 8.98C34.8188 8.48933 34.5788 7.76933 34.5788 6.82C34.5788 6.22267 34.7068 5.67867 34.9628 5.188C35.2295 4.68667 35.5975 4.292 36.0668 4.004C36.5468 3.70533 37.0908 3.556 37.6988 3.556H39.3148V2.452H40.6428V7.524ZM35.9068 6.788C35.9068 7.82267 36.4242 8.34 37.4588 8.34C38.0242 8.34 38.4722 8.23867 38.8028 8.036C39.1442 7.82267 39.3148 7.54 39.3148 7.188V4.9H37.6988C37.1442 4.9 36.7068 5.06533 36.3868 5.396C36.0668 5.72667 35.9068 6.19067 35.9068 6.788ZM43.3095 9.124C44.1095 9.124 44.7761 9.06 45.3095 8.932C45.8428 8.804 46.3921 8.58 46.9575 8.26L49.3895 6.836C49.2188 6.26 48.9841 5.86 48.6855 5.636C48.3975 5.412 47.9601 5.3 47.3735 5.3H43.6295L43.8055 3.908H47.5975C48.2375 3.908 48.7655 4.01467 49.1815 4.228C49.5975 4.44133 49.9441 4.79333 50.2215 5.284C50.4988 5.764 50.7388 6.43067 50.9415 7.284L47.5815 9.364C46.8988 9.79067 46.2428 10.0893 45.6135 10.26C44.9841 10.42 44.2001 10.5 43.2615 10.5H42.1895C42.0828 10.5 42.0295 10.276 42.0295 9.828C42.0295 9.35867 42.0828 9.124 42.1895 9.124H43.3095ZM45.6455 2.036V0.707999H47.3415V2.036H45.6455ZM55.3131 7.892C55.3131 8.28667 55.4251 8.59067 55.6491 8.804C55.8837 9.01733 56.2197 9.124 56.6571 9.124H56.8651C56.9717 9.124 57.0251 9.35867 57.0251 9.828C57.0251 10.276 56.9717 10.5 56.8651 10.5H56.6571C56.3691 10.5 56.1024 10.452 55.8571 10.356C55.6117 10.2493 55.4304 10.116 55.3131 9.956V10.148C55.3024 11.0013 55.1211 11.748 54.7691 12.388C54.4171 13.0387 53.9264 13.5347 53.2971 13.876C52.6677 14.228 51.9424 14.404 51.1211 14.404H50.0011L49.8731 13.028H51.0891C51.9957 13.028 52.7051 12.7613 53.2171 12.228C53.7291 11.7053 53.9851 10.9747 53.9851 10.036V5.348H55.3131V7.892ZM57.9813 9.124C58.7813 9.124 59.448 9.06 59.9813 8.932C60.5147 8.804 61.064 8.58 61.6293 8.26L64.0613 6.836C63.8907 6.26 63.656 5.86 63.3573 5.636C63.0693 5.412 62.632 5.3 62.0453 5.3H58.3013L58.4773 3.908H62.2693C62.9093 3.908 63.4373 4.01467 63.8533 4.228C64.2693 4.44133 64.616 4.79333 64.8933 5.284C65.1707 5.764 65.4107 6.43067 65.6133 7.284L62.2533 9.364C61.5707 9.79067 60.9147 10.0893 60.2853 10.26C59.656 10.42 58.872 10.5 57.9333 10.5H56.8613C56.7547 10.5 56.7013 10.276 56.7013 9.828C56.7013 9.35867 56.7547 9.124 56.8613 9.124H57.9813ZM62.7813 12.516V13.78H58.5573V12.516H62.7813ZM59.9653 15.972V14.708H61.3733V15.972H59.9653ZM79.9807 9.124C80.3967 9.124 80.7274 9.02267 80.9727 8.82C81.218 8.60667 81.3407 8.31867 81.3407 7.956V5.348H82.6687V7.908C82.6687 8.30267 82.7754 8.60667 82.9887 8.82C83.2127 9.02267 83.538 9.124 83.9647 9.124H84.3967C84.5034 9.124 84.5567 9.35867 84.5567 9.828C84.5567 10.276 84.5034 10.5 84.3967 10.5H83.9167C82.9354 10.5 82.2954 10.1853 81.9967 9.556C81.6234 10.1853 80.9514 10.5 79.9807 10.5H74.3327C73.394 10.5 72.6847 10.2547 72.2047 9.764C71.7354 9.27333 71.5007 8.596 71.5007 7.732V5.348H72.8287V7.556C72.8287 8.60133 73.3567 9.124 74.4127 9.124H79.9807ZM79.1807 2.74V4.004H74.9567V2.74H79.1807ZM88.2486 9.124C88.6326 9.124 88.9419 9.02267 89.1766 8.82C89.4112 8.60667 89.5286 8.31333 89.5286 7.94V5.348H90.8726V7.956C90.8726 8.74533 90.6326 9.36933 90.1526 9.828C89.6726 10.276 89.0379 10.5 88.2486 10.5H84.3926C84.2859 10.5 84.2326 10.276 84.2326 9.828C84.2326 9.35867 84.2859 9.124 84.3926 9.124H88.2486ZM88.7766 12.516V13.78H84.5526V12.516H88.7766ZM91.511 13.028C92.4176 13.028 93.127 12.7613 93.639 12.228C94.151 11.7053 94.407 10.9747 94.407 10.036V5.348H95.735V7.892C95.735 8.28667 95.847 8.59067 96.071 8.804C96.3056 9.01733 96.6416 9.124 97.079 9.124H97.287C97.3936 9.124 97.447 9.35867 97.447 9.828C97.447 10.276 97.3936 10.5 97.287 10.5H97.079C96.791 10.5 96.5243 10.452 96.279 10.356C96.0336 10.2493 95.8523 10.116 95.735 9.956V10.148C95.7243 11.0013 95.543 11.748 95.191 12.388C94.839 13.0387 94.3483 13.5347 93.719 13.876C93.0896 14.228 92.3643 14.404 91.543 14.404H91.095L90.967 13.028H91.511ZM101.139 9.124C101.523 9.124 101.833 9.02267 102.067 8.82C102.302 8.60667 102.419 8.31333 102.419 7.94V5.348H103.763V7.956C103.763 8.74533 103.523 9.36933 103.043 9.828C102.563 10.276 101.929 10.5 101.139 10.5H97.2832C97.1765 10.5 97.1232 10.276 97.1232 9.828C97.1232 9.35867 97.1765 9.124 97.2832 9.124H101.139ZM101.667 12.516V13.78H97.4432V12.516H101.667ZM109.753 9.124C110.126 9.124 110.425 9.044 110.649 8.884C110.883 8.724 111.001 8.516 111.001 8.26C111.001 8.04667 110.915 7.69467 110.745 7.204C110.574 6.71333 110.126 5.476 109.401 3.492C109.369 3.40667 109.337 3.32667 109.305 3.252C109.273 3.16667 109.246 3.092 109.225 3.028L110.457 2.468L112.329 7.78C112.499 8.27067 112.691 8.61733 112.905 8.82C113.118 9.02267 113.411 9.124 113.785 9.124H114.121C114.227 9.124 114.281 9.35867 114.281 9.828C114.281 10.116 114.265 10.3027 114.233 10.388C114.211 10.4627 114.174 10.5 114.121 10.5H113.737C113.246 10.5 112.841 10.42 112.521 10.26C112.201 10.1 111.95 9.844 111.769 9.492C111.566 9.844 111.299 10.1 110.969 10.26C110.649 10.42 110.243 10.5 109.753 10.5H106.009L105.881 9.124H109.753ZM114.495 9.124C115.252 9.124 115.631 8.78267 115.631 8.1V7.444C115.631 6.42 115.903 5.61467 116.447 5.028C116.991 4.44133 117.738 4.148 118.687 4.148C119.636 4.148 120.367 4.42533 120.879 4.98C121.391 5.53467 121.647 6.33467 121.647 7.38C121.647 8.372 121.38 9.14 120.847 9.684C120.314 10.228 119.578 10.5 118.639 10.5C117.53 10.5 116.783 10.1693 116.399 9.508C116.218 9.84933 115.978 10.1 115.679 10.26C115.38 10.42 114.986 10.5 114.495 10.5H114.127C114.02 10.5 113.967 10.276 113.967 9.828C113.967 9.35867 114.02 9.124 114.127 9.124H114.495ZM120.319 7.38C120.319 6.12133 119.759 5.492 118.639 5.492C118.074 5.492 117.652 5.652 117.375 5.972C117.098 6.292 116.959 6.78267 116.959 7.444C116.959 7.96667 117.103 8.37733 117.391 8.676C117.69 8.97467 118.106 9.124 118.639 9.124C119.759 9.124 120.319 8.54267 120.319 7.38Z" fill="white"/>
</svg>
