<svg width="89" height="67" viewBox="0 0 89 67" fill="none" xmlns="http://www.w3.org/2000/svg">
<path d="M76.0935 16.8645H66.0127L80.342 30.3165L88.0283 30.2522L78.9053 21.6924C81.6434 21.046 84.0357 19.4816 85.6321 17.2936C87.2284 15.1055 87.9188 12.4447 87.5733 9.81174C87.2278 7.1788 85.8702 4.75528 83.756 2.99718C81.6418 1.23909 78.9167 0.267644 76.0935 0.265625H62.3867L62.3559 0.387769H62.1644L48.3721 13.3512V0.365269H42.2148V30.2169H48.3721V17.2341L62.2157 30.2426H70.9145L55.0014 15.2895L65.5098 5.415H76.0935C77.6838 5.45042 79.1963 6.06894 80.3078 7.13838C81.4192 8.20782 82.0414 9.64334 82.0414 11.1381C82.0414 12.633 81.4192 14.0685 80.3078 15.1379C79.1963 16.2073 77.6838 16.8259 76.0935 16.8613V16.8645Z" fill="white"/>
<path d="M23.3917 8.48204e-06C19.1473 0.00426276 15.078 1.59052 12.0767 4.41074C9.07544 7.23095 7.38734 11.0548 7.38281 15.0431C7.38281 15.4996 7.40676 15.9528 7.45123 16.3996L12.7841 15.7342C12.767 15.5028 12.7465 15.2746 12.7465 15.0431C12.739 12.8292 13.5109 10.6751 14.9419 8.91626C16.3729 7.15744 18.3827 5.89266 20.6582 5.31891C22.9338 4.74516 25.3475 4.89464 27.5233 5.74407C29.699 6.59351 31.5148 8.09521 32.6878 10.0153C33.8607 11.9354 34.325 14.1661 34.0084 16.3599C33.6918 18.5538 32.6119 20.5877 30.9371 22.1448C29.2622 23.702 27.0864 24.695 24.7485 24.9692C22.4105 25.2434 20.0417 24.7834 18.0109 23.6608L15.0041 27.8394C17.1109 29.0609 19.4905 29.8066 21.9558 30.0177C24.4211 30.2289 26.9049 29.8998 29.212 29.0564C31.519 28.213 33.5864 26.8782 35.2517 25.157C36.9169 23.4358 38.1346 21.375 38.8089 19.1368C39.4832 16.8986 39.5959 14.5439 39.138 12.2579C38.68 9.97185 37.6641 7.81678 36.1699 5.96211C34.6757 4.10744 32.7441 2.60373 30.5268 1.56921C28.3096 0.53468 25.8672 -0.0024618 23.3917 8.48204e-06Z" fill="white"/>
<path d="M23.3146 10.2969C21.9638 10.2968 20.6675 10.7973 19.7068 11.6897C18.7462 12.5821 18.1989 13.7945 18.1836 15.0638L24.7445 14.2441L21.0296 19.4288C21.7223 19.7551 22.4847 19.9297 23.2595 19.9395C24.0343 19.9493 24.8013 19.7941 25.5032 19.4855C26.205 19.1769 26.8233 18.723 27.3118 18.1578C27.8002 17.5926 28.1461 16.9307 28.3235 16.222C28.5008 15.5132 28.505 14.7759 28.3358 14.0653C28.1666 13.3548 27.8283 12.6895 27.3463 12.1194C26.8644 11.5493 26.2513 11.0891 25.553 10.7735C24.8548 10.4579 24.0895 10.2949 23.3146 10.2969Z" fill="white"/>
<path d="M9.01278 31.4083L19.2749 17.3359L0.970703 19.6824L7.90447 24.3721L9.01278 31.4083Z" fill="#FE724C"/>
<path d="M36.8475 46.8212C36.1722 46.8116 35.5092 46.991 34.9428 47.3366C34.3763 47.6822 33.9321 48.1782 33.6666 48.7617C33.4011 49.3452 33.3264 49.9898 33.4518 50.6133C33.5773 51.2369 33.8974 51.8112 34.3713 52.2634C34.8452 52.7155 35.4515 53.0249 36.1131 53.1523C36.7747 53.2796 37.4616 53.2192 38.0866 52.9786C38.7115 52.738 39.2461 52.3282 39.6224 51.8012C39.9987 51.2743 40.1997 50.654 40.1998 50.0195C40.2172 49.5991 40.1428 49.18 39.9812 48.7877C39.8195 48.3955 39.5741 48.0385 39.26 47.7388C38.9459 47.4392 38.5698 47.2031 38.1548 47.0453C37.7399 46.8875 37.295 46.8112 36.8475 46.8212Z" fill="#FE724C"/>
<path d="M50.866 46.7578C48.9162 46.7578 47.4453 48.0789 47.4453 50.0268C47.4453 51.9747 48.8991 53.2926 50.866 53.2926C52.8329 53.2926 54.2867 51.9715 54.2867 50.0268C54.2867 48.0821 52.8363 46.7578 50.866 46.7578Z" fill="#FE724C"/>
<path d="M9.10938 36.5234V60.4446H66.2351L71.934 67.0051V39.5931H75.1289V45.5236C75.8678 44.4822 77.1506 43.9164 78.8028 43.9164C81.4162 43.9164 83.4618 45.6297 83.4618 48.7122V55.8256H80.2805V49.0755C80.2805 47.5004 79.2714 46.6904 77.8416 46.6904C76.2886 46.6904 75.1289 47.5454 75.1289 49.564V60.451H87.4982V36.5234H9.10938ZM22.2688 53.0098C24.2426 53.0098 25.9427 52.1291 26.7568 50.7148L29.6917 52.3219C28.9141 53.51 27.8208 54.4875 26.5193 55.1581C25.2178 55.8288 23.753 56.1696 22.2688 56.147C17.042 56.147 13.2963 52.4377 13.2963 47.7126C13.2963 42.9875 17.0591 39.2781 22.2688 39.2781C23.7518 39.2596 25.2147 39.6018 26.5153 40.2715C27.816 40.9412 28.9102 41.9155 29.6917 43.1L26.7568 44.7072C25.9187 43.2703 24.2426 42.3896 22.2688 42.3896C18.8926 42.3896 16.6725 44.5914 16.6725 47.719C16.6725 50.8466 18.8857 53.0098 22.262 53.0098H22.2688ZM36.8444 56.1374C35.5605 56.131 34.3073 55.7674 33.243 55.0925C32.1787 54.4176 31.351 53.4616 30.8643 52.3451C30.3776 51.2286 30.2538 50.0016 30.5084 48.8191C30.763 47.6365 31.3847 46.5513 32.295 45.7004C33.2053 44.8495 34.3634 44.271 35.6232 44.038C36.883 43.8049 38.1881 43.9277 39.3737 44.3909C40.5593 44.8541 41.5723 45.6368 42.285 46.6405C42.9976 47.6441 43.378 48.8236 43.378 50.0301C43.3858 50.8374 43.2217 51.6381 42.8953 52.3849C42.5689 53.1318 42.0868 53.8097 41.4773 54.3788C40.8679 54.9479 40.1434 55.3966 39.3466 55.6986C38.5498 56.0007 37.6967 56.1498 36.8376 56.1374H36.8444ZM57.4302 55.8159H54.2627V54.4466C53.3733 55.4913 52.0426 56.1406 50.2433 56.1406C46.9629 56.1406 44.2503 53.4759 44.2503 50.0333C44.2503 46.5908 46.9629 43.9261 50.2433 43.9261C52.0426 43.9261 53.3733 44.5689 54.2627 45.6168V44.2507H57.4405L57.4302 55.8159ZM65.4449 56.1374C63.7185 56.1374 62.0627 55.4929 60.842 54.3458C59.6212 53.1986 58.9353 51.6428 58.9353 50.0205C58.9353 48.3982 59.6212 46.8423 60.842 45.6952C62.0627 44.548 63.7185 43.9036 65.4449 43.9036C66.5673 43.8863 67.6736 44.1552 68.6463 44.6816C69.6191 45.2079 70.4219 45.9721 70.9694 46.8929L68.2328 48.3972C67.9678 47.9155 67.5631 47.5141 67.0655 47.2394C66.5679 46.9646 65.9978 46.8278 65.421 46.8447C63.5225 46.8447 62.1166 48.1658 62.1166 50.0205C62.0991 50.4347 62.1723 50.8479 62.3316 51.2345C62.4908 51.6212 62.7328 51.973 63.0425 52.2682C63.3522 52.5635 63.7231 52.7959 64.1322 52.9511C64.5413 53.1063 64.9799 53.181 65.421 53.1705C65.9997 53.1962 66.5742 53.0658 67.0767 52.7947C67.5791 52.5236 67.9886 52.1231 68.2567 51.6405L71.0241 53.1416C70.4637 54.0652 69.6497 54.8304 68.6671 55.3574C67.6845 55.8844 66.5693 56.1537 65.4381 56.1374H65.4449Z" fill="#FE724C"/>
</svg>
