<svg width="810" height="539" viewBox="0 0 810 539" fill="none" xmlns="http://www.w3.org/2000/svg">
<path d="M741.256 66.2109H644.475V206.833H741.256V66.2109Z" fill="#E0E0E0"/>
<path d="M736.402 66.2109H639.621V206.833H736.402V66.2109Z" fill="#F5F5F5"/>
<path d="M724.382 81.4453H651.646V191.606H724.382V81.4453Z" fill="white"/>
<path d="M724.381 191.604C724.381 191.604 724.381 191.41 724.381 191.066C724.381 190.721 724.381 190.173 724.381 189.495C724.381 188.117 724.381 186.084 724.381 183.458C724.381 178.175 724.381 170.482 724.317 160.766C724.317 141.398 724.242 113.83 724.199 81.4428L724.435 81.6795H651.71L651.978 81.4213C651.978 122.976 651.978 161.293 651.925 191.582L651.71 191.367L704.652 191.475L719.283 191.528H723.125H724.446H723.168H719.368H704.791L651.71 191.636H651.506V191.432C651.506 161.142 651.506 122.826 651.506 81.2706V81.1953H651.774H724.499H724.746V81.4428C724.693 113.895 724.65 141.462 724.628 160.927C724.628 170.611 724.575 178.294 724.564 183.523C724.564 186.138 724.564 188.15 724.564 189.527C724.564 190.194 724.564 190.7 724.564 191.055C724.564 191.41 724.381 191.604 724.381 191.604Z" fill="#E0E0E0"/>
<path d="M736.686 66.2109C736.187 67.1008 735.608 67.9436 734.957 68.7288C733.83 70.2352 732.242 72.2796 730.417 74.4961C728.592 76.7127 726.896 78.6818 725.629 80.0698C724.979 80.85 724.261 81.5702 723.482 82.2218C724.03 81.3647 724.647 80.5549 725.329 79.8008L729.987 74.1303C731.759 71.9783 733.347 70.0415 734.646 68.4598C735.26 67.6525 735.942 66.9 736.686 66.2109Z" fill="#E0E0E0"/>
<path d="M724.758 191.25C728.374 197.015 732.63 202.35 737.446 207.153L724.758 191.25Z" fill="white"/>
<path d="M737.446 207.153C736.642 206.556 735.902 205.878 735.235 205.13C733.545 203.423 731.947 201.627 730.447 199.75C728.957 197.857 727.563 195.889 726.271 193.854C725.691 193.04 725.199 192.167 724.801 191.25C725.455 191.999 726.05 192.798 726.583 193.639C727.656 195.145 729.148 197.2 730.876 199.395C732.605 201.59 734.301 203.506 735.524 204.872C736.219 205.585 736.861 206.348 737.446 207.153Z" fill="#E0E0E0"/>
<path d="M639.613 206.724C643.843 201.495 648.068 196.269 652.291 191.047L639.613 206.724Z" fill="white"/>
<path d="M652.291 191.047C650.381 193.818 648.332 196.49 646.15 199.052C644.101 201.718 641.919 204.278 639.613 206.724C641.511 203.947 643.557 201.274 645.743 198.719C647.783 196.043 649.969 193.482 652.291 191.047Z" fill="#E0E0E0"/>
<path d="M639.621 66.2109C641.803 68.5552 643.853 71.0194 645.761 73.5923C647.816 76.0485 649.733 78.6169 651.504 81.2857C649.321 78.9434 647.268 76.4828 645.353 73.9151C643.305 71.453 641.391 68.8812 639.621 66.2109Z" fill="#E0E0E0"/>
<path d="M701.719 103.805H677.363V173.121H701.719V103.805Z" fill="#E0E0E0"/>
<path d="M180.943 66.2109H84.1621V206.833H180.943V66.2109Z" fill="#E0E0E0"/>
<path d="M176.091 66.2109H79.3105V206.833H176.091V66.2109Z" fill="#F5F5F5"/>
<path d="M164.07 81.4453H91.334V191.606H164.07V81.4453Z" fill="white"/>
<path d="M164.07 191.611C164.07 191.611 164.07 191.418 164.07 191.073C164.07 190.729 164.07 190.18 164.07 189.503C164.07 188.125 164.07 186.092 164.07 183.466C164.07 178.183 164.07 170.49 163.995 160.773C163.995 141.405 163.93 113.838 163.877 81.4506L164.124 81.6873H91.3983L91.6667 81.4291C91.6667 122.984 91.6667 161.301 91.6667 191.59L91.452 191.375L144.394 191.482L159.025 191.536H162.857H164.188H162.9H159.1H144.523L91.452 191.644H91.248V191.439C91.248 161.15 91.248 122.834 91.248 81.2784V81.2031H91.5164H164.242H164.478V81.4506C164.478 113.903 164.392 141.47 164.36 160.935C164.36 170.619 164.36 178.301 164.295 183.531C164.295 186.145 164.295 188.158 164.295 189.535C164.295 190.202 164.295 190.708 164.295 191.063C164.295 191.418 164.07 191.611 164.07 191.611Z" fill="#E0E0E0"/>
<path d="M176.36 66.2109C175.868 67.1025 175.293 67.9455 174.643 68.7288C173.516 70.2352 171.916 72.2796 170.102 74.4961C168.288 76.7127 166.571 78.6818 165.315 80.0698C164.665 80.85 163.946 81.5702 163.168 82.2218C163.706 81.3585 164.324 80.5479 165.014 79.8008L169.673 74.1303L174.332 68.4598C174.948 67.6577 175.626 66.9057 176.36 66.2109Z" fill="#E0E0E0"/>
<path d="M164.434 191.25C168.053 197.012 172.309 202.347 177.122 207.153L164.434 191.25Z" fill="white"/>
<path d="M177.122 207.153C176.321 206.552 175.58 205.875 174.91 205.13C173.611 203.818 171.894 201.902 170.123 199.75C168.624 197.86 167.227 195.892 165.936 193.854C165.356 193.038 164.86 192.166 164.455 191.25C165.115 191.997 165.714 192.796 166.248 193.639C167.321 195.145 168.813 197.2 170.541 199.395C172.27 201.59 173.955 203.506 175.189 204.872C175.89 205.582 176.536 206.345 177.122 207.153Z" fill="#E0E0E0"/>
<path d="M79.3008 206.724C83.5158 201.495 87.7416 196.269 91.978 191.047L79.3008 206.724Z" fill="white"/>
<path d="M91.978 191.047C92.0854 191.133 89.3374 194.716 85.838 199.052C83.7883 201.718 81.6065 204.278 79.3008 206.724C81.1983 203.947 83.2444 201.274 85.4301 198.719C87.4709 196.043 89.6569 193.482 91.978 191.047Z" fill="#E0E0E0"/>
<path d="M79.3105 66.2109C81.4778 68.5621 83.5201 71.026 85.4291 73.5923C87.4796 76.0517 89.3967 78.6199 91.172 81.2857C88.9852 78.9466 86.9317 76.4859 85.0212 73.9151C82.9759 71.4557 81.0694 68.8837 79.3105 66.2109Z" fill="#E0E0E0"/>
<path d="M141.409 103.805H117.053V173.121H141.409V103.805Z" fill="#E0E0E0"/>
<path d="M184.443 202.989C188.47 201.428 192.686 200.412 196.981 199.966L201.414 188.797L220.94 191.896L221.756 203.861C225.708 205.605 229.409 207.874 232.758 210.607L243.729 205.873L255.354 221.905L247.486 230.912C249.045 234.947 250.055 239.174 250.491 243.479L261.559 247.977L258.478 267.56L246.552 268.346C244.808 272.306 242.545 276.015 239.821 279.375L244.534 290.371L228.54 302.024L219.609 294.105C215.587 295.669 211.373 296.682 207.082 297.118L202.595 308.233L183.112 305.156L182.275 293.169C178.34 291.423 174.651 289.165 171.304 286.455L160.334 291.178L148.698 275.146L156.577 266.14C155.017 262.104 154.003 257.877 153.56 253.572L142.461 249.139L145.542 229.567L157.468 228.77C159.214 224.815 161.477 221.11 164.198 217.752L159.496 206.745L175.491 195.091L184.475 202.989H184.443ZM190.261 230.815C186.867 233.287 184.28 236.712 182.829 240.657C181.377 244.602 181.124 248.891 182.104 252.98C183.083 257.069 185.251 260.775 188.331 263.629C191.412 266.484 195.268 268.358 199.412 269.016C203.555 269.673 207.8 269.085 211.61 267.324C215.42 265.563 218.623 262.709 220.815 259.124C223.007 255.538 224.088 251.381 223.923 247.179C223.758 242.977 222.354 238.919 219.888 235.517C216.581 230.955 211.602 227.897 206.046 227.015C200.49 226.134 194.812 227.5 190.261 230.815Z" fill="#E0E0E0"/>
<path d="M106.662 307.743C109.226 306.746 111.912 306.098 114.648 305.817L117.472 298.727L129.913 300.706L130.417 308.324C132.937 309.436 135.295 310.883 137.427 312.628L144.426 309.616L151.832 319.827L146.819 325.573C147.807 328.145 148.449 330.837 148.73 333.578L155.804 336.408L153.84 348.879L146.24 349.385C145.125 351.907 143.681 354.269 141.946 356.411L144.952 363.416L134.808 370.84L129.075 365.804C126.512 366.803 123.825 367.451 121.089 367.73L118.266 374.821L105.825 372.852L105.277 365.266C102.776 364.145 100.434 362.698 98.3108 360.962L91.3227 363.975L83.916 353.764L88.929 348.018C87.9341 345.448 87.2879 342.755 87.0075 340.013L79.9336 337.183L81.898 324.712L89.5086 324.206C90.6168 321.681 92.0611 319.317 93.8024 317.18L90.7968 310.132L100.984 302.708L106.716 307.743H106.662ZM110.365 325.454C108.204 327.03 106.557 329.213 105.633 331.727C104.709 334.241 104.55 336.973 105.175 339.578C105.8 342.183 107.182 344.543 109.145 346.361C111.108 348.179 113.565 349.372 116.205 349.791C118.845 350.209 121.549 349.833 123.976 348.711C126.403 347.588 128.444 345.77 129.84 343.485C131.235 341.201 131.924 338.552 131.819 335.875C131.713 333.198 130.818 330.613 129.247 328.446C128.204 327.006 126.887 325.787 125.373 324.858C123.86 323.928 122.178 323.307 120.425 323.029C118.671 322.751 116.88 322.823 115.154 323.239C113.428 323.655 111.801 324.408 110.365 325.454Z" fill="#F5F5F5"/>
<path d="M463.377 289.338C465.76 288.422 468.254 287.829 470.794 287.573L473.402 281.031L484.877 282.85L485.35 289.876C487.663 290.908 489.828 292.243 491.79 293.846L498.231 291.06L505.069 300.485L500.442 305.779C501.354 308.154 501.95 310.64 502.213 313.171L508.74 315.786L506.915 327.288L499.905 327.762C498.88 330.08 497.552 332.251 495.955 334.218L498.725 340.674L489.321 347.528L484.04 342.89C481.671 343.807 479.191 344.404 476.666 344.666L474.014 351.273L462.539 349.454L462.078 342.417C459.764 341.391 457.598 340.059 455.637 338.457L449.196 341.233L442.359 331.808L446.985 326.514C446.069 324.14 445.477 321.654 445.225 319.122L438.688 316.518L440.512 305.005L447.522 304.542C448.55 302.225 449.878 300.054 451.472 298.086L448.703 291.63L458.106 284.776L463.387 289.413L463.377 289.338ZM466.801 305.704C464.805 307.157 463.284 309.172 462.43 311.492C461.576 313.812 461.428 316.334 462.004 318.738C462.579 321.143 463.854 323.322 465.665 325.001C467.477 326.679 469.745 327.782 472.181 328.169C474.618 328.555 477.114 328.209 479.355 327.174C481.595 326.138 483.479 324.46 484.768 322.352C486.057 320.243 486.693 317.799 486.596 315.328C486.499 312.856 485.673 310.47 484.223 308.469C482.278 305.787 479.35 303.989 476.083 303.47C472.816 302.952 469.477 303.755 466.801 305.704Z" fill="#F5F5F5"/>
<path d="M645.032 278.107C648.658 276.702 652.456 275.79 656.325 275.395L660.318 265.367L677.965 268.143L678.684 278.903C682.239 280.484 685.571 282.528 688.592 284.983L698.478 280.679L708.955 295.129L701.86 303.242C703.266 306.88 704.18 310.691 704.575 314.573L714.58 318.565L711.8 336.211L701.065 336.921C699.494 340.487 697.454 343.827 695 346.853L699.294 356.773L684.878 367.275L676.773 360.163C673.146 361.566 669.349 362.482 665.481 362.885L661.488 372.913L643.894 370.116L643.175 359.356C639.618 357.779 636.286 355.735 633.267 353.276L623.381 357.58L612.904 343.13L619.999 335.017C618.594 331.382 617.681 327.575 617.284 323.697L607.279 319.694L610.059 302.048L620.794 301.338C622.36 297.771 624.396 294.431 626.848 291.406L622.554 281.486L636.97 270.984L645.075 278.096L645.032 278.107ZM650.26 303.189C647.201 305.417 644.87 308.504 643.562 312.06C642.254 315.616 642.027 319.481 642.91 323.166C643.793 326.851 645.746 330.191 648.522 332.764C651.299 335.336 654.774 337.026 658.509 337.618C662.243 338.211 666.069 337.681 669.503 336.094C672.936 334.507 675.824 331.936 677.799 328.704C679.775 325.473 680.75 321.727 680.602 317.94C680.454 314.152 679.189 310.494 676.967 307.428C673.986 303.316 669.499 300.558 664.491 299.761C659.483 298.965 654.364 300.193 650.26 303.178V303.189Z" fill="#EBEBEB"/>
<path d="M249.913 113.768C252.585 112.733 255.383 112.06 258.232 111.767L261.174 104.375L274.141 106.43L274.667 114.371C277.287 115.532 279.742 117.037 281.966 118.847L289.255 115.705L296.973 126.358L291.745 132.329C292.776 135.012 293.448 137.82 293.742 140.679L301.105 143.627L299.044 156.626L291.133 157.153C289.971 159.777 288.47 162.237 286.668 164.47L289.791 171.765L279.175 179.512L273.207 174.272C270.534 175.306 267.737 175.979 264.888 176.273L261.946 183.655L248.979 181.6L248.453 173.669C245.835 172.505 243.381 171 241.154 169.193L233.865 172.324L226.147 161.683L231.375 155.7C230.344 153.022 229.672 150.217 229.378 147.361L222.004 144.413L224.054 131.415L231.976 130.888C233.138 128.263 234.639 125.803 236.442 123.571L233.307 116.265L243.934 108.528L249.902 113.768H249.913ZM253.767 132.243C251.514 133.885 249.798 136.16 248.834 138.779C247.871 141.399 247.705 144.246 248.356 146.961C249.006 149.675 250.446 152.135 252.491 154.03C254.537 155.925 257.097 157.169 259.848 157.605C262.599 158.041 265.417 157.65 267.947 156.481C270.476 155.312 272.603 153.417 274.058 151.037C275.513 148.656 276.231 145.897 276.122 143.107C276.012 140.317 275.08 137.623 273.443 135.364C271.245 132.336 267.938 130.307 264.249 129.722C260.56 129.137 256.79 130.044 253.767 132.243Z" fill="#F5F5F5"/>
<path d="M562.475 313.999C564.513 313.213 566.646 312.699 568.819 312.471L571.051 306.844L580.927 308.415L581.324 314.451C583.321 315.335 585.191 316.482 586.885 317.862L592.434 315.473L598.317 323.576L594.334 328.138C595.124 330.176 595.636 332.311 595.858 334.486L601.473 336.735L599.905 346.634L593.883 347.032C592.995 349.03 591.851 350.904 590.481 352.606L592.864 358.169L584.77 364.065L580.283 360.073C578.249 360.861 576.119 361.372 573.95 361.591L571.695 367.218L561.82 365.658L561.423 359.611C559.425 358.728 557.555 357.581 555.862 356.2L550.227 358.589L544.344 350.486L548.327 345.935C547.542 343.891 547.03 341.753 546.803 339.576L541.199 337.338L542.756 327.438L548.788 327.04C549.666 325.037 550.811 323.162 552.191 321.467L549.808 315.904L557.891 310.007L562.432 313.999H562.475ZM565.416 328.073C563.704 329.329 562.402 331.064 561.673 333.061C560.944 335.058 560.822 337.226 561.322 339.293C561.822 341.359 562.921 343.231 564.481 344.671C566.041 346.112 567.992 347.057 570.088 347.387C572.183 347.717 574.329 347.417 576.255 346.526C578.181 345.634 579.8 344.191 580.908 342.378C582.016 340.565 582.563 338.463 582.48 336.339C582.398 334.214 581.689 332.162 580.444 330.44C579.614 329.293 578.567 328.322 577.361 327.582C576.156 326.842 574.817 326.348 573.42 326.128C572.024 325.908 570.598 325.966 569.225 326.3C567.851 326.634 566.557 327.237 565.416 328.073Z" fill="#E0E0E0"/>
<path d="M280.485 288.074C282.086 287.447 283.766 287.041 285.476 286.869L287.237 282.414L295.019 283.651L295.33 288.407C296.904 289.103 298.377 290.008 299.71 291.097L304.09 289.214L308.716 295.606L305.582 299.189C306.206 300.795 306.611 302.478 306.784 304.192L311.207 305.968L309.972 313.769L305.228 314.081C304.531 315.657 303.628 317.133 302.544 318.471L304.412 322.872L298.036 327.52L294.472 324.378C292.868 324.996 291.189 325.397 289.48 325.572L287.709 330.006L279.927 328.779L279.615 324.012C278.041 323.318 276.568 322.413 275.236 321.322L270.867 323.216L266.23 316.846L269.364 313.252C268.747 311.645 268.346 309.962 268.173 308.249L263.75 306.484L264.974 298.683L269.729 298.371C270.419 296.792 271.322 295.315 272.413 293.981L270.534 289.591L276.9 284.953L280.485 288.095V288.074ZM282.793 299.157C281.442 300.142 280.413 301.506 279.836 303.078C279.259 304.649 279.16 306.357 279.55 307.984C279.941 309.612 280.805 311.088 282.032 312.224C283.259 313.36 284.794 314.106 286.444 314.368C288.094 314.629 289.784 314.395 291.301 313.694C292.818 312.992 294.094 311.856 294.966 310.429C295.839 309.001 296.271 307.346 296.205 305.673C296.14 304 295.582 302.384 294.601 301.029C293.28 299.215 291.296 297.999 289.082 297.648C286.869 297.297 284.608 297.84 282.793 299.157Z" fill="#F5F5F5"/>
<path d="M355.806 289.245C359.878 287.671 364.141 286.647 368.483 286.2L372.959 274.945L392.711 278.076L393.505 290.16C397.492 291.933 401.228 294.227 404.615 296.982L415.714 292.204L427.522 308.42L419.557 317.523C421.136 321.603 422.162 325.877 422.606 330.23L433.823 334.717L430.71 354.516L418.645 355.323C416.884 359.323 414.595 363.069 411.839 366.459L416.605 377.585L400.439 389.421L391.358 381.405C387.286 382.983 383.023 384.01 378.681 384.461L374.183 395.694L354.432 392.563L353.638 380.479C349.644 378.713 345.904 376.418 342.517 373.658L331.417 378.435L319.663 362.23L327.618 353.117C326.047 349.035 325.025 344.761 324.58 340.409L313.352 335.922L316.475 316.124L328.53 315.328C330.297 311.327 332.585 307.578 335.336 304.18L330.569 293.054L346.746 281.272L355.827 289.245H355.806ZM361.688 317.394C358.25 319.894 355.629 323.361 354.158 327.355C352.686 331.35 352.429 335.692 353.42 339.832C354.411 343.973 356.606 347.726 359.725 350.616C362.845 353.506 366.75 355.403 370.946 356.068C375.142 356.732 379.44 356.134 383.297 354.349C387.153 352.564 390.395 349.672 392.611 346.04C394.828 342.407 395.919 338.197 395.748 333.943C395.576 329.688 394.149 325.58 391.648 322.139C388.299 317.532 383.264 314.445 377.647 313.555C372.03 312.666 366.291 314.046 361.688 317.394Z" fill="#E0E0E0"/>
<path d="M755.62 505.78C755.62 505.93 599.736 506.06 407.484 506.06C215.232 506.06 59.3047 505.93 59.3047 505.78C59.3047 505.629 215.157 505.5 407.484 505.5C599.811 505.5 755.62 505.618 755.62 505.78Z" fill="#FF9C66"/>
<path d="M616.029 446.961L601.398 506.453H612.82L627.923 451.394L617.725 448.467" fill="#455A64"/>
<path d="M689.066 446.961L703.696 506.453H692.275L677.172 451.394L687.37 448.467" fill="#455A64"/>
<path d="M697.9 457.778C722.038 433.583 722.038 394.355 697.9 370.159C673.763 345.964 634.628 345.964 610.49 370.159C586.353 394.355 586.353 433.583 610.49 457.778C634.628 481.974 673.763 481.974 697.9 457.778Z" fill="#FFBD99"/>
<g opacity="0.3">
<path d="M697.9 457.771C722.038 433.575 722.038 394.347 697.9 370.151C673.763 345.956 634.628 345.956 610.49 370.151C586.353 394.347 586.353 433.575 610.49 457.771C634.628 481.966 673.763 481.966 697.9 457.771Z" fill="black"/>
</g>
<path d="M681.728 460.791C711.821 444.637 723.151 407.089 707.036 376.924C690.921 346.76 653.462 335.402 623.37 351.556C593.278 367.71 581.947 405.258 598.062 435.422C614.177 465.586 651.636 476.944 681.728 460.791Z" fill="#FFBD99"/>
<path d="M685.949 430.706C699.476 412.227 695.497 386.254 677.062 372.694C658.627 359.135 632.716 363.123 619.189 381.603C605.661 400.082 609.64 426.055 628.076 439.614C646.511 453.174 672.422 449.186 685.949 430.706Z" fill="white"/>
<path d="M672.806 406.629C672.707 410.646 671.422 414.543 669.113 417.828C666.804 421.113 663.575 423.638 659.835 425.083C656.094 426.528 652.01 426.829 648.099 425.947C644.188 425.066 640.626 423.041 637.863 420.13C635.1 417.219 633.26 413.552 632.576 409.592C631.893 405.633 632.396 401.559 634.022 397.886C635.648 394.213 638.324 391.107 641.712 388.959C645.1 386.811 649.047 385.718 653.055 385.819C658.427 385.954 663.525 388.222 667.229 392.125C670.932 396.027 672.939 401.244 672.806 406.629Z" fill="#FFBD99"/>
<path d="M696.741 361.851L695.389 348.595L709.172 334.531L709.783 348.821L696.741 361.851Z" fill="#455A64"/>
<path d="M725.812 352.062L712.222 350.609L698.246 363.425L711.868 365.232L725.812 352.062Z" fill="#455A64"/>
<g opacity="0.3">
<path d="M655.266 405.893L703.409 370.913C701.701 368.3 699.784 365.832 697.677 363.531L655.341 402.665L655.266 405.893Z" fill="black"/>
</g>
<path d="M710.385 346.845L690.666 365.642L659.386 395.48L652.194 402.334C649.919 404.486 653.268 408.037 655.586 405.863L675.305 387.055L706.585 357.228L713.777 350.363C716.053 348.211 712.704 344.671 710.385 346.845Z" fill="#FF9C66"/>
<path d="M257.181 433.709C257.347 428.866 256.536 424.038 254.796 419.516C253.056 414.994 250.423 410.871 247.056 407.393C243.688 403.916 239.654 401.156 235.196 399.279C230.738 397.402 225.949 396.446 221.114 396.469C200.783 396.577 183.962 413.395 183.543 434.043C183.336 441.037 185.151 447.942 188.77 453.925C192.388 459.908 197.656 464.715 203.939 467.765C203.842 472.198 203.745 477.191 203.745 477.191L235.948 477.029C235.948 477.029 236.26 471.735 236.421 467.012C242.535 463.828 247.686 459.059 251.337 453.202C254.989 447.345 257.007 440.614 257.181 433.709Z" fill="#FFBD99"/>
<path d="M216.254 476.876C216.254 464.75 217.166 452.623 217.016 440.497C217.016 438.043 216.908 435.59 216.672 433.158C216.382 430.102 215.749 426.702 212.98 425.024C212.38 424.636 211.699 424.392 210.99 424.31C210.281 424.227 209.562 424.31 208.89 424.55C207.585 425.139 206.533 426.177 205.927 427.477C204.585 430.26 204.107 433.382 204.553 436.44C204.872 439.391 205.997 442.197 207.803 444.549C209.61 446.901 212.029 448.708 214.794 449.772C217.659 450.797 220.748 451.021 223.73 450.42C226.712 449.819 229.475 448.416 231.722 446.361C236.177 442.164 238.667 434.934 236.649 429.069C235.779 426.541 233.665 423.689 230.681 424.055C227.696 424.421 226.387 427.283 225.668 429.866C225.007 432.876 224.59 435.934 224.422 439.012C224.1 442.541 223.875 446.081 223.693 449.621C223.295 456.906 223.081 464.19 222.694 471.485C222.608 473.089 222.512 474.713 222.404 476.306C222.404 476.855 223.199 476.812 223.231 476.306C224.122 463.394 224.1 450.482 225.378 437.57C225.515 434.656 225.987 431.768 226.784 428.962C227.185 427.585 228.021 426.377 229.167 425.519C229.769 425.127 230.474 424.925 231.191 424.939C231.909 424.952 232.606 425.18 233.192 425.594C235.747 427.305 236.509 430.802 236.413 433.739C236.35 436.813 235.459 439.813 233.836 442.423C232.268 444.979 230.005 447.035 227.313 448.35C224.622 449.664 221.612 450.184 218.637 449.847C215.774 449.522 213.066 448.373 210.841 446.538C208.615 444.702 206.969 442.26 206.099 439.507C205.183 436.761 205.005 433.821 205.584 430.985C206.174 428.155 208.01 424.163 211.509 425.239C215.008 426.315 215.567 430.189 215.856 433.287C216.06 435.439 216.125 437.591 216.168 439.743C216.372 450.977 215.674 462.221 215.459 473.465C215.459 474.541 215.459 475.736 215.459 476.876C215.459 477.414 216.286 477.382 216.297 476.876H216.254Z" fill="white"/>
<path d="M212.379 496.189C213.157 496.717 213.855 497.354 214.451 498.082C214.653 498.339 214.911 498.546 215.205 498.687C215.498 498.829 215.821 498.902 216.147 498.9H222.587C222.951 498.899 223.309 498.81 223.631 498.639C223.953 498.468 224.228 498.222 224.434 497.921C224.95 497.085 225.744 496.46 226.677 496.156L212.379 496.189Z" fill="#455A64"/>
<path d="M205.713 477.872C205.713 478.001 207.012 488.299 207.516 492.226C207.602 493.017 207.887 493.773 208.343 494.424C208.799 495.075 209.412 495.6 210.125 495.949C210.701 496.211 211.327 496.347 211.96 496.347L226.162 496.261C226.162 496.261 229.865 496.261 230.767 493.248C231.669 490.236 233.633 477.711 233.633 477.711L205.713 477.872Z" fill="#FF9C66"/>
<path d="M231.703 491.866L207.014 492.103C206.921 492.103 206.83 492.084 206.746 492.048C206.661 492.012 206.584 491.96 206.52 491.893C206.456 491.827 206.406 491.749 206.373 491.663C206.339 491.577 206.324 491.485 206.327 491.392V491.317C206.326 491.128 206.401 490.946 206.533 490.811C206.666 490.676 206.846 490.599 207.035 490.596L231.724 490.359C231.817 490.358 231.909 490.375 231.995 490.411C232.081 490.446 232.159 490.498 232.225 490.565C232.29 490.631 232.341 490.71 232.375 490.797C232.409 490.884 232.425 490.976 232.422 491.07V491.156C232.416 491.344 232.338 491.523 232.204 491.655C232.07 491.788 231.891 491.863 231.703 491.866Z" fill="#E0E0E0"/>
<path d="M231.7 491.867C231.88 491.845 232.05 491.766 232.183 491.641C232.258 491.562 232.315 491.467 232.349 491.362C232.382 491.258 232.391 491.147 232.376 491.038C232.374 490.894 232.323 490.754 232.231 490.643C232.139 490.531 232.012 490.455 231.871 490.425C230.53 490.425 228.533 490.425 226.096 490.5L206.989 490.716C206.891 490.718 206.795 490.743 206.71 490.79C206.624 490.837 206.55 490.904 206.495 490.985C206.443 491.069 206.41 491.165 206.399 491.264C206.377 491.364 206.377 491.466 206.399 491.566C206.425 491.656 206.472 491.739 206.538 491.807C206.603 491.874 206.685 491.925 206.774 491.953C206.989 491.97 207.204 491.97 207.418 491.953H210.102H215.179L223.767 491.899H229.553H231.539H231.131H229.553L223.767 491.996L215.179 492.104H210.102H207.418H207.075C206.951 492.124 206.824 492.124 206.699 492.104C206.571 492.061 206.455 491.988 206.361 491.891C206.268 491.793 206.2 491.674 206.163 491.544C206.141 491.416 206.141 491.285 206.163 491.157C206.186 490.948 206.283 490.755 206.437 490.613C206.591 490.47 206.791 490.389 207 490.382L226.096 490.242C228.544 490.242 230.508 490.242 231.893 490.242C232.049 490.282 232.188 490.372 232.289 490.498C232.39 490.624 232.447 490.78 232.451 490.942C232.461 491.06 232.446 491.179 232.405 491.291C232.364 491.402 232.299 491.504 232.215 491.587C232.157 491.671 232.08 491.741 231.991 491.789C231.901 491.838 231.801 491.865 231.7 491.867Z" fill="#FF9C66"/>
<path d="M232.292 488.616L206.529 488.863C206.437 488.863 206.346 488.845 206.261 488.809C206.176 488.773 206.1 488.72 206.036 488.654C205.972 488.588 205.921 488.509 205.888 488.423C205.855 488.337 205.839 488.245 205.842 488.153V488.078C205.842 487.888 205.916 487.707 206.049 487.572C206.182 487.437 206.362 487.36 206.551 487.357L232.313 487.109C232.406 487.109 232.497 487.128 232.583 487.164C232.668 487.199 232.745 487.252 232.81 487.318C232.875 487.384 232.926 487.463 232.961 487.549C232.995 487.635 233.012 487.727 233.011 487.82V487.927C233.002 488.113 232.923 488.288 232.789 488.416C232.655 488.544 232.477 488.616 232.292 488.616Z" fill="#E0E0E0"/>
<path d="M232.289 488.613C232.392 488.604 232.492 488.574 232.583 488.524C232.674 488.475 232.753 488.407 232.817 488.325C232.88 488.243 232.926 488.149 232.952 488.049C232.977 487.948 232.982 487.844 232.965 487.741C232.949 487.593 232.883 487.454 232.778 487.349C232.672 487.243 232.534 487.177 232.386 487.16L226.375 487.246L206.527 487.472C206.425 487.474 206.325 487.502 206.237 487.552C206.149 487.603 206.075 487.676 206.022 487.763C205.971 487.852 205.942 487.951 205.936 488.053C205.914 488.156 205.914 488.263 205.936 488.365C205.972 488.459 206.031 488.541 206.108 488.603C206.186 488.665 206.278 488.706 206.376 488.721C206.559 488.721 206.838 488.721 207.063 488.721H209.844H215.114L224.034 488.656H232.107H231.688H230.046L224.034 488.753L215.114 488.871L209.844 488.925H207.053C206.806 488.925 206.602 488.925 206.323 488.925C206.186 488.898 206.057 488.836 205.95 488.746C205.843 488.656 205.761 488.539 205.711 488.409C205.685 488.273 205.685 488.135 205.711 488C205.714 487.855 205.754 487.714 205.829 487.591C205.905 487.467 206.011 487.365 206.136 487.294C206.262 487.222 206.404 487.184 206.548 487.182L226.385 487.031C228.929 487.031 230.98 487.031 232.407 487.031C232.574 487.053 232.729 487.13 232.846 487.251C232.963 487.373 233.036 487.53 233.051 487.698C233.066 487.819 233.053 487.942 233.014 488.058C232.975 488.173 232.911 488.278 232.826 488.365C232.763 488.447 232.681 488.512 232.588 488.555C232.494 488.598 232.392 488.618 232.289 488.613Z" fill="#FF9C66"/>
<path d="M232.688 485.366L206.238 485.613C206.147 485.615 206.056 485.598 205.971 485.563C205.886 485.528 205.809 485.476 205.745 485.411C205.681 485.346 205.631 485.268 205.597 485.182C205.564 485.097 205.548 485.006 205.551 484.914V484.828C205.554 484.639 205.629 484.459 205.761 484.325C205.893 484.19 206.072 484.112 206.26 484.107L232.709 483.859C232.802 483.859 232.893 483.878 232.979 483.914C233.064 483.949 233.141 484.002 233.206 484.068C233.271 484.134 233.322 484.212 233.357 484.299C233.391 484.385 233.408 484.477 233.407 484.57V484.699C233.391 484.879 233.308 485.048 233.175 485.171C233.043 485.294 232.869 485.364 232.688 485.366Z" fill="#E0E0E0"/>
<path d="M232.687 485.362C232.88 485.346 233.06 485.257 233.192 485.114C233.265 485.023 233.318 484.918 233.348 484.805C233.377 484.692 233.383 484.573 233.363 484.458C233.341 484.308 233.266 484.17 233.152 484.07C233.038 483.97 232.892 483.913 232.741 483.909L226.579 484.006L206.259 484.232C206.155 484.234 206.053 484.263 205.962 484.316C205.872 484.368 205.797 484.443 205.744 484.533C205.696 484.627 205.671 484.73 205.669 484.835C205.64 484.937 205.64 485.045 205.669 485.147C205.708 485.24 205.772 485.321 205.853 485.382C205.934 485.442 206.03 485.48 206.13 485.491H206.85H209.705H215.072L224.207 485.437H230.369H232.623H232.472H232.043H230.358L224.207 485.534L215.072 485.642L209.705 485.706H206.85C206.603 485.706 206.388 485.706 206.12 485.706C205.907 485.682 205.712 485.575 205.578 485.407C205.443 485.24 205.379 485.027 205.4 484.813C205.399 484.666 205.436 484.522 205.508 484.394C205.583 484.265 205.689 484.159 205.817 484.083C205.945 484.008 206.09 483.967 206.238 483.963L226.547 483.812H232.709C232.88 483.819 233.043 483.886 233.169 484.003C233.295 484.119 233.375 484.277 233.396 484.447C233.418 484.572 233.411 484.7 233.376 484.821C233.34 484.942 233.277 485.054 233.192 485.147C232.923 485.437 232.676 485.362 232.687 485.362Z" fill="#FF9C66"/>
<path d="M233.288 482.116L205.765 482.385C205.673 482.385 205.582 482.366 205.497 482.33C205.413 482.294 205.336 482.242 205.272 482.176C205.208 482.109 205.158 482.031 205.124 481.945C205.091 481.859 205.076 481.767 205.078 481.675V481.589C205.081 481.4 205.156 481.22 205.288 481.086C205.42 480.951 205.599 480.873 205.787 480.868L233.31 480.609C233.402 480.609 233.494 480.628 233.579 480.664C233.665 480.699 233.742 480.752 233.807 480.818C233.872 480.884 233.923 480.962 233.958 481.049C233.992 481.135 234.009 481.227 234.008 481.32V481.395C234.008 481.586 233.932 481.769 233.797 481.905C233.662 482.04 233.479 482.116 233.288 482.116Z" fill="#E0E0E0"/>
<path d="M233.289 482.112C233.399 482.103 233.505 482.07 233.601 482.016C233.697 481.961 233.78 481.886 233.843 481.795C233.907 481.705 233.95 481.602 233.969 481.493C233.988 481.384 233.983 481.272 233.954 481.165C233.919 481.011 233.828 480.874 233.7 480.781C233.572 480.688 233.414 480.645 233.257 480.66L226.816 480.756L205.734 480.993C205.625 480.995 205.52 481.027 205.427 481.083C205.335 481.14 205.259 481.22 205.208 481.316C205.16 481.415 205.136 481.523 205.136 481.633C205.136 481.743 205.16 481.852 205.208 481.951C205.255 482.046 205.329 482.124 205.421 482.178C205.512 482.231 205.617 482.257 205.723 482.252H206.474H209.437H215.03L224.508 482.188H230.895H233.235H233.085H232.623H230.895L224.454 482.284L214.987 482.403L209.383 482.457H206.432H205.669C205.522 482.457 205.377 482.417 205.25 482.341C205.124 482.265 205.02 482.156 204.95 482.026C204.886 481.892 204.853 481.745 204.854 481.596C204.852 481.445 204.889 481.297 204.961 481.165C205.03 481.027 205.136 480.911 205.266 480.83C205.397 480.748 205.548 480.704 205.702 480.703L226.773 480.541H233.214C233.39 480.527 233.565 480.579 233.705 480.686C233.846 480.793 233.942 480.949 233.976 481.122C234.003 481.249 234.001 481.381 233.972 481.507C233.942 481.634 233.885 481.752 233.804 481.854C233.697 481.975 233.554 482.058 233.396 482.091L233.289 482.112Z" fill="#FF9C66"/>
<path d="M202.322 469.002C202.322 469.271 202.773 475.577 203.009 478.815C203.05 479.395 203.223 479.958 203.515 480.46C203.807 480.961 204.211 481.389 204.695 481.71L206.122 482.657L233.57 482.549L235.019 481.602C235.519 481.274 235.939 480.838 236.249 480.326C236.559 479.814 236.751 479.239 236.812 478.643L237.821 468.852L202.322 469.002Z" fill="#E0E0E0"/>
<g opacity="0.3">
<path d="M207.893 492.028C210.583 492.543 213.324 492.745 216.061 492.63C218.402 492.63 220.699 492.63 223.243 492.63C225.11 492.576 226.828 492.469 228.685 492.383C229.427 492.375 230.158 492.21 230.832 491.898L207.893 492.028Z" fill="black"/>
</g>
<g opacity="0.3">
<path d="M206.979 488.776C209.882 489.293 212.834 489.491 215.781 489.367C218.303 489.367 220.783 489.367 223.531 489.367C225.538 489.314 227.385 489.217 229.392 489.12C230.198 489.119 230.995 488.951 231.732 488.625L206.979 488.776Z" fill="black"/>
</g>
<g opacity="0.3">
<path d="M207.033 485.557C209.941 486.074 212.896 486.273 215.846 486.149C218.369 486.149 220.848 486.149 223.586 486.149C225.604 486.095 227.45 485.987 229.457 485.901C230.262 485.894 231.058 485.726 231.797 485.406L207.033 485.557Z" fill="black"/>
</g>
<g opacity="0.3">
<path d="M207.098 482.327C210.005 482.848 212.96 483.05 215.911 482.93C218.433 482.93 220.913 482.93 223.65 482.93C225.668 482.876 227.514 482.769 229.522 482.672C230.327 482.672 231.123 482.507 231.862 482.188L207.098 482.327Z" fill="black"/>
</g>
<path d="M236.112 479.935C236.112 480 228.769 480.096 219.72 480.15C210.671 480.204 203.318 480.15 203.318 480.15C203.318 480.15 210.661 479.989 219.72 479.935C228.78 479.881 236.112 479.871 236.112 479.935Z" fill="#FF9C66"/>
<path d="M237.624 468.612C237.624 468.688 229.659 468.827 219.816 468.924C209.973 469.021 202.008 469.032 202.008 468.924C202.008 468.817 209.973 468.709 219.816 468.612C229.659 468.515 237.624 468.558 237.624 468.612Z" fill="#FF9C66"/>
<g opacity="0.2">
<path d="M213.504 407.52C213.59 406.624 213.862 405.757 214.302 404.973C214.742 404.19 215.34 403.507 216.059 402.968C218.234 401.114 221.046 400.187 223.895 400.386C232.192 400.87 237.849 403.442 243.496 410.07C245.406 412.308 247.618 416.418 247.435 419.56C247.401 420.345 247.21 421.114 246.875 421.824C246.539 422.534 246.066 423.169 245.482 423.692C242.347 426.36 238.043 424.176 235.531 421.357C233.18 418.732 231.334 415.396 228.113 413.986C225.462 412.824 222.403 413.212 219.526 412.792C216.649 412.372 213.536 410.457 213.504 407.52Z" fill="white"/>
</g>
<g opacity="0.2">
<path d="M243.111 431.508C243.551 430.359 244.356 429.386 245.401 428.738C246.446 428.091 247.674 427.805 248.896 427.925C249.711 428.134 250.466 428.53 251.103 429.081C251.74 429.631 252.241 430.322 252.568 431.099C252.926 432.072 252.996 433.128 252.769 434.14C252.542 435.151 252.029 436.076 251.29 436.802C250.537 437.5 249.582 437.941 248.563 438.059C247.544 438.177 246.514 437.966 245.623 437.458C243.916 436.393 242.434 433.466 243.111 431.508Z" fill="white"/>
</g>
<path d="M176.322 409.178C176.236 409.307 169.549 405.121 161.369 399.827C153.189 394.533 146.642 390.143 146.727 390.003C146.813 389.864 153.501 394.06 161.68 399.354C169.86 404.648 176.408 409.049 176.322 409.178Z" fill="#FF9C66"/>
<path d="M184.19 395.121C181.954 392.508 179.861 389.774 177.922 386.933C175.83 384.204 173.888 381.362 172.104 378.422C174.34 381.035 176.432 383.769 178.372 386.61C180.468 389.336 182.411 392.178 184.19 395.121Z" fill="#FF9C66"/>
<path d="M171.181 424.031C170.139 423.995 169.1 423.901 168.068 423.752C166.125 423.526 163.43 423.192 160.468 422.783C157.505 422.374 154.822 421.976 152.879 421.707C151.913 421.546 151.129 421.395 150.592 421.277L149.98 421.115C149.918 421.104 149.859 421.078 149.809 421.04C149.873 420.932 149.873 421.04 149.884 421.04C150.132 421.033 150.38 421.051 150.624 421.094L152.943 421.341C154.886 421.578 157.57 421.912 160.543 422.32C166.447 423.041 171.31 423.827 171.181 424.031Z" fill="#FF9C66"/>
<path d="M448.929 267.022C433.387 254.389 421.754 237.581 415.391 218.565C409.028 199.548 408.197 179.109 412.995 159.636C417.794 140.164 428.023 122.463 442.488 108.604C456.953 94.7444 475.055 85.2991 494.677 81.3724C514.3 77.4456 534.632 79.1997 553.297 86.4294C571.962 93.6592 588.188 106.066 600.078 122.199C611.967 138.332 619.029 157.524 620.438 177.532C621.847 197.54 617.544 217.536 608.033 235.184L579.115 219.495C585.66 207.349 588.619 193.586 587.648 179.816C586.677 166.046 581.815 152.837 573.631 141.735C565.446 130.633 554.278 122.095 541.431 117.121C528.584 112.147 514.59 110.942 501.086 113.647C487.581 116.352 475.123 122.855 465.17 132.395C455.216 141.936 448.178 154.119 444.878 167.522C441.578 180.924 442.153 194.991 446.535 208.079C450.917 221.166 458.926 232.732 469.624 241.424L448.929 267.022Z" fill="#455A64"/>
<g opacity="0.3">
<path d="M575.422 132.179L578.127 135.245L587.788 126.766C587.445 126.056 587.069 125.367 586.715 124.69C586.715 124.69 586.715 124.593 586.715 124.571C586.715 124.55 586.715 124.571 586.629 124.571C586.061 123.604 585.434 122.673 584.75 121.784C583.225 119.843 581.478 118.088 579.544 116.555C578.879 116.017 578.192 115.479 577.473 114.995L567.812 123.474L570.442 126.476L567.339 129.209C557.215 119.467 544.229 113.253 530.306 111.487L530.553 105.72L535.383 105.913L535.995 91C536.156 90.9032 536.242 90.8278 536.231 90.8063C536.22 90.7848 536.145 90.8063 536.006 90.8063C530.001 88.8997 523.599 88.6323 517.457 90.0316V90.1607C517.403 90.1607 517.371 90.1607 517.36 90.1607C517.349 90.1607 517.36 90.2253 517.446 90.2791L516.834 105.192L521.547 105.397L521.31 111.003C506.767 111.136 492.685 116.139 481.304 125.217L478.405 121.537L481.626 118.998L473.682 108.926C472.952 109.227 472.244 109.561 471.535 109.927C471.535 109.927 471.439 109.927 471.428 109.927C471.417 109.927 471.428 109.927 471.428 110.024C470.433 110.539 469.472 111.117 468.551 111.756C466.533 113.181 464.688 114.839 463.055 116.695C462.497 117.33 461.982 117.986 461.402 118.685L469.335 128.757L472.469 126.282L475.636 130.306C466.659 139.317 460.486 150.749 457.868 163.21C455.25 175.672 456.3 188.627 460.89 200.502C465.48 212.377 473.412 222.66 483.723 230.1C494.033 237.541 506.278 241.819 518.969 242.415C531.659 243.011 544.249 239.899 555.209 233.457C566.168 227.015 575.024 217.521 580.702 206.128C586.379 194.735 588.632 181.935 587.188 169.283C585.744 156.63 580.665 144.671 572.567 134.858L575.422 132.179Z" fill="black"/>
</g>
<path d="M471.851 121.536L465.879 126.266L473.245 135.612L479.217 130.883L471.851 121.536Z" fill="#FF9C66"/>
<path d="M477.233 121.777L464.921 131.515L456.988 121.444C460.15 117.154 464.396 113.789 469.29 111.695L477.233 121.777Z" fill="#FFBD99"/>
<path d="M467.007 129.883C466.814 130.034 464.785 127.828 462.488 124.944C460.191 122.061 458.484 119.564 458.677 119.435C458.87 119.306 460.899 121.49 463.196 124.374C465.493 127.258 467.211 129.722 467.007 129.883Z" fill="#FF9C66"/>
<path d="M469.356 128.025C469.152 128.175 467.209 125.873 464.891 122.828C463.433 121.063 462.149 119.16 461.059 117.146C461.305 116.931 463.356 119.298 465.621 122.268C467.886 125.238 469.56 127.874 469.356 128.025Z" fill="#FF9C66"/>
<path d="M472.478 125.548C472.274 125.699 470.267 123.331 467.991 120.276C465.716 117.22 464.019 114.627 464.18 114.497C464.342 114.368 466.445 116.649 468.721 119.727C470.997 122.804 472.671 125.397 472.478 125.548Z" fill="#FF9C66"/>
<path d="M475.326 123.241C475.133 123.391 473.115 121.153 470.839 118.237C468.563 115.321 466.867 112.857 467.071 112.674C467.275 112.491 469.272 114.762 471.558 117.678C473.845 120.594 475.519 123.079 475.326 123.241Z" fill="#FF9C66"/>
<path d="M573.806 132.659L568.781 126.93L559.857 134.794L564.882 140.524L573.806 132.659Z" fill="#FF9C66"/>
<path d="M573.845 138.109L563.486 126.273L573.147 117.805C577.59 120.755 581.166 124.841 583.506 129.641L573.845 138.109Z" fill="#FFBD99"/>
<path d="M565.183 128.27C565.022 128.087 567.115 125.935 569.873 123.482C572.632 121.029 574.994 119.178 575.165 119.383C575.337 119.587 573.233 121.718 570.475 124.171C567.716 126.624 565.354 128.464 565.183 128.27Z" fill="#FF9C66"/>
<path d="M567.157 130.522C566.996 130.329 569.228 128.22 572.116 125.788C573.793 124.239 575.616 122.855 577.558 121.656C577.794 121.882 575.583 124.056 572.696 126.487C569.808 128.919 567.318 130.695 567.157 130.522Z" fill="#FF9C66"/>
<path d="M569.785 133.525C569.624 133.331 571.879 131.201 574.809 128.758C577.74 126.316 580.23 124.454 580.37 124.637C580.509 124.82 578.319 127.015 575.389 129.458C572.458 131.9 569.946 133.719 569.785 133.525Z" fill="#FF9C66"/>
<path d="M572.245 136.247C572.084 136.064 574.209 133.933 576.989 131.502C579.77 129.07 582.174 127.198 582.357 127.434C582.539 127.671 580.403 129.748 577.612 132.179C574.821 134.611 572.417 136.44 572.245 136.247Z" fill="#FF9C66"/>
<path d="M526.986 103.588L517.969 103.227L517.406 117.322L526.423 117.684L526.986 103.588Z" fill="#FF9C66"/>
<path d="M531.026 108.746L512.477 107.972L513.099 92.7894C519.241 91.3901 525.644 91.6575 531.648 93.5641L531.026 108.746Z" fill="#FFBD99"/>
<path d="M531.873 93.6208C532.001 93.8037 527.869 95.8589 522.351 95.6222C516.834 95.3855 512.862 93.0936 513.002 92.9322C513.141 92.7708 517.091 94.5569 522.383 94.7183C527.675 94.8797 531.787 93.3518 531.873 93.6208Z" fill="#FF9C66"/>
<path d="M518.607 108.183C518.349 108.183 518.274 105.245 518.424 101.651C518.575 98.0575 518.897 95.1953 519.144 95.1953C519.391 95.1953 519.476 98.122 519.326 101.716C519.176 105.31 518.854 108.193 518.607 108.183Z" fill="#FF9C66"/>
<path d="M522.128 108.42C521.881 108.42 521.795 105.472 521.945 101.857C522.096 98.2412 522.418 95.3252 522.675 95.336C522.933 95.3467 523.008 98.2842 522.858 101.9C522.708 105.515 522.386 108.431 522.128 108.42Z" fill="#FF9C66"/>
<path d="M525.657 108.506C525.41 108.506 525.324 105.558 525.475 101.942C525.625 98.3271 525.947 95.4111 526.205 95.4219C526.462 95.4327 526.537 98.3701 526.387 101.986C526.237 105.601 525.915 108.517 525.657 108.506Z" fill="#FF9C66"/>
<path d="M528.6 108.623C528.353 108.623 528.278 105.395 528.439 101.532C528.6 97.6694 528.932 94.4736 529.19 94.4844C529.448 94.4952 529.512 97.7124 529.351 101.575C529.19 105.438 528.847 108.634 528.6 108.623Z" fill="#FF9C66"/>
<path d="M515.268 107.982C515.021 107.982 514.946 104.754 515.107 100.892C515.268 97.0287 515.6 93.833 515.858 93.8438C516.116 93.8545 516.18 97.0718 516.019 100.935C515.858 104.797 515.514 107.993 515.268 107.982Z" fill="#FF9C66"/>
<path d="M541.077 240.869C574.901 227.894 591.829 189.891 578.886 155.985C565.942 122.08 528.029 105.111 494.204 118.086C460.379 131.06 443.452 169.064 456.395 202.97C469.339 236.875 507.252 253.843 541.077 240.869Z" fill="#FFBD99"/>
<path d="M556.6 218.016C578.109 196.455 578.109 161.498 556.6 139.938C535.09 118.377 500.217 118.377 478.708 139.938C457.198 161.498 457.198 196.455 478.708 218.016C500.217 239.576 535.09 239.576 556.6 218.016Z" fill="white"/>
<path d="M572.695 181.267C572.679 180.97 572.679 180.672 572.695 180.374C572.695 179.739 572.695 178.868 572.62 177.749C572.62 177.168 572.62 176.522 572.62 175.812C572.62 175.102 572.459 174.338 572.373 173.499C572.199 171.568 571.891 169.651 571.45 167.764C570.378 162.557 568.525 157.543 565.954 152.893C562.235 146.062 557.116 140.096 550.933 135.389C544.75 130.683 537.643 127.341 530.08 125.584C527.818 125.065 525.522 124.705 523.21 124.508C522.029 124.422 520.848 124.25 519.646 124.218H516.029C515.417 124.218 514.805 124.218 514.193 124.218L512.368 124.422C511.145 124.573 509.899 124.67 508.665 124.863C506.168 125.315 503.705 125.933 501.29 126.714C498.812 127.49 496.391 128.439 494.045 129.555C492.864 130.125 491.726 130.814 490.556 131.449C489.381 132.088 488.251 132.807 487.175 133.601C484.92 135.131 482.768 136.81 480.734 138.625C478.726 140.536 476.85 142.581 475.12 144.748C471.536 149.174 468.691 154.152 466.694 159.489C462.477 170.535 461.972 182.658 465.255 194.018C466.803 199.504 469.224 204.703 472.426 209.416C473.975 211.714 475.674 213.907 477.514 215.979C479.383 217.956 481.38 219.808 483.493 221.521C484.507 222.401 485.583 223.207 486.713 223.931C487.787 224.662 488.86 225.437 490.019 226.083C492.271 227.386 494.61 228.533 497.018 229.515C499.359 230.49 501.762 231.309 504.21 231.968C505.423 232.27 506.647 232.463 507.86 232.722L509.663 233.077C510.275 233.184 510.887 233.206 511.488 233.27L515.095 233.615C516.286 233.679 517.478 233.615 518.659 233.615C520.983 233.602 523.303 233.429 525.604 233.098C533.286 231.976 540.645 229.236 547.196 225.06C553.747 220.884 559.342 215.365 563.614 208.867C566.562 204.45 568.824 199.61 570.323 194.513C570.926 192.671 571.393 190.786 571.718 188.875C571.879 188.046 572.062 187.293 572.159 186.583C572.255 185.873 572.298 185.249 572.362 184.668C572.477 183.548 572.574 182.677 572.652 182.053C572.717 181.472 572.781 181.171 572.781 181.171C572.781 181.171 572.781 181.472 572.781 182.064C572.781 182.655 572.674 183.559 572.588 184.689C572.588 185.27 572.491 185.916 572.427 186.615C572.362 187.314 572.169 188.089 572.019 188.928C571.702 190.891 571.236 192.826 570.624 194.717C569.158 199.873 566.909 204.773 563.957 209.243C559.689 215.862 554.063 221.492 547.453 225.76C540.843 230.027 533.402 232.833 525.625 233.991C523.296 234.329 520.947 234.509 518.594 234.529C517.392 234.529 516.179 234.594 514.966 234.529L511.306 234.196C510.694 234.131 510.071 234.11 509.459 234.002L507.624 233.647C506.4 233.389 505.155 233.195 503.92 232.894C501.431 232.233 498.989 231.406 496.61 230.419C494.163 229.429 491.789 228.267 489.504 226.944C488.355 226.266 487.261 225.48 486.133 224.792C485.004 224.055 483.928 223.238 482.913 222.349C480.763 220.617 478.733 218.74 476.838 216.732C474.96 214.629 473.228 212.4 471.653 210.061C468.394 205.275 465.929 199.991 464.353 194.416C461.006 182.87 461.519 170.543 465.813 159.317C467.854 153.894 470.753 148.836 474.401 144.339C476.163 142.14 478.071 140.062 480.112 138.12C482.173 136.286 484.35 134.586 486.627 133.03C487.728 132.239 488.879 131.52 490.073 130.878C491.264 130.243 492.424 129.544 493.615 128.963C496.005 127.837 498.469 126.877 500.99 126.09C503.451 125.309 505.961 124.691 508.504 124.239C509.76 124.035 511.026 123.949 512.261 123.798L514.129 123.594C514.741 123.594 515.363 123.594 515.986 123.594H519.657C520.87 123.594 522.072 123.798 523.264 123.895C525.608 124.092 527.936 124.452 530.23 124.971C537.86 126.765 545.022 130.161 551.245 134.936C557.468 139.71 562.61 145.754 566.33 152.667C568.883 157.381 570.693 162.463 571.697 167.731C572.12 169.634 572.403 171.565 572.545 173.509C572.62 174.359 572.727 175.134 572.76 175.844C572.792 176.554 572.76 177.2 572.76 177.781C572.76 178.911 572.76 179.782 572.76 180.417C572.76 181.052 572.695 181.267 572.695 181.267Z" fill="#FF9C66"/>
<path d="M564.688 180.078C559.664 179.938 555.596 179.529 555.596 179.152C555.596 178.776 559.675 178.41 564.698 178.324C569.722 178.238 573.79 178.647 573.79 179.239C573.79 179.83 569.711 180.185 564.688 180.078Z" fill="#FF9C66"/>
<path d="M550.324 212.898C546.846 209.272 544.248 206.108 544.506 205.839C544.764 205.57 547.93 208.185 551.558 211.661C555.187 215.136 557.795 218.299 557.376 218.719C556.958 219.139 553.802 216.535 550.324 212.898Z" fill="#FF9C66"/>
<path d="M517.093 226.122C517.168 221.086 517.533 217.008 517.909 217.008C518.284 217.008 518.692 221.075 518.832 226.111C518.971 231.146 518.617 235.235 518.027 235.235C517.436 235.235 517.018 231.157 517.093 226.122Z" fill="#FF9C66"/>
<path d="M484.179 212.09C487.765 208.561 490.899 205.914 491.157 206.183C491.414 206.452 488.859 209.637 485.424 213.317C481.989 216.997 478.877 219.633 478.447 219.224C478.018 218.815 480.594 215.619 484.179 212.09Z" fill="#FF9C66"/>
<path d="M470.622 178.923C475.657 178.923 479.725 179.267 479.736 179.643C479.747 180.02 475.678 180.483 470.655 180.719C465.631 180.956 461.563 180.59 461.541 179.999C461.52 179.407 465.609 178.901 470.622 178.923Z" fill="#FF9C66"/>
<path d="M484.265 145.754C487.819 149.316 490.491 152.415 490.234 152.684C489.976 152.953 486.767 150.424 483.053 147.024C479.338 143.624 476.676 140.568 477.084 140.095C477.492 139.621 480.712 142.225 484.265 145.754Z" fill="#FF9C66"/>
<path d="M517.209 131.834C517.209 136.87 516.963 140.959 516.587 140.97C516.211 140.98 515.707 136.913 515.46 131.878C515.213 126.842 515.46 122.764 516.082 122.742C516.705 122.721 517.177 126.799 517.209 131.834Z" fill="#FF9C66"/>
<path d="M550.411 145.135C546.901 148.74 543.841 151.451 543.562 151.204C543.283 150.956 545.784 147.696 549.144 143.941C552.504 140.185 555.585 137.485 555.982 137.883C556.379 138.281 553.921 141.53 550.411 145.135Z" fill="#FF9C66"/>
<path d="M534.221 150.312C534.157 158.411 533.576 166.498 532.482 174.522C532.183 177.446 531.46 180.309 530.335 183.023C529.208 185.761 527.059 187.95 524.346 189.124C522.985 189.673 521.487 189.785 520.06 189.444C518.633 189.103 517.348 188.325 516.381 187.219L534.221 150.312Z" fill="#E0E0E0"/>
<path d="M516.652 174.571L538.046 141.656L524.403 179.262L518.155 180.855L516.652 174.571Z" fill="#FFBD99"/>
<g opacity="0.4">
<path d="M538.046 141.656L521.783 175.529L524.402 179.262L538.046 141.656Z" fill="black"/>
</g>
<path d="M524.596 181.129C524.542 182.404 524.112 183.635 523.36 184.665C522.609 185.695 521.569 186.479 520.374 186.918C519.178 187.356 517.879 187.429 516.642 187.128C515.404 186.827 514.284 186.165 513.421 185.226C512.559 184.286 511.994 183.112 511.798 181.851C511.601 180.59 511.782 179.298 512.318 178.14C512.853 176.982 513.719 176.009 514.806 175.344C515.892 174.679 517.152 174.352 518.424 174.404C519.27 174.438 520.101 174.64 520.869 174.997C521.637 175.354 522.328 175.859 522.901 176.483C523.474 177.108 523.919 177.84 524.21 178.637C524.501 179.434 524.632 180.281 524.596 181.129Z" fill="#FAFAFA"/>
<path d="M524.595 181.122C524.509 181.122 524.53 180.541 524.283 179.572C523.936 178.213 523.156 177.004 522.061 176.129C521.27 175.491 520.334 175.059 519.335 174.871C518.337 174.683 517.308 174.746 516.34 175.053C515.154 175.426 514.113 176.157 513.357 177.145C512.601 178.134 512.169 179.333 512.118 180.577C512.068 181.821 512.402 183.051 513.075 184.098C513.748 185.145 514.727 185.958 515.878 186.426C516.813 186.82 517.83 186.976 518.84 186.88C519.849 186.784 520.82 186.44 521.664 185.878C522.825 185.101 523.702 183.969 524.165 182.65C524.487 181.703 524.519 181.122 524.605 181.132C524.71 181.67 524.677 182.225 524.509 182.746C524.14 184.224 523.262 185.524 522.029 186.416C521.11 187.083 520.037 187.505 518.911 187.645C517.785 187.784 516.642 187.635 515.588 187.212C514.271 186.69 513.148 185.77 512.376 184.579C511.603 183.389 511.219 181.987 511.277 180.569C511.335 179.15 511.832 177.784 512.698 176.661C513.565 175.538 514.759 174.713 516.114 174.3C517.205 173.963 518.362 173.909 519.479 174.142C520.596 174.376 521.636 174.889 522.501 175.634C523.648 176.628 524.409 177.996 524.648 179.497C524.763 180.035 524.745 180.593 524.595 181.122Z" fill="#FF9C66"/>
<path d="M522.944 181.047C522.902 181.995 522.582 182.909 522.022 183.674C521.463 184.44 520.69 185.022 519.801 185.347C518.911 185.672 517.946 185.725 517.027 185.5C516.107 185.276 515.274 184.783 514.634 184.084C513.994 183.385 513.575 182.512 513.43 181.574C513.285 180.637 513.42 179.677 513.819 178.816C514.217 177.956 514.861 177.233 515.67 176.74C516.478 176.246 517.414 176.004 518.36 176.043C518.989 176.07 519.606 176.22 520.177 176.486C520.748 176.751 521.261 177.127 521.687 177.592C522.113 178.057 522.443 178.601 522.658 179.194C522.874 179.787 522.971 180.416 522.944 181.047Z" fill="#455A64"/>
<path d="M556.1 197.458L552.021 268.108C551.984 268.723 552.09 269.338 552.332 269.905C552.573 270.472 552.943 270.974 553.411 271.373C553.88 271.772 554.435 272.056 555.032 272.202C555.629 272.349 556.252 272.354 556.851 272.218L628.771 255.927C629.498 255.76 630.164 255.391 630.691 254.862C631.218 254.334 631.587 253.667 631.753 252.938C631.92 252.209 631.879 251.448 631.635 250.742C631.39 250.036 630.952 249.413 630.371 248.944L562.583 194.585C562.016 194.114 561.33 193.811 560.601 193.71C559.871 193.608 559.128 193.712 558.455 194.011C557.782 194.309 557.205 194.79 556.789 195.399C556.373 196.007 556.134 196.72 556.1 197.458Z" fill="#455A64"/>
<path d="M184.544 335.041L224.98 387.345C225.259 387.706 225.615 388.001 226.022 388.208C226.429 388.415 226.876 388.529 227.332 388.541C227.788 388.553 228.242 388.464 228.659 388.28C229.076 388.095 229.448 387.82 229.746 387.474L272.018 338.365C272.396 337.925 272.642 337.387 272.729 336.813C272.816 336.239 272.739 335.652 272.508 335.12C272.278 334.587 271.902 334.131 271.424 333.803C270.946 333.475 270.385 333.289 269.807 333.265L187.152 330.091C186.565 330.057 185.98 330.193 185.468 330.483C184.955 330.773 184.537 331.204 184.262 331.726C183.987 332.247 183.867 332.837 183.917 333.425C183.967 334.012 184.185 334.573 184.544 335.041Z" fill="#FFBD99"/>
<path d="M462.758 421.312C451.728 437.164 437.042 450.111 419.949 459.053C402.857 467.994 383.862 472.666 364.582 472.67H259.965V505.628H364.582C388.442 505.626 411.969 500.014 433.272 489.242C454.575 478.471 473.061 462.841 487.243 443.607L462.758 421.312Z" fill="#FFBD99"/>
<path d="M478.376 250.652C464.08 234.568 446.551 221.699 426.94 212.888C407.33 204.077 386.082 199.526 364.592 199.531C280.402 199.531 211.906 268.191 211.906 352.581H244.786C244.778 328.305 252.114 304.597 265.826 284.585C279.537 264.574 298.979 249.2 321.587 240.493C344.194 231.786 368.904 230.155 392.455 235.814C416.007 241.474 437.293 254.158 453.504 272.194L478.376 250.652Z" fill="#FFBD99"/>
<path d="M488.272 262.959L462.51 283.532C475.245 301.636 482.724 322.924 484.117 345.032C485.51 367.14 480.762 389.202 470.4 408.768L496.022 430.288C511.135 404.668 518.45 375.179 517.068 345.447C515.685 315.716 505.665 287.037 488.24 262.938L488.272 262.959Z" fill="#FFBD99"/>
</svg>
