<svg width="560" height="559" viewBox="0 0 560 559" fill="none" xmlns="http://www.w3.org/2000/svg">
<path d="M85.9049 472.566C-21.2778 410.795 -21.289 310.634 85.9049 248.863C193.099 187.093 366.881 187.082 474.074 248.863C581.268 310.645 581.268 410.795 474.074 472.566C366.881 534.336 193.099 534.37 85.9049 472.566Z" fill="#F5F5F5"/>
<path d="M524.921 310.615L502.729 297.825C485.489 287.893 477.272 287.781 476.321 293.361C475.662 297.2 475.203 299.756 470.988 302.167C464.001 306.195 452.877 306.341 445.554 302.647C449.467 300.682 453.738 300.415 459.909 300.057C464.023 299.823 466.349 298.841 466.349 297.022V280.851C466.349 278.385 462.056 274.389 452.128 268.664L429.936 255.875L405.429 270.004C395.501 275.717 391.197 279.724 391.197 282.19V298.339C391.197 300.158 393.522 301.14 397.648 301.374C403.808 301.72 408.079 301.999 411.992 303.952C404.68 307.657 393.545 307.501 386.557 303.484C382.387 301.073 381.884 298.506 381.235 294.678C380.274 289.098 372.046 289.232 354.817 299.142L330.311 313.293V329.442L352.123 341.997C349.624 342.324 347.211 343.123 345.012 344.351C341.379 346.45 339.556 349.195 339.556 351.94V368.111C339.556 370.856 341.368 373.613 345.012 375.711C352.29 379.907 364.085 379.907 371.364 375.711C375.534 373.3 376.037 370.745 376.696 366.906C377.647 361.326 385.864 361.46 403.104 371.37L425.341 384.182L449.847 370.053C467.076 360.132 475.304 360.009 476.265 365.589C476.925 369.417 477.383 371.984 481.598 374.383C488.876 378.579 500.66 378.579 507.95 374.383C511.583 372.285 513.405 369.54 513.405 366.794V350.635C513.405 347.878 511.583 345.133 507.95 343.035C505.745 341.81 503.329 341.011 500.828 340.68L524.966 326.763L524.921 310.615Z" fill="#F95700"/>
<path opacity="0.3" d="M352.1 341.996L330.311 329.441V313.281L352.492 326.059C369.709 335.992 369.988 340.735 360.318 341.282C357.143 341.46 354.471 341.617 352.1 341.996Z" fill="white"/>
<path opacity="0.3" d="M391.195 298.336V282.188C391.195 283.995 393.543 284.966 397.646 285.201C404.287 285.58 408.737 285.87 412.907 288.27C420.185 292.466 420.185 299.262 412.907 303.458C412.605 303.626 412.303 303.793 411.99 303.949C408.077 301.996 403.806 301.717 397.646 301.372C393.521 301.137 391.195 300.144 391.195 298.336Z" fill="white"/>
<path opacity="0.3" d="M403.102 355.228C385.863 345.284 377.646 345.184 376.695 350.764V366.923C377.646 361.343 385.863 361.477 403.102 371.387L425.34 384.177V368.006L403.102 355.228Z" fill="white"/>
<path opacity="0.3" d="M507.905 358.2C500.627 362.396 488.821 362.396 481.542 358.2C477.372 355.79 476.869 353.234 476.221 349.406V365.577C476.869 369.405 477.339 371.972 481.542 374.371C488.821 378.567 500.627 378.567 507.905 374.371C511.538 372.273 513.361 369.528 513.361 366.782V350.634C513.349 353.368 511.527 356.113 507.905 358.2Z" fill="white"/>
<path opacity="0.5" d="M444.636 286.934C448.807 284.534 453.256 284.244 459.897 283.865C464.011 283.63 466.326 282.648 466.348 280.852V297C466.348 298.819 464.022 299.801 459.897 300.036C453.748 300.382 449.477 300.661 445.564 302.614C445.251 302.468 444.938 302.29 444.636 302.123C437.358 297.926 437.358 291.13 444.636 286.934Z" fill="white"/>
<path opacity="0.5" d="M371.363 359.536C364.085 363.732 352.29 363.732 345.012 359.536C341.39 357.449 339.556 354.693 339.545 351.959C339.545 354.704 339.545 365.351 339.545 368.107C339.545 370.864 341.367 373.609 345.012 375.707C352.29 379.903 364.085 379.903 371.363 375.707C375.533 373.297 376.036 370.73 376.696 366.902V350.742C376.036 354.57 375.533 357.137 371.363 359.536Z" fill="white"/>
<path opacity="0.5" d="M449.802 353.888L425.34 368.005V384.176L449.846 370.059C467.075 360.115 475.303 360.015 476.265 365.595V349.402C475.259 343.799 467.03 343.956 449.802 353.888Z" fill="white"/>
<path opacity="0.5" d="M524.92 310.609V326.758L500.816 340.652C498.446 340.273 495.785 340.128 492.632 339.938C482.905 339.391 483.174 334.659 500.458 324.716L524.953 310.609H524.92Z" fill="white"/>
<path d="M444.637 286.932C448.819 284.533 453.257 284.243 459.909 283.863C469.625 283.316 469.356 278.573 452.083 268.641L429.891 255.852L405.384 269.98C388.145 279.913 387.876 284.644 397.558 285.202C404.199 285.582 408.649 285.872 412.819 288.271C420.097 292.468 420.097 299.264 412.819 303.46C405.541 307.656 393.757 307.656 386.468 303.46C382.298 301.05 381.794 298.494 381.146 294.655C380.185 289.075 371.956 289.22 354.728 299.119L330.311 313.27L352.503 326.059C369.731 335.992 370 340.735 360.329 341.281C353.677 341.661 349.227 341.951 345.057 344.35C337.779 348.547 337.779 355.343 345.057 359.539C352.335 363.735 364.13 363.735 371.408 359.539C375.578 357.129 376.081 354.573 376.741 350.745C377.691 345.165 385.909 345.288 403.148 355.209L425.341 368.01L449.847 353.892C467.076 343.96 475.304 343.848 476.265 349.428C476.925 353.256 477.383 355.823 481.598 358.222C488.876 362.418 500.66 362.418 507.95 358.222C515.239 354.026 515.228 347.23 507.95 343.033C503.768 340.634 499.33 340.344 492.678 339.964C482.962 339.418 483.219 334.675 500.504 324.742L525.01 310.614L502.818 297.835C485.578 287.892 477.361 287.791 476.411 293.371C475.751 297.199 475.293 299.766 471.078 302.166C463.8 306.362 452.005 306.362 444.727 302.166C437.448 297.969 437.359 291.128 444.637 286.932Z" fill="#F95700"/>
<path opacity="0.7" d="M444.637 286.932C448.819 284.533 453.257 284.243 459.909 283.863C469.625 283.316 469.356 278.573 452.083 268.641L429.891 255.852L405.384 269.98C388.145 279.913 387.876 284.644 397.558 285.202C404.199 285.582 408.649 285.872 412.819 288.271C420.097 292.468 420.097 299.264 412.819 303.46C405.541 307.656 393.757 307.656 386.468 303.46C382.298 301.05 381.794 298.494 381.146 294.655C380.185 289.075 371.956 289.22 354.728 299.119L330.311 313.27L352.503 326.059C369.731 335.992 370 340.735 360.329 341.281C353.677 341.661 349.227 341.951 345.057 344.35C337.779 348.547 337.779 355.343 345.057 359.539C352.335 363.735 364.13 363.735 371.408 359.539C375.578 357.129 376.081 354.573 376.741 350.745C377.691 345.165 385.909 345.288 403.148 355.209L425.341 368.01L449.847 353.892C467.076 343.96 475.304 343.848 476.265 349.428C476.925 353.256 477.383 355.823 481.598 358.222C488.876 362.418 500.66 362.418 507.95 358.222C515.239 354.026 515.228 347.23 507.95 343.033C503.768 340.634 499.33 340.344 492.678 339.964C482.962 339.418 483.219 334.675 500.504 324.742L525.01 310.614L502.818 297.835C485.578 287.892 477.361 287.791 476.411 293.371C475.751 297.199 475.293 299.766 471.078 302.166C463.8 306.362 452.005 306.362 444.727 302.166C437.448 297.969 437.359 291.128 444.637 286.932Z" fill="white"/>
<g opacity="0.7">
<path d="M429.936 258.296L451.055 270.46C463.028 277.368 464.113 280.303 464.213 280.761C464.012 280.939 463.04 281.587 459.741 281.765C453.033 282.145 448.215 282.424 443.542 285.113C439.338 287.535 437.035 290.883 437.035 294.532C437.035 298.181 439.338 301.518 443.542 303.94C447.945 306.192 452.821 307.366 457.768 307.366C462.715 307.366 467.592 306.192 471.995 303.94C477.093 301.005 477.708 297.445 478.345 293.673C478.468 292.992 478.68 291.709 481.542 291.709C484.404 291.709 490.274 293.081 501.666 299.632L520.672 310.591L499.319 322.867C484.785 331.237 483.499 335.143 484.147 337.811C485.042 341.583 490.632 341.906 492.465 342.007C499.386 342.397 503.165 342.71 506.798 344.808C509.649 346.437 511.27 348.491 511.27 350.578C511.27 352.665 509.705 354.707 506.798 356.347C503.037 358.233 498.887 359.215 494.679 359.215C490.471 359.215 486.32 358.233 482.56 356.347C479.206 354.394 478.859 352.598 478.255 349.015C477.652 345.433 474.98 343.558 470.91 343.558C465.946 343.558 458.467 346.404 448.707 352.028L425.229 365.554L404.087 353.368C394.327 347.788 386.859 344.886 381.895 344.886C377.814 344.886 375.187 346.884 374.55 350.354C373.913 353.825 373.633 355.734 370.246 357.687C366.483 359.572 362.331 360.554 358.121 360.554C353.911 360.554 349.759 359.572 345.996 357.687C343.156 356.046 341.591 353.993 341.591 351.917C341.591 349.841 343.156 347.776 345.996 346.136C349.641 344.038 353.42 343.737 360.329 343.346C362.174 343.246 367.752 342.922 368.658 339.15C369.295 336.449 367.998 332.565 353.487 324.207L334.481 313.236L355.823 300.96C367.182 294.421 373.018 293.048 375.947 293.048C378.876 293.048 379.022 294.331 379.134 295.012C379.782 298.784 380.386 302.344 385.484 305.279C389.887 307.531 394.763 308.705 399.71 308.705C404.658 308.705 409.534 307.531 413.937 305.279C418.141 302.857 420.455 299.521 420.455 295.871C420.455 292.222 418.141 288.874 413.937 286.452C409.264 283.752 404.434 283.484 397.737 283.104C394.45 282.915 393.489 282.267 393.265 282.1C393.343 281.631 394.383 278.752 406.435 271.799L429.913 258.284M429.913 255.852L405.407 269.98C388.167 279.913 387.899 284.644 397.581 285.202C404.222 285.582 408.671 285.872 412.841 288.271C420.119 292.468 420.119 299.264 412.841 303.46C408.759 305.532 404.245 306.612 399.666 306.612C395.086 306.612 390.572 305.532 386.49 303.46C382.32 301.05 381.817 298.494 381.168 294.655C380.766 292.289 379.044 290.95 375.903 290.95C371.621 290.95 364.723 293.427 354.75 299.141L330.311 313.27L352.503 326.059C369.731 335.992 370 340.735 360.329 341.281C353.677 341.661 349.227 341.951 345.057 344.35C337.779 348.547 337.779 355.343 345.057 359.539C349.139 361.611 353.653 362.691 358.233 362.691C362.812 362.691 367.326 361.611 371.408 359.539C375.578 357.129 376.081 354.573 376.741 350.745C377.144 348.368 378.854 347.029 382.007 347.029C386.289 347.029 393.187 349.495 403.148 355.22L425.341 368.01L449.847 353.892C459.775 348.167 466.718 345.69 471 345.69C474.152 345.69 475.863 347.029 476.265 349.406C476.925 353.234 477.383 355.801 481.598 358.2C485.68 360.272 490.195 361.352 494.774 361.352C499.353 361.352 503.868 360.272 507.95 358.2C515.228 354.004 515.228 347.207 507.95 343.011C503.768 340.612 499.33 340.322 492.678 339.942C482.962 339.395 483.219 334.652 500.504 324.72L525.01 310.591L502.818 297.813C492.89 292.088 485.959 289.611 481.677 289.611C478.524 289.611 476.813 290.95 476.411 293.327C475.751 297.155 475.293 299.722 471.078 302.121C466.996 304.193 462.482 305.273 457.902 305.273C453.323 305.273 448.809 304.193 444.727 302.121C437.448 297.925 437.448 291.128 444.727 286.932C448.908 284.533 453.346 284.243 459.999 283.863C469.714 283.316 469.446 278.573 452.173 268.641L429.98 255.852H429.913Z" fill="white"/>
</g>
<path d="M377.513 226.479L355.7 213.901C358.199 213.574 360.612 212.775 362.811 211.547C366.456 209.448 368.267 206.703 368.267 203.958V187.798C368.267 185.053 366.456 182.307 362.811 180.209C355.533 176.013 343.738 176.013 336.46 180.209C332.29 182.62 331.786 185.175 331.138 189.003C330.176 194.583 321.959 194.461 304.72 184.539L282.527 171.75L258.021 185.867C248.093 191.592 243.789 195.588 243.789 198.054V214.214C243.789 216.022 246.114 217.015 250.239 217.249C256.4 217.595 260.67 217.874 264.595 219.827C257.272 223.532 246.136 223.376 239.16 219.347C234.979 216.948 234.476 214.381 233.827 210.553C232.866 204.973 224.637 205.107 207.409 215.017L182.902 229.146V245.294L205.262 258.207C222.357 268.016 230.507 268.139 231.457 262.57C232.117 258.731 232.575 256.175 236.79 253.765C243.777 249.736 254.902 249.591 262.224 253.285C258.311 255.249 254.041 255.517 247.869 255.874C243.755 256.108 241.43 257.091 241.43 258.91V275.036C241.43 277.48 245.667 281.442 255.438 287.1L277.798 300.012L302.361 285.917C319.589 275.996 327.818 275.873 328.779 281.453C329.439 285.281 329.897 287.836 334.112 290.247C341.39 294.443 353.185 294.443 360.463 290.247C364.085 288.16 365.908 285.415 365.919 282.68C365.93 279.946 365.919 269.288 365.919 266.498C365.919 263.708 364.097 261.008 360.463 258.91C358.264 257.681 355.851 256.882 353.353 256.555L377.513 242.672V226.479Z" fill="#F95700"/>
<path opacity="0.5" d="M345.225 255.827C348.366 256.006 351.016 256.162 353.386 256.542L377.512 242.67V226.477L353.006 240.605C335.766 250.538 335.509 255.269 345.225 255.827Z" fill="white"/>
<path opacity="0.3" d="M265.465 204.155C261.295 201.744 256.845 201.454 250.204 201.086C246.023 200.84 243.686 199.825 243.753 197.961V214.199C243.753 216.007 246.079 217 250.204 217.234C256.364 217.58 260.646 217.859 264.571 219.823C264.877 219.675 265.176 219.512 265.465 219.332C272.788 215.147 272.788 208.351 265.465 204.155Z" fill="white"/>
<path opacity="0.5" d="M362.81 195.397C358.64 197.796 354.19 198.086 347.538 198.466C337.823 199.013 338.091 203.756 355.364 213.688L355.744 213.9C358.242 213.573 360.656 212.774 362.855 211.545C366.499 209.447 368.31 206.702 368.31 203.957V187.797C368.322 190.553 366.455 193.299 362.81 195.397Z" fill="white"/>
<path opacity="0.3" d="M205.305 242.068L182.945 229.156V245.305L205.305 258.217C222.4 268.027 230.55 268.149 231.5 262.58V246.421C230.55 252.001 222.4 251.878 205.305 242.068Z" fill="white"/>
<path opacity="0.15" d="M263.229 237.624C255.951 233.428 244.156 233.428 236.878 237.624C232.708 240.023 232.205 242.59 231.545 246.418V262.577C232.205 258.738 232.663 256.183 236.878 253.772C243.865 249.743 254.989 249.598 262.312 253.292C262.312 253.292 262.648 253.136 263.229 252.812C270.474 248.627 270.462 241.82 263.229 237.624Z" fill="white"/>
<path opacity="0.3" d="M365.952 266.487C365.952 269.243 364.13 271.988 360.497 274.086C353.218 278.283 341.424 278.283 334.145 274.086C329.964 271.676 329.472 269.12 328.812 265.281V281.441C329.472 285.269 329.93 287.824 334.145 290.235C341.424 294.431 353.218 294.431 360.497 290.235C364.119 288.148 365.941 285.403 365.952 282.669C365.964 279.934 365.952 269.243 365.952 266.487Z" fill="white"/>
<path opacity="0.5" d="M302.36 269.763L277.854 283.892V300.04L302.36 285.912C319.588 275.99 327.817 275.868 328.778 281.448V265.277C327.85 259.674 319.622 259.831 302.36 269.763Z" fill="white"/>
<path opacity="0.3" d="M255.481 270.979C245.509 265.198 241.305 261.203 241.484 258.703C241.484 258.759 241.484 258.804 241.484 258.859V275.03C241.484 277.474 245.721 281.436 255.493 287.094L277.853 300.006V283.891L255.481 270.979Z" fill="white"/>
<path d="M336.459 180.17C332.289 182.581 331.786 185.136 331.138 188.964C330.176 194.544 321.959 194.422 304.719 184.5L282.527 171.711L258.021 185.828C240.781 195.772 240.513 200.504 250.195 201.062C256.835 201.43 261.285 201.72 265.455 204.131C272.745 208.327 272.745 215.123 265.455 219.308C258.166 223.493 246.393 223.505 239.115 219.308C234.934 216.909 234.431 214.342 233.782 210.514C232.821 204.934 224.592 205.068 207.364 214.978L182.857 229.107L205.217 242.019C222.312 251.829 230.462 251.951 231.412 246.371C232.072 242.543 232.53 239.977 236.745 237.577C244.023 233.381 255.818 233.381 263.096 237.577C270.374 241.773 270.374 248.57 263.096 252.766C258.915 255.165 254.477 255.456 247.824 255.835C238.143 256.382 238.377 261.091 255.393 270.934L277.753 283.847L302.36 269.763C319.589 259.83 327.817 259.719 328.779 265.299C329.438 269.138 329.897 271.693 334.112 274.104C341.39 278.3 353.185 278.3 360.463 274.104C367.741 269.908 367.741 263.111 360.463 258.915C356.282 256.516 351.843 256.226 345.191 255.846C335.476 255.288 335.733 250.556 353.017 240.624L377.524 226.495L355.32 213.65C338.092 203.718 337.823 198.975 347.494 198.428C354.146 198.049 358.596 197.758 362.766 195.359C370.044 191.163 370.044 184.366 362.766 180.17C355.488 175.974 343.726 176.008 336.459 180.17Z" fill="#F95700"/>
<path opacity="0.7" d="M336.459 180.17C332.289 182.581 331.786 185.136 331.138 188.964C330.176 194.544 321.959 194.422 304.719 184.5L282.527 171.711L258.021 185.828C240.781 195.772 240.513 200.504 250.195 201.062C256.835 201.43 261.285 201.72 265.455 204.131C272.745 208.327 272.745 215.123 265.455 219.308C258.166 223.493 246.393 223.505 239.115 219.308C234.934 216.909 234.431 214.342 233.782 210.514C232.821 204.934 224.592 205.068 207.364 214.978L182.857 229.107L205.217 242.019C222.312 251.829 230.462 251.951 231.412 246.371C232.072 242.543 232.53 239.977 236.745 237.577C244.023 233.381 255.818 233.381 263.096 237.577C270.374 241.773 270.374 248.57 263.096 252.766C258.915 255.165 254.477 255.456 247.824 255.835C238.143 256.382 238.377 261.091 255.393 270.934L277.753 283.847L302.36 269.763C319.589 259.83 327.817 259.719 328.779 265.299C329.438 269.138 329.897 271.693 334.112 274.104C341.39 278.3 353.185 278.3 360.463 274.104C367.741 269.908 367.741 263.111 360.463 258.915C356.282 256.516 351.843 256.226 345.191 255.846C335.476 255.288 335.733 250.556 353.017 240.624L377.524 226.495L355.32 213.65C338.092 203.718 337.823 198.975 347.494 198.428C354.146 198.049 358.596 197.758 362.766 195.359C370.044 191.163 370.044 184.366 362.766 180.17C355.488 175.974 343.726 176.008 336.459 180.17Z" fill="white"/>
<g opacity="0.7">
<path d="M282.527 174.158L303.669 186.345C313.429 191.925 320.897 194.827 325.861 194.827C329.941 194.827 332.569 192.829 333.206 189.358C333.843 185.887 334.123 183.979 337.51 182.026C341.273 180.14 345.425 179.158 349.635 179.158C353.845 179.158 357.997 180.14 361.76 182.026C364.6 183.667 366.165 185.72 366.165 187.796C366.165 189.872 364.6 191.936 361.76 193.577C358.115 195.675 354.336 195.976 347.427 196.367C345.594 196.467 340.003 196.791 339.098 200.563C338.461 203.264 339.758 207.147 354.269 215.506L373.275 226.476L351.921 238.752C337.387 247.111 336.102 251.028 336.75 253.696C337.645 257.468 343.235 257.791 345.068 257.892C351.988 258.282 355.767 258.584 359.401 260.682C362.252 262.322 363.817 264.376 363.817 266.451C363.817 268.527 362.252 270.592 359.401 272.232C355.638 274.111 351.489 275.089 347.282 275.089C343.075 275.089 338.925 274.111 335.163 272.232C331.809 270.279 331.462 268.483 330.858 264.9C330.255 261.318 327.583 259.432 323.513 259.432C318.549 259.432 311.081 262.289 301.31 267.913L277.832 281.428L256.478 269.152C244.705 262.333 243.632 259.432 243.531 258.974C243.744 258.796 244.649 258.16 248.003 257.97C254.711 257.59 259.519 257.311 264.203 254.622C268.407 252.2 270.71 248.852 270.71 245.203C270.71 241.554 268.407 238.217 264.203 235.795C259.8 233.543 254.924 232.369 249.977 232.369C245.029 232.369 240.153 233.543 235.75 235.795C230.641 238.73 230.037 242.29 229.4 246.062C229.277 246.743 229.064 248.026 226.202 248.026C223.34 248.026 217.549 246.676 206.324 240.214L187.083 229.121L208.426 216.845C219.785 210.306 225.621 208.933 228.55 208.933C231.479 208.933 231.625 210.205 231.736 210.897C232.385 214.658 232.989 218.218 238.087 221.164C242.492 223.416 247.37 224.59 252.319 224.59C257.268 224.59 262.146 223.416 266.551 221.164C270.743 218.743 273.058 215.395 273.058 211.745C273.058 208.096 270.743 204.759 266.551 202.337C261.866 199.637 257.037 199.369 250.351 198.989C246.997 198.8 246.091 198.152 245.879 197.974C245.957 197.505 246.997 194.626 259.049 187.684L282.527 174.158ZM282.527 171.737L258.021 185.854C240.781 195.798 240.513 200.529 250.195 201.087C256.835 201.456 261.285 201.746 265.455 204.156C272.745 208.353 272.745 215.149 265.455 219.334C261.375 221.404 256.862 222.483 252.285 222.483C247.708 222.483 243.196 221.404 239.115 219.334C234.934 216.935 234.431 214.368 233.782 210.54C233.38 208.163 231.658 206.824 228.517 206.824C224.235 206.824 217.337 209.301 207.364 215.026L182.857 229.155L205.217 242.067C215.033 247.647 221.898 250.136 226.146 250.136C229.299 250.136 231.01 248.796 231.412 246.419C232.072 242.591 232.53 240.025 236.745 237.625C240.827 235.553 245.341 234.473 249.921 234.473C254.5 234.473 259.014 235.553 263.096 237.625C270.374 241.821 270.374 248.618 263.096 252.814C258.915 255.213 254.477 255.504 247.824 255.883C238.143 256.43 238.377 261.139 255.393 270.982L277.753 283.895L302.36 269.766C312.288 264.052 319.231 261.575 323.513 261.575C326.666 261.575 328.376 262.914 328.779 265.28C329.438 269.119 329.897 271.674 334.112 274.085C338.193 276.157 342.708 277.237 347.287 277.237C351.867 277.237 356.381 276.157 360.463 274.085C367.741 269.889 367.741 263.092 360.463 258.896C356.282 256.497 351.843 256.207 345.191 255.827C335.476 255.269 335.733 250.537 353.017 240.605L377.524 226.476L355.32 213.654C338.092 203.721 337.823 198.978 347.494 198.431C354.146 198.052 358.596 197.762 362.766 195.362C370.044 191.166 370.044 184.37 362.766 180.174C358.684 178.102 354.17 177.022 349.59 177.022C345.011 177.022 340.497 178.102 336.415 180.174C332.245 182.584 331.742 185.14 331.093 188.968C330.679 191.345 328.969 192.684 325.816 192.684C321.545 192.684 314.636 190.218 304.675 184.492L282.482 171.703L282.527 171.737Z" fill="white"/>
</g>
<path d="M372.323 397.904L350.131 385.115C332.891 375.182 324.674 375.071 323.724 380.651C323.064 384.478 322.606 387.045 318.391 389.445C311.403 393.473 300.279 393.63 292.956 389.924C296.869 387.971 301.14 387.692 307.311 387.347C311.426 387.112 313.751 386.119 313.751 384.311V368.14C313.751 365.674 309.458 361.667 299.53 355.942L277.338 343.164L252.831 357.281C235.603 367.214 227.374 367.325 226.413 361.745C225.765 357.918 225.295 355.351 221.08 352.951C213.802 348.755 202.018 348.755 194.74 352.951C191.095 355.049 189.273 357.795 189.273 360.54V376.689C189.273 379.434 191.095 382.191 194.74 384.289C196.941 385.511 199.353 386.307 201.851 386.632L177.713 400.538V416.764L199.503 429.297C197.004 429.628 194.591 430.431 192.392 431.663C188.759 433.761 186.936 436.506 186.936 439.252V455.4C186.936 458.146 188.759 460.902 192.392 463C199.67 467.185 211.465 467.185 218.743 463C222.914 460.601 223.417 458.034 224.076 454.206C225.027 448.626 233.244 448.76 250.484 458.67L272.698 471.448L297.205 457.32C307.144 451.595 311.437 447.599 311.437 445.133C311.437 443.314 311.437 431.462 311.437 428.984C311.437 427.165 309.111 426.183 304.986 425.949C298.826 425.603 294.555 425.324 290.642 423.36C297.954 419.666 309.089 419.811 316.077 423.84C320.247 426.25 320.75 428.806 321.398 432.645C322.36 438.225 330.588 438.08 347.817 428.181L372.323 414.052V397.904Z" fill="#F95700"/>
<path opacity="0.5" d="M347.817 412.035C330.588 421.956 322.36 422.079 321.398 416.499V432.658C322.36 438.238 330.588 438.093 347.817 428.194L372.323 414.066V397.906L347.817 412.035Z" fill="white"/>
<path opacity="0.5" d="M292.051 389.423C292.342 389.601 292.655 389.758 292.957 389.914C296.87 387.95 301.14 387.682 307.312 387.325C311.437 387.09 313.751 386.108 313.751 384.289V368.141C313.751 369.949 311.437 370.931 307.312 371.165C300.66 371.544 296.221 371.835 292.051 374.245C284.762 378.43 284.762 385.238 292.051 389.423Z" fill="white"/>
<path opacity="0.5" d="M311.438 429.039C311.438 431.494 307.134 435.501 297.217 441.215L272.699 455.343V471.447L297.217 457.319C307.145 451.593 311.438 447.598 311.438 445.132V429.039Z" fill="white"/>
<path opacity="0.5" d="M218.766 446.897C211.488 451.093 199.693 451.093 192.415 446.897C188.781 444.81 186.959 442.053 186.959 439.308V455.456C186.959 458.202 188.781 460.958 192.415 463.045C199.693 467.253 211.488 467.253 218.766 463.045C222.936 460.646 223.439 458.079 224.088 454.251V438.047C223.439 441.875 222.981 444.442 218.766 446.897Z" fill="white"/>
<path opacity="0.3" d="M316.077 407.717C308.788 403.521 297.004 403.521 289.726 407.717C282.448 411.914 282.448 418.71 289.726 422.895C290.028 423.074 290.341 423.23 290.643 423.386C297.966 419.692 309.09 419.848 316.077 423.866C320.248 426.276 320.751 428.843 321.399 432.671V416.511C320.751 412.684 320.248 410.128 316.077 407.717Z" fill="white"/>
<path opacity="0.3" d="M250.506 442.537C233.267 432.604 225.061 432.493 224.088 438.073V454.221C225.061 448.641 233.267 448.775 250.506 458.685L272.699 471.452V455.326L250.506 442.537Z" fill="white"/>
<path opacity="0.3" d="M194.741 384.302C196.939 385.53 199.353 386.322 201.852 386.635L202.221 386.411C219.46 376.479 219.718 371.747 210.047 371.2C203.395 370.821 198.956 370.531 194.786 368.12C191.142 366.022 189.319 363.277 189.319 360.531V376.68C189.274 379.459 191.097 382.171 194.741 384.302Z" fill="white"/>
<path opacity="0.3" d="M207.675 428.582C217.402 428.035 217.134 423.292 199.905 413.36L177.713 400.57V416.763L199.503 429.296C201.884 428.928 204.545 428.76 207.675 428.582Z" fill="white"/>
<path d="M292.041 374.245C296.223 371.834 300.661 371.544 307.313 371.176C317.029 370.618 316.76 365.875 299.487 355.953L277.295 343.164L252.833 357.281C235.605 367.214 227.376 367.325 226.415 361.745C225.766 357.918 225.297 355.351 221.082 352.951C213.804 348.755 202.02 348.755 194.742 352.951C187.464 357.148 187.452 363.933 194.742 368.129C198.912 370.54 203.362 370.83 210.002 371.209C219.729 371.756 219.461 376.488 202.176 386.431L177.67 400.549L199.907 413.416C217.135 423.349 217.404 428.092 207.733 428.639C201.081 429.018 196.631 429.308 192.461 431.719C185.183 435.904 185.183 442.7 192.461 446.896C199.739 451.092 211.534 451.092 218.812 446.896C222.982 444.497 223.486 441.93 224.145 438.102C225.095 432.522 233.313 432.645 250.552 442.566L272.745 455.356L297.251 441.227C314.491 431.295 314.759 426.552 305.077 426.005C298.436 425.625 293.987 425.335 289.817 422.936C282.538 418.74 282.538 411.943 289.817 407.747C297.095 403.551 308.89 403.551 316.168 407.747C320.338 410.146 320.841 412.713 321.489 416.541C322.451 422.121 330.679 421.987 347.908 412.077L372.414 397.949L350.222 385.159C332.982 375.227 324.765 375.115 323.815 380.695C323.155 384.523 322.697 387.09 318.482 389.489C311.204 393.685 299.409 393.685 292.131 389.489C284.853 385.293 284.763 378.441 292.041 374.245Z" fill="#F95700"/>
<path opacity="0.7" d="M292.041 374.245C296.223 371.834 300.661 371.544 307.313 371.176C317.029 370.618 316.76 365.875 299.487 355.953L277.295 343.164L252.833 357.281C235.605 367.214 227.376 367.325 226.415 361.745C225.766 357.918 225.297 355.351 221.082 352.951C213.804 348.755 202.02 348.755 194.742 352.951C187.464 357.148 187.452 363.933 194.742 368.129C198.912 370.54 203.362 370.83 210.002 371.209C219.729 371.756 219.461 376.488 202.176 386.431L177.67 400.549L199.907 413.416C217.135 423.349 217.404 428.092 207.733 428.639C201.081 429.018 196.631 429.308 192.461 431.719C185.183 435.904 185.183 442.7 192.461 446.896C199.739 451.092 211.534 451.092 218.812 446.896C222.982 444.497 223.486 441.93 224.145 438.102C225.095 432.522 233.313 432.645 250.552 442.566L272.745 455.356L297.251 441.227C314.491 431.295 314.759 426.552 305.077 426.005C298.436 425.625 293.987 425.335 289.817 422.936C282.538 418.74 282.538 411.943 289.817 407.747C297.095 403.551 308.89 403.551 316.168 407.747C320.338 410.146 320.841 412.713 321.489 416.541C322.451 422.121 330.679 421.987 347.908 412.077L372.414 397.949L350.222 385.159C332.982 375.227 324.765 375.115 323.815 380.695C323.155 384.523 322.697 387.09 318.482 389.489C311.204 393.685 299.409 393.685 292.131 389.489C284.853 385.293 284.763 378.441 292.041 374.245Z" fill="white"/>
<g opacity="0.7">
<path d="M277.34 345.586L298.481 357.773C310.455 364.669 311.539 367.604 311.64 368.073C311.439 368.241 310.466 368.888 307.168 369.078C300.46 369.457 295.641 369.725 290.968 372.426C286.764 374.847 284.461 378.184 284.461 381.833C284.461 385.483 286.764 388.831 290.968 391.253C295.371 393.504 300.247 394.678 305.195 394.678C310.142 394.678 315.018 393.504 319.421 391.253C324.519 388.306 325.134 384.746 325.771 380.985C325.894 380.293 326.107 379.01 328.969 379.01C331.831 379.01 337.7 380.394 349.093 386.934L368.099 397.904L346.745 410.18C335.386 416.731 329.55 418.103 326.621 418.103C323.692 418.103 323.547 416.82 323.435 416.139C322.786 412.367 322.183 408.807 317.085 405.872C312.681 403.621 307.805 402.446 302.858 402.446C297.911 402.446 293.035 403.621 288.631 405.872C284.428 408.294 282.113 411.631 282.113 415.28C282.113 418.929 284.428 422.277 288.631 424.699C293.305 427.389 298.134 427.668 304.831 428.047C308.118 428.237 309.08 428.884 309.303 429.051C309.225 429.52 308.185 432.399 296.133 439.352L272.655 452.867L251.514 440.691C241.754 435.111 234.285 432.21 229.322 432.21C225.241 432.21 222.614 434.196 221.976 437.667C221.339 441.138 221.06 443.046 217.672 444.999C213.909 446.885 209.757 447.867 205.547 447.867C201.337 447.867 197.185 446.885 193.423 444.999C190.583 443.359 189.018 441.316 189.018 439.229C189.018 437.142 190.583 435.089 193.423 433.46C197.067 431.362 200.846 431.06 207.755 430.658C209.6 430.558 215.179 430.246 216.084 426.462C216.722 423.773 215.425 419.889 200.913 411.519L181.907 400.549L203.25 388.273C217.784 379.903 219.069 375.997 218.421 373.318C217.527 369.546 211.937 369.234 210.103 369.133C203.183 368.732 199.404 368.43 195.77 366.332C192.931 364.703 191.365 362.649 191.365 360.563C191.365 358.476 192.931 356.422 195.77 354.793C199.531 352.907 203.681 351.925 207.889 351.925C212.098 351.925 216.248 352.907 220.009 354.793C223.363 356.746 223.709 358.543 224.313 362.125C224.917 365.707 227.589 367.582 231.658 367.582C236.633 367.582 244.101 364.736 253.862 359.101L277.34 345.586ZM277.34 343.164L252.833 357.281C242.905 363.007 235.962 365.484 231.681 365.484C228.528 365.484 226.817 364.145 226.415 361.768C225.766 357.94 225.297 355.373 221.082 352.974C217.001 350.904 212.489 349.825 207.912 349.825C203.335 349.825 198.822 350.904 194.742 352.974C187.452 357.17 187.452 363.955 194.742 368.151C198.912 370.562 203.362 370.852 210.002 371.231C219.729 371.778 219.461 376.51 202.176 386.454L177.67 400.571L199.907 413.416C217.135 423.349 217.404 428.092 207.733 428.639C201.081 429.018 196.631 429.308 192.461 431.719C185.183 435.904 185.183 442.7 192.461 446.896C196.543 448.968 201.057 450.048 205.637 450.048C210.216 450.048 214.73 448.968 218.812 446.896C222.982 444.497 223.486 441.93 224.145 438.102C224.548 435.725 226.258 434.386 229.411 434.386C233.682 434.386 240.591 436.863 250.552 442.589L272.745 455.378L297.251 441.249C314.491 431.317 314.759 426.574 305.077 426.027C298.436 425.648 293.987 425.357 289.817 422.958C282.538 418.762 282.538 411.965 289.817 407.769C293.898 405.697 298.413 404.617 302.992 404.617C307.571 404.617 312.086 405.697 316.168 407.769C320.338 410.169 320.841 412.736 321.489 416.563C321.903 418.94 323.614 420.28 326.755 420.28C331.037 420.28 337.935 417.802 347.908 412.088L372.414 397.96L350.222 385.17C340.294 379.445 333.363 376.968 329.081 376.968C325.928 376.968 324.217 378.307 323.815 380.684C323.155 384.512 322.697 387.079 318.482 389.478C314.4 391.55 309.886 392.63 305.306 392.63C300.727 392.63 296.213 391.55 292.131 389.478C284.853 385.293 284.853 378.497 292.131 374.3C296.312 371.89 300.751 371.6 307.403 371.231C317.118 370.673 316.85 365.93 299.577 355.998L277.384 343.22L277.34 343.164Z" fill="white"/>
</g>
<path d="M225.218 313.126L203.405 300.549C205.9 300.218 208.308 299.419 210.505 298.194C214.149 296.096 215.972 293.339 215.972 290.594V274.445C215.972 271.7 214.149 268.955 210.505 266.857C203.227 262.66 191.443 262.66 184.165 266.857C179.983 269.256 179.48 271.823 178.832 275.651C177.882 281.231 169.72 281.097 152.637 271.287L130.277 258.375L105.715 272.504C88.4863 282.436 80.269 282.548 79.3075 276.968C78.6479 273.14 78.1895 270.573 73.9746 268.162C66.6965 263.966 54.9016 263.966 47.6234 268.162C43.9899 270.26 42.1675 273.017 42.1675 275.762V291.911C42.1675 294.656 43.9899 297.402 47.6234 299.5C49.8217 300.731 52.2348 301.534 54.7339 301.866L30.6074 315.793V331.953L52.7885 344.742C70.0281 354.675 78.2454 354.786 79.2069 349.206C79.8665 345.378 80.3249 342.812 84.5397 340.412C91.5161 336.383 102.651 336.227 109.974 339.932C106.05 341.885 101.779 342.164 95.6191 342.51C91.4937 342.745 89.1794 343.738 89.1794 345.546C89.1794 348.012 89.1794 359.886 89.1794 361.705C89.1794 364.172 93.4837 368.167 103.4 373.892L125.593 386.682L150.099 372.553C160.038 366.828 164.331 362.821 164.331 360.355C164.331 358.547 164.331 346.684 164.331 344.218C164.331 342.399 162.006 341.417 157.881 341.182C151.72 340.825 147.45 340.546 143.525 338.593C150.848 334.899 161.984 335.044 168.96 339.073C173.141 341.472 173.633 344.039 174.293 347.867C175.254 353.447 183.483 353.313 200.711 343.403L225.218 329.274V313.126Z" fill="#F95700"/>
<path opacity="0.5" d="M200.711 327.242C183.483 337.175 175.254 337.286 174.293 331.706V347.855C175.254 353.435 183.483 353.301 200.711 343.391L225.218 329.274V313.125L200.711 327.242Z" fill="white"/>
<path opacity="0.5" d="M164.331 344.228C164.331 344.228 164.331 344.138 164.331 344.094C164.488 346.549 160.228 350.578 150.11 356.37L125.604 370.487V386.647L150.11 372.518C160.049 366.793 164.342 362.787 164.342 360.32C164.32 358.557 164.32 346.694 164.331 344.228Z" fill="white"/>
<path opacity="0.5" d="M210.504 282.034C206.334 284.445 201.884 284.735 195.244 285.114C185.562 285.661 185.796 290.359 202.801 300.203L203.405 300.549C205.899 300.218 208.308 299.419 210.504 298.194C214.149 296.096 215.971 293.339 215.971 290.594V274.445C215.971 277.191 214.149 279.936 210.504 282.034Z" fill="white"/>
<path opacity="0.5" d="M110.891 324.256C103.602 320.06 91.8181 320.06 84.5399 324.256C80.3586 326.667 79.8667 329.234 79.207 333.062V349.21C79.8667 345.382 80.325 342.816 84.5399 340.416C91.5162 336.387 102.651 336.231 109.974 339.936L110.891 339.445C118.169 335.294 118.169 328.453 110.891 324.256Z" fill="white"/>
<path opacity="0.3" d="M168.961 322.928C161.682 318.732 149.899 318.732 142.609 322.928C135.32 327.125 135.331 333.921 142.609 338.106L143.526 338.597C150.849 334.903 161.984 335.048 168.961 339.077C173.142 341.476 173.634 344.043 174.293 347.871V331.722C173.634 327.895 173.142 325.328 168.961 322.928Z" fill="white"/>
<path opacity="0.3" d="M103.355 357.737C93.2373 351.911 88.9777 347.871 89.1454 345.461C89.1399 345.505 89.1399 345.55 89.1454 345.595C89.1454 348.061 89.1454 359.935 89.1454 361.755C89.1454 364.221 93.4497 368.216 103.366 373.941L125.559 386.731V370.526L103.355 357.737Z" fill="white"/>
<path opacity="0.3" d="M52.7885 328.601L30.6074 315.789V331.949L52.7885 344.738C70.0281 354.671 78.2454 354.782 79.2069 349.202V333.065C78.2454 338.645 70.0281 338.511 52.7885 328.601Z" fill="white"/>
<path opacity="0.3" d="M62.8957 286.439C56.1877 286.071 51.8051 285.781 47.6238 283.37C43.9903 281.272 42.168 278.527 42.168 275.781V291.93C42.168 294.675 43.9903 297.42 47.6238 299.519C49.8221 300.75 52.2352 301.553 54.7343 301.884L55.1144 301.661C72.354 291.774 72.6111 286.997 62.8957 286.439Z" fill="white"/>
<path d="M184.165 266.857C179.983 269.256 179.48 271.823 178.832 275.651C177.882 281.231 169.72 281.097 152.637 271.287L130.277 258.375L105.715 272.504C88.4863 282.436 80.269 282.548 79.3075 276.968C78.6479 273.14 78.1895 270.573 73.9746 268.162C66.6965 263.966 54.9016 263.966 47.6234 268.162C40.3452 272.358 40.3452 279.155 47.6234 283.351C51.8047 285.762 56.2432 286.052 62.8953 286.42C72.6107 286.978 72.3535 291.71 55.0693 301.642L30.6074 315.793L52.7885 328.605C70.0281 338.537 78.2454 338.649 79.2069 333.069C79.8665 329.241 80.3249 326.674 84.5397 324.264C91.8179 320.067 103.546 320.067 110.891 324.264C118.236 328.46 118.169 335.256 110.891 339.452C106.71 341.863 102.271 342.153 95.6191 342.521C85.9037 343.079 86.172 347.822 103.445 357.744L125.637 370.533L150.144 356.416C167.384 346.472 167.641 341.74 157.97 341.193C151.262 340.814 146.879 340.524 142.698 338.113C135.42 333.928 135.42 327.132 142.698 322.936C149.976 318.739 161.771 318.739 169.049 322.936C173.231 325.335 173.723 327.902 174.382 331.73C175.344 337.31 183.572 337.176 200.801 327.266L225.218 313.126L202.858 300.203C185.853 290.36 185.618 285.695 195.3 285.114C201.941 284.735 206.391 284.445 210.561 282.034C217.85 277.838 217.85 271.053 210.561 266.857C203.271 262.66 191.443 262.66 184.165 266.857Z" fill="#F95700"/>
<path opacity="0.7" d="M184.165 266.857C179.983 269.256 179.48 271.823 178.832 275.651C177.882 281.231 169.72 281.097 152.637 271.287L130.277 258.375L105.715 272.504C88.4863 282.436 80.269 282.548 79.3075 276.968C78.6479 273.14 78.1895 270.573 73.9746 268.162C66.6965 263.966 54.9016 263.966 47.6234 268.162C40.3452 272.358 40.3452 279.155 47.6234 283.351C51.8047 285.762 56.2432 286.052 62.8953 286.42C72.6107 286.978 72.3535 291.71 55.0693 301.642L30.6074 315.793L52.7885 328.605C70.0281 338.537 78.2454 338.649 79.2069 333.069C79.8665 329.241 80.3249 326.674 84.5397 324.264C91.8179 320.067 103.546 320.067 110.891 324.264C118.236 328.46 118.169 335.256 110.891 339.452C106.71 341.863 102.271 342.153 95.6191 342.521C85.9037 343.079 86.172 347.822 103.445 357.744L125.637 370.533L150.144 356.416C167.384 346.472 167.641 341.74 157.97 341.193C151.262 340.814 146.879 340.524 142.698 338.113C135.42 333.928 135.42 327.132 142.698 322.936C149.976 318.739 161.771 318.739 169.049 322.936C173.231 325.335 173.723 327.902 174.382 331.73C175.344 337.31 183.572 337.176 200.801 327.266L225.218 313.126L202.858 300.203C185.853 290.36 185.618 285.695 195.3 285.114C201.941 284.735 206.391 284.445 210.561 282.034C217.85 277.838 217.85 271.053 210.561 266.857C203.271 262.66 191.443 262.66 184.165 266.857Z" fill="white"/>
<g opacity="0.7">
<path d="M130.188 260.808L151.541 273.084C161.201 278.664 168.591 281.432 173.521 281.432C177.591 281.432 180.229 279.445 180.867 275.974C181.504 272.504 181.783 270.595 185.171 268.642C188.932 266.757 193.082 265.775 197.29 265.775C201.498 265.775 205.649 266.757 209.409 268.642C212.249 270.283 213.814 272.325 213.814 274.412C213.814 276.499 212.249 278.552 209.409 280.182C205.776 282.28 201.997 282.581 195.076 282.983C193.243 283.083 187.664 283.396 186.758 287.168C186.121 289.846 187.396 293.708 201.706 301.988L220.958 313.092L199.604 325.368C188.257 331.908 182.421 333.292 179.48 333.292C176.54 333.292 176.406 332.009 176.294 331.317C175.646 327.556 175.042 323.996 169.933 321.061C165.532 318.802 160.655 317.624 155.706 317.624C150.758 317.624 145.88 318.802 141.479 321.061C137.287 323.471 134.973 326.819 134.973 330.469C134.973 334.118 137.287 337.466 141.479 339.888C146.164 342.577 150.994 342.856 157.679 343.236C161.033 343.414 161.939 344.061 162.151 344.24C162.073 344.709 161.033 347.588 148.981 354.541L125.503 368.055L104.474 355.925C92.4999 349.028 91.4154 346.081 91.3148 345.624C91.5161 345.445 92.4887 344.809 95.7868 344.619C102.495 344.24 107.302 343.972 111.987 341.271C116.179 338.85 118.493 335.513 118.493 331.864C118.493 328.214 116.179 324.866 111.987 322.445C107.619 320.104 102.722 318.925 97.7657 319.018C92.8094 318.924 87.9122 320.104 83.5447 322.445C78.4355 325.391 77.8317 328.951 77.1833 332.712C77.0715 333.404 76.8479 334.676 73.997 334.676C71.1461 334.676 65.2542 333.303 53.873 326.763L34.867 315.793L56.2208 303.517C70.7548 295.158 72.0405 291.241 71.3921 288.574C70.4977 284.802 64.9077 284.489 63.0741 284.378C56.1537 283.987 52.3749 283.686 48.7302 281.588C45.8905 279.947 44.3253 277.905 44.3253 275.818C44.3253 273.731 45.8905 271.678 48.7302 270.048C52.4598 268.068 56.6374 267.081 60.8605 267.18C65.0798 267.083 69.2533 268.07 72.9796 270.048C76.3336 271.99 76.669 273.798 77.2839 277.38C77.8988 280.963 80.5038 282.849 84.5733 282.849C89.5372 282.849 97.0054 279.992 106.777 274.367L130.255 260.853M130.255 258.42L105.715 272.504C95.798 278.229 88.8552 280.706 84.5733 280.706C81.4205 280.706 79.71 279.367 79.3075 276.99C78.6479 273.162 78.1895 270.595 73.9746 268.185C69.9275 266.021 65.395 264.923 60.8046 264.993C56.214 264.904 51.6767 265.987 47.6234 268.14C40.3452 272.336 40.3452 279.133 47.6234 283.329C51.8047 285.739 56.2432 286.029 62.8953 286.398C72.6107 286.956 72.3535 291.688 55.0693 301.62L30.6074 315.793L52.7885 328.605C62.7276 334.33 69.6592 336.807 73.9411 336.807C77.0939 336.807 78.8044 335.468 79.2069 333.091C79.8665 329.263 80.3249 326.697 84.5397 324.286C88.6036 322.116 93.1578 321.025 97.7657 321.117C102.356 321.027 106.894 322.111 110.947 324.264C118.225 328.46 118.225 335.256 110.947 339.452C106.766 341.863 102.327 342.153 95.675 342.521C85.9596 343.079 86.2279 347.822 103.501 357.744L125.693 370.533L150.2 356.416C167.439 346.472 167.697 341.74 158.026 341.193C151.318 340.814 146.935 340.524 142.754 338.113C135.476 333.928 135.476 327.132 142.754 322.936C146.836 320.864 151.35 319.784 155.93 319.784C160.509 319.784 165.023 320.864 169.105 322.936C173.287 325.335 173.778 327.902 174.438 331.73C174.841 334.107 176.551 335.446 179.704 335.446C183.986 335.446 190.884 332.968 200.856 327.243L225.218 313.126L202.858 300.203C185.853 290.36 185.618 285.695 195.3 285.114C201.941 284.735 206.391 284.445 210.561 282.034C217.85 277.838 217.85 271.053 210.561 266.857C206.48 264.786 201.968 263.708 197.391 263.708C192.813 263.708 188.301 264.786 184.221 266.857C180.039 269.256 179.536 271.823 178.888 275.651C178.485 278.028 176.775 279.367 173.622 279.367C169.374 279.367 162.509 276.923 152.693 271.287L130.333 258.375L130.255 258.42Z" fill="white"/>
</g>
<path opacity="0.1" d="M313.988 488.37C315.658 490.289 318.326 491.662 321.993 492.488C323.916 492.759 325.875 492.407 327.583 491.483L437.035 427.659L449.937 414.658C450.093 414.499 450.191 414.293 450.216 414.072C450.24 413.851 450.19 413.628 450.073 413.439C449.956 413.25 449.778 413.106 449.569 413.029C449.36 412.953 449.131 412.949 448.919 413.017L425.263 420.829L315.117 484.263C313.619 485.111 312.892 487.075 313.988 488.37Z" fill="black"/>
<path d="M426.123 412.044L447.175 407.926C447.316 407.891 447.465 407.903 447.599 407.961C447.733 408.019 447.843 408.12 447.914 408.247C447.984 408.375 448.01 408.522 447.987 408.666C447.965 408.81 447.896 408.942 447.79 409.042L433.513 425.191L426.123 412.044Z" fill="#FFA8A7"/>
<path d="M447.79 408.956C447.896 408.856 447.965 408.724 447.988 408.58C448.01 408.436 447.984 408.289 447.914 408.161C447.844 408.034 447.733 407.933 447.599 407.875C447.466 407.817 447.317 407.805 447.175 407.84L443.072 408.644C443.634 408.994 444.09 409.491 444.39 410.081C444.689 410.671 444.821 411.332 444.772 411.992V412.36L447.79 408.956Z" fill="#263238"/>
<path d="M341.76 477.683L343.481 476.701L345.561 475.518L433.514 425.153C434.21 422.841 433.998 420.351 432.921 418.189C431.434 414.841 428.539 412.219 426.135 412.062L338.227 462.405L334.258 464.637C336.907 463.343 344.398 476.322 341.76 477.683Z" fill="#F95700"/>
<path d="M348.322 473.949L352.168 471.717C353.286 471.114 352.649 468.369 351.33 465.456C349.575 461.628 346.12 457.923 344.622 458.76L341.782 460.389L340.787 460.981C342.285 460.188 345.751 463.894 347.495 467.677C348.758 470.433 349.407 473.112 348.445 473.848L348.322 473.949Z" fill="#EBEBEB"/>
<path d="M349.317 473.392C351.956 471.997 344.398 459.007 341.759 460.402L337.902 462.634C340.541 461.239 348.098 474.229 345.46 475.624L349.317 473.392Z" fill="#F95700"/>
<path d="M341.76 477.677L345.561 475.512C348.166 474.162 340.977 461.562 338.227 462.399C338.172 462.41 338.119 462.428 338.07 462.455L334.258 464.687C336.907 463.337 344.398 476.316 341.76 477.677Z" fill="#EBEBEB"/>
<path opacity="0.15" d="M447.89 408.298L447.175 407.93L431.903 416.277L339.668 469.109C339.511 468.874 339.388 468.863 339.299 469.02C341.535 472.513 343.234 476.921 341.758 477.68L343.48 476.698L345.56 475.515L433.513 425.15L447.79 408.956C447.868 408.868 447.919 408.759 447.937 408.642C447.955 408.525 447.939 408.406 447.89 408.298Z" fill="black"/>
<path d="M325.616 486.899L341.76 477.681C342.878 477.101 342.263 474.333 340.955 471.476C339.211 467.648 335.779 463.91 334.247 464.68L318.014 473.931C314.805 475.784 317.757 482.759 321.368 485.873C322.709 487.078 324.207 487.569 325.616 486.899Z" fill="#F28F8F"/>
<path opacity="0.1" d="M326.589 481.905C325.661 478.267 322.709 474.707 320.004 473.948C319.605 473.803 319.177 473.756 318.756 473.812C318.335 473.869 317.935 474.026 317.589 474.272C315.163 476.504 317.98 482.921 321.379 485.867C321.89 486.433 322.558 486.835 323.298 487.024C324.038 487.212 324.817 487.179 325.538 486.927C326.745 486.224 327.215 484.36 326.589 481.905Z" fill="black"/>
<path d="M490.184 421.438L534.266 411.695L534.367 412.878C534.367 412.878 533.417 414.485 523.12 417.521C512.823 420.556 487.344 425.947 487.344 425.947L486.293 424.54L490.184 421.438Z" fill="#263238"/>
<path d="M521.879 401.914C520.296 404.351 518.376 406.552 516.177 408.454C513.103 410.864 496.59 425.194 496.59 425.194L491.302 428.095L489.703 427.169L492.107 421.589C492.107 421.589 510.71 408.398 514.78 405.608C518.849 402.818 522.393 401.144 521.879 401.914Z" fill="#37474F"/>
<path d="M489.682 425.875L491.269 426.79L490.856 427.85L489.682 427.17V425.875Z" fill="#263238"/>
<path d="M521.912 400.492V401.82L520.582 403.762V401.709L521.912 400.492Z" fill="#37474F"/>
<path d="M496.099 442.574C498.156 439.393 495.764 436.369 495.998 433.646C496.233 430.923 496.591 425.164 496.591 425.164L491.303 428.099L488.799 434.505C488.072 436.413 484.886 438.411 482.94 440.085C480.995 441.759 479.351 445.665 484.807 447.172C490.263 448.678 494.053 445.788 496.099 442.574ZM486.518 445.007C484.427 444.404 483.79 442.685 485.12 441.167C485.921 440.381 486.913 439.815 487.999 439.526C489.084 439.236 490.227 439.233 491.314 439.516C493.405 440.13 494.042 441.848 492.712 443.366C491.911 444.153 490.919 444.719 489.833 445.007C488.747 445.294 487.604 445.294 486.518 445.007Z" fill="#F95700"/>
<path opacity="0.2" d="M496.099 442.574C498.156 439.393 495.764 436.369 495.998 433.646C496.233 430.923 496.591 425.164 496.591 425.164L491.303 428.099L488.799 434.505C488.072 436.413 484.886 438.411 482.94 440.085C480.995 441.759 479.351 445.665 484.807 447.172C490.263 448.678 494.053 445.788 496.099 442.574ZM486.518 445.007C484.427 444.404 483.79 442.685 485.12 441.167C485.921 440.381 486.913 439.815 487.999 439.526C489.084 439.236 490.227 439.233 491.314 439.516C493.405 440.13 494.042 441.848 492.712 443.366C491.911 444.153 490.919 444.719 489.833 445.007C488.747 445.294 487.604 445.294 486.518 445.007Z" fill="black"/>
<path d="M496.322 423.151C496.017 423.408 495.652 423.582 495.26 423.657C494.868 423.731 494.464 423.703 494.086 423.575C493.281 423.341 492.968 422.772 493.37 422.314C493.671 422.05 494.037 421.872 494.43 421.797C494.824 421.722 495.23 421.755 495.606 421.89C496.4 422.125 496.724 422.694 496.322 423.151Z" fill="#263238"/>
<path d="M490.184 420.812C490.184 420.812 483.879 421.928 481.799 422.163C479.72 422.397 476.735 421.917 471.536 422.386C466.337 422.855 457.002 427.296 456.532 431.615C456.063 435.934 460.524 436.247 463.743 435.466C466.963 434.684 468.741 433.513 474.253 430.767C481.598 427.096 486.484 424.763 486.484 424.763L490.598 421.359L490.184 420.812ZM477.976 426.616C474.979 427.592 472.054 428.774 469.222 430.153C465.711 431.883 464.861 433.066 462.67 433.58C460.881 434.004 459.115 432.999 460.02 431.046C460.926 429.093 463.609 426.805 468.473 425.21C473.336 423.614 477.316 423.915 479.082 424.852C479.776 425.21 480.122 425.924 477.987 426.616H477.976Z" fill="#F95700"/>
<path opacity="0.2" d="M490.184 420.812C490.184 420.812 483.879 421.928 481.799 422.163C479.72 422.397 476.735 421.917 471.536 422.386C466.337 422.855 457.002 427.296 456.532 431.615C456.063 435.934 460.524 436.247 463.743 435.466C466.963 434.684 468.741 433.513 474.253 430.767C481.598 427.096 486.484 424.763 486.484 424.763L490.598 421.359L490.184 420.812ZM477.976 426.616C474.979 427.592 472.054 428.774 469.222 430.153C465.711 431.883 464.861 433.066 462.67 433.58C460.881 434.004 459.115 432.999 460.02 431.046C460.926 429.093 463.609 426.805 468.473 425.21C473.336 423.614 477.316 423.915 479.082 424.852C479.776 425.21 480.122 425.924 477.987 426.616H477.976Z" fill="black"/>
<path d="M487.377 425.946V424.652L486.494 423.469V424.763L487.377 425.946Z" fill="#263238"/>
<path d="M490.184 420.122L534.367 411.562C534.367 411.562 533.417 413.17 523.12 416.205C512.823 419.241 487.344 424.631 487.344 424.631L486.293 423.225L490.184 420.122Z" fill="#37474F"/>
<path d="M521.879 400.623C520.296 403.059 518.376 405.261 516.177 407.163C513.103 409.573 496.59 423.903 496.59 423.903L491.302 426.815L489.703 425.9L492.107 420.32C492.107 420.32 510.744 407.129 514.769 404.373C518.793 401.616 522.393 399.864 521.879 400.623Z" fill="#455A64"/>
<path d="M496.099 441.324C498.156 438.154 495.764 435.13 495.998 432.396C496.233 429.661 496.591 423.914 496.591 423.914L491.303 426.816L488.799 433.233C488.072 435.141 484.886 437.139 482.94 438.813C480.995 440.487 479.351 444.393 484.807 445.899C490.263 447.406 494.053 444.448 496.099 441.324ZM486.518 443.768C484.427 443.165 483.79 441.435 485.12 439.917C485.924 439.135 486.916 438.572 488.001 438.285C489.086 437.998 490.228 437.995 491.314 438.277C493.405 438.88 494.042 440.609 492.712 442.127C491.904 442.902 490.909 443.455 489.824 443.733C488.738 444.011 487.599 444.003 486.518 443.712V443.768Z" fill="#F95700"/>
<path d="M496.322 421.863C496.017 422.12 495.652 422.294 495.26 422.368C494.868 422.442 494.464 422.414 494.086 422.287C493.281 422.052 492.968 421.483 493.37 421.015C493.676 420.759 494.042 420.587 494.434 420.515C494.826 420.443 495.23 420.473 495.606 420.602C496.4 420.836 496.724 421.405 496.322 421.863Z" fill="#263238"/>
<path d="M490.184 419.508C490.184 419.508 483.879 420.624 481.799 420.869C479.72 421.115 476.735 420.613 471.536 421.093C466.337 421.572 457.002 426.003 456.532 430.311C456.063 434.618 460.524 434.953 463.743 434.172C466.963 433.391 468.741 432.219 474.253 429.463C481.598 425.802 486.484 423.47 486.484 423.47L490.598 420.066L490.184 419.508ZM477.976 425.322C474.979 426.298 472.054 427.48 469.222 428.86C465.711 430.59 464.861 431.773 462.67 432.286C460.881 432.71 459.115 431.706 460.02 429.753C460.926 427.8 463.609 425.512 468.473 423.916C473.336 422.32 477.316 422.61 479.082 423.548C479.776 423.916 480.122 424.586 477.987 425.322H477.976Z" fill="#F95700"/>
<path d="M33.3809 187.421V114.134L165.081 38.3906L167.071 39.5289V112.66" fill="#37474F"/>
<path d="M35.3594 115.285V188.562L167.06 112.663L167.071 39.5312L35.3594 115.285Z" fill="#455A64"/>
<path d="M67.9486 112.345C68.0394 112.268 68.1542 112.227 68.2729 112.227C68.3915 112.227 68.5064 112.268 68.5971 112.345C68.6962 112.459 68.7711 112.592 68.8173 112.736C68.8634 112.88 68.8798 113.031 68.8654 113.182V118.762C68.8582 119.149 68.7666 119.53 68.5971 119.878C68.4636 120.2 68.238 120.475 67.9486 120.67L61.9897 124.152V150.936C61.98 151.323 61.8886 151.703 61.7214 152.052C61.5954 152.375 61.3679 152.65 61.0729 152.833L56.6009 155.4C56.5112 155.479 56.396 155.522 56.2767 155.522C56.1574 155.522 56.0422 155.479 55.9525 155.4C55.8534 155.286 55.7785 155.153 55.7323 155.009C55.6862 154.865 55.6698 154.713 55.6842 154.563V127.779L49.6917 131.227C49.602 131.306 49.4868 131.349 49.3675 131.349C49.2482 131.349 49.133 131.306 49.0433 131.227C48.9421 131.114 48.8652 130.982 48.8171 130.838C48.7691 130.694 48.7509 130.542 48.7638 130.39V124.81C48.7763 124.423 48.8715 124.042 49.0433 123.694C49.1726 123.37 49.399 123.093 49.6917 122.902L67.9486 112.345Z" fill="#FAFAFA"/>
<path d="M91.5166 126.988C91.6045 126.91 91.7178 126.868 91.8352 126.868C91.9526 126.868 92.0659 126.91 92.1538 126.988C92.2549 127.101 92.3319 127.234 92.3799 127.378C92.428 127.522 92.4462 127.674 92.4333 127.825V133.405C92.4259 133.793 92.3304 134.175 92.1538 134.521C92.0281 134.844 91.8056 135.121 91.5166 135.313L75.4062 144.632C75.3165 144.71 75.2012 144.754 75.082 144.754C74.9627 144.754 74.8474 144.71 74.7577 144.632C74.6586 144.518 74.5837 144.385 74.5376 144.241C74.4914 144.097 74.4751 143.945 74.4894 143.795V109.991C74.4988 109.605 74.5902 109.224 74.7577 108.875C74.8877 108.554 75.1143 108.281 75.4062 108.094L91.2482 98.9541C91.339 98.8778 91.4538 98.8359 91.5725 98.8359C91.6911 98.8359 91.8059 98.8778 91.8967 98.9541C92.0022 99.0713 92.0816 99.2095 92.1298 99.3595C92.178 99.5095 92.1938 99.668 92.1762 99.8246V105.405C92.1668 105.791 92.0754 106.172 91.9079 106.521C91.7785 106.842 91.5518 107.115 91.2594 107.302L80.7949 113.339V118.986L90.5104 113.406C90.6001 113.328 90.7153 113.285 90.8346 113.285C90.9539 113.285 91.0691 113.328 91.1588 113.406C91.2579 113.52 91.3328 113.653 91.379 113.797C91.4251 113.941 91.4415 114.093 91.4271 114.243V119.823C91.4188 120.21 91.3273 120.591 91.1588 120.939C91.0328 121.266 90.8056 121.543 90.5104 121.732L80.7949 127.312V133.171L91.5166 126.988Z" fill="#FAFAFA"/>
<path d="M111.472 87.2592C111.919 87.0025 112.266 86.9914 112.512 87.2592C112.747 87.5028 112.916 87.8024 113.003 88.1297L120.416 116.777C120.492 117.005 120.537 117.241 120.55 117.48C120.545 117.806 120.468 118.125 120.326 118.418C120.222 118.682 120.038 118.908 119.801 119.065L115.519 121.532C115.061 121.799 114.736 121.833 114.546 121.654C114.362 121.477 114.237 121.247 114.189 120.996L113.238 117.201L104.194 122.413L103.243 127.301C103.18 127.689 103.059 128.065 102.886 128.417C102.672 128.844 102.333 129.195 101.913 129.422L97.6309 131.888C97.5569 131.949 97.4641 131.982 97.3682 131.982C97.2724 131.982 97.1795 131.949 97.1055 131.888C97.0248 131.795 96.9635 131.687 96.9251 131.57C96.8867 131.453 96.872 131.33 96.8819 131.207C96.8985 130.914 96.9435 130.622 97.0161 130.337L104.473 93.0401C104.585 92.5477 104.75 92.0687 104.965 91.6116C105.189 91.1423 105.552 90.7528 106.005 90.4956L111.472 87.2592ZM105.96 113.273L111.472 110.104L108.722 99.1446L105.96 113.273Z" fill="#FAFAFA"/>
<path d="M135.777 100.597C135.592 100.427 135.437 100.227 135.319 100.006L132.121 93.2205V110.518C132.114 110.905 132.023 111.286 131.853 111.634C131.723 111.959 131.497 112.235 131.205 112.427L126.733 114.994C126.643 115.072 126.528 115.115 126.409 115.115C126.289 115.115 126.174 115.072 126.084 114.994C125.983 114.88 125.906 114.748 125.858 114.604C125.81 114.46 125.792 114.308 125.805 114.157V80.3865C125.817 79.9988 125.913 79.6183 126.084 79.2705C126.214 78.946 126.44 78.6693 126.733 78.4781L130.668 76.2461C131.126 75.9894 131.462 75.9894 131.697 76.2461C131.863 76.4232 132.009 76.6178 132.133 76.8264L137.644 88.1315L143.156 70.4764C143.223 70.2643 143.369 69.9072 143.592 69.3604C143.803 68.8893 144.159 68.4981 144.61 68.2444L148.556 66.0124C148.646 65.9339 148.761 65.8906 148.88 65.8906C149 65.8906 149.115 65.9339 149.205 66.0124C149.304 66.1265 149.379 66.2595 149.425 66.4034C149.471 66.5473 149.487 66.699 149.473 66.8494V100.508C149.465 100.895 149.373 101.275 149.205 101.624C149.072 101.946 148.846 102.222 148.556 102.416L144.084 104.983C143.993 105.059 143.879 105.101 143.76 105.101C143.641 105.101 143.526 105.059 143.436 104.983C143.336 104.869 143.262 104.736 143.215 104.592C143.169 104.448 143.153 104.296 143.167 104.146V86.8369L139.97 97.2939C139.841 97.6751 139.688 98.0478 139.511 98.4099C139.346 98.789 139.064 99.1057 138.707 99.3138L136.538 100.575C136.258 100.776 135.99 100.787 135.777 100.597Z" fill="#FAFAFA"/>
<path d="M33.3809 114.133V187.421L35.3597 188.559V115.282L33.3809 114.133Z" fill="#263238"/>
<path d="M165.091 55.7206L163.626 56.4348L163.559 54.4483L162.106 55.1626L162.039 53.1872L160.585 53.9015L160.507 51.9262L159.054 52.6292L158.987 50.6539L157.533 51.3682L157.455 49.3928L166.22 32.4296L167.674 31.7266L167.741 33.7019L169.205 32.9876L169.272 34.963L170.726 34.2487L170.793 36.224L172.257 35.521L172.324 37.4963L173.778 36.782L173.845 38.7574L165.091 55.7206Z" fill="#F95700"/>
<path opacity="0.8" d="M165.091 55.7206L163.626 56.4348L163.559 54.4483L162.106 55.1626L162.039 53.1872L160.585 53.9015L160.507 51.9262L159.054 52.6292L158.987 50.6539L157.533 51.3682L157.455 49.3928L166.22 32.4296L167.674 31.7266L167.741 33.7019L169.205 32.9876L169.272 34.963L170.726 34.2487L170.793 36.224L172.257 35.521L172.324 37.4963L173.778 36.782L173.845 38.7574L165.091 55.7206Z" fill="white"/>
<path d="M22.737 110.993L22.3457 109.174L23.7208 108.928L23.3295 107.109L24.7047 106.875L24.3134 105.056L25.6885 104.81L25.2972 102.991L26.6724 102.757L26.2922 100.937L27.6674 100.703L43.8896 115.189L44.2809 117.008L42.9057 117.242L43.297 119.061L41.9219 119.307L42.3132 121.126L40.9269 121.36L41.3182 123.179L39.943 123.425L40.3343 125.244L38.9592 125.478L22.737 110.993Z" fill="#F95700"/>
<path opacity="0.8" d="M22.737 110.993L22.3457 109.174L23.7208 108.928L23.3295 107.109L24.7047 106.875L24.3134 105.056L25.6885 104.81L25.2972 102.991L26.6724 102.757L26.2922 100.937L27.6674 100.703L43.8896 115.189L44.2809 117.008L42.9057 117.242L43.297 119.061L41.9219 119.307L42.3132 121.126L40.9269 121.36L41.3182 123.179L39.943 123.425L40.3343 125.244L38.9592 125.478L22.737 110.993Z" fill="white"/>
</svg>
