<svg width="535" height="409" viewBox="0 0 535 409" fill="none" xmlns="http://www.w3.org/2000/svg">
<path d="M268.697 394.553C404.602 394.553 514.775 345.844 514.775 285.759C514.775 225.674 404.602 176.965 268.697 176.965C132.792 176.965 22.6191 225.674 22.6191 285.759C22.6191 345.844 132.792 394.553 268.697 394.553Z" fill="#F5F5F5"/>
<path d="M117.606 319.838L126.15 316.117C126.15 316.117 130.23 298.898 127.218 284.092C122.946 263.282 104.427 256.1 97.7093 258.169C90.9916 260.239 89.411 266.407 101.554 278.431C108.624 285.556 117.83 300.558 117.606 319.838Z" fill="#FFBD99"/>
<g opacity="0.15">
<path d="M117.606 319.838L126.15 316.117C126.15 316.117 130.23 298.898 127.218 284.092C122.946 263.282 104.427 256.1 97.7093 258.169C90.9916 260.239 89.411 266.407 101.554 278.431C108.624 285.556 117.83 300.558 117.606 319.838Z" fill="black"/>
</g>
<path d="M120.682 311.611H120.607C120.447 311.595 120.302 311.531 120.204 311.433C120.106 311.334 120.063 311.21 120.084 311.088C123.598 291.603 113.366 270.253 101.928 261.656C101.815 261.567 101.752 261.449 101.752 261.325C101.752 261.201 101.815 261.082 101.928 260.993C102.042 260.908 102.195 260.859 102.355 260.859C102.515 260.859 102.668 260.908 102.782 260.993C114.53 269.746 124.922 291.448 121.355 311.219C121.329 311.337 121.245 311.444 121.12 311.517C120.995 311.59 120.838 311.623 120.682 311.611Z" fill="white"/>
<path d="M94.0029 330.317C92.6573 330.906 89.8911 329.613 88.8231 329.065C87.0002 328.12 85.5283 326.829 84.5511 325.319C83.4503 323.606 83.0769 321.672 83.4831 319.789C83.6946 318.795 83.9979 317.813 84.3909 316.852C84.7541 315.895 85.1065 314.946 85.4589 313.997C85.8919 313.076 86.0771 312.096 86.0036 311.118C85.6725 309.163 83.4084 307.797 81.3578 306.619C79.083 305.31 76.712 303.592 76.7227 301.245C76.8934 299.424 77.8474 297.698 79.4354 296.337C80.8986 294.914 82.6394 293.654 83.9637 292.157C85.0053 291.107 85.5513 289.818 85.5123 288.5C85.3642 287.694 85.0006 286.92 84.4443 286.226C83.3763 284.697 81.9345 283.29 81.2403 281.646C80.5461 280.001 80.5995 277.956 82.3083 276.787C83.686 275.821 85.7259 275.682 87.5843 275.781C89.3277 275.94 91.0045 276.389 92.497 277.097C97.3671 279.175 100.144 283.592 105.313 285.188C107.364 285.68 109.455 286.071 111.572 286.357C113.708 286.783 115.769 287.592 116.73 289.065C118.631 291.969 115.107 295.543 116.442 298.627C117.627 301.351 121.077 302.398 123.02 304.852C123.815 305.939 124.133 307.192 123.928 308.427C123.767 310.512 123.1 312.557 121.963 314.456C120.718 316.345 119.29 318.161 117.691 319.887C117.52 319.936 94.2059 330.227 94.0029 330.317Z" fill="#FFBD99"/>
<path d="M107.811 324.679C107.731 324.677 107.653 324.663 107.58 324.638C107.507 324.612 107.442 324.576 107.387 324.531C107.333 324.487 107.29 324.434 107.262 324.377C107.234 324.319 107.221 324.258 107.224 324.197C108.228 305.751 96.8858 285.391 88.6301 279.477C88.518 279.389 88.4551 279.272 88.4551 279.15C88.4551 279.027 88.518 278.91 88.6301 278.822C88.7458 278.736 88.9011 278.688 89.0627 278.688C89.2243 278.688 89.3795 278.736 89.4952 278.822C97.9111 284.859 109.488 305.555 108.474 324.262C108.455 324.384 108.375 324.495 108.252 324.573C108.129 324.65 107.971 324.689 107.811 324.679Z" fill="white"/>
<path d="M104.202 302.889C104.141 302.897 104.08 302.897 104.02 302.889C98.316 301.684 92.457 300.96 86.5475 300.73C86.386 300.724 86.234 300.67 86.1248 300.579C86.0157 300.488 85.9583 300.367 85.9654 300.243C85.9725 300.119 86.0434 300.003 86.1626 299.919C86.2818 299.836 86.4394 299.792 86.6009 299.797C92.6144 300.039 98.5763 300.776 104.383 301.998C104.459 302.015 104.53 302.045 104.591 302.084C104.653 302.122 104.703 302.17 104.74 302.224C104.777 302.279 104.799 302.338 104.806 302.399C104.812 302.459 104.803 302.521 104.778 302.579C104.739 302.671 104.662 302.752 104.558 302.808C104.454 302.864 104.329 302.892 104.202 302.889Z" fill="white"/>
<path d="M188.672 259.885V257.48L132.762 282.25L135.421 283.452L188.672 259.885Z" fill="#37474F"/>
<path d="M118.953 96.8338C119.09 96.8935 119.199 96.9851 119.264 97.0953C119.33 97.2055 119.348 97.3288 119.316 97.4473L72.9859 254.953L71.6723 259.419C71.0316 259.454 70.3904 259.358 69.814 259.141L66.7168 257.743C66.5793 257.681 66.4709 257.588 66.4076 257.476C66.3442 257.364 66.329 257.24 66.3643 257.121L113.922 95.4432C113.949 95.3589 114 95.2802 114.072 95.2132C114.143 95.1462 114.234 95.0925 114.337 95.0563C114.44 95.0201 114.552 95.0022 114.665 95.004C114.778 95.0059 114.89 95.0274 114.99 95.0669L118.953 96.8338Z" fill="#37474F"/>
<path d="M124.762 94.6836L76.9798 257.13C76.9419 257.259 76.869 257.38 76.766 257.486C76.6629 257.591 76.532 257.679 76.3818 257.744L73.2739 259.118C72.7848 259.327 72.2316 259.431 71.6719 259.421L72.9855 254.954L119.433 97.0803L124.762 94.6836Z" fill="#455A64"/>
<path d="M130.102 313.603V318.298C129.506 318.309 128.916 318.208 128.382 318.004L125.499 316.728C125.306 316.659 125.14 316.553 125.018 316.419C124.896 316.286 124.823 316.13 124.805 315.967V174.887L130.145 177.243L130.102 313.603Z" fill="#37474F"/>
<path d="M135.431 174.898V315.995C135.403 316.15 135.323 316.297 135.199 316.421C135.076 316.546 134.913 316.644 134.726 316.707L131.864 317.983C131.331 318.206 130.73 318.316 130.123 318.302V177.246L135.431 174.898Z" fill="#455A64"/>
<path d="M199.223 287.742C198.637 287.725 198.065 287.598 197.557 287.374L194.588 286.057C194.395 285.97 194.23 285.852 194.105 285.71C193.979 285.569 193.896 285.408 193.862 285.239L162.1 158.375L167.44 160.731L198.081 283.177L199.223 287.742Z" fill="#37474F"/>
<path d="M204.543 285.361C204.519 285.528 204.439 285.686 204.31 285.821C204.18 285.957 204.006 286.063 203.806 286.13L201.093 287.341L200.965 287.398C200.429 287.615 199.83 287.725 199.224 287.717L198.081 283.177L167.43 160.73L172.77 158.383L204.479 285.173L204.543 285.361Z" fill="#455A64"/>
<path d="M133.596 288.958L193.991 262.251V257.539L133.596 284.247V288.958Z" fill="#455A64"/>
<path d="M196.607 37.1962L196.5 37.1471L196.212 37.0244C194.663 36.3537 188.255 33.5888 174.425 27.5111C163.392 22.6522 149.701 22.9466 134.909 29.507C98.3404 45.6625 68.7354 93.6627 68.7461 136.73C68.7461 162.293 79.1911 180.379 95.3073 187.446C105.005 191.708 114.958 196.027 117.223 197.017C117.308 197.048 117.39 197.083 117.468 197.123L117.703 197.222C128.661 201.892 142.203 201.532 156.856 195.054C193.371 178.898 222.976 130.898 222.976 87.8304C222.987 62.3742 212.627 44.3373 196.607 37.1962Z" fill="#FFBD99"/>
<path opacity="0.1" d="M196.607 37.1962L196.5 37.1471L196.212 37.0244C194.663 36.3537 188.255 33.5888 174.425 27.5111C163.392 22.6522 149.701 22.9466 134.909 29.507C98.3404 45.6625 68.7354 93.6627 68.7461 136.73C68.7461 162.293 79.1911 180.379 95.3073 187.446C105.005 191.708 114.958 196.027 117.223 197.017C117.308 197.048 117.39 197.083 117.468 197.123L117.703 197.222C128.661 201.892 142.203 201.532 156.856 195.054C193.371 178.898 222.976 130.898 222.976 87.8304C222.987 62.3742 212.627 44.3373 196.607 37.1962Z" fill="black"/>
<path opacity="0.1" d="M208.868 142.252L81.1456 85.7695C73.3385 102.023 68.7461 119.757 68.7461 136.731C68.7461 162.293 79.1911 180.379 95.3073 187.447C105.005 191.709 114.958 196.028 117.223 197.018C117.308 197.048 117.39 197.084 117.468 197.124L117.703 197.222C128.661 201.893 142.203 201.533 156.856 195.054C177.97 185.737 196.767 165.762 208.868 142.252Z" fill="black"/>
<path opacity="0.1" d="M68.8535 141.574C70.1031 164.585 80.2064 180.838 95.2865 187.464C104.984 191.726 114.938 196.045 117.202 197.035C117.287 197.065 117.369 197.101 117.448 197.141L117.682 197.239C128.64 201.91 142.182 201.55 156.835 195.071C162.005 192.738 166.828 189.981 171.221 186.851L68.8535 141.574Z" fill="black"/>
<path d="M156.855 39.1178C120.34 55.2651 90.7461 103.265 90.7461 146.333C90.7461 189.401 120.351 211.217 156.866 195.069C193.381 178.922 222.986 130.881 222.986 87.8461C222.986 44.8111 193.381 22.9623 156.855 39.1178Z" fill="#FFBD99"/>
<path d="M156.857 54.6028C127.593 67.5435 103.873 106.014 103.873 140.493C103.873 174.971 127.604 192.493 156.867 179.552C186.13 166.612 209.829 128.165 209.829 93.6541C209.829 59.1427 186.13 41.6538 156.857 54.6028Z" fill="#FAFAFA"/>
<path d="M156.868 70.0897C134.845 79.8239 117.01 108.765 117.01 134.712C117.01 160.659 134.856 173.828 156.868 164.094C178.879 154.36 196.725 125.419 196.725 99.4723C196.725 73.5253 178.858 60.3474 156.868 70.0897Z" fill="#FFBD99"/>
<path d="M156.866 85.5738C142.096 92.1178 130.166 111.504 130.166 128.928C130.166 146.351 142.138 155.161 156.866 148.633C171.594 142.106 183.566 122.695 183.566 105.279C183.566 87.8641 171.626 79.0379 156.866 85.5738Z" fill="#FAFAFA"/>
<path d="M156.867 101.048C149.391 104.377 143.261 114.25 143.271 123.134C143.282 132.017 149.359 136.483 156.867 133.162C164.375 129.841 170.463 119.968 170.463 111.076C170.463 102.185 164.375 97.7265 156.867 101.048Z" fill="#455A64"/>
<path d="M262.35 250.435C261.946 250.669 261.62 250.972 261.395 251.32C261.171 251.668 261.056 252.051 261.058 252.439C261.05 252.578 261.091 252.716 261.178 252.838C261.264 252.961 261.392 253.063 261.549 253.134L296.569 266.443L298.395 263.621L263.375 250.312C263.205 250.264 263.021 250.25 262.842 250.272C262.662 250.293 262.493 250.349 262.35 250.435Z" fill="#455A64"/>
<path d="M261.548 253.141C257.276 251.505 248.508 246.434 248.508 246.434C248.508 246.434 261.238 249.485 263.374 250.319L261.548 253.141Z" fill="#455A64"/>
<path opacity="0.2" d="M297.369 263.751L262.915 250.737L248.508 246.426L262.413 251.792L297.241 265.109L297.369 263.751Z" fill="white"/>
<path d="M297.369 263.775C296.963 264.006 296.634 264.307 296.41 264.654C296.185 265.001 296.071 265.384 296.076 265.771C296.14 266.482 296.813 266.736 297.582 266.343C297.989 266.112 298.319 265.809 298.544 265.461C298.768 265.112 298.882 264.728 298.875 264.339C298.81 263.611 298.159 263.35 297.369 263.775Z" fill="#37474F"/>
<path d="M296.13 264.463C301.011 257.584 325.041 248.439 344.927 255.973C364.813 263.506 401.659 292.693 411.367 307.948C388.042 311.016 340.367 308.21 321.175 300.946C301.983 293.682 291.986 280.48 296.13 264.463Z" fill="#FFBD99"/>
<path opacity="0.7" d="M296.13 264.463C301.011 257.584 325.041 248.439 344.927 255.973C364.813 263.506 401.659 292.693 411.367 307.948C388.042 311.016 340.367 308.21 321.175 300.946C301.983 293.682 291.986 280.48 296.13 264.463Z" fill="white"/>
<path d="M313.111 288.553C312.128 276.929 320.223 262.958 331.192 257.363C335.827 254.991 340.227 254.5 343.848 255.604C324.175 248.774 300.903 257.706 296.108 264.463C291.964 280.479 302.003 293.666 321.185 300.929C316.763 299.203 313.666 294.86 313.111 288.553Z" fill="#FFBD99"/>
<path opacity="0.15" d="M321.206 300.927C340.43 308.191 388.063 310.997 411.399 307.929C391 308.24 353.652 303.218 332.473 294.661C314.98 287.594 299.6 275.226 296.161 264.461C291.986 280.477 302.025 293.664 321.206 300.927Z" fill="black"/>
<path opacity="0.5" d="M296.131 264.462C314.896 258.67 334.44 261.77 347.673 267.202C360.905 272.633 401.233 296.584 411.368 307.946C411.368 307.946 382.415 277.231 350.973 262.957C319.531 248.682 296.131 264.462 296.131 264.462Z" fill="white"/>
<path d="M452.826 337.206C449.686 340.593 438.344 336.266 426.03 328.585L419.536 317.951L421.811 325.844C414.156 320.711 407.177 315.015 400.975 308.838C404.552 308.65 408.045 308.355 411.398 307.922L428.614 314.294C428.614 314.294 458.091 331.538 452.826 337.206Z" fill="#FFBD99"/>
<path opacity="0.15" d="M452.826 337.206C449.686 340.593 438.344 336.266 426.03 328.585L419.536 317.951L421.811 325.844C414.156 320.711 407.177 315.015 400.975 308.838C404.552 308.65 408.045 308.355 411.398 307.922L428.614 314.294C428.614 314.294 458.091 331.538 452.826 337.206Z" fill="black"/>
<g opacity="0.15">
<path d="M400.975 308.849C403.978 311.88 407.186 314.787 410.587 317.561C408.156 315.395 406.155 312.967 404.649 310.354L411.484 309.446L428.572 314.305L411.366 307.949C408.045 308.366 404.552 308.661 400.975 308.849Z" fill="black"/>
</g>
<path d="M428.615 314.303L411.367 307.947C406.785 304.937 405.803 303.464 401.242 300.773C408.983 300.204 416.761 299.988 424.535 300.127L420.498 304.544L431.178 300.454C440.619 301.149 446.675 302.785 450.103 305.027C460.399 311.734 447.433 317.321 428.615 314.303Z" fill="#FFBD99"/>
<path opacity="0.5" d="M420.531 304.528L424.568 300.111C416.794 299.972 409.016 300.188 401.275 300.757C401.275 300.757 419.122 300.618 421.941 300.986L420.531 304.528Z" fill="white"/>
<path opacity="0.5" d="M438.068 315.138C451.332 315.277 458.552 310.532 450.115 304.994C446.686 302.753 440.631 301.117 431.19 300.422L425.85 302.475L431.798 301.215C431.798 301.215 443.952 302.156 449.388 306.753C452.731 309.583 448.95 315.064 438.068 315.138Z" fill="white"/>
</svg>
