<svg width="109" height="108" viewBox="0 0 109 108" fill="none" xmlns="http://www.w3.org/2000/svg">
<path d="M93.6951 32.0406H81.1902L98.9653 49.6135L108.5 49.5295L97.1831 38.3475C100.58 37.5031 103.547 35.4594 105.527 32.6011C107.508 29.7428 108.364 26.2669 107.936 22.8274C107.507 19.3879 105.823 16.2219 103.2 13.9253C100.578 11.6286 97.1972 10.3596 93.6951 10.3569H76.6923L76.6541 10.5165H76.4165L59.3076 27.4511V10.4871H51.6697V49.4833H59.3076V32.5235L76.4801 49.5169H87.2708L67.5311 29.9831L80.5664 17.0837H93.6951C95.6679 17.13 97.5441 17.938 98.9228 19.3351C100.302 20.7321 101.073 22.6074 101.073 24.5601C101.073 26.5128 100.302 28.3881 98.9228 29.7851C97.5441 31.1822 95.6679 31.9902 93.6951 32.0364V32.0406Z" fill="white"/>
<path d="M28.2893 10C23.0242 10.0056 17.9764 12.0778 14.2534 15.7619C10.5304 19.446 8.4364 24.4412 8.43079 29.6514C8.43079 30.2476 8.46049 30.8397 8.51565 31.4234L15.1309 30.5542C15.1097 30.2518 15.0843 29.9537 15.0843 29.6514C15.075 26.7592 16.0324 23.9452 17.8076 21.6476C19.5827 19.35 22.0758 17.6978 24.8986 16.9483C27.7214 16.1988 30.7154 16.394 33.4144 17.5037C36.1134 18.6133 38.3658 20.5751 39.8208 23.0833C41.2759 25.5916 41.8518 28.5056 41.459 31.3715C41.0663 34.2375 39.7268 36.8944 37.6492 38.9286C35.5716 40.9627 32.8725 42.2599 29.9724 42.6181C27.0722 42.9763 24.1338 42.3754 21.6147 40.9089L17.8848 46.3676C20.4982 47.9633 23.45 48.9374 26.5081 49.2132C29.5662 49.4891 32.6473 49.0592 35.5092 47.9574C38.371 46.8556 40.9356 45.1119 43.0013 42.8634C45.067 40.6149 46.5774 37.923 47.4139 34.9991C48.2504 32.0752 48.3901 28.9992 47.8221 26.0129C47.2541 23.0266 45.9938 20.2113 44.1403 17.7885C42.2868 15.3657 39.8907 13.4013 37.1403 12.0499C34.3899 10.6985 31.3601 9.99678 28.2893 10Z" fill="white"/>
<path d="M28.2215 23.437C26.5458 23.4369 24.9377 24.0907 23.7461 25.2565C22.5545 26.4223 21.8756 28.0061 21.8566 29.6642L29.9952 28.5934L25.387 35.3664C26.2463 35.7926 27.192 36.0206 28.153 36.0335C29.1141 36.0463 30.0657 35.8435 30.9363 35.4404C31.8069 35.0373 32.5739 34.4444 33.1798 33.706C33.7857 32.9676 34.2148 32.1031 34.4348 31.1772C34.6548 30.2513 34.66 29.2881 34.4501 28.3599C34.2402 27.4317 33.8205 26.5626 33.2227 25.8178C32.6248 25.0731 31.8643 24.472 30.9981 24.0596C30.132 23.6473 29.1827 23.4344 28.2215 23.437Z" fill="white"/>
<path d="M10.476 51.02L23.2058 32.6367L0.5 35.702L9.10113 41.8284L10.476 51.02Z" fill="#FE724C"/>
<path d="M45.0162 71.1711C44.1785 71.1586 43.3561 71.3929 42.6534 71.8444C41.9508 72.2958 41.3998 72.9438 41.0704 73.7061C40.7411 74.4683 40.6483 75.3103 40.804 76.1249C40.9596 76.9394 41.3566 77.6898 41.9445 78.2804C42.5324 78.871 43.2845 79.2752 44.1052 79.4416C44.9259 79.608 45.778 79.529 46.5532 79.2147C47.3284 78.9004 47.9916 78.365 48.4584 77.6767C48.9252 76.9883 49.1745 76.1781 49.1746 75.3491C49.1962 74.8 49.1039 74.2524 48.9034 73.74C48.7029 73.2276 48.3984 72.7613 48.0088 72.3698C47.6192 71.9783 47.1526 71.67 46.6379 71.4638C46.1232 71.2577 45.5713 71.158 45.0162 71.1711Z" fill="#FE724C"/>
<path d="M62.3586 71.0791C59.94 71.0791 58.1154 72.8049 58.1154 75.3495C58.1154 77.8941 59.9188 79.6157 62.3586 79.6157C64.7985 79.6157 66.6019 77.8899 66.6019 75.3495C66.6019 72.8091 64.8028 71.0791 62.3586 71.0791Z" fill="#FE724C"/>
<path d="M10.6202 57.7178V88.9668H81.483L88.5523 97.537V61.7278H92.5156V69.475C93.4321 68.1145 95.0233 67.3755 97.0729 67.3755C100.315 67.3755 102.852 69.6136 102.852 73.6404V82.9328H98.9059V74.1149C98.9059 72.0574 97.6542 70.9992 95.8805 70.9992C93.954 70.9992 92.5156 72.1162 92.5156 74.7532V88.9752H107.859V57.7178H10.6202ZM26.9441 79.2545C29.3925 79.2545 31.5014 78.104 32.5113 76.2564L36.1521 78.3559C35.1875 79.908 33.8312 81.1848 32.2168 82.0609C30.6023 82.9371 28.7852 83.3823 26.9441 83.3527C20.4604 83.3527 15.814 78.5071 15.814 72.3345C15.814 66.162 20.4816 61.3163 26.9441 61.3163C28.7837 61.2922 30.5984 61.7392 32.2118 62.614C33.8252 63.4888 35.1826 64.7617 36.1521 66.3089L32.5113 68.4085C31.4717 66.5315 29.3925 65.381 26.9441 65.381C22.756 65.381 20.0021 68.2573 20.0021 72.3429C20.0021 76.4286 22.7475 79.2545 26.9357 79.2545H26.9441ZM45.0248 83.3401C43.432 83.3318 41.8775 82.8569 40.5572 81.9752C39.237 81.0935 38.2103 79.8446 37.6066 78.3861C37.0028 76.9276 36.8492 75.3248 37.1651 73.78C37.4809 72.2352 38.2521 70.8175 39.3813 69.706C40.5105 68.5944 41.9471 67.8387 43.5099 67.5343C45.0726 67.2298 46.6915 67.3902 48.1622 67.9953C49.6329 68.6004 50.8896 69.6229 51.7736 70.934C52.6576 72.2451 53.1294 73.7859 53.1294 75.362C53.1392 76.4167 52.9356 77.4626 52.5307 78.4382C52.1258 79.4138 51.5277 80.2994 50.7717 81.0428C50.0157 81.7862 49.117 82.3725 48.1286 82.767C47.1402 83.1616 46.082 83.3564 45.0163 83.3401H45.0248ZM70.5608 82.9202H66.6315V81.1315C65.5283 82.4961 63.8777 83.3443 61.6457 83.3443C57.5764 83.3443 54.2115 79.8634 54.2115 75.3662C54.2115 70.8691 57.5764 67.3881 61.6457 67.3881C63.8777 67.3881 65.5283 68.2279 66.6315 69.5968V67.8122H70.5736L70.5608 82.9202ZM80.5028 83.3401C78.3612 83.3401 76.3073 82.4983 74.793 80.9997C73.2786 79.5012 72.4279 77.4687 72.4279 75.3494C72.4279 73.2301 73.2786 71.1977 74.793 69.6991C76.3073 68.2006 78.3612 67.3587 80.5028 67.3587C81.8951 67.3362 83.2674 67.6874 84.4741 68.375C85.6808 69.0626 86.6766 70.0609 87.3557 71.2638L83.9611 73.2289C83.6323 72.5996 83.1303 72.0752 82.5131 71.7163C81.8959 71.3575 81.1887 71.1787 80.4731 71.2008C78.1181 71.2008 76.3741 72.9266 76.3741 75.3494C76.3525 75.8906 76.4432 76.4304 76.6408 76.9354C76.8384 77.4405 77.1385 77.9 77.5227 78.2857C77.9069 78.6714 78.367 78.975 78.8744 79.1778C79.3819 79.3805 79.926 79.4781 80.4731 79.4644C81.191 79.498 81.9037 79.3276 82.527 78.9735C83.1502 78.6193 83.6582 78.0962 83.9908 77.4657L87.4236 79.4267C86.7285 80.6332 85.7188 81.6328 84.4999 82.3212C83.281 83.0096 81.8976 83.3615 80.4943 83.3401H80.5028Z" fill="#FE724C"/>
</svg>
