<svg width="137" height="69" viewBox="0 0 137 69" fill="none" xmlns="http://www.w3.org/2000/svg">
<path d="M20.4239 20.7366C18.5172 20.7366 17.0706 20.2366 16.0839 19.2366C15.0972 18.2233 14.6039 16.6233 14.6039 14.4366C14.6039 12.21 15.0906 10.6033 16.0639 9.61662C17.0506 8.61662 18.5039 8.11662 20.4239 8.11662C22.3439 8.11662 23.7972 8.61662 24.7839 9.61662C25.7706 10.6033 26.2639 12.21 26.2639 14.4366C26.2639 16.6233 25.7706 18.2233 24.7839 19.2366C23.7972 20.2366 22.3439 20.7366 20.4239 20.7366ZM20.4239 17.2566C21.1572 17.2566 21.6839 17.0366 22.0039 16.5966C22.3372 16.1566 22.5039 15.4366 22.5039 14.4366C22.5039 13.3966 22.3372 12.6633 22.0039 12.2366C21.6839 11.7966 21.1572 11.5766 20.4239 11.5766C19.7039 11.5766 19.1772 11.7966 18.8439 12.2366C18.5239 12.6633 18.3639 13.3966 18.3639 14.4366C18.3639 15.4366 18.5239 16.1566 18.8439 16.5966C19.1772 17.0366 19.7039 17.2566 20.4239 17.2566ZM33.4955 17.1566V20.5366H29.7955V8.29662H33.4955V12.1566L36.4155 8.29662H40.5955L36.7155 13.3566L40.9155 20.5366H37.0155L34.4755 15.9366L33.4955 17.1566ZM47.9369 17.1766V20.5366H44.2369V8.29662H50.2569C51.6035 8.29662 52.6235 8.70329 53.3169 9.51662C54.0102 10.33 54.3569 11.4033 54.3569 12.7366C54.3569 13.55 54.1702 14.27 53.7969 14.8966C53.4369 15.51 52.9369 16.0166 52.2969 16.4166C52.4435 16.4966 52.5569 16.5966 52.6369 16.7166C52.7169 16.8366 52.7835 16.9766 52.8369 17.1366L54.1969 20.5366H50.3369L49.1969 17.6766C49.1435 17.5433 49.0835 17.4433 49.0169 17.3766C48.9635 17.2966 48.8969 17.2433 48.8169 17.2166C48.7369 17.19 48.6235 17.1766 48.4769 17.1766H47.9369ZM49.4169 11.5166H47.9369V13.9566H49.3169C49.7435 13.9566 50.0635 13.8566 50.2769 13.6566C50.4902 13.4433 50.5969 13.1366 50.5969 12.7366C50.5969 12.31 50.4969 12.0033 50.2969 11.8166C50.1102 11.6166 49.8169 11.5166 49.4169 11.5166ZM69.4145 20.7366C67.2945 20.7366 65.6945 20.2033 64.6145 19.1366C63.5345 18.07 62.9945 16.51 62.9945 14.4566C62.9945 12.3766 63.5279 10.8033 64.5945 9.73662C65.6612 8.65662 67.2612 8.11662 69.3945 8.11662C70.0745 8.11662 70.6879 8.16995 71.2345 8.27662C71.7945 8.38329 72.3345 8.54329 72.8545 8.75662V12.3366C71.8012 11.8166 70.7279 11.5566 69.6345 11.5566C68.6879 11.5566 67.9679 11.79 67.4745 12.2566C66.9945 12.7233 66.7545 13.4566 66.7545 14.4566C66.7545 15.4433 67.0079 16.1633 67.5145 16.6166C68.0212 17.0566 68.7412 17.2766 69.6745 17.2766C70.2212 17.2766 70.7612 17.2166 71.2945 17.0966C71.8412 16.9633 72.3745 16.77 72.8945 16.5166V20.0766C72.3212 20.3033 71.7612 20.47 71.2145 20.5766C70.6812 20.6833 70.0812 20.7366 69.4145 20.7366ZM81.0288 20.7366C79.3488 20.7366 78.1021 20.35 77.2888 19.5766C76.4754 18.79 76.0688 17.61 76.0688 16.0366C76.0688 14.4633 76.4754 13.29 77.2888 12.5166C78.1021 11.73 79.3488 11.3366 81.0288 11.3366C82.6954 11.3366 83.9421 11.73 84.7688 12.5166C85.5954 13.29 86.0088 14.4633 86.0088 16.0366C86.0088 17.61 85.5954 18.79 84.7688 19.5766C83.9421 20.35 82.6954 20.7366 81.0288 20.7366ZM81.0288 17.7766C81.4688 17.7766 81.7821 17.6433 81.9688 17.3766C82.1554 17.11 82.2488 16.6633 82.2488 16.0366C82.2488 15.41 82.1554 14.9633 81.9688 14.6966C81.7821 14.43 81.4688 14.2966 81.0288 14.2966C80.6154 14.2966 80.3088 14.43 80.1088 14.6966C79.9221 14.9633 79.8288 15.41 79.8288 16.0366C79.8288 16.6633 79.9221 17.11 80.1088 17.3766C80.3088 17.6433 80.6154 17.7766 81.0288 17.7766ZM92.062 20.7366C91.2087 20.7366 90.5154 20.4966 89.982 20.0166C89.4487 19.5366 89.182 18.79 89.182 17.7766C89.182 16.7633 89.4687 16.01 90.042 15.5166C90.6287 15.01 91.502 14.7566 92.662 14.7566H94.702V14.5566C94.702 14.3833 94.642 14.2366 94.522 14.1166C94.4154 13.9966 94.2354 13.9033 93.982 13.8366C93.742 13.77 93.4287 13.7366 93.042 13.7366C92.122 13.7366 91.1754 13.8966 90.202 14.2166V11.9966C90.682 11.77 91.242 11.6033 91.882 11.4966C92.5354 11.39 93.1687 11.3366 93.782 11.3366C95.1554 11.3366 96.2354 11.65 97.022 12.2766C97.8087 12.89 98.202 13.8233 98.202 15.0766V20.5366H94.982L94.802 19.8166C94.4954 20.11 94.1154 20.3366 93.662 20.4966C93.2087 20.6566 92.6754 20.7366 92.062 20.7366ZM93.442 18.4566C93.722 18.4566 93.9554 18.4166 94.142 18.3366C94.342 18.2433 94.5287 18.1033 94.702 17.9166V16.8566H93.602C93.2687 16.8566 93.0154 16.9233 92.842 17.0566C92.6687 17.19 92.582 17.3966 92.582 17.6766C92.582 17.93 92.6554 18.1233 92.802 18.2566C92.9487 18.39 93.162 18.4566 93.442 18.4566ZM106.63 20.7366C105.097 20.7366 103.884 20.3366 102.99 19.5366C102.11 18.7366 101.67 17.57 101.67 16.0366C101.67 14.4766 102.11 13.3033 102.99 12.5166C103.884 11.73 105.104 11.3366 106.65 11.3366C107.304 11.3366 107.884 11.3833 108.39 11.4766C108.897 11.57 109.37 11.7366 109.81 11.9766V14.8366C109.117 14.4766 108.33 14.2966 107.45 14.2966C106.77 14.2966 106.264 14.4366 105.93 14.7166C105.597 14.9833 105.43 15.4233 105.43 16.0366C105.43 16.65 105.597 17.0966 105.93 17.3766C106.264 17.6433 106.777 17.7766 107.47 17.7766C108.244 17.7766 109.037 17.55 109.85 17.0966V20.0766C108.944 20.5166 107.87 20.7366 106.63 20.7366ZM117.007 14.8766V20.5366H113.307V7.73662H117.007V11.9766C117.287 11.79 117.627 11.6366 118.027 11.5166C118.441 11.3966 118.874 11.3366 119.327 11.3366C120.474 11.3366 121.307 11.63 121.827 12.2166C122.361 12.79 122.627 13.6966 122.627 14.9366V20.5366H118.927V15.2766C118.927 15.0633 118.901 14.89 118.847 14.7566C118.794 14.6233 118.701 14.5233 118.567 14.4566C118.447 14.39 118.294 14.3566 118.107 14.3566C117.921 14.3566 117.721 14.41 117.507 14.5166C117.307 14.6233 117.141 14.7433 117.007 14.8766Z" fill="white"/>
<path d="M5.48588 59.6966C3.98188 59.6966 2.84588 59.286 2.07788 58.4646C1.30988 57.6326 0.925878 56.374 0.925878 54.6886C0.925878 52.918 1.30454 51.6273 2.06188 50.8166C2.81921 50.006 3.96054 49.6006 5.48588 49.6006C7.00055 49.6006 8.13655 50.006 8.89388 50.8166C9.65121 51.6273 10.0299 52.918 10.0299 54.6886C10.0299 56.374 9.64588 57.6326 8.87788 58.4646C8.10988 59.286 6.97921 59.6966 5.48588 59.6966ZM5.48588 57.6646C6.28588 57.6646 6.87254 57.4193 7.24588 56.9286C7.62988 56.438 7.82188 55.6913 7.82188 54.6886C7.82188 53.5793 7.63521 52.79 7.26188 52.3206C6.88855 51.8513 6.29655 51.6166 5.48588 51.6166C4.67521 51.6166 4.08321 51.8513 3.70988 52.3206C3.33654 52.79 3.14988 53.5793 3.14988 54.6886C3.14988 55.702 3.33654 56.454 3.70988 56.9446C4.09388 57.4246 4.68588 57.6646 5.48588 57.6646ZM14.0815 56.5286V59.5366H11.8895V49.7446H14.0815V53.5846L17.3455 49.7446H19.8415L16.5295 53.7446L20.0335 59.5366H17.7295L15.2015 55.2646L14.0815 56.5286ZM23.9759 56.4006V59.5366H21.7839V49.7446H26.3119C27.3572 49.7446 28.1412 50.0486 28.6639 50.6566C29.1865 51.254 29.4479 52.0593 29.4479 53.0726C29.4479 53.766 29.2879 54.358 28.9679 54.8486C28.6479 55.3393 28.1999 55.7073 27.6239 55.9526C27.7839 56.0273 27.9012 56.1233 27.9759 56.2406C28.0505 56.3473 28.1252 56.4966 28.1999 56.6886L29.3839 59.5366H27.0959L26.0719 57.0086C26.0079 56.8486 25.9385 56.726 25.8639 56.6406C25.7892 56.5553 25.6879 56.4966 25.5599 56.4646C25.4425 56.422 25.2772 56.4006 25.0639 56.4006H23.9759ZM25.8799 51.6486H23.9759V54.4966H25.7519C26.2425 54.4966 26.6159 54.3793 26.8719 54.1446C27.1279 53.91 27.2559 53.5526 27.2559 53.0726C27.2559 52.582 27.1385 52.2246 26.9039 52.0006C26.6799 51.766 26.3385 51.6486 25.8799 51.6486Z" fill="#FE724C"/>
<path d="M37.2661 55.6646C37.2661 56.0166 37.3461 56.2833 37.5061 56.4646C37.6768 56.6353 37.9488 56.7206 38.3221 56.7206C38.7275 56.7206 39.0368 56.646 39.2501 56.4966C39.4741 56.3473 39.5861 56.1446 39.5861 55.8886V54.3206H38.5461C38.1301 54.3206 37.8101 54.4326 37.5861 54.6566C37.3728 54.8806 37.2661 55.2166 37.2661 55.6646ZM41.6021 56.3046C41.6021 56.6886 41.6715 56.9713 41.8101 57.1526C41.9488 57.3233 42.1568 57.4086 42.4341 57.4086H42.9301C42.9835 57.4086 43.0208 57.478 43.0421 57.6166C43.0741 57.7553 43.0901 58.054 43.0901 58.5126C43.0901 58.9393 43.0741 59.2166 43.0421 59.3446C43.0208 59.4726 42.9835 59.5366 42.9301 59.5366H42.4181C41.8421 59.5366 41.3621 59.4406 40.9781 59.2486C40.6048 59.046 40.3435 58.7206 40.1941 58.2726C39.9701 58.4646 39.6821 58.6086 39.3301 58.7046C38.9781 58.79 38.6048 58.8326 38.2101 58.8326C37.2395 58.8326 36.5035 58.5713 36.0021 58.0486C35.5008 57.5153 35.2501 56.726 35.2501 55.6806C35.2501 55.094 35.3835 54.5393 35.6501 54.0166C35.9168 53.494 36.3008 53.078 36.8021 52.7686C37.3035 52.4486 37.8741 52.2886 38.5141 52.2886H39.5701V51.2486H41.6021V56.3046ZM45.4881 57.4086C45.5948 57.4086 45.6481 57.7766 45.6481 58.5126C45.6481 58.95 45.6321 59.2326 45.6001 59.3606C45.5681 59.478 45.5308 59.5366 45.4881 59.5366H43.0881C42.9815 59.5366 42.9281 59.1953 42.9281 58.5126C42.9281 58.054 42.9441 57.7553 42.9761 57.6166C43.0081 57.478 43.0455 57.4086 43.0881 57.4086H45.4881ZM46.8384 57.4086C47.6384 57.4086 48.305 57.3553 48.8384 57.2486C49.3717 57.142 49.921 56.9286 50.4864 56.6086L51.9744 55.7606C51.8677 55.366 51.7077 55.094 51.4944 54.9446C51.2917 54.7953 50.9824 54.7206 50.5664 54.7206H46.9024L47.1424 52.6086H50.9504C51.6224 52.6086 52.1664 52.726 52.5824 52.9606C52.9984 53.1846 53.345 53.5686 53.6224 54.1126C53.9104 54.6566 54.1664 55.43 54.3904 56.4326L51.2704 58.3686C50.5557 58.8166 49.8624 59.126 49.1904 59.2966C48.529 59.4566 47.713 59.5366 46.7424 59.5366H45.6544C45.5477 59.5366 45.4944 59.1953 45.4944 58.5126C45.4944 58.0646 45.5104 57.7713 45.5424 57.6326C45.5744 57.4833 45.6117 57.4086 45.6544 57.4086H46.8384ZM48.7904 50.9926V49.1686H50.9664V50.9926H48.7904ZM58.9905 56.4486C58.9905 56.7793 59.0758 57.0246 59.2465 57.1846C59.4172 57.334 59.6785 57.4086 60.0305 57.4086H60.3185C60.4252 57.4086 60.4785 57.7766 60.4785 58.5126C60.4785 59.1953 60.4252 59.5366 60.3185 59.5366H60.0625C59.8385 59.5366 59.6305 59.51 59.4385 59.4566C59.2465 59.3926 59.0972 59.3073 58.9905 59.2006C58.9478 60.0113 58.7505 60.726 58.3985 61.3446C58.0465 61.974 57.5505 62.4646 56.9105 62.8166C56.2705 63.1793 55.5238 63.3606 54.6705 63.3606H53.3265L53.1505 61.2326H54.6385C55.3745 61.2326 55.9452 61.03 56.3505 60.6246C56.7558 60.23 56.9585 59.67 56.9585 58.9446V54.0326H58.9905V56.4486ZM61.6584 57.4086C62.4584 57.4086 63.125 57.3553 63.6584 57.2486C64.1917 57.142 64.741 56.9286 65.3064 56.6086L66.7944 55.7606C66.6877 55.366 66.5277 55.094 66.3144 54.9446C66.1117 54.7953 65.8024 54.7206 65.3864 54.7206H61.7224L61.9624 52.6086H65.7704C66.4424 52.6086 66.9864 52.726 67.4024 52.9606C67.8184 53.1846 68.165 53.5686 68.4424 54.1126C68.7304 54.6566 68.9864 55.43 69.2104 56.4326L66.0904 58.3686C65.3757 58.8166 64.6824 59.126 64.0104 59.2966C63.349 59.4566 62.533 59.5366 61.5624 59.5366H60.4744C60.3677 59.5366 60.3144 59.1953 60.3144 58.5126C60.3144 58.0646 60.3304 57.7713 60.3624 57.6326C60.3944 57.4833 60.4317 57.4086 60.4744 57.4086H61.6584ZM63.2424 65.5366V63.7926H65.0664V65.5366H63.2424ZM64.0744 63.0246V61.2006H66.4104V63.0246H64.0744ZM61.8984 63.0246V61.2006H64.2344V63.0246H61.8984ZM82.9654 57.4086C83.232 57.4086 83.4454 57.3393 83.6054 57.2006C83.776 57.0513 83.8614 56.854 83.8614 56.6086V54.0326H85.8934V56.5286C85.8934 56.8166 85.968 57.0353 86.1174 57.1846C86.2667 57.334 86.4907 57.4086 86.7894 57.4086H87.3974C87.504 57.4086 87.5574 57.7766 87.5574 58.5126C87.5574 59.1953 87.504 59.5366 87.3974 59.5366H86.6934C86.256 59.5366 85.8827 59.478 85.5734 59.3606C85.264 59.2326 85.0294 59.0353 84.8694 58.7686C84.6774 59.0353 84.4214 59.2326 84.1014 59.3606C83.792 59.478 83.4134 59.5366 82.9654 59.5366H77.7174C76.7467 59.5366 76.0054 59.286 75.4934 58.7846C74.992 58.2726 74.7414 57.542 74.7414 56.5926V54.0326H76.7734V56.3206C76.7734 56.6833 76.8534 56.9553 77.0134 57.1366C77.184 57.318 77.4507 57.4086 77.8134 57.4086H82.9654ZM80.2454 52.9286V51.1046H82.5814V52.9286H80.2454ZM78.0694 52.9286V51.1046H80.4054V52.9286H78.0694ZM89.9638 57.4086C90.0704 57.4086 90.1238 57.7766 90.1238 58.5126C90.1238 58.95 90.1078 59.2326 90.0758 59.3606C90.0438 59.478 90.0064 59.5366 89.9638 59.5366H87.5638C87.4571 59.5366 87.4038 59.1953 87.4038 58.5126C87.4038 58.054 87.4198 57.7553 87.4518 57.6166C87.4838 57.478 87.5211 57.4086 87.5638 57.4086H89.9638ZM94.034 57.4086C94.29 57.4086 94.498 57.3393 94.658 57.2006C94.8287 57.0513 94.914 56.8486 94.914 56.5926V54.0326H96.946V56.6886C96.946 57.574 96.6847 58.2726 96.162 58.7846C95.6393 59.286 94.9247 59.5366 94.018 59.5366H90.13C90.0233 59.5366 89.97 59.1953 89.97 58.5126C89.97 58.0646 89.986 57.7713 90.018 57.6326C90.05 57.4833 90.0873 57.4086 90.13 57.4086H94.034ZM92.466 63.0246V61.2006H94.802V63.0246H92.466ZM90.29 63.0246V61.2006H92.626V63.0246H90.29ZM97.661 61.2326C98.397 61.2326 98.9677 61.03 99.373 60.6246C99.7783 60.23 99.981 59.67 99.981 58.9446V54.0326H102.013V56.4486C102.013 56.7793 102.098 57.0246 102.269 57.1846C102.44 57.334 102.701 57.4086 103.053 57.4086H103.341C103.448 57.4086 103.501 57.7766 103.501 58.5126C103.501 59.1953 103.448 59.5366 103.341 59.5366H103.085C102.861 59.5366 102.653 59.51 102.461 59.4566C102.269 59.3926 102.12 59.3073 102.013 59.2006C101.97 60.0113 101.773 60.726 101.421 61.3446C101.069 61.974 100.573 62.4646 99.933 62.8166C99.293 63.1793 98.5463 63.3606 97.693 63.3606H97.181L97.005 61.2326H97.661ZM107.401 57.4086C107.657 57.4086 107.865 57.3393 108.025 57.2006C108.196 57.0513 108.281 56.8486 108.281 56.5926V54.0326H110.313V56.6886C110.313 57.574 110.052 58.2726 109.529 58.7846C109.006 59.286 108.292 59.5366 107.385 59.5366H103.497C103.39 59.5366 103.337 59.1953 103.337 58.5126C103.337 58.0646 103.353 57.7713 103.385 57.6326C103.417 57.4833 103.454 57.4086 103.497 57.4086H107.401ZM105.833 63.0246V61.2006H108.169V63.0246H105.833ZM103.657 63.0246V61.2006H105.993V63.0246H103.657ZM115.916 57.4086C116.182 57.4086 116.396 57.3553 116.556 57.2486C116.716 57.1313 116.796 56.982 116.796 56.8006C116.796 56.6513 116.726 56.39 116.588 56.0166C116.46 55.6326 116.118 54.7046 115.564 53.2326C115.361 52.6993 115.217 52.3153 115.132 52.0806L117.02 51.1846L118.876 56.3686C119.014 56.7526 119.164 57.0246 119.324 57.1846C119.484 57.334 119.702 57.4086 119.98 57.4086H120.396C120.502 57.4086 120.556 57.7766 120.556 58.5126C120.556 58.95 120.54 59.2326 120.508 59.3606C120.476 59.478 120.438 59.5366 120.396 59.5366H119.884C119.414 59.5366 119.014 59.4726 118.684 59.3446C118.364 59.206 118.108 58.9873 117.916 58.6886C117.724 58.9873 117.468 59.206 117.148 59.3446C116.838 59.4726 116.449 59.5366 115.98 59.5366H112.332L112.172 57.4086H115.916ZM122.967 57.4086C123.074 57.4086 123.127 57.7766 123.127 58.5126C123.127 58.95 123.111 59.2326 123.079 59.3606C123.047 59.478 123.01 59.5366 122.967 59.5366H120.567C120.46 59.5366 120.407 59.1953 120.407 58.5126C120.407 58.054 120.423 57.7553 120.455 57.6166C120.487 57.478 120.524 57.4086 120.567 57.4086H122.967ZM125.533 57.4086C125.64 57.4086 125.693 57.7766 125.693 58.5126C125.693 58.95 125.677 59.2326 125.645 59.3606C125.613 59.478 125.576 59.5366 125.533 59.5366H123.133C123.026 59.5366 122.973 59.1953 122.973 58.5126C122.973 58.054 122.989 57.7553 123.021 57.6166C123.053 57.478 123.09 57.4086 123.133 57.4086H125.533ZM128.099 57.4086C128.206 57.4086 128.259 57.7766 128.259 58.5126C128.259 58.95 128.243 59.2326 128.211 59.3606C128.179 59.478 128.142 59.5366 128.099 59.5366H125.699C125.593 59.5366 125.539 59.1953 125.539 58.5126C125.539 58.054 125.555 57.7553 125.587 57.6166C125.619 57.478 125.657 57.4086 125.699 57.4086H128.099ZM128.682 57.4086C128.98 57.4086 129.188 57.35 129.306 57.2326C129.434 57.1153 129.498 56.9233 129.498 56.6566V56.2086C129.498 55.174 129.796 54.358 130.394 53.7606C130.991 53.1526 131.791 52.8486 132.794 52.8486C133.807 52.8486 134.58 53.142 135.114 53.7286C135.658 54.3046 135.93 55.1366 135.93 56.2246C135.93 57.27 135.647 58.086 135.082 58.6726C134.516 59.2486 133.727 59.5366 132.714 59.5366C132.18 59.5366 131.738 59.4673 131.386 59.3286C131.034 59.19 130.772 59.0033 130.602 58.7686C130.399 59.0353 130.143 59.2326 129.834 59.3606C129.535 59.478 129.151 59.5366 128.682 59.5366H128.266C128.159 59.5366 128.106 59.1953 128.106 58.5126C128.106 58.0646 128.122 57.7713 128.154 57.6326C128.186 57.4833 128.223 57.4086 128.266 57.4086H128.682ZM133.914 56.2246C133.914 55.7766 133.812 55.4406 133.61 55.2166C133.418 54.9926 133.119 54.8806 132.714 54.8806C132.308 54.8806 132.004 54.9926 131.802 55.2166C131.61 55.4406 131.514 55.7766 131.514 56.2246C131.514 56.598 131.615 56.8913 131.818 57.1046C132.02 57.318 132.319 57.4246 132.714 57.4246C133.119 57.4246 133.418 57.3286 133.61 57.1366C133.812 56.934 133.914 56.63 133.914 56.2246Z" fill="white" fill-opacity="0.8"/>
</svg>
