<?xml version="1.0" encoding="UTF-8" standalone="no" ?>
<!DOCTYPE svg PUBLIC "-//W3C//DTD SVG 1.1//EN" "http://www.w3.org/Graphics/SVG/1.1/DTD/svg11.dtd">
<svg xmlns="http://www.w3.org/2000/svg" xmlns:xlink="http://www.w3.org/1999/xlink" version="1.1" width="1080" height="1080" viewBox="0 0 1080 1080" xml:space="preserve">
<desc>Created with Fabric.js 5.2.4</desc>
<defs>
</defs>
<rect x="0" y="0" width="100%" height="100%" fill="transparent"></rect>
<g transform="matrix(1 0 0 1 540 540)" id="6ce07191-88e8-41d8-a37b-9bef98444f38"  >
<rect style="stroke: none; stroke-width: 1; stroke-dasharray: none; stroke-linecap: butt; stroke-dashoffset: 0; stroke-linejoin: miter; stroke-miterlimit: 4; fill: rgb(255,255,255); fill-rule: nonzero; opacity: 1; visibility: hidden;" vector-effect="non-scaling-stroke"  x="-540" y="-540" rx="0" ry="0" width="1080" height="1080" />
</g>
<g transform="matrix(1 0 0 1 540 540)" id="9ea38e2c-cbad-4118-a37c-91974d52247e"  >
</g>
<g transform="matrix(1 0 0 1 540 540)"  >
<g style="" vector-effect="non-scaling-stroke"   >
		<g transform="matrix(1 0 0 1 -41.57 19.7)"  >
<path style="stroke: none; stroke-width: 1; stroke-dasharray: none; stroke-linecap: butt; stroke-dashoffset: 0; stroke-linejoin: miter; stroke-miterlimit: 4; fill: rgb(243,243,243); fill-rule: nonzero; opacity: 1;" vector-effect="non-scaling-stroke"  transform=" translate(-181.93, -134.32)" d="M 206.148438 101.363281 C 206.441406 101.363281 206.730469 101.367188 207.03125 101.367188 C 213.398438 101.457031 218.925781 103.785156 223.488281 108.238281 C 230.382812 115.492188 232.832031 125.972656 233.484375 135.679688 C 233.539062 136.484375 233.625 137.285156 233.71875 138.085938 C 234.644531 146.046875 233.03125 150.769531 228.125 157.074219 C 227.960938 157.277344 227.796875 157.484375 227.628906 157.695312 C 225.9375 159.824219 224.449219 162.078125 222.96875 164.359375 C 222.332031 165.339844 221.683594 166.308594 221.035156 167.277344 C 219.566406 167.128906 218.226562 166.84375 216.816406 166.417969 C 216.609375 166.355469 216.402344 166.296875 216.1875 166.234375 C 215.503906 166.03125 214.824219 165.824219 214.140625 165.621094 C 213.660156 165.476562 213.175781 165.335938 212.695312 165.191406 C 211.421875 164.8125 210.148438 164.433594 208.875 164.050781 C 207.359375 163.597656 205.84375 163.148438 204.328125 162.695312 C 203.097656 162.332031 201.867188 161.964844 200.640625 161.597656 C 198.425781 160.9375 196.210938 160.28125 193.988281 159.648438 C 193.800781 159.59375 193.609375 159.539062 193.414062 159.484375 C 192.542969 159.234375 191.667969 158.988281 190.796875 158.746094 C 190.351562 158.617188 190.351562 158.617188 189.894531 158.488281 C 189.640625 158.417969 189.382812 158.34375 189.117188 158.269531 C 188.542969 158.054688 188.542969 158.054688 188.289062 157.542969 C 188.460938 156.988281 188.460938 156.988281 188.746094 156.289062 C 188.855469 156.027344 188.960938 155.765625 189.070312 155.496094 C 189.191406 155.210938 189.308594 154.925781 189.433594 154.628906 C 189.554688 154.335938 189.675781 154.039062 189.796875 153.734375 C 190.125 152.945312 190.449219 152.15625 190.777344 151.363281 C 191.355469 149.96875 191.925781 148.566406 192.503906 147.167969 C 192.625 146.871094 192.746094 146.570312 192.875 146.265625 C 193.851562 143.886719 194.792969 141.5 195.707031 139.101562 C 198.214844 139.53125 200.617188 140.277344 203.050781 141.007812 C 203.507812 141.144531 203.96875 141.28125 204.429688 141.417969 C 205.636719 141.777344 206.84375 142.136719 208.046875 142.496094 C 209.28125 142.867188 210.515625 143.234375 211.746094 143.601562 C 214.160156 144.320312 216.574219 145.039062 218.988281 145.761719 C 218.925781 144.710938 218.859375 143.664062 218.792969 142.617188 C 218.773438 142.261719 218.75 141.90625 218.730469 141.550781 C 218.414062 136.304688 217.464844 131.277344 214.128906 127.058594 C 213.933594 126.789062 213.738281 126.519531 213.535156 126.242188 C 210.980469 123.566406 207.554688 122.171875 203.894531 121.9375 C 199.992188 121.902344 196.53125 122.851562 193.605469 125.53125 C 191.367188 127.910156 190.066406 130.855469 188.886719 133.859375 C 188.757812 134.1875 188.625 134.515625 188.492188 134.84375 C 188.21875 135.53125 187.945312 136.222656 187.671875 136.914062 C 187.246094 137.988281 186.816406 139.0625 186.386719 140.136719 C 185.269531 142.921875 184.160156 145.710938 183.058594 148.503906 C 182.742188 149.304688 182.425781 150.101562 182.101562 150.902344 C 181.902344 151.40625 181.707031 151.914062 181.507812 152.421875 C 179.726562 156.855469 176.632812 159.960938 172.308594 161.953125 C 168.84375 163.414062 164.976562 163.980469 161.238281 164 C 161.03125 164 160.824219 164.003906 160.609375 164.003906 C 160.175781 164.007812 159.738281 164.007812 159.304688 164.011719 C 158.65625 164.011719 158.007812 164.019531 157.359375 164.027344 C 150.5625 164.074219 143.59375 162.730469 138.402344 158.054688 C 138.25 157.925781 138.097656 157.796875 137.9375 157.664062 C 134.253906 154.316406 132.167969 149.078125 131 144.351562 C 130.953125 144.160156 130.902344 143.96875 130.855469 143.773438 C 129.921875 139.589844 129.882812 135.226562 129.902344 130.960938 C 129.902344 130.472656 129.902344 129.984375 129.902344 129.496094 C 129.902344 128.480469 129.902344 127.46875 129.90625 126.457031 C 129.910156 125.167969 129.914062 123.882812 129.914062 122.59375 C 129.914062 121.589844 129.914062 120.585938 129.914062 119.578125 C 129.917969 119.105469 129.917969 118.628906 129.917969 118.15625 C 129.917969 117.492188 129.921875 116.824219 129.921875 116.160156 C 129.921875 115.972656 129.921875 115.78125 129.921875 115.589844 C 129.933594 113.675781 130.089844 111.816406 130.214844 109.898438 C 135.195312 109.898438 140.179688 109.898438 145.308594 109.898438 C 145.316406 111.613281 145.324219 113.332031 145.328125 115.101562 C 145.335938 116.195312 145.34375 117.289062 145.351562 118.382812 C 145.363281 120.117188 145.375 121.851562 145.378906 123.582031 C 145.382812 124.984375 145.390625 126.382812 145.402344 127.78125 C 145.40625 128.3125 145.410156 128.84375 145.410156 129.375 C 145.414062 133.570312 145.636719 137.140625 148.636719 140.378906 C 151.824219 143.296875 155.148438 143.621094 159.28125 143.574219 C 160.019531 143.566406 160.753906 143.570312 161.488281 143.574219 C 164.941406 143.570312 168.363281 143.457031 171.148438 141.148438 C 173.488281 138.5625 174.785156 135.238281 176.039062 132.027344 C 176.15625 131.730469 176.273438 131.433594 176.394531 131.125 C 176.894531 129.867188 177.386719 128.605469 177.882812 127.347656 C 181.644531 117.785156 181.644531 117.785156 183.683594 114.652344 C 183.792969 114.484375 183.898438 114.316406 184.007812 114.140625 C 184.921875 112.734375 185.914062 111.421875 187.007812 110.152344 C 187.183594 109.945312 187.355469 109.734375 187.53125 109.519531 C 192.222656 104 198.988281 101.324219 206.148438 101.363281 Z M 206.148438 101.363281" stroke-linecap="round" />
</g>
		<g transform="matrix(1 0 0 1 127.27 28.19)"  >
<path style="stroke: none; stroke-width: 1; stroke-dasharray: none; stroke-linecap: butt; stroke-dashoffset: 0; stroke-linejoin: miter; stroke-miterlimit: 4; fill: rgb(243,243,243); fill-rule: nonzero; opacity: 1;" vector-effect="non-scaling-stroke"  transform=" translate(-350.78, -142.81)" d="M 298.175781 111.316406 C 300.890625 113.300781 302.015625 115.796875 302.808594 118.980469 C 305.519531 129.851562 312.308594 140.125 321.574219 146.527344 C 321.738281 146.644531 321.90625 146.757812 322.074219 146.875 C 324.617188 148.617188 327.222656 150.101562 330.015625 151.394531 C 330.304688 151.53125 330.59375 151.667969 330.890625 151.808594 C 340.285156 156.066406 351.71875 157.140625 361.738281 154.726562 C 361.96875 154.671875 362.199219 154.617188 362.433594 154.558594 C 374.910156 151.464844 386.050781 143.753906 392.875 132.765625 C 395.527344 128.34375 397.566406 123.730469 398.851562 118.734375 C 399.355469 116.792969 399.847656 115.066406 401.136719 113.484375 C 401.265625 113.320312 401.390625 113.15625 401.523438 112.988281 C 403.164062 111.132812 405.585938 110.011719 408.039062 109.84375 C 411.265625 109.796875 413.636719 110.503906 416.027344 112.722656 C 418.074219 114.871094 418.921875 117.394531 418.890625 120.332031 C 418.28125 129.285156 413.144531 138.832031 408.042969 146.015625 C 407.9375 146.171875 407.828125 146.324219 407.714844 146.480469 C 407.078125 147.371094 406.417969 148.234375 405.742188 149.089844 C 405.5625 149.320312 405.382812 149.546875 405.199219 149.785156 C 402.371094 153.316406 399.238281 156.71875 395.703125 159.542969 C 395.246094 159.90625 394.796875 160.277344 394.355469 160.652344 C 383.53125 169.867188 368.371094 175.71875 354.148438 175.785156 C 353.894531 175.785156 353.640625 175.785156 353.378906 175.789062 C 352.839844 175.789062 352.300781 175.792969 351.761719 175.792969 C 350.960938 175.796875 350.160156 175.804688 349.355469 175.8125 C 344.589844 175.835938 339.925781 175.34375 335.277344 174.273438 C 334.992188 174.210938 334.703125 174.144531 334.410156 174.078125 C 320.367188 170.753906 307.089844 162.761719 297.78125 151.652344 C 297.675781 151.527344 297.570312 151.402344 297.460938 151.273438 C 290.609375 143.109375 282.203125 130.03125 282.6875 118.863281 C 283.058594 116.050781 284.242188 113.628906 286.453125 111.828125 C 290.011719 109.433594 294.441406 109.039062 298.175781 111.316406 Z M 298.175781 111.316406" stroke-linecap="round" />
</g>
		<g transform="matrix(1 0 0 1 127.3 -45.32)"  >
<path style="stroke: none; stroke-width: 1; stroke-dasharray: none; stroke-linecap: butt; stroke-dashoffset: 0; stroke-linejoin: miter; stroke-miterlimit: 4; fill: rgb(243,243,243); fill-rule: nonzero; opacity: 1;" vector-effect="non-scaling-stroke"  transform=" translate(-350.8, -69.29)" d="M 395.667969 52.625 C 396.332031 53.222656 396.988281 53.828125 397.640625 54.441406 C 398.191406 54.957031 398.753906 55.441406 399.332031 55.925781 C 402.054688 58.300781 404.355469 61.15625 406.507812 64.042969 C 406.621094 64.1875 406.730469 64.335938 406.84375 64.488281 C 412.292969 71.8125 416.332031 80.203125 418.402344 89.105469 C 418.488281 89.46875 418.578125 89.835938 418.675781 90.199219 C 419.226562 92.539062 418.828125 95.09375 417.691406 97.183594 C 416.179688 99.585938 414.390625 101.1875 411.679688 102.113281 C 408.742188 102.628906 405.816406 102.359375 403.273438 100.761719 C 400.597656 98.804688 399.441406 96.277344 398.722656 93.117188 C 397.992188 90.195312 397.070312 87.503906 395.765625 84.792969 C 395.667969 84.589844 395.574219 84.390625 395.472656 84.183594 C 391.210938 75.382812 384.332031 67.832031 375.808594 63.019531 C 375.640625 62.917969 375.472656 62.820312 375.296875 62.722656 C 370.203125 59.789062 364.699219 57.917969 358.925781 56.871094 C 358.746094 56.835938 358.566406 56.804688 358.382812 56.769531 C 346.097656 54.597656 332.664062 57.925781 322.5 65.042969 C 320.089844 66.765625 317.855469 68.6875 315.691406 70.703125 C 315.433594 70.9375 315.433594 70.9375 315.175781 71.175781 C 308.894531 77.183594 304.824219 85.378906 302.648438 93.699219 C 301.761719 97.066406 300.390625 99.484375 297.371094 101.34375 C 294.914062 102.554688 292.117188 102.625 289.476562 102.003906 C 286.761719 100.996094 284.753906 99.101562 283.488281 96.511719 C 281.230469 90.972656 284.246094 84.238281 286.398438 79.109375 C 286.609375 78.613281 286.824219 78.117188 287.039062 77.621094 C 287.128906 77.410156 287.21875 77.199219 287.3125 76.984375 C 290.238281 70.296875 294.453125 64.15625 299.445312 58.847656 C 299.898438 58.355469 300.328125 57.863281 300.75 57.34375 C 301.238281 56.761719 301.695312 56.28125 302.277344 55.796875 C 302.882812 55.28125 303.46875 54.761719 304.046875 54.214844 C 307.851562 50.585938 312.144531 47.660156 316.714844 45.085938 C 316.90625 44.976562 317.097656 44.863281 317.296875 44.75 C 324.035156 40.890625 331.574219 38.394531 339.226562 37.144531 C 339.460938 37.105469 339.699219 37.066406 339.941406 37.027344 C 359.511719 33.972656 380.703125 39.429688 395.667969 52.625 Z M 395.667969 52.625" stroke-linecap="round" />
</g>
		<g transform="matrix(1 0 0 1 32.32 -8.44)"  >
<path style="stroke: none; stroke-width: 1; stroke-dasharray: none; stroke-linecap: butt; stroke-dashoffset: 0; stroke-linejoin: miter; stroke-miterlimit: 4; fill: rgb(243,243,243); fill-rule: nonzero; opacity: 1;" vector-effect="non-scaling-stroke"  transform=" translate(-255.83, -106.18)" d="M 246.105469 48.160156 C 252.523438 48.160156 258.9375 48.160156 265.546875 48.160156 C 265.546875 86.453125 265.546875 124.75 265.546875 164.203125 C 259.132812 164.203125 252.714844 164.203125 246.105469 164.203125 C 246.105469 125.910156 246.105469 87.613281 246.105469 48.160156 Z M 246.105469 48.160156" stroke-linecap="round" />
</g>
		<g transform="matrix(1 0 0 1 -129.24 11.45)"  >
<path style="stroke: none; stroke-width: 1; stroke-dasharray: none; stroke-linecap: butt; stroke-dashoffset: 0; stroke-linejoin: miter; stroke-miterlimit: 4; fill: rgb(243,243,243); fill-rule: nonzero; opacity: 1;" vector-effect="non-scaling-stroke"  transform=" translate(-94.27, -126.07)" d="M 79.304688 88.121094 C 81.378906 93.882812 83.421875 99.65625 85.414062 105.445312 C 87.535156 111.597656 89.683594 117.738281 91.871094 123.867188 C 92.082031 124.453125 92.289062 125.039062 92.496094 125.621094 C 95.800781 135.679688 95.800781 135.679688 103.1875 142.691406 C 105.246094 143.449219 107.097656 143.527344 109.277344 143.515625 C 109.597656 143.515625 109.917969 143.511719 110.25 143.511719 C 110.925781 143.511719 111.601562 143.511719 112.28125 143.507812 C 113.140625 143.503906 114.003906 143.503906 114.863281 143.503906 C 115.691406 143.503906 116.523438 143.5 117.351562 143.496094 C 117.65625 143.496094 117.964844 143.496094 118.28125 143.496094 C 119.890625 143.488281 121.453125 143.410156 123.054688 143.199219 C 123.535156 145.148438 124.011719 147.101562 124.488281 149.050781 C 124.648438 149.714844 124.8125 150.378906 124.976562 151.042969 C 125.210938 151.996094 125.445312 152.953125 125.675781 153.90625 C 125.75 154.203125 125.824219 154.5 125.902344 154.804688 C 125.96875 155.082031 126.035156 155.359375 126.101562 155.644531 C 126.160156 155.890625 126.222656 156.132812 126.28125 156.382812 C 126.382812 157.050781 126.367188 157.429688 126.121094 158.054688 C 122.621094 161.78125 117.355469 163.785156 112.316406 163.988281 C 111.949219 163.996094 111.578125 164 111.210938 164 C 111.011719 164.003906 110.8125 164.003906 110.605469 164.003906 C 109.964844 164.011719 109.320312 164.011719 108.679688 164.011719 C 108.460938 164.011719 108.242188 164.011719 108.015625 164.011719 C 100.253906 164.003906 93.136719 162.691406 87.316406 157.144531 C 83.550781 153.179688 80.972656 148.183594 79.121094 143.078125 C 79.011719 142.777344 78.902344 142.476562 78.789062 142.167969 C 77.722656 139.25 76.691406 136.320312 75.667969 133.386719 C 75.34375 132.453125 75.019531 131.519531 74.691406 130.585938 C 74.351562 129.609375 74.007812 128.628906 73.667969 127.652344 C 72.507812 124.332031 71.34375 121.011719 70.175781 117.695312 C 70.078125 117.410156 69.976562 117.128906 69.875 116.839844 C 68.386719 112.601562 66.894531 108.367188 65.394531 104.132812 C 65.261719 103.75 65.261719 103.75 65.121094 103.359375 C 64.949219 102.867188 64.773438 102.375 64.597656 101.882812 C 64.4375 101.421875 64.273438 100.960938 64.113281 100.5 C 63.761719 99.503906 63.40625 98.511719 63.03125 97.523438 C 62.96875 97.355469 62.90625 97.191406 62.84375 97.019531 C 62.683594 96.589844 62.515625 96.160156 62.351562 95.730469 C 62.148438 94.976562 62.101562 94.714844 62.421875 94.015625 C 63.070312 93.667969 63.070312 93.667969 63.945312 93.355469 C 64.105469 93.300781 64.261719 93.242188 64.425781 93.183594 C 64.953125 92.992188 65.480469 92.808594 66.011719 92.625 C 66.375 92.496094 66.742188 92.363281 67.105469 92.234375 C 68.070312 91.890625 69.035156 91.550781 70 91.210938 C 70.789062 90.933594 71.574219 90.65625 72.363281 90.375 C 73.296875 90.039062 74.234375 89.707031 75.171875 89.375 C 75.351562 89.3125 75.53125 89.246094 75.714844 89.183594 C 76.222656 89.003906 76.730469 88.824219 77.238281 88.648438 C 77.527344 88.546875 77.816406 88.445312 78.113281 88.339844 C 78.792969 88.121094 78.792969 88.121094 79.304688 88.121094 Z M 79.304688 88.121094" stroke-linecap="round" />
</g>
		<g transform="matrix(1 0 0 1 -171.85 33.64)"  >
<path style="stroke: none; stroke-width: 1; stroke-dasharray: none; stroke-linecap: butt; stroke-dashoffset: 0; stroke-linejoin: miter; stroke-miterlimit: 4; fill: rgb(243,243,243); fill-rule: nonzero; opacity: 1;" vector-effect="non-scaling-stroke"  transform=" translate(-51.65, -148.26)" d="M 28.140625 132.441406 C 33.289062 132.441406 38.441406 132.441406 43.746094 132.441406 C 43.746094 136.160156 43.746094 139.878906 43.746094 143.710938 C 56.917969 143.585938 56.917969 143.585938 70.351562 143.453125 C 71.617188 147.089844 72.886719 150.726562 74.191406 154.46875 C 74.695312 155.863281 74.695312 155.863281 75.214844 157.289062 C 74.699219 158.320312 74.257812 158.8125 73.421875 159.59375 C 73.300781 159.714844 73.175781 159.835938 73.046875 159.960938 C 69.898438 162.90625 65.210938 163.960938 61.019531 163.992188 C 60.746094 163.996094 60.746094 163.996094 60.464844 164 C 59.867188 164.003906 59.265625 164.007812 58.667969 164.007812 C 58.355469 164.011719 58.355469 164.011719 58.039062 164.011719 C 56.941406 164.019531 55.84375 164.023438 54.746094 164.023438 C 53.625 164.027344 52.503906 164.035156 51.382812 164.046875 C 50.507812 164.050781 49.632812 164.054688 48.761719 164.054688 C 48.347656 164.058594 47.9375 164.058594 47.523438 164.066406 C 43.875 164.105469 39.972656 163.769531 36.710938 161.980469 C 36.542969 161.890625 36.378906 161.800781 36.207031 161.710938 C 32.371094 159.597656 30.191406 156.214844 28.902344 152.128906 C 28.261719 149.582031 28.070312 147.199219 28.089844 144.574219 C 28.089844 144.261719 28.09375 143.953125 28.09375 143.636719 C 28.09375 142.492188 28.101562 141.347656 28.109375 140.203125 C 28.121094 137.640625 28.128906 135.078125 28.140625 132.441406 Z M 28.140625 132.441406" stroke-linecap="round" />
</g>
		<g transform="matrix(1 0 0 1 120.72 -26.7)"  >
<path style="stroke: none; stroke-width: 1; stroke-dasharray: none; stroke-linecap: butt; stroke-dashoffset: 0; stroke-linejoin: miter; stroke-miterlimit: 4; fill: rgb(243,243,243); fill-rule: nonzero; opacity: 1;" vector-effect="non-scaling-stroke"  transform=" translate(-344.22, -87.92)" d="M 338.714844 75.058594 C 339.421875 75.597656 340.035156 76.207031 340.65625 76.84375 C 340.921875 77.109375 340.921875 77.109375 341.195312 77.378906 C 341.78125 77.964844 342.363281 78.550781 342.941406 79.136719 C 343.351562 79.546875 343.757812 79.957031 344.164062 80.363281 C 345.019531 81.21875 345.867188 82.074219 346.714844 82.929688 C 347.804688 84.027344 348.894531 85.121094 349.984375 86.214844 C 350.828125 87.054688 351.667969 87.898438 352.507812 88.746094 C 352.90625 89.148438 353.308594 89.550781 353.710938 89.953125 C 354.273438 90.519531 354.835938 91.082031 355.394531 91.652344 C 355.558594 91.816406 355.726562 91.980469 355.894531 92.152344 C 357.234375 93.515625 358.011719 94.703125 358.03125 96.671875 C 357.992188 98.234375 357.699219 99.273438 356.625 100.417969 C 355.441406 101.359375 354.464844 101.726562 352.976562 101.777344 C 352.707031 101.792969 352.707031 101.792969 352.429688 101.808594 C 350.492188 101.492188 349.136719 100.246094 347.804688 98.890625 C 347.625 98.710938 347.449219 98.535156 347.261719 98.351562 C 346.675781 97.769531 346.09375 97.179688 345.511719 96.59375 C 345.105469 96.183594 344.699219 95.777344 344.289062 95.367188 C 343.4375 94.515625 342.585938 93.660156 341.734375 92.800781 C 340.644531 91.703125 339.550781 90.609375 338.457031 89.519531 C 337.617188 88.675781 336.773438 87.832031 335.933594 86.988281 C 335.53125 86.582031 335.128906 86.179688 334.726562 85.777344 C 334.164062 85.214844 333.601562 84.648438 333.042969 84.082031 C 332.875 83.917969 332.710938 83.75 332.539062 83.582031 C 331.242188 82.261719 330.417969 81.089844 330.417969 79.171875 C 330.460938 77.554688 330.773438 76.644531 331.90625 75.453125 C 334.039062 73.507812 336.355469 73.742188 338.714844 75.058594 Z M 338.714844 75.058594" stroke-linecap="round" />
</g>
		<g transform="matrix(1 0 0 1 150.99 -24.05)"  >
<path style="stroke: none; stroke-width: 1; stroke-dasharray: none; stroke-linecap: butt; stroke-dashoffset: 0; stroke-linejoin: miter; stroke-miterlimit: 4; fill: rgb(243,243,243); fill-rule: nonzero; opacity: 1;" vector-effect="non-scaling-stroke"  transform=" translate(-374.49, -90.56)" d="M 365.640625 76.753906 C 365.984375 76.742188 365.984375 76.742188 366.332031 76.734375 C 368.320312 77.035156 369.679688 78.246094 371.046875 79.636719 C 371.222656 79.8125 371.398438 79.988281 371.582031 80.167969 C 372.15625 80.742188 372.730469 81.320312 373.304688 81.898438 C 373.707031 82.304688 374.109375 82.707031 374.511719 83.109375 C 375.355469 83.949219 376.191406 84.792969 377.03125 85.640625 C 378.105469 86.722656 379.183594 87.800781 380.261719 88.875 C 381.089844 89.707031 381.921875 90.539062 382.75 91.371094 C 383.144531 91.769531 383.542969 92.167969 383.941406 92.5625 C 384.496094 93.121094 385.046875 93.675781 385.601562 94.234375 C 385.765625 94.398438 385.929688 94.5625 386.097656 94.730469 C 387.507812 96.164062 388.222656 97.492188 388.359375 99.515625 C 388.332031 100.835938 388 101.757812 387.097656 102.726562 C 385.859375 103.851562 385.003906 104.300781 383.308594 104.355469 C 383.054688 104.371094 382.800781 104.382812 382.539062 104.394531 C 380.566406 104.082031 379.121094 102.566406 377.761719 101.199219 C 377.582031 101.023438 377.40625 100.847656 377.226562 100.667969 C 376.648438 100.097656 376.074219 99.523438 375.5 98.949219 C 375.097656 98.546875 374.695312 98.144531 374.292969 97.746094 C 373.453125 96.90625 372.613281 96.066406 371.773438 95.226562 C 370.703125 94.148438 369.625 93.078125 368.546875 92.007812 C 367.714844 91.183594 366.886719 90.351562 366.058594 89.523438 C 365.660156 89.128906 365.265625 88.730469 364.867188 88.335938 C 364.308594 87.785156 363.757812 87.230469 363.207031 86.675781 C 362.960938 86.433594 362.960938 86.433594 362.710938 86.1875 C 361.4375 84.890625 360.816406 83.6875 360.621094 81.847656 C 360.789062 80.257812 361.144531 79.113281 362.363281 78.035156 C 363.425781 77.183594 364.265625 76.773438 365.640625 76.753906 Z M 365.640625 76.753906" stroke-linecap="round" />
</g>
		<g transform="matrix(1 0 0 1 115.95 -3.93)"  >
<path style="stroke: none; stroke-width: 1; stroke-dasharray: none; stroke-linecap: butt; stroke-dashoffset: 0; stroke-linejoin: miter; stroke-miterlimit: 4; fill: rgb(243,243,243); fill-rule: nonzero; opacity: 1;" vector-effect="non-scaling-stroke"  transform=" translate(-339.45, -110.69)" d="M 331.519531 97.136719 C 331.730469 97.148438 331.941406 97.164062 332.15625 97.179688 C 333.8125 97.585938 335 98.925781 336.171875 100.089844 C 336.347656 100.261719 336.519531 100.433594 336.699219 100.609375 C 337.269531 101.171875 337.839844 101.738281 338.40625 102.300781 C 338.699219 102.59375 338.699219 102.59375 338.996094 102.886719 C 340.03125 103.914062 341.0625 104.9375 342.089844 105.96875 C 343.152344 107.023438 344.21875 108.078125 345.285156 109.128906 C 346.109375 109.941406 346.925781 110.757812 347.746094 111.574219 C 348.136719 111.964844 348.527344 112.355469 348.921875 112.742188 C 349.476562 113.28125 350.023438 113.832031 350.566406 114.378906 C 350.8125 114.617188 350.8125 114.617188 351.058594 114.855469 C 352.214844 116.035156 352.78125 117.226562 353.042969 118.863281 C 352.988281 120.609375 352.472656 121.804688 351.246094 123.054688 C 350.066406 124.03125 348.949219 124.316406 347.429688 124.257812 C 344.320312 123.746094 342.117188 120.839844 340.003906 118.710938 C 339.636719 118.34375 339.269531 117.976562 338.902344 117.609375 C 338.136719 116.839844 337.375 116.074219 336.609375 115.304688 C 335.632812 114.320312 334.652344 113.339844 333.671875 112.359375 C 332.914062 111.601562 332.160156 110.84375 331.402344 110.082031 C 331.042969 109.71875 330.683594 109.359375 330.320312 108.996094 C 329.816406 108.492188 329.3125 107.984375 328.808594 107.476562 C 328.660156 107.328125 328.511719 107.179688 328.359375 107.027344 C 326.921875 105.570312 325.996094 104.351562 325.859375 102.257812 C 325.882812 100.625 326.585938 99.273438 327.714844 98.113281 C 329.003906 97.359375 330.035156 97.011719 331.519531 97.136719 Z M 331.519531 97.136719" stroke-linecap="round" />
</g>
		<g transform="matrix(1 0 0 1 -74.48 68.79)"  >
<path style="stroke: none; stroke-width: 1; stroke-dasharray: none; stroke-linecap: butt; stroke-dashoffset: 0; stroke-linejoin: miter; stroke-miterlimit: 4; fill: rgb(243,243,243); fill-rule: nonzero; opacity: 1;" vector-effect="non-scaling-stroke"  transform=" translate(-149.02, -183.41)" d="M 149.035156 173.828125 C 149.441406 173.824219 149.441406 173.824219 149.855469 173.820312 C 152.722656 173.84375 154.707031 174.375 156.789062 176.402344 C 158.96875 178.847656 159.042969 182.078125 158.867188 185.210938 C 158.621094 187.46875 157.835938 189.835938 156.054688 191.359375 C 153.703125 192.773438 151.835938 192.953125 149.132812 192.976562 C 148.679688 192.988281 148.679688 192.988281 148.21875 192.996094 C 145.933594 193.015625 143.777344 192.699219 141.886719 191.308594 C 139.644531 188.902344 139.078125 185.917969 139.113281 182.714844 C 139.296875 179.957031 140.007812 177.605469 142.015625 175.667969 C 144.109375 174.046875 146.464844 173.777344 149.035156 173.828125 Z M 149.035156 173.828125" stroke-linecap="round" />
</g>
		<g transform="matrix(1 0 0 1 -97.13 68.83)"  >
<path style="stroke: none; stroke-width: 1; stroke-dasharray: none; stroke-linecap: butt; stroke-dashoffset: 0; stroke-linejoin: miter; stroke-miterlimit: 4; fill: rgb(243,243,243); fill-rule: nonzero; opacity: 1;" vector-effect="non-scaling-stroke"  transform=" translate(-126.37, -183.45)" d="M 126.15625 173.875 C 126.433594 173.871094 126.710938 173.863281 127 173.859375 C 129.714844 173.847656 132.0625 174.285156 134.054688 176.246094 C 136.34375 178.96875 136.367188 182.597656 136.101562 185.980469 C 135.761719 188.113281 134.746094 190.265625 132.984375 191.59375 C 130.84375 192.867188 128.675781 193.054688 126.234375 193.023438 C 125.792969 193.03125 125.792969 193.03125 125.339844 193.035156 C 122.707031 193.023438 120.589844 192.433594 118.640625 190.605469 C 116.210938 187.746094 116.4375 184.136719 116.65625 180.597656 C 117.011719 178.371094 117.988281 176.664062 119.726562 175.21875 C 121.824219 173.980469 123.769531 173.886719 126.15625 173.875 Z M 126.15625 173.875" stroke-linecap="round" />
</g>
		<g transform="matrix(1 0 0 1 -107.1 -31.52)"  >
<path style="stroke: none; stroke-width: 1; stroke-dasharray: none; stroke-linecap: butt; stroke-dashoffset: 0; stroke-linejoin: miter; stroke-miterlimit: 4; fill: rgb(243,243,243); fill-rule: nonzero; opacity: 1;" vector-effect="non-scaling-stroke"  transform=" translate(-116.4, -83.1)" d="M 102.074219 77.105469 C 102.308594 77.699219 102.488281 78.257812 102.652344 78.867188 C 102.703125 79.046875 102.753906 79.222656 102.804688 79.402344 C 102.964844 79.964844 103.121094 80.527344 103.273438 81.09375 C 103.382812 81.476562 103.488281 81.855469 103.597656 82.238281 C 103.859375 83.171875 104.121094 84.109375 104.378906 85.046875 C 105.054688 85.046875 105.726562 85.046875 106.425781 85.046875 C 106.851562 84.054688 107.117188 83.078125 107.351562 82.023438 C 107.417969 81.726562 107.484375 81.425781 107.554688 81.121094 C 107.601562 80.894531 107.652344 80.667969 107.703125 80.4375 C 109.222656 80.691406 109.222656 80.691406 110.773438 80.949219 C 110.6875 82.300781 110.605469 83.65625 110.515625 85.046875 C 111.363281 85.046875 112.207031 85.046875 113.074219 85.046875 C 113.136719 84.714844 113.136719 84.714844 113.199219 84.375 C 113.804688 81.371094 113.804688 81.371094 115.121094 80.179688 C 116.058594 79.5625 116.929688 79.582031 118.03125 79.574219 C 118.363281 79.566406 118.691406 79.558594 119.03125 79.550781 C 120.335938 79.710938 121.066406 80.234375 121.980469 81.160156 C 122.394531 81.914062 122.480469 82.597656 122.589844 83.445312 C 122.628906 83.746094 122.671875 84.046875 122.710938 84.355469 C 122.753906 84.699219 122.753906 84.699219 122.796875 85.046875 C 123.558594 85.046875 124.316406 85.046875 125.097656 85.046875 C 125.183594 83.527344 125.269531 82.003906 125.355469 80.4375 C 126.367188 80.4375 127.382812 80.4375 128.425781 80.4375 C 128.507812 81.875 128.59375 83.3125 128.679688 84.792969 C 129.101562 84.875 129.523438 84.960938 129.960938 85.046875 C 130.027344 84.738281 130.097656 84.425781 130.167969 84.105469 C 130.257812 83.699219 130.347656 83.292969 130.441406 82.886719 C 130.484375 82.679688 130.527344 82.476562 130.574219 82.265625 C 130.695312 81.738281 130.835938 81.214844 130.984375 80.691406 C 131.703125 80.332031 132.152344 80.523438 132.933594 80.675781 C 133.613281 80.8125 133.613281 80.8125 134.308594 80.949219 C 134.226562 82.300781 134.140625 83.65625 134.054688 85.046875 C 134.8125 85.175781 134.8125 85.175781 135.589844 85.304688 C 135.589844 83.527344 135.589844 81.753906 135.589844 79.925781 C 136.6875 79.925781 137.785156 79.925781 138.914062 79.925781 C 138.941406 81.046875 138.960938 82.164062 138.976562 83.285156 C 138.988281 83.605469 138.996094 83.921875 139.003906 84.246094 C 139.035156 87.195312 139.035156 87.195312 137.890625 88.378906 C 136.554688 89.164062 135.3125 89.355469 133.796875 89.148438 C 133.421875 89.019531 133.046875 88.882812 132.679688 88.730469 C 132.371094 88.613281 132.066406 88.5 131.75 88.378906 C 131.496094 88.546875 131.246094 88.714844 130.984375 88.890625 C 129.613281 89.207031 128.726562 89.058594 127.402344 88.632812 C 126.398438 88.578125 126.398438 88.578125 125.578125 88.90625 C 124.191406 89.242188 122.859375 89.125 121.484375 88.738281 C 120.964844 88.582031 120.964844 88.582031 120.335938 88.875 C 118.65625 89.402344 117.003906 89.308594 115.378906 88.632812 C 114.597656 88.273438 114.597656 88.273438 113.828125 88.746094 C 112.5 89.355469 111.058594 89.40625 109.667969 88.953125 C 109.492188 88.878906 109.3125 88.808594 109.125 88.730469 C 108.824219 88.613281 108.523438 88.5 108.214844 88.378906 C 107.960938 88.546875 107.707031 88.714844 107.449219 88.890625 C 105.910156 89.191406 104.558594 89.277344 103.097656 88.632812 C 102.5625 88.429688 102.5625 88.429688 102.074219 88.378906 C 101.820312 88.546875 101.570312 88.714844 101.308594 88.890625 C 99.578125 89.351562 97.355469 89.492188 95.664062 88.84375 C 94.8125 88.316406 94.414062 87.953125 93.886719 87.097656 C 93.765625 86.296875 93.792969 85.519531 93.824219 84.710938 C 93.828125 84.496094 93.832031 84.285156 93.839844 84.0625 C 93.851562 83.539062 93.867188 83.011719 93.886719 82.488281 C 94.734375 82.488281 95.578125 82.488281 96.445312 82.488281 C 96.53125 83.332031 96.617188 84.175781 96.703125 85.046875 C 97.96875 85.046875 99.234375 85.046875 100.539062 85.046875 C 100.410156 84.574219 100.28125 84.097656 100.148438 83.609375 C 99.980469 82.988281 99.8125 82.371094 99.644531 81.75 C 99.558594 81.4375 99.472656 81.125 99.386719 80.800781 C 99.304688 80.5 99.222656 80.203125 99.140625 79.894531 C 99.027344 79.480469 99.027344 79.480469 98.914062 79.058594 C 98.75 78.386719 98.75 78.386719 98.75 77.875 C 99.160156 77.695312 99.570312 77.519531 99.980469 77.347656 C 100.210938 77.25 100.4375 77.152344 100.671875 77.050781 C 101.308594 76.851562 101.308594 76.851562 102.074219 77.105469 Z M 116.914062 83.253906 C 116.828125 83.929688 116.746094 84.609375 116.65625 85.304688 C 117.5 85.304688 118.34375 85.304688 119.214844 85.304688 C 119.214844 84.628906 119.214844 83.953125 119.214844 83.253906 C 118.457031 83.253906 117.695312 83.253906 116.914062 83.253906 Z M 116.914062 83.253906" stroke-linecap="round" />
</g>
		<g transform="matrix(1 0 0 1 -8.21 -27.61)"  >
<path style="stroke: none; stroke-width: 1; stroke-dasharray: none; stroke-linecap: butt; stroke-dashoffset: 0; stroke-linejoin: miter; stroke-miterlimit: 4; fill: rgb(243,243,243); fill-rule: nonzero; opacity: 1;" vector-effect="non-scaling-stroke"  transform=" translate(-215.3, -87.01)" d="M 203.988281 79.851562 C 205.109375 80.453125 205.71875 81.25 206.085938 82.449219 C 206.277344 83.398438 206.210938 84.339844 206.195312 85.304688 C 207.039062 85.21875 207.886719 85.136719 208.753906 85.046875 C 209.09375 83.527344 209.429688 82.003906 209.777344 80.4375 C 210.875 80.605469 211.972656 80.773438 213.105469 80.949219 C 212.933594 82.300781 212.765625 83.65625 212.59375 85.046875 C 213.351562 85.132812 214.113281 85.21875 214.894531 85.304688 C 214.886719 85.136719 214.878906 84.96875 214.867188 84.796875 C 214.824219 83.398438 214.839844 82.394531 215.664062 81.207031 C 217.101562 79.90625 218.050781 79.835938 219.957031 79.851562 C 221.300781 79.972656 221.808594 80.460938 222.761719 81.382812 C 223.546875 82.832031 223.65625 84.449219 223.59375 86.074219 C 223.59375 86.328125 223.59375 86.578125 223.59375 86.839844 C 223.835938 86.636719 224.078125 86.429688 224.328125 86.21875 C 225.144531 85.523438 225.621094 85.273438 226.695312 85.28125 C 226.976562 85.28125 226.976562 85.28125 227.257812 85.28125 C 227.496094 85.285156 227.730469 85.285156 227.972656 85.289062 C 229.097656 85.296875 229.097656 85.296875 230.246094 85.304688 C 230.328125 83.527344 230.414062 81.753906 230.5 79.925781 C 231.511719 79.925781 232.527344 79.925781 233.570312 79.925781 C 233.597656 80.914062 233.617188 81.898438 233.632812 82.886719 C 233.644531 83.164062 233.652344 83.441406 233.660156 83.730469 C 233.679688 85.433594 233.582031 86.492188 232.546875 87.867188 C 231.335938 88.847656 230.414062 89.183594 228.867188 89.101562 C 227.042969 89.003906 227.042969 89.003906 225.453125 89.753906 C 224.519531 90.734375 223.796875 91.84375 223.082031 92.988281 C 222.914062 93.242188 222.742188 93.496094 222.570312 93.757812 C 221.117188 93.476562 219.699219 93.105469 218.285156 92.667969 C 217.964844 92.574219 217.644531 92.476562 217.3125 92.378906 C 216.21875 91.867188 215.835938 91.410156 215.152344 90.425781 C 214.941406 89.691406 214.941406 89.691406 214.894531 89.148438 C 214.746094 89.152344 214.597656 89.160156 214.445312 89.164062 C 213.191406 89.195312 212.246094 89.078125 211.058594 88.632812 C 210.074219 88.574219 210.074219 88.574219 209.363281 88.890625 C 208.210938 89.234375 207.132812 89.1875 205.941406 89.148438 C 205.917969 89.367188 205.898438 89.589844 205.875 89.820312 C 205.585938 91.128906 205.046875 91.933594 203.972656 92.734375 C 203.09375 93.265625 202.257812 93.613281 201.289062 93.949219 C 200.976562 94.058594 200.667969 94.167969 200.351562 94.28125 C 199.546875 94.527344 199.546875 94.527344 198.777344 94.527344 C 198.648438 94.160156 198.519531 93.789062 198.394531 93.421875 C 198.324219 93.214844 198.25 93.011719 198.179688 92.800781 C 198.011719 92.222656 198.011719 92.222656 198.011719 91.453125 C 198.257812 91.371094 198.503906 91.292969 198.757812 91.207031 C 199.085938 91.097656 199.410156 90.988281 199.738281 90.875 C 199.898438 90.824219 200.0625 90.769531 200.230469 90.71875 C 201.257812 90.363281 201.914062 89.976562 202.613281 89.148438 C 202.402344 89.160156 202.402344 89.160156 202.183594 89.175781 C 200.746094 89.226562 199.53125 89.105469 198.265625 88.378906 C 196.996094 87.039062 196.914062 86.121094 196.933594 84.324219 C 197.035156 82.773438 197.398438 81.636719 198.394531 80.4375 C 199.847656 79.273438 202.257812 79.328125 203.988281 79.851562 Z M 200.570312 83.253906 C 200.398438 83.929688 200.230469 84.609375 200.058594 85.304688 C 200.984375 85.304688 201.914062 85.304688 202.871094 85.304688 C 202.882812 84.707031 202.882812 84.109375 202.871094 83.511719 C 202.621094 83.203125 202.621094 83.203125 202.140625 83.230469 C 201.617188 83.238281 201.09375 83.246094 200.570312 83.253906 Z M 218.21875 83.511719 C 218.21875 84.101562 218.21875 84.695312 218.21875 85.304688 C 218.894531 85.304688 219.570312 85.304688 220.265625 85.304688 C 220.183594 84.710938 220.097656 84.121094 220.011719 83.511719 C 219.421875 83.511719 218.828125 83.511719 218.21875 83.511719 Z M 221.035156 88.632812 C 220.554688 88.691406 220.074219 88.738281 219.59375 88.777344 C 219.210938 88.8125 219.210938 88.8125 218.816406 88.84375 C 218.621094 88.859375 218.421875 88.875 218.21875 88.890625 C 218.808594 89.480469 219.21875 89.675781 220.011719 89.914062 C 220.769531 89.859375 221.160156 89.761719 221.753906 89.289062 C 222.109375 88.90625 222.109375 88.90625 222.058594 88.378906 C 221.527344 88.339844 221.527344 88.339844 221.035156 88.632812 Z M 221.035156 88.632812" stroke-linecap="round" />
</g>
		<g transform="matrix(1 0 0 1 101.67 9.25)"  >
<path style="stroke: none; stroke-width: 1; stroke-dasharray: none; stroke-linecap: butt; stroke-dashoffset: 0; stroke-linejoin: miter; stroke-miterlimit: 4; fill: rgb(243,243,243); fill-rule: nonzero; opacity: 1;" vector-effect="non-scaling-stroke"  transform=" translate(-325.17, -123.87)" d="M 321.015625 112.78125 C 322.628906 114.253906 324.1875 115.785156 325.738281 117.324219 C 325.882812 117.46875 326.03125 117.617188 326.183594 117.765625 C 326.957031 118.535156 327.730469 119.304688 328.503906 120.074219 C 329.140625 120.707031 329.777344 121.339844 330.417969 121.972656 C 331.195312 122.738281 331.972656 123.507812 332.746094 124.28125 C 333.039062 124.570312 333.332031 124.863281 333.628906 125.152344 C 335.386719 126.878906 336.710938 128.207031 337.035156 130.757812 C 336.847656 132.292969 336.339844 133.679688 335.164062 134.730469 C 333.800781 135.628906 332.671875 135.910156 331.039062 135.769531 C 329.492188 135.367188 328.488281 134.679688 327.382812 133.546875 C 327.238281 133.402344 327.089844 133.257812 326.9375 133.105469 C 326.460938 132.628906 325.984375 132.148438 325.511719 131.664062 C 325.175781 131.328125 324.84375 130.996094 324.507812 130.660156 C 323.808594 129.960938 323.113281 129.257812 322.417969 128.554688 C 321.527344 127.65625 320.636719 126.757812 319.738281 125.863281 C 319.050781 125.175781 318.363281 124.484375 317.675781 123.789062 C 317.347656 123.460938 317.015625 123.128906 316.6875 122.796875 C 316.226562 122.335938 315.769531 121.871094 315.3125 121.40625 C 315.105469 121.203125 315.105469 121.203125 314.898438 120.996094 C 313.695312 119.765625 313.316406 118.789062 313.308594 117.085938 C 313.339844 115.617188 313.523438 114.6875 314.535156 113.582031 C 316.300781 111.890625 318.875 111.285156 321.015625 112.78125 Z M 321.015625 112.78125" stroke-linecap="round" />
</g>
		<g transform="matrix(1 0 0 1 -71 -29.06)"  >
<path style="stroke: none; stroke-width: 1; stroke-dasharray: none; stroke-linecap: butt; stroke-dashoffset: 0; stroke-linejoin: miter; stroke-miterlimit: 4; fill: rgb(243,243,243); fill-rule: nonzero; opacity: 1;" vector-effect="non-scaling-stroke"  transform=" translate(-152.5, -85.56)" d="M 154.007812 76.59375 C 156.117188 77.097656 158.195312 77.671875 160.257812 78.339844 C 160.527344 78.421875 160.796875 78.503906 161.074219 78.585938 C 162.933594 79.191406 163.796875 79.726562 164.777344 81.441406 C 165.1875 82.386719 165.09375 83.371094 165.089844 84.390625 C 165.09375 84.609375 165.097656 84.824219 165.101562 85.046875 C 165.101562 86.28125 165.050781 87.125 164.242188 88.121094 C 162.84375 89.125 161.636719 89.183594 159.957031 89.164062 C 159.6875 89.160156 159.6875 89.160156 159.414062 89.160156 C 158.976562 89.15625 158.539062 89.152344 158.101562 89.148438 C 158.015625 88.894531 157.933594 88.640625 157.84375 88.378906 C 157.511719 88.566406 157.511719 88.566406 157.171875 88.757812 C 155.683594 89.398438 154.074219 89.226562 152.488281 89.195312 C 152.167969 89.191406 151.847656 89.1875 151.515625 89.183594 C 150.726562 89.175781 149.9375 89.164062 149.148438 89.148438 C 149.113281 89.390625 149.078125 89.632812 149.039062 89.878906 C 148.800781 91.164062 148.0625 91.886719 147.101562 92.734375 C 145.554688 93.695312 143.734375 94.09375 141.984375 94.527344 C 141.855469 94.160156 141.726562 93.789062 141.601562 93.421875 C 141.527344 93.214844 141.457031 93.011719 141.382812 92.800781 C 141.214844 92.222656 141.214844 92.222656 141.214844 91.453125 C 141.84375 91.195312 142.472656 90.9375 143.101562 90.683594 C 143.28125 90.609375 143.460938 90.539062 143.644531 90.460938 C 144.996094 89.914062 144.996094 89.914062 145.566406 89.914062 C 145.648438 89.578125 145.734375 89.238281 145.820312 88.890625 C 145.675781 88.914062 145.53125 88.941406 145.378906 88.964844 C 144.035156 89.160156 143 89.210938 141.726562 88.632812 C 140.769531 87.847656 140.269531 87.105469 139.921875 85.914062 C 139.835938 84.308594 140.136719 82.34375 141.015625 80.980469 C 141.785156 80.195312 142.523438 79.6875 143.621094 79.589844 C 144.125 79.589844 144.125 79.589844 144.636719 79.589844 C 144.972656 79.585938 145.308594 79.578125 145.652344 79.574219 C 147.097656 79.71875 147.949219 80.382812 148.890625 81.460938 C 149.171875 82.304688 149.171875 82.929688 149.164062 83.816406 C 149.160156 84.09375 149.160156 84.371094 149.15625 84.660156 C 149.152344 84.871094 149.148438 85.085938 149.148438 85.304688 C 149.667969 85.164062 149.667969 85.164062 150.171875 84.792969 C 150.386719 84.058594 150.386719 84.058594 150.492188 83.207031 C 150.800781 81.636719 151.257812 80.910156 152.515625 79.945312 C 152.984375 79.667969 152.984375 79.667969 153.496094 79.667969 C 153.535156 79.351562 153.570312 79.035156 153.609375 78.707031 C 153.691406 77.984375 153.828125 77.300781 154.007812 76.59375 Z M 158.867188 81.71875 C 159.039062 82.902344 159.207031 84.085938 159.378906 85.304688 C 160.222656 85.304688 161.070312 85.304688 161.9375 85.304688 C 162.066406 83.898438 162.066406 83.898438 161.554688 82.648438 C 160.679688 82.078125 159.890625 81.921875 158.867188 81.71875 Z M 154.007812 83 C 153.542969 84.160156 153.542969 84.160156 153.753906 85.304688 C 154.511719 85.304688 155.273438 85.304688 156.054688 85.304688 C 156.054688 84.542969 156.054688 83.78125 156.054688 83 C 155.378906 83 154.703125 83 154.007812 83 Z M 143.773438 83.253906 C 143.398438 84.257812 143.398438 84.257812 143.261719 85.304688 C 144.191406 85.304688 145.121094 85.304688 146.078125 85.304688 C 146.089844 84.707031 146.085938 84.109375 146.078125 83.511719 C 145.824219 83.203125 145.824219 83.203125 145.347656 83.230469 C 144.824219 83.238281 144.300781 83.246094 143.773438 83.253906 Z M 143.773438 83.253906" stroke-linecap="round" />
</g>
		<g transform="matrix(1 0 0 1 -114.33 -57.23)"  >
<path style="stroke: none; stroke-width: 1; stroke-dasharray: none; stroke-linecap: butt; stroke-dashoffset: 0; stroke-linejoin: miter; stroke-miterlimit: 4; fill: rgb(243,243,243); fill-rule: nonzero; opacity: 1;" vector-effect="non-scaling-stroke"  transform=" translate(-109.17, -57.38)" d="M 103.867188 49.953125 C 104.625 49.953125 105.386719 49.953125 106.167969 49.953125 C 106.175781 50.285156 106.179688 50.617188 106.1875 50.960938 C 106.210938 52.1875 106.238281 53.417969 106.261719 54.644531 C 106.273438 55.175781 106.285156 55.710938 106.296875 56.242188 C 106.308594 57.007812 106.328125 57.769531 106.34375 58.535156 C 106.347656 58.773438 106.351562 59.011719 106.355469 59.261719 C 106.363281 59.589844 106.363281 59.589844 106.371094 59.929688 C 106.378906 60.21875 106.378906 60.21875 106.382812 60.519531 C 106.375 60.976562 106.375 60.976562 106.679688 61.222656 C 107.339844 61.324219 107.339844 61.324219 108.117188 61.351562 C 108.378906 61.371094 108.644531 61.390625 108.914062 61.410156 C 109.941406 61.183594 110.472656 60.90625 111.183594 60.128906 C 112.035156 58.464844 111.792969 56.40625 111.78125 54.578125 C 111.785156 54.132812 111.789062 53.683594 111.792969 53.234375 C 111.804688 52.140625 111.804688 51.046875 111.796875 49.953125 C 112.554688 49.953125 113.316406 49.953125 114.097656 49.953125 C 114.097656 52.152344 114.097656 54.347656 114.097656 56.613281 C 115.113281 56.234375 115.113281 56.234375 116.144531 55.84375 C 117.742188 55.609375 119.109375 55.78125 120.496094 56.613281 C 121.5625 57.628906 121.597656 58.484375 121.644531 59.945312 C 121.601562 61.40625 121.515625 62.222656 120.496094 63.273438 C 119.511719 64.164062 118.609375 64.328125 117.3125 64.339844 C 117.089844 64.34375 116.867188 64.34375 116.636719 64.347656 C 116.398438 64.347656 116.15625 64.347656 115.910156 64.351562 C 115.660156 64.351562 115.414062 64.351562 115.15625 64.355469 C 114.632812 64.355469 114.105469 64.359375 113.578125 64.359375 C 112.777344 64.363281 111.980469 64.371094 111.179688 64.378906 C 110.667969 64.378906 110.15625 64.382812 109.644531 64.382812 C 109.40625 64.386719 109.167969 64.390625 108.925781 64.390625 C 107.527344 64.386719 106.40625 64.195312 105.101562 63.675781 C 104.386719 63.453125 104.007812 63.710938 103.355469 64.042969 C 102.507812 64.222656 101.652344 64.335938 100.796875 64.457031 C 100.570312 64.492188 100.339844 64.527344 100.105469 64.5625 C 99.042969 64.71875 98.035156 64.828125 96.957031 64.8125 C 96.875 64.050781 96.789062 63.289062 96.703125 62.503906 C 97.460938 62.125 98.171875 62.234375 99.003906 62.25 C 98.921875 62.078125 98.835938 61.910156 98.75 61.738281 C 98.675781 61.152344 98.613281 60.5625 98.554688 59.976562 C 98.539062 59.800781 98.523438 59.625 98.507812 59.441406 C 98.472656 59.070312 98.4375 58.695312 98.402344 58.324219 C 98.351562 57.757812 98.296875 57.195312 98.242188 56.632812 C 98.074219 54.828125 97.933594 53.046875 97.980469 51.234375 C 98.742188 51.234375 99.5 51.234375 100.285156 51.234375 C 100.394531 52.359375 100.503906 53.484375 100.613281 54.609375 C 100.648438 54.992188 100.6875 55.375 100.722656 55.753906 C 100.921875 57.753906 101.105469 59.726562 101.050781 61.738281 C 101.429688 61.65625 101.808594 61.578125 102.1875 61.496094 C 102.398438 61.453125 102.609375 61.40625 102.824219 61.363281 C 103.347656 61.273438 103.347656 61.273438 103.609375 60.96875 C 103.640625 60.621094 103.65625 60.273438 103.664062 59.929688 C 103.667969 59.707031 103.671875 59.488281 103.679688 59.261719 C 103.683594 59.019531 103.6875 58.78125 103.691406 58.535156 C 103.695312 58.289062 103.703125 58.046875 103.707031 57.792969 C 103.722656 57.011719 103.738281 56.226562 103.753906 55.445312 C 103.765625 54.914062 103.777344 54.386719 103.789062 53.855469 C 103.816406 52.554688 103.839844 51.253906 103.867188 49.953125 Z M 112.820312 61.222656 C 112.820312 61.308594 112.820312 61.394531 112.820312 61.480469 C 113.835938 61.488281 114.855469 61.492188 115.875 61.496094 C 116.308594 61.5 116.308594 61.5 116.753906 61.503906 C 117.03125 61.503906 117.308594 61.503906 117.589844 61.503906 C 117.847656 61.507812 118.101562 61.507812 118.367188 61.507812 C 118.949219 61.546875 118.949219 61.546875 119.214844 61.222656 C 119.265625 60.695312 119.265625 60.695312 119.261719 60.085938 C 119.265625 59.882812 119.269531 59.675781 119.273438 59.464844 C 119.265625 58.863281 119.265625 58.863281 118.703125 58.40625 C 115.929688 58.027344 114.601562 59.25 112.820312 61.222656 Z M 112.820312 61.222656" stroke-linecap="round" />
</g>
		<g transform="matrix(1 0 0 1 138.48 18.61)"  >
<path style="stroke: none; stroke-width: 1; stroke-dasharray: none; stroke-linecap: butt; stroke-dashoffset: 0; stroke-linejoin: miter; stroke-miterlimit: 4; fill: rgb(243,243,243); fill-rule: nonzero; opacity: 1;" vector-effect="non-scaling-stroke"  transform=" translate(-361.99, -133.23)" d="M 361.886719 126.125 C 363.179688 127.007812 364.257812 128.152344 365.351562 129.261719 C 365.785156 129.703125 366.222656 130.136719 366.660156 130.566406 C 366.941406 130.847656 367.222656 131.128906 367.5 131.410156 C 367.628906 131.539062 367.757812 131.667969 367.894531 131.796875 C 369.003906 132.941406 369.777344 134.246094 369.78125 135.882812 C 369.726562 137.300781 369.253906 138.460938 368.273438 139.496094 C 367.148438 140.472656 366.234375 140.96875 364.746094 140.988281 C 364.402344 141 364.402344 141 364.054688 141.011719 C 361.691406 140.652344 360.214844 139.011719 358.617188 137.386719 C 358.222656 136.988281 357.824219 136.59375 357.425781 136.199219 C 354.554688 133.335938 354.554688 133.335938 354.195312 131.164062 C 354.230469 129.554688 354.316406 128.363281 355.492188 127.15625 C 357.40625 125.417969 359.507812 124.871094 361.886719 126.125 Z M 361.886719 126.125" stroke-linecap="round" />
</g>
		<g transform="matrix(1 0 0 1 -3.68 -54.96)"  >
<path style="stroke: none; stroke-width: 1; stroke-dasharray: none; stroke-linecap: butt; stroke-dashoffset: 0; stroke-linejoin: miter; stroke-miterlimit: 4; fill: rgb(243,243,243); fill-rule: nonzero; opacity: 1;" vector-effect="non-scaling-stroke"  transform=" translate(-219.82, -59.66)" d="M 224.105469 49.953125 C 224.742188 50.261719 225.300781 50.582031 225.894531 50.976562 C 225.757812 52.015625 225.222656 52.535156 224.519531 53.28125 C 223.824219 54.027344 223.171875 54.765625 222.570312 55.589844 C 222.800781 55.59375 223.035156 55.597656 223.273438 55.601562 C 224.140625 55.617188 225.007812 55.632812 225.875 55.65625 C 226.246094 55.664062 226.621094 55.671875 226.996094 55.675781 C 227.535156 55.6875 228.074219 55.699219 228.617188 55.714844 C 228.941406 55.71875 229.265625 55.726562 229.597656 55.734375 C 230.929688 55.898438 231.757812 56.292969 232.636719 57.308594 C 233.132812 58.300781 233.195312 58.96875 233.1875 60.070312 C 233.191406 60.558594 233.191406 60.558594 233.195312 61.054688 C 233.035156 62.164062 232.777344 62.691406 232.035156 63.53125 C 230.328125 64.550781 228.570312 64.402344 226.625 64.382812 C 226.277344 64.382812 225.925781 64.382812 225.574219 64.382812 C 224.839844 64.378906 224.109375 64.375 223.375 64.371094 C 222.4375 64.363281 221.496094 64.359375 220.558594 64.359375 C 219.832031 64.359375 219.109375 64.355469 218.386719 64.351562 C 217.871094 64.351562 217.355469 64.347656 216.84375 64.347656 C 216.53125 64.34375 216.21875 64.34375 215.898438 64.339844 C 215.625 64.339844 215.347656 64.335938 215.066406 64.335938 C 214.382812 64.296875 214.382812 64.296875 213.617188 64.042969 C 213.558594 64.230469 213.503906 64.417969 213.445312 64.613281 C 212.953125 66.132812 212.539062 67.371094 211.058594 68.140625 C 208.023438 69.519531 208.023438 69.519531 206.964844 69.164062 C 206.660156 68.253906 206.660156 68.253906 206.453125 67.371094 C 206.761719 67.257812 206.761719 67.257812 207.078125 67.136719 C 207.488281 66.976562 207.488281 66.976562 207.90625 66.8125 C 208.175781 66.707031 208.449219 66.605469 208.726562 66.496094 C 209.640625 66.03125 210.148438 65.605469 210.800781 64.8125 C 211 63.921875 211 63.921875 210.984375 62.949219 C 210.988281 62.773438 210.988281 62.601562 210.996094 62.421875 C 211.003906 61.867188 211.007812 61.3125 211.007812 60.761719 C 211.015625 60.382812 211.023438 60.007812 211.027344 59.628906 C 211.046875 58.710938 211.054688 57.789062 211.058594 56.871094 C 211.816406 56.871094 212.578125 56.871094 213.359375 56.871094 C 213.375 57.164062 213.390625 57.457031 213.40625 57.757812 C 213.429688 58.140625 213.449219 58.519531 213.472656 58.902344 C 213.480469 59.097656 213.492188 59.289062 213.503906 59.488281 C 213.472656 60.433594 213.472656 60.433594 213.871094 61.222656 C 214.390625 61.25 214.910156 61.253906 215.425781 61.253906 C 215.761719 61.253906 216.09375 61.253906 216.4375 61.253906 C 216.800781 61.253906 217.167969 61.25 217.535156 61.25 C 217.90625 61.25 218.277344 61.25 218.652344 61.25 C 219.632812 61.246094 220.617188 61.246094 221.597656 61.242188 C 222.597656 61.238281 223.601562 61.238281 224.601562 61.238281 C 226.566406 61.234375 228.535156 61.230469 230.5 61.222656 C 230.738281 59.929688 230.738281 59.929688 230.5 58.664062 C 230.023438 58.660156 230.023438 58.660156 229.535156 58.660156 C 228.347656 58.652344 227.164062 58.640625 225.980469 58.625 C 225.46875 58.617188 224.957031 58.613281 224.441406 58.613281 C 223.707031 58.609375 222.96875 58.601562 222.230469 58.585938 C 222.003906 58.589844 221.773438 58.589844 221.539062 58.589844 C 220.457031 58.566406 219.753906 58.542969 218.960938 57.753906 C 218.800781 57.546875 218.640625 57.339844 218.476562 57.125 C 218.835938 56.027344 219.359375 55.367188 220.15625 54.53125 C 221.296875 53.308594 222.359375 52.054688 223.410156 50.75 C 223.847656 50.210938 223.847656 50.210938 224.105469 49.953125 Z M 224.105469 49.953125" stroke-linecap="round" />
</g>
		<g transform="matrix(1 0 0 1 -50.14 -57.42)"  >
<path style="stroke: none; stroke-width: 1; stroke-dasharray: none; stroke-linecap: butt; stroke-dashoffset: 0; stroke-linejoin: miter; stroke-miterlimit: 4; fill: rgb(243,243,243); fill-rule: nonzero; opacity: 1;" vector-effect="non-scaling-stroke"  transform=" translate(-173.36, -57.2)" d="M 162.960938 49.953125 C 163.722656 49.953125 164.480469 49.953125 165.265625 49.953125 C 165.269531 50.285156 165.277344 50.617188 165.285156 50.960938 C 165.308594 52.1875 165.332031 53.417969 165.359375 54.644531 C 165.371094 55.175781 165.382812 55.710938 165.390625 56.242188 C 165.40625 57.007812 165.421875 57.769531 165.4375 58.535156 C 165.445312 58.773438 165.449219 59.011719 165.453125 59.261719 C 165.457031 59.480469 165.460938 59.699219 165.46875 59.929688 C 165.472656 60.125 165.476562 60.316406 165.480469 60.519531 C 165.472656 60.976562 165.472656 60.976562 165.777344 61.222656 C 166.421875 61.242188 167.0625 61.25 167.710938 61.242188 C 167.890625 61.238281 168.074219 61.238281 168.261719 61.238281 C 168.710938 61.234375 169.164062 61.230469 169.613281 61.222656 C 169.957031 60.21875 170.265625 59.210938 170.539062 58.183594 C 170.605469 57.933594 170.675781 57.6875 170.742188 57.433594 C 170.792969 57.246094 170.839844 57.0625 170.890625 56.871094 C 172.652344 57.09375 172.652344 57.09375 172.9375 57.382812 C 172.894531 58.3125 172.804688 59.238281 172.722656 60.167969 C 172.710938 60.433594 172.695312 60.695312 172.683594 60.96875 C 173.367188 61.652344 175.332031 61.285156 176.320312 61.285156 C 176.886719 61.289062 177.453125 61.296875 178.019531 61.304688 C 178.375 61.304688 178.734375 61.308594 179.09375 61.308594 C 179.421875 61.3125 179.75 61.3125 180.085938 61.316406 C 180.347656 61.285156 180.605469 61.253906 180.871094 61.222656 C 181.039062 60.972656 181.207031 60.71875 181.382812 60.457031 C 181.144531 60.472656 180.90625 60.492188 180.660156 60.511719 C 177.753906 60.636719 177.753906 60.636719 176.695312 59.734375 C 175.9375 58.960938 175.765625 58.332031 175.6875 57.238281 C 175.714844 55.628906 176.019531 54.054688 177.160156 52.882812 C 178.449219 52.140625 179.671875 52.101562 181.125 52.257812 C 182.089844 52.574219 182.746094 53.042969 183.34375 53.882812 C 183.855469 55.296875 183.792969 56.65625 183.78125 58.152344 C 183.78125 58.449219 183.785156 58.746094 183.789062 59.054688 C 183.78125 61.804688 183.78125 61.804688 182.917969 63.019531 C 181.09375 64.421875 179.585938 64.355469 177.363281 64.359375 C 176.828125 64.363281 176.296875 64.371094 175.765625 64.378906 C 175.421875 64.378906 175.082031 64.382812 174.742188 64.382812 C 174.433594 64.386719 174.125 64.386719 173.804688 64.390625 C 172.851562 64.289062 172.246094 63.972656 171.402344 63.53125 C 170.714844 63.695312 170.714844 63.695312 170.125 64.042969 C 168.480469 64.59375 166.429688 64.601562 164.847656 63.851562 C 163.964844 63.320312 163.378906 62.785156 163.074219 61.777344 C 162.957031 61.191406 162.929688 60.667969 162.933594 60.074219 C 162.933594 59.734375 162.933594 59.734375 162.933594 59.390625 C 162.933594 59.148438 162.9375 58.90625 162.9375 58.660156 C 162.9375 58.410156 162.9375 58.160156 162.9375 57.90625 C 162.941406 57.113281 162.941406 56.316406 162.945312 55.523438 C 162.945312 54.984375 162.949219 54.449219 162.949219 53.910156 C 162.953125 52.589844 162.957031 51.273438 162.960938 49.953125 Z M 178.3125 55.363281 C 178.03125 56.175781 177.976562 56.785156 178.054688 57.636719 C 178.332031 57.972656 178.332031 57.972656 179.007812 57.917969 C 179.289062 57.917969 179.570312 57.914062 179.863281 57.910156 C 180.144531 57.90625 180.425781 57.90625 180.71875 57.902344 C 180.9375 57.898438 181.15625 57.898438 181.382812 57.894531 C 181.394531 57.476562 181.40625 57.0625 181.414062 56.644531 C 181.421875 56.296875 181.421875 56.296875 181.429688 55.941406 C 181.445312 55.285156 181.445312 55.285156 180.871094 54.820312 C 179.421875 54.601562 179.421875 54.601562 178.3125 55.363281 Z M 178.3125 55.363281" stroke-linecap="round" />
</g>
		<g transform="matrix(1 0 0 1 141.64 -5.68)"  >
<path style="stroke: none; stroke-width: 1; stroke-dasharray: none; stroke-linecap: butt; stroke-dashoffset: 0; stroke-linejoin: miter; stroke-miterlimit: 4; fill: rgb(243,243,243); fill-rule: nonzero; opacity: 1;" vector-effect="non-scaling-stroke"  transform=" translate(-365.14, -108.94)" d="M 365.980469 102.625 C 367.109375 103.273438 367.960938 104.179688 368.855469 105.109375 C 369.042969 105.296875 369.230469 105.484375 369.425781 105.679688 C 370.914062 107.195312 372.117188 108.53125 372.132812 110.761719 C 372.074219 112.453125 371.640625 113.570312 370.4375 114.765625 C 369.230469 115.714844 368.027344 115.902344 366.519531 115.925781 C 364.273438 115.480469 362.839844 113.996094 361.277344 112.425781 C 361.058594 112.21875 360.84375 112.015625 360.621094 111.800781 C 359.253906 110.441406 358.433594 109.269531 358.15625 107.335938 C 358.160156 105.804688 358.652344 104.359375 359.691406 103.234375 C 361.871094 101.777344 363.59375 101.527344 365.980469 102.625 Z M 365.980469 102.625" stroke-linecap="round" />
</g>
		<g transform="matrix(1 0 0 1 -48.88 -27.99)"  >
<path style="stroke: none; stroke-width: 1; stroke-dasharray: none; stroke-linecap: butt; stroke-dashoffset: 0; stroke-linejoin: miter; stroke-miterlimit: 4; fill: rgb(243,243,243); fill-rule: nonzero; opacity: 1;" vector-effect="non-scaling-stroke"  transform=" translate(-174.62, -86.63)" d="M 178.054688 80.4375 C 179.152344 80.4375 180.25 80.4375 181.382812 80.4375 C 181.40625 81.640625 181.425781 82.84375 181.4375 84.046875 C 181.441406 84.453125 181.449219 84.863281 181.457031 85.269531 C 181.550781 89.523438 181.550781 89.523438 180.359375 91.195312 C 179.902344 91.667969 179.902344 91.667969 179.460938 91.949219 C 179.316406 92.046875 179.171875 92.144531 179.023438 92.242188 C 177.738281 92.902344 176.332031 92.789062 174.921875 92.796875 C 174.6875 92.800781 174.453125 92.808594 174.210938 92.8125 C 172.445312 92.824219 170.976562 92.648438 169.550781 91.503906 C 169.414062 91.339844 169.277344 91.175781 169.132812 91.003906 C 168.992188 90.839844 168.851562 90.679688 168.703125 90.511719 C 167.539062 88.632812 167.761719 86.5625 167.789062 84.421875 C 167.792969 84.089844 167.796875 83.753906 167.796875 83.410156 C 167.804688 82.589844 167.8125 81.769531 167.824219 80.949219 C 168.921875 80.949219 170.019531 80.949219 171.148438 80.949219 C 171.160156 81.652344 171.160156 81.652344 171.167969 82.371094 C 171.183594 82.984375 171.199219 83.601562 171.210938 84.214844 C 171.214844 84.523438 171.21875 84.832031 171.222656 85.152344 C 171.230469 85.449219 171.238281 85.746094 171.25 86.054688 C 171.253906 86.328125 171.257812 86.601562 171.265625 86.882812 C 171.4375 87.785156 171.691406 88.09375 172.425781 88.632812 C 172.984375 88.78125 172.984375 88.78125 173.574219 88.753906 C 173.785156 88.75 174 88.75 174.21875 88.75 C 174.441406 88.742188 174.664062 88.738281 174.890625 88.730469 C 175.113281 88.730469 175.335938 88.730469 175.566406 88.730469 C 176.816406 88.777344 176.816406 88.777344 177.800781 88.121094 C 177.894531 87.324219 177.894531 87.324219 177.90625 86.390625 C 177.910156 86.222656 177.914062 86.050781 177.921875 85.875 C 177.9375 85.332031 177.949219 84.789062 177.960938 84.246094 C 177.96875 83.878906 177.980469 83.511719 177.988281 83.144531 C 178.015625 82.242188 178.035156 81.339844 178.054688 80.4375 Z M 178.054688 80.4375" stroke-linecap="round" />
</g>
		<g transform="matrix(1 0 0 1 -34.31 -32.98)"  >
<path style="stroke: none; stroke-width: 1; stroke-dasharray: none; stroke-linecap: butt; stroke-dashoffset: 0; stroke-linejoin: miter; stroke-miterlimit: 4; fill: rgb(243,243,243); fill-rule: nonzero; opacity: 1;" vector-effect="non-scaling-stroke"  transform=" translate(-189.19, -81.63)" d="M 182.660156 74.03125 C 183.757812 74.03125 184.855469 74.03125 185.988281 74.03125 C 186.070312 77.667969 186.15625 81.304688 186.242188 85.046875 C 188.269531 85.046875 190.292969 85.046875 192.382812 85.046875 C 192.464844 83.359375 192.550781 81.667969 192.636719 79.925781 C 193.652344 79.925781 194.664062 79.925781 195.707031 79.925781 C 195.730469 80.917969 195.742188 81.910156 195.753906 82.902344 C 195.761719 83.183594 195.769531 83.464844 195.773438 83.753906 C 195.800781 86.359375 195.800781 86.359375 194.941406 87.609375 C 193.535156 89.019531 191.910156 89.214844 190.007812 89.230469 C 189.789062 89.230469 189.570312 89.226562 189.34375 89.226562 C 189.019531 89.234375 189.019531 89.234375 188.6875 89.238281 C 187.085938 89.242188 185.339844 89.089844 184.042969 88.050781 C 182.570312 86.433594 182.585938 84.519531 182.609375 82.464844 C 182.613281 82.222656 182.613281 81.980469 182.613281 81.730469 C 182.617188 80.964844 182.621094 80.195312 182.628906 79.429688 C 182.632812 78.90625 182.632812 78.382812 182.636719 77.859375 C 182.640625 76.585938 182.648438 75.308594 182.660156 74.03125 Z M 182.660156 74.03125" stroke-linecap="round" />
</g>
		<g transform="matrix(1 0 0 1 -86.56 -53.33)"  >
<path style="stroke: none; stroke-width: 1; stroke-dasharray: none; stroke-linecap: butt; stroke-dashoffset: 0; stroke-linejoin: miter; stroke-miterlimit: 4; fill: rgb(243,243,243); fill-rule: nonzero; opacity: 1;" vector-effect="non-scaling-stroke"  transform=" translate(-136.95, -61.29)" d="M 141.984375 54.5625 C 142.109375 55.832031 142.109375 55.832031 142.238281 57.125 C 141.96875 57.171875 141.699219 57.21875 141.417969 57.265625 C 141.0625 57.332031 140.707031 57.398438 140.351562 57.460938 C 140.175781 57.492188 139.996094 57.523438 139.8125 57.554688 C 139.335938 57.644531 138.867188 57.765625 138.402344 57.894531 C 137.90625 58.640625 137.773438 59.078125 137.636719 59.945312 C 137.914062 59.96875 138.195312 59.996094 138.484375 60.023438 C 139.96875 60.210938 141.6875 60.433594 142.953125 61.269531 C 143.699219 62.398438 143.417969 64.039062 143.261719 65.324219 C 142.84375 66.414062 142.292969 66.9375 141.289062 67.515625 C 139.894531 68.128906 138.5 68.003906 136.996094 67.996094 C 136.6875 68.003906 136.375 68.007812 136.058594 68.011719 C 134.027344 68.011719 133.042969 67.871094 131.585938 66.449219 C 130.675781 65.304688 130.4375 64.578125 130.445312 63.132812 C 130.449219 62.859375 130.449219 62.585938 130.449219 62.300781 C 130.453125 62.015625 130.453125 61.726562 130.457031 61.433594 C 130.457031 61.144531 130.457031 60.851562 130.460938 60.554688 C 130.460938 59.839844 130.464844 59.121094 130.472656 58.40625 C 131.230469 58.40625 131.992188 58.40625 132.773438 58.40625 C 132.777344 58.78125 132.78125 59.152344 132.785156 59.539062 C 132.796875 60.03125 132.808594 60.523438 132.824219 61.015625 C 132.824219 61.261719 132.824219 61.507812 132.828125 61.761719 C 132.863281 62.886719 132.925781 63.609375 133.503906 64.59375 C 134.707031 65.300781 135.785156 65.222656 137.15625 65.179688 C 137.410156 65.175781 137.667969 65.175781 137.933594 65.175781 C 139.40625 65.179688 139.40625 65.179688 140.703125 64.554688 C 141.015625 63.773438 141.015625 63.773438 141.214844 63.019531 C 141.027344 62.988281 140.839844 62.960938 140.644531 62.933594 C 138.832031 62.648438 137.089844 62.257812 135.332031 61.738281 C 135.128906 57.992188 135.128906 57.992188 136.355469 56.355469 C 137.738281 54.894531 140.03125 54.5625 141.984375 54.5625 Z M 141.984375 54.5625" stroke-linecap="round" />
</g>
		<g transform="matrix(1 0 0 1 -135.39 -57.41)"  >
<path style="stroke: none; stroke-width: 1; stroke-dasharray: none; stroke-linecap: butt; stroke-dashoffset: 0; stroke-linejoin: miter; stroke-miterlimit: 4; fill: rgb(243,243,243); fill-rule: nonzero; opacity: 1;" vector-effect="non-scaling-stroke"  transform=" translate(-88.12, -57.21)" d="M 81.351562 49.953125 C 82.113281 49.953125 82.871094 49.953125 83.65625 49.953125 C 83.660156 50.285156 83.667969 50.617188 83.675781 50.960938 C 83.699219 52.1875 83.722656 53.417969 83.75 54.644531 C 83.761719 55.175781 83.773438 55.710938 83.78125 56.242188 C 83.796875 57.007812 83.8125 57.769531 83.832031 58.535156 C 83.835938 58.773438 83.839844 59.011719 83.84375 59.261719 C 83.847656 59.480469 83.855469 59.699219 83.859375 59.929688 C 83.863281 60.125 83.867188 60.316406 83.871094 60.519531 C 83.863281 60.976562 83.863281 60.976562 84.167969 61.222656 C 84.726562 61.285156 85.285156 61.332031 85.847656 61.367188 C 86.152344 61.390625 86.457031 61.410156 86.773438 61.433594 C 87.128906 61.457031 87.128906 61.457031 87.492188 61.480469 C 87.453125 61.339844 87.414062 61.203125 87.371094 61.058594 C 87 59.613281 86.847656 58.328125 87.238281 56.871094 C 87.859375 55.824219 88.390625 55.421875 89.539062 55.078125 C 90.292969 55.015625 91.039062 55.027344 91.792969 55.042969 C 92.097656 55.046875 92.097656 55.046875 92.40625 55.050781 C 92.898438 55.058594 93.394531 55.066406 93.886719 55.078125 C 93.886719 55.921875 93.886719 56.765625 93.886719 57.636719 C 92.539062 57.722656 91.1875 57.808594 89.796875 57.894531 C 89.558594 58.835938 89.539062 59.328125 89.652344 60.265625 C 89.722656 60.867188 89.722656 60.867188 89.796875 61.480469 C 91.316406 61.3125 92.835938 61.140625 94.398438 60.96875 C 94.570312 61.8125 94.738281 62.660156 94.910156 63.53125 C 84.382812 64.816406 84.382812 64.816406 82.375 63.273438 C 81.457031 62.324219 81.320312 61.359375 81.324219 60.074219 C 81.324219 59.734375 81.324219 59.734375 81.324219 59.390625 C 81.324219 59.148438 81.328125 58.90625 81.328125 58.660156 C 81.328125 58.410156 81.328125 58.160156 81.328125 57.90625 C 81.332031 57.113281 81.332031 56.316406 81.335938 55.523438 C 81.339844 54.984375 81.339844 54.449219 81.339844 53.910156 C 81.34375 52.589844 81.347656 51.273438 81.351562 49.953125 Z M 81.351562 49.953125" stroke-linecap="round" />
</g>
		<g transform="matrix(1 0 0 1 153.7 6.17)"  >
<path style="stroke: none; stroke-width: 1; stroke-dasharray: none; stroke-linecap: butt; stroke-dashoffset: 0; stroke-linejoin: miter; stroke-miterlimit: 4; fill: rgb(243,243,243); fill-rule: nonzero; opacity: 1;" vector-effect="non-scaling-stroke"  transform=" translate(-377.21, -120.79)" d="M 379.957031 116.488281 C 381.171875 117.347656 381.878906 118.425781 382.207031 119.886719 C 382.335938 121.304688 382.148438 122.5 381.4375 123.730469 C 380.425781 124.863281 379.324219 125.671875 377.792969 125.84375 C 376.242188 125.917969 375.015625 125.710938 373.761719 124.753906 C 372.4375 123.300781 372.148438 122.015625 372.175781 120.070312 C 372.28125 118.679688 372.863281 117.914062 373.859375 117.003906 C 375.746094 115.5 377.832031 115.285156 379.957031 116.488281 Z M 379.957031 116.488281" stroke-linecap="round" />
</g>
		<g transform="matrix(1 0 0 1 97.48 -22.72)"  >
<path style="stroke: none; stroke-width: 1; stroke-dasharray: none; stroke-linecap: butt; stroke-dashoffset: 0; stroke-linejoin: miter; stroke-miterlimit: 4; fill: rgb(243,243,243); fill-rule: nonzero; opacity: 1;" vector-effect="non-scaling-stroke"  transform=" translate(-320.99, -91.9)" d="M 323.703125 87.53125 C 324.878906 88.542969 325.828125 89.488281 325.992188 91.101562 C 326.046875 92.664062 326.011719 93.839844 325.054688 95.117188 C 323.84375 96.398438 322.808594 96.90625 321.03125 96.960938 C 319.324219 96.875 318.324219 96.472656 317.160156 95.214844 C 316.199219 94.003906 315.886719 93.015625 315.980469 91.46875 C 316.179688 89.914062 316.695312 88.90625 317.816406 87.785156 C 319.679688 86.617188 321.753906 86.535156 323.703125 87.53125 Z M 323.703125 87.53125" stroke-linecap="round" />
</g>
		<g transform="matrix(1 0 0 1 131.43 -43.73)"  >
<path style="stroke: none; stroke-width: 1; stroke-dasharray: none; stroke-linecap: butt; stroke-dashoffset: 0; stroke-linejoin: miter; stroke-miterlimit: 4; fill: rgb(243,243,243); fill-rule: nonzero; opacity: 1;" vector-effect="non-scaling-stroke"  transform=" translate(-354.94, -70.89)" d="M 358.011719 66.78125 C 359.023438 67.621094 359.699219 68.640625 359.949219 69.933594 C 360.085938 71.558594 359.878906 72.6875 358.925781 74.03125 C 357.691406 75.328125 356.722656 75.863281 354.914062 75.921875 C 353.371094 75.90625 352.382812 75.59375 351.25 74.546875 C 349.980469 72.914062 349.726562 71.449219 349.972656 69.421875 C 350.492188 68.117188 351.332031 67.089844 352.53125 66.347656 C 354.40625 65.589844 356.296875 65.6875 358.011719 66.78125 Z M 358.011719 66.78125" stroke-linecap="round" />
</g>
		<g transform="matrix(1 0 0 1 118.91 26.67)"  >
<path style="stroke: none; stroke-width: 1; stroke-dasharray: none; stroke-linecap: butt; stroke-dashoffset: 0; stroke-linejoin: miter; stroke-miterlimit: 4; fill: rgb(243,243,243); fill-rule: nonzero; opacity: 1;" vector-effect="non-scaling-stroke"  transform=" translate(-342.42, -141.29)" d="M 345.164062 136.980469 C 346.265625 137.761719 347.078125 138.804688 347.414062 140.125 C 347.621094 141.796875 347.371094 143.097656 346.390625 144.480469 C 345.273438 145.6875 344.101562 146.28125 342.472656 146.367188 C 341.035156 146.332031 339.890625 145.863281 338.832031 144.882812 C 337.691406 143.585938 337.3125 142.421875 337.355469 140.722656 C 337.539062 139.34375 338.175781 138.253906 339.210938 137.339844 C 341.132812 136.003906 343.097656 135.8125 345.164062 136.980469 Z M 345.164062 136.980469" stroke-linecap="round" />
</g>
		<g transform="matrix(1 0 0 1 -66.79 -52.03)"  >
<path style="stroke: none; stroke-width: 1; stroke-dasharray: none; stroke-linecap: butt; stroke-dashoffset: 0; stroke-linejoin: miter; stroke-miterlimit: 4; fill: rgb(243,243,243); fill-rule: nonzero; opacity: 1;" vector-effect="non-scaling-stroke"  transform=" translate(-156.72, -62.59)" d="M 158.964844 56.132812 C 159.777344 56.714844 160.292969 57.226562 160.660156 58.152344 C 160.8125 59.292969 160.800781 60.425781 160.789062 61.578125 C 160.792969 61.882812 160.796875 62.1875 160.800781 62.503906 C 160.789062 64.710938 160.523438 66.160156 158.980469 67.820312 C 157.644531 68.832031 155.921875 69.421875 154.265625 69.421875 C 154.09375 68.746094 153.925781 68.070312 153.753906 67.371094 C 153.921875 67.308594 154.09375 67.242188 154.265625 67.175781 C 156.5 66.410156 156.5 66.410156 158.054688 64.761719 C 158.152344 64.523438 158.253906 64.289062 158.355469 64.042969 C 158.105469 64.167969 158.105469 64.167969 157.84375 64.296875 C 156.320312 64.441406 155.050781 64.425781 153.753906 63.53125 C 153.054688 62.941406 152.769531 62.527344 152.640625 61.621094 C 152.589844 60.039062 152.753906 58.542969 153.496094 57.125 C 155.015625 55.605469 156.980469 55.472656 158.964844 56.132812 Z M 155.285156 58.664062 C 155.101562 59.1875 155.101562 59.1875 154.984375 59.800781 C 154.9375 60.003906 154.890625 60.210938 154.84375 60.421875 C 154.722656 60.980469 154.722656 60.980469 155.03125 61.480469 C 156.128906 61.480469 157.226562 61.480469 158.355469 61.480469 C 158.355469 60.550781 158.355469 59.621094 158.355469 58.664062 C 157.78125 58.375 157.457031 58.371094 156.820312 58.375 C 156.644531 58.375 156.464844 58.375 156.277344 58.371094 C 155.773438 58.378906 155.773438 58.378906 155.285156 58.664062 Z M 155.285156 58.664062" stroke-linecap="round" />
</g>
		<g transform="matrix(1 0 0 1 -21.25 -52.03)"  >
<path style="stroke: none; stroke-width: 1; stroke-dasharray: none; stroke-linecap: butt; stroke-dashoffset: 0; stroke-linejoin: miter; stroke-miterlimit: 4; fill: rgb(243,243,243); fill-rule: nonzero; opacity: 1;" vector-effect="non-scaling-stroke"  transform=" translate(-202.26, -62.59)" d="M 204.5 56.148438 C 205.257812 56.671875 205.6875 57.128906 206.195312 57.894531 C 206.324219 58.695312 206.324219 58.695312 206.324219 59.589844 C 206.324219 59.914062 206.324219 60.238281 206.324219 60.574219 C 206.320312 60.910156 206.3125 61.246094 206.308594 61.59375 C 206.308594 61.929688 206.3125 62.265625 206.3125 62.609375 C 206.300781 64.445312 206.269531 65.832031 205.0625 67.308594 C 203.820312 68.398438 202.4375 69.0625 200.824219 69.421875 C 200.226562 69.320312 200.226562 69.320312 199.800781 69.164062 C 199.714844 68.488281 199.632812 67.8125 199.546875 67.117188 C 199.792969 67.042969 200.042969 66.96875 200.300781 66.890625 C 200.628906 66.785156 200.960938 66.679688 201.289062 66.570312 C 201.453125 66.523438 201.617188 66.476562 201.785156 66.425781 C 202.742188 66.109375 203.089844 65.894531 203.625 65.019531 C 203.714844 64.78125 203.804688 64.542969 203.894531 64.296875 C 203.691406 64.308594 203.488281 64.316406 203.277344 64.324219 C 200.445312 64.398438 200.445312 64.398438 199.289062 63.53125 C 198.425781 62.550781 198.121094 61.8125 198.199219 60.492188 C 198.496094 57.984375 198.496094 57.984375 199.386719 56.886719 C 200.972656 55.636719 202.59375 55.476562 204.5 56.148438 Z M 200.824219 58.917969 C 200.695312 59.472656 200.695312 59.472656 200.648438 60.085938 C 200.625 60.292969 200.605469 60.5 200.582031 60.714844 C 200.578125 60.882812 200.574219 61.050781 200.570312 61.222656 C 200.851562 61.566406 200.851562 61.566406 201.578125 61.503906 C 201.882812 61.503906 202.1875 61.5 202.503906 61.496094 C 202.808594 61.496094 203.117188 61.492188 203.429688 61.488281 C 203.789062 61.484375 203.789062 61.484375 204.148438 61.480469 C 204.164062 61.113281 204.175781 60.746094 204.183594 60.375 C 204.1875 60.171875 204.195312 59.964844 204.199219 59.753906 C 204.191406 59.101562 204.191406 59.101562 203.636719 58.40625 C 203.09375 58.292969 203.09375 58.292969 202.488281 58.328125 C 202.183594 58.328125 202.183594 58.328125 201.871094 58.328125 C 201.28125 58.359375 201.28125 58.359375 200.824219 58.917969 Z M 200.824219 58.917969" stroke-linecap="round" />
</g>
		<g transform="matrix(1 0 0 1 -151.97 -54.21)"  >
<path style="stroke: none; stroke-width: 1; stroke-dasharray: none; stroke-linecap: butt; stroke-dashoffset: 0; stroke-linejoin: miter; stroke-miterlimit: 4; fill: rgb(243,243,243); fill-rule: nonzero; opacity: 1;" vector-effect="non-scaling-stroke"  transform=" translate(-71.54, -60.41)" d="M 63.699219 56.355469 C 64.375 56.355469 65.050781 56.355469 65.746094 56.355469 C 65.757812 56.621094 65.765625 56.886719 65.777344 57.160156 C 65.792969 57.511719 65.808594 57.863281 65.828125 58.214844 C 65.832031 58.390625 65.839844 58.5625 65.84375 58.742188 C 65.882812 59.472656 65.957031 60.097656 66.257812 60.765625 C 67.058594 61.484375 67.941406 61.355469 68.964844 61.332031 C 69.285156 61.332031 69.285156 61.332031 69.613281 61.332031 C 70.0625 61.328125 70.515625 61.324219 70.96875 61.316406 C 71.664062 61.304688 72.355469 61.300781 73.050781 61.296875 C 73.492188 61.292969 73.929688 61.289062 74.367188 61.285156 C 74.578125 61.285156 74.785156 61.28125 75 61.28125 C 75.953125 61.351562 75.953125 61.351562 76.75 60.96875 C 76.789062 60.625 76.8125 60.28125 76.828125 59.933594 C 76.84375 59.625 76.84375 59.625 76.863281 59.308594 C 76.871094 59.089844 76.882812 58.871094 76.890625 58.648438 C 76.910156 58.320312 76.910156 58.320312 76.925781 57.984375 C 76.953125 57.441406 76.976562 56.898438 77.003906 56.355469 C 77.765625 56.355469 78.523438 56.355469 79.304688 56.355469 C 79.335938 57.125 79.355469 57.894531 79.371094 58.664062 C 79.382812 58.984375 79.382812 58.984375 79.394531 59.3125 C 79.417969 60.832031 79.246094 62.058594 78.28125 63.273438 C 76.746094 64.746094 74.34375 64.445312 72.367188 64.417969 C 71.761719 64.410156 71.152344 64.414062 70.546875 64.417969 C 70.152344 64.414062 69.761719 64.414062 69.367188 64.410156 C 69.101562 64.410156 69.101562 64.410156 68.828125 64.410156 C 67.410156 64.386719 65.910156 64.152344 64.835938 63.15625 C 64.003906 62.179688 63.667969 61.570312 63.675781 60.308594 C 63.675781 60.082031 63.675781 59.851562 63.679688 59.613281 C 63.679688 59.375 63.683594 59.132812 63.683594 58.886719 C 63.6875 58.644531 63.6875 58.402344 63.6875 58.152344 C 63.691406 57.554688 63.695312 56.957031 63.699219 56.355469 Z M 63.699219 56.355469" stroke-linecap="round" />
</g>
		<g transform="matrix(1 0 0 1 -31.33 -55.39)"  >
<path style="stroke: none; stroke-width: 1; stroke-dasharray: none; stroke-linecap: butt; stroke-dashoffset: 0; stroke-linejoin: miter; stroke-miterlimit: 4; fill: rgb(243,243,243); fill-rule: nonzero; opacity: 1;" vector-effect="non-scaling-stroke"  transform=" translate(-192.18, -59.23)" d="M 189.824219 54.050781 C 191.167969 54.171875 192.089844 54.886719 193.164062 55.636719 C 193.4375 55.816406 193.4375 55.816406 193.714844 56 C 194.8125 56.757812 195.601562 57.449219 196.21875 58.664062 C 196.46875 60.050781 196.449219 61.507812 195.789062 62.777344 C 195.007812 63.769531 194.382812 64.234375 193.117188 64.410156 C 190.226562 64.414062 190.226562 64.414062 189.054688 63.273438 C 188.136719 61.972656 187.863281 60.761719 188.03125 59.175781 C 188.449219 58.09375 188.964844 57.382812 189.824219 56.613281 C 189.570312 56.445312 189.316406 56.273438 189.054688 56.101562 C 189.195312 55.238281 189.324219 54.800781 189.824219 54.050781 Z M 190.910156 58.550781 C 190.257812 59.148438 190.257812 59.148438 190.175781 60.070312 C 190.261719 60.988281 190.261719 60.988281 190.863281 61.609375 C 191.835938 62.105469 192.363281 62.011719 193.40625 61.738281 C 194.019531 61.226562 194.019531 61.226562 194.027344 60.230469 C 194.007812 59.355469 193.960938 59.222656 193.339844 58.535156 C 192.382812 58.011719 191.863281 58.007812 190.910156 58.550781 Z M 190.910156 58.550781" stroke-linecap="round" />
</g>
		<g transform="matrix(1 0 0 1 -76.49 -51.47)"  >
<path style="stroke: none; stroke-width: 1; stroke-dasharray: none; stroke-linecap: butt; stroke-dashoffset: 0; stroke-linejoin: miter; stroke-miterlimit: 4; fill: rgb(243,243,243); fill-rule: nonzero; opacity: 1;" vector-effect="non-scaling-stroke"  transform=" translate(-147.02, -63.15)" d="M 148.125 56.871094 C 148.882812 56.871094 149.644531 56.871094 150.425781 56.871094 C 150.445312 57.96875 150.460938 59.066406 150.46875 60.164062 C 150.472656 60.535156 150.476562 60.910156 150.484375 61.28125 C 150.492188 61.820312 150.496094 62.359375 150.5 62.898438 C 150.503906 63.222656 150.507812 63.546875 150.511719 63.878906 C 150.386719 65.242188 149.972656 66.21875 149.097656 67.292969 C 147.550781 68.566406 145.980469 69.054688 144.03125 69.421875 C 143.863281 68.660156 143.691406 67.898438 143.519531 67.117188 C 143.828125 67.027344 143.828125 67.027344 144.144531 66.9375 C 144.554688 66.8125 144.554688 66.8125 144.972656 66.683594 C 145.246094 66.605469 145.515625 66.523438 145.792969 66.441406 C 146.742188 66.023438 147.210938 65.613281 147.867188 64.8125 C 148.066406 63.921875 148.066406 63.921875 148.050781 62.949219 C 148.054688 62.773438 148.058594 62.601562 148.0625 62.421875 C 148.070312 61.867188 148.074219 61.3125 148.074219 60.761719 C 148.082031 60.382812 148.089844 60.007812 148.09375 59.628906 C 148.113281 58.710938 148.121094 57.789062 148.125 56.871094 Z M 148.125 56.871094" stroke-linecap="round" />
</g>
		<g transform="matrix(1 0 0 1 -98.66 -57.49)"  >
<path style="stroke: none; stroke-width: 1; stroke-dasharray: none; stroke-linecap: butt; stroke-dashoffset: 0; stroke-linejoin: miter; stroke-miterlimit: 4; fill: rgb(243,243,243); fill-rule: nonzero; opacity: 1;" vector-effect="non-scaling-stroke"  transform=" translate(-124.84, -57.13)" d="M 123.820312 49.953125 C 124.496094 49.953125 125.171875 49.953125 125.867188 49.953125 C 125.867188 54.6875 125.867188 59.421875 125.867188 64.296875 C 125.191406 64.296875 124.515625 64.296875 123.820312 64.296875 C 123.820312 59.566406 123.820312 54.832031 123.820312 49.953125 Z M 123.820312 49.953125" stroke-linecap="round" />
</g>
		<g transform="matrix(1 0 0 1 -12.96 -20.73)"  >
<path style="stroke: none; stroke-width: 1; stroke-dasharray: none; stroke-linecap: butt; stroke-dashoffset: 0; stroke-linejoin: miter; stroke-miterlimit: 4; fill: rgb(243,243,243); fill-rule: nonzero; opacity: 1;" vector-effect="non-scaling-stroke"  transform=" translate(-210.54, -93.88)" d="M 207.730469 91.195312 C 209.589844 91.195312 211.445312 91.195312 213.359375 91.195312 C 213.359375 92.210938 213.359375 93.226562 213.359375 94.269531 C 212.9375 94.269531 212.515625 94.269531 212.082031 94.269531 C 212.082031 95.03125 212.082031 95.792969 212.082031 96.574219 C 211.152344 96.574219 210.222656 96.574219 209.265625 96.574219 C 209.265625 95.816406 209.265625 95.054688 209.265625 94.269531 C 208.761719 94.269531 208.253906 94.269531 207.730469 94.269531 C 207.730469 93.253906 207.730469 92.242188 207.730469 91.195312 Z M 207.730469 91.195312" stroke-linecap="round" />
</g>
		<g transform="matrix(1 0 0 1 -91.75 -38.02)"  >
<path style="stroke: none; stroke-width: 1; stroke-dasharray: none; stroke-linecap: butt; stroke-dashoffset: 0; stroke-linejoin: miter; stroke-miterlimit: 4; fill: rgb(243,243,243); fill-rule: nonzero; opacity: 1;" vector-effect="non-scaling-stroke"  transform=" translate(-131.75, -76.59)" d="M 130.214844 74.03125 C 131.230469 74.03125 132.242188 74.03125 133.285156 74.03125 C 133.285156 74.710938 133.285156 75.386719 133.285156 76.082031 C 133.707031 76.082031 134.128906 76.082031 134.566406 76.082031 C 134.566406 77.097656 134.566406 78.109375 134.566406 79.15625 C 132.707031 79.15625 130.851562 79.15625 128.9375 79.15625 C 128.9375 78.140625 128.9375 77.128906 128.9375 76.082031 C 129.359375 76.082031 129.78125 76.082031 130.214844 76.082031 C 130.214844 75.40625 130.214844 74.730469 130.214844 74.03125 Z M 130.214844 74.03125" stroke-linecap="round" />
</g>
		<g transform="matrix(1 0 0 1 -32.91 -21.89)"  >
<path style="stroke: none; stroke-width: 1; stroke-dasharray: none; stroke-linecap: butt; stroke-dashoffset: 0; stroke-linejoin: miter; stroke-miterlimit: 4; fill: rgb(243,243,243); fill-rule: nonzero; opacity: 1;" vector-effect="non-scaling-stroke"  transform=" translate(-190.59, -92.73)" d="M 187.777344 91.195312 C 189.632812 91.195312 191.492188 91.195312 193.40625 91.195312 C 193.40625 92.210938 193.40625 93.226562 193.40625 94.269531 C 191.546875 94.269531 189.691406 94.269531 187.777344 94.269531 C 187.777344 93.253906 187.777344 92.242188 187.777344 91.195312 Z M 187.777344 91.195312" stroke-linecap="round" />
</g>
		<g transform="matrix(1 0 0 1 -3.62 -62.49)"  >
<path style="stroke: none; stroke-width: 1; stroke-dasharray: none; stroke-linecap: butt; stroke-dashoffset: 0; stroke-linejoin: miter; stroke-miterlimit: 4; fill: rgb(243,243,243); fill-rule: nonzero; opacity: 1;" vector-effect="non-scaling-stroke"  transform=" translate(-219.88, -52.13)" d="M 221.546875 48.929688 C 221.882812 49.097656 222.222656 49.265625 222.570312 49.441406 C 222.570312 50.679688 222.316406 50.890625 221.53125 51.808594 C 221.320312 52.054688 221.113281 52.300781 220.898438 52.554688 C 220.691406 52.796875 220.480469 53.035156 220.265625 53.28125 C 220.085938 53.496094 219.902344 53.707031 219.714844 53.921875 C 219.304688 54.394531 218.890625 54.863281 218.476562 55.332031 C 217.84375 55.078125 217.84375 55.078125 217.199219 54.820312 C 217.199219 53.792969 217.566406 53.515625 218.21875 52.738281 C 218.53125 52.367188 218.53125 52.367188 218.851562 51.988281 C 219.738281 50.957031 220.632812 49.9375 221.546875 48.929688 Z M 221.546875 48.929688" stroke-linecap="round" />
</g>
		<g transform="matrix(1 0 0 1 5.33 -21.89)"  >
<path style="stroke: none; stroke-width: 1; stroke-dasharray: none; stroke-linecap: butt; stroke-dashoffset: 0; stroke-linejoin: miter; stroke-miterlimit: 4; fill: rgb(243,243,243); fill-rule: nonzero; opacity: 1;" vector-effect="non-scaling-stroke"  transform=" translate(-228.84, -92.73)" d="M 227.429688 91.195312 C 228.359375 91.195312 229.289062 91.195312 230.246094 91.195312 C 230.246094 92.210938 230.246094 93.226562 230.246094 94.269531 C 229.316406 94.269531 228.386719 94.269531 227.429688 94.269531 C 227.429688 93.253906 227.429688 92.242188 227.429688 91.195312 Z M 227.429688 91.195312" stroke-linecap="round" />
</g>
		<g transform="matrix(1 0 0 1 -48.9 -35.46)"  >
<path style="stroke: none; stroke-width: 1; stroke-dasharray: none; stroke-linecap: butt; stroke-dashoffset: 0; stroke-linejoin: miter; stroke-miterlimit: 4; fill: rgb(243,243,243); fill-rule: nonzero; opacity: 1;" vector-effect="non-scaling-stroke"  transform=" translate(-174.6, -79.16)" d="M 173.195312 77.621094 C 174.125 77.621094 175.050781 77.621094 176.007812 77.621094 C 176.007812 78.632812 176.007812 79.648438 176.007812 80.691406 C 175.082031 80.691406 174.152344 80.691406 173.195312 80.691406 C 173.195312 79.679688 173.195312 78.664062 173.195312 77.621094 Z M 173.195312 77.621094" stroke-linecap="round" />
</g>
		<g transform="matrix(1 0 0 1 -114.65 -37)"  >
<path style="stroke: none; stroke-width: 1; stroke-dasharray: none; stroke-linecap: butt; stroke-dashoffset: 0; stroke-linejoin: miter; stroke-miterlimit: 4; fill: rgb(243,243,243); fill-rule: nonzero; opacity: 1;" vector-effect="non-scaling-stroke"  transform=" translate(-108.86, -77.62)" d="M 107.449219 76.082031 C 108.375 76.082031 109.304688 76.082031 110.261719 76.082031 C 110.261719 77.097656 110.261719 78.109375 110.261719 79.15625 C 109.332031 79.15625 108.402344 79.15625 107.449219 79.15625 C 107.449219 78.140625 107.449219 77.128906 107.449219 76.082031 Z M 107.449219 76.082031" stroke-linecap="round" />
</g>
		<g transform="matrix(1 0 0 1 -150.47 -59.29)"  >
<path style="stroke: none; stroke-width: 1; stroke-dasharray: none; stroke-linecap: butt; stroke-dashoffset: 0; stroke-linejoin: miter; stroke-miterlimit: 4; fill: rgb(243,243,243); fill-rule: nonzero; opacity: 1;" vector-effect="non-scaling-stroke"  transform=" translate(-73.04, -55.33)" d="M 71.886719 54.050781 C 72.648438 54.050781 73.40625 54.050781 74.191406 54.050781 C 74.191406 54.898438 74.191406 55.742188 74.191406 56.613281 C 73.429688 56.613281 72.671875 56.613281 71.886719 56.613281 C 71.886719 55.769531 71.886719 54.921875 71.886719 54.050781 Z M 71.886719 54.050781" stroke-linecap="round" />
</g>
		<g transform="matrix(1 0 0 1 -153.79 -59.29)"  >
<path style="stroke: none; stroke-width: 1; stroke-dasharray: none; stroke-linecap: butt; stroke-dashoffset: 0; stroke-linejoin: miter; stroke-miterlimit: 4; fill: rgb(243,243,243); fill-rule: nonzero; opacity: 1;" vector-effect="non-scaling-stroke"  transform=" translate(-69.71, -55.33)" d="M 68.5625 54.050781 C 69.320312 54.050781 70.082031 54.050781 70.863281 54.050781 C 70.863281 54.898438 70.863281 55.742188 70.863281 56.613281 C 70.105469 56.613281 69.34375 56.613281 68.5625 56.613281 C 68.5625 55.769531 68.5625 54.921875 68.5625 54.050781 Z M 68.5625 54.050781" stroke-linecap="round" />
</g>
		<g transform="matrix(1 0 0 1 -52.1 -60.69)"  >
<path style="stroke: none; stroke-width: 1; stroke-dasharray: none; stroke-linecap: butt; stroke-dashoffset: 0; stroke-linejoin: miter; stroke-miterlimit: 4; fill: rgb(243,243,243); fill-rule: nonzero; opacity: 1;" vector-effect="non-scaling-stroke"  transform=" translate(-171.4, -53.92)" d="M 170.125 52.769531 C 170.96875 52.769531 171.8125 52.769531 172.683594 52.769531 C 172.683594 53.53125 172.683594 54.292969 172.683594 55.078125 C 171.839844 55.078125 170.996094 55.078125 170.125 55.078125 C 170.125 54.316406 170.125 53.554688 170.125 52.769531 Z M 170.125 52.769531" stroke-linecap="round" />
</g>
		<g transform="matrix(1 0 0 1 -43.53 -65.31)"  >
<path style="stroke: none; stroke-width: 1; stroke-dasharray: none; stroke-linecap: butt; stroke-dashoffset: 0; stroke-linejoin: miter; stroke-miterlimit: 4; fill: rgb(243,243,243); fill-rule: nonzero; opacity: 1;" vector-effect="non-scaling-stroke"  transform=" translate(-179.97, -49.31)" d="M 178.824219 48.160156 C 179.582031 48.160156 180.34375 48.160156 181.125 48.160156 C 181.125 48.921875 181.125 49.679688 181.125 50.464844 C 180.367188 50.464844 179.605469 50.464844 178.824219 50.464844 C 178.824219 49.703125 178.824219 48.945312 178.824219 48.160156 Z M 178.824219 48.160156" stroke-linecap="round" />
</g>
		<g transform="matrix(1 0 0 1 78.88 -58.39)"  >
<path style="stroke: none; stroke-width: 1; stroke-dasharray: none; stroke-linecap: butt; stroke-dashoffset: 0; stroke-linejoin: miter; stroke-miterlimit: 4; fill: rgb(243,243,243); fill-rule: nonzero; opacity: 1;" vector-effect="non-scaling-stroke"  transform=" translate(-302.39, -56.23)" d="M 304.945312 53.28125 C 305.113281 53.367188 305.285156 53.453125 305.457031 53.539062 C 303.601562 55.398438 301.742188 57.257812 299.828125 59.175781 C 299.660156 59.089844 299.492188 59.007812 299.316406 58.917969 C 300.449219 57.59375 301.59375 56.367188 302.925781 55.242188 C 303.636719 54.625 304.289062 53.957031 304.945312 53.28125 Z M 304.945312 53.28125" stroke-linecap="round" />
</g>
		<g transform="matrix(1 0 0 1 -34.32 -6.26)"  >
<path style="stroke: none; stroke-width: 1; stroke-dasharray: none; stroke-linecap: butt; stroke-dashoffset: 0; stroke-linejoin: miter; stroke-miterlimit: 4; fill: rgb(243,243,243); fill-rule: nonzero; opacity: 1;" vector-effect="non-scaling-stroke"  transform=" translate(-189.18, -108.36)" d="M 190.847656 106.308594 C 191.015625 106.394531 191.183594 106.480469 191.359375 106.566406 C 190.09375 107.835938 188.824219 109.101562 187.519531 110.410156 C 187.351562 110.324219 187.183594 110.238281 187.007812 110.152344 C 188.21875 108.769531 189.390625 107.433594 190.847656 106.308594 Z M 190.847656 106.308594" stroke-linecap="round" />
</g>
		<g transform="matrix(1 0 0 1 -104.42 62.01)"  >
<path style="stroke: none; stroke-width: 1; stroke-dasharray: none; stroke-linecap: butt; stroke-dashoffset: 0; stroke-linejoin: miter; stroke-miterlimit: 4; fill: rgb(243,243,243); fill-rule: nonzero; opacity: 1;" vector-effect="non-scaling-stroke"  transform=" translate(-119.09, -176.63)" d="M 120.238281 175.21875 C 119.878906 176.042969 119.445312 176.582031 118.800781 177.203125 C 118.558594 177.441406 118.558594 177.441406 118.308594 177.679688 C 118.1875 177.800781 118.0625 177.917969 117.9375 178.039062 C 117.9375 177.078125 118.175781 176.898438 118.800781 176.195312 C 118.960938 176.011719 119.121094 175.828125 119.285156 175.640625 C 119.726562 175.21875 119.726562 175.21875 120.238281 175.21875 Z M 120.238281 175.21875" stroke-linecap="round" />
</g>
		<g transform="matrix(1 0 0 1 62.64 -1.9)"  >
<path style="stroke: none; stroke-width: 1; stroke-dasharray: none; stroke-linecap: butt; stroke-dashoffset: 0; stroke-linejoin: miter; stroke-miterlimit: 4; fill: rgb(243,243,243); fill-rule: nonzero; opacity: 1;" vector-effect="non-scaling-stroke"  transform=" translate(-286.14, -112.71)" d="M 287.039062 111.433594 C 287.207031 111.519531 287.375 111.601562 287.550781 111.691406 C 286.789062 112.449219 286.03125 113.210938 285.246094 113.996094 C 285.078125 113.910156 284.910156 113.828125 284.734375 113.738281 C 285.449219 112.847656 286.078125 112.074219 287.039062 111.433594 Z M 287.039062 111.433594" stroke-linecap="round" />
</g>
		<g transform="matrix(1 0 0 1 104.34 -15.74)"  >
<path style="stroke: none; stroke-width: 1; stroke-dasharray: none; stroke-linecap: butt; stroke-dashoffset: 0; stroke-linejoin: miter; stroke-miterlimit: 4; fill: rgb(243,243,243); fill-rule: nonzero; opacity: 1;" vector-effect="non-scaling-stroke"  transform=" translate(-327.84, -98.88)" d="M 328.480469 97.601562 C 328.652344 97.683594 328.820312 97.769531 328.992188 97.855469 C 328.234375 98.617188 327.472656 99.378906 326.691406 100.164062 C 326.691406 99.148438 327.050781 98.851562 327.714844 98.113281 C 327.96875 97.945312 328.222656 97.773438 328.480469 97.601562 Z M 328.480469 97.601562" stroke-linecap="round" />
</g>
		<g transform="matrix(1 0 0 1 -108.51 -33.28)"  >
<path style="stroke: none; stroke-width: 1; stroke-dasharray: none; stroke-linecap: butt; stroke-dashoffset: 0; stroke-linejoin: miter; stroke-miterlimit: 4; fill: rgb(243,243,243); fill-rule: nonzero; opacity: 1;" vector-effect="non-scaling-stroke"  transform=" translate(-114.99, -81.33)" d="M 115.632812 79.925781 C 115.800781 80.007812 115.972656 80.09375 116.144531 80.179688 C 116.023438 80.300781 115.898438 80.421875 115.773438 80.546875 C 115.53125 80.785156 115.53125 80.785156 115.28125 81.03125 C 115.121094 81.1875 114.960938 81.34375 114.796875 81.507812 C 114.308594 81.996094 114.308594 81.996094 113.84375 82.742188 C 113.972656 81.613281 114.359375 81.011719 115.121094 80.179688 C 115.292969 80.097656 115.460938 80.011719 115.632812 79.925781 Z M 115.632812 79.925781" stroke-linecap="round" />
</g>
		<g transform="matrix(1 0 0 1 128 -46.86)"  >
<path style="stroke: none; stroke-width: 1; stroke-dasharray: none; stroke-linecap: butt; stroke-dashoffset: 0; stroke-linejoin: miter; stroke-miterlimit: 4; fill: rgb(243,243,243); fill-rule: nonzero; opacity: 1;" vector-effect="non-scaling-stroke"  transform=" translate(-351.51, -67.76)" d="M 352.53125 66.605469 C 352.125 67.699219 351.378906 68.207031 350.484375 68.910156 C 350.820312 67.902344 351.316406 66.605469 352.53125 66.605469 Z M 352.53125 66.605469" stroke-linecap="round" />
</g>
		<g transform="matrix(1 0 0 1 -86.51 -58.13)"  >
<path style="stroke: none; stroke-width: 1; stroke-dasharray: none; stroke-linecap: butt; stroke-dashoffset: 0; stroke-linejoin: miter; stroke-miterlimit: 4; fill: rgb(243,243,243); fill-rule: nonzero; opacity: 1;" vector-effect="non-scaling-stroke"  transform=" translate(-137, -56.48)" d="M 137.636719 55.332031 C 137.804688 55.417969 137.972656 55.5 138.148438 55.589844 C 137.472656 56.265625 136.796875 56.941406 136.101562 57.636719 C 136.015625 57.46875 135.929688 57.300781 135.84375 57.125 C 137.058594 55.621094 137.058594 55.621094 137.636719 55.332031 Z M 137.636719 55.332031" stroke-linecap="round" />
</g>
		<g transform="matrix(1 0 0 1 94.1 -25.73)"  >
<path style="stroke: none; stroke-width: 1; stroke-dasharray: none; stroke-linecap: butt; stroke-dashoffset: 0; stroke-linejoin: miter; stroke-miterlimit: 4; fill: rgb(243,243,243); fill-rule: nonzero; opacity: 1;" vector-effect="non-scaling-stroke"  transform=" translate(-317.61, -88.89)" d="M 317.738281 87.867188 C 317.992188 87.949219 318.242188 88.035156 318.503906 88.121094 C 317.914062 88.714844 317.324219 89.304688 316.714844 89.914062 C 316.714844 88.914062 317.097656 88.605469 317.738281 87.867188 Z M 317.738281 87.867188" stroke-linecap="round" />
</g>
		<g transform="matrix(1 0 0 1 0.34 -63.9)"  >
<path style="stroke: none; stroke-width: 1; stroke-dasharray: none; stroke-linecap: butt; stroke-dashoffset: 0; stroke-linejoin: miter; stroke-miterlimit: 4; fill: rgb(243,243,243); fill-rule: nonzero; opacity: 1;" vector-effect="non-scaling-stroke"  transform=" translate(-223.85, -50.72)" d="M 224.105469 49.953125 C 224.359375 50.039062 224.609375 50.121094 224.871094 50.210938 C 224.28125 50.847656 224.28125 50.847656 223.59375 51.488281 C 223.339844 51.488281 223.085938 51.488281 222.824219 51.488281 C 223.246094 50.984375 223.667969 50.476562 224.105469 49.953125 Z M 224.105469 49.953125" stroke-linecap="round" />
</g>
		<g transform="matrix(1 0 0 1 -81.65 -33.67)"  >
<path style="stroke: none; stroke-width: 1; stroke-dasharray: none; stroke-linecap: butt; stroke-dashoffset: 0; stroke-linejoin: miter; stroke-miterlimit: 4; fill: rgb(243,243,243); fill-rule: nonzero; opacity: 1;" vector-effect="non-scaling-stroke"  transform=" translate(-141.86, -80.95)" d="M 142.238281 79.925781 C 142.410156 80.007812 142.578125 80.09375 142.75 80.179688 C 142.160156 80.773438 141.570312 81.363281 140.960938 81.972656 C 140.960938 81.207031 140.960938 81.207031 141.601562 80.515625 C 141.8125 80.320312 142.023438 80.125 142.238281 79.925781 Z M 142.238281 79.925781" stroke-linecap="round" />
</g>
		<g transform="matrix(1 0 0 1 -23.58 -57.49)"  >
<path style="stroke: none; stroke-width: 1; stroke-dasharray: none; stroke-linecap: butt; stroke-dashoffset: 0; stroke-linejoin: miter; stroke-miterlimit: 4; fill: rgb(243,243,243); fill-rule: nonzero; opacity: 1;" vector-effect="non-scaling-stroke"  transform=" translate(-199.93, -57.13)" d="M 200.3125 56.101562 C 200.480469 56.1875 200.648438 56.269531 200.824219 56.355469 C 200.234375 56.949219 199.640625 57.539062 199.035156 58.152344 C 199.035156 57.382812 199.035156 57.382812 199.671875 56.695312 C 199.882812 56.496094 200.09375 56.300781 200.3125 56.101562 Z M 200.3125 56.101562" stroke-linecap="round" />
</g>
</g>
</g>
</svg>