<?xml version="1.0" encoding="UTF-8"?>
<svg xmlns="http://www.w3.org/2000/svg" xmlns:xlink="http://www.w3.org/1999/xlink" width="150px" height="20px" viewBox="0 0 153 20" version="1.1">
<g id="surface1">
<path style=" stroke:none;fill-rule:nonzero;fill:rgb(99.607843%,44.705882%,29.803922%);fill-opacity:1;" d="M 9.695312 11.476562 C 8.78125 12.53125 7.40625 13.058594 5.578125 13.058594 C 3.746094 13.058594 2.367188 12.53125 1.4375 11.476562 C 0.523438 10.410156 0.0664062 8.855469 0.0664062 6.816406 C 0.0664062 4.605469 0.515625 2.992188 1.417969 1.976562 C 2.320312 0.949219 3.707031 0.4375 5.578125 0.4375 C 7.445312 0.4375 8.828125 0.949219 9.714844 1.976562 C 10.617188 2.992188 11.066406 4.605469 11.066406 6.816406 C 11.066406 8.855469 10.609375 10.410156 9.695312 11.476562 Z M 2.75 10.296875 C 3.375 11.058594 4.316406 11.4375 5.578125 11.4375 C 8.070312 11.4375 9.316406 9.898438 9.316406 6.816406 C 9.316406 5.097656 9.011719 3.871094 8.402344 3.136719 C 7.804688 2.402344 6.863281 2.039062 5.578125 2.039062 C 4.277344 2.039062 3.328125 2.402344 2.730469 3.136719 C 2.136719 3.871094 1.835938 5.097656 1.835938 6.816406 C 1.835938 8.363281 2.140625 9.523438 2.75 10.296875 Z M 15.644531 8.738281 L 15.644531 12.855469 L 13.894531 12.855469 L 13.894531 0.617188 L 15.644531 0.617188 L 15.644531 6.378906 L 20.875 0.617188 L 22.925781 0.617188 L 18.546875 5.539062 L 23.0625 12.855469 L 21.214844 12.855469 L 17.472656 6.757812 Z M 29.726562 8.378906 L 27.578125 8.378906 L 27.578125 12.855469 L 25.828125 12.855469 L 25.828125 0.617188 L 31.097656 0.617188 C 32.359375 0.617188 33.292969 0.964844 33.902344 1.65625 C 34.515625 2.335938 34.820312 3.277344 34.820312 4.476562 C 34.820312 5.398438 34.601562 6.164062 34.164062 6.777344 C 33.738281 7.378906 33.128906 7.789062 32.332031 8.015625 C 32.558594 8.125 32.730469 8.257812 32.847656 8.417969 C 32.980469 8.578125 33.109375 8.808594 33.226562 9.117188 L 34.800781 12.855469 L 32.96875 12.855469 L 31.535156 9.398438 C 31.378906 8.996094 31.179688 8.730469 30.941406 8.597656 C 30.699219 8.449219 30.296875 8.378906 29.726562 8.378906 Z M 33.089844 4.476562 C 33.089844 2.929688 32.339844 2.15625 30.839844 2.15625 L 27.578125 2.15625 L 27.578125 6.835938 L 30.640625 6.835938 C 32.273438 6.835938 33.089844 6.050781 33.089844 4.476562 Z M 33.089844 4.476562 "/>
<path style=" stroke:none;fill-rule:nonzero;fill:rgb(100%,100%,100%);fill-opacity:1;" d="M 50.242188 9.136719 C 50.242188 9.84375 50.363281 10.355469 50.601562 10.675781 C 50.851562 10.984375 51.21875 11.136719 51.695312 11.136719 L 52.171875 11.136719 C 52.238281 11.136719 52.285156 11.195312 52.3125 11.316406 C 52.351562 11.421875 52.371094 11.65625 52.371094 12.015625 C 52.371094 12.363281 52.351562 12.589844 52.3125 12.695312 C 52.285156 12.804688 52.238281 12.855469 52.171875 12.855469 L 51.695312 12.855469 C 50.222656 12.855469 49.332031 12.222656 49.027344 10.957031 C 48.75 11.265625 48.351562 11.496094 47.835938 11.65625 C 47.316406 11.804688 46.765625 11.878906 46.183594 11.878906 C 45.054688 11.878906 44.195312 11.570312 43.597656 10.957031 C 43 10.34375 42.703125 9.445312 42.703125 8.257812 C 42.703125 7.511719 42.859375 6.832031 43.179688 6.21875 C 43.511719 5.589844 43.96875 5.097656 44.550781 4.738281 C 45.148438 4.363281 45.824219 4.175781 46.582031 4.175781 L 48.589844 4.175781 L 48.589844 2.796875 L 50.242188 2.796875 Z M 44.351562 8.21875 C 44.351562 9.511719 44.996094 10.15625 46.28125 10.15625 C 46.984375 10.15625 47.542969 10.03125 47.953125 9.777344 C 48.378906 9.511719 48.589844 9.15625 48.589844 8.71875 L 48.589844 5.855469 L 46.582031 5.855469 C 45.890625 5.855469 45.347656 6.0625 44.949219 6.476562 C 44.550781 6.890625 44.351562 7.46875 44.351562 8.21875 Z M 53.757812 11.136719 C 54.75 11.136719 55.582031 11.058594 56.242188 10.898438 C 56.90625 10.738281 57.589844 10.457031 58.292969 10.058594 L 61.316406 8.277344 C 61.105469 7.558594 60.8125 7.058594 60.441406 6.777344 C 60.082031 6.496094 59.539062 6.355469 58.808594 6.355469 L 54.15625 6.355469 L 54.375 4.617188 L 59.089844 4.617188 C 59.882812 4.617188 60.542969 4.75 61.058594 5.015625 C 61.574219 5.285156 62.007812 5.722656 62.351562 6.335938 C 62.695312 6.9375 62.996094 7.769531 63.246094 8.835938 L 59.070312 11.4375 C 58.21875 11.96875 57.40625 12.34375 56.621094 12.558594 C 55.839844 12.757812 54.863281 12.855469 53.699219 12.855469 L 52.363281 12.855469 C 52.230469 12.855469 52.164062 12.578125 52.164062 12.015625 C 52.164062 11.429688 52.230469 11.136719 52.363281 11.136719 Z M 56.660156 2.277344 L 56.660156 0.617188 L 58.769531 0.617188 L 58.769531 2.277344 Z M 68.882812 9.597656 C 68.882812 10.089844 69.019531 10.46875 69.300781 10.738281 C 69.589844 11.003906 70.007812 11.136719 70.550781 11.136719 L 70.8125 11.136719 C 70.945312 11.136719 71.011719 11.429688 71.011719 12.015625 C 71.011719 12.578125 70.945312 12.855469 70.8125 12.855469 L 70.550781 12.855469 C 70.195312 12.855469 69.863281 12.796875 69.558594 12.675781 C 69.253906 12.542969 69.027344 12.378906 68.882812 12.175781 L 68.882812 12.417969 C 68.867188 13.484375 68.640625 14.417969 68.203125 15.21875 C 67.765625 16.03125 67.15625 16.652344 66.375 17.078125 C 65.59375 17.515625 64.691406 17.738281 63.667969 17.738281 L 62.277344 17.738281 L 62.117188 16.015625 L 63.628906 16.015625 C 64.757812 16.015625 65.636719 15.683594 66.273438 15.015625 C 66.910156 14.363281 67.230469 13.449219 67.230469 12.277344 L 67.230469 6.417969 L 68.882812 6.417969 Z M 72.398438 11.136719 C 73.394531 11.136719 74.222656 11.058594 74.882812 10.898438 C 75.546875 10.738281 76.230469 10.457031 76.933594 10.058594 L 79.957031 8.277344 C 79.746094 7.558594 79.453125 7.058594 79.082031 6.777344 C 78.722656 6.496094 78.179688 6.355469 77.449219 6.355469 L 72.796875 6.355469 L 73.015625 4.617188 L 77.730469 4.617188 C 78.527344 4.617188 79.183594 4.75 79.699219 5.015625 C 80.214844 5.285156 80.648438 5.722656 80.992188 6.335938 C 81.335938 6.9375 81.636719 7.769531 81.886719 8.835938 L 77.710938 11.4375 C 76.859375 11.96875 76.046875 12.34375 75.261719 12.558594 C 74.480469 12.757812 73.503906 12.855469 72.339844 12.855469 L 71.003906 12.855469 C 70.871094 12.855469 70.804688 12.578125 70.804688 12.015625 C 70.804688 11.429688 70.871094 11.136719 71.003906 11.136719 Z M 78.367188 15.378906 L 78.367188 16.957031 L 73.113281 16.957031 L 73.113281 15.378906 Z M 74.863281 19.695312 L 74.863281 18.117188 L 76.617188 18.117188 L 76.617188 19.695312 Z M 100.152344 11.136719 C 100.667969 11.136719 101.078125 11.011719 101.382812 10.757812 C 101.6875 10.492188 101.839844 10.128906 101.839844 9.675781 L 101.839844 6.417969 L 103.492188 6.417969 L 103.492188 9.617188 C 103.492188 10.109375 103.625 10.492188 103.890625 10.757812 C 104.167969 11.011719 104.574219 11.136719 105.105469 11.136719 L 105.640625 11.136719 C 105.773438 11.136719 105.839844 11.429688 105.839844 12.015625 C 105.839844 12.578125 105.773438 12.855469 105.640625 12.855469 L 105.042969 12.855469 C 103.824219 12.855469 103.027344 12.464844 102.65625 11.675781 C 102.191406 12.464844 101.359375 12.855469 100.152344 12.855469 L 93.128906 12.855469 C 91.960938 12.855469 91.078125 12.550781 90.480469 11.9375 C 89.898438 11.324219 89.605469 10.476562 89.605469 9.398438 L 89.605469 6.417969 L 91.257812 6.417969 L 91.257812 9.175781 C 91.257812 10.484375 91.914062 11.136719 93.226562 11.136719 Z M 99.15625 3.15625 L 99.15625 4.738281 L 93.902344 4.738281 L 93.902344 3.15625 Z M 110.628906 11.136719 C 111.105469 11.136719 111.492188 11.011719 111.785156 10.757812 C 112.074219 10.492188 112.222656 10.125 112.222656 9.65625 L 112.222656 6.417969 L 113.894531 6.417969 L 113.894531 9.675781 C 113.894531 10.664062 113.59375 11.445312 112.996094 12.015625 C 112.402344 12.578125 111.613281 12.855469 110.628906 12.855469 L 105.835938 12.855469 C 105.703125 12.855469 105.636719 12.578125 105.636719 12.015625 C 105.636719 11.429688 105.703125 11.136719 105.835938 11.136719 Z M 111.285156 15.378906 L 111.285156 16.957031 L 106.035156 16.957031 L 106.035156 15.378906 Z M 114.886719 16.015625 C 116.011719 16.015625 116.894531 15.683594 117.53125 15.015625 C 118.167969 14.363281 118.488281 13.449219 118.488281 12.277344 L 118.488281 6.417969 L 120.136719 6.417969 L 120.136719 9.597656 C 120.136719 10.089844 120.277344 10.46875 120.554688 10.738281 C 120.847656 11.003906 121.265625 11.136719 121.808594 11.136719 L 122.066406 11.136719 C 122.199219 11.136719 122.265625 11.429688 122.265625 12.015625 C 122.265625 12.578125 122.199219 12.855469 122.066406 12.855469 L 121.808594 12.855469 C 121.449219 12.855469 121.121094 12.796875 120.8125 12.675781 C 120.507812 12.542969 120.285156 12.378906 120.136719 12.175781 L 120.136719 12.417969 C 120.125 13.484375 119.898438 14.417969 119.460938 15.21875 C 119.023438 16.03125 118.414062 16.652344 117.632812 17.078125 C 116.847656 17.515625 115.945312 17.738281 114.925781 17.738281 L 114.367188 17.738281 L 114.210938 16.015625 Z M 127.054688 11.136719 C 127.535156 11.136719 127.917969 11.011719 128.210938 10.757812 C 128.503906 10.492188 128.648438 10.125 128.648438 9.65625 L 128.648438 6.417969 L 130.320312 6.417969 L 130.320312 9.675781 C 130.320312 10.664062 130.019531 11.445312 129.421875 12.015625 C 128.828125 12.578125 128.039062 12.855469 127.054688 12.855469 L 122.261719 12.855469 C 122.128906 12.855469 122.0625 12.578125 122.0625 12.015625 C 122.0625 11.429688 122.128906 11.136719 122.261719 11.136719 Z M 127.710938 15.378906 L 127.710938 16.957031 L 122.460938 16.957031 L 122.460938 15.378906 Z M 137.964844 11.136719 C 138.429688 11.136719 138.800781 11.039062 139.078125 10.835938 C 139.371094 10.636719 139.515625 10.378906 139.515625 10.058594 C 139.515625 9.789062 139.410156 9.351562 139.199219 8.738281 C 138.988281 8.125 138.429688 6.578125 137.527344 4.097656 C 137.488281 3.992188 137.449219 3.890625 137.410156 3.796875 C 137.367188 3.691406 137.335938 3.597656 137.308594 3.515625 L 138.839844 2.816406 L 141.167969 9.457031 C 141.382812 10.070312 141.621094 10.503906 141.886719 10.757812 C 142.148438 11.011719 142.515625 11.136719 142.980469 11.136719 L 143.398438 11.136719 C 143.53125 11.136719 143.597656 11.429688 143.597656 12.015625 C 143.597656 12.378906 143.574219 12.609375 143.535156 12.71875 C 143.507812 12.808594 143.464844 12.855469 143.398438 12.855469 L 142.917969 12.855469 C 142.308594 12.855469 141.804688 12.757812 141.40625 12.558594 C 141.007812 12.355469 140.699219 12.039062 140.472656 11.597656 C 140.21875 12.039062 139.890625 12.355469 139.476562 12.558594 C 139.078125 12.757812 138.574219 12.855469 137.964844 12.855469 L 133.308594 12.855469 L 133.152344 11.136719 Z M 144.0625 11.136719 C 145.003906 11.136719 145.472656 10.710938 145.472656 9.855469 L 145.472656 9.039062 C 145.472656 7.757812 145.8125 6.75 146.488281 6.015625 C 147.164062 5.285156 148.09375 4.917969 149.273438 4.917969 C 150.453125 4.917969 151.363281 5.265625 152 5.957031 C 152.636719 6.652344 152.953125 7.652344 152.953125 8.957031 C 152.953125 10.195312 152.621094 11.15625 151.960938 11.835938 C 151.296875 12.515625 150.382812 12.855469 149.214844 12.855469 C 147.835938 12.855469 146.90625 12.445312 146.429688 11.617188 C 146.203125 12.042969 145.90625 12.355469 145.535156 12.558594 C 145.160156 12.757812 144.671875 12.855469 144.0625 12.855469 L 143.605469 12.855469 C 143.472656 12.855469 143.40625 12.578125 143.40625 12.015625 C 143.40625 11.429688 143.472656 11.136719 143.605469 11.136719 Z M 151.304688 8.957031 C 151.304688 7.382812 150.605469 6.597656 149.214844 6.597656 C 148.511719 6.597656 147.988281 6.796875 147.640625 7.195312 C 147.296875 7.597656 147.125 8.210938 147.125 9.039062 C 147.125 9.691406 147.304688 10.203125 147.660156 10.578125 C 148.035156 10.949219 148.550781 11.136719 149.214844 11.136719 C 150.605469 11.136719 151.304688 10.410156 151.304688 8.957031 Z M 151.304688 8.957031 "/>
</g>
</svg>
