<svg version="1.1" id="Layer_1" xmlns="http://www.w3.org/2000/svg" xmlns:xlink="http://www.w3.org/1999/xlink" x="0px" y="0px"
	 width="100%" viewBox="0 0 1182 1182" enable-background="new 0 0 1182 1182" xml:space="preserve">
<path fill="#000000" opacity="1.000000" stroke="none" 
	d="
M775.000000,1183.000000 
	C516.666687,1183.000000 258.833344,1183.000000 1.000000,1183.000000 
	C1.000000,789.000000 1.000000,395.000000 1.000000,1.000000 
	C395.000000,1.000000 789.000000,1.000000 1183.000000,1.000000 
	C1183.000000,395.000000 1183.000000,789.000000 1183.000000,1183.000000 
	C1047.166626,1183.000000 911.333313,1183.000000 775.000000,1183.000000 
M871.107239,496.606354 
	C871.107239,496.606354 871.322876,496.650085 871.756409,496.824554 
	C871.756409,496.824554 872.185913,496.640350 872.192200,497.273285 
	C877.085571,502.523132 881.978882,507.772980 887.132446,513.491394 
	C887.415039,513.704590 887.697632,513.917786 888.283813,514.685364 
	C889.743774,515.785889 891.203735,516.886414 892.936401,518.634827 
	C893.489685,518.489624 894.042969,518.344482 894.138855,518.116577 
	C894.138855,518.116577 893.874878,518.499878 893.874878,518.499878 
	C893.874878,518.499878 894.115173,518.898071 893.945801,519.162659 
	C893.945801,519.162659 894.024170,519.478699 893.956665,519.967285 
	C894.265381,520.322693 894.574158,520.678040 895.112427,521.467896 
	C895.307922,521.747620 895.568481,521.938293 896.165527,522.562744 
	C896.755188,523.066345 897.344910,523.569946 898.134338,524.501587 
	C898.321838,524.773743 898.575745,524.950317 899.196716,525.589905 
	C900.421875,526.734192 901.647034,527.878540 903.132446,529.491394 
	C903.415039,529.704590 903.697632,529.917847 904.337769,530.731323 
	C912.188171,538.501221 920.038513,546.271118 928.285645,554.688782 
	C930.175232,555.458191 932.044067,556.824890 933.958069,556.891418 
	C941.428955,557.151001 948.915466,557.077881 956.393311,556.956665 
	C958.966003,556.914978 961.530457,556.371216 965.023010,556.019958 
	C977.882507,556.019958 990.742004,556.019958 1003.601440,556.019958 
	C1003.727844,555.529053 1003.854187,555.038086 1003.980530,554.547180 
	C975.758423,526.336060 947.536316,498.124939 918.782959,469.382812 
	C921.805420,468.348572 923.971313,467.619476 926.129089,466.867249 
	C954.862061,456.850677 976.393005,438.285767 989.789001,411.092499 
	C1000.443420,389.464417 1003.559692,366.479614 999.168640,342.452087 
	C993.695923,312.506287 978.314697,289.066833 953.814697,271.544678 
	C937.319092,259.747162 918.750000,252.422134 898.411682,252.170776 
	C854.093750,251.623047 809.764221,252.034149 765.439636,251.952469 
	C760.655762,251.943649 756.972290,253.409042 753.530762,256.865051 
	C713.082947,297.482635 672.519836,337.985565 631.978943,378.510529 
	C630.652588,379.836273 629.238831,381.074646 627.000000,383.160400 
	C627.000000,379.813751 627.000000,377.844055 627.000000,375.874359 
	C626.999878,336.881927 626.941528,297.889282 627.080994,258.897369 
	C627.096558,254.539062 626.174194,252.794601 621.355408,252.886078 
	C605.364319,253.189682 589.362366,253.116638 573.367859,252.920578 
	C569.342041,252.871246 567.912781,253.901550 567.917603,258.174805 
	C568.027893,355.655762 568.034973,453.136932 567.900879,550.617859 
	C567.894531,555.231506 569.479065,556.138611 573.660156,556.082581 
	C589.320984,555.872559 604.989868,555.812317 620.647888,556.108582 
	C625.565613,556.201660 627.157104,555.024963 627.126343,549.808044 
	C626.894348,510.483704 626.999878,471.157379 627.000000,431.831696 
	C627.000000,429.917877 627.000000,428.004089 627.000000,426.090271 
	C627.765320,425.544769 628.530640,424.999268 629.295959,424.453766 
	C630.261719,426.200562 630.887756,428.286011 632.242554,429.644897 
	C673.068115,470.591949 713.943298,511.489746 754.926147,552.279175 
	C756.732300,554.076782 759.614624,555.811279 762.014343,555.836975 
	C786.340149,556.097595 810.669922,556.016052 834.998352,555.950623 
	C836.607117,555.946289 838.214172,555.290771 840.540344,554.780579 
	C790.136658,504.379486 740.489197,454.734589 690.786194,405.034119 
	C692.099182,403.562561 692.724426,402.788177 693.424133,402.088257 
	C724.878174,370.622375 756.301025,339.124847 787.901428,307.806488 
	C789.621460,306.101868 792.826965,305.131348 795.348572,305.116608 
	C826.174866,304.936523 857.004333,305.194336 887.829346,304.927673 
	C906.973816,304.762054 922.712952,311.559631 934.792664,326.352325 
	C946.243286,340.374847 950.493774,356.345245 946.400696,374.183075 
	C939.914307,402.451416 916.851685,419.528107 887.906555,419.916809 
	C859.750427,420.294952 831.585083,419.957550 803.424500,420.091064 
	C801.427856,420.100525 799.437439,421.400482 797.534851,422.748901 
	C798.088257,423.657166 798.641663,424.565430 799.544312,425.921722 
	C801.987061,428.288940 804.429810,430.656158 807.184692,433.532288 
	C807.523621,433.743408 807.862610,433.954498 808.341003,434.610809 
	C808.745972,434.806702 809.150940,435.002594 809.770691,435.809113 
	C810.100464,436.089233 810.430298,436.369354 811.078430,437.290833 
	C812.100830,437.732208 813.123230,438.173615 814.270508,438.364899 
	C814.270508,438.364899 814.040771,438.204071 814.040771,438.204071 
	C814.040771,438.204071 813.847229,438.406097 813.780334,438.526062 
	C813.780334,438.526062 813.874207,438.626312 813.399353,438.851715 
	C813.603516,439.281342 813.807739,439.710968 814.670410,440.645844 
	C815.205627,440.608429 815.740906,440.571045 816.212891,441.139435 
	C817.721985,442.307892 819.231140,443.476349 820.687439,445.427917 
	C821.113953,445.641876 821.540405,445.855835 821.441040,445.945251 
	C821.322693,446.081085 821.204407,446.216949 821.061218,446.413635 
	C821.061218,446.413635 821.061523,446.492889 821.016174,447.055573 
	C821.643555,447.720764 822.270874,448.385925 823.175110,449.549683 
	C824.096252,450.144043 825.017456,450.738434 825.931396,451.399261 
	C825.931396,451.399261 825.939209,451.468933 826.010132,452.074036 
	C826.775818,452.358429 827.541504,452.642853 828.172729,453.519073 
	C830.072571,455.687042 831.972351,457.855011 834.132446,460.491486 
	C834.415039,460.704651 834.697632,460.917847 835.302917,461.707062 
	C837.152954,463.356720 839.003052,465.006378 841.292053,466.803558 
	C841.292053,466.803558 841.719971,466.626587 842.088745,466.423798 
	C842.088745,466.423798 841.930664,466.033752 841.986755,466.811615 
	C842.451050,466.953979 842.915405,467.096344 843.228516,467.887238 
	C845.443176,470.599274 847.657837,473.311310 850.184692,476.532288 
	C850.523621,476.743408 850.862610,476.954498 851.385376,477.637329 
	C852.246033,477.857819 853.106628,478.078308 853.507996,478.464874 
	C853.965332,479.321320 854.422607,480.177795 855.173523,481.571838 
	C856.073181,482.389038 856.972839,483.206207 858.184692,484.532288 
	C858.523621,484.743378 858.862610,484.954498 859.552307,485.694122 
	C862.996948,489.142548 866.441528,492.590973 870.109131,496.419067 
	C870.455627,496.409454 870.802063,496.399872 871.107239,496.606354 
M326.385162,505.229950 
	C325.884003,506.140625 325.382812,507.051270 324.302246,508.303802 
	C320.871796,513.366760 317.221466,518.296631 314.059326,523.521912 
	C308.482391,532.737427 308.927582,532.076111 316.816193,535.971619 
	C318.888245,536.994873 320.776093,538.400757 322.869385,539.369934 
	C349.813019,551.844421 377.986115,556.449402 407.559448,553.099426 
	C423.510620,551.292542 438.658447,547.004089 453.191071,540.370239 
	C477.255707,529.385193 496.854736,512.815491 512.637573,491.770599 
	C530.835693,467.505249 540.296387,439.808136 541.725952,409.737335 
	C542.333740,396.953003 540.966492,383.857727 538.774109,371.202179 
	C534.121643,344.345459 521.927795,320.769073 503.836884,300.480194 
	C488.548035,283.333832 470.438171,269.914093 449.056519,260.933105 
	C423.033142,250.002441 396.047821,246.524414 368.274597,250.244385 
	C343.632660,253.544983 321.079926,262.638550 300.679718,277.075104 
	C279.663971,291.947266 263.470337,311.000916 252.192856,333.928101 
	C241.221054,356.233826 235.779556,380.002472 236.969467,405.080414 
	C237.418533,414.544708 237.791000,415.043335 247.122482,414.046875 
	C247.452927,414.011597 247.790985,414.046356 248.121063,414.009216 
	C260.271912,412.641022 272.426727,411.306152 284.569366,409.868408 
	C287.489685,409.522644 289.060455,408.168427 289.104645,404.681152 
	C289.198975,397.235626 289.020874,389.615173 290.518890,382.390808 
	C295.224792,359.696747 306.429321,340.756378 324.025024,325.302307 
	C352.879425,299.959930 397.270386,293.439087 431.914154,310.502380 
	C454.720245,321.735229 471.681366,338.758514 481.758148,362.368805 
	C489.296295,380.030823 491.993591,398.329712 488.719635,417.253845 
	C483.384338,448.093140 467.062439,471.793060 440.399963,487.947083 
	C416.429779,502.469971 390.483826,506.022705 363.436676,498.537720 
	C355.058441,496.219147 347.163025,492.155792 338.620483,488.425934 
	C336.049072,491.934937 333.477661,495.443939 330.967773,498.979797 
	C330.967773,498.979797 330.947510,498.915833 330.386414,499.228729 
	C329.892609,500.138702 329.398834,501.048676 328.967621,501.978210 
	C328.967621,501.978210 328.947479,501.915802 328.386383,502.228760 
	C327.892609,503.138733 327.398834,504.048706 326.967651,504.978271 
	C326.967651,504.978271 326.947571,504.915833 326.385162,505.229950 
M399.500000,614.000061 
	C344.748810,614.000061 289.997589,614.000061 235.235413,614.000061 
	C235.235413,698.310364 235.235413,781.909790 235.235413,865.998779 
	C237.581619,865.998779 239.701096,865.998779 241.820572,865.998779 
	C424.813049,865.998840 607.805481,865.998779 790.797974,865.998840 
	C792.131226,865.998840 793.553894,865.702271 794.776489,866.070251 
	C796.544556,866.602234 798.663208,867.194397 799.768921,868.495056 
	C805.279297,874.976562 810.499634,881.704346 815.836121,888.334106 
	C823.948242,898.412109 832.024414,908.519653 840.210632,918.537231 
	C844.407410,923.672913 848.809570,928.640686 853.118958,933.684326 
	C853.467468,933.545593 853.815918,933.406860 854.164429,933.268066 
	C854.164429,837.916626 854.164429,742.565125 854.164429,647.253052 
	C864.679871,647.253052 874.615662,647.253052 885.006714,647.253052 
	C885.006714,667.242981 885.006714,686.986633 885.006714,707.743042 
	C886.828247,706.699768 887.955444,706.237366 888.860962,705.501892 
	C891.850586,703.073669 894.450012,699.981323 897.759888,698.166382 
	C906.827881,693.194153 916.545593,691.565308 926.976990,692.891602 
	C939.569946,694.492676 949.476013,700.056824 957.069214,710.189270 
	C964.830200,720.545654 966.664124,732.623657 966.887390,744.909363 
	C967.287048,766.901184 967.004639,788.905518 966.990112,810.904602 
	C966.989075,812.507935 966.848572,814.111084 966.777466,815.617493 
	C956.292908,815.617493 946.237488,815.617493 936.254944,815.617493 
	C936.136292,814.910767 936.034302,814.586243 936.034058,814.261597 
	C936.017334,790.429443 936.154297,766.595398 935.853088,742.766907 
	C935.804138,738.899414 934.499146,734.673401 932.594055,731.274902 
	C927.159668,721.580322 918.089783,720.241882 907.819580,720.860535 
	C893.409790,721.728516 885.063904,733.486755 885.033569,746.035583 
	C884.941467,784.200500 885.000061,822.365723 885.000000,860.530823 
	C885.000000,862.283020 885.000000,864.035278 885.000000,865.748047 
	C926.007324,865.748047 966.274841,865.748047 1006.692261,865.748047 
	C1006.692261,781.779602 1006.692261,698.062378 1006.692261,614.000061 
	C804.423584,614.000061 602.461792,614.000061 399.500000,614.000061 
M321.498535,468.024689 
	C329.525085,456.326630 337.598358,444.660034 345.523712,432.893768 
	C346.610718,431.280029 346.961792,429.170593 347.653625,427.290680 
	C345.253174,426.598816 342.770233,425.115540 340.466919,425.355621 
	C331.702301,426.269135 322.995453,427.737518 314.267456,429.001648 
	C305.696411,430.243073 297.132690,431.537201 288.553497,432.719482 
	C277.854980,434.193848 267.147827,435.607727 256.437042,436.990570 
	C247.828522,438.102020 239.196533,439.037262 230.597534,440.215576 
	C219.590012,441.723907 208.608246,443.419189 197.609421,444.992371 
	C190.567032,445.999664 183.513931,446.932098 176.465622,447.898102 
	C182.265762,453.467438 188.489212,457.839569 194.659073,462.286072 
	C209.756882,473.166779 224.842133,484.065063 239.883041,495.024078 
	C240.806580,495.696991 241.747345,496.885773 241.924133,497.959076 
	C243.383347,506.818237 244.680054,515.704407 245.994888,524.587036 
	C248.108490,538.865967 250.198303,553.148438 252.493118,568.755310 
	C275.811432,534.709412 298.442047,501.667542 321.498535,468.024689 
M343.135559,382.852722 
	C341.405060,388.980988 338.593903,394.979004 340.810822,402.130768 
	C360.640778,399.504791 380.341248,396.895966 400.791565,394.187866 
	C395.684387,401.917236 391.011627,409.108307 386.216003,416.216431 
	C380.387177,424.855927 374.418213,433.400909 368.595825,442.044678 
	C367.310059,443.953552 365.757965,446.312347 369.312622,447.593781 
	C384.013397,452.893524 398.816254,453.326355 412.584869,445.511902 
	C432.554657,434.177948 442.510010,412.007812 436.156921,388.521118 
	C431.076996,369.741058 414.115875,355.030792 394.471191,353.109161 
	C372.269104,350.937378 353.511047,361.888397 343.135559,382.852722 
M815.631775,441.124695 
	C815.712463,441.203918 815.793213,441.283142 815.631775,441.124695 
z"/>
<path fill="#F95800" opacity="1.000000" stroke="none" 
	d="
M400.000000,614.000061 
	C602.461792,614.000061 804.423584,614.000061 1006.692261,614.000061 
	C1006.692261,698.062378 1006.692261,781.779602 1006.692261,865.748047 
	C966.274841,865.748047 926.007324,865.748047 885.000000,865.748047 
	C885.000000,864.035278 885.000000,862.283020 885.000000,860.530823 
	C885.000061,822.365723 884.941467,784.200500 885.033569,746.035583 
	C885.063904,733.486755 893.409790,721.728516 907.819580,720.860535 
	C918.089783,720.241882 927.159668,721.580322 932.594055,731.274902 
	C934.499146,734.673401 935.804138,738.899414 935.853088,742.766907 
	C936.154297,766.595398 936.017334,790.429443 936.034058,814.261597 
	C936.034302,814.586243 936.136292,814.910767 936.254944,815.617493 
	C946.237488,815.617493 956.292908,815.617493 966.777466,815.617493 
	C966.848572,814.111084 966.989075,812.507935 966.990112,810.904602 
	C967.004639,788.905518 967.287048,766.901184 966.887390,744.909363 
	C966.664124,732.623657 964.830200,720.545654 957.069214,710.189270 
	C949.476013,700.056824 939.569946,694.492676 926.976990,692.891602 
	C916.545593,691.565308 906.827881,693.194153 897.759888,698.166382 
	C894.450012,699.981323 891.850586,703.073669 888.860962,705.501892 
	C887.955444,706.237366 886.828247,706.699768 885.006714,707.743042 
	C885.006714,686.986633 885.006714,667.242981 885.006714,647.253052 
	C874.615662,647.253052 864.679871,647.253052 854.164429,647.253052 
	C854.164429,742.565125 854.164429,837.916626 854.164429,933.268066 
	C853.815918,933.406860 853.467468,933.545593 853.118958,933.684326 
	C848.809570,928.640686 844.407410,923.672913 840.210632,918.537231 
	C832.024414,908.519653 823.948242,898.412109 815.836121,888.334106 
	C810.499634,881.704346 805.279297,874.976562 799.768921,868.495056 
	C798.663208,867.194397 796.544556,866.602234 794.776489,866.070251 
	C793.553894,865.702271 792.131226,865.998840 790.797974,865.998840 
	C607.805481,865.998779 424.813049,865.998840 241.820572,865.998779 
	C239.701096,865.998779 237.581619,865.998779 235.235413,865.998779 
	C235.235413,781.909790 235.235413,698.310364 235.235413,614.000061 
	C289.997589,614.000061 344.748810,614.000061 400.000000,614.000061 
M710.545715,817.771729 
	C711.030457,817.181152 711.515198,816.590576 712.000000,815.062683 
	C712.000000,775.375122 712.000000,735.687561 711.593018,695.350647 
	C711.054504,694.988586 710.519348,694.316406 709.977051,694.310730 
	C700.373657,694.209106 690.761597,693.988403 681.173828,694.366211 
	C679.734802,694.422974 678.359436,697.323181 677.045898,698.980347 
	C675.802612,700.548828 674.679199,702.212402 673.240173,703.744202 
	C673.240173,703.744202 673.159485,703.478271 673.308899,702.779785 
	C671.657227,697.985413 670.266235,697.183167 666.225769,699.003357 
	C654.820312,692.701050 642.693970,690.946472 629.978577,693.519653 
	C616.221680,696.303589 605.055359,703.287415 596.189270,714.243042 
	C584.107117,729.172546 580.114990,746.544067 582.309082,764.955933 
	C584.188721,780.728516 591.361877,794.496338 603.677429,805.229614 
	C617.614319,817.375793 633.741760,821.784607 651.571350,817.870239 
	C658.971680,816.245544 665.798279,812.007324 673.662170,809.019531 
	C674.812866,810.347900 675.933472,811.703979 677.121765,812.997864 
	C678.650330,814.662170 680.164551,817.608582 681.803589,817.692810 
	C691.182922,818.174622 700.597412,817.970947 710.545715,817.771729 
M328.202881,812.524597 
	C329.335541,814.433228 330.314087,816.791931 333.658630,814.038513 
	C334.438934,814.414612 335.219269,814.790649 336.238678,815.814819 
	C338.491730,818.634094 340.998566,819.958313 344.980286,817.070251 
	C345.653412,817.435730 346.326538,817.801208 347.396790,818.759460 
	C357.018677,822.209473 366.851929,823.052002 376.843689,820.833435 
	C378.034607,820.569031 378.954803,819.085327 380.811798,818.024719 
	C393.758789,815.543213 405.779602,810.833191 416.374329,802.882507 
	C424.635406,796.683105 431.895874,789.542053 436.956085,780.056763 
	C427.585480,774.604187 418.598206,769.374695 409.636627,764.160095 
	C403.488281,773.669800 395.554108,780.878601 384.933533,784.465820 
	C375.733337,787.573425 366.351929,788.584656 356.451294,787.168091 
	C338.353149,784.578613 324.665314,776.226868 315.972870,759.953918 
	C310.344055,749.416321 309.542389,738.096130 309.979614,726.486206 
	C310.492218,712.875305 315.107635,700.864563 324.521759,691.079773 
	C340.387238,674.589539 368.136292,671.108643 388.674286,680.233521 
	C397.819244,684.296509 404.355591,691.142090 409.809814,699.018799 
	C419.124695,693.624695 428.084778,688.436096 437.099548,683.215820 
	C429.288971,670.326843 418.765656,660.749451 405.758026,653.996094 
	C387.083923,644.300842 367.442688,641.674927 346.709747,645.883667 
	C324.537537,650.384521 306.592316,661.229858 293.647003,679.839844 
	C279.347321,700.396973 274.510040,723.105103 278.979980,747.787720 
	C284.371735,777.560608 301.024658,798.680786 328.202881,812.524597 
M494.742340,817.990112 
	C500.166779,818.327087 505.587341,818.853882 511.016388,818.964905 
	C526.547668,819.282532 539.912903,813.204163 551.118164,803.171631 
	C573.362183,783.255554 578.714172,750.967346 563.756104,724.354675 
	C549.371338,698.762146 519.137634,686.948120 492.270233,694.520203 
	C466.198792,701.867920 450.385376,719.336182 445.957916,746.518494 
	C442.513184,767.667236 448.980682,785.643311 463.478638,800.880615 
	C471.787323,809.612976 482.401428,814.641113 494.742340,817.990112 
M768.572571,728.950928 
	C783.626831,716.779236 809.054504,721.162231 817.684021,737.894287 
	C826.091614,732.922852 834.488220,727.957947 843.372742,722.704590 
	C840.267517,718.594360 837.869690,714.413940 834.543213,711.192444 
	C820.474182,697.567383 803.842102,691.052124 783.930908,692.871277 
	C770.250610,694.121277 758.039978,698.584473 747.960938,707.685730 
	C728.927795,724.872375 722.558838,746.494934 728.118103,771.341125 
	C731.399048,786.005249 739.208008,798.088135 751.549500,807.088074 
	C763.831055,816.044250 777.496094,819.773071 792.598022,819.032349 
	C810.838318,818.137756 826.114746,811.375549 837.590881,796.887024 
	C843.553528,789.359314 843.568115,789.177795 835.660583,784.222961 
	C829.802124,780.552063 823.698608,777.272034 817.688049,773.808533 
	C807.744385,793.559204 776.725708,793.176086 764.335266,778.952087 
	C754.530396,767.696228 752.792297,741.181519 768.572571,728.950928 
z"/>
<path fill="#00377C" opacity="1.000000" stroke="none" 
	d="
M840.853149,466.656036 
	C839.003052,465.006378 837.152954,463.356720 834.974487,461.217041 
	C834.388184,460.492371 834.130188,460.257660 833.872192,460.022949 
	C831.972351,457.855011 830.072571,455.687042 828.189575,452.982605 
	C828.206421,452.446106 828.000000,452.000000 827.679810,451.830994 
	C826.885925,451.552246 826.412231,451.442535 825.938599,451.332825 
	C825.017456,450.738434 824.096252,450.144043 823.138977,449.112396 
	C823.068542,448.116730 823.034302,447.558380 822.709900,446.826263 
	C821.975220,446.552612 821.530640,446.452698 821.086060,446.352783 
	C821.204407,446.216949 821.322693,446.081085 821.493530,445.776611 
	C821.277466,445.286926 821.008850,444.965851 820.740234,444.644806 
	C819.231140,443.476349 817.721985,442.307892 815.882141,440.430450 
	C814.983337,439.282990 814.415283,438.844543 813.847229,438.406097 
	C813.847229,438.406097 814.040771,438.204071 814.040771,438.204071 
	C814.040771,438.204071 814.270508,438.364899 814.057495,438.153931 
	C812.896362,436.961945 811.948181,435.980988 810.637085,435.036072 
	C810.034851,435.114258 809.795410,435.156372 809.555908,435.198486 
	C809.150940,435.002594 808.745972,434.806702 808.052002,434.187927 
	C807.466187,433.517792 807.169312,433.270599 806.872498,433.023376 
	C804.429810,430.656158 801.987061,428.288940 799.575317,425.455688 
	C798.885559,424.026520 798.164856,423.063446 797.444153,422.100342 
	C799.437439,421.400482 801.427856,420.100525 803.424500,420.091064 
	C831.585083,419.957550 859.750427,420.294952 887.906555,419.916809 
	C916.851685,419.528107 939.914307,402.451416 946.400696,374.183075 
	C950.493774,356.345245 946.243286,340.374847 934.792664,326.352325 
	C922.712952,311.559631 906.973816,304.762054 887.829346,304.927673 
	C857.004333,305.194336 826.174866,304.936523 795.348572,305.116608 
	C792.826965,305.131348 789.621460,306.101868 787.901428,307.806488 
	C756.301025,339.124847 724.878174,370.622375 693.424133,402.088257 
	C692.724426,402.788177 692.099182,403.562561 690.786194,405.034119 
	C740.489197,454.734589 790.136658,504.379486 840.540344,554.780579 
	C838.214172,555.290771 836.607117,555.946289 834.998352,555.950623 
	C810.669922,556.016052 786.340149,556.097595 762.014343,555.836975 
	C759.614624,555.811279 756.732300,554.076782 754.926147,552.279175 
	C713.943298,511.489746 673.068115,470.591949 632.242554,429.644897 
	C630.887756,428.286011 630.261719,426.200562 629.295959,424.453766 
	C628.530640,424.999268 627.765320,425.544769 627.000000,426.090271 
	C627.000000,428.004089 627.000000,429.917877 627.000000,431.831696 
	C626.999878,471.157379 626.894348,510.483704 627.126343,549.808044 
	C627.157104,555.024963 625.565613,556.201660 620.647888,556.108582 
	C604.989868,555.812317 589.320984,555.872559 573.660156,556.082581 
	C569.479065,556.138611 567.894531,555.231506 567.900879,550.617859 
	C568.034973,453.136932 568.027893,355.655762 567.917603,258.174805 
	C567.912781,253.901550 569.342041,252.871246 573.367859,252.920578 
	C589.362366,253.116638 605.364319,253.189682 621.355408,252.886078 
	C626.174194,252.794601 627.096558,254.539062 627.080994,258.897369 
	C626.941528,297.889282 626.999878,336.881927 627.000000,375.874359 
	C627.000000,377.844055 627.000000,379.813751 627.000000,383.160400 
	C629.238831,381.074646 630.652588,379.836273 631.978943,378.510529 
	C672.519836,337.985565 713.082947,297.482635 753.530762,256.865051 
	C756.972290,253.409042 760.655762,251.943649 765.439636,251.952469 
	C809.764221,252.034149 854.093750,251.623047 898.411682,252.170776 
	C918.750000,252.422134 937.319092,259.747162 953.814697,271.544678 
	C978.314697,289.066833 993.695923,312.506287 999.168640,342.452087 
	C1003.559692,366.479614 1000.443420,389.464417 989.789001,411.092499 
	C976.393005,438.285767 954.862061,456.850677 926.129089,466.867249 
	C923.971313,467.619476 921.805420,468.348572 918.782959,469.382812 
	C947.536316,498.124939 975.758423,526.336060 1003.980530,554.547180 
	C1003.854187,555.038086 1003.727844,555.529053 1003.601440,556.019958 
	C990.742004,556.019958 977.882507,556.019958 964.167114,555.881226 
	C951.503784,555.175354 939.696350,554.608215 927.888855,554.041077 
	C920.038513,546.271118 912.188171,538.501221 903.991943,530.229248 
	C903.388123,529.492371 903.130188,529.257568 902.872192,529.022827 
	C901.647034,527.878540 900.421875,526.734192 899.322876,525.300415 
	C899.632629,525.007263 899.816284,525.003601 900.066284,524.881592 
	C900.215759,524.490051 900.171509,524.235657 899.839722,523.763306 
	C899.119690,523.017761 898.559814,522.508911 897.649231,522.002930 
	C896.830383,522.017212 896.362244,522.028564 895.894165,522.039917 
	C895.568481,521.938293 895.307922,521.747620 895.276978,521.241577 
	C895.627747,521.010071 895.813904,521.005005 896.066284,520.881592 
	C896.215759,520.490051 896.171509,520.235657 895.715149,519.777588 
	C894.991943,519.336121 894.553528,519.117126 894.115173,518.898071 
	C894.115173,518.898071 893.874878,518.499878 893.874878,518.499878 
	C893.874878,518.499878 894.138855,518.116577 893.884521,518.100586 
	C893.307983,518.052063 892.985840,518.019470 892.663696,517.986938 
	C891.203735,516.886414 889.743774,515.785889 887.964966,514.206238 
	C887.388184,513.492310 887.130188,513.257568 886.872192,513.022827 
	C881.978882,507.772980 877.085571,502.523132 872.088013,496.814819 
	C871.983826,496.356354 871.561218,496.266876 871.561218,496.266876 
	C871.561218,496.266876 871.322876,496.650085 871.322876,496.650085 
	C871.322876,496.650085 871.107239,496.606354 870.815918,496.396790 
	C870.311829,496.138000 870.098999,496.088715 869.886108,496.039398 
	C866.441528,492.590973 862.996948,489.142548 859.157654,485.229553 
	C858.466187,484.517761 858.169373,484.270569 857.872498,484.023376 
	C856.972839,483.206207 856.073181,482.389038 855.306763,481.294312 
	C855.626709,481.011139 855.813354,481.005554 856.066284,480.881653 
	C856.215759,480.490112 856.171509,480.235687 855.845093,479.821838 
	C855.475098,479.413055 855.245056,479.198486 854.756226,478.803528 
	C854.330627,478.504303 854.148926,478.401581 853.967285,478.298828 
	C853.106628,478.078308 852.246033,477.857819 851.074219,477.201172 
	C850.466187,476.517822 850.169312,476.270599 849.872498,476.023376 
	C847.657837,473.311310 845.443176,470.599274 843.048157,467.376953 
	C842.555420,466.589050 842.243042,466.311401 841.930664,466.033752 
	C841.930664,466.033752 842.088745,466.423798 841.845825,466.369873 
	C841.269897,466.168121 841.020020,466.281464 840.853149,466.656036 
M903.503479,527.523865 
	C903.503479,527.523865 903.491150,527.487122 903.503479,527.523865 
z"/>
<path fill="#00377C" opacity="1.000000" stroke="none" 
	d="
M339.046570,488.891266 
	C347.163025,492.155792 355.058441,496.219147 363.436676,498.537720 
	C390.483826,506.022705 416.429779,502.469971 440.399963,487.947083 
	C467.062439,471.793060 483.384338,448.093140 488.719635,417.253845 
	C491.993591,398.329712 489.296295,380.030823 481.758148,362.368805 
	C471.681366,338.758514 454.720245,321.735229 431.914154,310.502380 
	C397.270386,293.439087 352.879425,299.959930 324.025024,325.302307 
	C306.429321,340.756378 295.224792,359.696747 290.518890,382.390808 
	C289.020874,389.615173 289.198975,397.235626 289.104645,404.681152 
	C289.060455,408.168427 287.489685,409.522644 284.569366,409.868408 
	C272.426727,411.306152 260.271912,412.641022 248.121063,414.009216 
	C247.790985,414.046356 247.452927,414.011597 247.122482,414.046875 
	C237.791000,415.043335 237.418533,414.544708 236.969467,405.080414 
	C235.779556,380.002472 241.221054,356.233826 252.192856,333.928101 
	C263.470337,311.000916 279.663971,291.947266 300.679718,277.075104 
	C321.079926,262.638550 343.632660,253.544983 368.274597,250.244385 
	C396.047821,246.524414 423.033142,250.002441 449.056519,260.933105 
	C470.438171,269.914093 488.548035,283.333832 503.836884,300.480194 
	C521.927795,320.769073 534.121643,344.345459 538.774109,371.202179 
	C540.966492,383.857727 542.333740,396.953003 541.725952,409.737335 
	C540.296387,439.808136 530.835693,467.505249 512.637573,491.770599 
	C496.854736,512.815491 477.255707,529.385193 453.191071,540.370239 
	C438.658447,547.004089 423.510620,551.292542 407.559448,553.099426 
	C377.986115,556.449402 349.813019,551.844421 322.869385,539.369934 
	C320.776093,538.400757 318.888245,536.994873 316.816193,535.971619 
	C308.927582,532.076111 308.482391,532.737427 314.059326,523.521912 
	C317.221466,518.296631 320.871796,513.366760 324.895508,508.002563 
	C325.975037,506.772797 326.461304,505.844299 326.947571,504.915833 
	C326.947571,504.915833 326.967651,504.978271 327.238586,504.837402 
	C327.988831,503.769623 328.468140,502.842712 328.947449,501.915802 
	C328.947479,501.915802 328.967621,501.978210 329.238586,501.837372 
	C329.988861,500.769623 330.468170,499.842743 330.947510,498.915833 
	C330.947510,498.915833 330.967773,498.979797 331.277283,498.885803 
	C334.073364,495.491669 336.559967,492.191467 339.046570,488.891266 
z"/>
<path fill="#F95800" opacity="1.000000" stroke="none" 
	d="
M321.285614,468.325165 
	C298.442047,501.667542 275.811432,534.709412 252.493118,568.755310 
	C250.198303,553.148438 248.108490,538.865967 245.994888,524.587036 
	C244.680054,515.704407 243.383347,506.818237 241.924133,497.959076 
	C241.747345,496.885773 240.806580,495.696991 239.883041,495.024078 
	C224.842133,484.065063 209.756882,473.166779 194.659073,462.286072 
	C188.489212,457.839569 182.265762,453.467438 176.465622,447.898102 
	C183.513931,446.932098 190.567032,445.999664 197.609421,444.992371 
	C208.608246,443.419189 219.590012,441.723907 230.597534,440.215576 
	C239.196533,439.037262 247.828522,438.102020 256.437042,436.990570 
	C267.147827,435.607727 277.854980,434.193848 288.553497,432.719482 
	C297.132690,431.537201 305.696411,430.243073 314.267456,429.001648 
	C322.995453,427.737518 331.702301,426.269135 340.466919,425.355621 
	C342.770233,425.115540 345.253174,426.598816 347.653625,427.290649 
	C346.961792,429.170593 346.610718,431.280029 345.523712,432.893768 
	C337.598358,444.660034 329.525085,456.326630 321.285614,468.325165 
z"/>
<path fill="#00377C" opacity="1.000000" stroke="none" 
	d="
M343.286743,382.497681 
	C353.511047,361.888397 372.269104,350.937378 394.471191,353.109161 
	C414.115875,355.030792 431.076996,369.741058 436.156921,388.521118 
	C442.510010,412.007812 432.554657,434.177948 412.584869,445.511902 
	C398.816254,453.326355 384.013397,452.893524 369.312622,447.593781 
	C365.757965,446.312347 367.310059,443.953552 368.595825,442.044678 
	C374.418213,433.400909 380.387177,424.855927 386.216003,416.216431 
	C391.011627,409.108307 395.684387,401.917236 400.791565,394.187866 
	C380.341248,396.895966 360.640778,399.504791 340.810822,402.130768 
	C338.593903,394.979004 341.405060,388.980988 343.286743,382.497681 
z"/>
<path fill="#00377C" opacity="1.000000" stroke="none" 
	d="
M928.087280,554.364929 
	C939.696350,554.608215 951.503784,555.175354 963.704956,555.899658 
	C961.530457,556.371216 958.966003,556.914978 956.393311,556.956665 
	C948.915466,557.077881 941.428955,557.151001 933.958069,556.891418 
	C932.044067,556.824890 930.175232,555.458191 928.087280,554.364929 
z"/>
<path fill="#00377C" opacity="1.000000" stroke="none" 
	d="
M338.833557,488.658600 
	C336.559967,492.191467 334.073364,495.491669 331.246521,498.872375 
	C333.477661,495.443939 336.049072,491.934937 338.833557,488.658600 
z"/>
<path fill="#00377C" opacity="1.000000" stroke="none" 
	d="
M797.489502,422.424622 
	C798.164856,423.063446 798.885559,424.026520 799.400635,425.231689 
	C798.641663,424.565430 798.088257,423.657166 797.489502,422.424622 
z"/>
<path fill="#00377C" opacity="1.000000" stroke="none" 
	d="
M811.000000,435.000000 
	C811.948181,435.980988 812.896362,436.961945 813.995117,438.278992 
	C813.123230,438.173615 812.100830,437.732208 810.985352,436.557587 
	C810.928223,435.549561 810.964111,435.274780 811.000000,435.000000 
z"/>
<path fill="#00377C" opacity="1.000000" stroke="none" 
	d="
M330.666962,499.072266 
	C330.468170,499.842743 329.988861,500.769623 329.207306,501.827576 
	C329.398834,501.048676 329.892609,500.138702 330.666962,499.072266 
z"/>
<path fill="#00377C" opacity="1.000000" stroke="none" 
	d="
M328.666931,502.072266 
	C328.468140,502.842712 327.988831,503.769623 327.207306,504.827637 
	C327.398834,504.048706 327.892609,503.138733 328.666931,502.072266 
z"/>
<path fill="#00377C" opacity="1.000000" stroke="none" 
	d="
M326.666351,505.072876 
	C326.461304,505.844299 325.975037,506.772797 325.185211,507.831604 
	C325.382812,507.051270 325.884003,506.140625 326.666351,505.072876 
z"/>
<path fill="#00377C" opacity="1.000000" stroke="none" 
	d="
M856.000000,481.000000 
	C855.813354,481.005554 855.626709,481.011139 855.160034,481.025513 
	C854.422607,480.177795 853.965332,479.321320 853.737671,478.381836 
	C854.148926,478.401581 854.330627,478.504303 854.911133,478.981689 
	C855.524902,479.586945 855.754944,479.801514 856.000000,480.250000 
	C856.000000,480.500000 856.000000,481.000000 856.000000,481.000000 
z"/>
<path fill="#00377C" opacity="1.000000" stroke="none" 
	d="
M823.000000,447.000000 
	C823.034302,447.558380 823.068542,448.116730 823.000549,448.863098 
	C822.270874,448.385925 821.643555,447.720764 821.521606,446.923279 
	C822.351318,446.860687 822.675659,446.930359 823.000000,447.000000 
z"/>
<path fill="#00377C" opacity="1.000000" stroke="none" 
	d="
M896.029846,522.301270 
	C896.362244,522.028564 896.830383,522.017212 897.657837,522.323547 
	C898.037598,523.067932 898.058105,523.494690 898.042358,523.959167 
	C898.006104,523.996948 897.934570,524.073547 897.934570,524.073547 
	C897.344910,523.569946 896.755188,523.066345 896.029846,522.301270 
z"/>
<path fill="#00377C" opacity="1.000000" stroke="none" 
	d="
M828.256836,452.686676 
	C827.541504,452.642853 826.775818,452.358429 826.488037,451.925903 
	C827.310669,451.851868 827.655334,451.925934 828.000000,452.000000 
	C828.000000,452.000000 828.206421,452.446106 828.256836,452.686676 
z"/>
<path fill="#00377C" opacity="1.000000" stroke="none" 
	d="
M896.000000,521.000000 
	C895.813904,521.005005 895.627747,521.010071 895.162231,521.024292 
	C894.574158,520.678040 894.265381,520.322693 894.483948,519.875488 
	C895.340820,519.855835 895.670410,519.927917 896.000000,520.250000 
	C896.000000,520.500000 896.000000,521.000000 896.000000,521.000000 
z"/>
<path fill="#00377C" opacity="1.000000" stroke="none" 
	d="
M900.000000,525.000000 
	C899.816284,525.003601 899.632629,525.007263 899.172607,525.021118 
	C898.575745,524.950317 898.321838,524.773743 898.034424,524.287598 
	C897.934570,524.073547 898.006104,523.996948 898.361877,523.977905 
	C899.145081,523.972534 899.572571,523.986267 900.000000,524.250000 
	C900.000000,524.500000 900.000000,525.000000 900.000000,525.000000 
z"/>
<path fill="#00377C" opacity="1.000000" stroke="none" 
	d="
M813.813782,438.466064 
	C814.415283,438.844543 814.983337,439.282990 815.913757,440.127563 
	C815.740906,440.571045 815.205627,440.608429 814.314819,440.013550 
	C813.930847,439.129639 813.902527,438.877991 813.874207,438.626312 
	C813.874207,438.626312 813.780334,438.526062 813.813782,438.466064 
z"/>
<path fill="#00377C" opacity="1.000000" stroke="none" 
	d="
M841.072632,466.729797 
	C841.020020,466.281464 841.269897,466.168121 841.661377,466.471283 
	C841.719971,466.626587 841.292053,466.803558 841.072632,466.729797 
z"/>
<path fill="#00377C" opacity="1.000000" stroke="none" 
	d="
M892.800049,518.310913 
	C892.985840,518.019470 893.307983,518.052063 894.113220,518.141968 
	C894.042969,518.344482 893.489685,518.489624 892.800049,518.310913 
z"/>
<path fill="#00377C" opacity="1.000000" stroke="none" 
	d="
M841.958740,466.422668 
	C842.243042,466.311401 842.555420,466.589050 843.123779,467.052704 
	C842.915405,467.096344 842.451050,466.953979 841.958740,466.422668 
z"/>
<path fill="#00377C" opacity="1.000000" stroke="none" 
	d="
M850.028564,476.277832 
	C850.169312,476.270599 850.466187,476.517822 850.982300,476.965332 
	C850.862610,476.954498 850.523621,476.743408 850.028564,476.277832 
z"/>
<path fill="#00377C" opacity="1.000000" stroke="none" 
	d="
M807.028564,433.277832 
	C807.169312,433.270599 807.466187,433.517792 807.982300,433.965332 
	C807.862610,433.954498 807.523621,433.743408 807.028564,433.277832 
z"/>
<path fill="#00377C" opacity="1.000000" stroke="none" 
	d="
M810.637085,435.036072 
	C810.964111,435.274780 810.928223,435.549561 810.826172,436.236938 
	C810.430298,436.369354 810.100464,436.089233 809.663330,435.503784 
	C809.795410,435.156372 810.034851,435.114258 810.637085,435.036072 
z"/>
<path fill="#00377C" opacity="1.000000" stroke="none" 
	d="
M813.636780,438.739014 
	C813.902527,438.877991 813.930847,439.129639 813.985535,439.760925 
	C813.807739,439.710968 813.603516,439.281342 813.636780,438.739014 
z"/>
<path fill="#00377C" opacity="1.000000" stroke="none" 
	d="
M815.752808,441.243530 
	C815.793213,441.283142 815.712463,441.203918 815.752808,441.243530 
z"/>
<path fill="#00377C" opacity="1.000000" stroke="none" 
	d="
M858.028564,484.277832 
	C858.169373,484.270569 858.466187,484.517761 858.982300,484.965302 
	C858.862610,484.954498 858.523621,484.743378 858.028564,484.277832 
z"/>
<path fill="#00377C" opacity="1.000000" stroke="none" 
	d="
M820.713867,445.036377 
	C821.008850,444.965851 821.277466,445.286926 821.756470,445.838867 
	C821.540405,445.855835 821.113953,445.641876 820.713867,445.036377 
z"/>
<path fill="#00377C" opacity="1.000000" stroke="none" 
	d="
M822.709900,446.826263 
	C822.675659,446.930359 822.351318,446.860687 821.544250,446.641937 
	C821.061523,446.492889 821.061218,446.413635 821.073608,446.383209 
	C821.530640,446.452698 821.975220,446.552612 822.709900,446.826263 
z"/>
<path fill="#00377C" opacity="1.000000" stroke="none" 
	d="
M871.539673,496.737305 
	C871.322876,496.650085 871.561218,496.266876 871.561218,496.266876 
	C871.561218,496.266876 871.983826,496.356354 872.084839,496.498352 
	C872.185913,496.640350 871.756409,496.824554 871.539673,496.737305 
z"/>
<path fill="#00377C" opacity="1.000000" stroke="none" 
	d="
M827.679810,451.830963 
	C827.655334,451.925934 827.310669,451.851868 826.452637,451.623352 
	C825.939209,451.468933 825.931396,451.399261 825.934998,451.366028 
	C826.412231,451.442535 826.885925,451.552246 827.679810,451.830963 
z"/>
<path fill="#00377C" opacity="1.000000" stroke="none" 
	d="
M869.997620,496.229248 
	C870.098999,496.088715 870.311829,496.138000 870.836548,496.288757 
	C870.802063,496.399872 870.455627,496.409454 869.997620,496.229248 
z"/>
<path fill="#00377C" opacity="1.000000" stroke="none" 
	d="
M903.002319,529.257080 
	C903.130188,529.257568 903.388123,529.492371 903.813171,529.929077 
	C903.697632,529.917847 903.415039,529.704590 903.002319,529.257080 
z"/>
<path fill="#00377C" opacity="1.000000" stroke="none" 
	d="
M834.002319,460.257202 
	C834.130188,460.257660 834.388184,460.492371 834.813171,460.929047 
	C834.697632,460.917847 834.415039,460.704651 834.002319,460.257202 
z"/>
<path fill="#00377C" opacity="1.000000" stroke="none" 
	d="
M887.002319,513.257080 
	C887.130188,513.257568 887.388184,513.492310 887.813171,513.929077 
	C887.697632,513.917786 887.415039,513.704590 887.002319,513.257080 
z"/>
<path fill="#00377C" opacity="1.000000" stroke="none" 
	d="
M895.715149,519.777588 
	C895.670410,519.927917 895.340820,519.855835 894.517700,519.631226 
	C894.024170,519.478699 893.945801,519.162659 894.030518,519.030396 
	C894.553528,519.117126 894.991943,519.336121 895.715149,519.777588 
z"/>
<path fill="#000000" opacity="1.000000" stroke="none" 
	d="
M346.999664,818.166748 
	C346.326538,817.801208 345.653412,817.435730 344.249146,817.044250 
	C341.011871,816.401062 338.505707,815.783875 335.999573,815.166748 
	C335.219269,814.790649 334.438934,814.414612 333.013641,813.950684 
	C330.926910,813.202576 329.485199,812.542419 328.043457,811.882202 
	C301.024658,798.680786 284.371735,777.560608 278.979980,747.787720 
	C274.510040,723.105103 279.347321,700.396973 293.647003,679.839844 
	C306.592316,661.229858 324.537537,650.384521 346.709747,645.883667 
	C367.442688,641.674927 387.083923,644.300842 405.758026,653.996094 
	C418.765656,660.749451 429.288971,670.326843 437.099548,683.215820 
	C428.084778,688.436096 419.124695,693.624695 409.809814,699.018799 
	C404.355591,691.142090 397.819244,684.296509 388.674286,680.233521 
	C368.136292,671.108643 340.387238,674.589539 324.521759,691.079773 
	C315.107635,700.864563 310.492218,712.875305 309.979614,726.486206 
	C309.542389,738.096130 310.344055,749.416321 315.972870,759.953918 
	C324.665314,776.226868 338.353149,784.578613 356.451294,787.168091 
	C366.351929,788.584656 375.733337,787.573425 384.933533,784.465820 
	C395.554108,780.878601 403.488281,773.669800 409.636627,764.160095 
	C418.598206,769.374695 427.585480,774.604187 436.956085,780.056763 
	C431.895874,789.542053 424.635406,796.683105 416.374329,802.882507 
	C405.779602,810.833191 393.758789,815.543213 379.983276,818.043579 
	C377.256744,818.375000 375.353241,818.984314 373.461639,818.949280 
	C364.639160,818.785889 355.820007,818.444519 346.999664,818.166748 
z"/>
<path fill="#000000" opacity="1.000000" stroke="none" 
	d="
M672.885742,808.957642 
	C665.798279,812.007324 658.971680,816.245544 651.571350,817.870239 
	C633.741760,821.784607 617.614319,817.375793 603.677429,805.229614 
	C591.361877,794.496338 584.188721,780.728516 582.309082,764.955933 
	C580.114990,746.544067 584.107117,729.172546 596.189270,714.243042 
	C605.055359,703.287415 616.221680,696.303589 629.978577,693.519653 
	C642.693970,690.946472 654.820312,692.701050 666.748779,699.358398 
	C669.234314,700.968384 671.196899,702.223328 673.159485,703.478271 
	C673.159485,703.478271 673.240173,703.744202 673.582336,704.054138 
	C675.332764,705.377991 676.740967,706.391846 678.427551,707.606140 
	C679.077393,703.101440 679.577820,699.632446 680.095642,696.042786 
	C690.415466,696.042786 700.150635,696.042786 709.933716,696.506592 
	C709.949341,736.632996 709.917114,776.295532 709.664856,815.989258 
	C709.444885,816.020386 709.025391,816.166748 708.559692,816.096924 
	C702.150818,816.018066 696.207581,816.003601 690.264343,816.001221 
	C679.787537,815.996948 679.788330,815.999939 678.799011,805.679871 
	C678.786011,805.543884 678.649170,805.419739 677.939758,804.255737 
	C676.136475,805.933350 674.511108,807.445496 672.885742,808.957642 
M678.110718,743.495178 
	C676.898193,740.660522 676.246399,737.371155 674.378601,735.067932 
	C665.000854,723.503723 652.864197,718.880859 638.147705,722.032898 
	C625.597046,724.721130 617.219299,732.049072 613.722717,744.650330 
	C609.788635,758.828491 611.811218,771.737366 622.746704,782.072571 
	C630.642212,789.534790 640.375793,791.549133 651.268372,790.133850 
	C665.040588,788.344421 676.472778,779.299133 678.786133,765.547546 
	C679.951904,758.617615 678.756348,751.290405 678.110718,743.495178 
z"/>
<path fill="#000000" opacity="1.000000" stroke="none" 
	d="
M494.310425,817.961487 
	C482.401428,814.641113 471.787323,809.612976 463.478638,800.880615 
	C448.980682,785.643311 442.513184,767.667236 445.957916,746.518494 
	C450.385376,719.336182 466.198792,701.867920 492.270233,694.520203 
	C519.137634,686.948120 549.371338,698.762146 563.756104,724.354675 
	C578.714172,750.967346 573.362183,783.255554 551.118164,803.171631 
	C539.912903,813.204163 526.547668,819.282532 511.016388,818.964905 
	C505.587341,818.853882 500.166779,818.327087 494.310425,817.961487 
M490.014252,784.544983 
	C504.581970,794.214172 525.901489,791.625671 536.529358,775.534790 
	C546.387146,760.609863 544.156067,738.332581 527.841736,727.587646 
	C512.889343,717.739563 491.138580,719.624756 480.080475,737.542480 
	C471.110016,752.077576 473.921234,774.285217 490.014252,784.544983 
z"/>
<path fill="#000000" opacity="1.000000" stroke="none" 
	d="
M768.307129,729.197693 
	C752.792297,741.181519 754.530396,767.696228 764.335266,778.952087 
	C776.725708,793.176086 807.744385,793.559204 817.688049,773.808533 
	C823.698608,777.272034 829.802124,780.552063 835.660583,784.222961 
	C843.568115,789.177795 843.553528,789.359314 837.590881,796.887024 
	C826.114746,811.375549 810.838318,818.137756 792.598022,819.032349 
	C777.496094,819.773071 763.831055,816.044250 751.549500,807.088074 
	C739.208008,798.088135 731.399048,786.005249 728.118103,771.341125 
	C722.558838,746.494934 728.927795,724.872375 747.960938,707.685730 
	C758.039978,698.584473 770.250610,694.121277 783.930908,692.871277 
	C803.842102,691.052124 820.474182,697.567383 834.543213,711.192444 
	C837.869690,714.413940 840.267517,718.594360 843.372742,722.704590 
	C834.488220,727.957947 826.091614,732.922852 817.684021,737.894287 
	C809.054504,721.162231 783.626831,716.779236 768.307129,729.197693 
z"/>
<path fill="#F95800" opacity="1.000000" stroke="none" 
	d="
M709.884827,815.958130 
	C709.917114,776.295532 709.949341,736.632996 710.286072,696.498413 
	C711.060364,696.017639 711.530212,696.008789 712.000000,696.000000 
	C712.000000,735.687561 712.000000,775.375122 711.647461,815.525391 
	C710.824890,815.978088 710.354858,815.968140 709.884827,815.958130 
z"/>
<path fill="#F95800" opacity="1.000000" stroke="none" 
	d="
M711.796509,695.675293 
	C711.530212,696.008789 711.060364,696.017639 710.238220,696.034668 
	C700.150635,696.042786 690.415466,696.042786 680.095642,696.042786 
	C679.577820,699.632446 679.077393,703.101440 678.427551,707.606140 
	C676.740967,706.391846 675.332764,705.377991 673.713745,704.099121 
	C674.679199,702.212402 675.802612,700.548828 677.045898,698.980347 
	C678.359436,697.323181 679.734802,694.422974 681.173828,694.366211 
	C690.761597,693.988403 700.373657,694.209106 709.977051,694.310730 
	C710.519348,694.316406 711.054504,694.988586 711.796509,695.675293 
z"/>
<path fill="#F95800" opacity="1.000000" stroke="none" 
	d="
M673.273926,808.988586 
	C674.511108,807.445496 676.136475,805.933350 677.939758,804.255737 
	C678.649170,805.419739 678.786011,805.543884 678.799011,805.679871 
	C679.788330,815.999939 679.787537,815.996948 690.264343,816.001221 
	C696.207581,816.003601 702.150818,816.018066 708.684448,816.324585 
	C709.516602,817.081299 709.758301,817.540649 710.000000,818.000000 
	C700.597412,817.970947 691.182922,818.174622 681.803589,817.692810 
	C680.164551,817.608582 678.650330,814.662170 677.121765,812.997864 
	C675.933472,811.703979 674.812866,810.347900 673.273926,808.988586 
z"/>
<path fill="#F95800" opacity="1.000000" stroke="none" 
	d="
M347.198242,818.463135 
	C355.820007,818.444519 364.639160,818.785889 373.461639,818.949280 
	C375.353241,818.984314 377.256744,818.375000 379.577637,818.114624 
	C378.954803,819.085327 378.034607,820.569031 376.843689,820.833435 
	C366.851929,823.052002 357.018677,822.209473 347.198242,818.463135 
z"/>
<path fill="#F95800" opacity="1.000000" stroke="none" 
	d="
M673.234192,703.129028 
	C671.196899,702.223328 669.234314,700.968384 667.117615,699.416870 
	C670.266235,697.183167 671.657227,697.985413 673.234192,703.129028 
z"/>
<path fill="#F95800" opacity="1.000000" stroke="none" 
	d="
M336.119141,815.490784 
	C338.505707,815.783875 341.011871,816.401062 343.861023,817.092529 
	C340.998566,819.958313 338.491730,818.634094 336.119141,815.490784 
z"/>
<path fill="#F95800" opacity="1.000000" stroke="none" 
	d="
M328.123169,812.203369 
	C329.485199,812.542419 330.926910,813.202576 332.683868,814.014771 
	C330.314087,816.791931 329.335541,814.433228 328.123169,812.203369 
z"/>
<path fill="#F95800" opacity="1.000000" stroke="none" 
	d="
M710.272827,817.885864 
	C709.758301,817.540649 709.516602,817.081299 709.150146,816.394348 
	C709.025391,816.166748 709.444885,816.020386 709.664856,815.989258 
	C710.354858,815.968140 710.824890,815.978088 711.647461,815.994019 
	C711.515198,816.590576 711.030457,817.181152 710.272827,817.885864 
z"/>
<path fill="#00377C" opacity="1.000000" stroke="none" 
	d="
M899.839722,523.763306 
	C899.572571,523.986267 899.145081,523.972534 898.398071,523.940063 
	C898.058105,523.494690 898.037598,523.067932 898.008545,522.320618 
	C898.559814,522.508911 899.119690,523.017761 899.839722,523.763306 
z"/>
<path fill="#00377C" opacity="1.000000" stroke="none" 
	d="
M855.845093,479.821838 
	C855.754944,479.801514 855.524902,479.586945 855.154907,479.178162 
	C855.245056,479.198486 855.475098,479.413055 855.845093,479.821838 
z"/>
<path fill="#00377C" opacity="1.000000" stroke="none" 
	d="
M856.066284,480.881653 
	C856.000000,481.000000 856.000000,480.500000 856.000000,480.250000 
	C856.171509,480.235687 856.215759,480.490112 856.066284,480.881653 
z"/>
<path fill="#00377C" opacity="1.000000" stroke="none" 
	d="
M903.497314,527.505493 
	C903.491150,527.487122 903.503479,527.523865 903.497314,527.505493 
z"/>
<path fill="#00377C" opacity="1.000000" stroke="none" 
	d="
M900.066284,524.881592 
	C900.000000,525.000000 900.000000,524.500000 900.000000,524.250000 
	C900.171509,524.235657 900.215759,524.490051 900.066284,524.881592 
z"/>
<path fill="#00377C" opacity="1.000000" stroke="none" 
	d="
M896.066284,520.881592 
	C896.000000,521.000000 896.000000,520.500000 896.000000,520.250000 
	C896.171509,520.235657 896.215759,520.490051 896.066284,520.881592 
z"/>
<path fill="#F95800" opacity="1.000000" stroke="none" 
	d="
M678.369629,743.819031 
	C678.756348,751.290405 679.951904,758.617615 678.786133,765.547546 
	C676.472778,779.299133 665.040588,788.344421 651.268372,790.133850 
	C640.375793,791.549133 630.642212,789.534790 622.746704,782.072571 
	C611.811218,771.737366 609.788635,758.828491 613.722717,744.650330 
	C617.219299,732.049072 625.597046,724.721130 638.147705,722.032898 
	C652.864197,718.880859 665.000854,723.503723 674.378601,735.067932 
	C676.246399,737.371155 676.898193,740.660522 678.369629,743.819031 
z"/>
<path fill="#F95800" opacity="1.000000" stroke="none" 
	d="
M489.724701,784.314453 
	C473.921234,774.285217 471.110016,752.077576 480.080475,737.542480 
	C491.138580,719.624756 512.889343,717.739563 527.841736,727.587646 
	C544.156067,738.332581 546.387146,760.609863 536.529358,775.534790 
	C525.901489,791.625671 504.581970,794.214172 489.724701,784.314453 
z"/>
</svg>