<svg width="323" height="42" viewBox="0 0 323 42" fill="none" xmlns="http://www.w3.org/2000/svg">
<path d="M20.4675 24.102C18.5355 26.314 15.6375 27.42 11.7735 27.42C7.90955 27.42 4.99754 26.314 3.03754 24.102C1.10554 21.862 0.139545 18.6 0.139545 14.316C0.139545 9.668 1.09154 6.28 2.99554 4.152C4.89954 1.996 7.82554 0.917998 11.7735 0.917998C15.7215 0.917998 18.6335 1.996 20.5095 4.152C22.4135 6.28 23.3655 9.668 23.3655 14.316C23.3655 18.6 22.3995 21.862 20.4675 24.102ZM5.80954 21.624C7.12554 23.22 9.11354 24.018 11.7735 24.018C17.0375 24.018 19.6695 20.784 19.6695 14.316C19.6695 10.704 19.0255 8.128 17.7375 6.588C16.4775 5.048 14.4895 4.278 11.7735 4.278C9.02955 4.278 7.02755 5.048 5.76755 6.588C4.50754 8.128 3.87754 10.704 3.87754 14.316C3.87754 17.564 4.52154 20 5.80954 21.624ZM33.0252 18.348V27H29.3292V1.296H33.0252V13.392L44.0712 1.296H48.3972L39.1572 11.628L48.6912 27H44.7852L36.8892 14.19L33.0252 18.348ZM62.7547 17.592H58.2187V27H54.5227V1.296H65.6527C68.3127 1.296 70.2867 2.024 71.5747 3.48C72.8627 4.908 73.5067 6.882 73.5067 9.402C73.5067 11.334 73.0447 12.944 72.1207 14.232C71.2247 15.492 69.9367 16.36 68.2567 16.836C68.7327 17.06 69.0967 17.34 69.3487 17.676C69.6287 18.012 69.8947 18.502 70.1467 19.146L73.4647 27H69.6007L66.5767 19.734C66.2407 18.894 65.8207 18.334 65.3167 18.054C64.8127 17.746 63.9587 17.592 62.7547 17.592ZM69.8527 9.402C69.8527 6.154 68.2707 4.53 65.1067 4.53H58.2187V14.358H64.6867C68.1307 14.358 69.8527 12.706 69.8527 9.402Z" fill="#FE724C"/>
<path d="M106.067 19.188C106.067 20.672 106.319 21.75 106.823 22.422C107.355 23.066 108.125 23.388 109.133 23.388H110.141C110.281 23.388 110.379 23.514 110.435 23.766C110.519 23.99 110.561 24.48 110.561 25.236C110.561 25.964 110.519 26.44 110.435 26.664C110.379 26.888 110.281 27 110.141 27H109.133C106.025 27 104.149 25.67 103.505 23.01C102.917 23.654 102.077 24.144 100.985 24.48C99.8928 24.788 98.7308 24.942 97.4988 24.942C95.1188 24.942 93.2988 24.298 92.0388 23.01C90.7788 21.722 90.1488 19.832 90.1488 17.34C90.1488 15.772 90.4848 14.344 91.1568 13.056C91.8568 11.74 92.8228 10.704 94.0548 9.948C95.3148 9.164 96.7428 8.772 98.3388 8.772H102.581V5.874H106.067V19.188ZM93.6348 17.256C93.6348 19.972 94.9928 21.33 97.7088 21.33C99.1928 21.33 100.369 21.064 101.237 20.532C102.133 19.972 102.581 19.23 102.581 18.306V12.3H98.3388C96.8828 12.3 95.7348 12.734 94.8948 13.602C94.0548 14.47 93.6348 15.688 93.6348 17.256ZM113.487 23.388C115.587 23.388 117.337 23.22 118.737 22.884C120.137 22.548 121.579 21.96 123.063 21.12L129.447 17.382C128.999 15.87 128.383 14.82 127.599 14.232C126.843 13.644 125.695 13.35 124.155 13.35H114.327L114.789 9.696H124.743C126.423 9.696 127.809 9.976 128.901 10.536C129.993 11.096 130.903 12.02 131.631 13.308C132.359 14.568 132.989 16.318 133.521 18.558L124.701 24.018C122.909 25.138 121.187 25.922 119.535 26.37C117.883 26.79 115.825 27 113.361 27H110.547C110.267 27 110.127 26.412 110.127 25.236C110.127 24.004 110.267 23.388 110.547 23.388H113.487ZM119.619 4.782V1.296H124.071V4.782H119.619ZM145.416 20.154C145.416 21.19 145.71 21.988 146.298 22.548C146.914 23.108 147.796 23.388 148.944 23.388H149.49C149.77 23.388 149.91 24.004 149.91 25.236C149.91 26.412 149.77 27 149.49 27H148.944C148.188 27 147.488 26.874 146.844 26.622C146.2 26.342 145.724 25.992 145.416 25.572V26.076C145.388 28.316 144.912 30.276 143.988 31.956C143.064 33.664 141.776 34.966 140.124 35.862C138.472 36.786 136.568 37.248 134.412 37.248H131.472L131.136 33.636H134.328C136.708 33.636 138.57 32.936 139.914 31.536C141.258 30.164 141.93 28.246 141.93 25.782V13.476H145.416V20.154ZM152.84 23.388C154.94 23.388 156.69 23.22 158.09 22.884C159.49 22.548 160.932 21.96 162.416 21.12L168.8 17.382C168.352 15.87 167.736 14.82 166.952 14.232C166.196 13.644 165.048 13.35 163.508 13.35H153.68L154.142 9.696H164.096C165.776 9.696 167.162 9.976 168.254 10.536C169.346 11.096 170.256 12.02 170.984 13.308C171.712 14.568 172.342 16.318 172.874 18.558L164.054 24.018C162.262 25.138 160.54 25.922 158.888 26.37C157.236 26.79 155.178 27 152.714 27H149.9C149.62 27 149.48 26.412 149.48 25.236C149.48 24.004 149.62 23.388 149.9 23.388H152.84ZM165.44 32.292V35.61H154.352V32.292H165.44ZM158.048 41.364V38.046H161.744V41.364H158.048ZM211.429 23.388C212.521 23.388 213.389 23.122 214.033 22.59C214.677 22.03 214.999 21.274 214.999 20.322V13.476H218.485V20.196C218.485 21.232 218.765 22.03 219.325 22.59C219.913 23.122 220.767 23.388 221.887 23.388H223.021C223.301 23.388 223.441 24.004 223.441 25.236C223.441 26.412 223.301 27 223.021 27H221.761C219.185 27 217.505 26.174 216.721 24.522C215.741 26.174 213.977 27 211.429 27H196.603C194.139 27 192.277 26.356 191.017 25.068C189.785 23.78 189.169 22.002 189.169 19.734V13.476H192.655V19.272C192.655 22.016 194.041 23.388 196.813 23.388H211.429ZM209.329 6.63V9.948H198.241V6.63H209.329ZM233.552 23.388C234.56 23.388 235.372 23.122 235.988 22.59C236.604 22.03 236.912 21.26 236.912 20.28V13.476H240.44V20.322C240.44 22.394 239.81 24.032 238.55 25.236C237.29 26.412 235.624 27 233.552 27H223.43C223.15 27 223.01 26.412 223.01 25.236C223.01 24.004 223.15 23.388 223.43 23.388H233.552ZM234.938 32.292V35.61H223.85V32.292H234.938ZM242.536 33.636C244.916 33.636 246.778 32.936 248.122 31.536C249.466 30.164 250.138 28.246 250.138 25.782V13.476H253.624V20.154C253.624 21.19 253.918 21.988 254.506 22.548C255.122 23.108 256.004 23.388 257.152 23.388H257.698C257.978 23.388 258.118 24.004 258.118 25.236C258.118 26.412 257.978 27 257.698 27H257.152C256.396 27 255.696 26.874 255.052 26.622C254.408 26.342 253.932 25.992 253.624 25.572V26.076C253.596 28.316 253.12 30.276 252.196 31.956C251.272 33.664 249.984 34.966 248.332 35.862C246.68 36.786 244.776 37.248 242.62 37.248H241.444L241.108 33.636H242.536ZM268.23 23.388C269.238 23.388 270.05 23.122 270.666 22.59C271.282 22.03 271.59 21.26 271.59 20.28V13.476H275.118V20.322C275.118 22.394 274.488 24.032 273.228 25.236C271.968 26.412 270.302 27 268.23 27H258.108C257.828 27 257.688 26.412 257.688 25.236C257.688 24.004 257.828 23.388 258.108 23.388H268.23ZM269.616 32.292V35.61H258.528V32.292H269.616ZM291.261 23.388C292.241 23.388 293.025 23.178 293.613 22.758C294.229 22.338 294.537 21.792 294.537 21.12C294.537 20.56 294.313 19.636 293.865 18.348C293.417 17.06 292.241 13.812 290.337 8.604C290.253 8.38 290.169 8.17 290.085 7.974C290.001 7.75 289.931 7.554 289.875 7.386L293.109 5.916L298.023 19.86C298.471 21.148 298.975 22.058 299.535 22.59C300.095 23.122 300.865 23.388 301.845 23.388H302.727C303.007 23.388 303.147 24.004 303.147 25.236C303.147 25.992 303.105 26.482 303.021 26.706C302.965 26.902 302.867 27 302.727 27H301.719C300.431 27 299.367 26.79 298.527 26.37C297.687 25.95 297.029 25.278 296.553 24.354C296.021 25.278 295.321 25.95 294.453 26.37C293.613 26.79 292.549 27 291.261 27H281.433L281.097 23.388H291.261ZM304.129 23.388C306.117 23.388 307.111 22.492 307.111 20.7V18.978C307.111 16.29 307.825 14.176 309.253 12.636C310.681 11.096 312.641 10.326 315.133 10.326C317.625 10.326 319.543 11.054 320.887 12.51C322.231 13.966 322.903 16.066 322.903 18.81C322.903 21.414 322.203 23.43 320.803 24.858C319.403 26.286 317.471 27 315.007 27C312.095 27 310.135 26.132 309.127 24.396C308.651 25.292 308.021 25.95 307.237 26.37C306.453 26.79 305.417 27 304.129 27H303.163C302.883 27 302.743 26.412 302.743 25.236C302.743 24.004 302.883 23.388 303.163 23.388H304.129ZM319.417 18.81C319.417 15.506 317.947 13.854 315.007 13.854C313.523 13.854 312.417 14.274 311.689 15.114C310.961 15.954 310.597 17.242 310.597 18.978C310.597 20.35 310.975 21.428 311.731 22.212C312.515 22.996 313.607 23.388 315.007 23.388C317.947 23.388 319.417 21.862 319.417 18.81Z" fill="white"/>
</svg>
