<?xml version="1.0" encoding="UTF-8"?>
<svg version="1.1" xmlns="http://www.w3.org/2000/svg" width="1759" height="851">
<path d="M0 0 C1.13856445 0.00491455 2.27712891 0.0098291 3.45019531 0.01489258 C28.34066785 0.36049512 49.94037973 9.45574275 67.78125 26.83984375 C94.72875351 55.15967382 104.29689565 96.07069169 106.84619141 133.96142578 C107.07085331 137.10587222 107.39956125 140.22502373 107.77490234 143.35498047 C111.3942699 174.43253231 105.08755018 192.87198443 85.8984375 217.47265625 C85.26178162 218.27264542 84.62512573 219.07263458 83.96917725 219.89686584 C77.35141738 228.21696438 71.53730739 237.01485937 65.74737549 245.92233276 C63.25678535 249.73861617 60.72267971 253.52574479 58.1875 257.3125 C52.4479811 256.7290332 47.20749979 255.62244635 41.69311523 253.95507812 C40.88342789 253.7157959 40.07374054 253.47651367 39.23951721 253.22998047 C36.5732522 252.44046657 33.90971933 251.64211886 31.24609375 250.84375 C29.3589815 250.2832372 27.47169463 249.72331197 25.58424377 249.16394043 C20.60507419 247.68672266 15.62812912 246.20214766 10.65167236 244.71582031 C4.72791346 242.947855 -1.19822006 241.18787206 -7.12418175 239.42730713 C-11.92876434 237.99980702 -16.73287857 236.57078528 -21.53579712 235.13769531 C-30.18860186 232.55825589 -38.84595528 230.0010516 -47.53076172 227.53125 C-48.27253001 227.31953911 -49.01429831 227.10782822 -49.77854443 226.88970184 C-53.18811638 225.91690629 -56.59939811 224.95152385 -60.01527405 224.00109863 C-61.75556129 223.50652161 -61.75556129 223.50652161 -63.53100586 223.00195312 C-64.53530136 222.72130005 -65.53959686 222.44064697 -66.57432556 222.15148926 C-68.8125 221.3125 -68.8125 221.3125 -69.8125 219.3125 C-69.14465332 217.14306641 -69.14465332 217.14306641 -68.01757812 214.4140625 C-67.59963989 213.39119141 -67.18170166 212.36832031 -66.75109863 211.31445312 C-66.28667358 210.20005859 -65.82224854 209.08566406 -65.34375 207.9375 C-64.87062378 206.78443359 -64.39749756 205.63136719 -63.91003418 204.44335938 C-62.64242637 201.35726308 -61.36835365 198.27400597 -60.09082031 195.1920166 C-57.83160846 189.73638849 -55.58974783 184.27357722 -53.34375 178.8125 C-52.86325195 177.64638184 -52.38275391 176.48026367 -51.88769531 175.27880859 C-48.07338876 166.00292959 -44.38829517 156.68269461 -40.8125 147.3125 C-31.01613203 148.99911821 -21.62459565 151.9127731 -12.1171875 154.7578125 C-10.31555527 155.29342832 -8.51380567 155.82864946 -6.71194458 156.36349487 C-1.9992309 157.76350866 2.71188198 159.16883472 7.42266846 160.57531738 C12.24175102 162.01309296 17.06234642 163.44577751 21.8828125 164.87890625 C31.31918597 167.68515661 40.75387417 170.49702801 50.1875 173.3125 C49.94196235 169.22152819 49.68883829 165.13109813 49.42913818 161.04100037 C49.34208718 159.65397898 49.25699211 158.26683322 49.17401123 156.87956238 C47.94555684 136.40362915 44.23871491 116.78189025 31.1875 100.3125 C30.424375 99.260625 29.66125 98.20875 28.875 97.125 C18.88519284 86.67055065 5.49102624 81.22688067 -8.8125 80.3125 C-24.06556572 80.18485928 -37.59829991 83.87696471 -49.03125 94.34375 C-57.77376044 103.62426108 -62.86396749 115.12547613 -67.47265625 126.8515625 C-67.98436791 128.13319549 -68.49695878 129.41447774 -69.01036072 130.69543457 C-70.08757885 133.38770112 -71.15921205 136.0820912 -72.22631836 138.77838135 C-73.88846867 142.97661851 -75.56685529 147.16824497 -77.24804688 151.35888672 C-81.6086684 162.23538811 -85.95098665 173.11898825 -90.25205994 184.01919556 C-91.48832784 187.14340747 -92.73757646 190.26228686 -93.99118042 193.37957764 C-94.77875992 195.35295986 -95.5461118 197.33335148 -96.31274414 199.31494141 C-103.28705739 216.62810835 -115.37250388 228.74725926 -132.27734375 236.51953125 C-145.82389729 242.22063717 -160.93935961 244.43247701 -175.5546875 244.515625 C-176.36253693 244.52132507 -177.17038635 244.52702515 -178.00271606 244.53289795 C-179.70524822 244.5422801 -181.40779798 244.54885465 -183.11035156 244.55273438 C-185.64683034 244.56234589 -188.18246376 244.59339519 -190.71875 244.625 C-217.27534559 244.79727051 -244.51626425 239.55342073 -264.8125 221.3125 C-265.41191406 220.80589844 -266.01132812 220.29929687 -266.62890625 219.77734375 C-281.03276126 206.71027343 -289.18527339 186.2641588 -293.75 167.8125 C-293.93731689 167.0685498 -294.12463379 166.32459961 -294.31762695 165.55810547 C-297.96234882 149.23097833 -298.11384489 132.18598313 -298.04296875 115.5390625 C-298.04177084 113.63202954 -298.04132507 111.72499597 -298.0415802 109.81796265 C-298.04003434 105.86346627 -298.0318904 101.90906286 -298.01831055 97.95458984 C-298.00125335 92.92894849 -297.99749949 87.9034078 -297.99825573 82.87774086 C-297.99798183 78.95513987 -297.99246665 75.03256013 -297.98525429 71.10996628 C-297.98211237 69.25791966 -297.98011093 67.40587069 -297.97936058 65.55382156 C-297.97715235 62.95592524 -297.96831706 60.35812822 -297.95776367 57.76025391 C-297.95821686 57.02431 -297.95867004 56.28836609 -297.95913696 55.53012085 C-297.91559049 48.06933058 -297.31222957 40.80844358 -296.8125 33.3125 C-277.3425 33.3125 -257.8725 33.3125 -237.8125 33.3125 C-237.78671875 40.01949219 -237.7609375 46.72648437 -237.734375 53.63671875 C-237.70918377 57.9069383 -237.68283324 62.17708862 -237.65234375 66.44726562 C-237.60414749 73.21264838 -237.56005073 79.97787071 -237.54150391 86.7434082 C-237.52626692 92.2030775 -237.49169712 97.66232472 -237.44419098 103.12180519 C-237.42944952 105.19596483 -237.42146318 107.27018474 -237.42061615 109.34439659 C-237.40720492 125.73089317 -236.52891776 139.67058369 -224.8125 152.3125 C-212.34158714 163.69148961 -199.35773116 164.95680337 -183.19482422 164.77905273 C-180.31809764 164.75005642 -177.44321716 164.758486 -174.56640625 164.77148438 C-161.08123079 164.75647267 -147.69642783 164.32115648 -136.8125 155.3125 C-127.66561992 145.21826448 -122.59238403 132.2364562 -117.6953125 119.70703125 C-117.23446259 118.5435466 -116.77361267 117.38006195 -116.29879761 116.18132019 C-114.35314094 111.26879936 -112.4198921 106.35142471 -110.48583984 101.43432617 C-95.7808426 64.10453368 -95.7808426 64.10453368 -87.8125 51.875 C-87.39299072 51.21870605 -86.97348145 50.56241211 -86.54125977 49.88623047 C-82.97861319 44.39598467 -79.09095132 39.26738631 -74.8125 34.3125 C-74.13960937 33.49523437 -73.46671875 32.67796875 -72.7734375 31.8359375 C-54.43250848 10.29368269 -27.98194099 -0.1439572 0 0 Z " fill="#0495A0" transform="translate(805.8125,395.6875)"/>
<path d="M0 0 C10.60968179 7.74028538 15.01473045 17.4909056 18.11376953 29.92260742 C28.70048321 72.3597631 55.24441855 112.46594679 91.46484375 137.45703125 C92.1103418 137.90385254 92.75583984 138.35067383 93.42089844 138.81103516 C103.35205498 145.6108516 113.546317 151.4065361 124.46484375 156.45703125 C125.59019531 156.98941406 126.71554687 157.52179688 127.875 158.0703125 C164.59416697 174.69056702 209.28973479 178.88488714 248.46484375 169.45703125 C249.36009766 169.24272461 250.25535156 169.02841797 251.17773438 168.80761719 C299.95303041 156.72808281 343.49893166 126.62439923 370.17675781 83.72753906 C380.53780924 66.47137799 388.51309 48.46164237 393.52734375 28.95703125 C395.49408413 21.37584649 397.43095601 14.63788076 402.46484375 8.45703125 C402.96371094 7.82152344 403.46257812 7.18601562 403.9765625 6.53125 C410.38873061 -0.71931297 419.85977436 -5.09281985 429.4453125 -5.74609375 C442.05024179 -5.93033145 451.32293579 -3.16477329 460.6640625 5.49609375 C468.67428065 13.87646985 471.98279553 23.72442725 471.8671875 35.1953125 C469.48172644 70.14528823 449.3962392 107.40924281 429.46484375 135.45703125 C429.03977539 136.05628418 428.61470703 136.65553711 428.17675781 137.27294922 C425.6930152 140.73870685 423.11190865 144.11492696 420.46484375 147.45703125 C419.76230469 148.35164062 419.05976562 149.24625 418.3359375 150.16796875 C407.29207587 163.95797845 395.04923735 177.23885836 381.22265625 188.25390625 C379.44492395 189.67407766 377.68764685 191.12043297 375.95703125 192.59765625 C333.64693806 228.56770489 274.38102134 251.40510131 218.796875 251.66015625 C217.80016281 251.66585632 216.80345062 251.6715564 215.77653503 251.6774292 C213.67305542 251.68682216 211.56956147 251.69339029 209.46606445 251.69726562 C206.33061114 251.70686812 203.19584408 251.73790401 200.06054688 251.76953125 C181.43365761 251.868061 163.19283246 249.94797338 145.02734375 245.76953125 C143.90666504 245.51389404 142.78598633 245.25825684 141.63134766 244.99487305 C86.74504646 232.02884428 34.84474438 200.82242611 -1.53515625 157.45703125 C-1.94862305 156.96799316 -2.36208984 156.47895508 -2.78808594 155.97509766 C-29.57175792 124.10118594 -62.44074195 73.05452225 -60.53515625 29.45703125 C-59.08636961 18.48764666 -54.4601062 9.03386907 -45.8203125 1.9921875 C-31.91749192 -7.34765607 -14.60180117 -8.88707467 0 0 Z " fill="#0495A0" transform="translate(1165.53515625,434.54296875)"/>
<path d="M0 0 C2.60298936 2.3360161 5.17039347 4.70724192 7.72021484 7.10107422 C9.87389103 9.10294944 12.06018093 11.00560755 14.31787109 12.88623047 C24.96021668 22.15964364 33.95778142 33.30051516 42.38037109 44.57373047 C42.80946777 45.14591309 43.23856445 45.7180957 43.68066406 46.30761719 C64.98969848 74.91061871 80.78266573 107.6608454 88.87475586 142.4050293 C89.20790066 143.83396472 89.56052819 145.25851815 89.93383789 146.67749023 C92.08454378 155.81064093 90.52880629 165.78251786 86.09130859 173.94482422 C80.17479811 183.32581545 73.18457278 189.56881815 62.58349609 193.18701172 C51.10363376 195.20209394 39.66700949 194.14806033 29.73583984 187.91357422 C19.27199614 180.27355641 14.75182061 170.40997038 11.94287109 158.07373047 C9.09342395 146.66542734 5.47761568 136.16206659 0.38037109 125.57373047 C0.00541504 124.78949707 -0.36954102 124.00526367 -0.75585938 123.19726562 C-17.42006396 88.84859903 -44.30714973 59.37309795 -77.61962891 40.57373047 C-78.2805957 40.19152344 -78.9415625 39.80931641 -79.62255859 39.41552734 C-99.5346767 27.97761517 -121.05637906 20.66377294 -143.61962891 16.57373047 C-144.31830078 16.44385742 -145.01697266 16.31398438 -145.73681641 16.18017578 C-193.7628905 7.70917358 -246.2727977 20.69952549 -286.00976562 48.48266602 C-295.422591 55.20762511 -304.1510833 62.70196157 -312.61962891 70.57373047 C-313.61736328 71.49025391 -313.61736328 71.49025391 -314.63525391 72.42529297 C-339.18411206 95.87643795 -355.09207648 127.86191983 -363.60791016 160.34326172 C-367.0696401 173.49213718 -372.43324323 182.93007649 -384.23291016 190.17919922 C-393.83281292 194.91940017 -404.77105996 195.18561212 -415.08837891 192.75732422 C-425.69805181 188.83338592 -433.5488102 181.42960238 -438.49853516 171.31982422 C-447.32375101 149.70265786 -435.52958883 123.41604793 -427.12744141 103.39404297 C-426.29557836 101.4521883 -425.45990869 99.5119579 -424.61962891 97.57373047 C-424.26610352 96.75614258 -423.91257812 95.93855469 -423.54833984 95.09619141 C-412.11203233 68.99279155 -395.63019446 45.01779416 -376.12744141 24.29248047 C-374.352334 22.36806496 -372.67505032 20.45143196 -371.02197266 18.42919922 C-369.10900079 16.15540665 -367.32295074 14.27694981 -365.05712891 12.38623047 C-362.69054817 10.37835513 -360.38687408 8.35197193 -358.13916016 6.21044922 C-343.26281702 -7.95250088 -326.47725383 -19.37030946 -308.61962891 -29.42626953 C-307.86955566 -29.85746094 -307.11948242 -30.28865234 -306.34667969 -30.73291016 C-279.99779396 -45.80264405 -250.53080503 -55.5542294 -220.61962891 -60.42626953 C-219.69746582 -60.57725098 -218.77530273 -60.72823242 -217.82519531 -60.88378906 C-141.33189753 -72.80331958 -58.49082795 -51.50790125 0 0 Z " fill="#F37124" transform="translate(1546.61962890625,205.42626953125)"/>
<path d="M0 0 C25.08 0 50.16 0 76 0 C76 149.49 76 298.98 76 453 C50.92 453 25.84 453 0 453 C0 303.51 0 154.02 0 0 Z " fill="#0696A1" transform="translate(962,188)"/>
<path d="M0 0 C8.10054778 22.49306466 16.08027247 45.02401262 23.875 67.625 C32.16126056 91.64122838 40.56166748 115.6148808 49.11914062 139.53588867 C49.93547076 141.81948624 50.74935645 144.10393812 51.5625 146.38867188 C64.46889834 185.64123547 64.46889834 185.64123547 93.34765625 213.02734375 C101.40256387 215.98120531 108.62763129 216.28155009 117.15234375 216.23046875 C118.40704971 216.23001053 119.66175568 216.22955231 120.95448303 216.2290802 C123.59959745 216.2260683 126.24435734 216.21930529 128.8894043 216.20581055 C132.2558177 216.18883977 135.62208088 216.18499639 138.98853207 216.18575573 C142.2306505 216.18541613 145.47273823 216.17656264 148.71484375 216.16796875 C149.91197495 216.16685593 151.10910614 216.1657431 152.34251404 216.16459656 C158.64326492 216.12917065 164.7531539 215.833273 171 215 C172.88271908 222.61402952 174.75096855 230.23150307 176.60913086 237.8515625 C177.24212579 240.44448524 177.88049662 243.03591453 178.52124023 245.62695312 C179.44086289 249.34818375 180.34854174 253.07215335 181.25390625 256.796875 C181.54342667 257.95741394 181.83294708 259.11795288 182.13124084 260.31365967 C182.39158615 261.39447815 182.65193146 262.47529663 182.92016602 263.58886719 C183.15333023 264.53928894 183.38649445 265.48971069 183.62672424 266.46893311 C184.01126472 269.07638254 183.94973256 270.55927458 183 273 C169.31834886 287.54757843 148.7357951 295.3606092 129.03442383 296.16113281 C127.59202484 296.18072969 126.14953732 296.19445799 124.70703125 296.203125 C123.92717361 296.21013931 123.14731598 296.21715363 122.34382629 296.22438049 C119.83332516 296.24182958 117.32305959 296.24823466 114.8125 296.25 C113.95718689 296.25067474 113.10187378 296.25134949 112.22064209 296.25204468 C81.88340742 296.2139442 54.05618408 291.0955831 31.30859375 269.4375 C16.58872358 253.95744874 6.50619558 234.45598013 -0.72265625 214.53515625 C-1.15312759 213.36044266 -1.58359894 212.18572906 -2.02711487 210.97541809 C-6.18642228 199.58196692 -10.21960957 188.1444946 -14.21469116 176.69259644 C-15.48630636 173.04759995 -16.76097717 169.40368363 -18.03637695 165.76000977 C-19.37154582 161.94554143 -20.70660554 158.13103549 -22.04057312 154.31614685 C-26.5742481 141.35121612 -31.12816673 128.39342758 -35.6875 115.4375 C-36.07535675 114.33514008 -36.4632135 113.23278015 -36.86282349 112.09701538 C-42.68246678 95.5583899 -48.52127194 79.02659126 -54.375 62.5 C-54.90509171 61.00338333 -54.90509171 61.00338333 -55.44589233 59.47653198 C-56.12668741 57.55480665 -56.8077545 55.63317765 -57.48912048 53.71165466 C-58.12589271 51.91439707 -58.76140691 50.11669314 -59.39552307 48.3184967 C-60.76852615 44.43152074 -62.15795411 40.55437124 -63.61816406 36.69921875 C-63.86055817 36.0508606 -64.10295227 35.40250244 -64.35269165 34.73449707 C-64.98422803 33.05230946 -65.62754737 31.37455791 -66.27197266 29.69726562 C-67.06419096 26.76217916 -67.2592585 25.73277245 -66 23 C-63.46351624 21.64581299 -63.46351624 21.64581299 -60.04321289 20.43457031 C-59.42205093 20.20965408 -58.80088898 19.98473785 -58.16090393 19.75300598 C-56.10336106 19.01244715 -54.03848012 18.29522516 -51.97265625 17.578125 C-50.5435119 17.06949218 -49.11484164 16.55952545 -47.68663025 16.04827881 C-43.9227553 14.70546665 -40.15211346 13.38271339 -36.37994385 12.06341553 C-33.29849429 10.98183639 -30.2222393 9.88592586 -27.14614201 8.78923416 C-23.48591923 7.48468803 -19.82333737 6.18683739 -16.16015625 4.890625 C-15.45833788 4.64200966 -14.75651951 4.39339432 -14.03343391 4.13724518 C-12.05226633 3.4371578 -10.06955165 2.74167113 -8.08618164 2.04785156 C-6.95668594 1.65132385 -5.82719025 1.25479614 -4.66346741 0.84625244 C-2 0 -2 0 0 0 Z " fill="#0495A0" transform="translate(310,344)"/>
<path d="M0 0 C20.13 0 40.26 0 61 0 C61 14.52 61 29.04 61 44 C112.48 43.505 112.48 43.505 165 43 C169.95 57.19 174.9 71.38 180 86 C181.98 91.445 181.98 91.445 184 97 C181.98338278 101.03323443 180.25936702 102.95792411 177 106 C176.51789063 106.47566406 176.03578125 106.95132813 175.5390625 107.44140625 C163.23176104 118.93822689 144.8994855 123.0510169 128.5144043 123.17700195 C127.44433388 123.18685875 127.44433388 123.18685875 126.35264587 123.19691467 C124.00983536 123.21649318 121.66708879 123.2282817 119.32421875 123.23828125 C118.10983596 123.24439454 118.10983596 123.24439454 116.87092018 123.25063133 C112.57727954 123.27143647 108.28367024 123.28575651 103.98999023 123.29516602 C99.60748993 123.30615933 95.22550732 123.34049224 90.84318829 123.38033772 C87.42913532 123.40679809 84.01519966 123.41488399 80.60105324 123.41844749 C78.98869177 123.42324581 77.37633303 123.43465991 75.76407433 123.45348549 C61.49795378 123.60958055 46.25480513 122.29509682 33.5 115.3125 C32.84894287 114.96783691 32.19788574 114.62317383 31.52709961 114.26806641 C16.53788792 106.01033624 8.00942978 92.80403762 2.97265625 76.86328125 C0.46913924 66.9195932 -0.27713242 57.61815238 -0.1953125 47.36328125 C-0.19329834 46.15555054 -0.19128418 44.94781982 -0.18920898 43.70349121 C-0.17883252 39.23978822 -0.15091073 34.77613985 -0.125 30.3125 C-0.08375 20.309375 -0.0425 10.30625 0 0 Z " fill="#0395A0" transform="translate(110,517)"/>
<path d="M0 0 C2.75500869 2.1120468 5.15671227 4.49088388 7.58349609 6.96826172 C8.63162476 8.00806686 8.63162476 8.00806686 9.70092773 9.06887817 C11.98752479 11.34374716 14.25568565 13.63604408 16.5234375 15.9296875 C18.11676839 17.52473099 19.71099063 19.11888453 21.30606079 20.71218872 C24.63722454 24.04500172 27.95972854 27.38613646 31.27587891 30.73388672 C35.52253738 35.02028502 39.78669775 39.28874055 44.05701256 43.55155754 C47.34682321 46.83829666 50.62898471 50.1325862 53.90871048 53.42938614 C55.47844238 55.0061374 57.05012132 56.58095281 58.62379074 58.15377426 C60.82103544 60.35282006 63.00821368 62.56140716 65.19287109 64.77294922 C65.84119904 65.41834656 66.48952698 66.0637439 67.15750122 66.72869873 C72.38553088 72.05613098 75.42549776 76.68264343 75.5 84.375 C75.34698833 90.47460163 74.21217853 94.5348708 70 99 C65.38541678 102.67283154 61.56918748 104.11364287 55.75 104.3125 C54.69039062 104.36857422 54.69039062 104.36857422 53.609375 104.42578125 C46.03239654 103.189418 40.74000442 98.32044367 35.5300293 93.03173828 C34.83142288 92.33853485 34.13281647 91.64533142 33.41304016 90.93112183 C31.1234416 88.65395562 28.84857703 86.36269248 26.57421875 84.0703125 C24.979239 82.47548784 23.38359141 80.88133083 21.78730774 79.28781128 C18.45166687 75.95355187 15.12308258 72.61245158 11.79956055 69.26611328 C7.54330904 64.98144398 3.27163545 60.71255401 -1.00520039 56.44844246 C-4.2990958 53.16150687 -7.58557265 49.86723505 -10.86977196 46.57061386 C-12.4421561 44.99372067 -14.01662567 43.41890406 -15.59322548 41.84622574 C-17.79526733 39.6470998 -19.98734149 37.43849613 -22.17700195 35.22705078 C-22.82690094 34.58165344 -23.47679993 33.9362561 -24.14639282 33.27130127 C-29.21836451 28.11537646 -32.42766599 23.54618482 -32.4375 16.0625 C-32.25754521 9.74061013 -31.03697178 6.19052653 -26.609375 1.5390625 C-18.27532856 -6.0493061 -9.22748746 -5.14032411 0 0 Z " fill="#0A98A2" transform="translate(1324,293)"/>
<path d="M0 0 C1.33804687 -0.04253906 1.33804687 -0.04253906 2.703125 -0.0859375 C10.47397453 1.08965256 15.7807385 5.82202346 21.12817383 11.25146484 C21.81702667 11.9349147 22.50587952 12.61836456 23.21560669 13.32252502 C25.47274024 15.5672283 27.71513788 17.82602097 29.95703125 20.0859375 C31.52959076 21.65834192 33.10281815 23.23007864 34.67668152 24.80117798 C37.9652445 28.0883596 41.24675024 31.38237966 44.52319336 34.68164062 C48.71891126 38.9057768 52.93004928 43.11413046 57.14635181 47.31770897 C60.39392449 50.55832146 63.63407745 53.80627016 66.87195396 57.05656815 C68.42200958 58.61113243 69.97415014 60.16362075 71.5284214 61.71397018 C73.69933171 63.8819642 75.86026966 66.05943378 78.01879883 68.23974609 C78.65934708 68.87579269 79.29989532 69.51183929 79.95985413 70.16716003 C85.46856247 75.76835096 88.267332 80.94856541 88.80078125 88.85546875 C88.69702176 94.0035359 87.39782228 97.60727382 83.87109375 101.390625 C79.02723907 105.779532 75.68488849 107.52953636 69.0625 107.75 C68.06863281 107.79898438 67.07476563 107.84796875 66.05078125 107.8984375 C58.34814517 106.67695438 52.68580775 100.7554322 47.37182617 95.41674805 C46.68297333 94.73636475 45.99412048 94.05598145 45.28439331 93.35498047 C43.02944737 91.12326761 40.78570943 88.88069225 38.54296875 86.63671875 C36.97004268 85.07090037 35.39682115 83.50537873 33.82331848 81.94013977 C30.53594941 78.66618255 27.25453866 75.3863873 23.97680664 72.1027832 C19.78277797 67.90284917 15.57075846 63.72148249 11.35364819 59.54474163 C8.10300887 56.31998417 4.86394383 53.08379139 1.62804604 49.84424782 C0.07989548 48.29778672 -1.4722264 46.75529041 -3.0284214 45.21692467 C-5.20403125 43.06352145 -7.36308825 40.89473504 -9.51879883 38.72143555 C-10.4796212 37.78050804 -10.4796212 37.78050804 -11.45985413 36.8205719 C-16.42812116 31.75791271 -18.85469753 27.06448968 -19.625 19.875 C-18.96055937 13.67355413 -17.58239472 9.20692431 -12.8125 5 C-8.66390781 1.67741387 -5.37699498 0.07681421 0 0 Z " fill="#0A98A2" transform="translate(1429.25,299.625)"/>
<path d="M0 0 C0.82242187 0.05542969 1.64484375 0.11085938 2.4921875 0.16796875 C8.96324949 1.75213081 13.60470717 6.98182099 18.18432617 11.53369141 C18.86313339 12.20096252 19.54194061 12.86823364 20.24131775 13.5557251 C22.47256589 15.75281858 24.69597788 17.95760935 26.91796875 20.1640625 C28.06251746 21.29825686 28.06251746 21.29825686 29.23018837 22.45536423 C33.26585177 26.45526304 37.29538741 30.46122003 41.32006836 34.47216797 C45.46761876 38.60315621 49.63569709 42.71276464 53.8088789 46.81783485 C57.0248636 49.98896541 60.2250704 53.17567046 63.42125893 56.36674118 C64.95076171 57.88836962 66.48611727 59.40413936 68.0274868 60.91374588 C70.18654738 63.03121026 72.32222869 65.16991061 74.45385742 67.31494141 C75.40536682 68.23341354 75.40536682 68.23341354 76.37609863 69.17044067 C80.88612581 73.77702775 83.1094435 78.41899312 84.125 84.8125 C83.92070009 91.62971929 81.89431168 96.30197944 77.10546875 101.1796875 C72.49028166 104.98471354 68.12730738 106.09567396 62.1875 105.875 C50.04125031 103.87674968 41.426817 92.53702852 33.16796875 84.21875 C31.73360986 82.78387163 30.29873051 81.34951336 28.86335754 79.91564941 C25.86907913 76.92128168 22.87999991 73.92185048 19.89477539 70.91845703 C16.07579582 67.07674059 12.2457867 63.24625076 8.41205883 59.41925812 C5.4527999 56.46334553 2.49856055 53.50245798 -0.45410728 50.53996277 C-1.86453162 49.12570152 -3.2762921 47.71277145 -4.68943214 46.30122375 C-6.66357972 44.32744851 -8.63108246 42.34727817 -10.59692383 40.36523438 C-11.17620132 39.7884343 -11.75547882 39.21163422 -12.35231018 38.61735535 C-17.97636494 32.9194325 -21.58963591 28.16430234 -22.125 20 C-22.03000907 13.61186023 -19.2864487 8.34999009 -14.875 3.8125 C-9.84230838 0.87676322 -5.79790196 -0.478643 0 0 Z " fill="#0998A2" transform="translate(1295.875,379.1875)"/>
<path d="M0 0 C1.58844727 -0.01063477 1.58844727 -0.01063477 3.20898438 -0.02148438 C14.42087948 0.06832132 22.17220857 2.14383905 30.3046875 10.046875 C38.82403409 19.59603271 39.1125023 32.20308336 38.4375 44.4375 C37.46561989 53.25731204 34.40349784 62.49541992 27.4375 68.4375 C18.24927239 73.96537677 10.95118365 74.66511891 0.375 74.75 C-1.39133789 74.79350586 -1.39133789 74.79350586 -3.19335938 74.83789062 C-12.123079 74.90213321 -20.55869788 73.66693622 -27.9375 68.25 C-36.70843309 58.85257169 -38.91844115 47.20594826 -38.77734375 34.6953125 C-38.0676058 23.93310434 -35.2818729 14.75037626 -27.4375 7.1875 C-19.25812071 0.85410906 -10.0412825 -0.19015257 0 0 Z " fill="#0796A1" transform="translate(582.5625,678.5625)"/>
<path d="M0 0 C1.09054687 -0.020625 2.18109375 -0.04125 3.3046875 -0.0625 C13.91930628 -0.11328765 23.08822314 1.60227273 30.875 9.25 C39.83202319 19.88646504 39.92092098 34.05017412 38.875 47.25 C37.54708895 55.58804611 33.58800725 63.98154747 26.70239258 69.16503906 C18.32380122 74.13958281 9.86060998 74.87837795 0.3125 74.75 C-1.4190332 74.77320313 -1.4190332 74.77320313 -3.18554688 74.796875 C-13.47119365 74.75020162 -21.75158676 72.45410492 -29.3671875 65.31640625 C-38.86630904 54.14966114 -37.98927946 40.05370688 -37.125 26.25 C-35.74627682 17.55614044 -31.92136921 10.88776145 -25.125 5.25 C-16.93101539 0.40626525 -9.32724033 0.04318167 0 0 Z " fill="#0696A1" transform="translate(493.125,678.75)"/>
<path d="M0 0 C0.91225819 2.31376469 1.61760807 4.48923614 2.26171875 6.87890625 C2.45723831 7.5655687 2.65275787 8.25223114 2.85420227 8.95970154 C3.47708652 11.15751125 4.08242707 13.35972756 4.6875 15.5625 C5.10627706 17.05175469 5.52618483 18.54069192 5.94726562 20.02929688 C6.97800899 23.68264108 7.99304294 27.34003159 9 31 C11.64 31 14.28 31 17 31 C18.67804245 27.1259107 19.70987251 23.30557369 20.625 19.1875 C20.88539063 18.02605469 21.14578125 16.86460937 21.4140625 15.66796875 C21.60742188 14.78753906 21.80078125 13.90710938 22 13 C27.94 13.99 27.94 13.99 34 15 C33.67 20.28 33.34 25.56 33 31 C36.3 31 39.6 31 43 31 C43.23783203 29.69675781 43.23783203 29.69675781 43.48046875 28.3671875 C45.85395734 16.64398972 45.85395734 16.64398972 51 12 C54.65269716 9.59005957 58.07133031 9.6679508 62.375 9.625 C63.66148437 9.59664063 64.94796875 9.56828125 66.2734375 9.5390625 C71.38411966 10.17120138 74.2371882 12.210421 77.80078125 15.828125 C79.41956839 18.75986978 79.75711067 21.43931285 80.1875 24.75 C80.34605469 25.92046875 80.50460937 27.0909375 80.66796875 28.296875 C80.83232422 29.63492187 80.83232422 29.63492187 81 31 C83.97 31 86.94 31 90 31 C90.33 25.06 90.66 19.12 91 13 C94.96 13 98.92 13 103 13 C103.33 18.61 103.66 24.22 104 30 C105.65 30.33 107.3 30.66 109 31 C109.26554688 29.78441406 109.53109375 28.56882812 109.8046875 27.31640625 C110.16101832 25.73167183 110.51781314 24.14704169 110.875 22.5625 C111.04902344 21.76005859 111.22304688 20.95761719 111.40234375 20.13085938 C111.87150513 18.0717622 112.42972759 16.03341657 113 14 C115.81484045 12.59257978 117.56936113 13.33347836 120.625 13.9375 C123.285625 14.4634375 123.285625 14.4634375 126 15 C125.67 20.28 125.34 25.56 125 31 C127.97 31.495 127.97 31.495 131 32 C131 25.07 131 18.14 131 11 C135.29 11 139.58 11 144 11 C144.10804105 15.37566252 144.18735287 19.74865081 144.25 24.125 C144.28351563 25.3625 144.31703125 26.6 144.3515625 27.875 C144.47536394 39.38853376 144.47536394 39.38853376 140 44 C134.77446458 47.07384437 129.9282079 47.81347621 124 47 C122.52440961 46.50728112 121.06388526 45.96639504 119.625 45.375 C118.42875 44.92125 117.2325 44.4675 116 44 C115.01 44.66 114.02 45.32 113 46 C107.65137862 47.23429724 104.17482832 46.65985059 99 45 C95.08106742 44.78539818 95.08106742 44.78539818 91.875 46.0625 C86.44766443 47.37556506 81.23819771 46.91166809 75.86328125 45.3984375 C73.84477247 44.7960458 73.84477247 44.7960458 71.375 45.9375 C64.81688749 48.00209098 58.3534283 47.63434832 52 45 C48.94218792 43.59774966 48.94218792 43.59774966 45.9375 45.4375 C40.75418492 47.81045226 35.11393128 48.00992366 29.6875 46.25 C28.98625 45.96125 28.285 45.6725 27.5625 45.375 C26.386875 44.92125 25.21125 44.4675 24 44 C23.01 44.66 22.02 45.32 21 46 C14.98450363 47.17099144 9.70038018 47.50260593 4 45 C1.90584196 44.20376178 1.90584196 44.20376178 0 44 C-0.99 44.66 -1.98 45.32 -3 46 C-9.76380209 47.8006026 -18.44550412 48.35308193 -25.0625 45.8125 C-28.39549007 43.75597421 -29.93934489 42.33922789 -32 39 C-32.4753257 35.87741972 -32.37924468 32.83659625 -32.25 29.6875 C-32.23195313 28.85154297 -32.21390625 28.01558594 -32.1953125 27.15429688 C-32.14841126 25.10236772 -32.07667411 23.05103244 -32 21 C-28.7 21 -25.4 21 -22 21 C-21.67 24.3 -21.34 27.6 -21 31 C-16.05 31 -11.1 31 -6 31 C-6.5053125 29.14632813 -7.010625 27.29265625 -7.53125 25.3828125 C-8.18763162 22.96357737 -8.84387446 20.54430459 -9.5 18.125 C-9.83386719 16.90167969 -10.16773438 15.67835938 -10.51171875 14.41796875 C-10.82753906 13.25136719 -11.14335937 12.08476562 -11.46875 10.8828125 C-11.90864258 9.26463623 -11.90864258 9.26463623 -12.35742188 7.61376953 C-13 5 -13 5 -13 3 C-11.40084119 2.30093058 -9.79544955 1.61610532 -8.1875 0.9375 C-7.29417969 0.55464844 -6.40085937 0.17179687 -5.48046875 -0.22265625 C-3 -1 -3 -1 0 0 Z M58 24 C57.67 26.64 57.34 29.28 57 32 C60.3 32 63.6 32 67 32 C67 29.36 67 26.72 67 24 C64.03 24 61.06 24 58 24 Z " fill="#139CA6" transform="translate(399,301)"/>
<path d="M0 0 C4.3837737 2.33801264 6.76675377 5.45101151 8.1953125 10.140625 C8.94538502 13.84368572 8.68432374 17.51286069 8.62890625 21.28125 C11.92890625 20.95125 15.22890625 20.62125 18.62890625 20.28125 C19.94890625 14.34125 21.26890625 8.40125 22.62890625 2.28125 C26.91890625 2.94125 31.20890625 3.60125 35.62890625 4.28125 C34.96890625 9.56125 34.30890625 14.84125 33.62890625 20.28125 C36.59890625 20.61125 39.56890625 20.94125 42.62890625 21.28125 C42.59410156 20.62898438 42.55929687 19.97671875 42.5234375 19.3046875 C42.3543702 13.84622882 42.41957998 9.92923977 45.62890625 5.28125 C51.25741657 0.20186264 54.96568105 -0.06148463 62.41796875 -0.00390625 C67.67285365 0.46276844 69.64894014 2.37199696 73.37890625 5.96875 C76.44164287 11.63481274 76.88265539 17.93752147 76.62890625 24.28125 C76.62890625 25.27125 76.62890625 26.26125 76.62890625 27.28125 C77.57765625 26.476875 78.52640625 25.6725 79.50390625 24.84375 C82.68955748 22.14287178 84.54920103 21.15392813 88.76171875 21.18359375 C89.85057373 21.18734009 89.85057373 21.18734009 90.96142578 21.19116211 C91.88294434 21.20026611 92.80446289 21.20937012 93.75390625 21.21875 C98.14703125 21.2496875 98.14703125 21.2496875 102.62890625 21.28125 C102.95890625 14.35125 103.28890625 7.42125 103.62890625 0.28125 C107.58890625 0.28125 111.54890625 0.28125 115.62890625 0.28125 C115.73724143 4.13617683 115.81639318 7.98803338 115.87890625 11.84375 C115.91242188 12.92978516 115.9459375 14.01582031 115.98046875 15.13476562 C116.06131004 21.78396142 115.67869616 25.91801471 111.62890625 31.28125 C106.89883883 35.10555983 103.29218368 36.41964201 97.24609375 36.10546875 C90.11018206 35.72500814 90.11018206 35.72500814 83.89306641 38.64990234 C80.25575636 42.48020804 77.4197676 46.8137695 74.62890625 51.28125 C73.96890625 52.27125 73.30890625 53.26125 72.62890625 54.28125 C66.94954272 53.18523248 61.40679945 51.73146419 55.87890625 50.03125 C54.6259375 49.65484375 53.37296875 49.2784375 52.08203125 48.890625 C47.80667185 46.89803668 46.30423548 45.11738316 43.62890625 41.28125 C42.81640625 38.40625 42.81640625 38.40625 42.62890625 36.28125 C42.04882812 36.30445313 41.46875 36.32765625 40.87109375 36.3515625 C35.96494461 36.46490588 32.27794498 36.01112488 27.62890625 34.28125 C23.78372713 34.04391978 23.78372713 34.04391978 21.00390625 35.28125 C16.49847721 36.61619194 12.29266539 36.44715448 7.62890625 36.28125 C7.54640625 37.1475 7.46390625 38.01375 7.37890625 38.90625 C6.24435862 44.01171436 4.1280844 47.16447092 -0.06640625 50.2890625 C-3.50053477 52.35928182 -6.77473787 53.71724217 -10.55859375 55.03125 C-11.76902344 55.45921875 -12.97945312 55.8871875 -14.2265625 56.328125 C-17.37109375 57.28125 -17.37109375 57.28125 -20.37109375 57.28125 C-20.87669283 55.84570975 -21.37536865 54.4077298 -21.87109375 52.96875 C-22.14953125 52.16824219 -22.42796875 51.36773437 -22.71484375 50.54296875 C-23.37109375 48.28125 -23.37109375 48.28125 -23.37109375 45.28125 C-22.406875 44.96671875 -21.44265625 44.6521875 -20.44921875 44.328125 C-19.17296771 43.89645185 -17.89693746 43.46412555 -16.62109375 43.03125 C-15.986875 42.82628906 -15.35265625 42.62132812 -14.69921875 42.41015625 C-10.68352733 41.02976232 -8.11742128 39.52690981 -5.37109375 36.28125 C-6.20640625 36.33345703 -6.20640625 36.33345703 -7.05859375 36.38671875 C-12.6701731 36.58577815 -17.43188554 36.11961852 -22.37109375 33.28125 C-27.34135347 28.05610516 -27.66159774 24.47211947 -27.5859375 17.4609375 C-27.17633631 11.39883992 -25.77007909 6.96003241 -21.87109375 2.28125 C-16.19518678 -2.25947558 -6.77526787 -2.05378795 0 0 Z M-13.37109375 13.28125 C-14.03109375 15.92125 -14.69109375 18.56125 -15.37109375 21.28125 C-11.74109375 21.28125 -8.11109375 21.28125 -4.37109375 21.28125 C-4.32867652 18.94830225 -4.33016438 16.61422433 -4.37109375 14.28125 C-5.35377234 13.07563816 -5.35377234 13.07563816 -7.21875 13.18359375 C-9.26953125 13.21614583 -11.3203125 13.24869792 -13.37109375 13.28125 Z M55.62890625 14.28125 C55.62890625 16.59125 55.62890625 18.90125 55.62890625 21.28125 C58.26890625 21.28125 60.90890625 21.28125 63.62890625 21.28125 C63.29890625 18.97125 62.96890625 16.66125 62.62890625 14.28125 C60.31890625 14.28125 58.00890625 14.28125 55.62890625 14.28125 Z M66.62890625 34.28125 C64.75833834 34.5087515 62.88204667 34.69087811 61.00390625 34.84375 C59.49957031 34.96943359 59.49957031 34.96943359 57.96484375 35.09765625 C57.19398438 35.15824219 56.423125 35.21882813 55.62890625 35.28125 C57.92467303 37.57701678 59.53236874 38.3450875 62.62890625 39.28125 C65.58527843 39.07008056 67.11570129 38.68827462 69.44140625 36.84375 C70.83060067 35.34295257 70.83060067 35.34295257 70.62890625 33.28125 C68.55437065 33.1321788 68.55437065 33.1321788 66.62890625 34.28125 Z " fill="#129BA6" transform="translate(797.37109375,311.71875)"/>
<path d="M0 0 C6.30859569 5.75374443 12.39947376 11.72394074 18.46260071 17.73399353 C19.03624548 18.30231462 19.60989025 18.87063572 20.2009182 19.45617867 C23.22906477 22.45779256 26.25365938 25.46293902 29.27583313 28.4705658 C31.76439112 30.94573479 34.26003811 33.41340858 36.76216125 35.87486267 C39.80407455 38.86736861 42.83344345 41.87204842 45.85429955 44.88580513 C47.00025407 46.0250737 48.15043795 47.16010548 49.30501747 48.29063225 C56.17690949 55.02729038 61.36266458 60.21329 62.63056946 70.17539978 C61.89562673 76.15993346 59.90267202 81.5854517 55.31806946 85.67539978 C49.98883077 89.19269731 45.56690444 90.28736831 39.19306946 89.73789978 C33.14813772 88.17375262 29.2096731 85.47969088 24.90058899 81.06065369 C24.3271727 80.49278641 23.75375641 79.92491913 23.16296387 79.33984375 C21.28813872 77.47674167 19.43185278 75.59633219 17.57588196 73.71446228 C16.2701895 72.40705715 14.96360543 71.10054192 13.65617371 69.7948761 C10.92684187 67.06389534 8.20620446 64.32463286 5.49189758 61.57872009 C2.01523466 58.06230291 -1.47889699 54.5638923 -4.97923088 51.07105446 C-7.67538468 48.37797142 -10.36388069 45.67735116 -13.04994583 42.97420883 C-14.33581193 41.68132183 -15.62362793 40.39037109 -16.91343307 39.10141373 C-18.71346899 37.29957758 -20.50338388 35.4882624 -22.29081726 33.67393494 C-23.08871925 32.88042885 -23.08871925 32.88042885 -23.90274048 32.07089233 C-28.60204852 27.2622044 -30.09373478 23.45560193 -30.11943054 16.80039978 C-29.99327138 11.07417553 -29.28082222 7.44740019 -25.33036804 3.12071228 C-18.42077292 -3.47337622 -8.36081396 -5.83983993 0 0 Z " fill="#0696A1" transform="translate(1254.8069305419922,440.26210021972656)"/>
<path d="M0 0 C8.25018714 1.96932823 16.36471709 4.20985516 24.4375 6.8125 C25.48615234 7.13025391 26.53480469 7.44800781 27.61523438 7.77539062 C34.89161517 10.13291948 38.25847888 12.23123779 42.10009766 18.91357422 C43.69749464 22.61714304 43.32757709 26.46016315 43.3125 30.4375 C43.32861328 31.28376953 43.34472656 32.13003906 43.36132812 33.00195312 C43.36510071 37.81954136 43.15835464 41.10872574 40 45 C34.5387415 48.92090354 29.82120892 49.14324264 23.25 49.0625 C22.20392578 49.05573242 22.20392578 49.05573242 21.13671875 49.04882812 C19.42444197 49.0371002 17.71220967 49.01916653 16 49 C15.67 48.01 15.34 47.02 15 46 C13.69869141 46.73669922 13.69869141 46.73669922 12.37109375 47.48828125 C6.55620885 49.98037478 0.2656911 49.31436128 -5.9375 49.1875 C-7.19369141 49.17396484 -8.44988281 49.16042969 -9.74414062 49.14648438 C-12.82987279 49.11128591 -15.91471024 49.06204305 -19 49 C-19.13792969 49.94472168 -19.27585937 50.88944336 -19.41796875 51.86279297 C-20.34811119 56.87635438 -23.24185978 59.70103104 -27 63 C-33.04338627 66.76007679 -40.1551787 68.31118428 -47 70 C-47.50559908 68.56445975 -48.0042749 67.1264798 -48.5 65.6875 C-48.7784375 64.88699219 -49.056875 64.08648437 -49.34375 63.26171875 C-50 61 -50 61 -50 58 C-47.5433053 56.99580363 -45.08481647 55.99649499 -42.625 55 C-41.92632813 54.71382813 -41.22765625 54.42765625 -40.5078125 54.1328125 C-35.2265625 52 -35.2265625 52 -33 52 C-32.67 50.68 -32.34 49.36 -32 48 C-32.56847656 48.09539062 -33.13695312 48.19078125 -33.72265625 48.2890625 C-38.98635267 49.04478519 -43.02611347 49.25232597 -48 47 C-51.75288696 43.93330682 -53.69779801 41.03104207 -55.0625 36.375 C-55.39366831 30.1073331 -54.22196502 22.44046196 -50.7890625 17.125 C-47.7790956 14.06030643 -44.89104404 12.07886252 -40.6015625 11.69921875 C-38.63316406 11.69341797 -38.63316406 11.69341797 -36.625 11.6875 C-35.31789063 11.67074219 -34.01078125 11.65398437 -32.6640625 11.63671875 C-27.00667293 12.19763264 -23.68153274 14.79253401 -20 19 C-18.90493508 22.28519475 -18.90039392 24.73663415 -18.9375 28.1875 C-18.94652344 29.27417969 -18.95554687 30.36085938 -18.96484375 31.48046875 C-18.97644531 32.31191406 -18.98804688 33.14335937 -19 34 C-16.96112154 33.4467619 -16.96112154 33.4467619 -15 32 C-14.15147231 29.13370621 -14.15147231 29.13370621 -13.75 25.8125 C-12.53325143 19.68117479 -10.75114251 16.85143735 -5.83984375 13.07421875 C-4 12 -4 12 -2 12 C-1.855625 10.7625 -1.71125 9.525 -1.5625 8.25 C-1.23268648 5.42302698 -0.70892047 2.75495071 0 0 Z M19 20 C19.66 24.62 20.32 29.24 21 34 C24.3 34 27.6 34 31 34 C31.50533827 28.51332458 31.50533827 28.51332458 29.5 23.625 C26.08271137 21.40376239 22.99255989 20.79851198 19 20 Z M0 25 C-1.81602517 29.53832753 -1.81602517 29.53832753 -1 34 C1.97 34 4.94 34 8 34 C8 31.03 8 28.06 8 25 C5.36 25 2.72 25 0 25 Z M-40 26 C-41.47047336 29.91063224 -41.47047336 29.91063224 -42 34 C-38.37 34 -34.74 34 -31 34 C-30.95758277 31.66705225 -30.95907063 29.33297433 -31 27 C-31.98267859 25.79438816 -31.98267859 25.79438816 -33.84765625 25.90234375 C-35.8984375 25.93489583 -37.94921875 25.96744792 -40 26 Z " fill="#119BA5" transform="translate(602,299)"/>
<path d="M0 0 C2.97 0 5.94 0 9 0 C9.02505615 1.29736084 9.0501123 2.59472168 9.07592773 3.93139648 C9.16981752 8.72658856 9.27008249 13.5216295 9.37231445 18.31665039 C9.41573334 20.39539057 9.45740312 22.47416803 9.49731445 24.55297852 C9.55484921 27.53413145 9.61859119 30.51509549 9.68359375 33.49609375 C9.70030624 34.43150497 9.71701874 35.3669162 9.73423767 36.33067322 C9.7641555 37.62189842 9.7641555 37.62189842 9.79467773 38.93920898 C9.81799416 40.08171364 9.81799416 40.08171364 9.84178162 41.24729919 C9.81379329 43.02735006 9.81379329 43.02735006 11 44 C13.58075357 44.39532632 13.58075357 44.39532632 16.625 44.5 C17.64851563 44.5721875 18.67203125 44.644375 19.7265625 44.71875 C23.74475795 43.8364732 25.8249889 42.75963692 28.60351562 39.72802734 C31.92882618 33.2320448 30.98633767 25.19079319 30.9375 18.0625 C30.95061915 16.31182245 30.96686409 14.56116537 30.98632812 12.81054688 C31.0270358 8.53975141 31.02507251 4.27089531 31 0 C33.97 0 36.94 0 40 0 C40 8.58 40 17.16 40 26 C43.96 24.515 43.96 24.515 48 23 C54.23896442 22.08698082 59.5912856 22.75477136 65 26 C69.17654777 29.96236583 69.31395896 33.30474373 69.5 39 C69.33164607 44.70599556 68.99009497 47.89906906 65 52 C61.1608445 55.47923467 57.63148484 56.11575282 52.55786133 56.16113281 C51.68627884 56.17074036 50.81469635 56.1803479 49.91670227 56.19024658 C48.98126083 56.19449646 48.0458194 56.19874634 47.08203125 56.203125 C46.11021408 56.20882507 45.13839691 56.21452515 44.13713074 56.22039795 C42.08028244 56.22983819 40.02341908 56.23637805 37.96655273 56.24023438 C34.84136039 56.24991064 31.71683415 56.28093148 28.59179688 56.3125 C26.58854555 56.31903357 24.58528954 56.32428265 22.58203125 56.328125 C21.65671097 56.3404718 20.73139069 56.3528186 19.7780304 56.36553955 C14.31265219 56.347055 9.92418015 55.60465742 4.83476257 53.57528687 C2.03885557 52.6986347 0.56248428 53.71094541 -2 55 C-5.30894931 55.69779552 -8.65273946 56.14959198 -12 56.625 C-12.88945312 56.7590625 -13.77890625 56.893125 -14.6953125 57.03125 C-18.84635419 57.63841729 -22.79662862 58.06974621 -27 58 C-27.33 55.03 -27.66 52.06 -28 49 C-25.04335481 47.5216774 -22.25770263 47.93967217 -19 48 C-19.33 47.34 -19.66 46.68 -20 46 C-20.29445815 43.7121729 -20.53660274 41.41753395 -20.75390625 39.12109375 C-20.81907944 38.43499527 -20.88425262 37.74889679 -20.95140076 37.04200745 C-21.08864817 35.58540124 -21.22385075 34.12860114 -21.35717773 32.67163086 C-21.55952039 30.46992142 -21.77047801 28.26916272 -21.98242188 26.06835938 C-22.64533706 19.03137509 -23.18307015 12.0760591 -23 5 C-20.03 5 -17.06 5 -14 5 C-13.56721 9.39197437 -13.14019898 13.78446312 -12.71826172 18.17749023 C-12.5742956 19.66819982 -12.428821 21.15876461 -12.28173828 22.64916992 C-11.51342868 30.4446377 -10.78774368 38.15536005 -11 46 C-9.51988629 45.69201674 -8.04092675 45.378482 -6.5625 45.0625 C-5.73878906 44.88847656 -4.91507812 44.71445313 -4.06640625 44.53515625 C-2.02338796 44.19247006 -2.02338796 44.19247006 -1 43 C-0.87814857 41.65016252 -0.82233169 40.29425299 -0.79467773 38.93920898 C-0.77473251 38.07839218 -0.75478729 37.21757538 -0.73423767 36.33067322 C-0.71752518 35.39526199 -0.70081268 34.45985077 -0.68359375 33.49609375 C-0.66281265 32.54307877 -0.64203156 31.59006378 -0.62062073 30.60816956 C-0.55501823 27.5513559 -0.49619082 24.49445344 -0.4375 21.4375 C-0.39432494 19.37043337 -0.35071099 17.30337586 -0.30664062 15.23632812 C-0.19932599 10.15764405 -0.09808909 5.0788703 0 0 Z M35 44 C35 44.33 35 44.66 35 45 C38.97915159 45.02886984 42.95827653 45.04675406 46.9375 45.0625 C48.64196289 45.07506836 48.64196289 45.07506836 50.38085938 45.08789062 C51.46044922 45.09111328 52.54003906 45.09433594 53.65234375 45.09765625 C54.65257568 45.10289307 55.65280762 45.10812988 56.68334961 45.11352539 C58.96207228 45.26181095 58.96207228 45.26181095 60 44 C60.19941868 41.93227266 60.19941868 41.93227266 60.1875 39.5625 C60.20167969 38.75941406 60.21585938 37.95632812 60.23046875 37.12890625 C60.20162356 34.78369367 60.20162356 34.78369367 58 33 C47.1632107 31.52312783 41.96783779 36.28869565 35 44 Z " fill="#F4813D" transform="translate(406,195)"/>
<path d="M0 0 C5.05161172 3.43536101 9.26659483 7.90622706 13.53955078 12.24389648 C15.23172718 13.95755154 16.94427792 15.64873335 18.65991211 17.33886719 C19.75429614 18.435894 20.84743894 19.53416076 21.93920898 20.63378906 C22.44547318 21.13195633 22.95173737 21.6301236 23.4733429 22.14338684 C27.81293111 26.59829581 30.84510949 31.69890492 30.85717773 38.08300781 C30.64035383 43.61673085 28.78478658 48.15392256 24.95874023 52.18457031 C20.55694769 56.00541562 16.99309463 57.93731614 11.16967773 58.02050781 C9.83163086 58.06304688 9.83163086 58.06304688 8.46655273 58.10644531 C-0.76387585 56.71004714 -6.54398565 50.30720883 -12.79077148 43.95654297 C-14.32716224 42.39871194 -15.88377055 40.8634198 -17.44360352 39.32910156 C-28.66366422 28.14545608 -28.66366422 28.14545608 -30.07641602 19.66894531 C-29.93738742 13.38485273 -29.5960779 8.73572655 -24.99829102 4.02441406 C-17.51866558 -2.77080121 -9.30467007 -4.90418013 0 0 Z " fill="#0B98A3" transform="translate(1414.580322265625,492.3544921875)"/>
<path d="M0 0 C2.49361571 1.20381448 4.68143083 2.45428722 7 4 C6.4558115 8.05326604 4.37327476 10.08273747 1.625 13 C-1.0973542 15.90857386 -3.63850132 18.7937169 -6 22 C-5.09233887 22.01458252 -4.18467773 22.02916504 -3.24951172 22.04418945 C0.1390931 22.10548149 3.52691689 22.17967576 6.91503906 22.26245117 C8.37749708 22.29557135 9.84007895 22.32364305 11.30273438 22.34643555 C13.41329403 22.38022175 15.52273186 22.4325438 17.6328125 22.48828125 C18.90012207 22.51446533 20.16743164 22.54064941 21.47314453 22.56762695 C26.68247562 23.20626224 29.91935205 24.74644838 33.34375 28.71875 C35.29331642 32.58109857 35.53504281 35.18973384 35.5 39.5 C35.51546875 41.40265625 35.51546875 41.40265625 35.53125 43.34375 C34.90189485 47.67519424 33.89664831 49.7271636 31 53 C24.3231792 56.98063901 17.44871781 56.39962025 9.859375 56.328125 C8.48651334 56.32506276 7.11364856 56.32319018 5.74078369 56.32244873 C2.87622012 56.31786578 0.01194084 56.30351328 -2.85253906 56.28125 C-6.5233678 56.25286204 -10.19397438 56.24202538 -13.8649025 56.2375679 C-16.69417535 56.23341292 -19.52340348 56.2235965 -22.3526535 56.21169281 C-24.36402386 56.20323683 -26.3754021 56.19672865 -28.38677979 56.19024658 C-29.60524597 56.18063904 -30.82371216 56.17103149 -32.07910156 56.16113281 C-33.15274963 56.15430481 -34.22639771 56.14747681 -35.33258057 56.14044189 C-38 56 -38 56 -41 55 C-41.21914063 55.73605469 -41.43828125 56.47210938 -41.6640625 57.23046875 C-43.59351157 63.16783844 -45.20939196 67.99418819 -51 71 C-62.86638831 76.37787056 -62.86638831 76.37787056 -67 75 C-68.1875 71.4375 -68.1875 71.4375 -69 68 C-67.78763672 67.54560547 -67.78763672 67.54560547 -66.55078125 67.08203125 C-64.94783203 66.45361328 -64.94783203 66.45361328 -63.3125 65.8125 C-62.25675781 65.40644531 -61.20101562 65.00039063 -60.11328125 64.58203125 C-56.54304558 62.76779606 -54.54721683 61.09562012 -52 58 C-51.22580993 54.53495283 -51.22580993 54.53495283 -51.29296875 50.73046875 C-51.27784744 50.04946609 -51.26272614 49.36846344 -51.24714661 48.66682434 C-51.20439922 46.50670937 -51.19544565 44.34799507 -51.1875 42.1875 C-51.16434511 40.71675998 -51.13897769 39.24605302 -51.11132812 37.77539062 C-51.0486084 34.18362029 -51.01616875 30.59231596 -51 27 C-48.03 27 -45.06 27 -42 27 C-41.93941406 28.14339844 -41.87882813 29.28679687 -41.81640625 30.46484375 C-41.73201572 31.95574305 -41.64736698 33.44662775 -41.5625 34.9375 C-41.52318359 35.69224609 -41.48386719 36.44699219 -41.44335938 37.22460938 C-41.55961976 40.91944187 -41.55961976 40.91944187 -40 44 C-37.97505769 44.09409479 -35.9468013 44.11743122 -33.91967773 44.11352539 C-32.61840439 44.11344986 -31.31713104 44.11337433 -29.97642517 44.11329651 C-28.54548098 44.10818909 -27.11453718 44.10297308 -25.68359375 44.09765625 C-24.2277074 44.09579203 -22.77182043 44.09436815 -21.31593323 44.09336853 C-17.47720621 44.08954365 -13.63851681 44.07971364 -9.79980469 44.06866455 C-5.88542184 44.05844978 -1.97103294 44.05387077 1.94335938 44.04882812 C9.62892343 44.03809134 17.31445645 44.02101529 25 44 C25.93786082 38.94990405 25.93786082 38.94990405 25 34 C23.13081909 33.99383667 23.13081909 33.99383667 21.22387695 33.98754883 C16.59227362 33.96574633 11.96151846 33.91144485 7.33032227 33.84741211 C5.32747539 33.82424189 3.32450683 33.80983868 1.3215332 33.80444336 C-1.56115454 33.79514667 -4.44193119 33.75414094 -7.32421875 33.70703125 C-8.21711105 33.7109639 -9.11000336 33.71489655 -10.029953 33.71894836 C-14.26140208 33.6200556 -17.0095585 33.52876916 -20.10473633 30.45581055 C-20.73017334 29.64539307 -21.35561035 28.83497559 -22 28 C-20.59160505 23.70554982 -18.54145224 21.12953521 -15.4375 17.875 C-10.97749874 13.10383586 -6.81488324 8.20440697 -2.71484375 3.1171875 C-1 1 -1 1 0 0 Z " fill="#F48340" transform="translate(876,195)"/>
<path d="M0 0 C2.97 0 5.94 0 9 0 C9.02505615 1.29736084 9.0501123 2.59472168 9.07592773 3.93139648 C9.16981752 8.72658856 9.27008249 13.5216295 9.37231445 18.31665039 C9.41573334 20.39539057 9.45740312 22.47416803 9.49731445 24.55297852 C9.55484921 27.53413145 9.61859119 30.51509549 9.68359375 33.49609375 C9.70030624 34.43150497 9.71701874 35.3669162 9.73423767 36.33067322 C9.75418289 37.19149002 9.77412811 38.05230682 9.79467773 38.93920898 C9.81022202 39.70087875 9.8257663 40.46254852 9.84178162 41.24729919 C9.81379329 43.02735006 9.81379329 43.02735006 11 44 C13.53049402 44.07313567 16.03304837 44.09247527 18.5625 44.0625 C19.27341797 44.05798828 19.98433594 44.05347656 20.71679688 44.04882812 C22.47790013 44.03700864 24.23896036 44.01907263 26 44 C27.34115528 40.06983192 28.5489744 36.13564088 29.625 32.125 C29.88539063 31.15820312 30.14578125 30.19140625 30.4140625 29.1953125 C30.60742188 28.47085938 30.80078125 27.74640625 31 27 C37.875 27.875 37.875 27.875 39 29 C38.81820426 32.63591484 38.47791432 36.24896585 38.15625 39.875 C38.1046875 40.90625 38.053125 41.9375 38 43 C40.67224479 45.67224479 48.3589475 44.22997917 52.21020508 44.24023438 C54.42502315 44.24994529 56.63891541 44.2809579 58.85351562 44.3125 C60.2552028 44.3190293 61.65689664 44.32428006 63.05859375 44.328125 C64.34048584 44.3374707 65.62237793 44.34681641 66.94311523 44.35644531 C67.95188721 44.23881836 68.96065918 44.12119141 70 44 C70.66 43.01 71.32 42.02 72 41 C71.07058594 41.06960937 70.14117188 41.13921875 69.18359375 41.2109375 C57.82560613 41.70836761 57.82560613 41.70836761 53.6875 38.1875 C50.71805702 35.15821938 50.04979111 32.70952328 49.75 28.4375 C49.85455272 22.15271986 51.03761395 16.0114457 55.5 11.4375 C60.54415055 8.53711343 65.31370507 8.38736428 71 9 C74.77452158 10.22549402 77.33282936 12.06564861 79.66796875 15.3359375 C81.67525884 20.85745688 81.43314236 26.17284365 81.375 32 C81.38660156 33.16273438 81.39820313 34.32546875 81.41015625 35.5234375 C81.37325952 46.27268561 81.37325952 46.27268561 78 51 C70.88121944 56.48739335 64.98413465 56.21572364 56.28588867 56.24023438 C54.20515627 56.24991783 52.12542168 56.28094366 50.04492188 56.3125 C48.71094333 56.31903307 47.37695776 56.32428235 46.04296875 56.328125 C44.83664795 56.3374707 43.63032715 56.34681641 42.38745117 56.35644531 C38.65579787 55.96378125 36.29131771 54.72858251 33 53 C30.2995961 53.64663567 30.2995961 53.64663567 28 55 C21.56428952 57.14523683 13.56179291 57.18786255 7.375 54.25 C3.91731099 52.18266594 1.63616423 50.09758038 0.44068909 46.15582275 C-0.02510801 43.8771732 -0.12020538 41.83147382 -0.11352539 39.50683594 C-0.11341209 38.18591949 -0.11341209 38.18591949 -0.11329651 36.83831787 C-0.10813522 35.89651672 -0.10297394 34.95471558 -0.09765625 33.984375 C-0.0962413 33.01340881 -0.09482635 32.04244263 -0.09336853 31.04205322 C-0.08777663 27.94467065 -0.07522559 24.84736068 -0.0625 21.75 C-0.05748395 19.64843854 -0.05292123 17.54687596 -0.04882812 15.4453125 C-0.03780985 10.29684708 -0.02055074 5.14843584 0 0 Z M60 21.125 C58.8971532 24.29568454 58.69694992 26.66644912 59 30 C60.08552366 31.31262571 60.08552366 31.31262571 62.72265625 31.09765625 C63.82480469 31.08605469 64.92695312 31.07445312 66.0625 31.0625 C67.16722656 31.05347656 68.27195312 31.04445312 69.41015625 31.03515625 C70.26480469 31.02355469 71.11945313 31.01195312 72 31 C72.05395478 29.37536158 72.09277195 27.75021459 72.125 26.125 C72.15980469 24.76761719 72.15980469 24.76761719 72.1953125 23.3828125 C72.24324836 20.81193006 72.24324836 20.81193006 70 19 C64.34391086 18.14412254 64.34391086 18.14412254 60 21.125 Z " fill="#F4813D" transform="translate(637,195)"/>
<path d="M0 0 C4.4012007 2.52734741 7.73513968 6.06714545 11.23120117 9.70141602 C11.96790039 10.43553711 12.70459961 11.1696582 13.46362305 11.92602539 C19.27682444 17.844253 23.97917486 23.05286405 24.04370117 31.76391602 C23.81564265 38.37001106 22.12473073 42.72310893 17.41870117 47.38891602 C12.70502275 51.0953982 7.99119287 51.8406391 2.10620117 51.92016602 C-6.67880711 50.18359461 -12.28621288 44.38580545 -18.39379883 38.26391602 C-19.2387793 37.45954102 -20.08375977 36.65516602 -20.9543457 35.82641602 C-26.29809117 30.51238161 -29.50971796 25.94761191 -30.58129883 18.38891602 C-30.57340204 12.4189422 -28.65656696 6.76982925 -24.58129883 2.38891602 C-16.07103687 -3.29968108 -9.34040003 -4.28838381 0 0 Z " fill="#0C99A3" transform="translate(1430.581298828125,400.611083984375)"/>
<path d="M0 0 C4.29 0 8.58 0 13 0 C13.09954745 4.69557647 13.17178467 9.39052663 13.21972656 14.08691406 C13.23973053 15.68142408 13.26694301 17.27586178 13.30175781 18.87011719 C13.6549782 35.4714756 13.6549782 35.4714756 9 42 C7.21875 43.83984375 7.21875 43.83984375 5.5 44.9375 C4.9328125 45.31777344 4.365625 45.69804687 3.78125 46.08984375 C-1.24791068 48.6595684 -6.74464488 48.2195416 -12.25 48.25 C-13.16652344 48.270625 -14.08304688 48.29125 -15.02734375 48.3125 C-21.92866382 48.35187986 -27.66919052 47.66928983 -33.2421875 43.203125 C-33.78101563 42.55859375 -34.31984375 41.9140625 -34.875 41.25 C-35.42929687 40.61578125 -35.98359375 39.9815625 -36.5546875 39.328125 C-41.11101563 31.98874239 -40.2346398 23.91620959 -40.125 15.5625 C-40.11597656 14.25861328 -40.10695313 12.95472656 -40.09765625 11.61132812 C-40.07418478 8.40747269 -40.03831682 5.20371228 -40 2 C-35.71 2 -31.42 2 -27 2 C-26.96132813 4.74570312 -26.96132813 4.74570312 -26.921875 7.546875 C-26.86560002 9.94794071 -26.80825256 12.34898145 -26.75 14.75 C-26.73582031 15.9565625 -26.72164062 17.163125 -26.70703125 18.40625 C-26.67480469 19.56640625 -26.64257812 20.7265625 -26.609375 21.921875 C-26.58842773 22.99018555 -26.56748047 24.05849609 -26.54589844 25.15917969 C-25.86815427 28.68611668 -24.87275125 29.88689154 -22 32 C-19.82782507 32.57408001 -19.82782507 32.57408001 -17.5234375 32.4609375 C-16.688125 32.45707031 -15.8528125 32.45320313 -14.9921875 32.44921875 C-14.12851562 32.42472656 -13.26484375 32.40023437 -12.375 32.375 C-11.50359375 32.37371094 -10.6321875 32.37242187 -9.734375 32.37109375 C-4.85095383 32.56256175 -4.85095383 32.56256175 -1 30 C-0.62677573 26.89243985 -0.62677573 26.89243985 -0.5859375 23.2421875 C-0.56657135 22.57913605 -0.5472052 21.91608459 -0.5272522 21.23294067 C-0.46744046 19.11375823 -0.42106612 16.9945215 -0.375 14.875 C-0.33682155 13.43877831 -0.29776989 12.00257955 -0.2578125 10.56640625 C-0.16009181 7.04438971 -0.08054124 3.52261928 0 0 Z " fill="#189EA8" transform="translate(696,314)"/>
<path d="M0 0 C4.29 0 8.58 0 13 0 C13.33 14.19 13.66 28.38 14 43 C21.92 43 29.84 43 38 43 C38.33 36.4 38.66 29.8 39 23 C42.96 23 46.92 23 51 23 C51.0811135 26.87542277 51.1405605 30.74913882 51.1875 34.625 C51.21263672 35.71941406 51.23777344 36.81382812 51.26367188 37.94140625 C51.35622821 48.1226036 51.35622821 48.1226036 48 53 C42.50235715 58.49764285 36.15163327 59.25943561 28.71484375 59.32226562 C27.86019531 59.31904297 27.00554688 59.31582031 26.125 59.3125 C24.85462891 59.33666992 24.85462891 59.33666992 23.55859375 59.36132812 C17.2919636 59.36612646 10.47831043 58.78424757 5.40698242 54.72485352 C-0.3507896 48.40876475 -0.28697071 40.94106993 -0.1953125 32.91015625 C-0.1924826 31.96563095 -0.18965271 31.02110565 -0.18673706 30.04795837 C-0.17560684 27.05267276 -0.1505156 24.05769414 -0.125 21.0625 C-0.11496095 19.0227908 -0.10583672 16.98307688 -0.09765625 14.94335938 C-0.07569096 9.9621226 -0.04121076 4.98111322 0 0 Z " fill="#159CA7" transform="translate(714,289)"/>
<path d="M0 0 C0.495 4.95 0.495 4.95 1 10 C-0.05960938 10.18175781 -1.11921875 10.36351562 -2.2109375 10.55078125 C-3.59907965 10.8040234 -4.98709412 11.05796617 -6.375 11.3125 C-7.07367187 11.43044922 -7.77234375 11.54839844 -8.4921875 11.66992188 C-10.34855026 12.01798989 -12.17798054 12.50252727 -14 13 C-15.9451 15.91765 -16.45276317 17.62537285 -17 21 C-15.906875 21.103125 -14.81375 21.20625 -13.6875 21.3125 C-7.88218266 22.04853131 -1.16462451 22.91782875 3.79296875 26.1796875 C6.709145 30.57754554 5.59858428 36.99109192 5 42 C3.35839353 46.25835524 1.21212499 48.30458283 -2.71240234 50.55615234 C-8.17465898 52.95506707 -13.61569238 52.47196613 -19.5 52.4375 C-20.71042969 52.45748047 -21.92085937 52.47746094 -23.16796875 52.49804688 C-31.102782 52.49368229 -34.94377073 51.94061229 -40.64453125 46.40234375 C-44.20935096 41.93141602 -45.12747773 39.09329133 -45.09765625 33.45703125 C-45.09443359 32.38388672 -45.09121094 31.31074219 -45.08789062 30.20507812 C-45.07951172 29.08552734 -45.07113281 27.96597656 -45.0625 26.8125 C-45.05798828 25.68134766 -45.05347656 24.55019531 -45.04882812 23.38476562 C-45.03703498 20.58979073 -45.0205765 17.7949218 -45 15 C-42.03 15 -39.06 15 -36 15 C-35.98582031 16.45792969 -35.97164062 17.91585937 -35.95703125 19.41796875 C-35.91012373 21.34117722 -35.86187638 23.26435333 -35.8125 25.1875 C-35.80669922 26.14720703 -35.80089844 27.10691406 -35.79492188 28.09570312 C-35.65802488 32.49161785 -35.40490979 35.31293202 -33.14453125 39.1484375 C-28.44119242 41.91785689 -24.22863834 41.61456586 -18.875 41.4375 C-17.87339844 41.43169922 -16.87179687 41.42589844 -15.83984375 41.41992188 C-10.08356426 41.44573192 -10.08356426 41.44573192 -5 39 C-3.78715124 35.94570927 -3.78715124 35.94570927 -3 33 C-3.73863281 32.89042969 -4.47726562 32.78085938 -5.23828125 32.66796875 C-12.3182183 31.56144746 -19.12855962 30.02896862 -26 28 C-26.80247834 13.3770614 -26.80247834 13.3770614 -22 7 C-16.58973706 1.2891669 -7.63417532 0 0 0 Z " fill="#F47F3A" transform="translate(555,213)"/>
<path d="M0 0 C2.97 0 5.94 0 9 0 C9.02505615 1.29736084 9.0501123 2.59472168 9.07592773 3.93139648 C9.16981752 8.72658856 9.27008249 13.5216295 9.37231445 18.31665039 C9.41573334 20.39539057 9.45740312 22.47416803 9.49731445 24.55297852 C9.55484921 27.53413145 9.61859119 30.51509549 9.68359375 33.49609375 C9.70030624 34.43150497 9.71701874 35.3669162 9.73423767 36.33067322 C9.75418289 37.19149002 9.77412811 38.05230682 9.79467773 38.93920898 C9.81022202 39.70087875 9.8257663 40.46254852 9.84178162 41.24729919 C9.81379329 43.02735006 9.81379329 43.02735006 11 44 C13.18292774 44.23481693 15.37203174 44.41363323 17.5625 44.5625 C18.76003906 44.64628906 19.95757812 44.73007813 21.19140625 44.81640625 C22.58166016 44.90728516 22.58166016 44.90728516 24 45 C23.84402344 44.45472656 23.68804687 43.90945312 23.52734375 43.34765625 C22.07229159 37.71053364 21.47519523 32.69039461 23 27 C25.42931903 22.92221448 27.51288751 21.3551682 32 20 C34.94329953 19.7686945 37.86254636 19.81070931 40.8125 19.875 C41.99489258 19.88853516 41.99489258 19.88853516 43.20117188 19.90234375 C45.13424666 19.92577496 47.0671638 19.96164162 49 20 C49 23.3 49 26.6 49 30 C43.72 30.33 38.44 30.66 33 31 C32.08066695 34.67733219 32.00514419 36.59899538 32.4375 40.25 C32.7159375 42.60125 32.7159375 42.60125 33 45 C38.94 44.34 44.88 43.68 51 43 C51.66 46.3 52.32 49.6 53 53 C11.83912277 58.02374697 11.83912277 58.02374697 4 52 C0.40793887 48.29206593 -0.12796265 44.5310031 -0.11352539 39.50683594 C-0.11341209 38.18591949 -0.11341209 38.18591949 -0.11329651 36.83831787 C-0.10813522 35.89651672 -0.10297394 34.95471558 -0.09765625 33.984375 C-0.0962413 33.01340881 -0.09482635 32.04244263 -0.09336853 31.04205322 C-0.08777663 27.94467065 -0.07522559 24.84736068 -0.0625 21.75 C-0.05748395 19.64843854 -0.05292123 17.54687596 -0.04882812 15.4453125 C-0.03780985 10.29684708 -0.02055074 5.14843584 0 0 Z " fill="#F4813D" transform="translate(318,195)"/>
<path d="M0 0 C4.74668347 3.35791582 7.50832244 7.56051019 8.7890625 13.265625 C9.30106371 18.79523809 8.5672552 23.45983902 5.7890625 28.265625 C1.83182971 32.69186316 -2.47338749 35.85034167 -8.4609375 36.515625 C-14.52054974 36.81121584 -19.3215879 36.00326114 -24.2109375 32.265625 C-29.39866628 26.5875139 -30.52785382 21.57643466 -30.41796875 13.984375 C-30.00482237 8.55890552 -27.73264982 5.55577541 -23.8359375 2.015625 C-16.46082735 -3.85373349 -8.30589358 -4.69895174 0 0 Z " fill="#0F9AA4" transform="translate(1485.2109375,454.734375)"/>
<path d="M0 0 C4.59557656 3.95433332 8.30767225 7.64987532 8.9609375 13.94921875 C9.1639984 20.0488559 9.02346713 24.6332082 5.28515625 29.62109375 C0.55985972 34.6236693 -3.4885297 36.60583917 -10.4375 36.8125 C-17.11012409 36.48557495 -21.02147299 34.91039284 -25.5625 30 C-29.31789257 25.26879676 -30.54315206 21.41196577 -30.1875 15.375 C-29.40275606 9.30692187 -27.37861973 5.37861973 -23 1 C-15.72347276 -3.56898222 -7.61333631 -3.87849208 0 0 Z " fill="#0D99A4" transform="translate(1265.3125,341.6875)"/>
<path d="M0 0 C3.94902003 3.28102659 6.60200449 7.25774878 7.5703125 12.3046875 C8.09917889 18.65108415 7.29578613 23.05220288 3.5703125 28.3046875 C-1.25138076 33.35650703 -5.04186033 35.44414524 -12.1171875 35.6796875 C-18.13518825 35.62147226 -21.9990801 34.40433387 -26.4296875 30.3046875 C-31.3991298 23.93360763 -32.39249777 18.22353152 -31.4296875 10.3046875 C-29.39564595 5.20692362 -26.10590283 1.19948747 -21.4296875 -1.6953125 C-14.09946002 -4.65559667 -6.70849158 -4.27471324 0 0 Z " fill="#0D99A4" transform="translate(1399.4296875,260.6953125)"/>
<path d="M0 0 C4.29816086 3.05000498 7.47270301 7.12376235 8.7890625 12.26953125 C9.60430707 18.79148782 8.61793115 23.87377174 4.7890625 29.26953125 C0.42197022 33.98359798 -4.14998289 36.30621431 -10.5234375 36.64453125 C-16.14310383 36.49492283 -20.61529876 34.67412044 -24.75 30.84375 C-29.21992828 25.78567326 -30.6997476 21.23202294 -30.5234375 14.609375 C-29.80456743 9.22683536 -27.31894003 4.96962651 -23.2734375 1.39453125 C-15.76588438 -3.81479132 -8.0822946 -4.55635333 0 0 Z " fill="#0D99A3" transform="translate(1349.2109375,534.73046875)"/>
<path d="M0 0 C3.17326389 2.26661706 5.19415014 4.26141256 6.625 7.875 C7.21880614 12.34099564 7.18292825 16.75090571 7.125 21.25 C7.14046875 22.44367188 7.1559375 23.63734375 7.171875 24.8671875 C7.13372236 33.489684 6.09717432 39.14876415 0.0625 45.625 C-5.16173296 49.56655684 -11.89078823 51.875 -18.375 51.875 C-19.035 49.235 -19.695 46.595 -20.375 43.875 C-19.71113281 43.62105469 -19.04726563 43.36710937 -18.36328125 43.10546875 C-9.63843104 40.11790181 -9.63843104 40.11790181 -3.5625 33.6875 C-3.170625 32.759375 -2.77875 31.83125 -2.375 30.875 C-3.365 31.37 -3.365 31.37 -4.375 31.875 C-10.33808973 32.43269904 -15.30376868 32.37656448 -20.375 28.875 C-23.09449154 26.58490186 -24.2209595 24.96193746 -24.72265625 21.421875 C-24.92098663 15.24776405 -24.28165326 9.40108781 -21.375 3.875 C-15.4431787 -2.0568213 -7.75421724 -2.58473908 0 0 Z M-14.375 9.875 C-15.1019679 11.9224705 -15.1019679 11.9224705 -15.5625 14.3125 C-15.74167969 15.11558594 -15.92085937 15.91867188 -16.10546875 16.74609375 C-16.5817554 18.92483465 -16.5817554 18.92483465 -15.375 20.875 C-11.085 20.875 -6.795 20.875 -2.375 20.875 C-2.375 17.245 -2.375 13.615 -2.375 9.875 C-4.62012262 8.75243869 -5.88956649 8.74086238 -8.375 8.75 C-9.07625 8.74742187 -9.7775 8.74484375 -10.5 8.7421875 C-12.46653775 8.76122764 -12.46653775 8.76122764 -14.375 9.875 Z " fill="#F4813D" transform="translate(621.375,219.125)"/>
<path d="M0 0 C2.95668861 2.04152309 4.63030529 3.82032751 6.625 6.8125 C7.12670898 9.94702148 7.12670898 9.94702148 7.12109375 13.43359375 C7.12173828 14.69880859 7.12238281 15.96402344 7.12304688 17.26757812 C7.10306641 18.58177734 7.08308594 19.89597656 7.0625 21.25 C7.06958984 22.56033203 7.07667969 23.87066406 7.08398438 25.22070312 C7.03656716 32.38799763 6.91246333 37.79250407 2.1875 43.5703125 C-2.65962162 47.81154392 -8.07058747 50.41259216 -14.375 51.8125 C-16.70703125 51.41015625 -16.70703125 51.41015625 -18.375 50.8125 C-18.705 48.1725 -19.035 45.5325 -19.375 42.8125 C-18.39917969 42.52117187 -17.42335938 42.22984375 -16.41796875 41.9296875 C-15.1324301 41.51681377 -13.84729415 41.10268471 -12.5625 40.6875 C-11.91990234 40.49929688 -11.27730469 40.31109375 -10.61523438 40.1171875 C-6.87715609 38.8776175 -5.51285659 38.03738029 -3.42578125 34.6328125 C-3.07902344 33.70210937 -2.73226562 32.77140625 -2.375 31.8125 C-3.17164063 31.84730469 -3.96828125 31.88210937 -4.7890625 31.91796875 C-15.85735294 32.20073529 -15.85735294 32.20073529 -20.375 28.8125 C-23.74984562 24.99359574 -24.93416168 22.10104508 -24.62890625 16.9609375 C-23.47166573 7.16890235 -23.47166573 7.16890235 -20 2.875 C-13.79317739 -2.00178919 -7.46504882 -2.62659125 0 0 Z M-14.375 10.8125 C-14.87302293 12.97925925 -14.87302293 12.97925925 -15.0625 15.375 C-15.14886719 16.18066406 -15.23523438 16.98632812 -15.32421875 17.81640625 C-15.34097656 18.47511719 -15.35773437 19.13382813 -15.375 19.8125 C-14.26373341 21.15151792 -14.26373341 21.15151792 -11.43359375 20.91015625 C-10.23863281 20.89855469 -9.04367187 20.88695312 -7.8125 20.875 C-6.61496094 20.86597656 -5.41742187 20.85695312 -4.18359375 20.84765625 C-2.79333984 20.83025391 -2.79333984 20.83025391 -1.375 20.8125 C-1.32077053 19.3754191 -1.28210277 17.93774538 -1.25 16.5 C-1.22679687 15.69949219 -1.20359375 14.89898437 -1.1796875 14.07421875 C-1.21682678 11.52861424 -1.21682678 11.52861424 -3.375 8.8125 C-5.50988276 8.37317135 -5.50988276 8.37317135 -7.875 8.5 C-9.06609375 8.50580078 -9.06609375 8.50580078 -10.28125 8.51171875 C-12.59233036 8.63024835 -12.59233036 8.63024835 -14.375 10.8125 Z " fill="#F47E38" transform="translate(799.375,219.1875)"/>
<path d="M0 0 C2.64 0 5.28 0 8 0 C8.03738281 1.03640625 8.07476562 2.0728125 8.11328125 3.140625 C8.17895788 4.51045184 8.24540464 5.88024191 8.3125 7.25 C8.33505859 7.93191406 8.35761719 8.61382812 8.38085938 9.31640625 C8.53273227 12.16057143 8.81723302 14.59590628 9.99633789 17.20288086 C13.13117351 20.01456905 16.57246837 19.51191969 20.5703125 19.42578125 C21.82556229 19.42084908 21.82556229 19.42084908 23.10617065 19.41581726 C24.87310574 19.40539952 26.64000664 19.38545469 28.40673828 19.35668945 C31.12160877 19.31255513 33.83559622 19.29524767 36.55078125 19.28320312 C38.26563786 19.26978188 39.98048351 19.25485969 41.6953125 19.23828125 C42.51194366 19.23089432 43.32857483 19.22350739 44.16995239 19.21589661 C47.8898682 19.50252026 47.8898682 19.50252026 51 18 C51.15582303 16.65984779 51.25044142 15.31241097 51.31640625 13.96484375 C51.37924805 12.75151367 51.37924805 12.75151367 51.44335938 11.51367188 C51.48267578 10.66353516 51.52199219 9.81339844 51.5625 8.9375 C51.62727539 7.65649414 51.62727539 7.65649414 51.69335938 6.34960938 C51.79976702 4.23327963 51.90041731 2.11666187 52 0 C54.97 0 57.94 0 61 0 C61.10890711 3.00099588 61.18773555 5.99796378 61.25 9 C61.30027344 10.25876953 61.30027344 10.25876953 61.3515625 11.54296875 C61.44354397 17.47577335 60.77060723 22.25114336 57 27 C50.99454949 32.74002189 41.60666613 31.5694695 33.88232422 31.46655273 C31.50547435 31.43756676 29.13085773 31.44597276 26.75390625 31.45898438 C25.22134349 31.4527459 23.68878768 31.44435409 22.15625 31.43359375 C21.10745667 31.43799721 21.10745667 31.43799721 20.03747559 31.44248962 C14.50046939 31.33833377 8.63030394 30.4329084 4.43054199 26.54832458 C1.18341361 22.72493739 -0.12883123 20.35533381 -0.09765625 15.4296875 C-0.09443359 14.53378906 -0.09121094 13.63789063 -0.08789062 12.71484375 C-0.07951172 11.77769531 -0.07113281 10.84054688 -0.0625 9.875 C-0.05798828 8.93011719 -0.05347656 7.98523438 -0.04882812 7.01171875 C-0.03702357 4.67441613 -0.02055759 2.33723939 0 0 Z " fill="#F4813D" transform="translate(249,220)"/>
<path d="M0 0 C5.25849226 0.46307662 8.85516905 3.26049341 13.0625 6.1875 C14.12307617 6.89229492 14.12307617 6.89229492 15.20507812 7.61132812 C19.49518141 10.5640471 22.58051316 13.2595296 25 18 C25.96958914 23.41116291 25.89330153 29.11157461 23.3125 34.0625 C20.26187286 37.93762096 17.81747282 39.74751003 12.87890625 40.43359375 C1.56710438 40.44691743 1.56710438 40.44691743 -3 36 C-6.59776705 30.91350176 -7.65753085 26.18783494 -7 20 C-5.37607291 15.77778957 -3.3578219 13.01046101 0 10 C-0.99 9.34 -1.98 8.68 -3 8 C-2.45276317 4.62537285 -1.9451 2.91765 0 0 Z M4.25 17.5625 C1.69526689 19.89115639 1.69526689 19.89115639 1.375 23.5 C1.71785977 27.07466486 1.71785977 27.07466486 4.0625 29.5 C7.86390076 31.44114081 9.92703189 31.07587837 14 30 C16.40668747 28.00885386 16.40668747 28.00885386 16.4375 24.125 C16.3566982 20.7064623 16.16798344 20.18664826 13.75 17.5 C9.9958682 15.45229175 7.97017835 15.4487623 4.25 17.5625 Z " fill="#F4803B" transform="translate(742,211)"/>
<path d="M0 0 C2.97 0 5.94 0 9 0 C9.07462728 4.28666736 9.12882508 8.57298207 9.16479492 12.86010742 C9.17980313 14.31590368 9.20021633 15.77165532 9.22631836 17.22729492 C9.26305676 19.33002789 9.2798056 21.43215885 9.29296875 23.53515625 C9.3086792 24.797229 9.32438965 26.05930176 9.34057617 27.35961914 C8.84248346 32.68367679 7.22709516 36.49242594 3.8125 40.6875 C-2.23701502 45.66154569 -8.37688136 47.57066525 -16 49 C-16.66 46.03 -17.32 43.06 -18 40 C-16.78763672 39.65388672 -16.78763672 39.65388672 -15.55078125 39.30078125 C-13.94783203 38.81158203 -13.94783203 38.81158203 -12.3125 38.3125 C-11.25675781 37.99925781 -10.20101562 37.68601562 -9.11328125 37.36328125 C-5.3975844 35.73620697 -3.57104215 34.13953526 -1 31 C-0.22580993 27.53495283 -0.22580993 27.53495283 -0.29296875 23.73046875 C-0.27784744 23.04946609 -0.26272614 22.36846344 -0.24714661 21.66682434 C-0.20439922 19.50670937 -0.19544565 17.34799507 -0.1875 15.1875 C-0.16434511 13.71675998 -0.13897769 12.24605302 -0.11132812 10.77539062 C-0.0486084 7.18362029 -0.01616875 3.59231596 0 0 Z " fill="#F48441" transform="translate(579,222)"/>
<path d="M0 0 C2.64 0 5.28 0 8 0 C8 18.48 8 36.96 8 56 C5.36 56 2.72 56 0 56 C0 37.52 0 19.04 0 0 Z " fill="#F3752B" transform="translate(484,195)"/>
<path d="M0 0 C7.26 0 14.52 0 22 0 C22 3.96 22 7.92 22 12 C20.35 12 18.7 12 17 12 C17 14.97 17 17.94 17 21 C13.37 21 9.74 21 6 21 C6 18.03 6 15.06 6 12 C4.02 12 2.04 12 0 12 C0 8.04 0 4.08 0 0 Z " fill="#1EA0AA" transform="translate(812,356)"/>
<path d="M0 0 C3.96 0 7.92 0 12 0 C12 2.64 12 5.28 12 8 C13.65 8 15.3 8 17 8 C17 11.96 17 15.92 17 20 C9.74 20 2.48 20 -5 20 C-5 16.04 -5 12.08 -5 8 C-3.35 8 -1.7 8 0 8 C0 5.36 0 2.72 0 0 Z " fill="#1C9FA9" transform="translate(509,289)"/>
<path d="M0 0 C7.26 0 14.52 0 22 0 C22 3.96 22 7.92 22 12 C14.74 12 7.48 12 0 12 C0 8.04 0 4.08 0 0 Z " fill="#1FA0AA" transform="translate(734,356)"/>
<path d="M0 0 C1.32 0.66 2.64 1.32 4 2 C4 6.84424306 3.01319048 7.65570395 -0.0625 11.25 C-0.8771875 12.21035156 -1.691875 13.17070312 -2.53125 14.16015625 C-3.3459375 15.09730469 -4.160625 16.03445312 -5 17 C-5.7115625 17.82371094 -6.423125 18.64742187 -7.15625 19.49609375 C-8.76047331 21.34029309 -10.37384213 23.1751476 -12 25 C-14.475 24.01 -14.475 24.01 -17 23 C-17 18.99047607 -15.56255087 17.91370053 -13 14.875 C-11.77990234 13.42287109 -11.77990234 13.42287109 -10.53515625 11.94140625 C-7.06872011 7.91948574 -3.56535116 3.93451559 0 0 Z " fill="#F58D50" transform="translate(866,191)"/>
<path d="M0 0 C3.63 0 7.26 0 11 0 C11 3.96 11 7.92 11 12 C7.37 12 3.74 12 0 12 C0 8.04 0 4.08 0 0 Z " fill="#1EA0AA" transform="translate(889,356)"/>
<path d="M0 0 C3.63 0 7.26 0 11 0 C11 3.96 11 7.92 11 12 C7.37 12 3.74 12 0 12 C0 8.04 0 4.08 0 0 Z " fill="#1EA0AA" transform="translate(677,303)"/>
<path d="M0 0 C3.63 0 7.26 0 11 0 C11 3.96 11 7.92 11 12 C7.37 12 3.74 12 0 12 C0 8.04 0 4.08 0 0 Z " fill="#1FA1AA" transform="translate(420,297)"/>
<path d="M0 0 C2.97 0 5.94 0 9 0 C9 3.3 9 6.6 9 10 C6.03 10 3.06 10 0 10 C0 6.7 0 3.4 0 0 Z " fill="#F58949" transform="translate(281,211)"/>
<path d="M0 0 C2.97 0 5.94 0 9 0 C9 3.3 9 6.6 9 10 C6.03 10 3.06 10 0 10 C0 6.7 0 3.4 0 0 Z " fill="#F5894A" transform="translate(268,211)"/>
<path d="M0 0 C3.3 0 6.6 0 10 0 C10 2.97 10 5.94 10 9 C6.7 9 3.4 9 0 9 C0 6.03 0 3.06 0 0 Z " fill="#F58949" transform="translate(665,206)"/>
<path d="M0 0 C2.97 0 5.94 0 9 0 C9 2.97 9 5.94 9 9 C6.03 9 3.06 9 0 9 C0 6.03 0 3.06 0 0 Z " fill="#F47D37" transform="translate(699,188)"/>
<path d="M0 0 C0.66 0.33 1.32 0.66 2 1 C-5.26 8.26 -12.52 15.52 -20 23 C-20.66 22.67 -21.32 22.34 -22 22 C-17.5844134 16.82108061 -13.09654537 12.03744352 -7.8984375 7.640625 C-5.1142564 5.23454257 -2.56885928 2.63308076 0 0 Z " fill="#F7A16E" transform="translate(1192,208)"/>
<path d="M0 0 C0.66 0.33 1.32 0.66 2 1 C-2.95 5.95 -7.9 10.9 -13 16 C-13.66 15.67 -14.32 15.34 -15 15 C-10.28109462 9.59947495 -5.69641143 4.38185495 0 0 Z " fill="#62BDC4" transform="translate(746,415)"/>
<path d="M0 0 C-1.40844718 3.21524305 -3.10344786 5.32183868 -5.625 7.75 C-6.57246094 8.67039062 -6.57246094 8.67039062 -7.5390625 9.609375 C-8.02117187 10.06828125 -8.50328125 10.5271875 -9 11 C-9 7.25983417 -8.0658409 6.54723807 -5.625 3.8125 C-4.99851562 3.09707031 -4.37203125 2.38164063 -3.7265625 1.64453125 C-2 0 -2 0 0 0 Z " fill="#61BCC3" transform="translate(470,684)"/>
<path d="M0 0 C0.66 0.33 1.32 0.66 2 1 C-0.97 3.97 -3.94 6.94 -7 10 C-7.66 9.67 -8.32 9.34 -9 9 C-6.21000549 5.51250686 -3.74764169 2.49842779 0 0 Z " fill="#64BEC4" transform="translate(1122,435)"/>
<path d="M0 0 C0.66 0.33 1.32 0.66 2 1 C-0.97 3.97 -3.94 6.94 -7 10 C-7 6.04435836 -5.59478606 4.89133304 -3 2 C-2.01 1.34 -1.02 0.68 0 0 Z " fill="#67BFC6" transform="translate(1284,381)"/>
<path d="M0 0 C0.66 0.33 1.32 0.66 2 1 C1.51789063 1.47050781 1.03578125 1.94101562 0.5390625 2.42578125 C-0.40839844 3.35970703 -0.40839844 3.35970703 -1.375 4.3125 C-2.00148438 4.92738281 -2.62796875 5.54226563 -3.2734375 6.17578125 C-5.18086607 8.08812528 -5.18086607 8.08812528 -7 11 C-6.49697411 6.59852343 -4.97554199 4.24604581 -2 1 C-1.34 0.67 -0.68 0.34 0 0 Z " fill="#60BCC3" transform="translate(452,312)"/>
<path d="M0 0 C-1.5830577 4.2742558 -4.50568404 6.26531794 -8 9 C-6.68994234 5.06982701 -4.75047804 0 0 0 Z " fill="#55B7BF" transform="translate(1378,260)"/>
<path d="M0 0 C0.66 0.33 1.32 0.66 2 1 C-0.64 3.64 -3.28 6.28 -6 9 C-6.33 8.34 -6.66 7.68 -7 7 C-2.25 1.125 -2.25 1.125 0 0 Z " fill="#F69E69" transform="translate(538,216)"/>
<path d="M0 0 C0.99 0.33 1.98 0.66 3 1 C0.69 3.31 -1.62 5.62 -4 8 C-4 4.09161134 -2.49432124 2.88405893 0 0 Z " fill="#70C3C9" transform="translate(1242,343)"/>
<path d="M0 0 C0.99 0.33 1.98 0.66 3 1 C0.6875 3.5 0.6875 3.5 -2 6 C-2.99 6 -3.98 6 -5 6 C-3.35 4.02 -1.7 2.04 0 0 Z " fill="#F7A676" transform="translate(876,195)"/>
<path d="M0 0 C0.66 0.33 1.32 0.66 2 1 C-0.31 3.31 -2.62 5.62 -5 8 C-5 5 -5 5 -2.5 2.3125 C-1.675 1.549375 -0.85 0.78625 0 0 Z " fill="#6FC2C8" transform="translate(556,312)"/>
<path d="M0 0 C0.66 0.33 1.32 0.66 2 1 C-0.31 3.31 -2.62 5.62 -5 8 C-5 5 -5 5 -2.5 2.3125 C-1.675 1.549375 -0.85 0.78625 0 0 Z " fill="#F8AB7E" transform="translate(783,219)"/>
</svg>
