<?xml version="1.0" encoding="UTF-8"?>
<!DOCTYPE svg PUBLIC "-//W3C//DTD SVG 1.1//EN" "http://www.w3.org/Graphics/SVG/1.1/DTD/svg11.dtd">
<svg xmlns="http://www.w3.org/2000/svg" version="1.1" width="767px" height="305px" style="shape-rendering:geometricPrecision; text-rendering:geometricPrecision; image-rendering:optimizeQuality; fill-rule:evenodd; clip-rule:evenodd" xmlns:xlink="http://www.w3.org/1999/xlink">
<g><path style="opacity:0.985" fill="#f3f9fa" d="M 554.5,68.5 C 597.732,65.9397 628.232,84.273 646,123.5C 649.133,130.329 649.8,137.329 648,144.5C 642.658,150.632 636.158,152.132 628.5,149C 626.622,147.457 625.122,145.624 624,143.5C 615.942,113.615 596.442,97.2819 565.5,94.5C 542.488,95.7474 524.988,106.081 513,125.5C 510.333,132.167 507.667,138.833 505,145.5C 503.5,147 502,148.5 500.5,150C 485.721,152.555 479.555,146.388 482,131.5C 493.798,96.1953 517.965,75.1953 554.5,68.5 Z"/></g>
<g><path style="opacity:0.986" fill="#f3f9f9" d="M 436.5,82.5 C 445.167,82.5 453.833,82.5 462.5,82.5C 462.5,130.5 462.5,178.5 462.5,226.5C 453.833,226.5 445.167,226.5 436.5,226.5C 436.5,178.5 436.5,130.5 436.5,82.5 Z"/></g>
<g><path style="opacity:0.866" fill="#f3f9fa" d="M 235.5,85.5 C 237.167,85.5 238.833,85.5 240.5,85.5C 240.174,89.8839 240.508,94.2172 241.5,98.5C 242.358,92.0579 246.025,89.7245 252.5,91.5C 252.5,93.1667 252.5,94.8333 252.5,96.5C 250.712,96.2148 249.045,96.5481 247.5,97.5C 249.396,98.4656 251.396,98.7989 253.5,98.5C 253.351,99.552 253.517,100.552 254,101.5C 255.569,100.286 256.402,98.6193 256.5,96.5C 255.947,93.1833 255.614,89.85 255.5,86.5C 257.167,86.5 258.833,86.5 260.5,86.5C 261.035,90.819 261.535,95.1523 262,99.5C 262.333,95.5 262.667,91.5 263,87.5C 264.049,85.8934 265.549,85.2267 267.5,85.5C 267.586,89.8566 267.92,94.19 268.5,98.5C 269.822,98.67 270.989,98.3366 272,97.5C 272.499,93.5138 272.666,89.5138 272.5,85.5C 274.167,85.5 275.833,85.5 277.5,85.5C 277.5,87.8333 277.5,90.1667 277.5,92.5C 285.505,91.3421 288.339,94.6754 286,102.5C 285.5,103 285,103.5 284.5,104C 277.918,104.81 271.418,104.643 265,103.5C 260.924,105.662 256.924,105.662 253,103.5C 248.208,104.586 243.375,104.753 238.5,104C 237,103.167 235.833,102 235,100.5C 234.535,101.931 233.701,103.097 232.5,104C 227.167,104.667 221.833,104.667 216.5,104C 216,103.5 215.5,103 215,102.5C 214.502,99.5184 214.335,96.5184 214.5,93.5C 215.833,93.5 217.167,93.5 218.5,93.5C 218.322,97.8524 220.488,99.8524 225,99.5C 229.313,99.819 231.146,97.819 230.5,93.5C 232.167,93.5 233.833,93.5 235.5,93.5C 235.5,90.8333 235.5,88.1667 235.5,85.5 Z M 278.5,97.5 C 279.675,97.281 280.675,97.6143 281.5,98.5C 280.277,99.6139 278.944,99.7805 277.5,99C 278.056,98.6174 278.389,98.1174 278.5,97.5 Z"/></g>
<g><path style="opacity:0.802" fill="#f3f9fa" d="M 287.5,85.5 C 288.833,85.5 290.167,85.5 291.5,85.5C 291.5,91.8333 291.5,98.1667 291.5,104.5C 290.167,104.5 288.833,104.5 287.5,104.5C 287.5,98.1667 287.5,91.8333 287.5,85.5 Z"/></g>
<g><path style="opacity:0.87" fill="#f2f9fa" d="M 354.5,82.5 C 356.167,82.5 357.833,82.5 359.5,82.5C 360.252,87.0724 361.252,91.5724 362.5,96C 362.333,97.8333 362.167,99.6667 362,101.5C 361.5,102.667 360.667,103.5 359.5,104C 352.167,104.667 344.833,104.667 337.5,104C 337,103.5 336.5,103 336,102.5C 335.501,96.8431 335.334,91.1764 335.5,85.5C 336.833,85.5 338.167,85.5 339.5,85.5C 340.2,89.7978 340.533,94.1311 340.5,98.5C 342.849,98.5417 344.182,97.3751 344.5,95C 343.713,92.9011 343.38,90.7345 343.5,88.5C 345.604,88.2011 347.604,88.5344 349.5,89.5C 348.802,92.7707 348.802,96.104 349.5,99.5C 350.552,99.6495 351.552,99.4828 352.5,99C 351.056,97.874 350.39,96.374 350.5,94.5C 352.609,90.7702 353.943,86.7702 354.5,82.5 Z M 356.5,92.5 C 357.773,93.0768 357.773,93.7435 356.5,94.5C 355.537,94.0302 355.537,93.3635 356.5,92.5 Z"/></g>
<g><path style="opacity:0.923" fill="#f3f8fa" d="M 406.5,83.5 C 408.558,84.9331 410.892,85.5997 413.5,85.5C 413.683,87.9363 413.016,90.103 411.5,92C 421.965,90.7746 424.965,94.7746 420.5,104C 413.144,104.169 405.811,104.669 398.5,105.5C 395.852,110.271 392.352,111.271 388,108.5C 385.757,110.282 383.257,110.782 380.5,110C 378.87,106.938 379.87,105.271 383.5,105C 381.671,104.727 380.171,103.893 379,102.5C 377.359,92.4591 380.859,89.9591 389.5,95C 390.509,98.477 390.509,101.977 389.5,105.5C 390.822,105.67 391.989,105.337 393,104.5C 393.499,100.848 393.665,97.1817 393.5,93.5C 395.167,93.5 396.833,93.5 398.5,93.5C 398.5,95.1667 398.5,96.8333 398.5,98.5C 404.842,98.6662 411.175,98.4995 417.5,98C 413.167,97.6667 408.833,97.3333 404.5,97C 402.078,94.9973 401.245,92.4973 402,89.5C 403.332,87.34 404.832,85.34 406.5,83.5 Z M 383.5,97.5 C 385.337,97.6395 385.67,98.3061 384.5,99.5C 383.702,99.0431 383.369,98.3764 383.5,97.5 Z"/></g>
<g><path style="opacity:0.688" fill="#f5fafb" d="M 219.5,90.5 C 222.5,90.5 225.5,90.5 228.5,90.5C 228.5,92.1667 228.5,93.8333 228.5,95.5C 225.813,95.6641 223.146,95.4974 220.5,95C 219.62,93.6439 219.286,92.1439 219.5,90.5 Z"/></g>
<g><path style="opacity:0.834" fill="#f3f8fa" d="M 367.5,90.5 C 377.172,90.9862 379.839,95.4862 375.5,104C 369.859,105.93 366.526,104.097 365.5,98.5C 366.655,95.9885 367.322,93.3219 367.5,90.5 Z M 370.5,97.5 C 372.337,97.6395 372.67,98.3061 371.5,99.5C 370.702,99.0431 370.369,98.3764 370.5,97.5 Z"/></g>
<g><path style="opacity:0.882" fill="#f3f8f9" d="M 325.5,92.5 C 328.685,92.0196 331.519,92.6863 334,94.5C 334.667,98.1667 334.667,101.833 334,105.5C 331.198,111.105 327.698,111.771 323.5,107.5C 324.665,106.416 325.998,105.583 327.5,105C 322.782,103.551 321.282,100.385 323,95.5C 323.698,94.3094 324.531,93.3094 325.5,92.5 Z M 327.5,97.5 C 329.337,97.6395 329.67,98.3061 328.5,99.5C 327.702,99.0431 327.369,98.3764 327.5,97.5 Z"/></g>
<g><path style="opacity:0.884" fill="#f3f9fa" d="M 307.5,90.5 C 308.833,90.5 310.167,90.5 311.5,90.5C 312.07,94.4214 310.403,96.588 306.5,97C 308.762,97.6419 310.929,98.4752 313,99.5C 313.333,101.5 313.667,103.5 314,105.5C 316.295,101.953 317.462,97.9535 317.5,93.5C 318.833,93.5 320.167,93.5 321.5,93.5C 321.666,97.8461 321.499,102.179 321,106.5C 317.932,110.647 314.265,111.314 310,108.5C 298.408,111.628 293.575,107.294 295.5,95.5C 297.167,95.5 298.833,95.5 300.5,95.5C 298.839,102.673 301.506,105.173 308.5,103C 301.697,102.356 299.863,98.8561 303,92.5C 304.622,91.9011 306.122,91.2344 307.5,90.5 Z"/></g>
<g><path style="opacity:0.963" fill="#f2f9f9" d="M 567.5,104.5 C 576.85,104.365 579.517,108.532 575.5,117C 566.763,120.586 562.93,117.752 564,108.5C 564.69,106.65 565.856,105.316 567.5,104.5 Z"/></g>
<g><path style="opacity:0.97" fill="#f3f9fa" d="M 543.5,114.5 C 546.32,114.248 548.986,114.748 551.5,116C 559,123.5 566.5,131 574,138.5C 576.472,148.028 572.972,151.528 563.5,149C 556.027,141.527 548.527,134.027 541,126.5C 538.523,121.669 539.356,117.669 543.5,114.5 Z"/></g>
<g><path style="opacity:0.918" fill="#f3f9fa" d="M 295.5,114.5 C 297.167,114.5 298.833,114.5 300.5,114.5C 301.449,116.737 302.116,119.071 302.5,121.5C 304.766,121.141 306.599,121.808 308,123.5C 312.133,120.864 316.3,120.864 320.5,123.5C 322.42,121.486 324.253,119.486 326,117.5C 331.041,118.171 335.374,120.171 339,123.5C 339.752,126.894 339.585,130.227 338.5,133.5C 332.528,134.33 326.528,134.83 320.5,135C 318.488,138.763 315.321,140.93 311,141.5C 308.1,139.443 307.934,137.276 310.5,135C 309.324,132.699 307.99,132.366 306.5,134C 288.5,134.667 270.5,134.667 252.5,134C 250.66,131.174 249.994,128.007 250.5,124.5C 254.158,123.68 256.491,125.013 257.5,128.5C 257.833,128 258.167,127.5 258.5,127C 257.346,124.563 256.846,122.063 257,119.5C 258.726,118.424 260.559,118.257 262.5,119C 263.741,122.124 264.908,125.291 266,128.5C 267.266,124.605 267.766,120.605 267.5,116.5C 269.167,116.5 270.833,116.5 272.5,116.5C 272.485,120.56 272.985,124.56 274,128.5C 275.175,121.924 279.008,119.757 285.5,122C 286.866,123.6 287.866,125.433 288.5,127.5C 289.452,125.955 289.785,124.288 289.5,122.5C 290.833,122.5 292.167,122.5 293.5,122.5C 293.693,119.692 294.36,117.025 295.5,114.5 Z"/></g>
<g><path style="opacity:0.971" fill="#f3f9fa" d="M 581.5,117.5 C 583.927,117.523 586.26,118.023 588.5,119C 595.667,126.167 602.833,133.333 610,140.5C 613.895,147.322 612.062,151.655 604.5,153.5C 602.701,153.423 601.034,152.923 599.5,152C 591.635,144.47 584.135,136.636 577,128.5C 575.391,123.391 576.891,119.725 581.5,117.5 Z"/></g>
<g><path style="opacity:0.923" fill="#f3f9fa" d="M 359.5,114.5 C 361.5,114.5 363.5,114.5 365.5,114.5C 365.5,119.167 365.5,123.833 365.5,128.5C 367.5,128.5 369.5,128.5 371.5,128.5C 371.5,126.167 371.5,123.833 371.5,121.5C 374.079,121.083 376.246,121.75 378,123.5C 380.841,121.496 384.007,120.996 387.5,122C 388.928,123.916 389.928,126.083 390.5,128.5C 391.139,122.346 393.972,121.012 399,124.5C 401.559,121.651 404.726,120.817 408.5,122C 409.944,123.763 410.944,125.763 411.5,128C 413.473,128.495 415.473,128.662 417.5,128.5C 417.5,126.167 417.5,123.833 417.5,121.5C 419.5,121.5 421.5,121.5 423.5,121.5C 425.943,129.942 422.943,134.442 414.5,135C 416.134,135.494 417.801,135.66 419.5,135.5C 419.5,137.5 419.5,139.5 419.5,141.5C 417.5,141.5 415.5,141.5 413.5,141.5C 413.662,139.473 413.495,137.473 413,135.5C 409.037,141.564 404.37,141.898 399,136.5C 398.92,143.126 396.087,144.792 390.5,141.5C 389.702,139.922 389.202,138.256 389,136.5C 386.464,139.968 382.964,141.634 378.5,141.5C 376.53,138.452 377.196,136.285 380.5,135C 378.667,134.5 377.5,133.333 377,131.5C 374.604,134.013 371.604,135.013 368,134.5C 365.833,134.333 363.667,134.167 361.5,134C 361,133.5 360.5,133 360,132.5C 360.063,135.767 358.563,137.934 355.5,139C 343.016,141.277 338.349,136.111 341.5,123.5C 343.5,123.5 345.5,123.5 347.5,123.5C 347.5,121.833 347.5,120.167 347.5,118.5C 351.241,117.599 353.241,118.932 353.5,122.5C 355.5,122.5 357.5,122.5 359.5,122.5C 359.5,119.833 359.5,117.167 359.5,114.5 Z M 347.5,124.5 C 349.5,124.5 351.5,124.5 353.5,124.5C 353.5,127.167 353.5,129.833 353.5,132.5C 351.5,132.5 349.5,132.5 347.5,132.5C 347.5,129.833 347.5,127.167 347.5,124.5 Z"/></g>
<g><path style="opacity:0.951" fill="#f3f9f9" d="M 524.5,130.5 C 530.345,129.039 534.345,131.039 536.5,136.5C 534.428,144.787 529.928,146.454 523,141.5C 521.053,137.505 521.553,133.838 524.5,130.5 Z"/></g>
<g><path style="opacity:0.985" fill="#f3f9fa" d="M 232.5,131.5 C 233.496,131.414 234.329,131.748 235,132.5C 242.055,152.276 249.389,171.943 257,191.5C 259.167,193.667 261.333,195.833 263.5,198C 271.795,199.039 280.129,199.872 288.5,200.5C 290.067,205.599 291.4,210.766 292.5,216C 292.01,218.503 290.677,220.503 288.5,222C 273.827,228.404 259.494,227.737 245.5,220C 239.768,214.927 235.601,208.76 233,201.5C 226.064,181.526 219.231,161.526 212.5,141.5C 212.833,140.5 213.167,139.5 213.5,138.5C 220.009,136.334 226.342,134.001 232.5,131.5 Z"/></g>
<g><path style="opacity:0.924" fill="#f1f8fa" d="M 365.5,135.5 C 368.5,135.5 371.5,135.5 374.5,135.5C 374.5,137.5 374.5,139.5 374.5,141.5C 371.5,141.5 368.5,141.5 365.5,141.5C 365.5,139.5 365.5,137.5 365.5,135.5 Z"/></g>
<g><path style="opacity:0.972" fill="#f3f9fa" d="M 538.5,142.5 C 540.989,142.298 543.323,142.798 545.5,144C 552.337,151.171 559.504,158.004 567,164.5C 570.68,175.149 567.18,178.983 556.5,176C 549.333,168.833 542.167,161.667 535,154.5C 532.845,149.47 534.012,145.47 538.5,142.5 Z"/></g>
<g><path style="opacity:0.985" fill="#f3f8f9" d="M 386.5,147.5 C 407.839,148.668 419.672,160.002 422,181.5C 423.39,189.458 423.723,197.458 423,205.5C 418.872,214.784 413.372,223.118 406.5,230.5C 393.152,226.828 379.819,223.161 366.5,219.5C 366.421,216.729 366.921,214.063 368,211.5C 370.566,205.264 373.4,199.264 376.5,193.5C 385.385,196.073 394.218,198.74 403,201.5C 403.558,193.344 401.392,186.01 396.5,179.5C 383.76,171.757 374.593,174.757 369,188.5C 365.61,197.614 361.943,206.614 358,215.5C 352.882,222.309 346.048,225.809 337.5,226C 326.394,227.712 316.061,225.712 306.5,220C 301.683,215.849 298.517,210.682 297,204.5C 294.347,189.242 293.847,173.908 295.5,158.5C 302.167,158.5 308.833,158.5 315.5,158.5C 315.334,168.172 315.5,177.839 316,187.5C 316.416,194.173 319.916,198.006 326.5,199C 331.167,199.667 335.833,199.667 340.5,199C 343.102,198.117 345.269,196.617 347,194.5C 350.724,186.662 354.057,178.662 357,170.5C 362.355,156.925 372.188,149.258 386.5,147.5 Z"/></g>
<g><path style="opacity:0.98" fill="#f2f8f9" d="M 577.5,148.5 C 585.217,148.71 590.217,152.544 592.5,160C 591.62,166.611 587.953,168.944 581.5,167C 575.333,163.527 572.833,158.36 574,151.5C 575.145,150.364 576.312,149.364 577.5,148.5 Z"/></g>
<g><path style="opacity:0.989" fill="#f3f9fa" d="M 489.5,158.5 C 496.331,157.051 501.831,159.051 506,164.5C 512.864,192.366 530.364,208.866 558.5,214C 582.827,215.418 601.994,206.252 616,186.5C 619.724,178.662 623.057,170.662 626,162.5C 633.347,156.87 640.347,157.204 647,163.5C 648.441,166.155 649.274,168.988 649.5,172C 643.473,199.703 627.806,220.036 602.5,233C 569.139,246.383 538.139,242.383 509.5,221C 496.169,209.498 487.002,195.331 482,178.5C 479.406,169.66 481.906,162.993 489.5,158.5 Z"/></g>
<g><path style="opacity:0.963" fill="#f3f9fa" d="M 523.5,160.5 C 525.989,160.298 528.323,160.798 530.5,162C 536.333,167.833 542.167,173.667 548,179.5C 550.947,190.132 547.114,193.632 536.5,190C 531,184.5 525.5,179 520,173.5C 517.188,167.893 518.355,163.559 523.5,160.5 Z"/></g>
<g><path style="opacity:0.975" fill="#f2f9f9" d="M 594.5,165.5 C 603.85,165.365 606.517,169.532 602.5,178C 593.956,181.322 590.123,178.489 591,169.5C 591.69,167.65 592.856,166.316 594.5,165.5 Z"/></g>
<g><path style="opacity:0.965" fill="#f3f9fa" d="M 572.5,177.5 C 581.498,177.652 587.164,182.152 589.5,191C 587.926,197.787 583.926,199.787 577.5,197C 574.667,194.167 571.833,191.333 569,188.5C 567.518,183.774 568.685,180.107 572.5,177.5 Z"/></g>
<g><path style="opacity:0.982" fill="#f3f9fa" d="M 170.5,185.5 C 177.5,185.5 184.5,185.5 191.5,185.5C 191.5,190.167 191.5,194.833 191.5,199.5C 202.52,199.168 213.52,199.501 224.5,200.5C 227.365,206.577 228.865,212.911 229,219.5C 224.713,223.726 219.546,225.893 213.5,226C 179.823,232.82 165.49,219.32 170.5,185.5 Z"/></g>
<g><path style="opacity:0.961" fill="#f3f9fa" d="M 551.5,190.5 C 557.295,189.137 560.961,191.304 562.5,197C 560.146,205.048 555.646,206.548 549,201.5C 546.827,197.179 547.66,193.513 551.5,190.5 Z"/></g>
<g><path style="opacity:0.974" fill="#f3f9fa" d="M 284.5,236.5 C 299.924,233.095 306.424,239.095 304,254.5C 302.009,260.165 298.009,262.499 292,261.5C 285.707,262.532 281.374,260.198 279,254.5C 277.015,247.128 278.848,241.128 284.5,236.5 Z"/></g>
<g><path style="opacity:0.978" fill="#f3f9f9" d="M 312.5,236.5 C 330.565,234.725 336.231,242.225 329.5,259C 312.323,266.185 304.823,260.685 307,242.5C 308.36,239.977 310.193,237.977 312.5,236.5 Z"/></g>
</svg>
