<!DOCTYPE svg PUBLIC "-//W3C//DTD SVG 1.1//EN" "http://www.w3.org/Graphics/SVG/1.1/DTD/svg11.dtd"[]><svg xmlns="http://www.w3.org/2000/svg" xmlns:xlink="http://www.w3.org/1999/xlink" version="1.1" width="108" height="108" viewBox="0 0 1080 1080" xml:space="preserve"><desc>Created with Fabric.js 5.2.4</desc><defs></defs><g transform="matrix(1 0 0 1 540 540)" id="7f2276ef-751d-4f9a-89ec-91991b9051e3"><rect style="stroke: none; stroke-width: 1; stroke-dasharray: none; stroke-linecap: butt; stroke-dashoffset: 0; stroke-linejoin: miter; stroke-miterlimit: 4; fill: rgb(255,255,255); fill-rule: nonzero; opacity: 1; visibility: hidden;" vector-effect="non-scaling-stroke" x="-540" y="-540" rx="0" ry="0" width="1080" height="1080" /></g><g transform="matrix(1 0 0 1 540 540)" id="99e74e76-e2a7-408b-a86f-d8276509b9f7"></g><g transform="matrix(1 0 0 1 540 540)"><g style="" vector-effect="non-scaling-stroke">		<g transform="matrix(1 0 0 1 -50.72 24.04)"><path style="stroke: none; stroke-width: 1; stroke-dasharray: none; stroke-linecap: butt; stroke-dashoffset: 0; stroke-linejoin: miter; stroke-miterlimit: 4; fill: rgb(243,249,250); fill-rule: nonzero; opacity: 1;" vector-effect="non-scaling-stroke" transform=" translate(-221.96, -163.9)" d="M 251.5 123.683594 C 251.859375 123.683594 252.210938 123.6875 252.578125 123.6875 C 260.347656 123.796875 267.089844 126.636719 272.65625 132.070312 C 281.066406 140.921875 284.054688 153.710938 284.851562 165.554688 C 284.917969 166.535156 285.023438 167.511719 285.136719 168.488281 C 286.265625 178.203125 284.296875 183.964844 278.3125 191.660156 C 278.113281 191.90625 277.914062 192.160156 277.707031 192.417969 C 275.644531 195.015625 273.828125 197.765625 272.023438 200.546875 C 271.246094 201.746094 270.453125 202.925781 269.664062 204.109375 C 267.871094 203.929688 266.238281 203.578125 264.515625 203.058594 C 264.261719 202.984375 264.011719 202.914062 263.75 202.835938 C 262.914062 202.589844 262.085938 202.335938 261.25 202.089844 C 260.664062 201.910156 260.074219 201.738281 259.488281 201.5625 C 257.933594 201.101562 256.382812 200.640625 254.828125 200.171875 C 252.976562 199.621094 251.128906 199.070312 249.28125 198.519531 C 247.777344 198.074219 246.277344 197.625 244.78125 197.179688 C 242.078125 196.375 239.378906 195.574219 236.664062 194.800781 C 236.4375 194.734375 236.203125 194.667969 235.964844 194.601562 C 234.902344 194.296875 233.835938 193.996094 232.773438 193.699219 C 232.230469 193.542969 232.230469 193.542969 231.671875 193.386719 C 231.363281 193.300781 231.046875 193.207031 230.722656 193.117188 C 230.023438 192.855469 230.023438 192.855469 229.710938 192.230469 C 229.921875 191.554688 229.921875 191.554688 230.269531 190.703125 C 230.402344 190.382812 230.53125 190.0625 230.664062 189.734375 C 230.8125 189.386719 230.957031 189.039062 231.109375 188.675781 C 231.257812 188.316406 231.40625 187.957031 231.550781 187.585938 C 231.953125 186.621094 232.347656 185.660156 232.75 184.691406 C 233.453125 182.988281 234.148438 181.277344 234.855469 179.570312 C 235.003906 179.210938 235.148438 178.84375 235.308594 178.472656 C 236.5 175.566406 237.648438 172.65625 238.761719 169.730469 C 241.820312 170.253906 244.753906 171.164062 247.722656 172.054688 C 248.28125 172.222656 248.84375 172.390625 249.402344 172.554688 C 250.875 172.996094 252.347656 173.433594 253.816406 173.871094 C 255.324219 174.324219 256.828125 174.773438 258.332031 175.21875 C 261.273438 176.097656 264.21875 176.972656 267.164062 177.855469 C 267.089844 176.574219 267.007812 175.296875 266.925781 174.019531 C 266.902344 173.585938 266.875 173.152344 266.851562 172.71875 C 266.464844 166.316406 265.308594 160.183594 261.238281 155.035156 C 261 154.707031 260.761719 154.378906 260.511719 154.039062 C 257.394531 150.773438 253.214844 149.070312 248.75 148.785156 C 243.992188 148.742188 239.769531 149.902344 236.199219 153.171875 C 233.46875 156.074219 231.882812 159.667969 230.441406 163.332031 C 230.285156 163.734375 230.121094 164.132812 229.960938 164.535156 C 229.625 165.371094 229.292969 166.214844 228.960938 167.058594 C 228.441406 168.371094 227.914062 169.683594 227.390625 170.992188 C 226.027344 174.390625 224.675781 177.792969 223.332031 181.203125 C 222.945312 182.179688 222.558594 183.152344 222.164062 184.128906 C 221.921875 184.742188 221.683594 185.363281 221.441406 185.984375 C 219.265625 191.390625 215.492188 195.183594 210.214844 197.613281 C 205.988281 199.394531 201.269531 200.085938 196.710938 200.109375 C 196.457031 200.109375 196.207031 200.113281 195.945312 200.113281 C 195.414062 200.121094 194.878906 200.121094 194.351562 200.125 C 193.5625 200.125 192.769531 200.132812 191.976562 200.144531 C 183.6875 200.199219 175.183594 198.5625 168.851562 192.855469 C 168.664062 192.699219 168.480469 192.542969 168.285156 192.378906 C 163.789062 188.292969 161.246094 181.902344 159.820312 176.136719 C 159.761719 175.902344 159.699219 175.667969 159.644531 175.429688 C 158.503906 170.324219 158.457031 165 158.480469 159.796875 C 158.480469 159.199219 158.480469 158.605469 158.480469 158.007812 C 158.480469 156.769531 158.480469 155.535156 158.484375 154.300781 C 158.492188 152.726562 158.496094 151.160156 158.496094 149.585938 C 158.496094 148.363281 158.496094 147.136719 158.496094 145.90625 C 158.5 145.332031 158.5 144.75 158.5 144.171875 C 158.5 143.363281 158.503906 142.546875 158.503906 141.738281 C 158.503906 141.507812 158.503906 141.273438 158.503906 141.039062 C 158.519531 138.707031 158.710938 136.4375 158.863281 134.097656 C 164.9375 134.097656 171.019531 134.097656 177.277344 134.097656 C 177.285156 136.1875 177.296875 138.285156 177.300781 140.445312 C 177.308594 141.78125 177.320312 143.113281 177.328125 144.449219 C 177.34375 146.566406 177.359375 148.679688 177.363281 150.792969 C 177.367188 152.503906 177.375 154.210938 177.390625 155.917969 C 177.394531 156.566406 177.398438 157.214844 177.398438 157.859375 C 177.40625 162.980469 177.675781 167.335938 181.335938 171.289062 C 185.226562 174.847656 189.28125 175.242188 194.324219 175.1875 C 195.222656 175.175781 196.121094 175.183594 197.015625 175.1875 C 201.226562 175.183594 205.402344 175.042969 208.800781 172.226562 C 211.65625 169.070312 213.238281 165.015625 214.769531 161.097656 C 214.910156 160.734375 215.054688 160.375 215.203125 159.996094 C 215.8125 158.460938 216.410156 156.921875 217.015625 155.386719 C 221.605469 143.71875 221.605469 143.71875 224.09375 139.898438 C 224.226562 139.691406 224.355469 139.488281 224.488281 139.273438 C 225.605469 137.554688 226.816406 135.957031 228.148438 134.40625 C 228.363281 134.152344 228.574219 133.894531 228.789062 133.632812 C 234.511719 126.898438 242.765625 123.632812 251.5 123.683594 Z M 251.5 123.683594" stroke-linecap="round" /></g>		<g transform="matrix(1 0 0 1 155.28 34.4)"><path style="stroke: none; stroke-width: 1; stroke-dasharray: none; stroke-linecap: butt; stroke-dashoffset: 0; stroke-linejoin: miter; stroke-miterlimit: 4; fill: rgb(243,249,250); fill-rule: nonzero; opacity: 1;" vector-effect="non-scaling-stroke" transform=" translate(-427.95, -174.25)" d="M 363.773438 135.828125 C 367.085938 138.246094 368.460938 141.292969 369.425781 145.179688 C 372.734375 158.441406 381.015625 170.976562 392.320312 178.789062 C 392.519531 178.933594 392.726562 179.070312 392.929688 179.214844 C 396.03125 181.339844 399.210938 183.152344 402.617188 184.730469 C 402.972656 184.894531 403.324219 185.0625 403.6875 185.234375 C 415.148438 190.429688 429.097656 191.742188 441.320312 188.792969 C 441.601562 188.726562 441.882812 188.660156 442.167969 188.589844 C 457.390625 184.816406 470.980469 175.40625 479.308594 162 C 482.542969 156.601562 485.03125 150.972656 486.597656 144.878906 C 487.214844 142.507812 487.8125 140.402344 489.386719 138.472656 C 489.542969 138.273438 489.695312 138.070312 489.859375 137.867188 C 491.859375 135.601562 494.816406 134.234375 497.808594 134.03125 C 501.742188 133.972656 504.636719 134.835938 507.554688 137.542969 C 510.050781 140.164062 511.085938 143.242188 511.046875 146.828125 C 510.304688 157.75 504.035156 169.402344 497.8125 178.164062 C 497.683594 178.355469 497.550781 178.542969 497.414062 178.734375 C 496.636719 179.820312 495.828125 180.875 495.003906 181.917969 C 494.785156 182.199219 494.566406 182.476562 494.34375 182.765625 C 490.894531 187.074219 487.070312 191.226562 482.757812 194.671875 C 482.199219 195.113281 481.652344 195.566406 481.113281 196.023438 C 467.90625 207.269531 449.414062 214.410156 432.0625 214.488281 C 431.75 214.488281 431.441406 214.488281 431.121094 214.496094 C 430.464844 214.496094 429.808594 214.5 429.148438 214.5 C 428.171875 214.503906 427.195312 214.515625 426.214844 214.523438 C 420.398438 214.550781 414.710938 213.953125 409.039062 212.644531 C 408.691406 212.570312 408.335938 212.488281 407.980469 212.40625 C 390.847656 208.351562 374.648438 198.597656 363.292969 185.042969 C 363.164062 184.890625 363.035156 184.738281 362.902344 184.582031 C 354.542969 174.621094 344.289062 158.660156 344.878906 145.035156 C 345.332031 141.601562 346.777344 138.648438 349.472656 136.449219 C 353.8125 133.527344 359.21875 133.046875 363.773438 135.828125 Z M 363.773438 135.828125" stroke-linecap="round" /></g>		<g transform="matrix(1 0 0 1 155.31 -55.3)"><path style="stroke: none; stroke-width: 1; stroke-dasharray: none; stroke-linecap: butt; stroke-dashoffset: 0; stroke-linejoin: miter; stroke-miterlimit: 4; fill: rgb(243,249,250); fill-rule: nonzero; opacity: 1;" vector-effect="non-scaling-stroke" transform=" translate(-427.98, -84.55)" d="M 482.714844 64.210938 C 483.523438 64.941406 484.324219 65.679688 485.121094 66.429688 C 485.792969 67.058594 486.480469 67.648438 487.183594 68.238281 C 490.507812 71.136719 493.3125 74.621094 495.941406 78.144531 C 496.078125 78.320312 496.210938 78.5 496.347656 78.6875 C 502.996094 87.625 507.925781 97.863281 510.449219 108.726562 C 510.554688 109.167969 510.664062 109.617188 510.785156 110.058594 C 511.457031 112.914062 510.96875 116.03125 509.582031 118.582031 C 507.738281 121.511719 505.554688 123.46875 502.25 124.597656 C 498.664062 125.226562 495.097656 124.898438 491.992188 122.949219 C 488.730469 120.558594 487.320312 117.476562 486.441406 113.621094 C 485.550781 110.054688 484.425781 106.769531 482.835938 103.464844 C 482.714844 103.214844 482.601562 102.972656 482.476562 102.71875 C 477.277344 91.980469 468.886719 82.765625 458.488281 76.894531 C 458.28125 76.769531 458.078125 76.652344 457.863281 76.53125 C 451.648438 72.953125 444.933594 70.671875 437.890625 69.394531 C 437.671875 69.351562 437.449219 69.3125 437.226562 69.269531 C 422.238281 66.621094 405.851562 70.679688 393.449219 79.363281 C 390.507812 81.464844 387.785156 83.8125 385.144531 86.269531 C 384.828125 86.558594 384.828125 86.558594 384.515625 86.847656 C 376.851562 94.179688 371.886719 104.179688 369.230469 114.332031 C 368.148438 118.4375 366.476562 121.390625 362.792969 123.65625 C 359.796875 125.136719 356.382812 125.222656 353.160156 124.464844 C 349.847656 123.234375 347.398438 120.921875 345.855469 117.761719 C 343.101562 111.003906 346.78125 102.785156 349.40625 96.527344 C 349.664062 95.921875 349.925781 95.316406 350.1875 94.710938 C 350.296875 94.453125 350.40625 94.195312 350.519531 93.933594 C 354.089844 85.773438 359.234375 78.28125 365.324219 71.804688 C 365.875 71.203125 366.398438 70.605469 366.914062 69.96875 C 367.511719 69.257812 368.066406 68.671875 368.777344 68.082031 C 369.515625 67.453125 370.230469 66.820312 370.9375 66.152344 C 375.578125 61.722656 380.816406 58.152344 386.390625 55.011719 C 386.625 54.878906 386.859375 54.742188 387.101562 54.601562 C 395.324219 49.894531 404.519531 46.847656 413.855469 45.324219 C 414.140625 45.277344 414.433594 45.226562 414.726562 45.179688 C 438.605469 41.453125 464.457031 48.113281 482.714844 64.210938 Z M 482.714844 64.210938" stroke-linecap="round" /></g>		<g transform="matrix(1 0 0 1 39.43 -10.29)"><path style="stroke: none; stroke-width: 1; stroke-dasharray: none; stroke-linecap: butt; stroke-dashoffset: 0; stroke-linejoin: miter; stroke-miterlimit: 4; fill: rgb(243,249,250); fill-rule: nonzero; opacity: 1;" vector-effect="non-scaling-stroke" transform=" translate(-312.11, -129.56)" d="M 300.25 58.765625 C 308.078125 58.765625 315.902344 58.765625 323.96875 58.765625 C 323.96875 105.488281 323.96875 152.21875 323.96875 200.359375 C 316.140625 200.359375 308.3125 200.359375 300.25 200.359375 C 300.25 153.632812 300.25 106.902344 300.25 58.765625 Z M 300.25 58.765625" stroke-linecap="round" /></g>		<g transform="matrix(1 0 0 1 -157.67 13.97)"><path style="stroke: none; stroke-width: 1; stroke-dasharray: none; stroke-linecap: butt; stroke-dashoffset: 0; stroke-linejoin: miter; stroke-miterlimit: 4; fill: rgb(243,249,250); fill-rule: nonzero; opacity: 1;" vector-effect="non-scaling-stroke" transform=" translate(-115, -153.82)" d="M 96.75 107.523438 C 99.28125 114.554688 101.773438 121.597656 104.207031 128.664062 C 106.792969 136.167969 109.414062 143.664062 112.082031 151.140625 C 112.339844 151.855469 112.59375 152.570312 112.84375 153.28125 C 116.875 165.554688 116.875 165.554688 125.890625 174.109375 C 128.398438 175.035156 130.660156 175.128906 133.320312 175.117188 C 133.710938 175.117188 134.101562 175.109375 134.503906 175.109375 C 135.328125 175.109375 136.152344 175.109375 136.984375 175.105469 C 138.03125 175.101562 139.085938 175.101562 140.132812 175.101562 C 141.144531 175.101562 142.160156 175.097656 143.167969 175.089844 C 143.539062 175.089844 143.917969 175.089844 144.304688 175.089844 C 146.265625 175.082031 148.171875 174.988281 150.125 174.730469 C 150.710938 177.109375 151.292969 179.492188 151.875 181.871094 C 152.070312 182.679688 152.269531 183.488281 152.472656 184.300781 C 152.757812 185.464844 153.042969 186.632812 153.324219 187.792969 C 153.414062 188.15625 153.503906 188.519531 153.601562 188.890625 C 153.683594 189.230469 153.761719 189.566406 153.84375 189.914062 C 153.914062 190.214844 153.992188 190.511719 154.0625 190.816406 C 154.1875 191.628906 154.167969 192.09375 153.867188 192.855469 C 149.597656 197.402344 143.171875 199.847656 137.027344 200.097656 C 136.578125 200.105469 136.125 200.109375 135.675781 200.109375 C 135.433594 200.113281 135.191406 200.113281 134.9375 200.113281 C 134.15625 200.125 133.371094 200.125 132.589844 200.125 C 132.324219 200.125 132.054688 200.125 131.777344 200.125 C 122.308594 200.113281 113.625 198.511719 106.527344 191.746094 C 101.933594 186.90625 98.785156 180.8125 96.527344 174.582031 C 96.394531 174.214844 96.261719 173.847656 96.121094 173.472656 C 94.820312 169.910156 93.5625 166.335938 92.316406 162.757812 C 91.917969 161.617188 91.523438 160.476562 91.125 159.339844 C 90.707031 158.148438 90.289062 156.949219 89.875 155.757812 C 88.460938 151.707031 87.039062 147.65625 85.613281 143.609375 C 85.496094 143.261719 85.371094 142.917969 85.246094 142.566406 C 83.433594 137.394531 81.609375 132.226562 79.78125 127.0625 C 79.621094 126.59375 79.621094 126.59375 79.449219 126.117188 C 79.238281 125.515625 79.023438 124.917969 78.808594 124.316406 C 78.613281 123.753906 78.414062 123.191406 78.21875 122.628906 C 77.789062 121.414062 77.355469 120.203125 76.898438 118.996094 C 76.820312 118.792969 76.746094 118.589844 76.667969 118.382812 C 76.472656 117.855469 76.269531 117.332031 76.070312 116.808594 C 75.820312 115.890625 75.765625 115.570312 76.15625 114.714844 C 76.945312 114.292969 76.945312 114.292969 78.011719 113.910156 C 78.207031 113.84375 78.398438 113.773438 78.597656 113.699219 C 79.242188 113.46875 79.886719 113.242188 80.535156 113.019531 C 80.976562 112.863281 81.425781 112.699219 81.867188 112.542969 C 83.046875 112.125 84.222656 111.707031 85.398438 111.292969 C 86.363281 110.957031 87.320312 110.617188 88.28125 110.273438 C 89.421875 109.863281 90.566406 109.460938 91.710938 109.054688 C 91.929688 108.976562 92.148438 108.898438 92.371094 108.820312 C 92.992188 108.601562 93.609375 108.382812 94.230469 108.167969 C 94.582031 108.042969 94.9375 107.917969 95.296875 107.789062 C 96.128906 107.523438 96.128906 107.523438 96.75 107.523438 Z M 96.75 107.523438" stroke-linecap="round" /></g>		<g transform="matrix(1 0 0 1 -209.66 41.04)"><path style="stroke: none; stroke-width: 1; stroke-dasharray: none; stroke-linecap: butt; stroke-dashoffset: 0; stroke-linejoin: miter; stroke-miterlimit: 4; fill: rgb(243,249,250); fill-rule: nonzero; opacity: 1;" vector-effect="non-scaling-stroke" transform=" translate(-63.01, -180.9)" d="M 34.332031 161.601562 C 40.613281 161.601562 46.898438 161.601562 53.371094 161.601562 C 53.371094 166.140625 53.371094 170.679688 53.371094 175.355469 C 69.441406 175.203125 69.441406 175.203125 85.828125 175.039062 C 87.371094 179.476562 88.921875 183.914062 90.511719 188.480469 C 91.128906 190.183594 91.128906 190.183594 91.761719 191.921875 C 91.132812 193.179688 90.59375 193.78125 89.574219 194.734375 C 89.425781 194.882812 89.273438 195.027344 89.117188 195.183594 C 85.277344 198.777344 79.558594 200.0625 74.445312 200.101562 C 74.109375 200.105469 74.109375 200.105469 73.765625 200.109375 C 73.039062 200.113281 72.304688 200.121094 71.574219 200.121094 C 71.195312 200.125 71.195312 200.125 70.808594 200.125 C 69.46875 200.132812 68.128906 200.140625 66.789062 200.140625 C 65.421875 200.144531 64.054688 200.152344 62.6875 200.167969 C 61.621094 200.171875 60.550781 200.175781 59.488281 200.175781 C 58.984375 200.179688 58.484375 200.179688 57.980469 200.191406 C 53.527344 200.238281 48.765625 199.828125 44.789062 197.644531 C 44.582031 197.535156 44.382812 197.425781 44.171875 197.316406 C 39.492188 194.738281 36.832031 190.609375 35.261719 185.625 C 34.480469 182.515625 34.246094 179.609375 34.269531 176.40625 C 34.269531 176.027344 34.273438 175.648438 34.273438 175.261719 C 34.273438 173.867188 34.285156 172.46875 34.292969 171.074219 C 34.308594 167.945312 34.316406 164.820312 34.332031 161.601562 Z M 34.332031 161.601562" stroke-linecap="round" /></g>		<g transform="matrix(1 0 0 1 147.28 -32.58)"><path style="stroke: none; stroke-width: 1; stroke-dasharray: none; stroke-linecap: butt; stroke-dashoffset: 0; stroke-linejoin: miter; stroke-miterlimit: 4; fill: rgb(243,249,250); fill-rule: nonzero; opacity: 1;" vector-effect="non-scaling-stroke" transform=" translate(-419.95, -107.28)" d="M 413.230469 91.585938 C 414.09375 92.242188 414.84375 92.988281 415.601562 93.761719 C 415.925781 94.085938 415.925781 94.085938 416.257812 94.417969 C 416.972656 95.132812 417.683594 95.847656 418.386719 96.5625 C 418.890625 97.0625 419.382812 97.5625 419.878906 98.058594 C 420.921875 99.101562 421.957031 100.144531 422.992188 101.1875 C 424.320312 102.527344 425.652344 103.863281 426.980469 105.199219 C 428.011719 106.222656 429.035156 107.253906 430.058594 108.285156 C 430.546875 108.777344 431.035156 109.269531 431.527344 109.757812 C 432.214844 110.449219 432.898438 111.136719 433.582031 111.832031 C 433.78125 112.03125 433.988281 112.234375 434.191406 112.441406 C 435.824219 114.105469 436.773438 115.554688 436.796875 117.957031 C 436.75 119.863281 436.394531 121.132812 435.082031 122.527344 C 433.636719 123.675781 432.445312 124.125 430.632812 124.1875 C 430.300781 124.207031 430.300781 124.207031 429.964844 124.226562 C 427.601562 123.839844 425.945312 122.320312 424.320312 120.664062 C 424.101562 120.445312 423.886719 120.230469 423.660156 120.007812 C 422.945312 119.296875 422.234375 118.578125 421.523438 117.863281 C 421.027344 117.363281 420.53125 116.867188 420.03125 116.367188 C 418.992188 115.328125 417.953125 114.28125 416.914062 113.234375 C 415.585938 111.894531 414.25 110.558594 412.917969 109.230469 C 411.894531 108.199219 410.863281 107.171875 409.839844 106.140625 C 409.347656 105.644531 408.855469 105.15625 408.367188 104.664062 C 407.679688 103.976562 406.992188 103.285156 406.3125 102.59375 C 406.109375 102.394531 405.90625 102.191406 405.699219 101.984375 C 404.117188 100.375 403.109375 98.945312 403.109375 96.605469 C 403.164062 94.632812 403.542969 93.519531 404.925781 92.066406 C 407.527344 89.691406 410.355469 89.980469 413.230469 91.585938 Z M 413.230469 91.585938" stroke-linecap="round" /></g>		<g transform="matrix(1 0 0 1 184.2 -29.35)"><path style="stroke: none; stroke-width: 1; stroke-dasharray: none; stroke-linecap: butt; stroke-dashoffset: 0; stroke-linejoin: miter; stroke-miterlimit: 4; fill: rgb(243,249,250); fill-rule: nonzero; opacity: 1;" vector-effect="non-scaling-stroke" transform=" translate(-456.88, -110.5)" d="M 446.082031 93.652344 C 446.5 93.640625 446.5 93.640625 446.925781 93.628906 C 449.351562 93.996094 451.007812 95.472656 452.675781 97.171875 C 452.890625 97.386719 453.105469 97.601562 453.328125 97.820312 C 454.03125 98.519531 454.730469 99.226562 455.433594 99.929688 C 455.921875 100.425781 456.414062 100.917969 456.90625 101.410156 C 457.933594 102.433594 458.953125 103.464844 459.976562 104.496094 C 461.289062 105.816406 462.605469 107.132812 463.917969 108.445312 C 464.929688 109.460938 465.945312 110.472656 466.953125 111.488281 C 467.4375 111.976562 467.921875 112.460938 468.410156 112.941406 C 469.085938 113.625 469.757812 114.300781 470.433594 114.984375 C 470.632812 115.183594 470.835938 115.382812 471.039062 115.589844 C 472.757812 117.335938 473.632812 118.957031 473.796875 121.425781 C 473.765625 123.039062 473.359375 124.164062 472.257812 125.34375 C 470.75 126.71875 469.703125 127.265625 467.636719 127.332031 C 467.328125 127.351562 467.015625 127.367188 466.699219 127.378906 C 464.289062 127 462.527344 125.148438 460.871094 123.480469 C 460.648438 123.265625 460.4375 123.050781 460.214844 122.832031 C 459.511719 122.136719 458.8125 121.4375 458.109375 120.734375 C 457.617188 120.246094 457.128906 119.753906 456.636719 119.269531 C 455.613281 118.242188 454.589844 117.21875 453.5625 116.195312 C 452.257812 114.878906 450.941406 113.574219 449.628906 112.265625 C 448.613281 111.261719 447.601562 110.246094 446.589844 109.234375 C 446.105469 108.753906 445.625 108.265625 445.136719 107.785156 C 444.457031 107.113281 443.785156 106.4375 443.113281 105.761719 C 442.8125 105.464844 442.8125 105.464844 442.507812 105.164062 C 440.953125 103.582031 440.195312 102.113281 439.957031 99.871094 C 440.164062 97.929688 440.597656 96.53125 442.082031 95.21875 C 443.378906 94.179688 444.402344 93.675781 446.082031 93.652344 Z M 446.082031 93.652344" stroke-linecap="round" /></g>		<g transform="matrix(1 0 0 1 141.45 -4.8)"><path style="stroke: none; stroke-width: 1; stroke-dasharray: none; stroke-linecap: butt; stroke-dashoffset: 0; stroke-linejoin: miter; stroke-miterlimit: 4; fill: rgb(243,249,250); fill-rule: nonzero; opacity: 1;" vector-effect="non-scaling-stroke" transform=" translate(-414.13, -135.06)" d="M 404.453125 118.523438 C 404.710938 118.539062 404.96875 118.558594 405.230469 118.578125 C 407.25 119.074219 408.699219 120.707031 410.128906 122.128906 C 410.34375 122.335938 410.554688 122.546875 410.773438 122.761719 C 411.46875 123.449219 412.164062 124.140625 412.855469 124.824219 C 413.214844 125.183594 413.214844 125.183594 413.574219 125.539062 C 414.839844 126.792969 416.097656 128.042969 417.351562 129.300781 C 418.644531 130.589844 419.945312 131.875 421.246094 133.15625 C 422.253906 134.148438 423.25 135.144531 424.25 136.140625 C 424.726562 136.617188 425.203125 137.09375 425.683594 137.566406 C 426.363281 138.222656 427.027344 138.894531 427.691406 139.5625 C 427.992188 139.855469 427.992188 139.855469 428.292969 140.144531 C 429.703125 141.585938 430.394531 143.039062 430.710938 145.035156 C 430.644531 147.164062 430.015625 148.625 428.519531 150.148438 C 427.082031 151.339844 425.71875 151.6875 423.863281 151.617188 C 420.070312 150.992188 417.382812 147.445312 414.804688 144.847656 C 414.355469 144.402344 413.910156 143.953125 413.460938 143.503906 C 412.527344 142.566406 411.597656 141.632812 410.664062 140.691406 C 409.472656 139.492188 408.277344 138.296875 407.078125 137.097656 C 406.15625 136.175781 405.234375 135.25 404.3125 134.320312 C 403.871094 133.878906 403.433594 133.4375 402.992188 132.996094 C 402.375 132.378906 401.761719 131.761719 401.148438 131.140625 C 400.964844 130.960938 400.785156 130.777344 400.597656 130.59375 C 398.84375 128.816406 397.714844 127.328125 397.546875 124.773438 C 397.578125 122.78125 398.433594 121.132812 399.8125 119.714844 C 401.382812 118.796875 402.644531 118.371094 404.453125 118.523438 Z M 404.453125 118.523438" stroke-linecap="round" /></g>		<g transform="matrix(1 0 0 1 -90.87 83.94)"><path style="stroke: none; stroke-width: 1; stroke-dasharray: none; stroke-linecap: butt; stroke-dashoffset: 0; stroke-linejoin: miter; stroke-miterlimit: 4; fill: rgb(243,249,250); fill-rule: nonzero; opacity: 1;" vector-effect="non-scaling-stroke" transform=" translate(-181.8, -223.79)" d="M 181.824219 212.101562 C 182.320312 212.097656 182.320312 212.097656 182.824219 212.09375 C 186.320312 212.121094 188.742188 212.769531 191.28125 215.242188 C 193.941406 218.226562 194.03125 222.167969 193.816406 225.992188 C 193.519531 228.746094 192.558594 231.632812 190.386719 233.492188 C 187.519531 235.21875 185.238281 235.4375 181.941406 235.46875 C 181.390625 235.480469 181.390625 235.480469 180.828125 235.492188 C 178.039062 235.515625 175.410156 235.128906 173.101562 233.429688 C 170.367188 230.496094 169.675781 226.855469 169.71875 222.945312 C 169.941406 219.582031 170.808594 216.710938 173.257812 214.347656 C 175.8125 212.367188 178.6875 212.039062 181.824219 212.101562 Z M 181.824219 212.101562" stroke-linecap="round" /></g>		<g transform="matrix(1 0 0 1 -118.5 83.98)"><path style="stroke: none; stroke-width: 1; stroke-dasharray: none; stroke-linecap: butt; stroke-dashoffset: 0; stroke-linejoin: miter; stroke-miterlimit: 4; fill: rgb(243,249,250); fill-rule: nonzero; opacity: 1;" vector-effect="non-scaling-stroke" transform=" translate(-154.17, -223.84)" d="M 153.910156 212.160156 C 154.25 212.15625 154.585938 212.144531 154.941406 212.140625 C 158.253906 212.125 161.117188 212.660156 163.546875 215.050781 C 166.339844 218.375 166.367188 222.800781 166.042969 226.929688 C 165.628906 229.53125 164.390625 232.160156 162.242188 233.78125 C 159.628906 235.332031 156.984375 235.5625 154.007812 235.523438 C 153.46875 235.535156 153.46875 235.535156 152.914062 235.539062 C 149.703125 235.523438 147.121094 234.804688 144.742188 232.574219 C 141.777344 229.085938 142.054688 224.679688 142.320312 220.363281 C 142.753906 217.644531 143.945312 215.5625 146.066406 213.800781 C 148.625 212.289062 151 212.171875 153.910156 212.160156 Z M 153.910156 212.160156" stroke-linecap="round" /></g>		<g transform="matrix(1 0 0 1 -130.66 -38.46)"><path style="stroke: none; stroke-width: 1; stroke-dasharray: none; stroke-linecap: butt; stroke-dashoffset: 0; stroke-linejoin: miter; stroke-miterlimit: 4; fill: rgb(243,249,250); fill-rule: nonzero; opacity: 1;" vector-effect="non-scaling-stroke" transform=" translate(-142.01, -101.39)" d="M 124.53125 94.082031 C 124.816406 94.808594 125.035156 95.488281 125.234375 96.234375 C 125.296875 96.453125 125.359375 96.667969 125.421875 96.886719 C 125.617188 97.570312 125.808594 98.257812 125.992188 98.949219 C 126.128906 99.417969 126.253906 99.878906 126.390625 100.347656 C 126.707031 101.484375 127.027344 102.628906 127.34375 103.773438 C 128.167969 103.773438 128.988281 103.773438 129.839844 103.773438 C 130.359375 102.5625 130.683594 101.371094 130.96875 100.082031 C 131.050781 99.722656 131.132812 99.355469 131.214844 98.984375 C 131.273438 98.707031 131.335938 98.429688 131.398438 98.148438 C 133.25 98.457031 133.25 98.457031 135.144531 98.773438 C 135.039062 100.421875 134.9375 102.074219 134.828125 103.773438 C 135.863281 103.773438 136.890625 103.773438 137.949219 103.773438 C 138.027344 103.367188 138.027344 103.367188 138.101562 102.953125 C 138.839844 99.289062 138.839844 99.289062 140.449219 97.832031 C 141.589844 97.082031 142.652344 97.105469 144 97.09375 C 144.402344 97.085938 144.804688 97.074219 145.21875 97.066406 C 146.808594 97.261719 147.699219 97.902344 148.816406 99.03125 C 149.320312 99.949219 149.425781 100.785156 149.558594 101.820312 C 149.605469 102.1875 149.660156 102.550781 149.707031 102.929688 C 149.757812 103.347656 149.757812 103.347656 149.8125 103.773438 C 150.742188 103.773438 151.664062 103.773438 152.617188 103.773438 C 152.722656 101.917969 152.828125 100.058594 152.933594 98.148438 C 154.167969 98.148438 155.40625 98.148438 156.679688 98.148438 C 156.78125 99.902344 156.882812 101.65625 156.988281 103.464844 C 157.503906 103.5625 158.019531 103.667969 158.550781 103.773438 C 158.632812 103.394531 158.71875 103.015625 158.804688 102.625 C 158.914062 102.128906 159.023438 101.632812 159.136719 101.136719 C 159.191406 100.882812 159.242188 100.636719 159.300781 100.378906 C 159.449219 99.734375 159.621094 99.097656 159.800781 98.457031 C 160.679688 98.019531 161.226562 98.253906 162.179688 98.4375 C 163.007812 98.605469 163.007812 98.605469 163.855469 98.773438 C 163.757812 100.421875 163.652344 102.074219 163.546875 103.773438 C 164.472656 103.929688 164.472656 103.929688 165.417969 104.085938 C 165.417969 101.917969 165.417969 99.753906 165.417969 97.523438 C 166.757812 97.523438 168.097656 97.523438 169.476562 97.523438 C 169.507812 98.890625 169.53125 100.253906 169.550781 101.625 C 169.566406 102.015625 169.574219 102.398438 169.585938 102.796875 C 169.621094 106.394531 169.621094 106.394531 168.226562 107.839844 C 166.597656 108.796875 165.082031 109.03125 163.230469 108.777344 C 162.773438 108.621094 162.316406 108.453125 161.871094 108.265625 C 161.492188 108.125 161.121094 107.984375 160.734375 107.839844 C 160.425781 108.042969 160.121094 108.25 159.800781 108.460938 C 158.128906 108.847656 157.046875 108.667969 155.429688 108.148438 C 154.207031 108.082031 154.207031 108.082031 153.207031 108.480469 C 151.511719 108.890625 149.886719 108.75 148.210938 108.277344 C 147.578125 108.085938 147.578125 108.085938 146.808594 108.445312 C 144.761719 109.085938 142.746094 108.972656 140.761719 108.148438 C 139.808594 107.710938 139.808594 107.710938 138.871094 108.285156 C 137.25 109.03125 135.492188 109.09375 133.796875 108.539062 C 133.582031 108.449219 133.359375 108.363281 133.132812 108.265625 C 132.765625 108.125 132.398438 107.984375 132.023438 107.839844 C 131.710938 108.042969 131.402344 108.25 131.089844 108.460938 C 129.210938 108.828125 127.5625 108.933594 125.777344 108.148438 C 125.125 107.902344 125.125 107.902344 124.53125 107.839844 C 124.222656 108.042969 123.914062 108.25 123.597656 108.460938 C 121.484375 109.023438 118.773438 109.195312 116.710938 108.40625 C 115.671875 107.761719 115.183594 107.320312 114.542969 106.273438 C 114.394531 105.296875 114.425781 104.347656 114.464844 103.363281 C 114.46875 103.101562 114.476562 102.84375 114.484375 102.570312 C 114.5 101.933594 114.519531 101.289062 114.542969 100.652344 C 115.574219 100.652344 116.605469 100.652344 117.664062 100.652344 C 117.769531 101.679688 117.871094 102.710938 117.976562 103.773438 C 119.523438 103.773438 121.066406 103.773438 122.65625 103.773438 C 122.5 103.195312 122.34375 102.613281 122.179688 102.019531 C 121.976562 101.261719 121.769531 100.507812 121.566406 99.75 C 121.460938 99.367188 121.355469 98.988281 121.25 98.589844 C 121.152344 98.226562 121.050781 97.863281 120.953125 97.484375 C 120.8125 96.980469 120.8125 96.980469 120.675781 96.464844 C 120.476562 95.644531 120.476562 95.644531 120.476562 95.023438 C 120.976562 94.800781 121.476562 94.589844 121.976562 94.378906 C 122.257812 94.257812 122.535156 94.140625 122.820312 94.015625 C 123.597656 93.773438 123.597656 93.773438 124.53125 94.082031 Z M 142.636719 101.585938 C 142.53125 102.410156 142.429688 103.238281 142.320312 104.085938 C 143.351562 104.085938 144.378906 104.085938 145.441406 104.085938 C 145.441406 103.261719 145.441406 102.4375 145.441406 101.585938 C 144.515625 101.585938 143.589844 101.585938 142.636719 101.585938 Z M 142.636719 101.585938" stroke-linecap="round" /></g>		<g transform="matrix(1 0 0 1 -10.01 -33.69)"><path style="stroke: none; stroke-width: 1; stroke-dasharray: none; stroke-linecap: butt; stroke-dashoffset: 0; stroke-linejoin: miter; stroke-miterlimit: 4; fill: rgb(243,249,250); fill-rule: nonzero; opacity: 1;" vector-effect="non-scaling-stroke" transform=" translate(-262.66, -106.17)" d="M 248.867188 97.433594 C 250.234375 98.167969 250.976562 99.140625 251.425781 100.601562 C 251.660156 101.761719 251.578125 102.910156 251.558594 104.085938 C 252.585938 103.984375 253.621094 103.882812 254.679688 103.773438 C 255.09375 101.917969 255.503906 100.058594 255.929688 98.148438 C 257.265625 98.351562 258.605469 98.558594 259.988281 98.773438 C 259.777344 100.421875 259.574219 102.074219 259.363281 103.773438 C 260.289062 103.878906 261.21875 103.984375 262.171875 104.085938 C 262.160156 103.882812 262.152344 103.675781 262.136719 103.46875 C 262.085938 101.761719 262.105469 100.535156 263.109375 99.085938 C 264.863281 97.5 266.023438 97.414062 268.347656 97.433594 C 269.988281 97.582031 270.605469 98.175781 271.769531 99.300781 C 272.726562 101.070312 272.859375 103.042969 272.785156 105.027344 C 272.785156 105.335938 272.785156 105.640625 272.785156 105.960938 C 273.078125 105.710938 273.375 105.460938 273.679688 105.203125 C 274.675781 104.355469 275.257812 104.050781 276.566406 104.058594 C 276.910156 104.058594 276.910156 104.058594 277.253906 104.058594 C 277.546875 104.0625 277.832031 104.0625 278.125 104.066406 C 279.5 104.078125 279.5 104.078125 280.898438 104.085938 C 281 101.917969 281.105469 99.753906 281.210938 97.523438 C 282.445312 97.523438 283.683594 97.523438 284.957031 97.523438 C 284.988281 98.730469 285.011719 99.929688 285.03125 101.136719 C 285.046875 101.476562 285.054688 101.8125 285.066406 102.167969 C 285.089844 104.246094 284.96875 105.535156 283.707031 107.214844 C 282.230469 108.410156 281.105469 108.820312 279.21875 108.71875 C 276.992188 108.601562 276.992188 108.601562 275.054688 109.515625 C 273.914062 110.710938 273.03125 112.066406 272.160156 113.460938 C 271.957031 113.773438 271.746094 114.082031 271.535156 114.402344 C 269.761719 114.058594 268.03125 113.605469 266.308594 113.070312 C 265.917969 112.957031 265.527344 112.839844 265.121094 112.71875 C 263.785156 112.09375 263.320312 111.539062 262.484375 110.335938 C 262.226562 109.441406 262.226562 109.441406 262.171875 108.777344 C 261.992188 108.78125 261.808594 108.792969 261.625 108.796875 C 260.09375 108.835938 258.941406 108.691406 257.492188 108.148438 C 256.289062 108.078125 256.289062 108.078125 255.421875 108.460938 C 254.015625 108.882812 252.703125 108.824219 251.25 108.777344 C 251.21875 109.042969 251.195312 109.316406 251.167969 109.597656 C 250.816406 111.195312 250.15625 112.175781 248.847656 113.152344 C 247.773438 113.800781 246.753906 114.226562 245.574219 114.636719 C 245.191406 114.769531 244.816406 114.902344 244.429688 115.039062 C 243.445312 115.339844 243.445312 115.339844 242.507812 115.339844 C 242.351562 114.894531 242.195312 114.441406 242.042969 113.992188 C 241.957031 113.738281 241.863281 113.492188 241.777344 113.234375 C 241.574219 112.527344 241.574219 112.527344 241.574219 111.589844 C 241.875 111.488281 242.175781 111.394531 242.484375 111.289062 C 242.886719 111.15625 243.28125 111.023438 243.679688 110.882812 C 243.875 110.820312 244.078125 110.753906 244.28125 110.695312 C 245.535156 110.261719 246.335938 109.789062 247.1875 108.777344 C 246.929688 108.792969 246.929688 108.792969 246.664062 108.8125 C 244.910156 108.871094 243.429688 108.726562 241.882812 107.839844 C 240.335938 106.203125 240.234375 105.082031 240.257812 102.890625 C 240.382812 101 240.824219 99.613281 242.042969 98.148438 C 243.8125 96.726562 246.753906 96.792969 248.867188 97.433594 Z M 244.695312 101.585938 C 244.484375 102.410156 244.28125 103.238281 244.070312 104.085938 C 245.199219 104.085938 246.335938 104.085938 247.503906 104.085938 C 247.515625 103.359375 247.515625 102.628906 247.503906 101.898438 C 247.199219 101.523438 247.199219 101.523438 246.613281 101.554688 C 245.972656 101.566406 245.335938 101.574219 244.695312 101.585938 Z M 266.226562 101.898438 C 266.226562 102.621094 266.226562 103.34375 266.226562 104.085938 C 267.050781 104.085938 267.875 104.085938 268.722656 104.085938 C 268.625 103.363281 268.519531 102.644531 268.414062 101.898438 C 267.695312 101.898438 266.96875 101.898438 266.226562 101.898438 Z M 269.664062 108.148438 C 269.078125 108.21875 268.492188 108.277344 267.90625 108.324219 C 267.4375 108.367188 267.4375 108.367188 266.957031 108.40625 C 266.71875 108.425781 266.476562 108.445312 266.226562 108.460938 C 266.945312 109.183594 267.445312 109.421875 268.414062 109.710938 C 269.339844 109.644531 269.816406 109.527344 270.539062 108.949219 C 270.972656 108.480469 270.972656 108.480469 270.910156 107.839844 C 270.261719 107.789062 270.261719 107.789062 269.664062 108.148438 Z M 269.664062 108.148438" stroke-linecap="round" /></g>		<g transform="matrix(1 0 0 1 124.04 11.29)"><path style="stroke: none; stroke-width: 1; stroke-dasharray: none; stroke-linecap: butt; stroke-dashoffset: 0; stroke-linejoin: miter; stroke-miterlimit: 4; fill: rgb(243,249,250); fill-rule: nonzero; opacity: 1;" vector-effect="non-scaling-stroke" transform=" translate(-396.71, -151.14)" d="M 391.640625 137.613281 C 393.605469 139.410156 395.507812 141.277344 397.402344 143.15625 C 397.578125 143.332031 397.757812 143.515625 397.945312 143.695312 C 398.886719 144.632812 399.832031 145.574219 400.773438 146.511719 C 401.550781 147.285156 402.328125 148.058594 403.109375 148.828125 C 404.058594 149.761719 405.007812 150.703125 405.949219 151.644531 C 406.308594 152 406.664062 152.355469 407.027344 152.707031 C 409.171875 154.816406 410.789062 156.4375 411.183594 159.546875 C 410.953125 161.421875 410.335938 163.113281 408.898438 164.394531 C 407.238281 165.492188 405.859375 165.835938 403.867188 165.664062 C 401.980469 165.171875 400.753906 164.332031 399.40625 162.953125 C 399.230469 162.773438 399.050781 162.597656 398.863281 162.414062 C 398.28125 161.832031 397.699219 161.246094 397.125 160.65625 C 396.714844 160.246094 396.308594 159.839844 395.898438 159.429688 C 395.046875 158.578125 394.199219 157.71875 393.351562 156.859375 C 392.261719 155.765625 391.175781 154.667969 390.082031 153.578125 C 389.242188 152.738281 388.402344 151.894531 387.5625 151.046875 C 387.164062 150.644531 386.757812 150.238281 386.359375 149.835938 C 385.796875 149.273438 385.238281 148.707031 384.679688 148.136719 C 384.429688 147.890625 384.429688 147.890625 384.175781 147.636719 C 382.707031 146.136719 382.246094 144.945312 382.238281 142.867188 C 382.273438 141.074219 382.5 139.941406 383.734375 138.589844 C 385.886719 136.527344 389.027344 135.789062 391.640625 137.613281 Z M 391.640625 137.613281" stroke-linecap="round" /></g>		<g transform="matrix(1 0 0 1 -86.62 -35.46)"><path style="stroke: none; stroke-width: 1; stroke-dasharray: none; stroke-linecap: butt; stroke-dashoffset: 0; stroke-linejoin: miter; stroke-miterlimit: 4; fill: rgb(243,249,250); fill-rule: nonzero; opacity: 1;" vector-effect="non-scaling-stroke" transform=" translate(-186.06, -104.4)" d="M 187.890625 93.457031 C 190.464844 94.074219 193 94.773438 195.515625 95.589844 C 195.84375 95.6875 196.171875 95.789062 196.511719 95.890625 C 198.777344 96.628906 199.832031 97.28125 201.027344 99.375 C 201.527344 100.527344 201.414062 101.726562 201.410156 102.972656 C 201.414062 103.238281 201.417969 103.5 201.425781 103.773438 C 201.425781 105.277344 201.363281 106.308594 200.375 107.523438 C 198.667969 108.75 197.195312 108.820312 195.148438 108.796875 C 194.820312 108.792969 194.820312 108.792969 194.484375 108.792969 C 193.953125 108.785156 193.417969 108.78125 192.882812 108.777344 C 192.777344 108.46875 192.679688 108.15625 192.570312 107.839844 C 192.164062 108.066406 192.164062 108.066406 191.75 108.300781 C 189.933594 109.082031 187.96875 108.871094 186.035156 108.835938 C 185.644531 108.828125 185.253906 108.824219 184.847656 108.820312 C 183.886719 108.8125 182.921875 108.796875 181.960938 108.777344 C 181.917969 109.074219 181.875 109.367188 181.828125 109.667969 C 181.535156 111.238281 180.636719 112.117188 179.464844 113.152344 C 177.578125 114.324219 175.355469 114.8125 173.222656 115.339844 C 173.0625 114.894531 172.90625 114.441406 172.753906 113.992188 C 172.664062 113.738281 172.578125 113.492188 172.488281 113.234375 C 172.28125 112.527344 172.28125 112.527344 172.28125 111.589844 C 173.050781 111.273438 173.816406 110.960938 174.582031 110.652344 C 174.804688 110.558594 175.023438 110.472656 175.246094 110.378906 C 176.894531 109.710938 176.894531 109.710938 177.589844 109.710938 C 177.691406 109.300781 177.796875 108.886719 177.902344 108.460938 C 177.722656 108.492188 177.546875 108.523438 177.363281 108.554688 C 175.722656 108.792969 174.460938 108.855469 172.90625 108.148438 C 171.738281 107.191406 171.128906 106.285156 170.703125 104.832031 C 170.601562 102.871094 170.96875 100.472656 172.039062 98.8125 C 172.976562 97.851562 173.878906 97.234375 175.21875 97.113281 C 175.832031 97.113281 175.832031 97.113281 176.457031 97.113281 C 176.867188 97.109375 177.277344 97.101562 177.695312 97.09375 C 179.460938 97.273438 180.5 98.082031 181.648438 99.398438 C 181.988281 100.425781 181.988281 101.1875 181.980469 102.269531 C 181.976562 102.609375 181.976562 102.949219 181.96875 103.300781 C 181.964844 103.558594 181.960938 103.820312 181.960938 104.085938 C 182.59375 103.914062 182.59375 103.914062 183.210938 103.464844 C 183.472656 102.566406 183.472656 102.566406 183.601562 101.527344 C 183.976562 99.613281 184.535156 98.726562 186.070312 97.546875 C 186.640625 97.210938 186.640625 97.210938 187.265625 97.210938 C 187.3125 96.824219 187.355469 96.4375 187.402344 96.035156 C 187.503906 95.15625 187.671875 94.320312 187.890625 93.457031 Z M 193.816406 99.710938 C 194.027344 101.15625 194.234375 102.601562 194.441406 104.085938 C 195.472656 104.085938 196.503906 104.085938 197.5625 104.085938 C 197.722656 102.371094 197.722656 102.371094 197.097656 100.847656 C 196.027344 100.148438 195.066406 99.960938 193.816406 99.710938 Z M 187.890625 101.273438 C 187.324219 102.691406 187.324219 102.691406 187.578125 104.085938 C 188.503906 104.085938 189.433594 104.085938 190.386719 104.085938 C 190.386719 103.15625 190.386719 102.226562 190.386719 101.273438 C 189.5625 101.273438 188.738281 101.273438 187.890625 101.273438 Z M 175.402344 101.585938 C 174.945312 102.808594 174.945312 102.808594 174.78125 104.085938 C 175.914062 104.085938 177.046875 104.085938 178.214844 104.085938 C 178.230469 103.359375 178.226562 102.628906 178.214844 101.898438 C 177.90625 101.523438 177.90625 101.523438 177.324219 101.554688 C 176.6875 101.566406 176.046875 101.574219 175.402344 101.585938 Z M 175.402344 101.585938" stroke-linecap="round" /></g>		<g transform="matrix(1 0 0 1 -139.48 -69.84)"><path style="stroke: none; stroke-width: 1; stroke-dasharray: none; stroke-linecap: butt; stroke-dashoffset: 0; stroke-linejoin: miter; stroke-miterlimit: 4; fill: rgb(243,249,250); fill-rule: nonzero; opacity: 1;" vector-effect="non-scaling-stroke" transform=" translate(-133.19, -70.02)" d="M 126.71875 60.953125 C 127.640625 60.953125 128.570312 60.953125 129.523438 60.953125 C 129.535156 61.355469 129.539062 61.761719 129.546875 62.183594 C 129.578125 63.679688 129.609375 65.179688 129.640625 66.675781 C 129.652344 67.324219 129.667969 67.976562 129.683594 68.625 C 129.695312 69.558594 129.71875 70.488281 129.738281 71.421875 C 129.742188 71.714844 129.75 72.003906 129.753906 72.308594 C 129.761719 72.710938 129.761719 72.710938 129.773438 73.125 C 129.78125 73.476562 129.78125 73.476562 129.785156 73.84375 C 129.777344 74.402344 129.777344 74.402344 130.148438 74.703125 C 130.953125 74.828125 130.953125 74.828125 131.902344 74.859375 C 132.222656 74.882812 132.546875 74.90625 132.875 74.933594 C 134.128906 74.65625 134.777344 74.316406 135.644531 73.367188 C 136.683594 71.335938 136.386719 68.824219 136.375 66.59375 C 136.378906 66.050781 136.382812 65.503906 136.386719 64.957031 C 136.402344 63.621094 136.402344 62.285156 136.390625 60.953125 C 137.316406 60.953125 138.246094 60.953125 139.199219 60.953125 C 139.199219 63.636719 139.199219 66.3125 139.199219 69.078125 C 140.4375 68.617188 140.4375 68.617188 141.695312 68.140625 C 143.644531 67.855469 145.3125 68.0625 147.003906 69.078125 C 148.304688 70.316406 148.347656 71.363281 148.40625 73.144531 C 148.355469 74.925781 148.25 75.921875 147.003906 77.207031 C 145.804688 78.292969 144.703125 78.492188 143.121094 78.507812 C 142.851562 78.511719 142.578125 78.511719 142.296875 78.515625 C 142.007812 78.515625 141.710938 78.515625 141.410156 78.519531 C 141.105469 78.519531 140.804688 78.519531 140.492188 78.527344 C 139.851562 78.527344 139.207031 78.53125 138.566406 78.53125 C 137.589844 78.535156 136.617188 78.542969 135.640625 78.554688 C 135.015625 78.554688 134.390625 78.558594 133.765625 78.558594 C 133.476562 78.5625 133.183594 78.570312 132.890625 78.570312 C 131.183594 78.5625 129.816406 78.328125 128.222656 77.695312 C 127.351562 77.425781 126.890625 77.738281 126.09375 78.144531 C 125.058594 78.363281 124.015625 78.5 122.972656 78.648438 C 122.695312 78.691406 122.414062 78.734375 122.128906 78.777344 C 120.832031 78.96875 119.601562 79.101562 118.289062 79.082031 C 118.1875 78.152344 118.082031 77.222656 117.976562 76.265625 C 118.902344 75.804688 119.769531 75.9375 120.785156 75.957031 C 120.683594 75.746094 120.578125 75.542969 120.476562 75.332031 C 120.382812 74.617188 120.308594 73.898438 120.238281 73.183594 C 120.21875 72.96875 120.199219 72.753906 120.179688 72.53125 C 120.136719 72.078125 120.09375 71.617188 120.050781 71.167969 C 119.988281 70.476562 119.921875 69.789062 119.855469 69.101562 C 119.652344 66.898438 119.480469 64.726562 119.535156 62.515625 C 120.464844 62.515625 121.390625 62.515625 122.347656 62.515625 C 122.480469 63.886719 122.613281 65.261719 122.75 66.632812 C 122.792969 67.101562 122.839844 67.566406 122.882812 68.03125 C 123.125 70.46875 123.347656 72.878906 123.28125 75.332031 C 123.746094 75.230469 124.207031 75.136719 124.667969 75.035156 C 124.925781 74.984375 125.183594 74.925781 125.445312 74.875 C 126.085938 74.765625 126.085938 74.765625 126.402344 74.394531 C 126.441406 73.96875 126.460938 73.542969 126.46875 73.125 C 126.476562 72.855469 126.480469 72.585938 126.488281 72.308594 C 126.492188 72.015625 126.5 71.722656 126.503906 71.421875 C 126.507812 71.125 126.519531 70.828125 126.523438 70.519531 C 126.542969 69.566406 126.5625 68.605469 126.578125 67.652344 C 126.59375 67.003906 126.609375 66.363281 126.621094 65.714844 C 126.65625 64.125 126.683594 62.539062 126.71875 60.953125 Z M 137.640625 74.703125 C 137.640625 74.808594 137.640625 74.914062 137.640625 75.015625 C 138.878906 75.027344 140.125 75.03125 141.367188 75.035156 C 141.898438 75.042969 141.898438 75.042969 142.441406 75.046875 C 142.777344 75.046875 143.117188 75.046875 143.460938 75.046875 C 143.773438 75.050781 144.082031 75.050781 144.40625 75.050781 C 145.117188 75.097656 145.117188 75.097656 145.441406 74.703125 C 145.503906 74.058594 145.503906 74.058594 145.5 73.316406 C 145.503906 73.066406 145.507812 72.816406 145.511719 72.558594 C 145.503906 71.824219 145.503906 71.824219 144.816406 71.265625 C 141.433594 70.804688 139.8125 72.296875 137.640625 74.703125 Z M 137.640625 74.703125" stroke-linecap="round" /></g>		<g transform="matrix(1 0 0 1 168.95 22.71)"><path style="stroke: none; stroke-width: 1; stroke-dasharray: none; stroke-linecap: butt; stroke-dashoffset: 0; stroke-linejoin: miter; stroke-miterlimit: 4; fill: rgb(243,249,250); fill-rule: nonzero; opacity: 1;" vector-effect="non-scaling-stroke" transform=" translate(-441.63, -162.56)" d="M 441.5 153.894531 C 443.078125 154.972656 444.394531 156.371094 445.730469 157.722656 C 446.257812 158.261719 446.792969 158.789062 447.324219 159.316406 C 447.667969 159.65625 448.011719 160 448.351562 160.34375 C 448.507812 160.5 448.664062 160.660156 448.832031 160.816406 C 450.183594 162.214844 451.128906 163.804688 451.132812 165.800781 C 451.066406 167.53125 450.488281 168.949219 449.292969 170.210938 C 447.921875 171.402344 446.804688 172.007812 444.992188 172.03125 C 444.570312 172.046875 444.570312 172.046875 444.148438 172.058594 C 441.261719 171.621094 439.460938 169.621094 437.511719 167.636719 C 437.03125 167.152344 436.546875 166.667969 436.058594 166.1875 C 432.558594 162.695312 432.558594 162.695312 432.117188 160.042969 C 432.160156 158.082031 432.265625 156.625 433.699219 155.152344 C 436.035156 153.03125 438.597656 152.367188 441.5 153.894531 Z M 441.5 153.894531" stroke-linecap="round" /></g>		<g transform="matrix(1 0 0 1 -4.49 -67.06)"><path style="stroke: none; stroke-width: 1; stroke-dasharray: none; stroke-linecap: butt; stroke-dashoffset: 0; stroke-linejoin: miter; stroke-miterlimit: 4; fill: rgb(243,249,250); fill-rule: nonzero; opacity: 1;" vector-effect="non-scaling-stroke" transform=" translate(-268.19, -72.8)" d="M 273.410156 60.953125 C 274.183594 61.328125 274.867188 61.71875 275.589844 62.199219 C 275.425781 63.46875 274.773438 64.101562 273.914062 65.011719 C 273.066406 65.921875 272.269531 66.824219 271.535156 67.828125 C 271.816406 67.835938 272.101562 67.839844 272.394531 67.84375 C 273.453125 67.863281 274.507812 67.882812 275.566406 67.910156 C 276.019531 67.921875 276.476562 67.929688 276.933594 67.933594 C 277.59375 67.949219 278.25 67.964844 278.914062 67.980469 C 279.308594 67.988281 279.703125 67.996094 280.109375 68.007812 C 281.734375 68.207031 282.746094 68.6875 283.816406 69.925781 C 284.421875 71.136719 284.5 71.953125 284.488281 73.296875 C 284.492188 73.894531 284.492188 73.894531 284.5 74.496094 C 284.304688 75.851562 283.988281 76.496094 283.082031 77.519531 C 281 78.765625 278.855469 78.582031 276.484375 78.558594 C 276.058594 78.558594 275.628906 78.558594 275.199219 78.558594 C 274.304688 78.554688 273.414062 78.550781 272.515625 78.542969 C 271.375 78.535156 270.226562 78.53125 269.082031 78.53125 C 268.195312 78.53125 267.3125 78.527344 266.433594 78.519531 C 265.804688 78.519531 265.171875 78.515625 264.550781 78.515625 C 264.167969 78.511719 263.785156 78.511719 263.394531 78.507812 C 263.0625 78.507812 262.722656 78.5 262.382812 78.5 C 261.546875 78.453125 261.546875 78.453125 260.613281 78.144531 C 260.542969 78.371094 260.476562 78.601562 260.402344 78.839844 C 259.804688 80.695312 259.296875 82.207031 257.492188 83.144531 C 253.789062 84.828125 253.789062 84.828125 252.496094 84.394531 C 252.125 83.28125 252.125 83.28125 251.871094 82.207031 C 252.25 82.066406 252.25 82.066406 252.636719 81.917969 C 253.136719 81.722656 253.136719 81.722656 253.644531 81.523438 C 253.972656 81.394531 254.308594 81.269531 254.644531 81.136719 C 255.761719 80.570312 256.382812 80.050781 257.175781 79.082031 C 257.421875 77.996094 257.421875 77.996094 257.402344 76.808594 C 257.40625 76.59375 257.40625 76.386719 257.414062 76.167969 C 257.425781 75.488281 257.429688 74.8125 257.429688 74.140625 C 257.4375 73.679688 257.449219 73.21875 257.453125 72.757812 C 257.476562 71.636719 257.488281 70.511719 257.492188 69.394531 C 258.414062 69.394531 259.34375 69.394531 260.296875 69.394531 C 260.316406 69.75 260.335938 70.109375 260.355469 70.476562 C 260.382812 70.941406 260.40625 71.40625 260.4375 71.871094 C 260.445312 72.109375 260.460938 72.34375 260.476562 72.585938 C 260.4375 73.738281 260.4375 73.738281 260.921875 74.703125 C 261.554688 74.734375 262.191406 74.742188 262.820312 74.742188 C 263.230469 74.742188 263.632812 74.742188 264.054688 74.742188 C 264.496094 74.742188 264.945312 74.734375 265.394531 74.734375 C 265.84375 74.734375 266.296875 74.734375 266.757812 74.734375 C 267.953125 74.730469 269.152344 74.730469 270.347656 74.726562 C 271.570312 74.722656 272.792969 74.722656 274.015625 74.722656 C 276.410156 74.71875 278.8125 74.710938 281.210938 74.703125 C 281.5 73.125 281.5 73.125 281.210938 71.582031 C 280.628906 71.574219 280.628906 71.574219 280.03125 71.574219 C 278.585938 71.566406 277.140625 71.550781 275.695312 71.535156 C 275.070312 71.523438 274.449219 71.519531 273.820312 71.519531 C 272.921875 71.515625 272.023438 71.503906 271.121094 71.484375 C 270.84375 71.492188 270.5625 71.492188 270.277344 71.492188 C 268.957031 71.460938 268.101562 71.433594 267.132812 70.46875 C 266.9375 70.21875 266.742188 69.964844 266.542969 69.703125 C 266.980469 68.363281 267.617188 67.558594 268.589844 66.539062 C 269.980469 65.046875 271.277344 63.515625 272.558594 61.925781 C 273.09375 61.265625 273.09375 61.265625 273.410156 60.953125 Z M 273.410156 60.953125" stroke-linecap="round" /></g>		<g transform="matrix(1 0 0 1 -61.18 -70.07)"><path style="stroke: none; stroke-width: 1; stroke-dasharray: none; stroke-linecap: butt; stroke-dashoffset: 0; stroke-linejoin: miter; stroke-miterlimit: 4; fill: rgb(243,249,250); fill-rule: nonzero; opacity: 1;" vector-effect="non-scaling-stroke" transform=" translate(-211.5, -69.79)" d="M 198.8125 60.953125 C 199.742188 60.953125 200.667969 60.953125 201.625 60.953125 C 201.628906 61.355469 201.636719 61.761719 201.648438 62.183594 C 201.675781 63.679688 201.703125 65.179688 201.738281 66.675781 C 201.753906 67.324219 201.765625 67.976562 201.777344 68.625 C 201.796875 69.558594 201.816406 70.488281 201.832031 71.421875 C 201.84375 71.714844 201.847656 72.003906 201.851562 72.308594 C 201.859375 72.578125 201.863281 72.84375 201.871094 73.125 C 201.875 73.363281 201.882812 73.597656 201.886719 73.84375 C 201.875 74.402344 201.875 74.402344 202.25 74.703125 C 203.035156 74.726562 203.816406 74.734375 204.605469 74.726562 C 204.828125 74.722656 205.050781 74.722656 205.28125 74.722656 C 205.828125 74.71875 206.378906 74.710938 206.929688 74.703125 C 207.347656 73.476562 207.722656 72.25 208.058594 70.996094 C 208.140625 70.691406 208.222656 70.390625 208.304688 70.078125 C 208.367188 69.851562 208.425781 69.625 208.488281 69.394531 C 210.636719 69.664062 210.636719 69.664062 210.984375 70.015625 C 210.929688 71.152344 210.820312 72.28125 210.722656 73.414062 C 210.707031 73.738281 210.6875 74.058594 210.675781 74.394531 C 211.507812 75.226562 213.90625 74.777344 215.109375 74.777344 C 215.800781 74.785156 216.492188 74.792969 217.183594 74.804688 C 217.617188 74.804688 218.054688 74.808594 218.496094 74.808594 C 218.894531 74.8125 219.296875 74.8125 219.703125 74.816406 C 220.023438 74.777344 220.339844 74.742188 220.664062 74.703125 C 220.867188 74.398438 221.074219 74.089844 221.285156 73.769531 C 220.996094 73.789062 220.707031 73.8125 220.40625 73.835938 C 216.859375 73.988281 216.859375 73.988281 215.566406 72.886719 C 214.644531 71.941406 214.433594 71.175781 214.339844 69.839844 C 214.371094 67.878906 214.742188 65.957031 216.136719 64.527344 C 217.707031 63.621094 219.199219 63.574219 220.972656 63.765625 C 222.148438 64.148438 222.949219 64.722656 223.679688 65.746094 C 224.304688 67.472656 224.226562 69.132812 224.214844 70.957031 C 224.214844 71.320312 224.21875 71.679688 224.222656 72.058594 C 224.214844 75.414062 224.214844 75.414062 223.160156 76.894531 C 220.933594 78.605469 219.09375 78.527344 216.382812 78.53125 C 215.730469 78.535156 215.082031 78.542969 214.433594 78.554688 C 214.015625 78.554688 213.601562 78.558594 213.183594 78.558594 C 212.808594 78.5625 212.433594 78.5625 212.042969 78.570312 C 210.878906 78.445312 210.140625 78.058594 209.109375 77.519531 C 208.273438 77.71875 208.273438 77.71875 207.550781 78.144531 C 205.546875 78.816406 203.042969 78.824219 201.113281 77.910156 C 200.039062 77.261719 199.320312 76.609375 198.949219 75.378906 C 198.808594 74.664062 198.773438 74.027344 198.777344 73.300781 C 198.777344 72.886719 198.777344 72.886719 198.777344 72.46875 C 198.777344 72.171875 198.785156 71.875 198.785156 71.574219 C 198.785156 71.269531 198.785156 70.964844 198.785156 70.65625 C 198.789062 69.6875 198.789062 68.714844 198.792969 67.75 C 198.792969 67.089844 198.796875 66.4375 198.796875 65.78125 C 198.804688 64.167969 198.808594 62.5625 198.8125 60.953125 Z M 217.542969 67.554688 C 217.199219 68.542969 217.132812 69.289062 217.226562 70.328125 C 217.566406 70.738281 217.566406 70.738281 218.390625 70.671875 C 218.734375 70.671875 219.074219 70.664062 219.433594 70.660156 C 219.777344 70.65625 220.121094 70.65625 220.476562 70.652344 C 220.742188 70.648438 221.011719 70.648438 221.285156 70.640625 C 221.300781 70.132812 221.316406 69.625 221.324219 69.117188 C 221.335938 68.691406 221.335938 68.691406 221.34375 68.257812 C 221.363281 67.457031 221.363281 67.457031 220.664062 66.890625 C 218.894531 66.625 218.894531 66.625 217.542969 67.554688 Z M 217.542969 67.554688" stroke-linecap="round" /></g>		<g transform="matrix(1 0 0 1 172.8 -6.93)"><path style="stroke: none; stroke-width: 1; stroke-dasharray: none; stroke-linecap: butt; stroke-dashoffset: 0; stroke-linejoin: miter; stroke-miterlimit: 4; fill: rgb(243,249,250); fill-rule: nonzero; opacity: 1;" vector-effect="non-scaling-stroke" transform=" translate(-445.48, -132.92)" d="M 446.496094 125.222656 C 447.875 126.011719 448.914062 127.117188 450.003906 128.253906 C 450.234375 128.480469 450.460938 128.710938 450.699219 128.949219 C 452.515625 130.796875 453.984375 132.429688 454.003906 135.148438 C 453.929688 137.214844 453.402344 138.578125 451.933594 140.035156 C 450.460938 141.191406 448.992188 141.421875 447.152344 141.449219 C 444.414062 140.90625 442.664062 139.097656 440.757812 137.179688 C 440.492188 136.925781 440.230469 136.679688 439.957031 136.417969 C 438.289062 134.757812 437.289062 133.328125 436.949219 130.96875 C 436.957031 129.101562 437.554688 127.335938 438.824219 125.964844 C 441.484375 124.1875 443.585938 123.882812 446.496094 125.222656 Z M 446.496094 125.222656" stroke-linecap="round" /></g>		<g transform="matrix(1 0 0 1 -59.63 -34.16)"><path style="stroke: none; stroke-width: 1; stroke-dasharray: none; stroke-linecap: butt; stroke-dashoffset: 0; stroke-linejoin: miter; stroke-miterlimit: 4; fill: rgb(243,249,250); fill-rule: nonzero; opacity: 1;" vector-effect="non-scaling-stroke" transform=" translate(-213.04, -105.7)" d="M 217.226562 98.148438 C 218.566406 98.148438 219.90625 98.148438 221.285156 98.148438 C 221.316406 99.617188 221.339844 101.085938 221.355469 102.550781 C 221.359375 103.046875 221.367188 103.546875 221.378906 104.042969 C 221.492188 109.234375 221.492188 109.234375 220.039062 111.273438 C 219.480469 111.851562 219.480469 111.851562 218.941406 112.195312 C 218.765625 112.3125 218.589844 112.433594 218.410156 112.550781 C 216.839844 113.359375 215.125 113.21875 213.40625 113.230469 C 213.117188 113.234375 212.832031 113.242188 212.539062 113.25 C 210.382812 113.261719 208.589844 113.046875 206.851562 111.652344 C 206.683594 111.453125 206.519531 111.25 206.34375 111.042969 C 206.171875 110.839844 206 110.644531 205.816406 110.441406 C 204.398438 108.148438 204.667969 105.621094 204.703125 103.011719 C 204.707031 102.605469 204.710938 102.195312 204.710938 101.777344 C 204.722656 100.773438 204.730469 99.773438 204.746094 98.773438 C 206.085938 98.773438 207.421875 98.773438 208.800781 98.773438 C 208.816406 99.628906 208.816406 99.628906 208.824219 100.507812 C 208.84375 101.257812 208.863281 102.007812 208.878906 102.757812 C 208.882812 103.132812 208.886719 103.511719 208.890625 103.902344 C 208.902344 104.265625 208.910156 104.625 208.925781 105.003906 C 208.929688 105.335938 208.933594 105.667969 208.945312 106.011719 C 209.152344 107.113281 209.464844 107.492188 210.359375 108.148438 C 211.039062 108.328125 211.039062 108.328125 211.761719 108.296875 C 212.019531 108.292969 212.28125 108.292969 212.546875 108.292969 C 212.820312 108.28125 213.089844 108.277344 213.367188 108.265625 C 213.636719 108.265625 213.910156 108.265625 214.191406 108.265625 C 215.714844 108.324219 215.714844 108.324219 216.917969 107.523438 C 217.03125 106.550781 217.03125 106.550781 217.046875 105.414062 C 217.050781 105.207031 217.054688 104.996094 217.066406 104.785156 C 217.082031 104.121094 217.097656 103.457031 217.113281 102.796875 C 217.121094 102.347656 217.136719 101.898438 217.144531 101.453125 C 217.179688 100.351562 217.203125 99.25 217.226562 98.148438 Z M 217.226562 98.148438" stroke-linecap="round" /></g>		<g transform="matrix(1 0 0 1 -41.86 -40.25)"><path style="stroke: none; stroke-width: 1; stroke-dasharray: none; stroke-linecap: butt; stroke-dashoffset: 0; stroke-linejoin: miter; stroke-miterlimit: 4; fill: rgb(243,249,250); fill-rule: nonzero; opacity: 1;" vector-effect="non-scaling-stroke" transform=" translate(-230.81, -99.61)" d="M 222.84375 90.332031 C 224.183594 90.332031 225.523438 90.332031 226.90625 90.332031 C 227.003906 94.769531 227.109375 99.207031 227.214844 103.773438 C 229.6875 103.773438 232.15625 103.773438 234.707031 103.773438 C 234.808594 101.714844 234.910156 99.648438 235.015625 97.523438 C 236.257812 97.523438 237.488281 97.523438 238.761719 97.523438 C 238.792969 98.734375 238.804688 99.945312 238.820312 101.15625 C 238.828125 101.5 238.839844 101.84375 238.84375 102.195312 C 238.875 105.375 238.875 105.375 237.828125 106.898438 C 236.113281 108.621094 234.128906 108.859375 231.808594 108.878906 C 231.542969 108.878906 231.277344 108.871094 231 108.871094 C 230.605469 108.882812 230.605469 108.882812 230.199219 108.886719 C 228.246094 108.890625 226.113281 108.707031 224.53125 107.4375 C 222.734375 105.464844 222.753906 103.128906 222.785156 100.621094 C 222.789062 100.328125 222.789062 100.03125 222.789062 99.726562 C 222.792969 98.792969 222.796875 97.851562 222.808594 96.917969 C 222.8125 96.28125 222.8125 95.640625 222.816406 95.003906 C 222.820312 93.449219 222.832031 91.890625 222.84375 90.332031 Z M 222.84375 90.332031" stroke-linecap="round" /></g>		<g transform="matrix(1 0 0 1 -105.6 -65.07)"><path style="stroke: none; stroke-width: 1; stroke-dasharray: none; stroke-linecap: butt; stroke-dashoffset: 0; stroke-linejoin: miter; stroke-miterlimit: 4; fill: rgb(243,249,250); fill-rule: nonzero; opacity: 1;" vector-effect="non-scaling-stroke" transform=" translate(-167.07, -74.78)" d="M 173.222656 66.578125 C 173.375 68.125 173.375 68.125 173.53125 69.703125 C 173.203125 69.761719 172.875 69.816406 172.53125 69.875 C 172.097656 69.957031 171.664062 70.035156 171.230469 70.113281 C 171.015625 70.152344 170.796875 70.1875 170.570312 70.226562 C 169.988281 70.335938 169.417969 70.484375 168.851562 70.640625 C 168.246094 71.550781 168.082031 72.085938 167.917969 73.144531 C 168.253906 73.171875 168.597656 73.207031 168.949219 73.238281 C 170.761719 73.46875 172.859375 73.738281 174.402344 74.761719 C 175.3125 76.136719 174.96875 78.140625 174.78125 79.707031 C 174.269531 81.039062 173.597656 81.675781 172.371094 82.382812 C 170.671875 83.128906 168.96875 82.976562 167.136719 82.96875 C 166.757812 82.976562 166.378906 82.980469 165.992188 82.988281 C 163.511719 82.988281 162.3125 82.816406 160.535156 81.082031 C 159.425781 79.683594 159.132812 78.796875 159.144531 77.035156 C 159.148438 76.699219 159.148438 76.367188 159.148438 76.019531 C 159.152344 75.671875 159.152344 75.316406 159.15625 74.960938 C 159.15625 74.609375 159.15625 74.25 159.164062 73.886719 C 159.164062 73.015625 159.167969 72.136719 159.175781 71.265625 C 160.101562 71.265625 161.03125 71.265625 161.984375 71.265625 C 161.988281 71.722656 161.992188 72.175781 161.996094 72.648438 C 162.011719 73.25 162.027344 73.851562 162.046875 74.449219 C 162.046875 74.75 162.046875 75.050781 162.050781 75.359375 C 162.09375 76.734375 162.167969 77.613281 162.875 78.816406 C 164.34375 79.679688 165.65625 79.582031 167.332031 79.53125 C 167.640625 79.527344 167.953125 79.527344 168.277344 79.527344 C 170.074219 79.53125 170.074219 79.53125 171.65625 78.769531 C 172.039062 77.816406 172.039062 77.816406 172.28125 76.894531 C 172.054688 76.855469 171.824219 76.824219 171.585938 76.789062 C 169.375 76.441406 167.25 75.964844 165.105469 75.332031 C 164.855469 70.761719 164.855469 70.761719 166.355469 68.765625 C 168.039062 66.980469 170.839844 66.578125 173.222656 66.578125 Z M 173.222656 66.578125" stroke-linecap="round" /></g>		<g transform="matrix(1 0 0 1 -165.17 -70.05)"><path style="stroke: none; stroke-width: 1; stroke-dasharray: none; stroke-linecap: butt; stroke-dashoffset: 0; stroke-linejoin: miter; stroke-miterlimit: 4; fill: rgb(243,249,250); fill-rule: nonzero; opacity: 1;" vector-effect="non-scaling-stroke" transform=" translate(-107.5, -69.81)" d="M 99.25 60.953125 C 100.179688 60.953125 101.101562 60.953125 102.0625 60.953125 C 102.066406 61.355469 102.074219 61.761719 102.085938 62.183594 C 102.113281 63.679688 102.140625 65.179688 102.175781 66.675781 C 102.1875 67.324219 102.203125 67.976562 102.214844 68.625 C 102.230469 69.558594 102.25 70.488281 102.273438 71.421875 C 102.28125 71.714844 102.285156 72.003906 102.289062 72.308594 C 102.292969 72.578125 102.304688 72.84375 102.308594 73.125 C 102.3125 73.363281 102.316406 73.597656 102.324219 73.84375 C 102.3125 74.402344 102.3125 74.402344 102.683594 74.703125 C 103.367188 74.777344 104.046875 74.835938 104.734375 74.878906 C 105.105469 74.90625 105.476562 74.933594 105.863281 74.960938 C 106.296875 74.988281 106.296875 74.988281 106.742188 75.015625 C 106.691406 74.847656 106.644531 74.679688 106.59375 74.503906 C 106.140625 72.738281 105.953125 71.171875 106.429688 69.394531 C 107.1875 68.117188 107.835938 67.625 109.238281 67.207031 C 110.15625 67.128906 111.066406 67.144531 111.988281 67.164062 C 112.359375 67.167969 112.359375 67.167969 112.734375 67.171875 C 113.335938 67.179688 113.941406 67.191406 114.542969 67.207031 C 114.542969 68.234375 114.542969 69.265625 114.542969 70.328125 C 112.898438 70.433594 111.25 70.535156 109.550781 70.640625 C 109.261719 71.789062 109.238281 72.390625 109.375 73.535156 C 109.460938 74.269531 109.460938 74.269531 109.550781 75.015625 C 111.40625 74.8125 113.261719 74.601562 115.167969 74.394531 C 115.375 75.421875 115.582031 76.457031 115.789062 77.519531 C 102.945312 79.089844 102.945312 79.089844 100.496094 77.207031 C 99.378906 76.046875 99.210938 74.871094 99.214844 73.300781 C 99.214844 72.886719 99.214844 72.886719 99.214844 72.46875 C 99.214844 72.171875 99.21875 71.875 99.21875 71.574219 C 99.21875 71.269531 99.21875 70.964844 99.21875 70.65625 C 99.226562 69.6875 99.226562 68.714844 99.230469 67.75 C 99.234375 67.089844 99.234375 66.4375 99.234375 65.78125 C 99.238281 64.167969 99.242188 62.5625 99.25 60.953125 Z M 99.25 60.953125" stroke-linecap="round" /></g>		<g transform="matrix(1 0 0 1 187.52 7.52)"><path style="stroke: none; stroke-width: 1; stroke-dasharray: none; stroke-linecap: butt; stroke-dashoffset: 0; stroke-linejoin: miter; stroke-miterlimit: 4; fill: rgb(243,249,250); fill-rule: nonzero; opacity: 1;" vector-effect="non-scaling-stroke" transform=" translate(-460.2, -147.38)" d="M 463.546875 142.136719 C 465.03125 143.1875 465.890625 144.5 466.292969 146.285156 C 466.449219 148.015625 466.222656 149.472656 465.355469 150.972656 C 464.121094 152.355469 462.777344 153.34375 460.90625 153.550781 C 459.015625 153.644531 457.519531 153.390625 455.988281 152.222656 C 454.375 150.449219 454.019531 148.882812 454.054688 146.507812 C 454.183594 144.8125 454.894531 143.875 456.109375 142.765625 C 458.410156 140.929688 460.953125 140.667969 463.546875 142.136719 Z M 463.546875 142.136719" stroke-linecap="round" /></g>		<g transform="matrix(1 0 0 1 118.93 -27.72)"><path style="stroke: none; stroke-width: 1; stroke-dasharray: none; stroke-linecap: butt; stroke-dashoffset: 0; stroke-linejoin: miter; stroke-miterlimit: 4; fill: rgb(243,249,250); fill-rule: nonzero; opacity: 1;" vector-effect="non-scaling-stroke" transform=" translate(-391.6, -112.14)" d="M 394.917969 106.804688 C 396.351562 108.039062 397.511719 109.191406 397.710938 111.160156 C 397.777344 113.066406 397.734375 114.5 396.566406 116.058594 C 395.089844 117.625 393.828125 118.242188 391.65625 118.308594 C 389.574219 118.207031 388.355469 117.714844 386.933594 116.179688 C 385.761719 114.703125 385.382812 113.496094 385.496094 111.609375 C 385.738281 109.710938 386.367188 108.480469 387.734375 107.113281 C 390.007812 105.6875 392.539062 105.589844 394.917969 106.804688 Z M 394.917969 106.804688" stroke-linecap="round" /></g>		<g transform="matrix(1 0 0 1 160.35 -53.36)"><path style="stroke: none; stroke-width: 1; stroke-dasharray: none; stroke-linecap: butt; stroke-dashoffset: 0; stroke-linejoin: miter; stroke-miterlimit: 4; fill: rgb(243,249,250); fill-rule: nonzero; opacity: 1;" vector-effect="non-scaling-stroke" transform=" translate(-433.02, -86.5)" d="M 436.773438 81.484375 C 438.007812 82.511719 438.832031 83.753906 439.136719 85.332031 C 439.304688 87.316406 439.050781 88.691406 437.890625 90.332031 C 436.382812 91.914062 435.203125 92.566406 432.996094 92.636719 C 431.113281 92.621094 429.90625 92.238281 428.523438 90.960938 C 426.976562 88.96875 426.667969 87.179688 426.964844 84.707031 C 427.601562 83.117188 428.625 81.863281 430.089844 80.957031 C 432.375 80.03125 434.683594 80.152344 436.773438 81.484375 Z M 436.773438 81.484375" stroke-linecap="round" /></g>		<g transform="matrix(1 0 0 1 145.07 32.54)"><path style="stroke: none; stroke-width: 1; stroke-dasharray: none; stroke-linecap: butt; stroke-dashoffset: 0; stroke-linejoin: miter; stroke-miterlimit: 4; fill: rgb(243,249,250); fill-rule: nonzero; opacity: 1;" vector-effect="non-scaling-stroke" transform=" translate(-417.75, -172.4)" d="M 421.101562 167.140625 C 422.445312 168.09375 423.433594 169.367188 423.84375 170.976562 C 424.097656 173.019531 423.792969 174.605469 422.597656 176.292969 C 421.234375 177.765625 419.804688 178.488281 417.816406 178.59375 C 416.0625 178.550781 414.667969 177.980469 413.375 176.785156 C 411.984375 175.203125 411.519531 173.78125 411.574219 171.707031 C 411.796875 170.023438 412.574219 168.695312 413.835938 167.578125 C 416.183594 165.949219 418.578125 165.714844 421.101562 167.140625 Z M 421.101562 167.140625" stroke-linecap="round" /></g>		<g transform="matrix(1 0 0 1 -81.48 -63.49)"><path style="stroke: none; stroke-width: 1; stroke-dasharray: none; stroke-linecap: butt; stroke-dashoffset: 0; stroke-linejoin: miter; stroke-miterlimit: 4; fill: rgb(243,249,250); fill-rule: nonzero; opacity: 1;" vector-effect="non-scaling-stroke" transform=" translate(-191.19, -76.37)" d="M 193.9375 68.492188 C 194.929688 69.203125 195.558594 69.828125 196.003906 70.957031 C 196.191406 72.347656 196.175781 73.730469 196.164062 75.136719 C 196.167969 75.507812 196.171875 75.878906 196.175781 76.265625 C 196.164062 78.960938 195.839844 80.726562 193.957031 82.753906 C 192.328125 83.988281 190.226562 84.707031 188.203125 84.707031 C 187.996094 83.882812 187.789062 83.058594 187.578125 82.207031 C 187.785156 82.128906 187.996094 82.046875 188.203125 81.964844 C 190.929688 81.03125 190.929688 81.03125 192.828125 79.019531 C 192.945312 78.730469 193.070312 78.445312 193.195312 78.144531 C 192.890625 78.296875 192.890625 78.296875 192.570312 78.453125 C 190.710938 78.628906 189.160156 78.609375 187.578125 77.519531 C 186.726562 76.800781 186.378906 76.292969 186.222656 75.1875 C 186.160156 73.257812 186.359375 71.433594 187.265625 69.703125 C 189.117188 67.847656 191.515625 67.6875 193.9375 68.492188 Z M 189.449219 71.582031 C 189.222656 72.21875 189.222656 72.21875 189.082031 72.96875 C 189.023438 73.214844 188.964844 73.46875 188.910156 73.726562 C 188.761719 74.40625 188.761719 74.40625 189.136719 75.015625 C 190.476562 75.015625 191.816406 75.015625 193.195312 75.015625 C 193.195312 73.882812 193.195312 72.75 193.195312 71.582031 C 192.492188 71.226562 192.097656 71.222656 191.320312 71.226562 C 191.105469 71.226562 190.886719 71.226562 190.660156 71.222656 C 190.042969 71.234375 190.042969 71.234375 189.449219 71.582031 Z M 189.449219 71.582031" stroke-linecap="round" /></g>		<g transform="matrix(1 0 0 1 -25.92 -63.48)"><path style="stroke: none; stroke-width: 1; stroke-dasharray: none; stroke-linecap: butt; stroke-dashoffset: 0; stroke-linejoin: miter; stroke-miterlimit: 4; fill: rgb(243,249,250); fill-rule: nonzero; opacity: 1;" vector-effect="non-scaling-stroke" transform=" translate(-246.75, -76.37)" d="M 249.488281 68.511719 C 250.414062 69.148438 250.9375 69.707031 251.558594 70.640625 C 251.714844 71.617188 251.714844 71.617188 251.714844 72.710938 C 251.714844 73.105469 251.714844 73.5 251.714844 73.910156 C 251.710938 74.320312 251.703125 74.730469 251.695312 75.15625 C 251.695312 75.566406 251.703125 75.976562 251.703125 76.394531 C 251.6875 78.636719 251.648438 80.328125 250.175781 82.128906 C 248.660156 83.457031 246.972656 84.269531 245.003906 84.707031 C 244.277344 84.582031 244.277344 84.582031 243.757812 84.394531 C 243.652344 83.566406 243.550781 82.742188 243.445312 81.894531 C 243.746094 81.804688 244.050781 81.714844 244.367188 81.617188 C 244.765625 81.488281 245.171875 81.363281 245.574219 81.226562 C 245.773438 81.171875 245.972656 81.113281 246.179688 81.050781 C 247.34375 80.664062 247.769531 80.402344 248.421875 79.335938 C 248.53125 79.046875 248.640625 78.753906 248.75 78.453125 C 248.503906 78.46875 248.253906 78.476562 248 78.488281 C 244.542969 78.578125 244.542969 78.578125 243.132812 77.519531 C 242.078125 76.324219 241.707031 75.421875 241.804688 73.8125 C 242.164062 70.75 242.164062 70.75 243.25 69.414062 C 245.1875 67.886719 247.164062 67.691406 249.488281 68.511719 Z M 245.003906 71.890625 C 244.847656 72.566406 244.847656 72.566406 244.792969 73.316406 C 244.761719 73.570312 244.738281 73.820312 244.710938 74.082031 C 244.707031 74.289062 244.699219 74.492188 244.695312 74.703125 C 245.039062 75.121094 245.039062 75.121094 245.925781 75.046875 C 246.296875 75.046875 246.667969 75.042969 247.054688 75.035156 C 247.425781 75.035156 247.804688 75.03125 248.183594 75.027344 C 248.621094 75.023438 248.621094 75.023438 249.0625 75.015625 C 249.082031 74.570312 249.09375 74.121094 249.105469 73.667969 C 249.109375 73.421875 249.117188 73.167969 249.125 72.910156 C 249.113281 72.113281 249.113281 72.113281 248.4375 71.265625 C 247.773438 71.128906 247.773438 71.128906 247.035156 71.171875 C 246.664062 71.171875 246.664062 71.171875 246.28125 71.171875 C 245.5625 71.210938 245.5625 71.210938 245.003906 71.890625 Z M 245.003906 71.890625" stroke-linecap="round" /></g>		<g transform="matrix(1 0 0 1 -185.4 -66.14)"><path style="stroke: none; stroke-width: 1; stroke-dasharray: none; stroke-linecap: butt; stroke-dashoffset: 0; stroke-linejoin: miter; stroke-miterlimit: 4; fill: rgb(243,249,250); fill-rule: nonzero; opacity: 1;" vector-effect="non-scaling-stroke" transform=" translate(-87.27, -73.71)" d="M 77.714844 68.765625 C 78.539062 68.765625 79.363281 68.765625 80.210938 68.765625 C 80.222656 69.089844 80.234375 69.414062 80.25 69.746094 C 80.265625 70.175781 80.285156 70.605469 80.308594 71.03125 C 80.316406 71.246094 80.324219 71.457031 80.328125 71.675781 C 80.378906 72.566406 80.46875 73.332031 80.835938 74.144531 C 81.8125 75.023438 82.886719 74.863281 84.136719 74.835938 C 84.527344 74.835938 84.527344 74.835938 84.929688 74.835938 C 85.476562 74.832031 86.027344 74.828125 86.582031 74.816406 C 87.429688 74.804688 88.273438 74.796875 89.121094 74.792969 C 89.660156 74.789062 90.195312 74.785156 90.726562 74.777344 C 90.984375 74.777344 91.238281 74.773438 91.5 74.773438 C 92.664062 74.859375 92.664062 74.859375 93.636719 74.394531 C 93.683594 73.972656 93.710938 73.554688 93.730469 73.128906 C 93.75 72.753906 93.75 72.753906 93.773438 72.367188 C 93.78125 72.101562 93.796875 71.832031 93.804688 71.5625 C 93.832031 71.160156 93.832031 71.160156 93.847656 70.75 C 93.882812 70.089844 93.910156 69.425781 93.945312 68.765625 C 94.875 68.765625 95.796875 68.765625 96.75 68.765625 C 96.789062 69.703125 96.8125 70.640625 96.832031 71.582031 C 96.847656 71.972656 96.847656 71.972656 96.859375 72.371094 C 96.890625 74.226562 96.679688 75.722656 95.503906 77.207031 C 93.628906 79.003906 90.699219 78.636719 88.289062 78.601562 C 87.550781 78.59375 86.804688 78.597656 86.066406 78.601562 C 85.585938 78.597656 85.109375 78.597656 84.628906 78.59375 C 84.304688 78.59375 84.304688 78.59375 83.96875 78.59375 C 82.242188 78.5625 80.410156 78.277344 79.101562 77.0625 C 78.085938 75.871094 77.675781 75.128906 77.683594 73.585938 C 77.683594 73.3125 77.683594 73.03125 77.6875 72.738281 C 77.6875 72.449219 77.695312 72.152344 77.695312 71.851562 C 77.699219 71.558594 77.699219 71.261719 77.699219 70.957031 C 77.703125 70.226562 77.707031 69.496094 77.714844 68.765625 Z M 77.714844 68.765625" stroke-linecap="round" /></g>		<g transform="matrix(1 0 0 1 -38.22 -67.58)"><path style="stroke: none; stroke-width: 1; stroke-dasharray: none; stroke-linecap: butt; stroke-dashoffset: 0; stroke-linejoin: miter; stroke-miterlimit: 4; fill: rgb(243,249,250); fill-rule: nonzero; opacity: 1;" vector-effect="non-scaling-stroke" transform=" translate(-234.45, -72.27)" d="M 231.585938 65.953125 C 233.226562 66.101562 234.351562 66.972656 235.660156 67.886719 C 235.992188 68.105469 235.992188 68.105469 236.332031 68.332031 C 237.671875 69.253906 238.632812 70.097656 239.386719 71.582031 C 239.691406 73.273438 239.667969 75.050781 238.863281 76.601562 C 237.910156 77.808594 237.148438 78.378906 235.601562 78.59375 C 232.078125 78.597656 232.078125 78.597656 230.648438 77.207031 C 229.527344 75.617188 229.191406 74.140625 229.398438 72.207031 C 229.90625 70.886719 230.539062 70.015625 231.585938 69.078125 C 231.277344 68.875 230.964844 68.664062 230.648438 68.453125 C 230.816406 67.402344 230.976562 66.867188 231.585938 65.953125 Z M 232.910156 71.441406 C 232.113281 72.171875 232.113281 72.171875 232.015625 73.296875 C 232.121094 74.417969 232.121094 74.417969 232.851562 75.175781 C 234.039062 75.78125 234.683594 75.664062 235.957031 75.332031 C 236.703125 74.707031 236.703125 74.707031 236.714844 73.492188 C 236.691406 72.425781 236.632812 72.261719 235.875 71.421875 C 234.707031 70.785156 234.074219 70.78125 232.910156 71.441406 Z M 232.910156 71.441406" stroke-linecap="round" /></g>		<g transform="matrix(1 0 0 1 -93.32 -62.8)"><path style="stroke: none; stroke-width: 1; stroke-dasharray: none; stroke-linecap: butt; stroke-dashoffset: 0; stroke-linejoin: miter; stroke-miterlimit: 4; fill: rgb(243,249,250); fill-rule: nonzero; opacity: 1;" vector-effect="non-scaling-stroke" transform=" translate(-179.36, -77.05)" d="M 180.710938 69.394531 C 181.636719 69.394531 182.566406 69.394531 183.519531 69.394531 C 183.542969 70.734375 183.5625 72.070312 183.570312 73.410156 C 183.578125 73.863281 183.582031 74.320312 183.589844 74.773438 C 183.601562 75.433594 183.605469 76.089844 183.609375 76.746094 C 183.613281 77.144531 183.621094 77.539062 183.625 77.945312 C 183.472656 79.609375 182.964844 80.800781 181.898438 82.109375 C 180.011719 83.664062 178.097656 84.257812 175.71875 84.707031 C 175.511719 83.777344 175.304688 82.847656 175.09375 81.894531 C 175.46875 81.785156 175.46875 81.785156 175.855469 81.675781 C 176.355469 81.523438 176.355469 81.523438 176.867188 81.367188 C 177.199219 81.269531 177.527344 81.171875 177.867188 81.070312 C 179.027344 80.5625 179.597656 80.058594 180.398438 79.082031 C 180.640625 77.996094 180.640625 77.996094 180.621094 76.808594 C 180.625 76.59375 180.632812 76.386719 180.636719 76.167969 C 180.644531 75.488281 180.652344 74.8125 180.652344 74.140625 C 180.660156 73.679688 180.667969 73.21875 180.675781 72.757812 C 180.699219 71.636719 180.707031 70.511719 180.710938 69.394531 Z M 180.710938 69.394531" stroke-linecap="round" /></g>		<g transform="matrix(1 0 0 1 -120.37 -70.15)"><path style="stroke: none; stroke-width: 1; stroke-dasharray: none; stroke-linecap: butt; stroke-dashoffset: 0; stroke-linejoin: miter; stroke-miterlimit: 4; fill: rgb(243,249,250); fill-rule: nonzero; opacity: 1;" vector-effect="non-scaling-stroke" transform=" translate(-152.31, -69.7)" d="M 151.0625 60.953125 C 151.886719 60.953125 152.710938 60.953125 153.558594 60.953125 C 153.558594 66.730469 153.558594 72.503906 153.558594 78.453125 C 152.734375 78.453125 151.910156 78.453125 151.0625 78.453125 C 151.0625 72.683594 151.0625 66.90625 151.0625 60.953125 Z M 151.0625 60.953125" stroke-linecap="round" /></g>		<g transform="matrix(1 0 0 1 -15.81 -25.3)"><path style="stroke: none; stroke-width: 1; stroke-dasharray: none; stroke-linecap: butt; stroke-dashoffset: 0; stroke-linejoin: miter; stroke-miterlimit: 4; fill: rgb(243,249,250); fill-rule: nonzero; opacity: 1;" vector-effect="non-scaling-stroke" transform=" translate(-256.86, -114.56)" d="M 253.429688 111.273438 C 255.699219 111.273438 257.964844 111.273438 260.296875 111.273438 C 260.296875 112.515625 260.296875 113.753906 260.296875 115.027344 C 259.785156 115.027344 259.269531 115.027344 258.738281 115.027344 C 258.738281 115.957031 258.738281 116.886719 258.738281 117.839844 C 257.605469 117.839844 256.472656 117.839844 255.304688 117.839844 C 255.304688 116.914062 255.304688 115.984375 255.304688 115.027344 C 254.6875 115.027344 254.070312 115.027344 253.429688 115.027344 C 253.429688 113.785156 253.429688 112.550781 253.429688 111.273438 Z M 253.429688 111.273438" stroke-linecap="round" /></g>		<g transform="matrix(1 0 0 1 -111.94 -46.4)"><path style="stroke: none; stroke-width: 1; stroke-dasharray: none; stroke-linecap: butt; stroke-dashoffset: 0; stroke-linejoin: miter; stroke-miterlimit: 4; fill: rgb(243,249,250); fill-rule: nonzero; opacity: 1;" vector-effect="non-scaling-stroke" transform=" translate(-160.74, -93.46)" d="M 158.863281 90.332031 C 160.101562 90.332031 161.335938 90.332031 162.609375 90.332031 C 162.609375 91.160156 162.609375 91.984375 162.609375 92.835938 C 163.121094 92.835938 163.636719 92.835938 164.171875 92.835938 C 164.171875 94.074219 164.171875 95.308594 164.171875 96.585938 C 161.902344 96.585938 159.640625 96.585938 157.304688 96.585938 C 157.304688 95.347656 157.304688 94.113281 157.304688 92.835938 C 157.820312 92.835938 158.332031 92.835938 158.863281 92.835938 C 158.863281 92.007812 158.863281 91.183594 158.863281 90.332031 Z M 158.863281 90.332031" stroke-linecap="round" /></g>		<g transform="matrix(1 0 0 1 -40.15 -26.7)"><path style="stroke: none; stroke-width: 1; stroke-dasharray: none; stroke-linecap: butt; stroke-dashoffset: 0; stroke-linejoin: miter; stroke-miterlimit: 4; fill: rgb(243,249,250); fill-rule: nonzero; opacity: 1;" vector-effect="non-scaling-stroke" transform=" translate(-232.52, -113.15)" d="M 229.089844 111.273438 C 231.351562 111.273438 233.621094 111.273438 235.957031 111.273438 C 235.957031 112.515625 235.957031 113.753906 235.957031 115.027344 C 233.6875 115.027344 231.421875 115.027344 229.089844 115.027344 C 229.089844 113.785156 229.089844 112.550781 229.089844 111.273438 Z M 229.089844 111.273438" stroke-linecap="round" /></g>		<g transform="matrix(1 0 0 1 -4.42 -76.25)"><path style="stroke: none; stroke-width: 1; stroke-dasharray: none; stroke-linecap: butt; stroke-dashoffset: 0; stroke-linejoin: miter; stroke-miterlimit: 4; fill: rgb(243,249,250); fill-rule: nonzero; opacity: 1;" vector-effect="non-scaling-stroke" transform=" translate(-268.26, -63.61)" d="M 270.289062 59.703125 C 270.695312 59.90625 271.113281 60.113281 271.535156 60.328125 C 271.535156 61.839844 271.226562 62.097656 270.269531 63.214844 C 270.011719 63.515625 269.757812 63.816406 269.496094 64.125 C 269.242188 64.421875 268.984375 64.710938 268.722656 65.011719 C 268.503906 65.273438 268.28125 65.53125 268.050781 65.792969 C 267.550781 66.371094 267.046875 66.941406 266.542969 67.515625 C 265.769531 67.207031 265.769531 67.207031 264.984375 66.890625 C 264.984375 65.636719 265.429688 65.300781 266.226562 64.351562 C 266.609375 63.898438 266.609375 63.898438 267 63.433594 C 268.082031 62.175781 269.171875 60.933594 270.289062 59.703125 Z M 270.289062 59.703125" stroke-linecap="round" /></g>		<g transform="matrix(1 0 0 1 6.51 -26.7)"><path style="stroke: none; stroke-width: 1; stroke-dasharray: none; stroke-linecap: butt; stroke-dashoffset: 0; stroke-linejoin: miter; stroke-miterlimit: 4; fill: rgb(243,249,250); fill-rule: nonzero; opacity: 1;" vector-effect="non-scaling-stroke" transform=" translate(-279.18, -113.15)" d="M 277.464844 111.273438 C 278.597656 111.273438 279.734375 111.273438 280.898438 111.273438 C 280.898438 112.515625 280.898438 113.753906 280.898438 115.027344 C 279.765625 115.027344 278.632812 115.027344 277.464844 115.027344 C 277.464844 113.785156 277.464844 112.550781 277.464844 111.273438 Z M 277.464844 111.273438" stroke-linecap="round" /></g>		<g transform="matrix(1 0 0 1 -59.66 -43.27)"><path style="stroke: none; stroke-width: 1; stroke-dasharray: none; stroke-linecap: butt; stroke-dashoffset: 0; stroke-linejoin: miter; stroke-miterlimit: 4; fill: rgb(243,249,250); fill-rule: nonzero; opacity: 1;" vector-effect="non-scaling-stroke" transform=" translate(-213.01, -96.58)" d="M 211.296875 94.710938 C 212.433594 94.710938 213.5625 94.710938 214.730469 94.710938 C 214.730469 95.945312 214.730469 97.1875 214.730469 98.457031 C 213.601562 98.457031 212.464844 98.457031 211.296875 98.457031 C 211.296875 97.222656 211.296875 95.984375 211.296875 94.710938 Z M 211.296875 94.710938" stroke-linecap="round" /></g>		<g transform="matrix(1 0 0 1 -139.87 -45.14)"><path style="stroke: none; stroke-width: 1; stroke-dasharray: none; stroke-linecap: butt; stroke-dashoffset: 0; stroke-linejoin: miter; stroke-miterlimit: 4; fill: rgb(243,249,250); fill-rule: nonzero; opacity: 1;" vector-effect="non-scaling-stroke" transform=" translate(-132.8, -94.71)" d="M 131.089844 92.835938 C 132.21875 92.835938 133.351562 92.835938 134.519531 92.835938 C 134.519531 94.074219 134.519531 95.308594 134.519531 96.585938 C 133.386719 96.585938 132.25 96.585938 131.089844 96.585938 C 131.089844 95.347656 131.089844 94.113281 131.089844 92.835938 Z M 131.089844 92.835938" stroke-linecap="round" /></g>		<g transform="matrix(1 0 0 1 -183.57 -72.34)"><path style="stroke: none; stroke-width: 1; stroke-dasharray: none; stroke-linecap: butt; stroke-dashoffset: 0; stroke-linejoin: miter; stroke-miterlimit: 4; fill: rgb(243,249,250); fill-rule: nonzero; opacity: 1;" vector-effect="non-scaling-stroke" transform=" translate(-89.11, -67.52)" d="M 87.703125 65.953125 C 88.632812 65.953125 89.554688 65.953125 90.511719 65.953125 C 90.511719 66.984375 90.511719 68.015625 90.511719 69.078125 C 89.585938 69.078125 88.660156 69.078125 87.703125 69.078125 C 87.703125 68.050781 87.703125 67.015625 87.703125 65.953125 Z M 87.703125 65.953125" stroke-linecap="round" /></g>		<g transform="matrix(1 0 0 1 -187.63 -72.34)"><path style="stroke: none; stroke-width: 1; stroke-dasharray: none; stroke-linecap: butt; stroke-dashoffset: 0; stroke-linejoin: miter; stroke-miterlimit: 4; fill: rgb(243,249,250); fill-rule: nonzero; opacity: 1;" vector-effect="non-scaling-stroke" transform=" translate(-85.05, -67.52)" d="M 83.644531 65.953125 C 84.570312 65.953125 85.5 65.953125 86.453125 65.953125 C 86.453125 66.984375 86.453125 68.015625 86.453125 69.078125 C 85.527344 69.078125 84.597656 69.078125 83.644531 69.078125 C 83.644531 68.050781 83.644531 67.015625 83.644531 65.953125 Z M 83.644531 65.953125" stroke-linecap="round" /></g>		<g transform="matrix(1 0 0 1 -63.56 -74.06)"><path style="stroke: none; stroke-width: 1; stroke-dasharray: none; stroke-linecap: butt; stroke-dashoffset: 0; stroke-linejoin: miter; stroke-miterlimit: 4; fill: rgb(243,249,250); fill-rule: nonzero; opacity: 1;" vector-effect="non-scaling-stroke" transform=" translate(-209.11, -65.8)" d="M 207.550781 64.386719 C 208.582031 64.386719 209.609375 64.386719 210.675781 64.386719 C 210.675781 65.316406 210.675781 66.246094 210.675781 67.207031 C 209.644531 67.207031 208.617188 67.207031 207.550781 67.207031 C 207.550781 66.277344 207.550781 65.347656 207.550781 64.386719 Z M 207.550781 64.386719" stroke-linecap="round" /></g>		<g transform="matrix(1 0 0 1 -53.11 -79.68)"><path style="stroke: none; stroke-width: 1; stroke-dasharray: none; stroke-linecap: butt; stroke-dashoffset: 0; stroke-linejoin: miter; stroke-miterlimit: 4; fill: rgb(243,249,250); fill-rule: nonzero; opacity: 1;" vector-effect="non-scaling-stroke" transform=" translate(-219.57, -60.17)" d="M 218.164062 58.765625 C 219.089844 58.765625 220.019531 58.765625 220.972656 58.765625 C 220.972656 59.695312 220.972656 60.617188 220.972656 61.578125 C 220.046875 61.578125 219.117188 61.578125 218.164062 61.578125 C 218.164062 60.648438 218.164062 59.722656 218.164062 58.765625 Z M 218.164062 58.765625" stroke-linecap="round" /></g>		<g transform="matrix(1 0 0 1 96.23 -71.25)"><path style="stroke: none; stroke-width: 1; stroke-dasharray: none; stroke-linecap: butt; stroke-dashoffset: 0; stroke-linejoin: miter; stroke-miterlimit: 4; fill: rgb(243,249,250); fill-rule: nonzero; opacity: 1;" vector-effect="non-scaling-stroke" transform=" translate(-368.91, -68.61)" d="M 372.035156 65.011719 C 372.238281 65.117188 372.449219 65.222656 372.65625 65.328125 C 370.394531 67.597656 368.125 69.863281 365.789062 72.207031 C 365.585938 72.101562 365.378906 72 365.164062 71.890625 C 366.546875 70.273438 367.945312 68.777344 369.570312 67.40625 C 370.4375 66.652344 371.234375 65.835938 372.035156 65.011719 Z M 372.035156 65.011719" stroke-linecap="round" /></g>		<g transform="matrix(1 0 0 1 -41.87 -7.64)"><path style="stroke: none; stroke-width: 1; stroke-dasharray: none; stroke-linecap: butt; stroke-dashoffset: 0; stroke-linejoin: miter; stroke-miterlimit: 4; fill: rgb(243,249,250); fill-rule: nonzero; opacity: 1;" vector-effect="non-scaling-stroke" transform=" translate(-230.8, -132.22)" d="M 232.835938 129.714844 C 233.039062 129.820312 233.242188 129.925781 233.457031 130.03125 C 231.914062 131.578125 230.367188 133.125 228.773438 134.71875 C 228.570312 134.617188 228.363281 134.511719 228.148438 134.40625 C 229.625 132.71875 231.054688 131.089844 232.835938 129.714844 Z M 232.835938 129.714844" stroke-linecap="round" /></g>		<g transform="matrix(1 0 0 1 -127.39 75.67)"><path style="stroke: none; stroke-width: 1; stroke-dasharray: none; stroke-linecap: butt; stroke-dashoffset: 0; stroke-linejoin: miter; stroke-miterlimit: 4; fill: rgb(243,249,250); fill-rule: nonzero; opacity: 1;" vector-effect="non-scaling-stroke" transform=" translate(-145.29, -215.52)" d="M 146.691406 213.800781 C 146.253906 214.804688 145.722656 215.460938 144.9375 216.21875 C 144.640625 216.511719 144.640625 216.511719 144.335938 216.800781 C 144.1875 216.949219 144.035156 217.09375 143.882812 217.242188 C 143.882812 216.066406 144.175781 215.847656 144.9375 214.992188 C 145.132812 214.765625 145.328125 214.542969 145.527344 214.3125 C 146.066406 213.800781 146.066406 213.800781 146.691406 213.800781 Z M 146.691406 213.800781" stroke-linecap="round" /></g>		<g transform="matrix(1 0 0 1 76.42 -2.32)"><path style="stroke: none; stroke-width: 1; stroke-dasharray: none; stroke-linecap: butt; stroke-dashoffset: 0; stroke-linejoin: miter; stroke-miterlimit: 4; fill: rgb(243,249,250); fill-rule: nonzero; opacity: 1;" vector-effect="non-scaling-stroke" transform=" translate(-349.09, -137.53)" d="M 350.1875 135.96875 C 350.390625 136.074219 350.597656 136.175781 350.8125 136.285156 C 349.882812 137.207031 348.957031 138.136719 348 139.097656 C 347.796875 138.992188 347.589844 138.890625 347.375 138.78125 C 348.25 137.695312 349.015625 136.75 350.1875 135.96875 Z M 350.1875 135.96875" stroke-linecap="round" /></g>		<g transform="matrix(1 0 0 1 127.29 -19.2)"><path style="stroke: none; stroke-width: 1; stroke-dasharray: none; stroke-linecap: butt; stroke-dashoffset: 0; stroke-linejoin: miter; stroke-miterlimit: 4; fill: rgb(243,249,250); fill-rule: nonzero; opacity: 1;" vector-effect="non-scaling-stroke" transform=" translate(-399.97, -120.66)" d="M 400.746094 119.09375 C 400.957031 119.191406 401.160156 119.296875 401.371094 119.402344 C 400.445312 120.332031 399.515625 121.261719 398.5625 122.21875 C 398.5625 120.980469 399 120.617188 399.8125 119.714844 C 400.121094 119.511719 400.429688 119.300781 400.746094 119.09375 Z M 400.746094 119.09375" stroke-linecap="round" /></g>		<g transform="matrix(1 0 0 1 -132.38 -40.61)"><path style="stroke: none; stroke-width: 1; stroke-dasharray: none; stroke-linecap: butt; stroke-dashoffset: 0; stroke-linejoin: miter; stroke-miterlimit: 4; fill: rgb(243,249,250); fill-rule: nonzero; opacity: 1;" vector-effect="non-scaling-stroke" transform=" translate(-140.29, -99.24)" d="M 141.070312 97.523438 C 141.277344 97.625 141.488281 97.730469 141.695312 97.832031 C 141.546875 97.980469 141.394531 98.128906 141.242188 98.28125 C 140.949219 98.574219 140.949219 98.574219 140.644531 98.871094 C 140.449219 99.0625 140.253906 99.253906 140.050781 99.453125 C 139.457031 100.050781 139.457031 100.050781 138.890625 100.960938 C 139.046875 99.582031 139.519531 98.847656 140.449219 97.832031 C 140.65625 97.734375 140.863281 97.628906 141.070312 97.523438 Z M 141.070312 97.523438" stroke-linecap="round" /></g>		<g transform="matrix(1 0 0 1 156.16 -57.18)"><path style="stroke: none; stroke-width: 1; stroke-dasharray: none; stroke-linecap: butt; stroke-dashoffset: 0; stroke-linejoin: miter; stroke-miterlimit: 4; fill: rgb(243,249,250); fill-rule: nonzero; opacity: 1;" vector-effect="non-scaling-stroke" transform=" translate(-428.84, -82.68)" d="M 430.089844 81.269531 C 429.59375 82.605469 428.683594 83.226562 427.589844 84.082031 C 428 82.851562 428.605469 81.269531 430.089844 81.269531 Z M 430.089844 81.269531" stroke-linecap="round" /></g>		<g transform="matrix(1 0 0 1 -105.54 -70.93)"><path style="stroke: none; stroke-width: 1; stroke-dasharray: none; stroke-linecap: butt; stroke-dashoffset: 0; stroke-linejoin: miter; stroke-miterlimit: 4; fill: rgb(243,249,250); fill-rule: nonzero; opacity: 1;" vector-effect="non-scaling-stroke" transform=" translate(-167.14, -68.92)" d="M 167.917969 67.515625 C 168.121094 67.621094 168.328125 67.71875 168.542969 67.828125 C 167.714844 68.65625 166.890625 69.480469 166.042969 70.328125 C 165.9375 70.121094 165.835938 69.917969 165.730469 69.703125 C 167.210938 67.867188 167.210938 67.867188 167.917969 67.515625 Z M 167.917969 67.515625" stroke-linecap="round" /></g>		<g transform="matrix(1 0 0 1 114.81 -31.39)"><path style="stroke: none; stroke-width: 1; stroke-dasharray: none; stroke-linecap: butt; stroke-dashoffset: 0; stroke-linejoin: miter; stroke-miterlimit: 4; fill: rgb(243,249,250); fill-rule: nonzero; opacity: 1;" vector-effect="non-scaling-stroke" transform=" translate(-387.48, -108.46)" d="M 387.640625 107.214844 C 387.949219 107.3125 388.253906 107.417969 388.574219 107.523438 C 387.855469 108.25 387.136719 108.96875 386.390625 109.710938 C 386.390625 108.492188 386.859375 108.113281 387.640625 107.214844 Z M 387.640625 107.214844" stroke-linecap="round" /></g>		<g transform="matrix(1 0 0 1 0.42 -77.97)"><path style="stroke: none; stroke-width: 1; stroke-dasharray: none; stroke-linecap: butt; stroke-dashoffset: 0; stroke-linejoin: miter; stroke-miterlimit: 4; fill: rgb(243,249,250); fill-rule: nonzero; opacity: 1;" vector-effect="non-scaling-stroke" transform=" translate(-273.09, -61.89)" d="M 273.410156 60.953125 C 273.71875 61.058594 274.023438 61.15625 274.34375 61.265625 C 273.625 62.042969 273.625 62.042969 272.785156 62.824219 C 272.476562 62.824219 272.164062 62.824219 271.84375 62.824219 C 272.359375 62.210938 272.875 61.589844 273.410156 60.953125 Z M 273.410156 60.953125" stroke-linecap="round" /></g>		<g transform="matrix(1 0 0 1 -99.61 -41.08)"><path style="stroke: none; stroke-width: 1; stroke-dasharray: none; stroke-linecap: butt; stroke-dashoffset: 0; stroke-linejoin: miter; stroke-miterlimit: 4; fill: rgb(243,249,250); fill-rule: nonzero; opacity: 1;" vector-effect="non-scaling-stroke" transform=" translate(-173.06, -98.77)" d="M 173.53125 97.523438 C 173.742188 97.625 173.945312 97.730469 174.15625 97.832031 C 173.433594 98.558594 172.714844 99.277344 171.972656 100.023438 C 171.972656 99.085938 171.972656 99.085938 172.753906 98.242188 C 173.011719 98.003906 173.269531 97.765625 173.53125 97.523438 Z M 173.53125 97.523438" stroke-linecap="round" /></g>		<g transform="matrix(1 0 0 1 -28.76 -70.15)"><path style="stroke: none; stroke-width: 1; stroke-dasharray: none; stroke-linecap: butt; stroke-dashoffset: 0; stroke-linejoin: miter; stroke-miterlimit: 4; fill: rgb(243,249,250); fill-rule: nonzero; opacity: 1;" vector-effect="non-scaling-stroke" transform=" translate(-243.91, -69.71)" d="M 244.382812 68.453125 C 244.585938 68.558594 244.792969 68.660156 245.003906 68.765625 C 244.285156 69.488281 243.5625 70.207031 242.824219 70.957031 C 242.824219 70.015625 242.824219 70.015625 243.601562 69.179688 C 243.855469 68.9375 244.113281 68.699219 244.382812 68.453125 Z M 244.382812 68.453125" stroke-linecap="round" /></g></g></g></svg>