<svg width="18" height="18" viewBox="0 0 18 18" fill="none" xmlns="http://www.w3.org/2000/svg">
<g clip-path="url(#clip0_1809_9615)">
<path d="M17.25 16.5H3.75C3.15326 16.5 2.58097 16.2629 2.15901 15.841C1.73705 15.419 1.5 14.8467 1.5 14.25V0.75C1.5 0.551088 1.42098 0.360322 1.28033 0.21967C1.13968 0.0790176 0.948912 0 0.75 0C0.551088 0 0.360322 0.0790176 0.21967 0.21967C0.0790176 0.360322 0 0.551088 0 0.75L0 14.25C0.00119089 15.2442 0.396661 16.1973 1.09966 16.9003C1.80267 17.6033 2.7558 17.9988 3.75 18H17.25C17.4489 18 17.6397 17.921 17.7803 17.7803C17.921 17.6397 18 17.4489 18 17.25C18 17.0511 17.921 16.8603 17.7803 16.7197C17.6397 16.579 17.4489 16.5 17.25 16.5Z" fill="#00387C"/>
<path d="M4.5 15C4.69891 15 4.88968 14.921 5.03033 14.7803C5.17098 14.6397 5.25 14.4489 5.25 14.25V9C5.25 8.80109 5.17098 8.61032 5.03033 8.46967C4.88968 8.32902 4.69891 8.25 4.5 8.25C4.30109 8.25 4.11032 8.32902 3.96967 8.46967C3.82902 8.61032 3.75 8.80109 3.75 9V14.25C3.75 14.4489 3.82902 14.6397 3.96967 14.7803C4.11032 14.921 4.30109 15 4.5 15Z" fill="#00387C"/>
<path d="M7.5 7.5V14.25C7.5 14.4489 7.57902 14.6397 7.71967 14.7803C7.86032 14.921 8.05109 15 8.25 15C8.44892 15 8.63968 14.921 8.78034 14.7803C8.92099 14.6397 9.00001 14.4489 9.00001 14.25V7.5C9.00001 7.30109 8.92099 7.11032 8.78034 6.96967C8.63968 6.82902 8.44892 6.75 8.25 6.75C8.05109 6.75 7.86032 6.82902 7.71967 6.96967C7.57902 7.11032 7.5 7.30109 7.5 7.5Z" fill="#00387C"/>
<path d="M11.25 9.75V14.25C11.25 14.4489 11.329 14.6397 11.4697 14.7803C11.6103 14.921 11.8011 15 12 15C12.1989 15 12.3897 14.921 12.5303 14.7803C12.671 14.6397 12.75 14.4489 12.75 14.25V9.75C12.75 9.55109 12.671 9.36032 12.5303 9.21967C12.3897 9.07902 12.1989 9 12 9C11.8011 9 11.6103 9.07902 11.4697 9.21967C11.329 9.36032 11.25 9.55109 11.25 9.75Z" fill="#00387C"/>
<path d="M15 6.75V14.25C15 14.4489 15.079 14.6397 15.2197 14.7803C15.3603 14.921 15.5511 15 15.75 15C15.9489 15 16.1397 14.921 16.2803 14.7803C16.421 14.6397 16.5 14.4489 16.5 14.25V6.75C16.5 6.55109 16.421 6.36032 16.2803 6.21967C16.1397 6.07902 15.9489 6 15.75 6C15.5511 6 15.3603 6.07902 15.2197 6.21967C15.079 6.36032 15 6.55109 15 6.75Z" fill="#00387C"/>
<path d="M4.49984 6.7486C4.69874 6.74855 4.88947 6.66951 5.03009 6.52885L7.71959 3.83935C7.86254 3.70317 8.05241 3.6272 8.24984 3.6272C8.44727 3.6272 8.63714 3.70317 8.78009 3.83935L10.4091 5.46835C10.831 5.89016 11.4032 6.12712 11.9998 6.12712C12.5965 6.12712 13.1687 5.89016 13.5906 5.46835L17.7801 1.27885C17.9167 1.13739 17.9923 0.947943 17.9906 0.751296C17.9889 0.554648 17.91 0.366539 17.771 0.227482C17.6319 0.0884264 17.4438 0.00954967 17.2471 0.00784085C17.0505 0.00613204 16.861 0.0817278 16.7196 0.218346L12.5301 4.4071C12.3894 4.5477 12.1987 4.62669 11.9998 4.62669C11.801 4.62669 11.6102 4.5477 11.4696 4.4071L9.84059 2.77885C9.41865 2.35704 8.84646 2.12008 8.24984 2.12008C7.65322 2.12008 7.08103 2.35704 6.65909 2.77885L3.96959 5.46835C3.86473 5.57324 3.79333 5.70686 3.7644 5.85232C3.73548 5.99779 3.75033 6.14856 3.80708 6.28559C3.86383 6.42261 3.95994 6.53973 4.08325 6.62215C4.20655 6.70456 4.35153 6.74856 4.49984 6.7486Z" fill="#00387C"/>
</g>
<defs>
<clipPath id="clip0_1809_9615">
<rect width="18" height="18" fill="white"/>
</clipPath>
</defs>
</svg>
