<svg width="319" height="319" viewBox="0 0 319 319" fill="none" xmlns="http://www.w3.org/2000/svg">
<path d="M66.7098 64.841C84.5164 26.9119 147.768 32.2583 172.178 58.9331C196.587 85.6079 204.524 102.7 226.542 92.7471C248.559 82.7943 276.637 85.4484 278.22 117.1C279.802 148.751 254.059 186.157 213.093 197.226C172.127 208.295 172.158 247.475 117.967 239.57C88.421 235.257 87.7511 203.293 91.9236 176.855C96.0961 150.416 46.0514 108.825 66.7098 64.841Z" fill="#FFBD99"/>
<path opacity="0.9" d="M66.7098 64.841C84.5164 26.9119 147.768 32.2583 172.178 58.9331C196.587 85.6079 204.524 102.7 226.542 92.7471C248.559 82.7943 276.637 85.4484 278.22 117.1C279.802 148.751 254.059 186.157 213.093 197.226C172.127 208.295 172.158 247.475 117.967 239.57C88.421 235.257 87.7511 203.293 91.9236 176.855C96.0961 150.416 46.0514 108.825 66.7098 64.841Z" fill="white"/>
<path d="M159.501 272.784C227.819 272.784 283.202 269.551 283.202 265.562C283.202 261.573 227.819 258.34 159.501 258.34C91.182 258.34 35.7988 261.573 35.7988 265.562C35.7988 269.551 91.182 272.784 159.501 272.784Z" fill="#F5F5F5"/>
<path d="M209.02 75.5207V264.669C209.021 265.035 208.949 265.398 208.808 265.737C208.667 266.075 208.46 266.382 208.199 266.64C207.939 266.898 207.629 267.101 207.289 267.238C206.949 267.375 206.585 267.443 206.219 267.438H118.175C117.849 267.443 117.526 267.382 117.223 267.261C116.921 267.139 116.646 266.959 116.414 266.729C116.174 266.489 115.984 266.203 115.856 265.889C115.728 265.575 115.664 265.238 115.668 264.898V75.2847C115.645 74.6934 115.858 74.1174 116.26 73.6832C116.662 73.2489 117.22 72.992 117.811 72.9688H142.815C143.164 72.9754 143.503 73.0857 143.789 73.2857C144.075 73.4856 144.296 73.7661 144.422 74.0916L145.462 76.6436C145.589 76.9684 145.81 77.2481 146.096 77.4469C146.382 77.6458 146.721 77.7548 147.07 77.7601H177.694C178.041 77.7581 178.379 77.6525 178.665 77.457C178.952 77.2615 179.173 76.985 179.302 76.6628L180.342 74.1108C180.467 73.7841 180.687 73.5022 180.973 73.3011C181.26 73.0999 181.6 72.9887 181.949 72.9815H206.589C207.242 73.0126 207.859 73.2934 208.311 73.7659C208.764 74.2384 209.017 74.8666 209.02 75.5207Z" fill="#FFBD99"/>
<path opacity="0.6" d="M127.286 80.5898H128.588V78.8545H127.286V80.5898Z" fill="white"/>
<path opacity="0.6" d="M125.161 80.5898H126.463V78.2803H125.161V80.5898Z" fill="white"/>
<path opacity="0.6" d="M123.05 80.5898H124.352V77.6997H123.05V80.5898Z" fill="white"/>
<path opacity="0.6" d="M120.925 80.5898H122.227V77.1191H120.925V80.5898Z" fill="white"/>
<path opacity="0.6" d="M197.102 78.2227H196.33V79.958H197.102V78.2227Z" fill="white"/>
<path opacity="0.6" d="M197.639 80.5898H203.783V77.5912H197.639V80.5898Z" fill="white"/>
<g opacity="0.1">
<path d="M157.674 77.7587L130.789 178.41L130.489 179.545L130.004 181.364L129.698 182.493L115.662 235.051V171.443L141.954 72.9609H142.809C143.158 72.9668 143.498 73.0767 143.784 73.2768C144.071 73.4768 144.291 73.7578 144.417 74.0838L145.457 76.6358C145.583 76.9611 145.803 77.2412 146.09 77.4402C146.376 77.6392 146.716 77.7479 147.064 77.7523L157.674 77.7587Z" fill="white"/>
<path d="M209.022 129.164V192.773L192.268 255.552L191.859 257.077L189.09 267.438H172.113L174.876 257.083L175.322 255.424L177.536 247.105L177.983 245.44L178.876 242.116L179.316 240.45L180.203 237.126L180.643 235.461L194.616 183.132V183.126L195.26 180.714V180.708L209.022 129.164Z" fill="white"/>
<path d="M166.875 77.7599L140.175 177.786L140.009 178.385L138.548 183.866L138.388 184.465L116.428 266.729C116.188 266.489 115.999 266.203 115.87 265.889C115.742 265.574 115.678 265.238 115.682 264.898V255.2L134.573 184.44L134.732 183.84L136.193 178.36L136.353 177.76L163.06 77.7344L166.875 77.7599Z" fill="white"/>
</g>
<path opacity="0.3" d="M209.021 85.3008H115.682V259.06H209.021V85.3008Z" fill="white"/>
<path d="M191.06 161.656C191.923 161.656 192.751 161.314 193.361 160.703C193.971 160.093 194.314 159.266 194.314 158.403V107.076C194.313 106.214 193.969 105.388 193.359 104.779C192.749 104.17 191.922 103.828 191.06 103.828C190.199 103.828 189.372 104.17 188.762 104.779C188.152 105.388 187.808 106.214 187.807 107.076V158.403C187.807 159.266 188.149 160.093 188.76 160.703C189.37 161.314 190.197 161.656 191.06 161.656Z" fill="#FFBD99"/>
<path opacity="0.3" d="M191.062 160.38C190.537 160.38 190.034 160.172 189.663 159.801C189.292 159.43 189.084 158.927 189.084 158.403V107.075C189.084 106.551 189.292 106.048 189.663 105.677C190.034 105.306 190.537 105.098 191.062 105.098C191.586 105.098 192.089 105.306 192.46 105.677C192.831 106.048 193.04 106.551 193.04 107.075V158.403C193.04 158.927 192.831 159.43 192.46 159.801C192.089 160.172 191.586 160.38 191.062 160.38Z" fill="black"/>
<path d="M195.723 112.896C196.141 110.326 194.395 107.904 191.825 107.487C189.255 107.069 186.833 108.815 186.416 111.385C185.998 113.955 187.744 116.377 190.314 116.794C192.884 117.212 195.306 115.466 195.723 112.896Z" fill="#FFBD99"/>
<path d="M171.922 161.656C172.349 161.656 172.772 161.572 173.167 161.409C173.562 161.245 173.92 161.006 174.223 160.703C174.525 160.401 174.764 160.043 174.928 159.648C175.091 159.253 175.176 158.83 175.176 158.403V107.076C175.174 106.214 174.83 105.388 174.22 104.779C173.61 104.17 172.784 103.828 171.922 103.828C171.06 103.828 170.233 104.17 169.623 104.779C169.013 105.388 168.67 106.214 168.668 107.076V158.403C168.668 159.266 169.011 160.093 169.621 160.703C170.231 161.314 171.059 161.656 171.922 161.656Z" fill="#FFBD99"/>
<path opacity="0.3" d="M171.921 160.38C171.397 160.38 170.894 160.172 170.523 159.801C170.152 159.43 169.943 158.927 169.943 158.403V107.075C169.943 106.551 170.152 106.048 170.523 105.677C170.894 105.306 171.397 105.098 171.921 105.098C172.446 105.098 172.949 105.306 173.32 105.677C173.691 106.048 173.899 106.551 173.899 107.075V158.403C173.899 158.927 173.691 159.43 173.32 159.801C172.949 160.172 172.446 160.38 171.921 160.38Z" fill="black"/>
<path d="M176.581 151.173C176.998 148.603 175.253 146.181 172.682 145.764C170.112 145.347 167.69 147.092 167.273 149.662C166.856 152.233 168.601 154.655 171.171 155.072C173.742 155.489 176.164 153.744 176.581 151.173Z" fill="#FFBD99"/>
<path d="M152.781 161.656C153.644 161.656 154.472 161.314 155.082 160.703C155.692 160.093 156.035 159.266 156.035 158.403V107.076C156.033 106.214 155.69 105.388 155.08 104.779C154.47 104.17 153.643 103.828 152.781 103.828C151.919 103.828 151.093 104.17 150.483 104.779C149.873 105.388 149.529 106.214 149.527 107.076V158.403C149.527 159.266 149.87 160.093 150.48 160.703C151.091 161.314 151.918 161.656 152.781 161.656Z" fill="#FFBD99"/>
<path opacity="0.3" d="M152.781 160.38C152.256 160.38 151.753 160.172 151.382 159.801C151.011 159.43 150.803 158.927 150.803 158.403V107.075C150.803 106.551 151.011 106.048 151.382 105.677C151.753 105.306 152.256 105.098 152.781 105.098C153.305 105.098 153.808 105.306 154.179 105.677C154.55 106.048 154.758 106.551 154.758 107.075V158.403C154.758 158.927 154.55 159.43 154.179 159.801C153.808 160.172 153.305 160.38 152.781 160.38Z" fill="black"/>
<path d="M157.442 125.654C157.859 123.084 156.114 120.662 153.544 120.244C150.973 119.827 148.552 121.573 148.134 124.143C147.717 126.713 149.463 129.135 152.033 129.552C154.603 129.97 157.025 128.224 157.442 125.654Z" fill="#FFBD99"/>
<path d="M133.641 161.656C134.503 161.656 135.331 161.314 135.941 160.703C136.552 160.093 136.894 159.266 136.894 158.403V107.076C136.893 106.214 136.549 105.388 135.939 104.779C135.329 104.17 134.502 103.828 133.641 103.828C132.779 103.828 131.952 104.17 131.342 104.779C130.732 105.388 130.388 106.214 130.387 107.076V158.403C130.387 159.266 130.73 160.093 131.34 160.703C131.95 161.314 132.778 161.656 133.641 161.656Z" fill="#FFBD99"/>
<path opacity="0.3" d="M133.642 160.38C133.117 160.38 132.614 160.172 132.243 159.801C131.872 159.43 131.664 158.927 131.664 158.403V107.075C131.664 106.551 131.872 106.048 132.243 105.677C132.614 105.306 133.117 105.098 133.642 105.098C134.166 105.098 134.669 105.306 135.04 105.677C135.411 106.048 135.62 106.551 135.62 107.075V158.403C135.62 158.927 135.411 159.43 135.04 159.801C134.669 160.172 134.166 160.38 133.642 160.38Z" fill="black"/>
<path d="M138.298 144.794C138.715 142.224 136.969 139.802 134.399 139.385C131.829 138.968 129.407 140.713 128.99 143.284C128.573 145.854 130.318 148.276 132.888 148.693C135.459 149.11 137.88 147.365 138.298 144.794Z" fill="#FFBD99"/>
<path opacity="0.6" d="M195.723 112.896C196.141 110.326 194.395 107.904 191.825 107.487C189.255 107.069 186.833 108.815 186.416 111.385C185.998 113.955 187.744 116.377 190.314 116.794C192.884 117.212 195.306 115.466 195.723 112.896Z" fill="white"/>
<path opacity="0.6" d="M191.062 115.573C190.382 115.573 189.717 115.371 189.151 114.993C188.586 114.616 188.145 114.078 187.885 113.45C187.625 112.822 187.556 112.13 187.689 111.463C187.822 110.796 188.149 110.183 188.63 109.703C189.111 109.222 189.724 108.894 190.391 108.761C191.058 108.629 191.749 108.697 192.378 108.957C193.006 109.217 193.543 109.658 193.921 110.224C194.299 110.789 194.501 111.454 194.501 112.134C194.499 113.046 194.136 113.919 193.492 114.564C192.847 115.208 191.973 115.571 191.062 115.573Z" fill="white"/>
<path opacity="0.6" d="M176.581 151.173C176.998 148.603 175.253 146.181 172.682 145.764C170.112 145.347 167.69 147.092 167.273 149.662C166.856 152.233 168.601 154.655 171.171 155.072C173.742 155.489 176.164 153.744 176.581 151.173Z" fill="white"/>
<path opacity="0.6" d="M171.921 153.854C171.241 153.854 170.576 153.653 170.011 153.275C169.445 152.897 169.004 152.36 168.744 151.731C168.484 151.103 168.416 150.412 168.548 149.745C168.681 149.077 169.009 148.465 169.49 147.984C169.971 147.503 170.583 147.175 171.25 147.043C171.917 146.91 172.609 146.978 173.237 147.238C173.866 147.499 174.403 147.939 174.781 148.505C175.158 149.07 175.36 149.735 175.36 150.415C175.358 151.327 174.996 152.201 174.351 152.845C173.706 153.49 172.833 153.853 171.921 153.854Z" fill="white"/>
<path opacity="0.6" d="M157.442 125.654C157.859 123.084 156.114 120.662 153.544 120.244C150.973 119.827 148.552 121.573 148.134 124.143C147.717 126.713 149.463 129.135 152.033 129.552C154.603 129.97 157.025 128.224 157.442 125.654Z" fill="white"/>
<path opacity="0.6" d="M152.781 128.335C152.1 128.335 151.436 128.133 150.87 127.755C150.305 127.377 149.864 126.84 149.604 126.212C149.343 125.583 149.275 124.892 149.408 124.225C149.541 123.558 149.868 122.945 150.349 122.464C150.83 121.983 151.443 121.656 152.11 121.523C152.777 121.39 153.468 121.459 154.097 121.719C154.725 121.979 155.262 122.42 155.64 122.985C156.018 123.551 156.219 124.216 156.219 124.896C156.218 125.807 155.855 126.681 155.21 127.326C154.566 127.97 153.692 128.333 152.781 128.335Z" fill="white"/>
<path opacity="0.6" d="M138.298 144.794C138.715 142.224 136.969 139.802 134.399 139.385C131.829 138.968 129.407 140.713 128.99 143.284C128.573 145.854 130.318 148.276 132.888 148.693C135.459 149.11 137.88 147.365 138.298 144.794Z" fill="white"/>
<path opacity="0.6" d="M133.64 147.471C132.96 147.471 132.295 147.27 131.729 146.892C131.164 146.514 130.723 145.977 130.463 145.349C130.203 144.72 130.135 144.029 130.267 143.362C130.4 142.695 130.727 142.082 131.208 141.601C131.689 141.12 132.302 140.793 132.969 140.66C133.636 140.527 134.328 140.595 134.956 140.856C135.584 141.116 136.121 141.557 136.499 142.122C136.877 142.688 137.079 143.352 137.079 144.033C137.077 144.944 136.714 145.818 136.07 146.462C135.425 147.107 134.552 147.47 133.64 147.471Z" fill="white"/>
<path d="M202.755 173.254H121.946C120.977 173.254 120.191 174.039 120.191 175.008V250.484C120.191 251.453 120.977 252.238 121.946 252.238H202.755C203.724 252.238 204.509 251.453 204.509 250.484V175.008C204.509 174.039 203.724 173.254 202.755 173.254Z" fill="#FFBD99"/>
<path opacity="0.3" d="M202.755 173.254H121.946C120.977 173.254 120.191 174.039 120.191 175.008V250.484C120.191 251.453 120.977 252.238 121.946 252.238H202.755C203.724 252.238 204.509 251.453 204.509 250.484V175.008C204.509 174.039 203.724 173.254 202.755 173.254Z" fill="black"/>
<path opacity="0.6" d="M154.746 224.453V231.241L158.223 231.592C158.686 233.826 159.57 235.953 160.826 237.857L158.58 240.575L163.385 245.373L166.096 243.127C168.002 244.387 170.131 245.272 172.368 245.737L172.693 249.233H179.488L179.813 245.737C182.05 245.272 184.179 244.387 186.085 243.127L188.796 245.373L193.6 240.575L191.399 237.838C192.655 235.932 193.54 233.807 194.009 231.573L197.505 231.241V224.453L194.009 224.121C193.54 221.885 192.655 219.758 191.399 217.85L193.645 215.138L188.847 210.334L186.136 212.58C184.228 211.325 182.1 210.442 179.864 209.977L179.539 206.48H172.712L172.387 209.977C170.151 210.442 168.023 211.325 166.115 212.58L163.404 210.334L158.6 215.138L160.845 217.85C159.589 219.758 158.704 221.885 158.236 224.121L154.746 224.453ZM176.087 218.653C177.906 218.653 179.683 219.193 181.195 220.203C182.707 221.213 183.885 222.649 184.581 224.329C185.277 226.009 185.459 227.857 185.104 229.641C184.749 231.424 183.874 233.062 182.588 234.348C181.302 235.634 179.664 236.509 177.881 236.864C176.097 237.219 174.249 237.037 172.569 236.341C170.889 235.645 169.453 234.467 168.443 232.955C167.433 231.443 166.894 229.665 166.894 227.847C166.894 226.64 167.131 225.444 167.593 224.329C168.055 223.213 168.733 222.2 169.586 221.346C170.44 220.493 171.454 219.815 172.569 219.353C173.684 218.891 174.88 218.653 176.087 218.653Z" fill="white"/>
<path opacity="0.4" d="M127.223 204.958V210.279L129.966 210.534C130.328 212.286 131.021 213.954 132.008 215.446L130.247 217.558L134.011 221.316L136.136 219.555C137.629 220.542 139.296 221.236 141.048 221.603L141.31 224.34H146.631L146.886 221.603C148.638 221.238 150.305 220.543 151.798 219.555L153.923 221.316L157.687 217.558L155.926 215.427C156.915 213.935 157.61 212.267 157.974 210.515L160.711 210.26V204.939L157.974 204.677C157.608 202.925 156.913 201.258 155.926 199.764L157.687 197.64L153.923 193.876L151.798 195.637C150.304 194.654 148.637 193.961 146.886 193.595L146.631 190.852H141.31L141.048 193.595C139.297 193.962 137.631 194.655 136.136 195.637L134.011 193.876L130.247 197.64L132.008 199.764C131.023 201.258 130.33 202.925 129.966 204.677L127.223 204.958ZM143.97 200.415C145.395 200.415 146.787 200.838 147.972 201.629C149.156 202.421 150.08 203.546 150.625 204.862C151.17 206.178 151.313 207.626 151.035 209.023C150.757 210.421 150.071 211.704 149.063 212.711C148.056 213.719 146.773 214.405 145.375 214.683C143.978 214.961 142.53 214.818 141.214 214.273C139.898 213.728 138.773 212.805 137.981 211.62C137.19 210.435 136.767 209.043 136.767 207.618C136.767 205.708 137.526 203.876 138.877 202.525C140.228 201.174 142.06 200.415 143.97 200.415Z" fill="white"/>
<path opacity="0.2" d="M156.896 188.528V192.994L159.2 193.211C159.509 194.682 160.091 196.082 160.916 197.339L159.436 199.119L162.626 202.309L164.406 200.828C165.663 201.653 167.063 202.235 168.534 202.545L168.751 204.848H173.217L173.433 202.545C174.905 202.236 176.305 201.654 177.561 200.828L179.348 202.309L182.506 199.119L181.026 197.339C181.85 196.082 182.432 194.682 182.742 193.211L185.045 192.994V188.528L182.742 188.311C182.433 186.84 181.851 185.439 181.026 184.183L182.506 182.397L179.348 179.238L177.561 180.719C176.308 179.888 174.906 179.305 173.433 179.002L173.217 176.699H168.751L168.534 179.002C167.061 179.306 165.66 179.889 164.406 180.719L162.626 179.238L159.436 182.397L160.916 184.183C160.09 185.439 159.508 186.84 159.2 188.311L156.896 188.528ZM170.964 184.7C172.162 184.7 173.333 185.055 174.329 185.721C175.325 186.386 176.101 187.332 176.559 188.439C177.017 189.546 177.136 190.763 176.902 191.938C176.668 193.113 176.091 194.191 175.243 195.038C174.396 195.884 173.317 196.461 172.142 196.693C170.967 196.926 169.749 196.806 168.643 196.346C167.537 195.887 166.592 195.11 165.927 194.113C165.263 193.117 164.909 191.946 164.91 190.748C164.912 189.953 165.071 189.166 165.378 188.432C165.685 187.699 166.133 187.033 166.697 186.472C167.261 185.912 167.93 185.468 168.665 185.166C169.401 184.864 170.188 184.71 170.984 184.712L170.964 184.7Z" fill="white"/>
<path opacity="0.6" d="M149.093 206.24L145.341 202.488L140.218 203.866L138.84 208.99L142.591 212.741L147.721 211.369L149.093 206.24Z" fill="white"/>
<path opacity="0.8" d="M176.935 221.328L170.874 223.867L170.051 230.388L175.282 234.369L181.343 231.823L182.173 225.303L176.935 221.328Z" fill="white"/>
<path opacity="0.4" d="M174.728 192.937V188.586L170.964 186.41L167.193 188.586V192.937L170.964 195.112L174.728 192.937Z" fill="white"/>
</svg>
