<svg width="17" height="16" viewBox="0 0 17 16" fill="none" xmlns="http://www.w3.org/2000/svg">
<g clip-path="url(#clip0_1155_131731)">
<path d="M6.5 15.9974H1.16667C0.989856 15.9974 0.820286 15.9271 0.695262 15.8021C0.570238 15.6771 0.5 15.5075 0.5 15.3307C0.5 15.1539 0.570238 14.9843 0.695262 14.8593C0.820286 14.7343 0.989856 14.6641 1.16667 14.6641H6.5C6.67681 14.6641 6.84638 14.7343 6.9714 14.8593C7.09643 14.9843 7.16667 15.1539 7.16667 15.3307C7.16667 15.5075 7.09643 15.6771 6.9714 15.8021C6.84638 15.9271 6.67681 15.9974 6.5 15.9974Z" fill="#6C757D"/>
<path d="M5.16667 13.3333H1.16667C0.989856 13.3333 0.820286 13.2631 0.695262 13.1381C0.570238 13.0131 0.5 12.8435 0.5 12.6667C0.5 12.4899 0.570238 12.3203 0.695262 12.1953C0.820286 12.0702 0.989856 12 1.16667 12H5.16667C5.34348 12 5.51305 12.0702 5.63807 12.1953C5.7631 12.3203 5.83333 12.4899 5.83333 12.6667C5.83333 12.8435 5.7631 13.0131 5.63807 13.1381C5.51305 13.2631 5.34348 13.3333 5.16667 13.3333Z" fill="#6C757D"/>
<path d="M3.83333 10.6693H1.16667C0.989856 10.6693 0.820286 10.599 0.695262 10.474C0.570238 10.349 0.5 10.1794 0.5 10.0026C0.5 9.8258 0.570238 9.65623 0.695262 9.5312C0.820286 9.40618 0.989856 9.33594 1.16667 9.33594H3.83333C4.01014 9.33594 4.17971 9.40618 4.30474 9.5312C4.42976 9.65623 4.5 9.8258 4.5 10.0026C4.5 10.1794 4.42976 10.349 4.30474 10.474C4.17971 10.599 4.01014 10.6693 3.83333 10.6693Z" fill="#6C757D"/>
<path d="M9.16599 15.9667C8.98918 15.9745 8.81649 15.9118 8.6859 15.7924C8.55531 15.6729 8.47753 15.5065 8.46966 15.3297C8.46179 15.1528 8.52448 14.9802 8.64395 14.8496C8.76341 14.719 8.92985 14.6412 9.10666 14.6333C10.3683 14.5179 11.5709 14.0453 12.5737 13.271C13.5764 12.4967 14.3378 11.4528 14.7686 10.2613C15.1994 9.06992 15.2818 7.78042 15.0062 6.54386C14.7305 5.30731 14.1082 4.17489 13.2122 3.27926C12.3161 2.38363 11.1834 1.76185 9.94674 1.48677C8.71005 1.21169 7.42059 1.29468 6.22938 1.72603C5.03816 2.15738 3.99452 2.91923 3.22068 3.92234C2.44685 4.92545 1.97486 6.1283 1.86 7.38999C1.84409 7.56609 1.75887 7.72866 1.6231 7.84194C1.48732 7.95521 1.31211 8.0099 1.136 7.99399C0.9599 7.97808 0.79733 7.89286 0.684059 7.75708C0.570787 7.62131 0.516091 7.44609 0.532004 7.26999C0.71793 5.21886 1.68774 3.31846 3.23955 1.96437C4.79137 0.610279 6.80562 -0.0931652 8.86303 0.000466538C10.9204 0.0940983 12.8625 0.977592 14.2849 2.46704C15.7073 3.95648 16.5005 5.93712 16.4993 7.99666C16.5095 9.99555 15.7669 11.925 14.4193 13.4013C13.0716 14.8776 11.2175 15.7925 9.22599 15.964C9.20599 15.966 9.18533 15.9667 9.16599 15.9667Z" fill="#6C757D"/>
<path d="M8.50065 4C8.32384 4 8.15427 4.07024 8.02925 4.19526C7.90422 4.32029 7.83398 4.48986 7.83398 4.66667V8C7.83402 8.1768 7.90428 8.34634 8.02932 8.47133L10.0293 10.4713C10.1551 10.5928 10.3235 10.66 10.4983 10.6584C10.673 10.6569 10.8403 10.5868 10.9639 10.4632C11.0875 10.3396 11.1576 10.1724 11.1591 9.9976C11.1606 9.8228 11.0934 9.6544 10.972 9.52867L9.16732 7.724V4.66667C9.16732 4.48986 9.09708 4.32029 8.97206 4.19526C8.84703 4.07024 8.67746 4 8.50065 4Z" fill="#6C757D"/>
</g>
<defs>
<clipPath id="clip0_1155_131731">
<rect width="16" height="16" fill="white" transform="translate(0.5)"/>
</clipPath>
</defs>
</svg>
