<svg width="16" height="16" viewBox="0 0 16 16" fill="none" xmlns="http://www.w3.org/2000/svg">
<g clip-path="url(#clip0_1155_131701)">
<path d="M11.334 9.33335C11.334 9.51016 11.2637 9.67973 11.1387 9.80475C11.0137 9.92978 10.8441 10 10.6673 10H5.33398C5.15717 10 4.9876 9.92978 4.86258 9.80475C4.73756 9.67973 4.66732 9.51016 4.66732 9.33335C4.66732 9.15654 4.73756 8.98697 4.86258 8.86194C4.9876 8.73692 5.15717 8.66668 5.33398 8.66668H10.6673C10.8441 8.66668 11.0137 8.73692 11.1387 8.86194C11.2637 8.98697 11.334 9.15654 11.334 9.33335ZM8.66732 11.3333H5.33398C5.15717 11.3333 4.9876 11.4036 4.86258 11.5286C4.73756 11.6536 4.66732 11.8232 4.66732 12C4.66732 12.1768 4.73756 12.3464 4.86258 12.4714C4.9876 12.5964 5.15717 12.6667 5.33398 12.6667H8.66732C8.84413 12.6667 9.0137 12.5964 9.13872 12.4714C9.26375 12.3464 9.33398 12.1768 9.33398 12C9.33398 11.8232 9.26375 11.6536 9.13872 11.5286C9.0137 11.4036 8.84413 11.3333 8.66732 11.3333ZM14.6673 6.99002V12.6667C14.6663 13.5504 14.3147 14.3976 13.6898 15.0225C13.0649 15.6474 12.2177 15.999 11.334 16H4.66732C3.78359 15.999 2.93636 15.6474 2.31146 15.0225C1.68657 14.3976 1.33504 13.5504 1.33398 12.6667V3.33335C1.33504 2.44962 1.68657 1.60239 2.31146 0.977495C2.93636 0.352603 3.78359 0.00107394 4.66732 1.53658e-05H7.67732C8.2904 -0.00156258 8.89771 0.118407 9.46413 0.352988C10.0306 0.587569 10.5449 0.932107 10.9773 1.36668L13.3 3.69068C13.7348 4.12284 14.0796 4.63699 14.3143 5.20333C14.549 5.76968 14.669 6.37696 14.6673 6.99002ZM10.0347 2.30935C9.82484 2.10612 9.58927 1.9313 9.33398 1.78935V4.66668C9.33398 4.84349 9.40422 5.01306 9.52925 5.13809C9.65427 5.26311 9.82384 5.33335 10.0007 5.33335H12.878C12.736 5.07814 12.5609 4.84278 12.3573 4.63335L10.0347 2.30935ZM13.334 6.99002C13.334 6.88002 13.3127 6.77468 13.3027 6.66668H10.0007C9.47022 6.66668 8.96151 6.45597 8.58644 6.0809C8.21136 5.70582 8.00065 5.19711 8.00065 4.66668V1.36468C7.89265 1.35468 7.78665 1.33335 7.67732 1.33335H4.66732C4.13688 1.33335 3.62818 1.54406 3.2531 1.91914C2.87803 2.29421 2.66732 2.80292 2.66732 3.33335V12.6667C2.66732 13.1971 2.87803 13.7058 3.2531 14.0809C3.62818 14.456 4.13688 14.6667 4.66732 14.6667H11.334C11.8644 14.6667 12.3731 14.456 12.7482 14.0809C13.1233 13.7058 13.334 13.1971 13.334 12.6667V6.99002Z" fill="#6C757D"/>
</g>
<defs>
<clipPath id="clip0_1155_131701">
<rect width="16" height="16" fill="white"/>
</clipPath>
</defs>
</svg>
