<svg width="24" height="24" viewBox="0 0 24 24" fill="none" xmlns="http://www.w3.org/2000/svg">
<g clip-path="url(#clip0_1400_139233)">
<path d="M1.32719 12.3975L4.88719 14.9975L3.53519 19.1845C3.3167 19.8339 3.31394 20.5365 3.5273 21.1876C3.74067 21.8387 4.15874 22.4034 4.71919 22.7975C5.27005 23.2043 5.93759 23.4222 6.62235 23.4188C7.30711 23.4154 7.97244 23.1908 8.51919 22.7785L12.0002 20.2165L15.4822 22.7755C16.032 23.18 16.696 23.3996 17.3786 23.403C18.0611 23.4063 18.7272 23.1931 19.281 22.794C19.8347 22.395 20.2477 21.8306 20.4605 21.182C20.6733 20.5334 20.6749 19.8341 20.4652 19.1845L19.1132 14.9975L22.6732 12.3975C23.2223 11.996 23.6306 11.4313 23.8395 10.7839C24.0485 10.1365 24.0476 9.4397 23.8369 8.7929C23.6262 8.1461 23.2164 7.58244 22.6662 7.18242C22.116 6.7824 21.4535 6.56648 20.7732 6.56551H16.4002L15.0732 2.42951C14.8645 1.77847 14.4545 1.21053 13.9022 0.807578C13.3499 0.40463 12.6839 0.1875 12.0002 0.1875C11.3165 0.1875 10.6505 0.40463 10.0982 0.807578C9.54593 1.21053 9.13587 1.77847 8.92719 2.42951L7.60019 6.56551H3.23119C2.55094 6.56648 1.88838 6.7824 1.33817 7.18242C0.787961 7.58244 0.378234 8.1461 0.167514 8.7929C-0.043205 9.4397 -0.0441377 10.1365 0.16485 10.7839C0.373837 11.4313 0.782054 11.996 1.33119 12.3975H1.32719Z" fill="#F1BE09"/>
</g>
<defs>
<clipPath id="clip0_1400_139233">
<rect width="24" height="24" fill="white"/>
</clipPath>
</defs>
</svg>
