<svg width="238" height="190" viewBox="0 0 238 190" fill="none" xmlns="http://www.w3.org/2000/svg">
<path d="M204.941 142.833L162.275 126.731C161.574 126.466 160.932 126.067 160.386 125.554C159.84 125.042 159.401 124.427 159.093 123.745C158.785 123.063 158.615 122.328 158.592 121.58C158.57 120.832 158.695 120.088 158.961 119.388L181.288 60.4475C181.823 59.0345 182.899 57.8916 184.279 57.2701C185.658 56.6486 187.229 56.5994 188.644 57.1334L215.706 67.3452L228.483 96.798L212.297 139.543C211.757 140.951 210.68 142.089 209.301 142.706C207.922 143.323 206.354 143.369 204.941 142.833Z" fill="#F5F5F5"/>
<path d="M215.705 67.3438L209.417 83.9322C209.17 84.5831 209.053 85.2762 209.075 85.9719C209.096 86.6676 209.255 87.3523 209.541 87.9868C209.828 88.6214 210.237 89.1934 210.745 89.6701C211.253 90.1469 211.85 90.5191 212.502 90.7654L228.482 96.7965L215.705 67.3438Z" fill="#EBEBEB"/>
<path d="M209.084 85.4766C209.084 85.4766 207.353 89.4231 211.43 92.5031C211.584 92.6179 211.745 92.7235 211.911 92.8193C213.859 93.9903 226.671 101.602 226.788 101.292L228.478 96.8302L212.498 90.7991C212.498 90.7991 208.567 89.1303 209.084 85.4766Z" fill="#E0E0E0"/>
<path d="M206.097 81.9074C206.015 82.1241 201.533 80.6251 196.083 78.5698C190.633 76.5146 186.28 74.6701 186.362 74.4711C186.445 74.272 190.926 75.7534 196.376 77.8086C201.826 79.8639 206.179 81.6791 206.097 81.9074Z" fill="#E0E0E0"/>
<path d="M215.289 96.1002C215.207 96.311 207.874 93.7581 198.905 90.3561C189.935 86.9541 182.725 84.0498 182.807 83.8331C182.889 83.6165 190.222 86.1753 199.198 89.5831C208.173 92.991 215.354 95.8836 215.289 96.1002Z" fill="#E0E0E0"/>
<path d="M215.248 105.035C215.166 105.246 207.176 102.43 197.396 98.7348C187.617 95.0401 179.756 91.8781 179.839 91.6674C179.921 91.4566 187.911 94.273 197.69 97.9678C207.469 101.663 215.353 104.819 215.248 105.035Z" fill="#E0E0E0"/>
<path d="M212.451 112.424C212.369 112.634 204.379 109.818 194.6 106.123C184.82 102.429 176.96 99.2431 177.042 99.0558C177.124 98.8684 185.114 101.661 194.893 105.35C204.672 109.039 212.533 112.207 212.451 112.424Z" fill="#E0E0E0"/>
<path d="M209.652 119.817C209.57 120.027 201.574 117.211 191.801 113.516C182.027 109.821 174.161 106.659 174.237 106.449C174.313 106.238 182.309 109.054 192.094 112.743C201.879 116.432 209.728 119.6 209.652 119.817Z" fill="#E0E0E0"/>
<path d="M206.847 127.207C206.771 127.418 198.775 124.596 189.002 120.907C179.229 117.218 171.356 114.05 171.438 113.839C171.52 113.628 179.51 116.445 189.289 120.134C199.069 123.823 206.929 126.991 206.847 127.207Z" fill="#E0E0E0"/>
<path d="M62.692 81.6397L6.44514 101.3C4.50037 101.98 3.47593 104.105 4.15697 106.046L32.3778 186.482C33.0588 188.423 35.1875 189.446 37.1322 188.766L93.3791 169.105C95.3239 168.425 96.3483 166.301 95.6673 164.36L67.4465 83.9236C66.7654 81.9824 64.6368 80.9599 62.692 81.6397Z" fill="#EBEBEB"/>
<path d="M63.4126 86.6459L9.00391 105.664L36.9746 185.387L91.3833 166.369L63.4126 86.6459Z" fill="#E0E0E0"/>
<path d="M62.4399 86.2709L8.03125 105.289L35.4687 183.492L89.8774 164.474L62.4399 86.2709Z" fill="#FAFAFA"/>
<path d="M89.8667 164.469L62.3595 86.2929L62.4592 86.3398L8.06066 105.364L8.11346 105.259C18.3678 134.629 27.9123 161.758 35.5327 183.464L35.4447 183.423L89.8726 164.469L35.4858 183.563H35.4213V183.499C27.795 161.793 18.2798 134.665 7.9668 105.3V105.218H8.04306L62.4475 86.2109H62.5237V86.2812L89.8667 164.469Z" fill="#E0E0E0"/>
<path d="M70.5723 171.212C70.5723 171.212 82.6862 161.012 84.7864 150.391C83.5708 152.074 82.0262 153.495 80.2457 154.567C78.4651 155.638 76.4856 156.339 74.4265 156.627C74.4265 156.627 74.1859 167.752 70.5723 171.212Z" fill="#E0E0E0"/>
<path d="M26.6251 122.713L23.7627 123.713C22.7169 124.079 22.166 125.221 22.5322 126.265L23.5347 129.122C23.9009 130.166 25.0455 130.716 26.0913 130.35L28.9538 129.35C29.9995 128.984 30.5504 127.842 30.1842 126.798L29.1818 123.941C28.8155 122.897 27.6709 122.347 26.6251 122.713Z" fill="#EBEBEB"/>
<path d="M26.2753 127.632C26.2553 127.642 26.2332 127.647 26.2107 127.647C26.1883 127.647 26.1662 127.642 26.1462 127.632L24.8322 126.871C24.8003 126.846 24.7785 126.811 24.7707 126.772C24.7629 126.733 24.7698 126.692 24.79 126.658C24.8101 126.623 24.8422 126.597 24.8803 126.585C24.9183 126.572 24.9596 126.574 24.9964 126.59L26.1697 127.257L27.5541 124.329C27.5743 124.29 27.6084 124.26 27.6496 124.245C27.6909 124.23 27.7364 124.231 27.7771 124.247C27.7969 124.257 27.8147 124.27 27.8293 124.286C27.844 124.303 27.8552 124.322 27.8623 124.343C27.8694 124.363 27.8723 124.385 27.8707 124.407C27.8692 124.429 27.8633 124.45 27.8533 124.47L26.3926 127.585C26.3775 127.601 26.3593 127.613 26.339 127.621C26.3188 127.629 26.297 127.633 26.2753 127.632Z" fill="white"/>
<path d="M63.8442 110.602C63.8442 110.649 56.8046 113.161 48.0696 116.212C39.3346 119.262 32.2305 121.698 32.2305 121.657C32.2305 121.616 39.2701 119.098 48.0109 116.048C56.7518 112.997 63.8324 110.561 63.8442 110.602Z" fill="#E0E0E0"/>
<path d="M47.254 121.859C47.254 121.859 47.0722 121.941 46.7437 122.07L45.324 122.597C44.1508 123.03 42.4613 123.622 40.631 124.266C38.8007 124.91 37.1112 125.484 35.9379 125.888L34.5006 126.362C34.3267 126.426 34.1482 126.477 33.9668 126.514C34.1308 126.429 34.3015 126.356 34.4772 126.298L35.8968 125.777C37.0701 125.337 38.7596 124.746 40.5899 124.102C42.4202 123.458 44.1097 122.89 45.283 122.48L46.7202 122.006C46.8936 121.942 47.0722 121.893 47.254 121.859Z" fill="#E0E0E0"/>
<path d="M64.5883 112.758C64.5883 112.799 57.5487 115.311 48.8079 118.362C40.067 121.413 32.9688 123.854 32.9688 123.808C32.9688 123.761 40.0084 121.255 48.7551 118.204C57.5018 115.153 64.5883 112.712 64.5883 112.758Z" fill="#E0E0E0"/>
<path d="M30.7111 134.361L27.8486 135.362C26.8028 135.727 26.252 136.87 26.6182 137.913L27.6206 140.771C27.9868 141.814 29.1315 142.364 30.1772 141.999L33.0397 140.998C34.0855 140.633 34.6363 139.49 34.2701 138.446L33.2677 135.589C32.9015 134.545 31.7568 133.995 30.7111 134.361Z" fill="#EBEBEB"/>
<path d="M30.3656 139.286C30.3446 139.296 30.3215 139.301 30.2982 139.301C30.2748 139.301 30.2517 139.296 30.2307 139.286L28.9225 138.525C28.9035 138.514 28.8869 138.5 28.8736 138.483C28.8603 138.466 28.8506 138.447 28.8451 138.426C28.8396 138.405 28.8384 138.383 28.8416 138.362C28.8449 138.341 28.8524 138.32 28.8638 138.302C28.8742 138.283 28.8882 138.267 28.9052 138.253C28.9222 138.24 28.9418 138.23 28.9626 138.225C28.9835 138.219 29.0053 138.218 29.0266 138.221C29.048 138.225 29.0684 138.232 29.0868 138.244L30.26 138.911L31.6445 135.954C31.6635 135.915 31.6965 135.886 31.7368 135.87C31.7771 135.855 31.8217 135.856 31.8615 135.872C31.9012 135.89 31.9321 135.923 31.9475 135.963C31.9629 136.004 31.9615 136.049 31.9437 136.089L30.4829 139.21C30.4699 139.23 30.4527 139.247 30.4325 139.26C30.4123 139.273 30.3895 139.282 30.3656 139.286Z" fill="white"/>
<path d="M67.9321 122.258C67.9321 122.305 60.8925 124.811 52.1516 127.868C43.4108 130.924 36.3125 133.354 36.3125 133.313C36.3125 133.272 43.3521 130.755 52.0929 127.704C60.8338 124.653 67.9203 122.217 67.9321 122.258Z" fill="#E0E0E0"/>
<path d="M51.3419 133.508C51.3419 133.508 51.1601 133.59 50.8257 133.719L49.4119 134.246C48.2386 134.679 46.5491 135.27 44.7188 135.914C42.8885 136.558 41.199 137.132 40.0258 137.536L38.5885 138.011C38.4145 138.074 38.2361 138.125 38.0547 138.163C38.218 138.076 38.3888 138.003 38.5651 137.946L39.9847 137.425C41.158 136.986 42.8475 136.395 44.6778 135.75C46.5081 135.106 48.1976 134.538 49.3709 134.128L50.8081 133.654C50.9815 133.59 51.1601 133.541 51.3419 133.508Z" fill="#E0E0E0"/>
<path d="M68.6957 124.423C68.6957 124.464 61.6561 126.976 52.9153 130.027C44.1744 133.077 37.0762 135.519 37.0762 135.472C37.0762 135.425 44.1158 132.919 52.8566 129.868C61.5975 126.818 68.6957 124.364 68.6957 124.423Z" fill="#E0E0E0"/>
<path d="M34.8029 146.009L31.9404 147.01C30.8946 147.376 30.3438 148.518 30.71 149.562L31.7124 152.419C32.0786 153.463 33.2233 154.013 34.269 153.647L37.1315 152.647C38.1773 152.281 38.7281 151.139 38.3619 150.095L37.3595 147.238C36.9933 146.194 35.8486 145.644 34.8029 146.009Z" fill="#EBEBEB"/>
<path d="M34.453 150.939C34.432 150.949 34.4089 150.955 34.3855 150.955C34.3621 150.955 34.339 150.949 34.318 150.939L33.004 150.189C32.9826 150.18 32.9633 150.167 32.9476 150.149C32.9318 150.132 32.9199 150.112 32.9126 150.09C32.9053 150.068 32.9028 150.045 32.9052 150.021C32.9076 149.998 32.9149 149.976 32.9267 149.956C32.9384 149.936 32.9543 149.919 32.9732 149.905C32.9922 149.892 33.0138 149.882 33.0367 149.878C33.0595 149.873 33.0831 149.874 33.1057 149.879C33.1284 149.884 33.1497 149.894 33.1682 149.908L34.3415 150.576L35.726 147.619C35.7342 147.598 35.7465 147.58 35.7621 147.564C35.7778 147.548 35.7965 147.536 35.817 147.528C35.8376 147.519 35.8596 147.515 35.8818 147.516C35.904 147.516 35.9258 147.521 35.946 147.53C35.9662 147.539 35.9844 147.552 35.9994 147.569C36.0144 147.585 36.026 147.604 36.0334 147.625C36.0408 147.646 36.0438 147.668 36.0424 147.69C36.041 147.712 36.0351 147.734 36.0251 147.753L34.5644 150.874C34.5357 150.908 34.4964 150.931 34.453 150.939Z" fill="white"/>
<path d="M72.0219 133.907C72.0219 133.954 64.9823 136.46 56.2415 139.516C47.5006 142.573 40.4023 145.003 40.4023 144.956C40.4023 144.909 47.4419 142.403 56.1887 139.352C64.9354 136.302 72.0043 133.866 72.0219 133.907Z" fill="#E0E0E0"/>
<path d="M55.4318 145.156C55.2653 145.241 55.0927 145.313 54.9155 145.373L53.4959 145.9C52.3226 146.333 50.639 146.925 48.8028 147.569C46.9667 148.213 45.283 148.781 44.1098 149.191L42.6725 149.665C42.4982 149.728 42.3199 149.779 42.1387 149.817C42.302 149.73 42.4728 149.657 42.649 149.601L44.0687 149.074C45.242 148.64 46.9315 148.049 48.7618 147.405C50.5921 146.761 52.2816 146.193 53.4548 145.783L54.8862 145.308C55.0651 145.248 55.2472 145.197 55.4318 145.156Z" fill="#E0E0E0"/>
<path d="M72.8012 136.063C72.8012 136.104 65.7616 138.616 57.0208 141.667C48.2799 144.717 41.1816 147.159 41.1816 147.112C41.1816 147.065 48.2212 144.559 56.9621 141.503C65.7029 138.446 72.7601 136.016 72.8012 136.063Z" fill="#E0E0E0"/>
<path d="M38.8888 157.666L36.0263 158.666C34.9806 159.032 34.4297 160.174 34.7959 161.218L35.7983 164.075C36.1646 165.119 37.3092 165.669 38.355 165.303L41.2174 164.303C42.2632 163.937 42.8141 162.795 42.4479 161.751L41.4454 158.894C41.0792 157.85 39.9346 157.3 38.8888 157.666Z" fill="#EBEBEB"/>
<path d="M38.5362 162.586C38.5158 162.595 38.4939 162.6 38.4717 162.6C38.4495 162.6 38.4276 162.595 38.4072 162.586L37.0931 161.825C37.0558 161.803 37.0289 161.766 37.0185 161.724C37.008 161.682 37.0148 161.637 37.0374 161.6C37.0599 161.562 37.0964 161.536 37.1388 161.525C37.1811 161.515 37.2259 161.522 37.2632 161.544L38.4365 162.212L39.8209 159.284C39.8389 159.244 39.8718 159.213 39.9125 159.198C39.9532 159.183 39.9983 159.184 40.038 159.202C40.0766 159.221 40.1066 159.254 40.1218 159.294C40.1371 159.334 40.1365 159.379 40.1201 159.419L38.6535 162.54C38.6219 162.57 38.5799 162.586 38.5362 162.586Z" fill="white"/>
<path d="M76.1098 145.564C76.1098 145.61 69.0702 148.116 60.3293 151.167C51.5885 154.218 44.4902 156.66 44.4902 156.613C44.4902 156.566 51.5298 154.06 60.2707 151.009C69.0115 147.958 76.0922 145.505 76.1098 145.564Z" fill="#E0E0E0"/>
<path d="M59.5138 156.812C59.3505 156.9 59.1797 156.972 59.0034 157.029L57.5838 157.556C56.4105 157.989 54.721 158.581 52.8907 159.225C51.0604 159.869 49.3709 160.437 48.1977 160.847L46.7604 161.321C46.4202 161.427 46.2266 161.479 46.2266 161.473C46.3899 161.386 46.5607 161.314 46.7369 161.257L48.1566 160.73C49.3299 160.296 51.0194 159.705 52.8497 159.061C54.68 158.417 56.3695 157.849 57.5427 157.439L58.98 156.965C59.1542 156.902 59.3326 156.851 59.5138 156.812Z" fill="#E0E0E0"/>
<path d="M76.8676 147.719C76.8676 147.76 69.828 150.272 61.0872 153.323C52.3463 156.374 45.248 158.81 45.248 158.769C45.248 158.728 52.2876 156.216 61.0285 153.159C69.7693 150.103 76.85 147.673 76.8676 147.719Z" fill="#E0E0E0"/>
<path d="M14.1914 97.6608L15.6228 101.76C16.0231 102.901 16.8609 103.836 17.9521 104.361C19.0433 104.886 20.2986 104.957 21.4422 104.558L51.5365 94.0187C52.1023 93.8215 52.6236 93.5149 53.0705 93.1165C53.5174 92.718 53.8813 92.2355 54.1412 91.6965C54.4011 91.1576 54.552 90.5727 54.5852 89.9755C54.6184 89.3783 54.5333 88.7804 54.3348 88.216L52.9034 84.1172L14.1914 97.6608Z" fill="#E0E0E0"/>
<path d="M33.9499 92.1113C33.1504 92.3921 32.2855 92.4297 31.4646 92.2196C30.6437 92.0094 29.9037 91.5609 29.3383 90.9307C28.7729 90.3005 28.4076 89.5171 28.2886 88.6796C28.1695 87.842 28.3021 86.9881 28.6696 86.2258C29.037 85.4636 29.6228 84.8273 30.3528 84.3975C31.0827 83.9677 31.924 83.7638 32.7702 83.8115C33.6163 83.8592 34.4292 84.1565 35.106 84.6656C35.7828 85.1748 36.293 85.8729 36.5721 86.6716C36.9454 87.7401 36.879 88.9128 36.3875 89.9325C35.8959 90.9522 35.0193 91.7357 33.9499 92.1113ZM31.662 85.5942C31.1689 85.7661 30.738 86.08 30.4237 86.4963C30.1095 86.9127 29.926 87.4127 29.8965 87.9331C29.867 88.4536 29.9929 88.9711 30.2581 89.4201C30.5233 89.8692 30.9161 90.2296 31.3866 90.4558C31.8571 90.682 32.3842 90.7638 32.9014 90.6909C33.4185 90.618 33.9023 90.3937 34.2916 90.0462C34.681 89.6988 34.9583 89.2439 35.0886 88.7391C35.2188 88.2343 35.1962 87.7023 35.0234 87.2103C34.792 86.5514 34.308 86.011 33.6777 85.708C33.0475 85.405 32.3225 85.3641 31.662 85.5942Z" fill="#E0E0E0"/>
<path d="M58.0012 102.76C58.0012 102.837 50.0934 105.688 40.279 109.114C30.4647 112.539 22.4864 115.262 22.4571 115.186C22.4278 115.11 30.3649 112.258 40.1793 108.833C49.9937 105.407 57.9719 102.661 58.0012 102.76Z" fill="#E0E0E0"/>
<path d="M47.8352 104.191C47.8352 104.267 44.3741 105.561 40.0389 107.078C35.7036 108.594 32.1662 109.783 32.1369 109.678C32.1076 109.572 35.6039 108.307 39.9391 106.791C44.2744 105.274 47.8118 104.115 47.8352 104.191Z" fill="#E0E0E0"/>
<path d="M201.715 149.781C203.875 148.769 206.304 148.475 208.644 148.944C209.899 149.149 211.213 149.529 212.064 150.466C212.914 151.403 213.084 153.066 212.099 153.874C211.462 154.306 210.693 154.499 209.928 154.419C208.092 154.419 206.062 154.073 204.602 155.174C203.763 155.8 203.211 156.843 202.214 157.153C201.712 157.27 201.186 157.218 200.716 157.007C200.246 156.795 199.859 156.435 199.615 155.982C199.141 155.066 199.036 154.004 199.322 153.013C199.445 152.327 199.725 151.678 200.14 151.118C200.555 150.557 201.094 150.1 201.715 149.781Z" fill="#FF9C66"/>
<path d="M196.857 140.488C198.148 142.321 200.652 141.717 201.814 140.593C202.976 139.469 203.462 137.847 203.908 136.301C204.929 132.759 205.961 129.046 205.205 125.439C205.016 124.356 204.536 123.343 203.814 122.512C203.447 122.099 202.977 121.79 202.452 121.615C201.927 121.44 201.365 121.406 200.823 121.516C199.555 121.85 198.775 123.086 198.206 124.257C196.533 127.729 195.657 131.529 195.643 135.382C195.643 137.174 195.848 139.047 196.857 140.529" fill="#FF9C66"/>
<path d="M193.32 143.12C193.983 142.257 194.424 141.245 194.606 140.172C194.788 139.1 194.705 137.999 194.364 136.966C193.655 134.909 192.393 133.086 190.715 131.696C188.808 130.002 186.588 128.696 184.18 127.849C183.25 127.474 182.249 127.304 181.247 127.352C180.746 127.38 180.259 127.53 179.83 127.789C179.4 128.049 179.041 128.409 178.783 128.839C178.091 130.15 178.783 131.737 179.464 133.031C180.719 135.316 182.155 137.497 183.758 139.554C185.043 141.211 186.515 142.845 188.48 143.594C190.445 144.344 192.475 144.25 193.513 142.898" fill="#FF9C66"/>
<path d="M196.776 168.183C196.841 167.91 196.878 167.632 196.888 167.352C196.952 166.766 197.023 165.982 197.111 165.074C197.223 163.951 197.396 162.835 197.627 161.731C197.925 160.387 198.331 159.069 198.841 157.79C199.342 156.512 200.022 155.312 200.859 154.224C201.542 153.337 202.413 152.613 203.411 152.104C204.087 151.769 204.811 151.544 205.558 151.437C205.839 151.427 206.118 151.388 206.391 151.32C206.108 151.289 205.823 151.289 205.54 151.32C204.767 151.382 204.01 151.58 203.305 151.905C202.255 152.398 201.333 153.128 200.613 154.037C199.741 155.142 199.037 156.369 198.524 157.679C198.004 158.975 197.599 160.316 197.316 161.684C197.1 162.802 196.951 163.932 196.87 165.068C196.794 166.034 196.77 166.825 196.759 167.358C196.732 167.633 196.738 167.91 196.776 168.183Z" fill="#263238"/>
<path d="M196.928 166.435C196.945 166.307 196.945 166.177 196.928 166.049V164.96C196.928 164 196.928 162.618 196.975 160.861C197.063 157.424 197.356 153.729 197.931 148.518C198.471 143.617 199.198 137.914 199.967 134.207C200.131 133.364 200.295 132.603 200.454 131.941C200.612 131.28 200.729 130.7 200.853 130.237C200.976 129.775 201.04 129.441 201.111 129.16C201.143 129.033 201.166 128.904 201.181 128.773C201.122 128.889 201.077 129.011 201.046 129.136C200.958 129.418 200.853 129.769 200.723 130.202C200.594 130.635 200.43 131.233 200.266 131.894C200.102 132.556 199.908 133.311 199.726 134.155C198.786 138.545 198.079 142.982 197.608 147.446C197.022 152.669 196.775 157.401 196.758 160.867C196.758 162.588 196.758 163.982 196.816 164.966C196.816 165.417 196.863 165.786 196.881 166.072C196.886 166.195 196.902 166.316 196.928 166.435Z" fill="#263238"/>
<path d="M196.952 157.268C196.985 156.878 196.985 156.486 196.952 156.097C196.886 155.047 196.766 154.002 196.594 152.964C196.343 151.423 196.002 149.898 195.574 148.397C195.077 146.549 194.438 144.742 193.661 142.992C192.334 139.767 190.432 136.81 188.047 134.262C187.631 133.826 187.189 133.418 186.721 133.038C186.522 132.862 186.34 132.693 186.135 132.558L185.624 132.207C185.317 131.971 184.989 131.763 184.645 131.586C185.771 132.464 186.839 133.415 187.842 134.432C190.154 136.997 192.008 139.94 193.321 143.133C194.081 144.872 194.724 146.66 195.245 148.485C195.686 149.971 196.049 151.48 196.33 153.005C196.571 154.311 196.712 155.347 196.794 156.108C196.818 156.498 196.871 156.886 196.952 157.268Z" fill="#263238"/>
<path d="M188.07 173.445L188.991 186.034H205.2L206.115 173.445H188.07Z" fill="#263238"/>
<path d="M208.057 168.477H186.51V173.442H208.057V168.477Z" fill="#263238"/>
<path d="M186.51 185.555V186.925H187.519H207.693V185.555H186.51Z" fill="#455A64"/>
<path d="M188.509 189.346L187.518 186.922H206.923L205.762 189.346H188.509Z" fill="#455A64"/>
<path d="M205.821 177.554C205.821 177.554 205.821 177.6 205.745 177.671L205.505 177.993L204.56 179.199L204.519 179.252L204.478 179.193L202.161 175.996H202.302L200.014 179.222L199.943 179.322L199.861 179.228L197.157 176.008H197.309L197.163 176.195L194.74 179.222L194.664 179.328L194.587 179.222C193.766 178.051 192.998 176.974 192.3 175.996H192.435L189.625 179.193L189.572 179.252L189.531 179.187C189.161 178.566 188.868 178.069 188.651 177.712L188.428 177.319C188.398 177.276 188.374 177.229 188.357 177.179C188.357 177.179 188.393 177.214 188.451 177.302L188.704 177.682L189.625 179.129H189.537L192.305 175.891L192.376 175.809L192.44 175.896L194.746 179.111H194.587L197.022 176.084L197.175 175.896L197.251 175.797L197.327 175.891L200.031 179.117H199.879L202.184 175.902L202.249 175.809L202.319 175.902C203.229 177.208 204.009 178.315 204.59 179.14H204.502L205.487 177.969L205.751 177.665L205.821 177.554Z" fill="#E0E0E0"/>
<path d="M206.344 173.357C206.344 173.416 202.284 173.463 197.274 173.463C192.265 173.463 188.205 173.416 188.205 173.357C188.205 173.299 192.265 173.258 197.274 173.258C202.284 173.258 206.344 173.305 206.344 173.357Z" fill="#455A64"/>
<path d="M207.164 187.066C207.164 187.119 202.747 187.166 197.309 187.166C191.87 187.166 187.453 187.119 187.453 187.066C187.453 187.014 191.865 186.961 197.309 186.961C202.753 186.961 207.164 187.008 207.164 187.066Z" fill="#263238"/>
<path d="M47.3133 146.899C47.2663 146.952 46.8967 146.729 46.4861 146.401C46.0755 146.073 45.7763 145.763 45.8232 145.704C45.8701 145.646 46.2339 145.874 46.6445 146.202C47.0551 146.53 47.3543 146.84 47.3133 146.899Z" fill="#263238"/>
<path d="M58.5755 130.123C58.7352 128.561 58.606 126.983 58.1942 125.468C57.7014 123.975 56.5516 122.61 55.0146 122.288C53.2547 121.925 51.4596 123.032 50.4741 124.531C49.4885 126.03 49.1542 127.845 48.8608 129.607C46.8594 141.786 46.1222 154.138 46.661 166.467L53.8414 167.474C56.9681 154.61 57.9889 143.362 58.5755 130.123Z" fill="#455A64"/>
<path d="M53.9886 122.219L53.9534 122.336L53.8361 122.658L53.3551 123.899C53.2553 124.169 53.1204 124.485 53.0148 124.795L52.6687 125.878L52.2639 127.126L51.8944 128.548C51.2916 130.899 50.8273 133.282 50.504 135.686C50.1169 138.38 49.8646 141.366 49.6593 144.504C49.2956 150.787 49.2369 156.491 49.0726 160.613C48.9964 162.68 48.926 164.349 48.8497 165.496C48.8087 166.082 48.7793 166.497 48.7559 166.825C48.7559 166.96 48.7559 167.077 48.7559 167.165C48.7559 167.253 48.7559 167.282 48.7559 167.282C48.7559 167.282 48.7559 167.247 48.7559 167.165C48.7559 167.083 48.7559 166.96 48.7559 166.819C48.7559 166.497 48.7559 166.052 48.7969 165.49C48.8439 164.319 48.8849 162.674 48.9377 160.607C49.0551 156.508 49.0844 150.781 49.454 144.493C49.6534 141.348 49.9174 138.356 50.3163 135.651C50.6528 133.254 51.1367 130.88 51.7653 128.543L52.1525 127.12C52.305 126.683 52.4458 126.267 52.5749 125.873L52.9503 124.789C53.0618 124.461 53.2025 124.169 53.3081 123.899L53.8361 122.681C53.8909 122.553 53.9378 122.447 53.9769 122.365C53.9727 122.316 53.9766 122.267 53.9886 122.219Z" fill="#263238"/>
<path d="M54.6523 122.242C55.0266 122.683 55.324 123.184 55.5323 123.724C56.0813 125.205 56.3034 126.787 56.1835 128.361C55.9957 132.325 55.6379 137.782 55.1686 143.814C54.6993 149.845 54.1654 155.29 53.7431 159.231C53.526 161.198 53.3442 162.791 53.2092 163.915C53.1388 164.448 53.086 164.87 53.045 165.18L52.998 165.508C53.0008 165.545 53.0008 165.582 52.998 165.619C52.998 165.619 52.998 165.584 52.998 165.508C52.998 165.432 52.998 165.309 52.998 165.174C52.998 164.864 53.0626 164.442 53.1095 163.904C53.221 162.779 53.3735 161.192 53.5612 159.219C53.9367 155.273 54.4353 149.85 54.9105 143.796C55.3856 137.741 55.767 132.314 56.0016 128.361C56.1293 126.805 55.9295 125.239 55.415 123.765C55.2064 123.236 54.9511 122.726 54.6523 122.242Z" fill="#263238"/>
<path d="M59.632 140.804C59.1608 140.77 58.6997 140.651 58.271 140.453C57.8153 140.334 57.3843 140.136 56.998 139.867C57.4698 139.898 57.9315 140.017 58.359 140.218C58.8152 140.336 59.2465 140.534 59.632 140.804Z" fill="#263238"/>
<path d="M60.5013 133.492C60.1122 133.802 59.674 134.046 59.2048 134.212C58.7688 134.453 58.2945 134.618 57.8027 134.698C58.6253 134.143 59.5385 133.735 60.5013 133.492Z" fill="#263238"/>
<path d="M60.0494 127.526C59.3403 127.654 58.6105 127.604 57.9258 127.38C58.2729 127.28 58.6382 127.262 58.9935 127.327C59.3561 127.311 59.7176 127.379 60.0494 127.526Z" fill="#263238"/>
<path d="M52.6342 123.708C52.5755 123.743 52.2588 123.351 51.9361 122.836C51.7013 122.538 51.5351 122.192 51.4492 121.823C51.5079 121.787 51.8247 122.174 52.1532 122.695C52.4817 123.216 52.7105 123.667 52.6342 123.708Z" fill="#263238"/>
<path d="M50.188 127.313C49.8613 127.431 49.511 127.467 49.1672 127.419C48.8215 127.452 48.473 127.4 48.1523 127.267C48.479 127.149 48.8293 127.113 49.1731 127.161C49.5188 127.128 49.8673 127.18 50.188 127.313Z" fill="#263238"/>
<path d="M48.4282 134.513C48.0527 134.498 47.6856 134.398 47.3547 134.22C46.9925 134.118 46.6578 133.936 46.375 133.688C46.7505 133.703 47.1176 133.803 47.4485 133.98C47.8107 134.083 48.1454 134.265 48.4282 134.513Z" fill="#263238"/>
<path d="M48.2391 140.598C48.2391 140.669 47.8461 140.815 47.324 140.92C46.8018 141.026 46.3736 141.067 46.356 140.997C46.3384 140.926 46.7549 140.78 47.2712 140.675C47.5825 140.569 47.9151 140.543 48.2391 140.598Z" fill="#263238"/>
<path d="M47.4301 150.524C47.4301 150.594 47.0077 150.729 46.4563 150.828C46.1268 150.926 45.7785 150.942 45.4414 150.875C45.7373 150.699 46.0713 150.597 46.4152 150.577C46.7439 150.475 47.0927 150.457 47.4301 150.524Z" fill="#263238"/>
<path d="M46.8436 156.008C46.8788 156.066 46.5151 156.324 46.034 156.593C45.553 156.863 45.1365 157.003 45.1071 156.939C45.0778 156.874 45.4357 156.622 45.9167 156.353C46.3977 156.084 46.8436 155.943 46.8436 156.008Z" fill="#263238"/>
<path d="M51.3432 162.223C51.2845 162.258 50.9678 161.825 50.6392 161.251C50.4016 160.923 50.2376 160.548 50.1582 160.15C50.2169 160.115 50.5337 160.549 50.8622 161.122C51.0998 161.451 51.2638 161.826 51.3432 162.223Z" fill="#263238"/>
<path d="M52.6401 151.888C52.687 151.935 52.335 152.362 51.854 152.837C51.3729 153.311 50.9388 153.651 50.886 153.598C50.8332 153.545 51.1911 153.124 51.6721 152.649C52.1532 152.175 52.5873 151.836 52.6401 151.888Z" fill="#263238"/>
<path d="M52.3532 146.465C52.3004 146.518 51.9777 146.249 51.6257 145.88C51.2738 145.511 51.0391 145.154 51.086 145.107C51.133 145.06 51.4615 145.324 51.8135 145.692C52.1655 146.061 52.406 146.419 52.3532 146.465Z" fill="#263238"/>
<path d="M53.2443 139.536C53.2971 139.582 53.0037 139.998 52.5872 140.455C52.1707 140.912 51.7953 141.257 51.7425 141.21C51.6897 141.163 51.983 140.748 52.3936 140.285C52.8043 139.823 53.1915 139.489 53.2443 139.536Z" fill="#263238"/>
<path d="M53.7428 134.512C53.69 134.565 53.2852 134.243 52.8277 133.798C52.3701 133.353 52.0474 132.949 52.0944 132.896C52.1413 132.844 52.5519 133.166 53.0095 133.616C53.4671 134.067 53.7897 134.46 53.7428 134.512Z" fill="#263238"/>
<path d="M54.7284 127.705C54.6507 128.075 54.4925 128.423 54.2649 128.724C53.954 129.251 53.649 129.649 53.5903 129.614C53.5316 129.579 53.7311 129.122 54.0479 128.595C54.3647 128.068 54.6638 127.67 54.7284 127.705Z" fill="#263238"/>
<path d="M56.5754 121.408C56.64 121.443 56.4581 121.9 56.1707 122.427C55.8832 122.954 55.584 123.358 55.5371 123.328C55.5929 122.963 55.7313 122.614 55.9419 122.31C56.2293 121.777 56.5109 121.378 56.5754 121.408Z" fill="#263238"/>
<path d="M58.6756 124.27C58.7049 124.335 58.4175 124.534 58.0303 124.721C57.6431 124.908 57.3087 125.002 57.2794 124.938C57.2501 124.873 57.5375 124.674 57.9247 124.487C58.3119 124.3 58.6463 124.206 58.6756 124.27Z" fill="#263238"/>
<path d="M58.7238 146.9C57.7494 146.829 56.8265 146.435 56.1016 145.781C56.5583 145.919 57.0004 146.102 57.4215 146.326C57.8741 146.472 58.3105 146.664 58.7238 146.9Z" fill="#263238"/>
<path d="M57.8656 151.687C57.8656 151.757 57.4491 151.898 56.8977 152.003C56.5699 152.108 56.2212 152.13 55.8828 152.067C56.1762 151.888 56.5078 151.78 56.8508 151.751C57.4022 151.646 57.8539 151.616 57.8656 151.687Z" fill="#263238"/>
<path d="M56.8166 159.901C56.7755 159.959 56.2299 159.579 55.7254 158.946C55.3895 158.585 55.153 158.144 55.0391 157.664C55.3669 158.012 55.6633 158.388 55.9249 158.788C56.2557 159.131 56.5542 159.503 56.8166 159.901Z" fill="#263238"/>
<path d="M45.2667 163.66C45.2197 163.608 45.513 163.28 45.9178 162.934C46.3226 162.589 46.6922 162.349 46.7391 162.407C46.786 162.466 46.4927 162.782 46.0879 163.133C45.6832 163.485 45.3136 163.713 45.2667 163.66Z" fill="#263238"/>
<path d="M41.9446 145.734C41.4752 144.276 40.6012 142.578 39.07 142.555C38.6138 142.579 38.1727 142.726 37.7928 142.98C37.413 143.233 37.1085 143.584 36.9112 143.995C36.4898 144.808 36.2877 145.716 36.3246 146.63C36.5137 153.12 37.6217 159.55 39.6156 165.73H45.2297C45.1617 158.937 44.0539 152.194 41.9446 145.734Z" fill="#455A64"/>
<path d="M31.8015 136.555C31.5238 135.19 30.7946 133.956 29.7308 133.054C28.667 132.151 27.3303 131.632 25.9352 131.578C23.4537 132.011 22.4916 134.447 22.1983 136.942C21.905 139.436 22.6794 141.919 23.4479 144.314C25.9039 151.996 28.3638 159.68 30.8277 167.366L37.8086 166.605C35.6264 156.311 34.3592 146.767 31.8015 136.555Z" fill="#455A64"/>
<path d="M39.0705 142.555C38.889 142.804 38.73 143.068 38.5953 143.345C38.3059 144.137 38.2153 144.987 38.3313 145.822C38.4369 146.888 38.5601 148.164 38.7419 149.569C38.9238 150.975 39.1761 152.497 39.4928 154.125C40.1264 157.345 40.8421 160.226 41.2938 162.323C41.5226 163.371 41.6986 164.226 41.8042 164.817C41.8511 165.092 41.8922 165.315 41.9215 165.502C41.9508 165.689 41.9567 165.742 41.9215 165.742C41.891 165.668 41.8675 165.592 41.8511 165.514L41.6868 164.84C41.5343 164.214 41.3349 163.377 41.1002 162.364C40.6016 160.267 39.8566 157.392 39.223 154.166C38.9062 152.55 38.6364 151.004 38.4897 149.587C38.3958 148.884 38.3372 148.205 38.2785 147.579C38.2198 146.952 38.1612 146.361 38.1318 145.822C38.0316 144.963 38.1527 144.092 38.4838 143.292C38.6234 143.007 38.8236 142.755 39.0705 142.555Z" fill="#263238"/>
<path d="M26.0647 131.383C25.7537 131.737 25.4712 132.115 25.22 132.513C24.5775 133.626 24.2133 134.877 24.1582 136.161C24.129 138.064 24.4205 139.958 25.0205 141.764C25.6072 143.837 26.3053 146.115 27.0151 148.498C28.4054 153.276 29.6608 157.598 30.5818 160.754L31.6378 164.478C31.7551 164.899 31.8431 165.233 31.9135 165.491C31.9518 165.607 31.9774 165.726 31.9897 165.848C31.9359 165.739 31.8927 165.625 31.8607 165.508C31.7844 165.251 31.673 164.923 31.5439 164.501C31.2682 163.605 30.881 162.346 30.4117 160.806L26.7687 148.568C26.0647 146.174 25.4019 143.884 24.7918 141.823C24.1941 139.991 23.9183 138.069 23.9763 136.143C24.0519 134.835 24.4553 133.567 25.1496 132.454C25.3933 132.049 25.7025 131.687 26.0647 131.383Z" fill="#263238"/>
<path d="M36.3135 165.865C36.2544 165.757 36.2015 165.646 36.1551 165.532C36.0671 165.303 35.9204 164.981 35.762 164.548C35.4276 163.693 34.9994 162.434 34.5888 160.853C34.1781 159.272 33.7088 157.34 33.2864 155.232C32.8641 153.124 32.4417 150.764 31.9724 148.305C31.5031 145.846 30.9516 143.533 30.3239 141.466C29.7794 139.628 29.099 137.834 28.2883 136.097C27.7372 134.928 27.1081 133.797 26.4052 132.712C26.1647 132.326 25.9476 132.039 25.8186 131.84C25.7451 131.74 25.6803 131.634 25.625 131.523C25.711 131.61 25.7895 131.704 25.8597 131.804C26.0063 132.004 26.2351 132.273 26.4874 132.659C27.2293 133.727 27.8864 134.851 28.4526 136.02C29.294 137.753 29.9944 139.551 30.5469 141.396C31.2094 143.653 31.7537 145.944 32.1777 148.258C32.6411 150.712 33.0752 153.054 33.4742 155.191C33.8731 157.328 34.2954 159.22 34.7178 160.806C35.1402 162.393 35.5332 163.652 35.8383 164.513C35.9791 164.952 36.114 165.28 36.1903 165.508C36.2447 165.622 36.286 165.742 36.3135 165.865Z" fill="#263238"/>
<path d="M23.602 143.167C23.602 143.232 23.2383 143.384 22.7513 143.501C22.2644 143.618 21.8597 143.659 21.8479 143.589C21.8362 143.519 22.2058 143.372 22.6927 143.255C23.1796 143.138 23.5844 143.097 23.602 143.167Z" fill="#263238"/>
<path d="M22.8622 138.411C22.4808 138.518 22.0844 138.562 21.6889 138.54C21.2986 138.595 20.9019 138.583 20.5156 138.505C20.8809 138.331 21.2851 138.254 21.6889 138.282C22.0846 138.225 22.4885 138.269 22.8622 138.411Z" fill="#263238"/>
<path d="M23.6491 134.069C23.6021 134.127 23.2208 133.881 22.8043 133.524C22.3878 133.167 22.0769 132.833 22.1238 132.781C22.1708 132.728 22.5462 132.968 22.9686 133.325C23.391 133.682 23.696 134.016 23.6491 134.069Z" fill="#263238"/>
<path d="M25.7786 130.048C25.849 130.048 25.8255 130.405 25.8197 130.809C25.8138 131.213 25.8197 131.558 25.7317 131.57C25.6437 131.582 25.5498 131.242 25.5615 130.803C25.5733 130.364 25.7258 130.03 25.7786 130.048Z" fill="#263238"/>
<path d="M30.1243 131.942C30.1829 131.983 30.0128 132.328 29.743 132.709C29.4731 133.089 29.2091 133.37 29.1563 133.329C29.1035 133.288 29.2678 132.949 29.5318 132.562C29.7958 132.176 30.0656 131.901 30.1243 131.942Z" fill="#263238"/>
<path d="M32.9465 136.853C32.9465 136.924 32.6121 137.128 32.1428 137.322C31.6735 137.515 31.2628 137.614 31.2394 137.55C31.2159 137.486 31.5738 137.275 32.0431 137.088C32.5124 136.9 32.923 136.771 32.9465 136.853Z" fill="#263238"/>
<path d="M34.659 141.875C34.3486 142.144 33.9643 142.313 33.5561 142.361C33.1651 142.487 32.7464 142.502 32.3477 142.402C32.724 142.253 33.1186 142.155 33.5209 142.109C33.8893 141.985 34.2715 141.907 34.659 141.875Z" fill="#263238"/>
<path d="M26.7991 140.446C26.7346 140.446 26.7991 140.077 26.9106 139.667C27.022 139.257 27.198 138.947 27.2625 138.97C27.3271 138.993 27.2625 139.339 27.1511 139.749C27.0396 140.159 26.8988 140.469 26.7991 140.446Z" fill="#263238"/>
<path d="M27.8945 146.766C27.9183 146.397 28.0266 146.038 28.2113 145.718C28.4518 145.167 28.6982 144.746 28.7628 144.775C28.739 145.144 28.6306 145.502 28.446 145.823C28.2054 146.373 27.9591 146.807 27.8945 146.766Z" fill="#263238"/>
<path d="M25.1845 148.498C24.8388 148.49 24.498 148.414 24.1813 148.275C23.6475 148.106 23.2134 147.953 23.231 147.883C23.5802 147.838 23.9349 147.889 24.2576 148.029C24.8032 148.199 25.2138 148.433 25.1845 148.498Z" fill="#263238"/>
<path d="M26.7458 153.651C26.7868 153.71 26.4876 153.991 26.0829 154.284C25.6781 154.576 25.3026 154.764 25.2616 154.711C25.2205 154.658 25.5197 154.366 25.9303 154.073C26.341 153.78 26.7047 153.593 26.7458 153.651Z" fill="#263238"/>
<path d="M28.0007 158.794C28.0007 158.858 27.6487 159.011 27.1735 159.122C26.6984 159.233 26.3053 159.274 26.2877 159.21C26.2701 159.145 26.6397 158.993 27.1149 158.876C27.59 158.759 27.9831 158.724 28.0007 158.794Z" fill="#263238"/>
<path d="M34.801 146.173C34.8362 146.231 34.5194 146.483 34.0619 146.653C33.6043 146.823 33.1936 146.846 33.1819 146.782C33.1702 146.717 33.5339 146.583 33.968 146.413C34.4021 146.243 34.7658 146.108 34.801 146.173Z" fill="#263238"/>
<path d="M35.7674 154.162C35.738 154.226 35.3626 154.115 34.9285 153.91C34.4944 153.705 34.1658 153.488 34.1952 153.424C34.2245 153.36 34.6058 153.477 35.0399 153.676C35.474 153.875 35.8026 154.097 35.7674 154.162Z" fill="#263238"/>
<path d="M37.4878 159.892C37.0992 159.872 36.7193 159.771 36.3732 159.593C35.7865 159.365 35.3348 159.125 35.3583 159.055C35.7449 159.075 36.1229 159.176 36.467 159.353C37.0537 159.582 37.5112 159.822 37.4878 159.892Z" fill="#263238"/>
<path d="M28.2773 164.371C28.2421 164.307 28.6997 164.002 29.2276 163.587C29.7556 163.171 30.1663 162.796 30.2191 162.849C30.2719 162.901 29.9375 163.352 29.386 163.786C29.0793 164.081 28.6949 164.284 28.2773 164.371Z" fill="#263238"/>
<path d="M32.8052 161.448C32.7348 161.448 32.6351 161.073 32.4591 160.628C32.2831 160.183 32.1071 159.826 32.1658 159.785C32.2245 159.744 32.5178 160.048 32.6996 160.534C32.8815 161.02 32.8756 161.448 32.8052 161.448Z" fill="#263238"/>
<path d="M31.5922 154.579C31.5511 154.638 31.2578 154.497 30.9352 154.269C30.6125 154.04 30.3896 153.806 30.4307 153.748C30.4717 153.689 30.765 153.83 31.0877 154.058C31.4103 154.286 31.6509 154.521 31.5922 154.579Z" fill="#263238"/>
<path d="M42.1502 143.792C42.1913 143.851 41.9038 144.132 41.5108 144.418C41.1177 144.705 40.7657 144.899 40.7247 144.84C40.6836 144.782 40.9652 144.506 41.3582 144.214C41.7513 143.921 42.1502 143.733 42.1502 143.792Z" fill="#263238"/>
<path d="M43.7646 148.138C43.7646 148.208 43.3246 148.302 42.7731 148.244C42.2217 148.185 41.8052 147.998 41.8228 147.933C41.8404 147.869 42.2745 147.933 42.8025 147.986C43.3305 148.039 43.7587 148.068 43.7646 148.138Z" fill="#263238"/>
<path d="M36.9183 149.113C36.9183 149.178 36.5253 149.324 35.9856 149.359C35.4459 149.394 35.0235 149.306 35.0294 149.236C35.0352 149.166 35.4576 149.143 35.9738 149.107C36.4901 149.072 36.9066 149.043 36.9183 149.113Z" fill="#263238"/>
<path d="M37.5111 145.003C37.5111 145.073 37.0887 145.085 36.6312 144.869C36.1736 144.652 35.9096 144.342 35.9565 144.283C36.0035 144.224 36.3202 144.447 36.7368 144.634C37.1533 144.822 37.517 144.933 37.5111 145.003Z" fill="#263238"/>
<path d="M44.351 152.807C44.3158 152.866 43.8875 152.667 43.3948 152.356C42.902 152.046 42.5383 151.771 42.5793 151.689C42.6204 151.607 43.0428 151.835 43.5355 152.14C44.0283 152.444 44.392 152.749 44.351 152.807Z" fill="#263238"/>
<path d="M61.0511 164.992H24.5332V171.451H61.0511V164.992Z" fill="#FF9C66"/>
<path d="M27.2617 170.18L31.7025 189.485H53.4666L58.324 170.18H27.2617Z" fill="#FF9C66"/>
<path d="M61.0339 171.465C61.0339 171.535 52.821 171.594 42.6371 171.594C32.4531 171.594 24.2402 171.535 24.2402 171.465C24.2402 171.394 32.4531 171.336 42.6371 171.336C52.821 171.336 61.0339 171.4 61.0339 171.465Z" fill="#263238"/>
<path d="M40.7246 149.258C40.6659 149.293 40.4136 149.006 40.1673 148.608C39.9209 148.21 39.7683 147.858 39.827 147.823C39.8857 147.788 40.1379 148.075 40.3843 148.473C40.6307 148.871 40.7832 149.217 40.7246 149.258Z" fill="#263238"/>
<path d="M40.7371 154.451C40.7196 154.114 40.7861 153.778 40.9307 153.473C41.1008 152.952 41.3003 152.548 41.3648 152.571C41.3829 152.91 41.3164 153.248 41.1712 153.555C40.9777 154.07 40.8075 154.474 40.7371 154.451Z" fill="#263238"/>
<path d="M42.5207 159.909C42.4561 159.944 42.1863 159.505 41.934 158.937C41.7316 158.607 41.6035 158.238 41.5586 157.854C41.6231 157.818 41.893 158.258 42.1452 158.826C42.3476 159.155 42.4757 159.525 42.5207 159.909Z" fill="#263238"/>
<path d="M38.6661 164.3C38.6133 164.253 38.8304 163.919 39.153 163.544C39.4757 163.169 39.7749 162.912 39.8335 162.959C39.8922 163.005 39.6693 163.345 39.3466 163.714C39.024 164.083 38.7189 164.376 38.6661 164.3Z" fill="#263238"/>
<path d="M37.8556 156.332C37.8556 156.402 37.4919 156.396 37.0695 156.332C36.6472 156.267 36.3187 156.144 36.3304 156.074C36.3421 156.004 36.6941 156.01 37.1106 156.074C37.5271 156.138 37.8674 156.261 37.8556 156.332Z" fill="#263238"/>
<path d="M237.5 189.551C237.5 189.633 184.439 189.703 119 189.703C53.561 189.703 0.5 189.609 0.5 189.551C0.5 189.492 53.5493 189.398 119 189.398C184.451 189.398 237.5 189.439 237.5 189.551Z" fill="#263238"/>
<path d="M60.1429 75.941C60.2427 76.0405 79.7248 69.3595 79.7248 69.3595L72.2159 52.2031L54.8926 58.8373L64.4312 64.3063L60.1429 75.941Z" fill="#455A64"/>
<path d="M69.2832 57.3668V34.0095C69.2832 34.0095 96.1569 29.1026 115.522 29.3954C134.886 29.6882 154.826 32.856 154.826 32.856V55.2822C154.826 55.2822 94.133 49.8718 69.2832 57.3668Z" fill="#455A64"/>
<path d="M69.1426 57.3892L79.702 69.4572V55.2812C79.702 55.2812 70.8731 56.3352 69.1426 57.3892Z" fill="#263238"/>
<path d="M69.2825 34C69.3704 34 69.4056 39.2699 69.3704 45.7108C69.3352 52.1518 69.2297 57.4217 69.1475 57.4217C69.0654 57.4217 69.0243 52.1869 69.0595 45.7108C69.0947 39.2347 69.1945 34 69.2825 34Z" fill="#263238"/>
<path d="M163.918 74.15C163.818 74.2495 144.336 67.5685 144.336 67.5685L151.827 50.4062L169.168 57.0287L159.624 62.4977L163.918 74.15Z" fill="#455A64"/>
<path d="M154.93 55.5989L144.371 67.6669V54.5156C147.911 54.6366 151.439 54.9985 154.93 55.5989Z" fill="#263238"/>
<path d="M154.814 32.8594C154.896 32.8594 154.99 37.9477 155.02 44.2306C155.049 50.5135 155.02 55.6018 154.92 55.6018C154.82 55.6018 154.744 50.5135 154.714 44.2306C154.685 37.9477 154.726 32.8594 154.814 32.8594Z" fill="#263238"/>
<path d="M84.4356 44.2515C84.3802 43.5791 84.5246 42.9052 84.8509 42.3143C85.1771 41.7234 85.6707 41.2416 86.2698 40.9291C86.8689 40.6167 87.547 40.4875 88.2193 40.5577C88.8916 40.6279 89.5283 40.8944 90.0496 41.3238L89.2284 42.3075C89.0073 42.1061 88.7444 41.956 88.4584 41.8679C88.1724 41.7798 87.8704 41.756 87.5741 41.7981C87.0482 41.8711 86.5729 42.1496 86.2527 42.5724C85.9326 42.9951 85.7938 43.5275 85.867 44.0524C85.9401 44.5773 86.2191 45.0517 86.6427 45.3713C87.0662 45.6908 87.5996 45.8293 88.1255 45.7563C88.4237 45.7172 88.7093 45.6116 88.9611 45.4474C89.213 45.2832 89.4246 45.0646 89.5803 44.8078L90.6128 45.528C90.2303 46.0834 89.6921 46.5139 89.0656 46.7655C88.4391 47.0171 87.7522 47.0786 87.0909 46.9423C86.4295 46.806 85.8232 46.478 85.3477 45.9994C84.8723 45.5208 84.5488 44.9127 84.418 44.2515H84.4356Z" fill="white"/>
<path d="M90.8347 43.3702C90.7255 42.6941 90.8221 42.001 91.1121 41.3804C91.4021 40.7598 91.8721 40.2404 92.4612 39.8895C93.0503 39.5385 93.7313 39.3722 94.4162 39.412C95.1011 39.4519 95.7582 39.696 96.3025 40.1129C96.8468 40.5297 97.2531 41.1 97.4689 41.75C97.6848 42.4 97.7001 43.0997 97.513 43.7585C97.3259 44.4173 96.9449 45.0049 96.4194 45.4451C95.894 45.8853 95.2482 46.1579 94.5657 46.2276C94.1311 46.2968 93.6869 46.2769 93.2602 46.169C92.8336 46.0611 92.4335 45.8675 92.0843 45.6001C91.7351 45.3327 91.4442 44.997 91.2294 44.6136C91.0145 44.2302 90.8802 43.8071 90.8347 43.3702ZM96.1789 42.8198C96.1313 42.4398 95.9726 42.0823 95.7226 41.7919C95.4727 41.5014 95.1427 41.2907 94.7736 41.1863C94.4046 41.0818 94.0129 41.0881 93.6474 41.2044C93.2819 41.3206 92.9588 41.5417 92.7184 41.8401C92.4779 42.1385 92.3309 42.5009 92.2954 42.8821C92.26 43.2634 92.3379 43.6466 92.5192 43.984C92.7006 44.3214 92.9775 44.598 93.3153 44.7794C93.6532 44.9607 94.037 45.0388 94.419 45.0038C94.6824 44.9865 94.9394 44.9148 95.1736 44.7933C95.4078 44.6717 95.6141 44.5029 95.7796 44.2976C95.945 44.0923 96.0659 43.8549 96.1347 43.6005C96.2034 43.3461 96.2185 43.0803 96.1789 42.8198Z" fill="white"/>
<path d="M104.663 45.3219L104.411 41.5862L102.774 44.7832L102.129 44.8242L100.105 41.9433L100.346 45.5971L98.9907 45.6849L98.6152 39.4606L99.7885 39.3845L102.37 43.1027L104.417 39.0917L105.59 39.0156L106.013 45.2341L104.663 45.3219Z" fill="white"/>
<path d="M112.741 41.0595C112.776 42.4531 111.755 43.3431 110.089 43.4017L108.828 43.4368L108.881 45.1583L107.432 45.1993L107.256 38.9282L109.96 38.852C111.632 38.8286 112.694 39.6659 112.741 41.0595ZM111.274 41.1005C111.274 40.4154 110.799 40.029 109.913 40.0524L108.74 40.0875L108.805 42.254L109.978 42.2189C110.858 42.1955 111.292 41.7797 111.274 41.1005Z" fill="white"/>
<path d="M113.867 38.7969H115.31V43.856H118.443V45.027H113.867V38.7969Z" fill="white"/>
<path d="M124.045 44.0336V45.2047L119.205 45.0641L119.387 38.8281L124.08 38.9687L124.045 40.1397L120.76 40.0402L120.724 41.3987L123.622 41.4806L123.587 42.6049L120.689 42.517L120.648 43.9633L124.045 44.0336Z" fill="white"/>
<path d="M126.719 40.2726L124.725 40.1555L124.795 38.9844L130.227 39.3123L130.157 40.4834L128.162 40.3604L127.857 45.4136L126.414 45.3258L126.719 40.2726Z" fill="white"/>
<path d="M135.49 44.8869L135.385 46.058L130.562 45.613L131.149 39.4062L135.842 39.8395L135.737 41.0106L132.463 40.6827L132.34 42.0353L135.226 42.2988L135.127 43.4172L132.234 43.1537L132.105 44.5883L135.49 44.8869Z" fill="white"/>
<path d="M137.298 39.9766L140.108 40.3513C142.132 40.6207 143.358 42.0201 143.111 43.8646C142.865 45.709 141.305 46.7923 139.281 46.4995L136.471 46.1248L137.298 39.9766ZM139.369 45.346C139.624 45.3869 139.885 45.3763 140.136 45.3149C140.387 45.2535 140.624 45.1424 140.831 44.9883C141.039 44.8343 141.213 44.6402 141.344 44.4177C141.475 44.1952 141.56 43.9488 141.594 43.6929C141.629 43.437 141.611 43.1769 141.543 42.928C141.474 42.679 141.357 42.4462 141.197 42.2434C141.037 42.0405 140.838 41.8716 140.612 41.7468C140.385 41.622 140.136 41.5437 139.879 41.5165L138.571 41.3409L138.06 45.1703L139.369 45.346Z" fill="white"/>
<path d="M80.6452 12.7109L86.5996 18.7713L94.9826 15.6094L95.3169 17.688L91.6857 25.1069L95.0354 30.6461L94.7538 32.3032L86.6406 30.9389L81.842 36.1912L80.7156 35.3421L79.7242 28.6611L72.1566 24.7263L71.8223 23.198L79.4426 21.1193L80.6452 12.7109Z" fill="#FF9C66"/>
<g opacity="0.3">
<path d="M80.6452 12.7109L86.5996 18.7713L94.9826 15.6094L95.3169 17.688L91.6857 25.1069L95.0354 30.6461L94.7538 32.3032L86.6406 30.9389L81.842 36.1912L80.7156 35.3421L79.7242 28.6611L72.1566 24.7263L71.8223 23.198L79.4426 21.1193L80.6452 12.7109Z" fill="black"/>
</g>
<path d="M80.6452 11.0078L86.5996 17.074L94.9826 15.6102L91.0462 23.1402L95.0354 30.6469L86.6406 29.2416L80.7156 35.3429L79.4661 26.9404L71.8223 23.1988L79.4426 19.4162L80.6452 11.0078Z" fill="#FF9C66"/>
<path d="M142.389 12.7109L136.428 18.7713L128.045 15.6094L127.711 17.688L131.342 25.1069L127.993 30.6461L128.274 32.3032L136.387 30.9389L141.186 36.1912L142.312 35.3421L143.304 28.6611L150.871 24.7263L151.206 23.198L143.585 21.1193L142.389 12.7109Z" fill="#FF9C66"/>
<g opacity="0.3">
<path d="M142.389 12.7109L136.428 18.7713L128.045 15.6094L127.711 17.688L131.342 25.1069L127.993 30.6461L128.274 32.3032L136.387 30.9389L141.186 36.1912L142.312 35.3421L143.304 28.6611L150.871 24.7263L151.206 23.198L143.585 21.1193L142.389 12.7109Z" fill="black"/>
</g>
<path d="M142.388 11.0078L136.428 17.074L128.045 15.6102L131.981 23.1402L127.992 30.6469L136.387 29.2416L142.312 35.3429L143.561 26.9404L151.205 23.1988L143.585 19.4162L142.388 11.0078Z" fill="#FF9C66"/>
<path d="M111.32 2.07031L116.278 11.7376L127.711 11.0642L127.324 13.7226L120.061 21.3991L122.027 29.4268L121.059 31.3416L111.678 26.5928L103.823 31.1835L102.773 29.7138L104.111 21.1824L96.3789 13.506L96.5549 11.521L106.645 11.8781L111.32 2.07031Z" fill="#FF9C66"/>
<g opacity="0.3">
<path d="M111.32 2.07031L116.278 11.7376L127.711 11.0642L127.324 13.7226L120.061 21.3991L122.027 29.4268L121.059 31.3416L111.678 26.5928L103.823 31.1835L102.773 29.7138L104.111 21.1824L96.3789 13.506L96.5549 11.521L106.645 11.8781L111.32 2.07031Z" fill="black"/>
</g>
<path d="M111.966 0L116.923 9.66144L127.711 11.0667L120.032 18.7608L122.026 29.4293L112.329 24.5225L102.773 29.7163L104.457 18.9891L96.5547 11.5235L107.296 9.80197L111.966 0Z" fill="#FF9C66"/>
</svg>
