<svg width="620" height="413" viewBox="0 0 620 413" fill="none" xmlns="http://www.w3.org/2000/svg">
<path d="M477.361 58.4423C417.152 50.0292 383.05 83.9863 302.192 87.1339C221.813 80.1629 191.077 44.7309 130.192 50.2929C64.6855 56.2834 14.1917 143.29 28.8908 230.741C43.59 318.192 133.229 367.615 178.986 367.615C215.556 367.615 247.811 352.602 289.498 349.232C330.765 354.547 361.492 371.035 397.98 372.749C443.629 374.899 537.849 329.785 560.975 243.224C584.101 156.663 542.133 67.4898 477.361 58.4423Z" fill="#FFBD99"/>
<path opacity="0.7" d="M477.361 58.4423C417.152 50.0292 383.05 83.9863 302.192 87.1339C221.813 80.1629 191.077 44.7309 130.192 50.2929C64.6855 56.2834 14.1917 143.29 28.8908 230.741C43.59 318.192 133.229 367.615 178.986 367.615C215.556 367.615 247.811 352.602 289.498 349.232C330.765 354.547 361.492 371.035 397.98 372.749C443.629 374.899 537.849 329.785 560.975 243.224C584.101 156.663 542.133 67.4898 477.361 58.4423Z" fill="white"/>
<path d="M342.439 228.748C342.439 228.748 351.642 243.44 355.496 257.646C358.228 267.748 358.352 339.848 358.352 339.848C358.352 339.848 358.542 228.32 372.25 205.289" stroke="#2F3337" stroke-linecap="round" stroke-linejoin="round"/>
<path d="M379.579 153.766C379.579 153.766 366.374 175.083 362.643 197.24C358.913 219.397 355.562 337.427 355.562 337.427C355.347 325.891 356.115 220.707 352.417 202.456C350.229 191.571 346.72 180.992 341.969 170.954" stroke="#2F3337" stroke-linecap="round" stroke-linejoin="round"/>
<path d="M344.849 177.414C344.849 177.414 355.958 177.933 361.141 169.603C366.324 161.272 362.924 153.32 358.046 152.735C353.168 152.15 351.047 158.174 349.24 155.29C347.432 152.406 354.431 146.959 346.59 141.957C338.75 136.956 335.102 144.133 332.617 141.57C330.133 139.008 331.924 132.341 326.757 129.367C321.591 126.392 319.164 130.084 316.3 130.191C313.437 130.298 304.416 125.461 300.817 129.268C297.219 133.075 305.827 142.304 301.783 142.575C297.739 142.847 296.088 150.725 299.381 155.825C302.674 160.926 313.247 162.937 311.183 165.598C309.12 168.26 299.018 168.07 303.128 174.044C307.238 180.018 321.219 180.389 323.233 181.089C325.247 181.79 316.796 183.347 318.223 188.917C319.651 194.487 331.264 195.18 338.733 191.595C346.202 188.011 344.849 177.414 344.849 177.414Z" fill="#FFBD99"/>
<path d="M312.793 139.867C312.793 139.867 336.389 155.268 344.849 177.417" stroke="#2F3337" stroke-linecap="round" stroke-linejoin="round"/>
<path d="M311.637 150.647L327.45 152.188L323.596 139.086" stroke="#2F3337" stroke-linecap="round" stroke-linejoin="round"/>
<path d="M324.363 168.755H340.185L341.34 154.5" stroke="#2F3337" stroke-linecap="round" stroke-linejoin="round"/>
<path d="M377.393 158.544C377.393 158.544 368.372 158.965 364.187 152.208C360.003 145.451 362.743 138.983 366.663 138.513C370.584 138.043 372.333 142.929 373.802 140.581C375.271 138.233 369.593 133.824 375.956 129.762C382.32 125.7 385.283 131.525 387.305 129.449C389.327 127.372 387.866 121.926 392.067 119.561C396.268 117.196 398.232 120.146 400.551 120.245C402.871 120.344 410.2 116.405 413.121 119.503C416.043 122.601 409.052 130.083 412.337 130.298C415.622 130.512 416.959 136.89 414.285 141.01C411.611 145.13 403.027 146.778 404.703 148.945C406.378 151.112 414.607 150.972 411.239 155.809C407.872 160.645 396.557 160.959 394.923 161.527C393.289 162.096 400.147 163.356 398.992 167.88C397.836 172.404 388.403 172.964 382.345 170.056C376.287 167.147 377.393 158.544 377.393 158.544Z" fill="#FFBD99"/>
<path d="M403.407 128.062C403.407 128.062 384.259 140.563 377.393 158.551" stroke="#2F3337" stroke-linecap="round" stroke-linejoin="round"/>
<path d="M404.346 136.815L391.504 138.067L394.64 127.438" stroke="#2F3337" stroke-linecap="round" stroke-linejoin="round"/>
<path d="M394.014 151.514H381.171L380.23 139.945" stroke="#2F3337" stroke-linecap="round" stroke-linejoin="round"/>
<path d="M347.886 239.174C347.886 239.174 355.198 239.512 358.615 234.032C362.032 228.552 359.787 223.32 356.577 222.925C353.366 222.529 351.971 226.509 350.799 224.573C349.627 222.636 354.216 219.085 349.05 215.789C343.883 212.493 341.481 217.222 339.847 215.533C338.213 213.844 339.393 209.436 335.985 207.499C332.576 205.563 330.983 207.969 329.093 208.051C327.203 208.134 321.269 204.937 318.9 207.45C316.531 209.963 322.201 216.028 319.536 216.209C316.87 216.39 315.789 221.573 317.951 224.935C320.113 228.297 327.087 229.624 325.726 231.371C324.364 233.117 317.712 233.019 320.427 236.933C323.142 240.847 332.337 241.11 333.632 241.572C334.928 242.033 329.39 243.055 330.331 246.73C331.272 250.405 338.914 250.85 343.833 248.493C348.752 246.137 347.886 239.174 347.886 239.174Z" fill="#FFBD99"/>
<path d="M326.758 214.445C326.758 214.445 342.299 224.589 347.87 239.165" stroke="#2F3337" stroke-linecap="round" stroke-linejoin="round"/>
<path d="M326.016 221.543L336.431 222.557L333.889 213.93" stroke="#2F3337" stroke-linecap="round" stroke-linejoin="round"/>
<path d="M334.4 233.471H344.816L345.575 224.086" stroke="#2F3337" stroke-linecap="round" stroke-linejoin="round"/>
<path d="M356.328 290.45C356.328 290.45 347.25 290.871 342.983 284.048C338.716 277.225 341.53 270.716 345.525 270.238C349.519 269.76 351.252 274.695 352.73 272.331C354.207 269.966 348.479 265.508 354.9 261.413C361.322 257.317 364.309 263.192 366.34 261.091C368.37 258.99 366.909 253.51 371.151 251.104C375.393 248.698 377.366 251.698 379.71 251.796C382.054 251.895 389.441 247.924 392.387 251.038C395.334 254.153 388.26 261.709 391.562 261.932C394.863 262.154 396.217 268.606 393.526 272.776C390.835 276.945 382.169 278.609 383.861 280.785C385.553 282.96 393.823 282.828 390.464 287.698C387.105 292.568 375.608 292.889 374.007 293.466C372.406 294.043 379.273 295.304 378.134 299.869C376.995 304.434 367.454 304.994 361.338 302.06C355.222 299.127 356.328 290.45 356.328 290.45Z" fill="#FFBD99"/>
<path d="M382.576 259.695C382.576 259.695 363.255 272.303 356.33 290.447" stroke="#2F3337" stroke-linecap="round" stroke-linejoin="round"/>
<path d="M383.524 268.53L370.574 269.791L373.727 259.07" stroke="#2F3337" stroke-linecap="round" stroke-linejoin="round"/>
<path d="M373.1 283.355H360.143L359.193 271.688" stroke="#2F3337" stroke-linecap="round" stroke-linejoin="round"/>
<path d="M369.583 210.572C369.583 210.572 358.557 209.089 354.95 199.976C351.343 190.862 356.122 183.636 361.016 183.933C365.911 184.229 366.926 190.525 369.22 188.011C371.515 185.498 365.613 178.898 374.222 175.371C382.83 171.844 385.133 179.565 388.038 177.481C390.943 175.396 390.382 168.499 396.002 166.53C401.623 164.56 403.339 168.59 406.137 169.224C408.935 169.859 418.682 166.694 421.538 171.086C424.394 175.478 414.267 183.01 418.237 183.998C422.207 184.987 422.363 193.062 418.237 197.463C414.11 201.863 403.323 201.986 404.875 204.969C406.426 207.952 416.429 209.6 411.287 214.725C406.145 219.851 392.305 217.733 390.241 218.021C388.178 218.31 396.175 221.392 393.774 226.616C391.372 231.84 379.817 230.447 373.14 225.594C366.463 220.741 369.583 210.572 369.583 210.572Z" fill="#FFBD99"/>
<path d="M407.846 179.352C407.846 179.352 381.873 190.286 369.584 210.573" stroke="#2F3337" stroke-linecap="round" stroke-linejoin="round"/>
<path d="M407.055 190.17L391.217 188.86L397.357 176.656" stroke="#2F3337" stroke-linecap="round" stroke-linejoin="round"/>
<path d="M391.282 205.705L375.725 202.887L377.136 188.656" stroke="#2F3337" stroke-linecap="round" stroke-linejoin="round"/>
<path d="M340.268 335.125C339.442 337.243 339.021 355.264 339.021 357.653C339.021 373.507 347.778 377.182 358.582 377.182C369.386 377.182 378.142 374.356 378.142 357.653C378.142 355.264 377.688 337.243 376.904 335.125H340.268Z" fill="#2F3337" stroke="#2F3337" stroke-linecap="round" stroke-linejoin="round"/>
<g opacity="0.5">
<g opacity="0.3">
<path d="M232.609 33.4375H123.285V170.477H232.609V33.4375Z" stroke="#181A1B" stroke-linecap="round" stroke-linejoin="round"/>
<path d="M129.26 135.698V40.9297H176.188" stroke="#181A1B" stroke-linecap="round" stroke-linejoin="round"/>
<path d="M185.325 40.9297H226.633V162.989H129.26V143.056" stroke="#181A1B" stroke-linecap="round" stroke-linejoin="round"/>
<path d="M201.106 108.329V130.98H154.797V72.9297H201.106V100.385" stroke="#181A1B" stroke-linecap="round" stroke-linejoin="round"/>
</g>
</g>
<path d="M172.93 289.578L185.376 375.373C185.418 375.666 185.564 375.935 185.789 376.129C186.013 376.322 186.3 376.429 186.597 376.428C186.771 376.428 186.943 376.391 187.102 376.32C187.261 376.248 187.403 376.144 187.518 376.014C187.634 375.884 187.72 375.731 187.772 375.565C187.824 375.399 187.84 375.224 187.819 375.052L177.576 290.394L172.93 289.578Z" fill="#2F3337" stroke="#2F3337" stroke-linecap="round" stroke-linejoin="round"/>
<path d="M142.169 279.446C142.169 279.446 155.547 277.963 167.638 279.256C172.723 279.8 190.657 281.201 190.079 285.411C189.502 289.622 185.68 291.336 184.913 291.336C184.145 291.336 112.523 296.28 111.376 295.159C110.228 294.039 109.081 291.336 109.84 289.803C110.6 288.271 142.169 279.446 142.169 279.446Z" fill="#ADB3B8" stroke="#2F3337" stroke-linecap="round" stroke-linejoin="round"/>
<path d="M90.7509 219.444C90.4376 219.396 90.1175 219.427 89.8189 219.532C89.5203 219.638 89.2526 219.816 89.0394 220.05C88.8262 220.284 88.6743 220.567 88.5971 220.874C88.5198 221.181 88.5197 221.502 88.5967 221.809C91.4772 233.888 104.559 288.388 105.929 289.78C107.505 291.346 114.108 294.485 116.939 294.172C119.77 293.859 133.602 289.467 143.671 280.988C153.74 272.509 160.335 263.404 159.707 257.751C159.08 252.099 155.581 247.081 152.478 246.454C149.374 245.828 136.747 246.767 125.745 243.315C114.743 239.862 105.615 234.21 100.589 227.305C96.8336 222.155 93.5983 219.946 90.7509 219.444Z" fill="#ADB3B8" stroke="#2F3337" stroke-linecap="round" stroke-linejoin="round"/>
<path d="M103.445 262.532L106.49 294.726L88.0274 375.247C87.9873 375.403 87.9834 375.567 88.016 375.725C88.0485 375.883 88.1167 376.032 88.2153 376.159C88.3139 376.287 88.4404 376.391 88.5852 376.463C88.73 376.535 88.8892 376.573 89.0508 376.574C89.284 376.574 89.5109 376.498 89.696 376.356C89.8811 376.215 90.0141 376.016 90.0743 375.791L111.376 295.13L122.105 294.726V292.542L111.178 291.718L105.062 262.227C105.029 262.057 104.942 261.901 104.815 261.783C104.687 261.664 104.525 261.589 104.353 261.568C104.225 261.553 104.095 261.568 103.974 261.612C103.853 261.657 103.744 261.728 103.656 261.822C103.567 261.916 103.502 262.029 103.466 262.152C103.429 262.275 103.422 262.406 103.445 262.532Z" fill="#2F3337" stroke="#2F3337" stroke-linecap="round" stroke-linejoin="round"/>
<path d="M393.598 289.578L381.177 375.373C381.135 375.665 380.989 375.932 380.767 376.126C380.544 376.32 380.259 376.427 379.963 376.428C379.789 376.429 379.616 376.393 379.456 376.322C379.296 376.252 379.153 376.148 379.037 376.017C378.92 375.887 378.833 375.734 378.781 375.567C378.729 375.401 378.713 375.225 378.734 375.052L388.951 290.394L393.598 289.578Z" fill="#2F3337" stroke="#2F3337" stroke-linecap="round" stroke-linejoin="round"/>
<path d="M424.36 279.446C424.36 279.446 410.981 277.963 398.89 279.256C393.806 279.8 375.871 281.201 376.449 285.411C377.027 289.622 380.856 291.336 381.616 291.336C382.375 291.336 454.006 296.28 455.153 295.159C456.3 294.039 457.456 291.336 456.688 289.803C455.921 288.271 424.36 279.446 424.36 279.446Z" fill="#ADB3B8" stroke="#2F3337" stroke-linecap="round" stroke-linejoin="round"/>
<path d="M475.777 219.443C476.09 219.396 476.41 219.427 476.709 219.533C477.008 219.639 477.276 219.816 477.489 220.05C477.703 220.284 477.856 220.566 477.934 220.873C478.013 221.18 478.014 221.501 477.939 221.808C475.05 233.888 461.969 288.387 460.607 289.78C459.03 291.345 452.428 294.485 449.597 294.172C446.766 293.859 432.933 289.467 422.873 280.988C412.812 272.509 406.201 263.404 406.828 257.751C407.455 252.098 410.955 247.08 414.066 246.454C417.178 245.828 429.789 246.767 440.791 243.314C451.792 239.862 460.921 234.209 465.955 227.304C469.694 222.154 472.937 219.946 475.777 219.443Z" fill="#ADB3B8" stroke="#2F3337" stroke-linecap="round" stroke-linejoin="round"/>
<path d="M463.091 262.531L460.037 294.724L478.5 375.246C478.54 375.402 478.544 375.565 478.511 375.724C478.479 375.882 478.411 376.03 478.312 376.158C478.213 376.286 478.087 376.39 477.942 376.461C477.797 376.533 477.638 376.571 477.476 376.572C477.243 376.573 477.016 376.496 476.831 376.355C476.646 376.213 476.513 376.015 476.453 375.79L455.151 295.161L444.422 294.757V292.574L455.349 291.75L461.465 262.259C461.499 262.088 461.585 261.933 461.713 261.814C461.84 261.696 462.002 261.621 462.175 261.6C462.3 261.585 462.427 261.598 462.547 261.64C462.666 261.682 462.774 261.75 462.862 261.84C462.951 261.93 463.017 262.039 463.057 262.159C463.097 262.279 463.108 262.406 463.091 262.531Z" fill="#2F3337" stroke="#2F3337" stroke-linecap="round" stroke-linejoin="round"/>
<path d="M165.476 377.434H159.756L156.893 244.242H168.34L165.476 377.434Z" fill="white" stroke="#2F3337" stroke-linecap="round" stroke-linejoin="round"/>
<path d="M157.074 252.598H168.158L168.34 244.242H156.893L157.074 252.598Z" fill="#2F3337" stroke="#2F3337" stroke-linecap="round" stroke-linejoin="round"/>
<path d="M407.638 377.434H401.919L399.055 244.242H410.502L407.638 377.434Z" fill="white" stroke="#2F3337" stroke-linecap="round" stroke-linejoin="round"/>
<path d="M399.236 252.598H410.32L410.502 244.242H399.055L399.236 252.598Z" fill="#2F3337" stroke="#2F3337" stroke-linecap="round" stroke-linejoin="round"/>
<path d="M414.035 234.07H152.99V247.938H414.035V234.07Z" fill="white" stroke="#2F3337" stroke-linecap="round" stroke-linejoin="round"/>
<path d="M414.035 234.07H152.99V241.008H414.035V234.07Z" fill="#2F3337" stroke="#2F3337" stroke-linecap="round" stroke-linejoin="round"/>
<path d="M419.721 234.07H147.303V239.344H419.721V234.07Z" fill="#FFBD99" stroke="#2F3337" stroke-linecap="round" stroke-linejoin="round"/>
<path d="M320.506 210.703H345.48L343.615 224.423C343.615 224.423 341.965 231.171 338.185 231.171H327.348C327.348 231.171 322.974 228.699 322.091 223.755L320.506 210.703Z" fill="#E0E0E0"/>
<path d="M320.506 210.7C320.539 210.844 320.564 210.989 320.581 211.136C320.622 211.441 320.68 211.853 320.754 212.356C320.894 213.452 321.109 214.993 321.365 216.929C321.621 218.865 321.934 221.23 322.289 223.917C322.63 225.383 323.264 226.766 324.151 227.984C325.039 229.201 326.163 230.228 327.456 231.003H327.357H336.014C336.774 231.003 337.558 231.003 338.317 231.003C339.06 230.966 339.769 230.675 340.323 230.179C341.451 229.073 342.3 227.714 342.799 226.216C343.022 225.639 343.212 225.05 343.368 224.452C344.037 219.607 344.664 214.993 345.25 210.741L345.448 210.963L327.546 210.823L322.38 210.774H320.993H320.498C320.646 210.76 320.795 210.76 320.944 210.774H322.289L327.414 210.716L345.473 210.617H345.704V210.84C345.126 215.092 344.507 219.714 343.847 224.559C343.682 225.177 343.484 225.779 343.261 226.372C342.726 227.938 341.82 229.351 340.62 230.492C340 231.062 339.2 231.397 338.358 231.44C337.533 231.44 336.807 231.44 336.039 231.44H327.381H327.332H327.291C325.956 230.632 324.8 229.563 323.89 228.297C322.981 227.031 322.338 225.594 322 224.073C321.645 221.329 321.398 218.923 321.175 216.954C320.952 214.984 320.795 213.476 320.68 212.389C320.622 211.894 320.589 211.499 320.556 211.194C320.522 211.031 320.506 210.866 320.506 210.7Z" fill="#2F3337"/>
<path d="M343.616 217.774L343.988 217.683C343.988 217.683 344.227 217.642 344.029 217.683C343.831 217.725 344.095 217.683 344.144 217.683C344.419 217.666 344.695 217.666 344.97 217.683C344.706 217.683 344.97 217.683 345.069 217.683L345.49 217.791L345.853 217.914C346.01 217.914 345.803 217.914 345.778 217.914L346.01 218.021C346.248 218.149 346.48 218.289 346.703 218.441L346.645 218.4L346.785 218.524C346.893 218.623 347 218.722 347.099 218.829C347.198 218.936 347.33 219.117 347.182 218.911C347.264 219.027 347.355 219.15 347.429 219.274L347.602 219.62C347.693 219.76 347.602 219.57 347.602 219.546C347.602 219.521 347.66 219.71 347.685 219.785C347.734 219.928 347.775 220.074 347.809 220.221C347.809 220.279 347.883 220.633 347.858 220.46C347.834 220.287 347.858 220.642 347.858 220.699C347.867 220.85 347.867 221.001 347.858 221.152C347.858 221.235 347.858 221.317 347.858 221.408C347.858 221.499 347.858 221.647 347.858 221.457C347.837 221.536 347.821 221.616 347.809 221.696C347.776 221.828 347.743 221.952 347.71 222.067C347.71 222.166 347.536 222.512 347.652 222.248C347.536 222.499 347.404 222.741 347.256 222.973L347.14 223.13C347.14 223.13 347.297 222.957 347.14 223.072C346.983 223.188 346.917 223.32 346.794 223.435C346.67 223.55 346.48 223.682 346.604 223.6C346.728 223.517 346.447 223.699 346.397 223.723C346.348 223.748 346.183 223.855 346.067 223.913L345.902 223.995C346.092 223.896 345.993 223.954 345.853 223.995C345.582 224.088 345.307 224.165 345.027 224.226C344.854 224.267 345.093 224.226 345.118 224.226H344.862H344.359H344.177C344.136 224.226 343.864 224.226 344.062 224.226C344.26 224.226 344.062 224.226 344.02 224.226L343.773 224.177L343.294 224.036H343.236C343.426 224.119 343.08 223.954 343.08 223.954C342.732 223.76 342.323 223.708 341.938 223.809C341.553 223.911 341.222 224.158 341.016 224.498C340.82 224.843 340.767 225.251 340.869 225.635C340.971 226.018 341.219 226.347 341.561 226.55C343.001 227.297 344.67 227.474 346.235 227.046C347.8 226.619 349.146 225.617 350.004 224.242C350.823 222.806 351.076 221.117 350.714 219.504C350.532 218.72 350.196 217.98 349.726 217.327C349.256 216.673 348.66 216.12 347.974 215.698C347.218 215.223 346.371 214.909 345.488 214.776C344.605 214.643 343.703 214.693 342.84 214.923C342.462 215.038 342.144 215.297 341.955 215.644C341.766 215.991 341.721 216.397 341.829 216.777C341.937 217.157 342.19 217.479 342.533 217.675C342.877 217.871 343.283 217.924 343.666 217.823L343.616 217.774Z" fill="#E0E0E0"/>
<path d="M343.615 217.781C343.456 217.857 343.279 217.888 343.103 217.872C342.766 217.848 342.445 217.717 342.187 217.499C341.93 217.28 341.749 216.984 341.671 216.656C341.594 216.327 341.624 215.982 341.757 215.672C341.89 215.361 342.119 215.101 342.41 214.93C342.868 214.71 343.364 214.581 343.871 214.551C344.419 214.483 344.974 214.483 345.522 214.551C346.804 214.748 348 215.322 348.955 216.199C350.078 217.192 350.797 218.561 350.977 220.047C351.195 221.684 350.801 223.345 349.871 224.711C349.359 225.432 348.702 226.039 347.941 226.493C347.181 226.947 346.335 227.238 345.456 227.348C344.676 227.455 343.883 227.43 343.112 227.274C342.736 227.189 342.366 227.079 342.006 226.944L341.486 226.713C341.291 226.627 341.119 226.497 340.982 226.334C340.711 226.03 340.558 225.638 340.549 225.231C340.541 224.823 340.678 224.426 340.936 224.111C341.195 223.795 341.557 223.582 341.959 223.509C342.361 223.436 342.775 223.509 343.128 223.714L342.839 223.895C342.839 223.847 342.856 223.8 342.888 223.763C342.92 223.727 342.964 223.703 343.013 223.697C343.128 223.697 343.136 223.697 343.128 223.697H343.169H343.244H343.285C343.285 223.59 343.442 224.01 343.194 224.052H343.062H342.98C342.955 224.039 342.933 224.022 342.914 224.002C342.815 223.557 343.227 223.681 343.103 223.673H343.153H343.194H343.26L343.417 223.722C343.619 223.79 343.826 223.842 344.036 223.879C344.036 223.879 343.995 223.879 344.143 223.936C344.143 223.936 344.209 223.936 344.201 224.118C344.193 224.159 344.171 224.196 344.14 224.224C344.109 224.252 344.07 224.27 344.028 224.274H343.929H343.846H343.788C343.788 224.274 343.673 224.216 343.739 224.035C343.805 223.854 343.879 223.936 343.896 223.928H344.077H344.391C344.597 223.94 344.804 223.94 345.01 223.928V224.307H344.936H344.837C344.814 224.309 344.79 224.306 344.769 224.297C344.747 224.288 344.728 224.275 344.713 224.258C344.685 224.23 344.666 224.196 344.657 224.158C344.648 224.12 344.65 224.08 344.663 224.043L344.705 223.978C344.82 223.903 344.779 223.977 344.795 223.928L344.96 223.879L345.291 223.796L345.612 223.714L345.761 223.664C345.67 223.59 345.711 224.035 345.868 223.986L345.703 223.656C345.852 223.582 345.992 223.508 346.124 223.425C346.196 223.39 346.265 223.349 346.33 223.302H346.38C346.417 223.289 346.458 223.289 346.496 223.302C346.533 223.311 346.568 223.331 346.595 223.36C346.626 223.393 346.643 223.437 346.643 223.483C346.643 223.529 346.626 223.573 346.595 223.607L346.537 223.648C346.5 223.662 346.459 223.662 346.421 223.648C346.39 223.642 346.361 223.628 346.336 223.608C346.312 223.588 346.293 223.562 346.281 223.533C346.223 223.434 346.355 223.294 346.322 223.335C346.447 223.242 346.563 223.137 346.669 223.022L346.826 222.857L346.867 222.816C346.867 222.816 347.057 222.816 347.098 222.931C347.139 223.046 347.098 223.022 347.098 223.046L347.024 223.121L346.743 222.915C346.941 222.643 347.082 222.338 347.247 222.091L347.552 222.239V222.288V222.33C347.552 222.33 347.552 222.371 347.42 222.379C347.397 222.377 347.375 222.37 347.355 222.36C347.334 222.349 347.317 222.334 347.302 222.317C347.287 222.299 347.276 222.279 347.27 222.257C347.263 222.235 347.261 222.212 347.263 222.189V222.148L347.313 222.033C347.313 221.95 347.362 221.901 347.387 221.827C347.412 221.753 347.469 221.547 347.494 221.398V221.283C347.504 221.246 347.528 221.213 347.56 221.192C347.584 221.179 347.611 221.171 347.639 221.171C347.666 221.171 347.693 221.179 347.717 221.192C347.743 221.203 347.766 221.22 347.783 221.242C347.791 221.261 347.796 221.282 347.796 221.304C347.796 221.325 347.791 221.346 347.783 221.365V221.538C347.899 221.67 347.321 221.604 347.478 221.538V221.456C347.478 221.456 347.478 221.398 347.478 221.357C347.486 221.217 347.486 221.077 347.478 220.937C347.478 220.797 347.478 220.673 347.478 220.525V220.41C347.475 220.385 347.48 220.36 347.491 220.338C347.503 220.315 347.521 220.297 347.544 220.286C347.568 220.273 347.595 220.266 347.622 220.266C347.649 220.266 347.676 220.273 347.701 220.286C347.724 220.301 347.743 220.32 347.758 220.344C347.758 220.401 347.758 220.401 347.758 220.401V220.484C347.758 220.484 347.758 220.484 347.758 220.533C347.763 220.552 347.763 220.572 347.758 220.591C347.738 220.621 347.709 220.643 347.676 220.657C347.641 220.666 347.603 220.663 347.57 220.648C347.537 220.633 347.51 220.607 347.494 220.574C347.471 220.496 347.455 220.416 347.445 220.335C347.389 220.088 347.32 219.843 347.238 219.602L347.494 219.503V219.553V219.594C347.494 219.594 347.494 219.701 347.379 219.742C347.263 219.783 347.28 219.742 347.263 219.742L347.189 219.61L347.065 219.38C346.982 219.231 346.892 219.108 346.809 218.976L347.024 218.827L347.065 218.885C347.074 218.904 347.079 218.926 347.079 218.947C347.079 218.968 347.074 218.99 347.065 219.009C346.925 219.174 346.826 219.009 346.859 219.009L346.776 218.91C346.728 218.848 346.676 218.791 346.619 218.737C346.512 218.63 346.405 218.523 346.289 218.424L346.454 218.259L346.512 218.3C346.248 218.663 346.405 218.383 346.355 218.473L346.215 218.383L345.951 218.218C345.789 218.106 345.618 218.01 345.439 217.929L345.53 217.748H345.612H345.662C345.662 217.748 345.72 217.872 345.662 217.905H345.612H345.571H345.522L345.34 217.847C345.233 217.801 345.123 217.765 345.01 217.74L344.705 217.657H344.556C344.622 217.657 344.424 217.74 344.556 217.501H344.688V217.649H343.97H343.689C343.689 217.649 343.648 217.649 343.648 217.575H343.78C343.78 217.575 343.78 217.534 343.83 217.624C343.879 217.715 343.83 217.624 343.788 217.624H343.706C343.571 217.657 343.432 217.677 343.293 217.682C343.422 217.619 343.558 217.572 343.698 217.542H343.772C343.772 217.542 343.821 217.583 343.772 217.591H343.656C343.656 217.591 343.656 217.591 343.656 217.542H344.655V217.69H344.531C344.663 217.451 344.465 217.559 344.531 217.534H344.688L345.01 217.6L345.357 217.699L345.538 217.756H345.579C345.513 218.02 345.505 217.921 345.497 217.929H345.39L345.48 217.748C345.665 217.824 345.842 217.917 346.009 218.028L346.289 218.193L346.438 218.284L346.388 218.374C346.388 218.374 346.429 218.292 346.339 218.374C346.248 218.457 346.339 218.374 346.339 218.415L346.248 218.35L346.413 218.185C346.532 218.279 346.645 218.381 346.751 218.49C346.816 218.546 346.877 218.606 346.933 218.671L347.015 218.77C347.015 218.77 346.958 218.819 346.941 218.819C346.941 218.819 346.941 218.819 346.941 218.869H346.892L346.85 218.819L347.065 218.671C347.156 218.803 347.255 218.943 347.337 219.083L347.469 219.314C347.469 219.355 347.544 219.38 347.469 219.437C347.441 219.455 347.416 219.477 347.395 219.503H347.304H347.263V219.421L347.519 219.322C347.618 219.576 347.698 219.838 347.758 220.105V220.204V220.286C347.758 220.286 347.758 220.286 347.668 220.286C347.577 220.286 347.618 220.286 347.61 220.286C347.597 220.28 347.583 220.277 347.568 220.277C347.554 220.277 347.54 220.28 347.527 220.286H347.461V220.237C347.502 220.237 347.519 220.237 347.552 220.237C347.571 220.242 347.591 220.242 347.61 220.237C347.61 220.237 347.659 220.237 347.668 220.237H347.758V220.311C347.766 220.456 347.766 220.602 347.758 220.747C347.767 220.896 347.767 221.044 347.758 221.192C347.758 221.192 347.758 221.283 347.758 221.308C347.714 221.304 347.67 221.304 347.626 221.308H347.445V221.225H347.502C347.502 221.225 347.61 221.225 347.593 221.225C347.833 221.225 347.734 221.225 347.758 221.225V221.332C347.73 221.485 347.695 221.637 347.651 221.786C347.631 221.864 347.606 221.941 347.577 222.016L347.742 222.362C347.313 222.189 347.469 222.239 347.453 222.214V222.156L347.758 222.305C347.585 222.593 347.445 222.915 347.23 223.211L346.949 223.005L347.032 222.915C347.032 222.915 347.032 222.915 347.098 222.956C347.164 222.997 347.164 222.997 347.189 223.038L347.23 223.096C347.23 223.096 347.296 223.17 347.28 223.154V223.195L347.115 223.36C347.008 223.482 346.889 223.592 346.76 223.689C346.685 223.623 346.677 223.565 346.652 223.582C346.628 223.598 346.652 223.541 346.652 223.524L346.595 223.425H346.636C346.636 223.425 346.694 223.491 346.636 223.5C346.578 223.508 346.636 223.598 346.677 223.598C346.718 223.541 346.718 223.598 346.677 223.598C346.677 223.621 346.682 223.643 346.694 223.662C346.706 223.681 346.723 223.696 346.743 223.706H346.694C346.625 223.754 346.553 223.798 346.479 223.837L346.033 224.085L345.868 223.755H345.943H345.992C345.992 223.755 345.992 223.755 346.05 223.755C346.108 223.755 346.248 224.159 346.157 224.076H346.108H346.058L345.885 224.142L345.546 224.233L345.208 224.324H345.043C345.043 224.324 345.043 224.414 344.985 224.159C344.985 224.159 344.985 223.936 344.985 223.961H345.035H345.134V224.34C344.911 224.353 344.688 224.353 344.465 224.34C344.35 224.348 344.234 224.348 344.119 224.34H344.003C343.999 224.277 343.999 224.214 344.003 224.151C344.003 224.101 344.003 224.035 344.003 223.986H344.127C344.127 224.035 344.127 224.076 344.127 224.085C344.105 224.101 344.091 224.124 344.086 224.151C344.086 224.151 344.086 224.208 344.086 224.241C344.093 224.271 344.093 224.302 344.086 224.332C343.858 224.298 343.634 224.243 343.417 224.167L343.244 224.118H343.153V224.052C343.157 224.013 343.157 223.975 343.153 223.936C343.301 223.648 343.227 223.78 343.252 223.747H343.326C343.326 223.747 343.326 223.747 343.326 223.804C343.326 223.862 343.326 223.928 343.277 223.953L343.186 224.109H343.112C343.112 224.109 343.112 224.109 343.227 224.109C343.257 224.103 343.285 224.09 343.309 224.072C343.334 224.053 343.354 224.029 343.368 224.002C343.374 223.984 343.374 223.963 343.368 223.945C343.368 223.945 343.368 223.945 343.219 223.903L343.079 224.085C342.813 223.941 342.507 223.888 342.208 223.936C341.91 223.984 341.635 224.129 341.428 224.348C341.237 224.595 341.134 224.898 341.134 225.209C341.134 225.521 341.237 225.824 341.428 226.07C341.681 226.289 341.976 226.455 342.295 226.557C342.633 226.683 342.981 226.785 343.335 226.862C344.057 227.011 344.8 227.034 345.53 226.927C346.352 226.823 347.143 226.549 347.853 226.124C348.563 225.698 349.178 225.13 349.657 224.455C350.534 223.172 350.91 221.613 350.713 220.072C350.554 218.677 349.891 217.388 348.848 216.446C347.946 215.611 346.818 215.058 345.604 214.856C344.615 214.673 343.594 214.758 342.649 215.103C342.477 215.2 342.327 215.331 342.207 215.488C342.088 215.645 342.002 215.826 341.956 216.018C341.877 216.346 341.93 216.692 342.105 216.982C342.218 217.189 342.379 217.366 342.574 217.499C342.769 217.632 342.993 217.717 343.227 217.748C343.356 217.765 343.485 217.777 343.615 217.781Z" fill="#2F3337"/>
<path d="M349.121 233.19L340.785 233.734H326.597L317.172 233.19V230.727H349.121V233.19Z" fill="#E0E0E0"/>
<path d="M349.12 233.185C349.102 232.968 349.102 232.751 349.12 232.534C349.12 232.089 349.12 231.488 349.071 230.721L349.153 230.795C344.16 230.878 331.731 230.935 317.205 230.935L317.419 230.721V233.193L317.213 232.979L323.717 233.366L326.787 233.539H329.742L339.885 233.58C340.565 233.6 341.246 233.58 341.924 233.523L343.731 233.424L346.628 233.284L348.485 233.201C348.914 233.201 349.137 233.201 349.153 233.201C348.952 233.238 348.748 233.263 348.543 233.276L346.719 233.432L343.797 233.663L341.957 233.803C341.271 233.868 340.582 233.898 339.893 233.894L329.733 233.943H326.779C325.772 233.902 324.748 233.836 323.7 233.778L317.188 233.407H316.99V230.746V230.523H317.205C331.731 230.523 344.16 230.581 349.153 230.664H349.236V230.746C349.236 231.529 349.236 232.147 349.195 232.608C349.179 232.802 349.155 232.994 349.12 233.185Z" fill="#2F3337"/>
<path d="M257.123 210.703H232.148L234.014 224.423C234.014 224.423 235.664 231.171 239.444 231.171H250.265C250.265 231.171 254.639 228.699 255.53 223.755L257.123 210.703Z" fill="#E0E0E0"/>
<path d="M257.123 210.7C257.09 210.844 257.065 210.989 257.049 211.136C257.008 211.441 256.95 211.853 256.875 212.356C256.727 213.452 256.521 214.993 256.256 216.929C255.992 218.865 255.687 221.23 255.332 223.917C254.992 225.383 254.36 226.766 253.474 227.983C252.588 229.2 251.466 230.227 250.174 231.003H250.265H241.615C240.856 231.003 240.072 231.003 239.312 231.003C238.569 230.968 237.86 230.676 237.307 230.179C236.178 229.073 235.329 227.714 234.831 226.216C234.609 225.638 234.416 225.049 234.253 224.452L232.363 210.741L232.173 210.963L250.066 210.823L255.241 210.774H256.628H257.123C256.975 210.76 256.826 210.76 256.677 210.774H255.332L250.207 210.716L232.148 210.617H231.917V210.84C232.487 215.092 233.114 219.714 233.766 224.559C233.924 225.175 234.12 225.78 234.352 226.372C234.884 227.937 235.787 229.351 236.985 230.492C237.605 231.061 238.405 231.396 239.246 231.44C240.072 231.44 240.806 231.44 241.574 231.44H250.223H250.281H250.322C251.655 230.631 252.81 229.562 253.718 228.296C254.626 227.03 255.267 225.593 255.604 224.073C255.968 221.329 256.207 218.923 256.43 216.954C256.653 214.984 256.809 213.476 256.925 212.389C256.974 211.894 257.016 211.499 257.049 211.194C257.091 211.032 257.115 210.867 257.123 210.7Z" fill="#2F3337"/>
<path d="M234.022 217.778L233.659 217.688C233.659 217.688 233.419 217.646 233.609 217.688C233.799 217.729 233.551 217.688 233.502 217.688C233.227 217.671 232.951 217.671 232.676 217.688C232.949 217.688 232.718 217.688 232.586 217.688L232.156 217.795L231.802 217.918C231.637 217.918 231.851 217.918 231.868 217.918L231.645 218.026C231.405 218.151 231.174 218.291 230.951 218.446C230.803 218.545 230.993 218.446 231.001 218.405L230.861 218.528C230.753 218.624 230.651 218.725 230.555 218.833C230.473 218.915 230.316 219.121 230.465 218.915C230.382 219.031 230.299 219.154 230.225 219.278C230.151 219.402 230.11 219.509 230.044 219.624C229.978 219.739 230.044 219.575 230.044 219.55C230.044 219.525 229.986 219.715 229.961 219.789C229.912 219.932 229.871 220.078 229.837 220.226C229.837 220.283 229.763 220.638 229.788 220.465C229.813 220.291 229.788 220.646 229.788 220.704C229.779 220.854 229.779 221.006 229.788 221.157C229.788 221.239 229.788 221.322 229.788 221.412C229.788 221.503 229.788 221.651 229.788 221.462C229.788 221.272 229.829 221.651 229.846 221.701C229.869 221.827 229.902 221.95 229.945 222.071C229.945 222.17 230.118 222.516 229.994 222.253C230.109 222.505 230.245 222.747 230.399 222.978L230.514 223.134C230.514 223.134 230.357 222.961 230.514 223.077C230.671 223.192 230.745 223.324 230.869 223.439C230.993 223.555 231.183 223.686 231.051 223.604C230.918 223.522 231.216 223.703 231.265 223.728L231.587 223.917L231.76 224C231.57 223.901 231.661 223.958 231.802 224C232.072 224.092 232.348 224.169 232.627 224.23C232.792 224.271 232.561 224.23 232.536 224.23H232.784H233.287H233.477C233.477 224.23 233.782 224.23 233.584 224.23C233.386 224.23 233.584 224.23 233.634 224.23L233.881 224.181L234.36 224.041C234.36 224.041 234.575 223.95 234.41 224.041C234.245 224.131 234.575 223.958 234.575 223.958C234.902 223.841 235.26 223.84 235.587 223.956C235.915 224.073 236.192 224.299 236.371 224.596C236.55 224.894 236.621 225.244 236.57 225.588C236.519 225.931 236.351 226.246 236.093 226.48C234.652 227.225 232.982 227.402 231.416 226.974C229.85 226.547 228.503 225.547 227.642 224.173C226.831 222.734 226.578 221.047 226.932 219.435C227.117 218.651 227.455 217.911 227.926 217.258C228.398 216.605 228.994 216.051 229.68 215.628C230.435 215.153 231.28 214.839 232.162 214.706C233.044 214.572 233.944 214.623 234.806 214.853C235 214.904 235.182 214.993 235.341 215.115C235.501 215.237 235.634 215.39 235.734 215.564C235.833 215.738 235.897 215.931 235.921 216.13C235.945 216.329 235.929 216.531 235.875 216.724C235.82 216.916 235.727 217.096 235.601 217.253C235.476 217.41 235.321 217.54 235.144 217.636C234.968 217.732 234.774 217.791 234.574 217.812C234.374 217.832 234.173 217.812 233.98 217.754L234.022 217.778Z" fill="#E0E0E0"/>
<path d="M234.022 217.78C234.184 217.855 234.364 217.886 234.542 217.871C234.877 217.849 235.196 217.72 235.454 217.505C235.711 217.29 235.894 216.998 235.974 216.673C236.055 216.347 236.03 216.005 235.903 215.694C235.776 215.384 235.554 215.122 235.268 214.946C234.81 214.727 234.314 214.598 233.807 214.567C233.259 214.499 232.705 214.499 232.157 214.567C230.873 214.762 229.678 215.336 228.723 216.215C227.601 217.207 226.881 218.576 226.701 220.063C226.48 221.7 226.874 223.362 227.807 224.727C228.319 225.448 228.977 226.055 229.737 226.509C230.497 226.963 231.344 227.254 232.223 227.363C233 227.471 233.79 227.446 234.558 227.289C234.937 227.204 235.309 227.094 235.673 226.96L236.192 226.729C236.384 226.638 236.556 226.509 236.696 226.35C236.972 226.045 237.128 225.652 237.138 225.242C237.148 224.831 237.01 224.431 236.749 224.114C236.488 223.796 236.122 223.583 235.717 223.513C235.312 223.442 234.895 223.519 234.542 223.73L234.839 223.911C234.838 223.863 234.82 223.817 234.788 223.781C234.756 223.745 234.713 223.721 234.666 223.713C234.542 223.713 234.542 223.713 234.55 223.713H234.443H234.36H234.319C234.319 223.606 234.162 224.026 234.41 224.067H234.443H234.525H234.567L234.633 224.018C234.732 223.573 234.319 223.697 234.443 223.688H234.393H234.327L234.17 223.738C233.968 223.805 233.761 223.858 233.551 223.894C233.551 223.894 233.593 223.894 233.436 223.952C233.412 223.975 233.395 224.004 233.385 224.036C233.375 224.067 233.372 224.101 233.378 224.133C233.389 224.173 233.411 224.209 233.442 224.237C233.472 224.265 233.51 224.283 233.551 224.29H233.617H233.708H233.766H233.807C233.807 224.29 233.915 224.232 233.857 224.051C233.799 223.87 233.716 223.952 233.7 223.944H233.518H233.205C232.996 223.956 232.786 223.956 232.578 223.944V224.323H232.644H232.743C232.767 224.325 232.792 224.322 232.815 224.314C232.837 224.305 232.858 224.291 232.875 224.273C232.902 224.246 232.922 224.211 232.93 224.173C232.939 224.135 232.937 224.096 232.924 224.059C232.883 223.985 232.924 224.01 232.875 223.993C232.825 223.977 232.809 223.993 232.792 223.944L232.619 223.894L232.297 223.812L231.975 223.73L231.826 223.68C231.909 223.606 231.876 224.051 231.719 224.001H231.645H231.711L231.884 223.672C231.727 223.598 231.595 223.523 231.455 223.441L231.257 223.318H231.199C231.162 223.306 231.121 223.306 231.084 223.318C231.043 223.326 231.006 223.346 230.976 223.375C230.95 223.411 230.935 223.454 230.935 223.499C230.935 223.543 230.95 223.587 230.976 223.622L231.034 223.664C231.072 223.676 231.112 223.676 231.15 223.664C231.182 223.657 231.212 223.644 231.238 223.624C231.264 223.604 231.284 223.578 231.298 223.548C231.356 223.449 231.224 223.309 231.249 223.35C231.126 223.257 231.013 223.152 230.91 223.037L230.745 222.873L230.704 222.831H230.663C230.663 222.831 230.473 222.831 230.432 222.947C230.39 223.062 230.432 223.037 230.432 223.062L230.506 223.136L230.787 222.93C230.604 222.665 230.436 222.39 230.283 222.106L229.978 222.255V222.304V222.345C229.978 222.345 229.978 222.386 230.11 222.395C230.242 222.403 230.258 222.205 230.258 222.205V222.164V222.049C230.228 221.982 230.203 221.913 230.184 221.843C230.141 221.702 230.105 221.559 230.077 221.414V221.299C230.077 221.299 230.077 221.299 230.019 221.208C229.994 221.194 229.965 221.187 229.936 221.187C229.908 221.187 229.879 221.194 229.854 221.208C229.832 221.22 229.812 221.237 229.796 221.258C229.781 221.297 229.781 221.341 229.796 221.381V221.439V221.538C229.681 221.67 230.258 221.604 230.102 221.538V221.439C230.097 221.406 230.097 221.373 230.102 221.34C230.089 221.2 230.089 221.059 230.102 220.92C230.089 220.783 230.089 220.645 230.102 220.508V220.392C230.104 220.367 230.098 220.341 230.084 220.319C230.071 220.296 230.051 220.279 230.027 220.269C230.003 220.256 229.976 220.25 229.949 220.25C229.922 220.25 229.895 220.256 229.87 220.269C229.85 220.284 229.833 220.304 229.821 220.326C229.821 220.384 229.821 220.384 229.821 220.384V220.516V220.574C229.821 220.574 229.821 220.574 229.903 220.64C229.986 220.705 230.085 220.582 230.077 220.557C230.069 220.532 230.077 220.401 230.135 220.318C230.183 220.068 230.252 219.823 230.341 219.585L230.077 219.486V219.535V219.577C230.074 219.611 230.085 219.646 230.106 219.673C230.127 219.7 230.158 219.719 230.192 219.725C230.3 219.725 230.3 219.725 230.308 219.725L230.382 219.593L230.498 219.362C230.58 219.214 230.671 219.09 230.754 218.959L230.547 218.81L230.506 218.868C230.495 218.887 230.489 218.908 230.489 218.93C230.489 218.951 230.495 218.973 230.506 218.992C230.646 219.156 230.745 218.992 230.721 218.992L230.795 218.893C230.846 218.831 230.901 218.773 230.96 218.72C231.067 218.612 231.166 218.505 231.282 218.406L231.125 218.242L231.067 218.283H231.026C231.29 218.645 231.133 218.365 231.174 218.456L231.315 218.365L231.587 218.2C231.747 218.091 231.915 217.994 232.091 217.912L232.008 217.731H231.926H231.876C231.876 217.731 231.826 217.854 231.876 217.887H231.926H231.983L232.157 217.83C232.266 217.784 232.379 217.748 232.495 217.723L232.8 217.64H232.941C232.866 217.64 233.073 217.723 232.941 217.484H232.809V217.632H233.527H233.799C233.799 217.632 233.849 217.632 233.84 217.558H233.716C233.716 217.558 233.716 217.517 233.716 217.607H233.617C233.753 217.639 233.891 217.659 234.03 217.665C234.03 217.665 233.906 217.607 233.634 217.525H233.551C233.551 217.607 233.502 217.566 233.551 217.574H233.675C233.675 217.574 233.675 217.574 233.675 217.525H232.677V217.673H232.792C232.668 217.434 232.866 217.541 232.792 217.517H232.635L232.305 217.582L231.967 217.681L231.785 217.739C231.851 218.003 231.851 217.904 231.868 217.912H231.967L231.884 217.731C231.699 217.806 231.522 217.9 231.356 218.011L231.067 218.176L230.919 218.266L230.968 218.357C230.968 218.357 230.919 218.275 231.009 218.357C231.1 218.439 231.009 218.357 231.009 218.398L231.092 218.332L230.935 218.168C230.814 218.26 230.701 218.362 230.597 218.472C230.532 218.529 230.471 218.589 230.415 218.654L230.333 218.753C230.333 218.753 230.39 218.802 230.407 218.802C230.407 218.802 230.407 218.802 230.448 218.851H230.498V218.802L230.291 218.654L230.011 219.066L229.887 219.296C229.887 219.338 229.813 219.362 229.887 219.42C229.918 219.437 229.946 219.46 229.969 219.486H230.06H230.102V219.404L229.837 219.305C229.742 219.56 229.662 219.822 229.598 220.087V220.186V220.269C229.598 220.269 229.598 220.269 229.689 220.269C229.78 220.269 229.738 220.269 229.747 220.269C229.758 220.263 229.771 220.26 229.784 220.26C229.797 220.26 229.809 220.263 229.821 220.269H229.887V220.219C229.846 220.219 229.829 220.219 229.804 220.219C229.795 220.223 229.785 220.225 229.776 220.225C229.766 220.225 229.756 220.223 229.747 220.219C229.747 220.219 229.689 220.219 229.681 220.219H229.59V220.293C229.577 220.439 229.577 220.585 229.59 220.73C229.582 220.878 229.582 221.027 229.59 221.175C229.585 221.213 229.585 221.252 229.59 221.29C229.631 221.285 229.673 221.285 229.714 221.29H229.903V221.208H229.846C229.846 221.208 229.738 221.208 229.755 221.208C229.507 221.208 229.606 221.208 229.59 221.208V221.315C229.621 221.468 229.659 221.619 229.705 221.768C229.725 221.847 229.75 221.924 229.78 221.999V222.098C230.209 221.925 230.052 221.974 230.077 221.95V221.892L229.771 222.04C229.927 222.354 230.104 222.656 230.3 222.947L230.572 222.741L230.498 222.65C230.498 222.65 230.498 222.65 230.432 222.691C230.366 222.732 230.366 222.732 230.341 222.774L230.3 222.831C230.3 222.831 230.234 222.905 230.25 222.889L230.291 222.93L230.456 223.095C230.56 223.217 230.676 223.328 230.803 223.425C230.877 223.359 230.886 223.301 230.91 223.318C230.935 223.334 230.91 223.276 230.91 223.26L230.968 223.161C230.968 223.161 230.91 223.227 230.968 223.235C231.026 223.243 230.968 223.334 230.919 223.334C230.919 223.276 230.869 223.334 230.919 223.334C230.917 223.356 230.911 223.377 230.899 223.396C230.888 223.415 230.872 223.43 230.853 223.441H230.902C230.969 223.492 231.041 223.536 231.117 223.573C231.258 223.663 231.404 223.746 231.554 223.82L231.727 223.491H231.645C231.645 223.491 231.645 223.491 231.579 223.491C231.513 223.491 231.389 223.894 231.472 223.812H231.529H231.579L231.752 223.878L232.082 223.968L232.421 224.059H232.586C232.586 224.059 232.586 224.15 232.652 223.894C232.652 223.894 232.652 223.672 232.652 223.697H232.611H232.503V224.076C232.726 224.088 232.949 224.088 233.172 224.076C233.284 224.084 233.398 224.084 233.51 224.076H233.634C233.642 224.013 233.642 223.949 233.634 223.886C233.634 223.837 233.634 223.771 233.634 223.721H233.51C233.51 223.771 233.51 223.812 233.51 223.82C233.515 223.831 233.517 223.842 233.517 223.853C233.517 223.864 233.515 223.876 233.51 223.886C233.51 223.886 233.51 223.944 233.51 223.977C233.503 224.007 233.503 224.038 233.51 224.067C233.74 224.034 233.967 223.979 234.187 223.903L234.352 223.853H234.443H234.484V223.787L234.443 223.672C234.294 223.383 234.369 223.515 234.352 223.482H234.278C234.278 223.482 234.278 223.482 234.278 223.54C234.278 223.598 234.278 223.664 234.327 223.688L234.418 223.845H234.459H234.534H234.575C234.575 223.845 234.575 223.845 234.459 223.845C234.475 223.9 234.469 223.959 234.443 224.01C234.439 223.991 234.439 223.971 234.443 223.952C234.443 223.952 234.443 223.952 234.591 223.911L234.732 224.092C234.998 223.949 235.303 223.898 235.602 223.946C235.9 223.993 236.174 224.137 236.382 224.356C236.574 224.602 236.679 224.905 236.679 225.217C236.679 225.529 236.574 225.832 236.382 226.078C236.142 226.292 235.861 226.457 235.557 226.564C235.218 226.691 234.871 226.792 234.517 226.869C233.795 227.019 233.052 227.041 232.322 226.935C231.5 226.83 230.709 226.557 229.998 226.131C229.288 225.706 228.674 225.138 228.195 224.463C227.311 223.183 226.934 221.621 227.139 220.079C227.293 218.683 227.957 217.392 229.004 216.454C229.903 215.618 231.028 215.065 232.239 214.863C233.231 214.68 234.254 214.765 235.202 215.11C235.372 215.21 235.521 215.342 235.64 215.499C235.759 215.656 235.846 215.835 235.895 216.025C235.971 216.354 235.918 216.699 235.747 216.989C235.632 217.195 235.471 217.372 235.276 217.505C235.081 217.638 234.858 217.724 234.624 217.756C234.424 217.778 234.223 217.787 234.022 217.78Z" fill="#2F3337"/>
<path d="M228.501 233.19L236.836 233.734H251.024L260.449 233.19V230.727H228.501V233.19Z" fill="#E0E0E0"/>
<path d="M228.501 233.185C228.501 233.185 228.501 232.954 228.501 232.534C228.501 232.114 228.501 231.488 228.55 230.721L228.468 230.795C233.42 230.878 245.882 230.935 260.416 230.935L260.202 230.721V233.193L260.4 232.979L253.904 233.366L250.826 233.539H247.879L237.736 233.58C237.056 233.6 236.375 233.58 235.698 233.523L233.89 233.424L230.985 233.284L229.136 233.201C228.707 233.201 228.476 233.201 228.468 233.201C228.67 233.238 228.873 233.263 229.078 233.276L230.894 233.432L233.824 233.663L235.665 233.803C236.317 233.861 237.01 233.902 237.72 233.894L247.888 233.943H250.842C251.841 233.902 252.873 233.836 253.921 233.778L260.425 233.407H260.631V230.746V230.523H260.416C245.882 230.523 233.453 230.581 228.468 230.664H228.385V230.746C228.385 231.529 228.385 232.147 228.435 232.608C228.442 232.802 228.464 232.995 228.501 233.185Z" fill="#2F3337"/>
<path d="M216.786 225.594H156.127C155.575 225.594 155.127 226.041 155.127 226.594V231.408C155.127 231.961 155.575 232.408 156.127 232.408H216.786C217.339 232.408 217.786 231.961 217.786 231.408V226.594C217.786 226.041 217.339 225.594 216.786 225.594Z" fill="#FF725E"/>
<path d="M212.849 218.859H153.361C152.809 218.859 152.361 219.307 152.361 219.859V224.583C152.361 225.135 152.809 225.583 153.361 225.583H212.849C213.401 225.583 213.849 225.135 213.849 224.583V219.859C213.849 219.307 213.401 218.859 212.849 218.859Z" fill="#E0E0E0"/>
</svg>
