<svg version="1.1" id="Layer_1" xmlns="http://www.w3.org/2000/svg" xmlns:xlink="http://www.w3.org/1999/xlink" x="0px" y="0px"
	 width="100%" viewBox="0 0 512 512" enable-background="new 0 0 512 512" xml:space="preserve">
<path fill="#D5F7D4" opacity="1.000000" stroke="none" 
	d="
M289.000000,513.000000 
	C267.979095,513.000000 246.958206,513.000000 225.793121,512.647583 
	C224.810883,511.864990 224.017548,511.227264 223.128128,511.035797 
	C209.279861,508.054626 195.270508,505.690399 181.598175,502.055847 
	C163.687134,497.294525 146.936050,489.524414 130.768143,480.411530 
	C115.053307,471.553986 100.079849,461.525146 87.050056,449.198120 
	C74.646027,437.463135 62.912868,424.814453 52.287060,411.452301 
	C36.278442,391.321320 24.227579,368.745331 15.738471,344.362488 
	C9.683116,326.970001 4.576993,309.363922 2.918752,290.913544 
	C2.856761,290.223816 1.665178,289.635559 0.999997,289.000000 
	C1.000000,267.645782 1.000000,246.291550 1.354943,224.780289 
	C2.131975,223.947876 2.821495,223.314285 2.934593,222.590607 
	C4.011034,215.702881 4.415955,208.656311 6.099437,201.926987 
	C12.205943,177.517609 20.404196,153.917007 32.927605,131.876129 
	C49.354191,102.965729 70.371162,78.137779 96.194756,57.225506 
	C113.753731,43.006027 132.714966,31.176342 153.427490,22.188389 
	C175.734024,12.508718 198.776199,5.431541 223.083557,2.920630 
	C223.781052,2.848578 224.363754,1.665193 225.000000,0.999998 
	C246.020889,1.000000 267.041779,1.000000 288.207031,1.353153 
	C289.190826,2.135926 289.985748,2.772278 290.876465,2.964225 
	C304.731537,5.950036 318.749634,8.313495 332.426331,11.959922 
	C350.357727,16.740719 367.159760,24.442690 383.328613,33.638615 
	C399.039459,42.574062 414.052002,52.596760 427.105408,64.953094 
	C439.404449,76.595352 450.974945,89.187553 461.585846,102.390648 
	C477.546356,122.250229 489.376312,144.680328 497.959686,168.694641 
	C504.263519,186.331421 509.455841,204.284866 511.081482,223.083603 
	C511.141052,223.772552 512.334839,224.363419 513.000000,225.000000 
	C513.000000,246.020889 513.000000,267.041779 512.646240,288.208191 
	C511.863220,289.193176 511.227325,289.988159 511.035614,290.878754 
	C508.055878,304.722473 505.679596,318.722656 502.071320,332.398376 
	C496.541290,353.357666 487.504242,373.027588 475.775787,391.151611 
	C467.081635,404.586792 457.235474,417.428864 446.687347,429.470673 
	C435.328857,442.437561 422.541290,454.089722 408.405823,464.224365 
	C388.814209,478.270905 367.999908,489.918091 345.274994,497.970947 
	C327.471405,504.279877 309.386444,509.587677 290.405975,511.100769 
	C289.890106,511.141876 289.466583,512.340942 289.000000,513.000000 
M169.686523,417.841278 
	C191.672607,432.141357 215.527756,441.716919 241.750381,443.737152 
	C299.998230,448.224762 347.209229,426.438232 383.652802,381.392853 
	C397.991089,363.670288 407.167603,343.192719 409.606140,320.163940 
	C411.432190,302.918762 404.413544,295.111786 387.210632,295.076111 
	C386.877319,295.075439 386.544037,295.075958 386.210724,295.075958 
	C300.052155,295.075989 213.893600,295.075043 127.735031,295.081390 
	C125.569649,295.081543 123.388336,295.008484 121.241623,295.231262 
	C111.803413,296.210876 105.687057,301.083069 104.918320,310.462524 
	C104.305656,317.937683 104.861923,325.868774 106.729660,333.126434 
	C116.100861,369.541321 138.231689,396.773499 169.686523,417.841278 
M361.728119,198.307419 
	C370.276733,191.729721 375.119934,183.118591 375.338684,172.281891 
	C375.615234,158.582382 369.699158,148.023712 357.625946,141.621185 
	C345.595154,135.241211 333.400055,135.967194 322.305969,143.966217 
	C311.245087,151.941269 306.542145,163.115707 308.801788,176.665207 
	C312.905518,201.272263 339.140961,212.253632 361.728119,198.307419 
M165.191711,138.215027 
	C149.064957,142.875595 139.481522,153.893051 138.709457,169.230133 
	C138.020462,182.917343 143.742996,193.561844 155.599365,200.324615 
	C167.664154,207.206299 180.018494,206.635025 191.339813,198.672180 
	C202.623917,190.735458 207.431641,179.431259 205.189728,165.662292 
	C202.144241,146.957825 186.677597,136.181229 165.191711,138.215027 
z"/>
<path fill="#000000" opacity="1.000000" stroke="none" 
	d="
M0.999997,289.468658 
	C1.665178,289.635559 2.856761,290.223816 2.918752,290.913544 
	C4.576993,309.363922 9.683116,326.970001 15.738471,344.362488 
	C24.227579,368.745331 36.278442,391.321320 52.287060,411.452301 
	C62.912868,424.814453 74.646027,437.463135 87.050056,449.198120 
	C100.079849,461.525146 115.053307,471.553986 130.768143,480.411530 
	C146.936050,489.524414 163.687134,497.294525 181.598175,502.055847 
	C195.270508,505.690399 209.279861,508.054626 223.128128,511.035797 
	C224.017548,511.227264 224.810883,511.864990 225.324463,512.647583 
	C150.406296,513.000000 75.812599,513.000000 1.000000,513.000000 
	C1.000000,438.645905 1.000000,364.291626 0.999997,289.468658 
z"/>
<path fill="#000000" opacity="1.000000" stroke="none" 
	d="
M513.000000,224.531342 
	C512.334839,224.363419 511.141052,223.772552 511.081482,223.083603 
	C509.455841,204.284866 504.263519,186.331421 497.959686,168.694641 
	C489.376312,144.680328 477.546356,122.250229 461.585846,102.390648 
	C450.974945,89.187553 439.404449,76.595352 427.105408,64.953094 
	C414.052002,52.596760 399.039459,42.574062 383.328613,33.638615 
	C367.159760,24.442690 350.357727,16.740719 332.426331,11.959922 
	C318.749634,8.313495 304.731537,5.950036 290.876465,2.964225 
	C289.985748,2.772278 289.190826,2.135926 288.675659,1.353153 
	C363.593719,1.000000 438.187408,1.000000 513.000000,1.000000 
	C513.000000,75.354088 513.000000,149.708389 513.000000,224.531342 
z"/>
<path fill="#000000" opacity="1.000000" stroke="none" 
	d="
M289.468658,513.000000 
	C289.466583,512.340942 289.890106,511.141876 290.405975,511.100769 
	C309.386444,509.587677 327.471405,504.279877 345.274994,497.970947 
	C367.999908,489.918091 388.814209,478.270905 408.405823,464.224365 
	C422.541290,454.089722 435.328857,442.437561 446.687347,429.470673 
	C457.235474,417.428864 467.081635,404.586792 475.775787,391.151611 
	C487.504242,373.027588 496.541290,353.357666 502.071320,332.398376 
	C505.679596,318.722656 508.055878,304.722473 511.035614,290.878754 
	C511.227325,289.988159 511.863220,289.193176 512.646240,288.676849 
	C513.000000,363.593719 513.000000,438.187408 513.000000,513.000000 
	C438.645905,513.000000 364.291626,513.000000 289.468658,513.000000 
z"/>
<path fill="#000000" opacity="1.000000" stroke="none" 
	d="
M224.531342,0.999998 
	C224.363754,1.665193 223.781052,2.848578 223.083557,2.920630 
	C198.776199,5.431541 175.734024,12.508718 153.427490,22.188389 
	C132.714966,31.176342 113.753731,43.006027 96.194756,57.225506 
	C70.371162,78.137779 49.354191,102.965729 32.927605,131.876129 
	C20.404196,153.917007 12.205943,177.517609 6.099437,201.926987 
	C4.415955,208.656311 4.011034,215.702881 2.934593,222.590607 
	C2.821495,223.314285 2.131975,223.947876 1.354943,224.311630 
	C1.000000,149.739456 1.000000,75.478920 1.000000,1.000000 
	C75.354088,1.000000 149.708389,1.000000 224.531342,0.999998 
z"/>
<path fill="#135611" opacity="1.000000" stroke="none" 
	d="
M169.395203,417.626648 
	C138.231689,396.773499 116.100861,369.541321 106.729660,333.126434 
	C104.861923,325.868774 104.305656,317.937683 104.918320,310.462524 
	C105.687057,301.083069 111.803413,296.210876 121.241623,295.231262 
	C123.388336,295.008484 125.569649,295.081543 127.735031,295.081390 
	C213.893600,295.075043 300.052155,295.075989 386.210724,295.075958 
	C386.544037,295.075958 386.877319,295.075439 387.210632,295.076111 
	C404.413544,295.111786 411.432190,302.918762 409.606140,320.163940 
	C407.167603,343.192719 397.991089,363.670288 383.652802,381.392853 
	C347.209229,426.438232 299.998230,448.224762 241.750381,443.737152 
	C215.527756,441.716919 191.672607,432.141357 169.395203,417.626648 
z"/>
<path fill="#135711" opacity="1.000000" stroke="none" 
	d="
M361.444519,198.533142 
	C339.140961,212.253632 312.905518,201.272263 308.801788,176.665207 
	C306.542145,163.115707 311.245087,151.941269 322.305969,143.966217 
	C333.400055,135.967194 345.595154,135.241211 357.625946,141.621185 
	C369.699158,148.023712 375.615234,158.582382 375.338684,172.281891 
	C375.119934,183.118591 370.276733,191.729721 361.444519,198.533142 
z"/>
<path fill="#135711" opacity="1.000000" stroke="none" 
	d="
M165.627502,138.144424 
	C186.677597,136.181229 202.144241,146.957825 205.189728,165.662292 
	C207.431641,179.431259 202.623917,190.735458 191.339813,198.672180 
	C180.018494,206.635025 167.664154,207.206299 155.599365,200.324615 
	C143.742996,193.561844 138.020462,182.917343 138.709457,169.230133 
	C139.481522,153.893051 149.064957,142.875595 165.627502,138.144424 
z"/>
</svg>