<svg width="14" height="15" viewBox="0 0 14 15" fill="none" xmlns="http://www.w3.org/2000/svg">
<g clip-path="url(#clip0_99_16)">
<path d="M11.0833 5.414V4.58333C11.0833 3.50037 10.6531 2.46175 9.88731 1.69598C9.12154 0.930207 8.08293 0.5 6.99996 0.5C5.91699 0.5 4.87838 0.930207 4.11261 1.69598C3.34683 2.46175 2.91663 3.50037 2.91663 4.58333V5.414C2.39709 5.64074 1.95488 6.01397 1.64408 6.48804C1.33329 6.96211 1.16737 7.51647 1.16663 8.08333V11.5833C1.16755 12.3566 1.47514 13.0979 2.02192 13.6447C2.5687 14.1915 3.31003 14.4991 4.08329 14.5H9.91663C10.6899 14.4991 11.4312 14.1915 11.978 13.6447C12.5248 13.0979 12.8324 12.3566 12.8333 11.5833V8.08333C12.8325 7.51647 12.6666 6.96211 12.3558 6.48804C12.045 6.01397 11.6028 5.64074 11.0833 5.414ZM4.08329 4.58333C4.08329 3.80979 4.39058 3.06792 4.93756 2.52094C5.48455 1.97396 6.22641 1.66667 6.99996 1.66667C7.77351 1.66667 8.51537 1.97396 9.06235 2.52094C9.60934 3.06792 9.91663 3.80979 9.91663 4.58333V5.16667H4.08329V4.58333ZM11.6666 11.5833C11.6666 12.0475 11.4823 12.4926 11.1541 12.8208C10.8259 13.149 10.3808 13.3333 9.91663 13.3333H4.08329C3.61916 13.3333 3.17404 13.149 2.84586 12.8208C2.51767 12.4926 2.33329 12.0475 2.33329 11.5833V8.08333C2.33329 7.6192 2.51767 7.17408 2.84586 6.8459C3.17404 6.51771 3.61916 6.33333 4.08329 6.33333H9.91663C10.3808 6.33333 10.8259 6.51771 11.1541 6.8459C11.4823 7.17408 11.6666 7.6192 11.6666 8.08333V11.5833Z" fill="#374957"/>
<path d="M6.99996 8.66647C6.84525 8.66647 6.69688 8.72793 6.58748 8.83733C6.47808 8.94672 6.41663 9.0951 6.41663 9.24981V10.4165C6.41663 10.5712 6.47808 10.7196 6.58748 10.8289C6.69688 10.9383 6.84525 10.9998 6.99996 10.9998C7.15467 10.9998 7.30305 10.9383 7.41244 10.8289C7.52184 10.7196 7.5833 10.5712 7.5833 10.4165V9.24981C7.5833 9.0951 7.52184 8.94672 7.41244 8.83733C7.30305 8.72793 7.15467 8.66647 6.99996 8.66647Z" fill="#374957"/>
</g>
<defs>
<clipPath id="clip0_99_16">
<rect width="14" height="14" fill="white" transform="translate(0 0.5)"/>
</clipPath>
</defs>
</svg>
