<svg width="20" height="25" viewBox="0 0 20 25" fill="none" xmlns="http://www.w3.org/2000/svg">
<path d="M10 15.5007C9.73479 15.5007 9.48043 15.3954 9.2929 15.2078C9.10536 15.0203 9 14.7659 9 14.5007V6.50073C9 6.23551 9.10536 5.98116 9.2929 5.79362C9.48043 5.60608 9.73479 5.50073 10 5.50073C10.2652 5.50073 10.5196 5.60608 10.7071 5.79362C10.8946 5.98116 11 6.23551 11 6.50073V14.5007C11 14.7659 10.8946 15.0203 10.7071 15.2078C10.5196 15.3954 10.2652 15.5007 10 15.5007ZM10.793 24.2607C12.953 23.3927 20 19.9797 20 12.5437V7.37273C20.0011 6.32174 19.6706 5.2972 19.0554 4.44504C18.4403 3.59288 17.5719 2.95657 16.574 2.62673L10.315 0.551726C10.1107 0.482758 9.88934 0.482758 9.685 0.551726L3.426 2.62673C2.42811 2.95657 1.55975 3.59288 0.944604 4.44504C0.329456 5.2972 -0.00110546 6.32174 2.7775e-06 7.37273V12.5437C2.7775e-06 19.1057 7.005 23.1197 9.153 24.1937C9.42468 24.3234 9.70836 24.4262 10 24.5007C10.2712 24.4453 10.5366 24.3649 10.793 24.2607ZM15.944 4.52473C16.5425 4.72314 17.0633 5.1051 17.4324 5.61636C17.8015 6.12762 18.0001 6.74217 18 7.37273V12.5437C18 18.7267 11.913 21.6547 10.047 22.4047C8.159 21.4607 2 17.9597 2 12.5437V7.37273C1.99992 6.74217 2.19852 6.12762 2.56761 5.61636C2.93669 5.1051 3.45748 4.72314 4.056 4.52473L10 2.55473L15.944 4.52473ZM10 17.5007C9.80222 17.5007 9.60888 17.5594 9.44443 17.6693C9.27998 17.7791 9.15181 17.9353 9.07612 18.118C9.00044 18.3008 8.98063 18.5018 9.01922 18.6958C9.0578 18.8898 9.15304 19.068 9.2929 19.2078C9.43275 19.3477 9.61093 19.4429 9.80491 19.4815C9.99889 19.5201 10.2 19.5003 10.3827 19.4246C10.5654 19.3489 10.7216 19.2207 10.8315 19.0563C10.9414 18.8918 11 18.6985 11 18.5007C11 18.2355 10.8946 17.9812 10.7071 17.7936C10.5196 17.6061 10.2652 17.5007 10 17.5007Z" fill="#E6EBF2"/>
</svg>
