<svg xmlns="http://www.w3.org/2000/svg" width="24" height="25" viewBox="-3 -3 30 31" fill="none"><g id="deeditor_bgCarrier" stroke-width="0">
  <rect id="dee_c_e" x="-3" y="-3" width="30" height="31" rx="38.4" fill="#ffffff" strokewidth="0"/>
</g>
<g clip-path="url(#clip0_1222_145027)">
<path d="M7 14.5C7 14.7652 6.89464 15.0196 6.70711 15.2071C6.51957 15.3946 6.26522 15.5 6 15.5H5C4.73478 15.5 4.48043 15.3946 4.29289 15.2071C4.10536 15.0196 4 14.7652 4 14.5C4 14.2348 4.10536 13.9804 4.29289 13.7929C4.48043 13.6054 4.73478 13.5 5 13.5H6C6.26522 13.5 6.51957 13.6054 6.70711 13.7929C6.89464 13.9804 7 14.2348 7 14.5ZM11 13.5H10C9.73478 13.5 9.48043 13.6054 9.29289 13.7929C9.10536 13.9804 9 14.2348 9 14.5C9 14.7652 9.10536 15.0196 9.29289 15.2071C9.48043 15.3946 9.73478 15.5 10 15.5H11C11.2652 15.5 11.5196 15.3946 11.7071 15.2071C11.8946 15.0196 12 14.7652 12 14.5C12 14.2348 11.8946 13.9804 11.7071 13.7929C11.5196 13.6054 11.2652 13.5 11 13.5ZM6 17.5H5C4.73478 17.5 4.48043 17.6054 4.29289 17.7929C4.10536 17.9804 4 18.2348 4 18.5C4 18.7652 4.10536 19.0196 4.29289 19.2071C4.48043 19.3946 4.73478 19.5 5 19.5H6C6.26522 19.5 6.51957 19.3946 6.70711 19.2071C6.89464 19.0196 7 18.7652 7 18.5C7 18.2348 6.89464 17.9804 6.70711 17.7929C6.51957 17.6054 6.26522 17.5 6 17.5ZM11 17.5H10C9.73478 17.5 9.48043 17.6054 9.29289 17.7929C9.10536 17.9804 9 18.2348 9 18.5C9 18.7652 9.10536 19.0196 9.29289 19.2071C9.48043 19.3946 9.73478 19.5 10 19.5H11C11.2652 19.5 11.5196 19.3946 11.7071 19.2071C11.8946 19.0196 12 18.7652 12 18.5C12 18.2348 11.8946 17.9804 11.7071 17.7929C11.5196 17.6054 11.2652 17.5 11 17.5ZM6 5.5H5C4.73478 5.5 4.48043 5.60536 4.29289 5.79289C4.10536 5.98043 4 6.23478 4 6.5C4 6.76522 4.10536 7.01957 4.29289 7.20711C4.48043 7.39464 4.73478 7.5 5 7.5H6C6.26522 7.5 6.51957 7.39464 6.70711 7.20711C6.89464 7.01957 7 6.76522 7 6.5C7 6.23478 6.89464 5.98043 6.70711 5.79289C6.51957 5.60536 6.26522 5.5 6 5.5ZM11 5.5H10C9.73478 5.5 9.48043 5.60536 9.29289 5.79289C9.10536 5.98043 9 6.23478 9 6.5C9 6.76522 9.10536 7.01957 9.29289 7.20711C9.48043 7.39464 9.73478 7.5 10 7.5H11C11.2652 7.5 11.5196 7.39464 11.7071 7.20711C11.8946 7.01957 12 6.76522 12 6.5C12 6.23478 11.8946 5.98043 11.7071 5.79289C11.5196 5.60536 11.2652 5.5 11 5.5ZM6 9.5H5C4.73478 9.5 4.48043 9.60536 4.29289 9.79289C4.10536 9.98043 4 10.2348 4 10.5C4 10.7652 4.10536 11.0196 4.29289 11.2071C4.48043 11.3946 4.73478 11.5 5 11.5H6C6.26522 11.5 6.51957 11.3946 6.70711 11.2071C6.89464 11.0196 7 10.7652 7 10.5C7 10.2348 6.89464 9.98043 6.70711 9.79289C6.51957 9.60536 6.26522 9.5 6 9.5ZM11 9.5H10C9.73478 9.5 9.48043 9.60536 9.29289 9.79289C9.10536 9.98043 9 10.2348 9 10.5C9 10.7652 9.10536 11.0196 9.29289 11.2071C9.48043 11.3946 9.73478 11.5 10 11.5H11C11.2652 11.5 11.5196 11.3946 11.7071 11.2071C11.8946 11.0196 12 10.7652 12 10.5C12 10.2348 11.8946 9.98043 11.7071 9.79289C11.5196 9.60536 11.2652 9.5 11 9.5ZM24 10.5V19.5C23.9984 20.8256 23.4711 22.0964 22.5338 23.0338C21.5964 23.9711 20.3256 24.4984 19 24.5H5C3.67441 24.4984 2.40356 23.9711 1.46622 23.0338C0.528882 22.0964 0.00158786 20.8256 0 19.5L0 5.5C0.00158786 4.17441 0.528882 2.90356 1.46622 1.96622C2.40356 1.02888 3.67441 0.501588 5 0.5L11 0.5C12.3256 0.501588 13.5964 1.02888 14.5338 1.96622C15.4711 2.90356 15.9984 4.17441 16 5.5H19C20.3256 5.50159 21.5964 6.02888 22.5338 6.96622C23.4711 7.90356 23.9984 9.17441 24 10.5ZM5 22.5H14V5.5C14 4.70435 13.6839 3.94129 13.1213 3.37868C12.5587 2.81607 11.7956 2.5 11 2.5H5C4.20435 2.5 3.44129 2.81607 2.87868 3.37868C2.31607 3.94129 2 4.70435 2 5.5V19.5C2 20.2956 2.31607 21.0587 2.87868 21.6213C3.44129 22.1839 4.20435 22.5 5 22.5ZM22 10.5C22 9.70435 21.6839 8.94129 21.1213 8.37868C20.5587 7.81607 19.7956 7.5 19 7.5H16V22.5H19C19.7956 22.5 20.5587 22.1839 21.1213 21.6213C21.6839 21.0587 22 20.2956 22 19.5V10.5ZM19 13.5C18.8022 13.5 18.6089 13.5586 18.4444 13.6685C18.28 13.7784 18.1518 13.9346 18.0761 14.1173C18.0004 14.3 17.9806 14.5011 18.0192 14.6951C18.0578 14.8891 18.153 15.0673 18.2929 15.2071C18.4327 15.347 18.6109 15.4422 18.8049 15.4808C18.9989 15.5194 19.2 15.4996 19.3827 15.4239C19.5654 15.3482 19.7216 15.22 19.8315 15.0556C19.9414 14.8911 20 14.6978 20 14.5C20 14.2348 19.8946 13.9804 19.7071 13.7929C19.5196 13.6054 19.2652 13.5 19 13.5ZM19 17.5C18.8022 17.5 18.6089 17.5586 18.4444 17.6685C18.28 17.7784 18.1518 17.9346 18.0761 18.1173C18.0004 18.3 17.9806 18.5011 18.0192 18.6951C18.0578 18.8891 18.153 19.0673 18.2929 19.2071C18.4327 19.347 18.6109 19.4422 18.8049 19.4808C18.9989 19.5194 19.2 19.4996 19.3827 19.4239C19.5654 19.3482 19.7216 19.22 19.8315 19.0556C19.9414 18.8911 20 18.6978 20 18.5C20 18.2348 19.8946 17.9804 19.7071 17.7929C19.5196 17.6054 19.2652 17.5 19 17.5ZM19 9.5C18.8022 9.5 18.6089 9.55865 18.4444 9.66853C18.28 9.77841 18.1518 9.93459 18.0761 10.1173C18.0004 10.3 17.9806 10.5011 18.0192 10.6951C18.0578 10.8891 18.153 11.0673 18.2929 11.2071C18.4327 11.347 18.6109 11.4422 18.8049 11.4808C18.9989 11.5194 19.2 11.4996 19.3827 11.4239C19.5654 11.3482 19.7216 11.22 19.8315 11.0556C19.9414 10.8911 20 10.6978 20 10.5C20 10.2348 19.8946 9.98043 19.7071 9.79289C19.5196 9.60536 19.2652 9.5 19 9.5Z" fill="#696060"/>
</g>
<defs fill="#000000">
<clipPath id="clip0_1222_145027" fill="#000000">
<rect width="24" height="24" fill="white" transform="translate(0 0.5)"/>
</clipPath>
</defs>
</svg>