<svg width="24" height="25" viewBox="0 0 24 25" fill="none" xmlns="http://www.w3.org/2000/svg">
<path d="M20.5267 4.71787L14.4997 1.23787C13.7391 0.800495 12.877 0.570312 11.9997 0.570312C11.1223 0.570312 10.2602 0.800495 9.49966 1.23787L3.47266 4.71787C2.71353 5.15779 2.08313 5.7892 1.64443 6.54902C1.20573 7.30885 0.974092 8.1705 0.972656 9.04787V16.0079C0.974119 16.8854 1.20576 17.7472 1.64445 18.5071C2.08314 19.2671 2.71352 19.8987 3.47266 20.3389L9.49966 23.8179C10.2601 24.2555 11.1222 24.4859 11.9997 24.4859C12.8771 24.4859 13.7392 24.2555 14.4997 23.8179L20.5267 20.3389C21.2858 19.8987 21.9162 19.2671 22.3549 18.5071C22.7936 17.7472 23.0252 16.8854 23.0267 16.0079V9.04787C23.0252 8.1705 22.7936 7.30885 22.3549 6.54902C21.9162 5.7892 21.2858 5.15779 20.5267 4.71787ZM10.4997 2.97087C10.9557 2.70757 11.473 2.56895 11.9997 2.56895C12.5263 2.56895 13.0436 2.70757 13.4997 2.97087L19.5267 6.44987C19.6795 6.54647 19.8231 6.65694 19.9557 6.77987L13.7627 10.3549C13.2265 10.664 12.6185 10.8266 11.9997 10.8266C11.3808 10.8266 10.7728 10.664 10.2367 10.3549L4.04366 6.77987C4.17622 6.65694 4.31983 6.54647 4.47266 6.44987L10.4997 2.97087ZM4.47266 18.6059C4.01686 18.3418 3.63841 17.9626 3.37517 17.5063C3.11193 17.0501 2.97313 16.5326 2.97266 16.0059V9.04787C2.9796 8.86772 3.00337 8.68861 3.04366 8.51287L9.23666 12.0879C9.7836 12.399 10.3799 12.6138 10.9997 12.7229V22.2919C10.8269 22.239 10.6595 22.17 10.4997 22.0859L4.47266 18.6059ZM21.0267 16.0059C21.0262 16.5326 20.8874 17.0501 20.6241 17.5063C20.3609 17.9626 19.9825 18.3418 19.5267 18.6059L13.4997 22.0859C13.3398 22.17 13.1724 22.239 12.9997 22.2919V12.7229C13.6194 12.6138 14.2157 12.399 14.7627 12.0879L20.9557 8.51287C20.9959 8.68861 21.0197 8.86772 21.0267 9.04787V16.0059Z" fill="#E6EBF2"/>
</svg>
