<svg width="14" height="15" viewBox="0 0 14 15" fill="none" xmlns="http://www.w3.org/2000/svg">
<path d="M7.58323 1.0834C7.58323 0.928686 7.64469 0.780312 7.75409 0.670916C7.86349 0.56152 8.01186 0.500062 8.16657 0.500062C9.71314 0.50176 11.1959 1.11689 12.2895 2.21048C13.3831 3.30408 13.9982 4.78682 13.9999 6.3334C13.9999 6.48811 13.9384 6.63648 13.829 6.74588C13.7196 6.85527 13.5713 6.91673 13.4166 6.91673C13.2619 6.91673 13.1135 6.85527 13.0041 6.74588C12.8947 6.63648 12.8332 6.48811 12.8332 6.3334C12.8318 5.09615 12.3397 3.90997 11.4649 3.0351C10.59 2.16023 9.40382 1.66812 8.16657 1.66673C8.01186 1.66673 7.86349 1.60527 7.75409 1.49587C7.64469 1.38648 7.58323 1.2381 7.58323 1.0834ZM8.16657 4.00006C8.78541 4.00006 9.3789 4.24589 9.81648 4.68348C10.2541 5.12106 10.4999 5.71456 10.4999 6.3334C10.4999 6.48811 10.5614 6.63648 10.6708 6.74588C10.7801 6.85527 10.9285 6.91673 11.0832 6.91673C11.2379 6.91673 11.3863 6.85527 11.4957 6.74588C11.6051 6.63648 11.6666 6.48811 11.6666 6.3334C11.6656 5.40542 11.2966 4.51572 10.6404 3.85955C9.98424 3.20337 9.09454 2.83432 8.16657 2.8334C8.01186 2.8334 7.86349 2.89485 7.75409 3.00425C7.64469 3.11365 7.58323 3.26202 7.58323 3.41673C7.58323 3.57144 7.64469 3.71981 7.75409 3.82921C7.86349 3.9386 8.01186 4.00006 8.16657 4.00006ZM13.4708 10.2645C13.8089 10.6035 13.9987 11.0627 13.9987 11.5414C13.9987 12.0201 13.8089 12.4793 13.4708 12.8183L12.94 13.4302C8.16248 18.0041 -3.46334 6.38123 1.03999 1.58856L1.71083 1.00523C2.05019 0.676624 2.50528 0.49484 2.97765 0.499207C3.45002 0.503574 3.90167 0.693739 4.23491 1.02856C4.25299 1.04665 5.3339 2.45073 5.3339 2.45073C5.65464 2.78768 5.83318 3.23527 5.83242 3.70046C5.83166 4.16566 5.65165 4.61266 5.32982 4.94856L4.65432 5.7979C5.02815 6.70621 5.57777 7.53171 6.27162 8.22695C6.96546 8.9222 7.78984 9.47349 8.6974 9.84915L9.55198 9.16956C9.88793 8.84798 10.3349 8.66819 10.7999 8.66753C11.265 8.66688 11.7124 8.84542 12.0492 9.16606C12.0492 9.16606 13.4527 10.2464 13.4708 10.2645ZM12.6681 11.1126C12.6681 11.1126 11.2722 10.0387 11.2541 10.0206C11.134 9.90149 10.9716 9.83463 10.8024 9.83463C10.6331 9.83463 10.4707 9.90149 10.3506 10.0206C10.3348 10.037 9.15823 10.9744 9.15823 10.9744C9.07895 11.0375 8.98458 11.0789 8.88444 11.0944C8.7843 11.11 8.68184 11.0992 8.58715 11.0631C7.41142 10.6253 6.3435 9.93999 5.45572 9.05353C4.56795 8.16706 3.88106 7.10015 3.44157 5.92506C3.40261 5.82908 3.3899 5.72445 3.40477 5.62193C3.41963 5.51941 3.46153 5.42269 3.52616 5.34173C3.52616 5.34173 4.46357 4.16456 4.47932 4.1494C4.59848 4.02922 4.66533 3.86684 4.66533 3.6976C4.66533 3.52837 4.59848 3.36599 4.47932 3.24581C4.46124 3.22831 3.38732 1.83123 3.38732 1.83123C3.26535 1.72186 3.10616 1.66328 2.94238 1.66751C2.77861 1.67174 2.62266 1.73846 2.50649 1.85398L1.83566 2.43731C-1.4555 6.39465 8.61923 15.9106 12.0871 12.6334L12.6186 12.0209C12.7431 11.9055 12.8179 11.7463 12.8271 11.5768C12.8364 11.4073 12.7794 11.2409 12.6681 11.1126Z" fill="#374957"/>
</svg>
