<svg width="442" height="443" viewBox="0 0 442 443" fill="none" xmlns="http://www.w3.org/2000/svg">
<path d="M397.092 147.062C399.585 113.92 393.795 77.3405 368.468 54.772C345.749 34.5195 311.096 30.02 281.314 38.1174C251.533 46.2148 226.1 65.2032 204.928 86.9407C183.756 108.678 166.191 133.368 146.513 156.388C126.058 180.335 103.295 202.577 85.5173 228.416C67.74 254.255 54.9574 284.762 57.6624 315.676C58.794 328.538 62.7101 341.4 70.5865 351.858C80.0542 364.428 94.5341 372.694 109.483 378.484C137.116 389.18 167.137 392.46 196.733 395.651L291.525 405.853C310.973 407.956 331.729 409.857 349.303 401.512C364.773 394.157 375.558 379.642 381.507 364.039C387.456 348.437 389.109 331.667 390.427 315.092C394.961 257.844 397.092 147.062 397.092 147.062Z" fill="#F95700"/>
<g opacity="0.7">
<path d="M397.092 146.905C399.585 113.764 393.795 77.1842 368.468 54.6157C345.749 34.3633 311.096 29.8637 281.314 37.9612C251.533 46.0586 226.1 65.0292 204.928 86.7845C183.756 108.54 166.191 133.212 146.513 156.232C126.058 180.179 103.295 202.421 85.5173 228.26C67.74 254.099 54.9574 284.606 57.6624 315.519C58.794 328.382 62.7101 341.244 70.5865 351.702C80.0542 364.272 94.5341 372.537 109.483 378.328C137.116 389.024 167.137 392.313 196.733 395.495L291.525 405.705C310.973 407.8 331.729 409.701 349.303 401.356C364.773 394.001 375.558 379.486 381.507 363.883C387.456 348.281 389.109 331.511 390.427 314.945C394.961 257.688 397.092 146.905 397.092 146.905Z" fill="white"/>
</g>
<path d="M225.843 145.258C225.675 145.391 226.294 146.628 223.138 145.63C215.359 143.163 201.984 137.735 199.42 128.913C195.761 116.325 212.194 123.317 212.557 117.244C212.919 111.171 193.285 109.112 192.614 99.9975C191.942 90.8834 204.477 97.1687 205.334 92.9255C206.192 88.6823 190.554 88.9121 189.033 78.9583C187.513 69.0044 197.873 77.8091 197.219 73.6543C196.565 69.4995 186.523 49.636 193.816 48.6813C201.109 47.7265 210.037 67.8906 214.148 71.1967C218.258 74.5029 224.703 60.2351 229.176 67.3955C233.649 74.5559 221.494 95.2415 227.735 100.616C232.385 104.621 232.323 95.6128 238.865 98.3355C247.749 102.022 239.457 134.173 225.843 145.258Z" fill="#F95700"/>
<g opacity="0.2">
<path d="M225.843 145.258C225.675 145.391 226.294 146.628 223.138 145.63C215.359 143.163 201.984 137.735 199.42 128.913C195.761 116.325 212.194 123.317 212.557 117.244C212.919 111.171 193.285 109.112 192.614 99.9975C191.942 90.8834 204.477 97.1687 205.334 92.9255C206.192 88.6823 190.554 88.9121 189.033 78.9583C187.513 69.0044 197.873 77.8091 197.219 73.6543C196.565 69.4995 186.523 49.636 193.816 48.6813C201.109 47.7265 210.037 67.8906 214.148 71.1967C218.258 74.5029 224.703 60.2351 229.176 67.3955C233.649 74.5559 221.494 95.2415 227.735 100.616C232.385 104.621 232.323 95.6128 238.865 98.3355C247.749 102.022 239.457 134.173 225.843 145.258Z" fill="white"/>
</g>
<path d="M212.088 88.6094C212.088 88.6094 234.391 119.841 221.883 173.968" stroke="#5C5C5C" stroke-linecap="round" stroke-linejoin="round"/>
<path d="M205.221 93.3203C212.965 94.4076 216.836 97.4309 216.836 97.4309" stroke="#5C5C5C" stroke-linecap="round" stroke-linejoin="round"/>
<path d="M221.194 74.875C221.194 74.875 225.853 90.1152 220.045 105.638" stroke="#5C5C5C" stroke-linecap="round" stroke-linejoin="round"/>
<path d="M224.102 122.026C224.102 122.026 219.886 113.637 210.215 113.602" stroke="#5C5C5C" stroke-linecap="round" stroke-linejoin="round"/>
<path d="M225.42 132.896C225.42 132.896 231.661 126.222 233.897 114.43" stroke="#5C5C5C" stroke-linecap="round" stroke-linejoin="round"/>
<path d="M308.604 50.429C302.186 46.7515 286.301 62.027 281.2 63.5122C276.1 64.9973 275.666 53.7351 268.824 58.6767C261.982 63.6182 265.359 87.3448 257.536 89.9526C251.719 91.8886 254.813 81.3248 248.103 83.6143C236.364 87.6188 241.385 133.065 244.682 133.339C252.815 134.011 267.215 127.337 273.147 120.327C279.079 113.317 263.282 116.853 265.253 111.089C267.224 105.325 286.168 110.895 290.252 102.718C294.336 94.5406 280.352 95.5925 281.174 91.3405C281.996 87.0884 296.308 88.8741 301.506 80.2374C306.704 71.6008 293.735 75.8174 295.954 72.2284C298.173 68.6394 315.013 54.0976 308.587 50.429" fill="#F95700"/>
<path opacity="0.1" d="M308.604 50.429C302.186 46.7515 286.301 62.027 281.2 63.5122C276.1 64.9973 275.666 53.7351 268.824 58.6767C261.982 63.6182 265.359 87.3448 257.536 89.9526C251.719 91.8886 254.813 81.3248 248.103 83.6143C236.364 87.6188 241.385 133.065 244.682 133.339C252.815 134.011 267.215 127.337 273.147 120.327C279.079 113.317 263.282 116.853 265.253 111.089C267.224 105.325 286.168 110.895 290.252 102.718C294.336 94.5406 280.352 95.5925 281.174 91.3405C281.996 87.0884 296.308 88.8741 301.506 80.2374C306.704 71.6008 293.735 75.8174 295.954 72.2284C298.173 68.6394 315.013 54.0976 308.587 50.429" fill="black"/>
<path d="M286.476 72.7422C286.476 72.7422 248.906 98.3782 233.967 164.678" stroke="#5C5C5C" stroke-linecap="round" stroke-linejoin="round"/>
<path d="M299.198 83.0216C286.195 78.2303 277.487 80.7408 276.957 80.9" stroke="#5C5C5C" stroke-linecap="round" stroke-linejoin="round"/>
<path d="M269.398 89.1032C269.664 77.8676 273.571 68.064 277.019 61.5312" stroke="#5C5C5C" stroke-linecap="round" stroke-linejoin="round"/>
<path d="M257.129 106.347C257.129 106.347 265.889 98.3912 277.072 102.405" stroke="#5C5C5C" stroke-linecap="round" stroke-linejoin="round"/>
<path d="M250.612 118.376C250.612 118.376 246.502 108.059 249.366 93.5" stroke="#5C5C5C" stroke-linecap="round" stroke-linejoin="round"/>
<path d="M104.603 319.564C104.426 319.696 104.974 320.961 101.88 319.794C94.2426 316.903 81.1947 310.741 79.1173 301.795C76.1559 289.022 92.1829 296.907 92.8812 290.86C93.5796 284.814 74.0785 281.684 73.9106 272.553C73.7426 263.421 85.9153 270.378 87.0026 266.179C88.0899 261.98 72.4873 261.361 71.4973 251.337C70.5072 241.312 80.4257 250.674 79.9571 246.492C79.4886 242.311 70.5514 221.926 77.9328 221.378C85.3142 220.83 93.0757 241.445 97.0272 244.981C100.979 248.517 108.174 234.611 112.205 242.01C116.237 249.41 103.003 269.414 108.935 275.099C113.355 279.351 113.788 270.352 120.179 273.428C128.851 277.6 118.8 309.239 104.603 319.564Z" fill="#F95700"/>
<g opacity="0.1">
<path d="M104.603 319.564C104.426 319.696 104.974 320.961 101.88 319.794C94.2426 316.903 81.1947 310.741 79.1173 301.795C76.1559 289.022 92.1829 296.907 92.8812 290.86C93.5796 284.814 74.0785 281.684 73.9106 272.553C73.7426 263.421 85.9153 270.378 87.0026 266.179C88.0899 261.98 72.4873 261.361 71.4973 251.337C70.5072 241.312 80.4257 250.674 79.9571 246.492C79.4886 242.311 70.5514 221.926 77.9328 221.378C85.3142 220.83 93.0757 241.445 97.0272 244.981C100.979 248.517 108.174 234.611 112.205 242.01C116.237 249.41 103.003 269.414 108.935 275.099C113.355 279.351 113.788 270.352 120.179 273.428C128.851 277.6 118.8 309.239 104.603 319.564Z" fill="black"/>
</g>
<path d="M93.9766 262.25C93.9766 262.25 114.53 294.622 99.0949 347.998" stroke="#5C5C5C" stroke-linecap="round" stroke-linejoin="round"/>
<path d="M86.8613 266.586C94.5344 268.098 98.2384 271.324 98.2384 271.324" stroke="#5C5C5C" stroke-linecap="round" stroke-linejoin="round"/>
<path d="M103.825 249.031C103.825 249.031 107.644 264.51 100.996 279.697" stroke="#5C5C5C" stroke-linecap="round" stroke-linejoin="round"/>
<path d="M104.144 296.277C104.144 296.277 100.387 287.667 90.7422 287.102" stroke="#5C5C5C" stroke-linecap="round" stroke-linejoin="round"/>
<path d="M104.824 307.254C104.824 307.254 111.419 300.925 114.301 289.273" stroke="#5C5C5C" stroke-linecap="round" stroke-linejoin="round"/>
<path d="M107.847 367.365C103.816 371.095 93.42 373.553 87.3734 372.289C81.3268 371.025 91.1569 366.357 87.7093 364.121C84.2617 361.884 76.5709 372.669 71.0106 370.017C65.4502 367.365 73.3001 362.132 71.0901 360.213C68.8801 358.295 62.0556 365.217 55.6908 362.795C49.326 360.373 57.9627 357.217 55.3019 356.244C52.641 355.272 37.6749 354.547 39.5578 349.941C41.4408 345.336 56.1859 346.821 59.5009 345.521C62.8159 344.222 58.3694 338.043 64.0358 337.831C69.7022 337.618 77.7908 351.55 83.0418 349.685C86.9314 348.297 80.8937 343.983 85.4021 342.41C93.2874 339.652 109.5 365.809 107.847 367.365Z" fill="#F95700"/>
<path d="M57.0254 350.188C57.0254 350.188 95.3556 351.955 123.272 380.889" stroke="#5C5C5C" stroke-linecap="round" stroke-linejoin="round"/>
<path d="M64.8145 359.909C67.7369 357.258 71.1731 355.236 74.9097 353.969" stroke="#5C5C5C" stroke-linecap="round" stroke-linejoin="round"/>
<path d="M63.002 342.453C63.002 342.453 74.052 345.565 81.1858 355.227" stroke="#5C5C5C" stroke-linecap="round" stroke-linejoin="round"/>
<path d="M88.6297 357.642C86.5944 357.611 84.5839 358.091 82.7828 359.04C80.9818 359.988 79.4479 361.374 78.3223 363.07" stroke="#5C5C5C" stroke-linecap="round" stroke-linejoin="round"/>
<path d="M99.768 362.642C98.2694 357.881 95.5581 353.592 91.9004 350.195" stroke="#5C5C5C" stroke-linecap="round" stroke-linejoin="round"/>
<path d="M33.1581 267.332C40.2743 263.266 57.9101 280.185 63.5146 281.838C69.1192 283.492 69.6496 270.992 77.199 276.473C84.7483 281.953 81.0444 308.244 89.7076 311.125C96.1608 313.274 92.722 301.569 100.156 304.098C113.169 308.518 107.609 358.906 103.949 359.206C94.9408 359.949 78.9846 352.558 72.4165 344.788C65.8484 337.018 83.3516 340.943 81.1593 334.551C78.967 328.16 57.9808 334.33 53.4547 325.278C48.9286 316.226 64.434 317.384 63.5146 312.664C62.5953 307.943 46.7186 309.932 40.9992 300.367C35.2797 290.802 49.6182 295.443 47.1872 291.527C44.7562 287.611 26.0684 271.434 33.1846 267.367" fill="#F95700"/>
<path opacity="0.3" d="M33.1581 267.332C40.2743 263.266 57.9101 280.185 63.5146 281.838C69.1192 283.492 69.6496 270.992 77.199 276.473C84.7483 281.953 81.0444 308.244 89.7076 311.125C96.1608 313.274 92.722 301.569 100.156 304.098C113.169 308.518 107.609 358.906 103.949 359.206C94.9408 359.949 78.9846 352.558 72.4165 344.788C65.8484 337.018 83.3516 340.943 81.1593 334.551C78.967 328.16 57.9808 334.33 53.4547 325.278C48.9286 316.226 64.434 317.384 63.5146 312.664C62.5953 307.943 46.7186 309.932 40.9992 300.367C35.2797 290.802 49.6182 295.443 47.1872 291.527C44.7562 287.611 26.0684 271.434 33.1846 267.367" fill="white"/>
<path d="M57.6719 292.062C57.6719 292.062 99.3083 320.51 115.857 393.882" stroke="#5C5C5C" stroke-linecap="round" stroke-linejoin="round"/>
<path d="M43.5898 303.441C57.999 298.137 67.6435 300.921 68.2269 301.098" stroke="#5C5C5C" stroke-linecap="round" stroke-linejoin="round"/>
<path d="M76.6063 310.184C76.3057 297.737 71.9829 286.864 68.1641 279.633" stroke="#5C5C5C" stroke-linecap="round" stroke-linejoin="round"/>
<path d="M90.1664 329.298C90.1664 329.298 80.4954 320.511 68.0664 324.931" stroke="#5C5C5C" stroke-linecap="round" stroke-linejoin="round"/>
<path d="M97.416 342.61C97.416 342.61 101.977 331.18 98.7951 315.047" stroke="#5C5C5C" stroke-linecap="round" stroke-linejoin="round"/>
<path d="M300.774 115.711H106.506V401.314H300.774V115.711Z" fill="#263238"/>
<path d="M292.905 397.728H95.4727L105.038 284.399C106.695 264.764 107.332 245.057 106.947 225.357L104.737 112.125H297.953L298.837 251.019C298.919 262.216 298.695 273.414 298.165 284.611L292.905 397.728Z" fill="#BFBFBF" stroke="#263238" stroke-linecap="round" stroke-linejoin="round"/>
<path d="M284.649 393.884H85.1035L91.2208 362.113C104.242 284.401 107.486 249.986 105.683 149.281L103.632 108.281H292.941L295.168 147C299.96 315.517 284.649 393.884 284.649 393.884Z" fill="white" stroke="#263238" stroke-linecap="round" stroke-linejoin="round"/>
<path d="M114.841 122.69C113.474 122.69 112.163 122.147 111.197 121.181C110.23 120.214 109.688 118.903 109.688 117.537C109.688 116.17 110.23 114.859 111.197 113.892C112.163 112.926 113.474 112.383 114.841 112.383C115.045 112.383 115.241 112.464 115.385 112.608C115.529 112.752 115.61 112.948 115.61 113.152C115.61 113.356 115.529 113.551 115.385 113.696C115.241 113.84 115.045 113.921 114.841 113.921C114.126 113.921 113.427 114.133 112.833 114.53C112.238 114.928 111.775 115.492 111.501 116.153C111.227 116.814 111.156 117.541 111.295 118.242C111.435 118.943 111.779 119.587 112.285 120.093C112.79 120.599 113.435 120.943 114.136 121.083C114.837 121.222 115.564 121.151 116.225 120.877C116.885 120.603 117.45 120.14 117.847 119.545C118.245 118.951 118.457 118.252 118.457 117.537C118.457 117.333 118.538 117.137 118.682 116.993C118.826 116.848 119.022 116.767 119.226 116.767C119.43 116.767 119.625 116.848 119.77 116.993C119.914 117.137 119.995 117.333 119.995 117.537C119.993 118.903 119.449 120.212 118.483 121.178C117.517 122.144 116.207 122.688 114.841 122.69Z" fill="#263238"/>
<path d="M114.718 120.556C110.015 120.556 109.759 110.382 109.75 108.348V108.278C109.75 106.227 109.989 96.0078 114.718 96.0078C119.447 96.0078 119.775 107.04 119.801 108.304L115.708 108.384C115.7 106.011 115.358 103.651 114.692 101.374C114.073 103.622 113.776 105.946 113.808 108.278V108.348C113.764 110.692 114.062 113.03 114.692 115.288C114.692 115.138 114.789 114.978 114.842 114.793L115.16 113.679L118.015 114.51C118.302 114.594 118.544 114.788 118.688 115.05C118.832 115.311 118.867 115.619 118.784 115.907C117.971 118.956 116.592 120.556 114.718 120.556Z" fill="#BFBFBF" stroke="#263238" stroke-linecap="round" stroke-linejoin="round"/>
<path d="M119.226 118.306C119.022 118.306 118.826 118.225 118.682 118.08C118.538 117.936 118.457 117.741 118.457 117.537C118.457 117.062 118.363 116.592 118.182 116.153C118 115.714 117.734 115.316 117.398 114.98C117.062 114.644 116.664 114.378 116.225 114.196C115.786 114.014 115.316 113.921 114.841 113.921C114.637 113.921 114.442 113.84 114.298 113.696C114.153 113.551 114.072 113.356 114.072 113.152C114.072 112.948 114.153 112.752 114.298 112.608C114.442 112.464 114.637 112.383 114.841 112.383C116.207 112.385 117.517 112.929 118.483 113.895C119.449 114.861 119.993 116.17 119.995 117.537C119.995 117.741 119.914 117.936 119.77 118.08C119.626 118.225 119.43 118.306 119.226 118.306Z" fill="#263238"/>
<path d="M139.124 122.69C137.758 122.69 136.447 122.147 135.48 121.181C134.514 120.214 133.971 118.903 133.971 117.537C133.971 116.17 134.514 114.859 135.48 113.892C136.447 112.926 137.758 112.383 139.124 112.383C139.328 112.383 139.524 112.464 139.668 112.608C139.812 112.752 139.894 112.948 139.894 113.152C139.894 113.356 139.812 113.551 139.668 113.696C139.524 113.84 139.328 113.921 139.124 113.921C138.409 113.921 137.71 114.133 137.116 114.53C136.521 114.928 136.058 115.492 135.784 116.153C135.51 116.814 135.439 117.541 135.578 118.242C135.718 118.943 136.062 119.587 136.568 120.093C137.073 120.599 137.718 120.943 138.419 121.083C139.12 121.222 139.847 121.151 140.508 120.877C141.169 120.603 141.733 120.14 142.131 119.545C142.528 118.951 142.74 118.252 142.74 117.537C142.74 117.333 142.821 117.137 142.965 116.993C143.109 116.848 143.305 116.767 143.509 116.767C143.713 116.767 143.909 116.848 144.053 116.993C144.197 117.137 144.278 117.333 144.278 117.537C144.276 118.903 143.732 120.212 142.766 121.178C141.8 122.144 140.491 122.688 139.124 122.69Z" fill="#263238"/>
<path d="M139.001 120.556C134.298 120.556 134.042 110.382 134.033 108.348V108.278C134.033 106.227 134.272 96.0078 139.001 96.0078C143.731 96.0078 144.093 107.04 144.093 108.348L140 108.428C139.992 106.055 139.65 103.695 138.984 101.418C138.365 103.666 138.068 105.99 138.1 108.322V108.348C138.065 110.692 138.362 113.028 138.984 115.288C139.037 115.138 139.081 114.978 139.134 114.793L139.452 113.679L142.325 114.536C142.61 114.622 142.85 114.817 142.992 115.079C143.134 115.34 143.168 115.647 143.085 115.933C142.254 118.956 140.875 120.556 139.001 120.556Z" fill="#BFBFBF" stroke="#263238" stroke-linecap="round" stroke-linejoin="round"/>
<path d="M143.509 118.306C143.305 118.306 143.11 118.225 142.965 118.08C142.821 117.936 142.74 117.741 142.74 117.537C142.74 116.578 142.359 115.658 141.681 114.98C141.003 114.302 140.083 113.921 139.125 113.921C138.921 113.921 138.725 113.84 138.581 113.696C138.437 113.551 138.355 113.356 138.355 113.152C138.355 112.948 138.437 112.752 138.581 112.608C138.725 112.464 138.921 112.383 139.125 112.383C140.491 112.385 141.8 112.929 142.766 113.895C143.732 114.861 144.276 116.17 144.278 117.537C144.278 117.741 144.197 117.936 144.053 118.08C143.909 118.225 143.713 118.306 143.509 118.306Z" fill="#263238"/>
<path d="M163.408 122.69C162.041 122.69 160.73 122.147 159.763 121.181C158.797 120.214 158.254 118.903 158.254 117.537C158.254 116.17 158.797 114.859 159.763 113.892C160.73 112.926 162.041 112.383 163.408 112.383C163.612 112.383 163.807 112.464 163.951 112.608C164.096 112.752 164.177 112.948 164.177 113.152C164.177 113.356 164.096 113.551 163.951 113.696C163.807 113.84 163.612 113.921 163.408 113.921C162.693 113.921 161.993 114.133 161.399 114.53C160.804 114.928 160.341 115.492 160.067 116.153C159.794 116.814 159.722 117.541 159.862 118.242C160.001 118.943 160.345 119.587 160.851 120.093C161.357 120.599 162.001 120.943 162.702 121.083C163.404 121.222 164.131 121.151 164.791 120.877C165.452 120.603 166.017 120.14 166.414 119.545C166.811 118.951 167.023 118.252 167.023 117.537C167.023 117.333 167.104 117.137 167.248 116.993C167.393 116.848 167.588 116.767 167.792 116.767C167.996 116.767 168.192 116.848 168.336 116.993C168.48 117.137 168.561 117.333 168.561 117.537C168.559 118.903 168.015 120.212 167.049 121.178C166.083 122.144 164.774 122.688 163.408 122.69Z" fill="#263238"/>
<path d="M163.294 120.556C158.583 120.556 158.326 110.382 158.326 108.348V108.278C158.326 106.227 158.565 96.0078 163.294 96.0078C168.024 96.0078 168.351 107.04 168.368 108.304L164.275 108.384C164.268 106.011 163.925 103.651 163.259 101.374C162.64 103.622 162.343 105.946 162.375 108.278V108.348C162.34 110.692 162.638 113.028 163.259 115.288C163.312 115.138 163.356 114.978 163.409 114.793L163.736 113.679L166.592 114.51C166.877 114.596 167.116 114.791 167.258 115.052C167.401 115.314 167.434 115.621 167.352 115.907C166.539 118.956 165.159 120.556 163.294 120.556Z" fill="#BFBFBF" stroke="#263238" stroke-linecap="round" stroke-linejoin="round"/>
<path d="M167.792 118.306C167.588 118.306 167.393 118.225 167.249 118.08C167.104 117.936 167.023 117.741 167.023 117.537C167.023 116.578 166.642 115.658 165.964 114.98C165.286 114.302 164.367 113.921 163.408 113.921C163.204 113.921 163.008 113.84 162.864 113.696C162.72 113.551 162.639 113.356 162.639 113.152C162.639 112.948 162.72 112.752 162.864 112.608C163.008 112.464 163.204 112.383 163.408 112.383C164.774 112.385 166.083 112.929 167.049 113.895C168.015 114.861 168.559 116.17 168.561 117.537C168.561 117.741 168.48 117.936 168.336 118.08C168.192 118.225 167.996 118.306 167.792 118.306Z" fill="#263238"/>
<path d="M187.701 122.69C186.334 122.69 185.023 122.147 184.056 121.181C183.09 120.214 182.547 118.903 182.547 117.537C182.547 116.17 183.09 114.859 184.056 113.892C185.023 112.926 186.334 112.383 187.701 112.383C187.905 112.383 188.1 112.464 188.244 112.608C188.389 112.752 188.47 112.948 188.47 113.152C188.47 113.356 188.389 113.551 188.244 113.696C188.1 113.84 187.905 113.921 187.701 113.921C186.985 113.919 186.285 114.13 185.689 114.526C185.094 114.922 184.629 115.486 184.354 116.147C184.079 116.807 184.006 117.535 184.145 118.236C184.283 118.938 184.627 119.583 185.132 120.09C185.637 120.597 186.282 120.942 186.983 121.082C187.685 121.222 188.412 121.151 189.073 120.878C189.734 120.604 190.3 120.141 190.697 119.546C191.095 118.951 191.307 118.252 191.307 117.537C191.307 117.333 191.388 117.137 191.533 116.993C191.677 116.848 191.872 116.767 192.076 116.767C192.28 116.767 192.476 116.848 192.62 116.993C192.764 117.137 192.845 117.333 192.845 117.537C192.845 118.902 192.304 120.211 191.339 121.178C190.375 122.144 189.066 122.688 187.701 122.69Z" fill="#263238"/>
<path d="M187.577 120.556C182.866 120.556 182.609 110.382 182.609 108.348V108.278C182.609 106.227 182.848 96.0078 187.577 96.0078C192.307 96.0078 192.634 107.04 192.66 108.304L188.559 108.384C188.555 106.011 188.213 103.65 187.542 101.374C186.924 103.622 186.626 105.946 186.658 108.278V108.348C186.618 110.692 186.916 113.029 187.542 115.288C187.586 115.138 187.639 114.978 187.684 114.793L188.011 113.679L190.945 114.536C191.23 114.622 191.47 114.817 191.612 115.079C191.755 115.34 191.788 115.647 191.706 115.933C190.822 118.956 189.452 120.556 187.577 120.556Z" fill="#BFBFBF" stroke="#263238" stroke-linecap="round" stroke-linejoin="round"/>
<path d="M192.077 118.306C191.873 118.306 191.677 118.225 191.533 118.08C191.388 117.936 191.307 117.741 191.307 117.537C191.307 116.579 190.928 115.661 190.252 114.983C189.575 114.305 188.658 113.923 187.701 113.921C187.497 113.921 187.301 113.84 187.157 113.696C187.013 113.551 186.932 113.356 186.932 113.152C186.932 112.948 187.013 112.752 187.157 112.608C187.301 112.464 187.497 112.383 187.701 112.383C189.066 112.385 190.375 112.929 191.339 113.895C192.304 114.862 192.846 116.171 192.846 117.537C192.846 117.741 192.765 117.936 192.62 118.08C192.476 118.225 192.28 118.306 192.077 118.306Z" fill="#263238"/>
<path d="M211.833 122.69C210.467 122.69 209.156 122.147 208.189 121.181C207.223 120.214 206.68 118.903 206.68 117.537C206.68 116.17 207.223 114.859 208.189 113.892C209.156 112.926 210.467 112.383 211.833 112.383C212.037 112.383 212.233 112.464 212.377 112.608C212.521 112.752 212.602 112.948 212.602 113.152C212.602 113.356 212.521 113.551 212.377 113.696C212.233 113.84 212.037 113.921 211.833 113.921C211.118 113.921 210.419 114.133 209.825 114.53C209.23 114.928 208.767 115.492 208.493 116.153C208.219 116.814 208.148 117.541 208.287 118.242C208.427 118.943 208.771 119.587 209.277 120.093C209.782 120.599 210.427 120.943 211.128 121.083C211.829 121.222 212.556 121.151 213.217 120.877C213.878 120.603 214.442 120.14 214.84 119.545C215.237 118.951 215.449 118.252 215.449 117.537C215.437 117.429 215.449 117.321 215.482 117.218C215.515 117.115 215.569 117.021 215.641 116.94C215.714 116.86 215.802 116.796 215.9 116.752C215.999 116.708 216.106 116.685 216.214 116.685C216.322 116.685 216.428 116.708 216.527 116.752C216.625 116.796 216.714 116.86 216.786 116.94C216.858 117.021 216.912 117.115 216.946 117.218C216.979 117.321 216.99 117.429 216.978 117.537C216.978 118.902 216.437 120.211 215.472 121.178C214.507 122.144 213.199 122.688 211.833 122.69Z" fill="#263238"/>
<path d="M211.71 120.556C206.999 120.556 206.742 110.382 206.742 108.348V108.278C206.742 106.227 206.981 96.0078 211.71 96.0078C216.44 96.0078 216.767 107.04 216.793 108.304L212.692 108.384C212.688 106.011 212.346 103.65 211.675 101.374C211.071 103.624 210.789 105.948 210.835 108.278V108.348C210.795 110.692 211.093 113.029 211.719 115.288C211.719 115.138 211.816 114.978 211.861 114.793L212.161 113.652L215.016 114.483C215.301 114.569 215.541 114.764 215.683 115.026C215.826 115.287 215.859 115.594 215.777 115.88C214.963 118.956 213.584 120.556 211.71 120.556Z" fill="#BFBFBF" stroke="#263238" stroke-linecap="round" stroke-linejoin="round"/>
<path d="M216.209 118.306C216.109 118.306 216.009 118.286 215.916 118.247C215.824 118.208 215.739 118.151 215.669 118.08C215.598 118.008 215.542 117.923 215.504 117.83C215.467 117.737 215.448 117.637 215.449 117.537C215.449 116.578 215.068 115.658 214.39 114.98C213.712 114.302 212.792 113.921 211.834 113.921C211.63 113.921 211.434 113.84 211.29 113.696C211.145 113.551 211.064 113.356 211.064 113.152C211.064 112.948 211.145 112.752 211.29 112.608C211.434 112.464 211.63 112.383 211.834 112.383C213.199 112.385 214.507 112.929 215.472 113.895C216.437 114.862 216.978 116.171 216.978 117.537C216.978 117.741 216.897 117.936 216.753 118.08C216.609 118.225 216.413 118.306 216.209 118.306Z" fill="#263238"/>
<path d="M236.117 122.69C234.75 122.69 233.439 122.147 232.472 121.181C231.506 120.214 230.963 118.903 230.963 117.537C230.963 116.17 231.506 114.859 232.472 113.892C233.439 112.926 234.75 112.383 236.117 112.383C236.321 112.383 236.516 112.464 236.66 112.608C236.805 112.752 236.886 112.948 236.886 113.152C236.886 113.356 236.805 113.551 236.66 113.696C236.516 113.84 236.321 113.921 236.117 113.921C235.402 113.921 234.703 114.133 234.108 114.53C233.513 114.928 233.05 115.492 232.776 116.153C232.503 116.814 232.431 117.541 232.571 118.242C232.71 118.943 233.054 119.587 233.56 120.093C234.066 120.599 234.71 120.943 235.411 121.083C236.113 121.222 236.84 121.151 237.5 120.877C238.161 120.603 238.726 120.14 239.123 119.545C239.52 118.951 239.732 118.252 239.732 117.537C239.732 117.333 239.813 117.137 239.957 116.993C240.102 116.848 240.297 116.767 240.501 116.767C240.705 116.767 240.901 116.848 241.045 116.993C241.189 117.137 241.27 117.333 241.27 117.537C241.268 118.903 240.724 120.212 239.758 121.178C238.792 122.144 237.483 122.688 236.117 122.69Z" fill="#263238"/>
<path d="M236.029 120.556C231.317 120.556 231.061 110.382 231.061 108.348V108.278C231.061 106.227 231.299 96.0078 236.029 96.0078C240.758 96.0078 241.085 107.04 241.112 108.304L237.01 108.384C237.011 106.01 236.669 103.649 235.993 101.374C235.398 103.625 235.118 105.949 235.162 108.278V108.348C235.118 110.692 235.416 113.03 236.046 115.288C236.09 115.138 236.144 114.978 236.188 114.793L236.515 113.679L239.37 114.51C239.655 114.596 239.895 114.791 240.037 115.052C240.179 115.314 240.213 115.621 240.13 115.907C239.246 118.956 237.867 120.556 236.029 120.556Z" fill="#BFBFBF" stroke="#263238" stroke-linecap="round" stroke-linejoin="round"/>
<path d="M240.501 118.306C240.297 118.306 240.102 118.225 239.958 118.08C239.813 117.936 239.732 117.741 239.732 117.537C239.732 116.578 239.351 115.658 238.673 114.98C237.995 114.302 237.076 113.921 236.117 113.921C235.913 113.921 235.717 113.84 235.573 113.696C235.429 113.551 235.348 113.356 235.348 113.152C235.348 112.948 235.429 112.752 235.573 112.608C235.717 112.464 235.913 112.383 236.117 112.383C237.483 112.385 238.792 112.929 239.758 113.895C240.724 114.861 241.268 116.17 241.27 117.537C241.27 117.741 241.189 117.936 241.045 118.08C240.901 118.225 240.705 118.306 240.501 118.306Z" fill="#263238"/>
<path d="M260.4 122.69C259.033 122.69 257.722 122.147 256.756 121.181C255.789 120.214 255.246 118.903 255.246 117.537C255.246 116.17 255.789 114.859 256.756 113.892C257.722 112.926 259.033 112.383 260.4 112.383C260.604 112.383 260.799 112.464 260.944 112.608C261.088 112.752 261.169 112.948 261.169 113.152C261.169 113.356 261.088 113.551 260.944 113.696C260.799 113.84 260.604 113.921 260.4 113.921C259.685 113.921 258.986 114.133 258.391 114.53C257.797 114.928 257.333 115.492 257.059 116.153C256.786 116.814 256.714 117.541 256.854 118.242C256.993 118.943 257.338 119.587 257.843 120.093C258.349 120.599 258.993 120.943 259.694 121.083C260.396 121.222 261.123 121.151 261.783 120.877C262.444 120.603 263.009 120.14 263.406 119.545C263.803 118.951 264.015 118.252 264.015 117.537C264.015 117.333 264.096 117.137 264.241 116.993C264.385 116.848 264.58 116.767 264.784 116.767C264.988 116.767 265.184 116.848 265.328 116.993C265.473 117.137 265.554 117.333 265.554 117.537C265.551 118.903 265.007 120.212 264.041 121.178C263.075 122.144 261.766 122.688 260.4 122.69Z" fill="#263238"/>
<path d="M260.277 120.556C255.574 120.556 255.317 110.382 255.309 108.348V108.278C255.309 106.227 255.547 96.0078 260.277 96.0078C265.006 96.0078 265.333 107.04 265.36 108.304L261.258 108.384C261.256 106.011 260.917 103.651 260.25 101.374C259.647 103.624 259.364 105.948 259.41 108.278V108.348C259.367 110.692 259.664 113.03 260.294 115.288C260.339 115.138 260.392 114.978 260.436 114.793L260.781 113.652L263.636 114.483C263.922 114.568 264.164 114.762 264.308 115.023C264.452 115.285 264.487 115.593 264.405 115.88C263.53 118.956 262.151 120.556 260.277 120.556Z" fill="#BFBFBF" stroke="#263238" stroke-linecap="round" stroke-linejoin="round"/>
<path d="M264.785 118.306C264.581 118.306 264.385 118.225 264.241 118.08C264.097 117.936 264.015 117.741 264.015 117.537C264.015 116.578 263.635 115.658 262.957 114.98C262.278 114.302 261.359 113.921 260.4 113.921C260.196 113.921 260 113.84 259.856 113.696C259.712 113.551 259.631 113.356 259.631 113.152C259.631 112.948 259.712 112.752 259.856 112.608C260 112.464 260.196 112.383 260.4 112.383C261.766 112.385 263.076 112.929 264.042 113.895C265.008 114.861 265.551 116.17 265.554 117.537C265.554 117.741 265.473 117.936 265.328 118.08C265.184 118.225 264.989 118.306 264.785 118.306Z" fill="#263238"/>
<path d="M284.65 122.69C283.283 122.69 281.972 122.147 281.006 121.181C280.039 120.214 279.496 118.903 279.496 117.537C279.496 116.17 280.039 114.859 281.006 113.892C281.972 112.926 283.283 112.383 284.65 112.383C284.854 112.383 285.049 112.464 285.194 112.608C285.338 112.752 285.419 112.948 285.419 113.152C285.419 113.356 285.338 113.551 285.194 113.696C285.049 113.84 284.854 113.921 284.65 113.921C283.935 113.921 283.236 114.133 282.641 114.53C282.047 114.928 281.583 115.492 281.309 116.153C281.036 116.814 280.964 117.541 281.104 118.242C281.243 118.943 281.588 119.587 282.093 120.093C282.599 120.599 283.243 120.943 283.944 121.083C284.646 121.222 285.373 121.151 286.033 120.877C286.694 120.603 287.259 120.14 287.656 119.545C288.053 118.951 288.265 118.252 288.265 117.537C288.265 117.333 288.346 117.137 288.491 116.993C288.635 116.848 288.83 116.767 289.034 116.767C289.238 116.767 289.434 116.848 289.578 116.993C289.723 117.137 289.804 117.333 289.804 117.537C289.801 118.903 289.257 120.212 288.291 121.178C287.325 122.144 286.016 122.688 284.65 122.69Z" fill="#263238"/>
<path d="M284.56 120.556C279.857 120.556 279.601 110.382 279.592 108.348V108.278C279.592 106.227 279.83 96.0078 284.56 96.0078C289.289 96.0078 289.625 107.04 289.643 108.304L285.532 108.348C285.524 105.976 285.182 103.616 284.516 101.338C283.912 103.589 283.629 105.913 283.676 108.242V108.348C283.641 110.692 283.939 113.028 284.56 115.288C284.613 115.138 284.657 114.978 284.71 114.793L285.028 113.679L287.884 114.51C288.17 114.594 288.412 114.788 288.556 115.05C288.7 115.311 288.735 115.619 288.653 115.907C287.813 118.956 286.416 120.556 284.56 120.556Z" fill="#BFBFBF" stroke="#263238" stroke-linecap="round" stroke-linejoin="round"/>
<path d="M289.068 118.306C288.864 118.306 288.668 118.225 288.524 118.08C288.38 117.936 288.299 117.741 288.299 117.537C288.299 117.059 288.204 116.586 288.02 116.145C287.836 115.704 287.567 115.304 287.227 114.967C286.888 114.631 286.485 114.366 286.042 114.186C285.6 114.006 285.126 113.916 284.648 113.921C284.444 113.921 284.248 113.84 284.104 113.696C283.96 113.551 283.879 113.356 283.879 113.152C283.879 112.948 283.96 112.752 284.104 112.608C284.248 112.464 284.444 112.383 284.648 112.383C286.014 112.385 287.324 112.929 288.29 113.895C289.256 114.861 289.799 116.17 289.802 117.537C289.802 117.735 289.726 117.925 289.589 118.068C289.452 118.211 289.266 118.297 289.068 118.306Z" fill="#263238"/>
<path d="M278.027 375.07H236.479V375.954H278.027V375.07Z" fill="#263238"/>
<path d="M257.668 378.272C257.077 378.272 256.486 378.231 255.9 378.148C242.11 376.195 241.668 362.935 242.119 357.33C242.667 350.426 246.291 341.321 254.689 338.386C262.645 335.593 269.912 344.574 271.848 349.781C274.154 356.1 274.122 363.036 271.759 369.335C269.806 374.436 263.512 378.272 257.668 378.272ZM243.021 357.401C242.49 364.057 243.471 375.487 256.051 377.273C261.947 378.157 268.922 374.25 270.964 369.008C273.248 362.914 273.276 356.203 271.043 350.09C269.213 345.166 262.424 336.627 255.008 339.226C247.007 342.019 243.516 350.762 243.021 357.401Z" fill="#F95700"/>
<path d="M245.602 366.837C245.509 366.836 245.418 366.807 245.342 366.754C245.266 366.7 245.209 366.624 245.178 366.536C244.273 363.772 243.834 360.878 243.878 357.97C243.94 353.809 245.341 349.779 247.874 346.478C247.945 346.386 248.05 346.326 248.165 346.309C248.281 346.293 248.398 346.322 248.493 346.39C248.586 346.46 248.648 346.565 248.665 346.681C248.681 346.797 248.651 346.915 248.581 347.008C246.162 350.16 244.823 354.007 244.762 357.979C244.717 360.788 245.141 363.584 246.017 366.253C246.037 366.308 246.045 366.367 246.042 366.425C246.039 366.483 246.024 366.541 245.998 366.593C245.973 366.646 245.937 366.693 245.893 366.732C245.85 366.77 245.799 366.8 245.743 366.819C245.698 366.833 245.65 366.839 245.602 366.837Z" fill="#F95700"/>
<path d="M254.309 375.319H254.203C252.491 374.899 250.891 374.11 249.517 373.005C248.142 371.901 247.026 370.51 246.247 368.928C246.219 368.878 246.202 368.822 246.196 368.765C246.19 368.708 246.195 368.65 246.211 368.595C246.228 368.54 246.255 368.488 246.292 368.444C246.328 368.399 246.373 368.363 246.424 368.336C246.475 368.308 246.531 368.29 246.589 368.284C246.647 368.278 246.706 368.283 246.761 368.299C246.817 368.316 246.869 368.343 246.915 368.38C246.96 368.416 246.997 368.461 247.025 368.513C247.75 369.985 248.79 371.281 250.069 372.309C251.349 373.337 252.839 374.072 254.433 374.462C254.547 374.491 254.646 374.564 254.707 374.665C254.768 374.766 254.787 374.886 254.76 375.001C254.732 375.097 254.672 375.181 254.591 375.239C254.509 375.297 254.409 375.325 254.309 375.319Z" fill="#F95700"/>
<path d="M257.889 375.769C257.772 375.769 257.66 375.722 257.577 375.64C257.494 375.557 257.447 375.444 257.447 375.327C257.447 375.21 257.494 375.097 257.577 375.014C257.66 374.932 257.772 374.885 257.889 374.885C264.829 374.885 269.213 370.907 270.575 363.393C270.585 363.335 270.607 363.28 270.639 363.23C270.671 363.18 270.712 363.137 270.76 363.104C270.809 363.07 270.863 363.046 270.921 363.034C270.979 363.021 271.038 363.02 271.096 363.031C271.154 363.041 271.21 363.063 271.259 363.095C271.309 363.127 271.352 363.168 271.385 363.216C271.419 363.265 271.443 363.319 271.455 363.377C271.468 363.435 271.469 363.494 271.459 363.552C270 371.535 265.315 375.769 257.889 375.769Z" fill="#F95700"/>
<path d="M271.334 361.397C271.276 361.392 271.219 361.376 271.167 361.35C271.115 361.324 271.069 361.287 271.031 361.243C270.993 361.198 270.965 361.147 270.947 361.091C270.929 361.036 270.922 360.977 270.927 360.919C271.015 359.982 271.051 358.992 271.051 357.976C271.02 354.97 270.233 352.021 268.761 349.401C268.725 349.35 268.7 349.292 268.688 349.231C268.676 349.17 268.677 349.107 268.691 349.047C268.705 348.986 268.731 348.929 268.769 348.879C268.806 348.829 268.854 348.788 268.908 348.758C268.963 348.728 269.023 348.71 269.085 348.705C269.147 348.699 269.209 348.707 269.268 348.728C269.327 348.749 269.381 348.782 269.426 348.824C269.471 348.867 269.507 348.919 269.53 348.977C271.08 351.725 271.907 354.821 271.935 357.976C271.935 359.01 271.891 360.027 271.811 360.999C271.8 361.115 271.743 361.221 271.654 361.296C271.565 361.37 271.45 361.407 271.334 361.397Z" fill="#F95700"/>
<path d="M268.17 348.091C268.107 348.086 268.046 348.068 267.991 348.038C267.936 348.007 267.889 347.965 267.852 347.914C266.459 345.807 264.655 344.003 262.548 342.61C262.498 342.581 262.454 342.542 262.42 342.496C262.385 342.45 262.36 342.396 262.347 342.34C262.334 342.284 262.332 342.226 262.343 342.169C262.353 342.112 262.374 342.057 262.406 342.009C262.436 341.959 262.476 341.915 262.523 341.88C262.57 341.846 262.624 341.821 262.681 341.808C262.738 341.795 262.797 341.793 262.855 341.804C262.912 341.814 262.967 341.836 263.016 341.868C265.231 343.312 267.129 345.192 268.594 347.393C268.658 347.49 268.681 347.609 268.658 347.723C268.635 347.837 268.567 347.938 268.47 348.003C268.386 348.07 268.278 348.102 268.17 348.091Z" fill="#F95700"/>
<path d="M250.869 344.301C250.807 344.303 250.745 344.29 250.688 344.264C250.631 344.238 250.581 344.199 250.542 344.151C250.5 344.111 250.466 344.063 250.443 344.01C250.42 343.957 250.408 343.899 250.408 343.842C250.408 343.784 250.42 343.726 250.443 343.673C250.466 343.62 250.5 343.572 250.542 343.532C252.955 341.393 255.616 340.164 257.853 340.164C259.028 340.194 260.184 340.468 261.247 340.969C261.352 341.019 261.434 341.107 261.475 341.216C261.516 341.325 261.514 341.445 261.468 341.552C261.445 341.605 261.412 341.654 261.37 341.694C261.328 341.735 261.279 341.767 261.224 341.788C261.17 341.81 261.112 341.82 261.054 341.819C260.996 341.818 260.938 341.805 260.885 341.782C259.937 341.328 258.904 341.078 257.853 341.048C255.837 341.048 253.38 342.197 251.126 344.195C251.054 344.257 250.964 344.294 250.869 344.301Z" fill="#F95700"/>
<path d="M246.971 363.04C246.869 363.04 246.77 363.005 246.691 362.94C246.612 362.876 246.558 362.786 246.538 362.686C246.251 361.171 246.109 359.632 246.113 358.089C246.113 349.638 253.283 343.273 257.932 343.273C259.318 343.326 260.666 343.734 261.849 344.458C261.95 344.516 262.025 344.611 262.057 344.724C262.088 344.837 262.074 344.957 262.017 345.059C261.956 345.16 261.859 345.233 261.745 345.265C261.632 345.296 261.51 345.282 261.407 345.227C260.358 344.582 259.162 344.214 257.932 344.157C253.636 344.157 246.997 350.142 246.997 358.089C246.992 359.572 247.128 361.052 247.404 362.509C247.417 362.566 247.418 362.624 247.407 362.681C247.397 362.738 247.375 362.792 247.342 362.84C247.31 362.888 247.268 362.929 247.22 362.96C247.171 362.992 247.116 363.013 247.059 363.022L246.971 363.04Z" fill="#F95700"/>
<path d="M251.232 370.763C251.133 370.762 251.036 370.728 250.958 370.666C249.269 369.272 248.002 367.435 247.298 365.362C247.27 365.306 247.254 365.246 247.251 365.184C247.247 365.121 247.257 365.059 247.28 365.001C247.302 364.943 247.337 364.891 247.381 364.847C247.425 364.803 247.478 364.769 247.536 364.747C247.595 364.725 247.657 364.716 247.719 364.72C247.781 364.723 247.842 364.74 247.897 364.769C247.952 364.798 248 364.838 248.039 364.887C248.077 364.936 248.105 364.992 248.121 365.052C248.774 366.962 249.947 368.651 251.506 369.932C251.553 369.968 251.591 370.013 251.62 370.065C251.649 370.116 251.667 370.173 251.674 370.231C251.68 370.29 251.675 370.349 251.658 370.405C251.642 370.462 251.614 370.514 251.577 370.56C251.54 370.619 251.49 370.668 251.429 370.704C251.369 370.739 251.302 370.759 251.232 370.763Z" fill="#F95700"/>
<path d="M257.934 372.915C256.403 372.931 254.882 372.658 253.452 372.111C253.345 372.066 253.259 371.98 253.213 371.873C253.166 371.766 253.164 371.645 253.205 371.536C253.226 371.482 253.258 371.433 253.298 371.391C253.339 371.349 253.387 371.316 253.441 371.293C253.494 371.27 253.551 371.258 253.61 371.257C253.668 371.256 253.725 371.267 253.779 371.289C255.105 371.794 256.515 372.046 257.934 372.031C265.006 372.031 268.869 367.081 268.869 358.09C268.869 357.973 268.916 357.861 268.999 357.778C269.082 357.695 269.194 357.648 269.311 357.648C269.428 357.651 269.539 357.698 269.621 357.78C269.704 357.863 269.751 357.974 269.753 358.09C269.753 367.646 265.554 372.915 257.934 372.915Z" fill="#F95700"/>
<path d="M269.159 356.546C269.053 356.545 268.952 356.506 268.872 356.436C268.793 356.366 268.741 356.27 268.726 356.165C268.157 352.526 266.326 349.203 263.555 346.777C263.513 346.736 263.48 346.687 263.458 346.634C263.435 346.58 263.424 346.522 263.424 346.464C263.424 346.405 263.435 346.347 263.458 346.294C263.48 346.24 263.513 346.191 263.555 346.15C263.637 346.069 263.748 346.023 263.864 346.023C263.98 346.023 264.091 346.069 264.173 346.15C267.088 348.71 269.015 352.21 269.619 356.042C269.634 356.159 269.603 356.277 269.532 356.371C269.461 356.466 269.355 356.528 269.239 356.546H269.159Z" fill="#F95700"/>
<path d="M257.977 370.015C252.046 370.015 248.359 365.48 248.359 358.187C248.397 355.232 249.459 352.382 251.365 350.125C251.442 350.036 251.551 349.98 251.668 349.97C251.785 349.96 251.902 349.997 251.993 350.072C252.037 350.108 252.074 350.154 252.101 350.205C252.128 350.256 252.145 350.312 252.15 350.37C252.155 350.427 252.148 350.486 252.13 350.541C252.112 350.596 252.084 350.647 252.046 350.69C250.268 352.787 249.277 355.438 249.243 358.187C249.243 364.94 252.585 369.131 257.977 369.131C259.503 369.169 261.012 368.806 262.353 368.079C262.453 368.034 262.566 368.027 262.67 368.061C262.774 368.094 262.862 368.165 262.917 368.259C262.972 368.354 262.99 368.466 262.968 368.573C262.945 368.68 262.884 368.775 262.795 368.839C261.322 369.651 259.659 370.057 257.977 370.015Z" fill="#F95700"/>
<path d="M264.82 366.98C264.723 366.977 264.63 366.943 264.555 366.883C264.462 366.811 264.402 366.706 264.387 366.59C264.372 366.474 264.404 366.357 264.475 366.264C265.934 364.39 266.712 361.605 266.712 358.22C266.712 351.97 261.408 347.267 257.978 347.267C256.672 347.333 255.416 347.789 254.371 348.575C254.275 348.625 254.164 348.638 254.059 348.612C253.954 348.586 253.863 348.522 253.802 348.432C253.741 348.343 253.714 348.235 253.728 348.127C253.742 348.02 253.794 347.921 253.876 347.85C255.064 346.959 256.494 346.447 257.978 346.383C261.761 346.383 267.596 351.466 267.596 358.22C267.596 361.756 266.756 364.77 265.173 366.803C265.132 366.858 265.078 366.902 265.017 366.932C264.956 366.963 264.888 366.979 264.82 366.98Z" fill="#F95700"/>
<path d="M253.194 365.225C253.134 365.227 253.074 365.215 253.019 365.19C252.964 365.166 252.915 365.13 252.876 365.084C251.292 363.207 250.478 360.801 250.595 358.348C250.595 353.583 254.679 349.508 258.021 349.508C258.649 349.516 259.269 349.642 259.851 349.879C259.951 349.927 260.03 350.011 260.072 350.115C260.113 350.218 260.113 350.334 260.073 350.438C260.033 350.542 259.955 350.627 259.854 350.676C259.754 350.725 259.639 350.734 259.532 350.701C259.052 350.506 258.539 350.401 258.021 350.392C255.077 350.392 251.479 354.069 251.479 358.348C251.366 360.575 252.091 362.764 253.512 364.483C253.554 364.524 253.587 364.573 253.609 364.627C253.632 364.68 253.643 364.738 253.643 364.797C253.643 364.855 253.632 364.913 253.609 364.967C253.587 365.02 253.554 365.069 253.512 365.11C253.47 365.15 253.42 365.181 253.365 365.201C253.31 365.221 253.252 365.229 253.194 365.225Z" fill="#F95700"/>
<path d="M258.021 367.194C257.037 367.203 256.062 367.02 255.148 366.655C255.094 366.634 255.045 366.602 255.003 366.561C254.961 366.521 254.928 366.472 254.905 366.419C254.882 366.366 254.87 366.308 254.869 366.25C254.868 366.192 254.879 366.134 254.901 366.08C254.922 366.026 254.954 365.977 254.995 365.936C255.035 365.894 255.084 365.862 255.137 365.839C255.191 365.817 255.248 365.806 255.307 365.806C255.365 365.807 255.422 365.819 255.475 365.842C256.286 366.16 257.15 366.319 258.021 366.31C262.114 366.31 264.554 363.331 264.554 358.354C264.533 357.093 264.236 355.852 263.683 354.719C263.13 353.585 262.335 352.587 261.354 351.795C261.302 351.761 261.258 351.716 261.225 351.664C261.192 351.612 261.17 351.554 261.161 351.493C261.151 351.431 261.155 351.369 261.171 351.309C261.188 351.25 261.216 351.194 261.256 351.146C261.295 351.099 261.344 351.06 261.399 351.032C261.454 351.004 261.514 350.988 261.576 350.985C261.638 350.982 261.699 350.992 261.757 351.014C261.815 351.036 261.867 351.071 261.911 351.114C262.995 351.988 263.874 353.089 264.485 354.341C265.096 355.592 265.424 356.962 265.447 358.354C265.438 363.888 262.662 367.194 258.021 367.194Z" fill="#F95700"/>
<path d="M258.057 364.331C256.851 364.361 255.675 363.951 254.748 363.179C253.821 362.407 253.207 361.324 253.018 360.132C253.006 360.074 253.004 360.014 253.015 359.956C253.025 359.897 253.047 359.841 253.079 359.791C253.111 359.741 253.153 359.698 253.201 359.664C253.25 359.63 253.305 359.606 253.363 359.593C253.421 359.58 253.481 359.579 253.54 359.589C253.598 359.6 253.654 359.622 253.704 359.654C253.754 359.686 253.797 359.727 253.832 359.776C253.866 359.825 253.89 359.88 253.902 359.938C254.05 360.935 254.557 361.843 255.326 362.494C256.096 363.145 257.076 363.493 258.084 363.474C260.736 363.474 262.424 361.573 262.424 358.497C262.424 358.379 262.471 358.267 262.554 358.184C262.636 358.101 262.749 358.055 262.866 358.055C262.983 358.055 263.096 358.101 263.179 358.184C263.262 358.267 263.308 358.379 263.308 358.497C263.282 362.059 261.231 364.331 258.057 364.331Z" fill="#F95700"/>
<path d="M253.274 358.912C253.157 358.912 253.044 358.866 252.961 358.783C252.879 358.7 252.832 358.588 252.832 358.47C252.832 355.164 255.643 352.609 258.056 352.609C259.939 352.609 261.937 354.112 262.821 356.198C262.844 356.252 262.856 356.31 262.856 356.369C262.856 356.427 262.845 356.485 262.823 356.54C262.801 356.594 262.768 356.643 262.727 356.685C262.686 356.726 262.637 356.759 262.583 356.782C262.529 356.804 262.471 356.816 262.412 356.817C262.354 356.817 262.296 356.806 262.241 356.783C262.187 356.761 262.138 356.729 262.096 356.687C262.055 356.646 262.022 356.597 261.999 356.543C261.691 355.718 261.159 354.996 260.462 354.457C259.766 353.918 258.932 353.584 258.056 353.493C256.05 353.493 253.716 355.668 253.716 358.47C253.716 358.588 253.669 358.7 253.587 358.783C253.504 358.866 253.391 358.912 253.274 358.912Z" fill="#F95700"/>
<path d="M258.128 361.475C257.364 361.475 256.631 361.171 256.09 360.631C255.55 360.09 255.246 359.357 255.246 358.593C255.246 357.828 255.55 357.095 256.09 356.555C256.631 356.015 257.364 355.711 258.128 355.711C258.245 355.711 258.358 355.758 258.44 355.84C258.523 355.923 258.57 356.036 258.57 356.153C258.57 356.27 258.523 356.383 258.44 356.465C258.358 356.548 258.245 356.595 258.128 356.595C257.738 356.622 257.364 356.763 257.053 357C256.742 357.237 256.507 357.56 256.377 357.929C256.247 358.297 256.227 358.696 256.321 359.076C256.414 359.456 256.616 359.8 256.903 360.066C257.189 360.332 257.547 360.509 257.932 360.575C258.318 360.64 258.714 360.592 259.073 360.436C259.431 360.279 259.736 360.021 259.949 359.694C260.163 359.367 260.277 358.984 260.276 358.593C260.274 358.316 260.212 358.044 260.094 357.793C259.977 357.543 259.807 357.321 259.595 357.143C259.506 357.066 259.452 356.956 259.443 356.838C259.435 356.721 259.474 356.604 259.551 356.515C259.629 356.426 259.738 356.372 259.856 356.363C259.974 356.355 260.09 356.394 260.179 356.471C260.483 356.735 260.728 357.061 260.897 357.427C261.066 357.792 261.156 358.19 261.16 358.593C261.139 359.377 260.808 360.12 260.24 360.661C259.671 361.201 258.912 361.494 258.128 361.475Z" fill="#F95700"/>
<path d="M240.959 368.44C240.91 368.449 240.859 368.449 240.809 368.44C240.735 368.412 240.67 368.366 240.619 368.305C240.568 368.245 240.533 368.173 240.517 368.096C239.947 364.346 240.479 360.511 242.048 357.058C243.618 353.606 246.157 350.683 249.357 348.648C250.817 347.667 252.496 347.059 254.246 346.88C254.379 346.464 254.502 346.049 254.617 345.624C249.845 346.175 245.472 348.554 242.417 352.261C239.363 355.969 237.864 360.716 238.237 365.505C238.241 365.563 238.235 365.622 238.217 365.677C238.199 365.733 238.17 365.784 238.132 365.828C238.056 365.918 237.947 365.973 237.83 365.983C237.713 365.992 237.597 365.955 237.507 365.878C237.418 365.802 237.362 365.693 237.353 365.576C236.942 360.436 238.59 355.343 241.934 351.418C245.277 347.493 250.043 345.056 255.183 344.643C255.252 344.636 255.323 344.645 255.387 344.672C255.452 344.698 255.51 344.74 255.554 344.793C255.601 344.847 255.633 344.912 255.648 344.981C255.664 345.051 255.662 345.123 255.643 345.191C255.501 345.739 255.351 346.287 255.183 346.827C256.08 346.853 256.959 347.091 257.747 347.521C258.535 347.951 259.21 348.561 259.718 349.302C260.118 349.928 260.367 350.64 260.443 351.379L260.867 350.866C260.935 350.782 261.032 350.726 261.139 350.708C261.246 350.69 261.355 350.712 261.447 350.77C261.538 350.828 261.606 350.918 261.636 351.022C261.666 351.126 261.656 351.237 261.61 351.335C260.726 353.306 260.027 355.083 260.416 356.833C260.522 357.262 260.718 357.663 260.991 358.009C262.672 356.275 264.707 354.925 266.958 354.049C267.028 354.021 267.104 354.013 267.178 354.024C267.253 354.034 267.323 354.064 267.382 354.111C267.47 354.178 267.53 354.276 267.55 354.385C270.728 352.063 274.193 350.162 277.858 348.727C277.913 348.701 277.972 348.687 278.033 348.685C278.094 348.683 278.154 348.693 278.211 348.716C278.267 348.738 278.319 348.772 278.361 348.815C278.404 348.859 278.438 348.91 278.459 348.967C278.481 349.024 278.491 349.084 278.489 349.145C278.486 349.206 278.471 349.265 278.445 349.32C278.418 349.375 278.38 349.423 278.334 349.463C278.288 349.502 278.234 349.532 278.176 349.549C274.312 351.064 270.676 353.108 267.373 355.622C266.925 357.561 266.032 359.369 264.764 360.903C263.497 362.437 261.891 363.656 260.072 364.462L257.066 367.521C257.001 367.588 256.916 367.633 256.824 367.649C256.732 367.664 256.637 367.651 256.553 367.609C256.471 367.564 256.404 367.495 256.362 367.412C256.319 367.328 256.303 367.234 256.315 367.141C256.85 363.985 258.259 361.042 260.381 358.646C259.985 358.171 259.704 357.611 259.559 357.01C259.458 356.558 259.413 356.095 259.426 355.631L259.161 356.047C257.734 357.843 255.972 359.344 253.972 360.467C253.883 360.521 253.778 360.542 253.675 360.526C253.573 360.51 253.479 360.459 253.41 360.381C253.341 360.303 253.302 360.203 253.3 360.099C253.298 359.995 253.332 359.894 253.397 359.812L259.585 352.396C259.678 351.47 259.467 350.539 258.984 349.744C258.524 349.096 257.913 348.57 257.205 348.21C256.497 347.85 255.712 347.666 254.918 347.675C252.306 355.659 247.584 362.788 241.251 368.308C241.173 368.386 241.069 368.433 240.959 368.44ZM253.972 347.755C252.494 347.979 251.082 348.522 249.835 349.346C246.893 351.217 244.533 353.873 243.02 357.014C241.508 360.155 240.905 363.657 241.278 367.123C247.105 361.867 251.477 355.195 253.972 347.755ZM257.694 365.196L257.508 365.841L258.215 365.116L257.862 365.196C257.807 365.214 257.748 365.214 257.694 365.196ZM262.37 360.025C261.135 361.276 259.978 362.602 258.905 363.994C259.126 363.914 259.347 363.835 259.568 363.737L263.104 360.201C262.853 360.17 262.607 360.111 262.37 360.025ZM261.017 359.291C260.035 360.408 259.211 361.654 258.569 362.995C259.49 361.824 260.473 360.703 261.512 359.636C261.341 359.531 261.175 359.416 261.017 359.291ZM263.873 360.617L262.9 361.607C263.246 361.299 263.571 360.968 263.873 360.617ZM263.121 359.273C263.521 359.307 263.92 359.204 264.253 358.982C264.344 358.922 264.454 358.898 264.561 358.914C264.669 358.93 264.767 358.986 264.836 359.07C264.877 359.116 264.908 359.17 264.925 359.229C265.472 358.387 265.909 357.478 266.224 356.524C265.146 357.39 264.111 358.307 263.121 359.273ZM261.619 358.637C261.784 358.773 261.965 358.889 262.158 358.982C263.504 357.644 264.933 356.392 266.436 355.233C264.65 356.065 263.032 357.219 261.663 358.637H261.619ZM259.09 354.394L256.173 357.93C257.04 357.269 257.803 356.483 258.436 355.596C258.693 355.217 258.912 354.815 259.09 354.394Z" fill="#263238"/>
<path d="M286.876 158.32H277.072V159.204H286.876V158.32Z" fill="#263238"/>
<path d="M272.776 158.32H266.871V159.204H272.776V158.32Z" fill="#263238"/>
<path d="M262.397 158.32H114.84V159.204H262.397V158.32Z" fill="#263238"/>
<path d="M222.378 357.016H214.572V357.9H222.378V357.016Z" fill="#263238"/>
<path d="M208.871 357.016H180.83V357.9H208.871V357.016Z" fill="#263238"/>
<path d="M219.435 375.952C208.606 375.757 198.917 375.757 188.035 375.952V375.068C198.926 374.873 208.615 374.873 219.461 375.068L219.435 375.952Z" fill="#263238"/>
<path d="M182.334 375.062H177.896V375.947H182.334V375.062Z" fill="#263238"/>
<path d="M228.354 213.172H222.873V214.056H228.354V213.172Z" fill="#263238"/>
<path d="M213.539 213.155L213.533 214.039L217.14 214.062L217.145 213.178L213.539 213.155Z" fill="#263238"/>
<path d="M186.816 214.052V213.168C193.8 213.124 200.792 213.106 207.599 213.124V214.008C200.784 213.99 193.8 214.008 186.816 214.052Z" fill="#263238"/>
<path d="M228.364 231.219H216.289V232.103H228.364V231.219Z" fill="#263238"/>
<path d="M210.357 231.219H186.816V232.103H210.357V231.219Z" fill="#263238"/>
<path d="M212.61 250.212C207.474 250.212 202.347 250.212 196.945 250.15V249.266C207.748 249.345 217.436 249.345 228.345 249.266V250.15C222.9 250.185 217.755 250.212 212.61 250.212Z" fill="#263238"/>
<path d="M191.06 249.266H186.816V250.15H191.06V249.266Z" fill="#263238"/>
<path d="M228.364 267.305H186.816V268.189H228.364V267.305Z" fill="#263238"/>
<path d="M212.16 286.408C210.062 286.408 207.985 286.408 205.928 286.408V285.524C213.221 285.586 220.77 285.524 228.346 285.383V286.267C222.918 286.355 217.464 286.408 212.16 286.408Z" fill="#263238"/>
<path d="M199.96 286.314L196.424 286.243V285.359L199.96 285.43V286.314Z" fill="#263238"/>
<path d="M190.671 285.359H186.816V286.243H190.671V285.359Z" fill="#263238"/>
<path d="M211.719 304.051C206.618 304.051 201.517 303.953 196.125 303.759V302.875C206.883 303.264 216.457 303.264 227.233 302.875V303.759C221.885 303.953 216.819 304.051 211.719 304.051Z" fill="#263238"/>
<path d="M190.377 302.875H185.736V303.759H190.377V302.875Z" fill="#263238"/>
<path d="M226.304 320.93H220.381V321.814H226.304V320.93Z" fill="#263238"/>
<path d="M199.784 321.822H184.756V320.938C194.48 320.938 205.088 320.938 214.812 320.938V321.822H199.784Z" fill="#263238"/>
<path d="M193.215 339.854V338.97C204.291 338.625 213.9 338.625 224.385 338.97V339.854C213.865 339.509 204.265 339.509 193.215 339.854Z" fill="#263238"/>
<path d="M187.434 338.969H182.793V339.853H187.434V338.969Z" fill="#263238"/>
<path d="M127.367 139.878V141.716C127.367 143.971 126.28 145.199 124.061 145.199H123.018V150.503H120.799V136.359H124.061C126.28 136.395 127.367 137.623 127.367 139.878ZM123.018 138.401V143.175H124.061C124.768 143.175 125.148 142.857 125.148 141.849V139.736C125.148 138.728 124.768 138.401 124.061 138.401H123.018Z" fill="#263238"/>
<path d="M130.717 142.344H133.758V144.36H130.717V148.488H134.545V150.503H128.498V136.359H134.545V138.401H130.717V142.344Z" fill="#263238"/>
<path d="M140.556 150.504C140.375 149.934 140.309 149.333 140.362 148.736V146.518C140.362 145.209 139.911 144.75 138.903 144.75H138.143V150.496H135.924V136.352H139.265C141.564 136.352 142.554 137.421 142.554 139.596V140.701C142.554 142.159 142.094 143.105 141.104 143.565C142.209 144.034 142.572 145.094 142.572 146.571V148.745C142.533 149.328 142.617 149.912 142.819 150.46L140.556 150.504ZM138.134 138.402V142.734H139.018C139.84 142.734 140.344 142.372 140.344 141.24V139.852C140.344 138.844 139.999 138.402 139.221 138.402H138.134Z" fill="#263238"/>
<path d="M147 136.234C149.157 136.234 150.262 137.525 150.262 139.77V140.212H148.167V139.629C148.167 138.621 147.76 138.241 147.062 138.241C146.363 138.241 145.948 138.621 145.948 139.629C145.948 142.528 150.279 143.077 150.279 147.108C150.279 149.362 149.157 150.644 146.982 150.644C144.807 150.644 143.676 149.353 143.676 147.108V146.224H145.771V147.24C145.771 148.248 146.213 148.61 146.92 148.61C147.627 148.61 148.069 148.248 148.069 147.24C148.069 144.341 143.738 143.793 143.738 139.762C143.738 137.516 144.843 136.234 147 136.234Z" fill="#263238"/>
<path d="M151.377 139.778C151.377 137.524 152.562 136.242 154.736 136.242C156.911 136.242 158.104 137.533 158.104 139.778V147.115C158.104 149.37 156.92 150.651 154.736 150.651C152.553 150.651 151.377 149.361 151.377 147.115V139.778ZM153.587 147.257C153.587 148.265 154.038 148.645 154.736 148.645C155.435 148.645 155.885 148.265 155.885 147.257V139.637C155.885 138.629 155.443 138.249 154.736 138.249C154.029 138.249 153.587 138.629 153.587 139.637V147.257Z" fill="#263238"/>
<path d="M161.507 140.284V150.503H159.518V136.359H162.293L164.574 144.802V136.359H166.545V150.503H164.274L161.507 140.284Z" fill="#263238"/>
<path d="M175.314 150.503H173.078L172.698 147.94H169.975L169.595 150.503H167.553L169.816 136.359H173.06L175.314 150.503ZM170.258 146.03H172.379L171.31 138.896L170.258 146.03Z" fill="#263238"/>
<path d="M176.34 136.391H178.568V148.484H182.218V150.499H176.349L176.34 136.391Z" fill="#263238"/>
<path d="M186.303 136.391H189.839C192.058 136.391 193.145 137.619 193.145 139.874V147.007C193.145 149.271 192.058 150.499 189.839 150.499H186.303V136.391ZM188.513 138.406V148.484H189.768C190.475 148.484 190.891 148.121 190.891 147.114V139.776C190.891 138.769 190.475 138.406 189.768 138.406H188.513Z" fill="#263238"/>
<path d="M201.676 150.503H199.439L199.059 147.94H196.336L195.956 150.503H193.914L196.177 136.359H199.421L201.676 150.503ZM196.619 146.03H198.758L197.689 138.896L196.619 146.03Z" fill="#263238"/>
<path d="M202.064 136.391H208.915V138.397H206.591V150.49H204.381V138.397H202.064V136.391Z" fill="#263238"/>
<path d="M216.289 150.503H214.052L213.672 147.94H210.95L210.569 150.503H208.527L210.79 136.359H214.035L216.289 150.503ZM211.277 146.03H213.416L212.346 138.896L211.277 146.03Z" fill="#263238"/>
<path d="M123.009 208.819V209.703H121.109V213.239H120.225V205H123.495V205.884H121.109V208.881L123.009 208.819Z" fill="#263238"/>
<path d="M125.113 204.984V213.223H124.229V204.984H125.113Z" fill="#263238"/>
<path d="M127.887 204.986C129.178 204.986 129.726 205.649 129.726 206.869V207.541C129.726 208.425 129.408 209.017 128.701 209.238C129.452 209.459 129.735 210.069 129.735 210.953V212.235C129.706 212.574 129.764 212.915 129.903 213.225H128.966C128.838 212.909 128.787 212.567 128.816 212.226V210.892C128.816 210.008 128.382 209.672 127.613 209.672H126.968V213.208H126.084V204.969L127.887 204.986ZM127.649 208.867C128.382 208.867 128.816 208.637 128.816 207.745V206.958C128.816 206.215 128.55 205.826 127.861 205.826H126.977V208.867H127.649Z" fill="#263238"/>
<path d="M134.253 206.966V207.187H133.369V206.922C133.369 206.179 133.086 205.746 132.432 205.746C131.778 205.746 131.486 206.179 131.486 206.904C131.486 208.752 134.253 208.928 134.253 211.245C134.253 212.491 133.652 213.304 132.396 213.304C131.141 213.304 130.549 212.491 130.549 211.245V210.776H131.433V211.298C131.433 212.031 131.742 212.473 132.396 212.473C133.051 212.473 133.36 212.031 133.36 211.298C133.36 209.459 130.611 209.282 130.611 206.966C130.611 205.693 131.203 204.906 132.432 204.906C133.661 204.906 134.253 205.72 134.253 206.966Z" fill="#263238"/>
<path d="M136.26 213.221V205.821H134.748V204.938H138.7V205.821H137.179V213.221H136.26Z" fill="#263238"/>
<path d="M141.971 213.223H141.148V204.984H142.324L144.234 210.943V204.984H145.047V213.223H144.092L141.988 206.567L141.971 213.223Z" fill="#263238"/>
<path d="M146.894 211.561L146.575 213.223H145.691L147.274 204.984H148.6L150.173 213.223H149.289L148.971 211.561H146.894ZM147.009 210.775H148.847L147.963 206.027L147.009 210.775Z" fill="#263238"/>
<path d="M153.966 213.206H153.082L151.72 206.655V213.223H150.916V204.984H152.198L153.55 211.561L154.859 204.984H156.14V213.223H155.256V206.602L153.966 213.206Z" fill="#263238"/>
<path d="M160.003 208.635V209.457H157.988V212.383H160.463V213.223H157.068V204.984H160.463V205.868H157.988V208.679L160.003 208.635Z" fill="#263238"/>
<path d="M178.568 207.602V208.742H177.684V207.602H178.568ZM178.568 212.083V213.224H177.684V212.083H178.568Z" fill="#263238"/>
<path d="M120.225 231.652V223.422H121.109V230.821H123.46V231.652H120.225Z" fill="#263238"/>
<path d="M125.086 229.999L124.768 231.652H123.928L125.501 223.422H126.827L128.41 231.652H127.526L127.207 229.999H125.086ZM125.21 229.212H127.039L126.111 224.456L125.21 229.212Z" fill="#263238"/>
<path d="M132.688 225.403V225.624H131.804V225.35C131.804 224.608 131.521 224.175 130.867 224.175C130.213 224.175 129.93 224.608 129.93 225.342C129.93 227.189 132.688 227.366 132.688 229.682C132.688 230.928 132.087 231.742 130.832 231.742C129.577 231.742 128.984 230.928 128.984 229.682V229.214H129.868V229.726C129.868 230.469 130.178 230.902 130.832 230.902C131.486 230.902 131.795 230.469 131.795 229.726C131.795 227.896 129.046 227.72 129.046 225.403C129.046 224.131 129.639 223.344 130.867 223.344C132.096 223.344 132.688 224.148 132.688 225.403Z" fill="#263238"/>
<path d="M134.695 231.652V224.262H133.184V223.422H137.135V224.262H135.615V231.652H134.695Z" fill="#263238"/>
<path d="M140.406 231.652H139.584V223.422H140.742L142.651 229.371V223.422H143.465V231.652H142.51L140.406 225.031V231.652Z" fill="#263238"/>
<path d="M145.33 229.999L145.012 231.652H144.172L145.745 223.422H147.071L148.645 231.652H147.761L147.443 229.999H145.33ZM145.454 229.212H147.284L146.355 224.456L145.454 229.212Z" fill="#263238"/>
<path d="M152.402 231.643H151.518L150.157 225.093V231.652H149.396V223.422H150.678L152.031 229.999L153.339 223.422H154.621V231.652H153.737V225.031L152.402 231.643Z" fill="#263238"/>
<path d="M158.448 227.073V227.895H156.468V230.821H158.943V231.652H155.549V223.422H158.943V224.262H156.468V227.073H158.448Z" fill="#263238"/>
<path d="M178.868 226.031V227.18H177.984V226.031H178.868ZM178.868 230.513V231.653H177.984V230.513H178.868Z" fill="#263238"/>
<path d="M121.109 241.406V249.636H120.225V241.406H121.109Z" fill="#263238"/>
<path d="M123.982 241.406C125.264 241.406 125.856 242.175 125.856 243.448V247.603C125.856 248.858 125.264 249.636 123.982 249.636H122.055V241.406H123.982ZM123.982 248.805C124.636 248.805 124.954 248.39 124.954 247.638V243.404C124.954 242.653 124.636 242.237 123.973 242.237H122.983V248.805H123.982Z" fill="#263238"/>
<path d="M129.348 249.636H128.525V241.406H129.692L131.593 247.356V241.406H132.406V249.636H131.451L129.348 242.98V249.636Z" fill="#263238"/>
<path d="M134.218 247.692C134.218 248.434 134.51 248.885 135.182 248.885C135.853 248.885 136.136 248.434 136.136 247.692V241.406H137.02V247.647C137.02 248.894 136.446 249.734 135.173 249.734C133.9 249.734 133.334 248.894 133.334 247.647V241.406H134.218V247.692Z" fill="#263238"/>
<path d="M140.936 249.627H140.052L138.682 243.077V249.636H137.904V241.406H139.186L140.556 248.019L141.865 241.45H143.146V249.681H142.262V243.059L140.936 249.627Z" fill="#263238"/>
<path d="M145.86 241.407C147.142 241.407 147.628 242.017 147.628 243.228V243.6C147.628 244.484 147.38 245.005 146.664 245.235C147.469 245.456 147.769 246.119 147.769 247.003V247.701C147.806 247.959 147.784 248.222 147.703 248.47C147.622 248.717 147.485 248.943 147.303 249.13C147.121 249.316 146.899 249.458 146.653 249.544C146.407 249.631 146.145 249.66 145.886 249.628H144.092V241.398L145.86 241.407ZM145.639 244.943C146.364 244.943 146.744 244.705 146.744 243.847V243.37C146.744 242.636 146.496 242.282 145.86 242.282H144.976V244.934L145.639 244.943ZM145.904 248.851C146.576 248.851 146.885 248.497 146.885 247.728V247.003C146.885 246.119 146.523 245.774 145.727 245.774H144.976V248.851H145.904Z" fill="#263238"/>
<path d="M151.588 245.048V245.87H149.581V248.805H152.048V249.636H148.662V241.406H152.048V242.237H149.581V245.048H151.588Z" fill="#263238"/>
<path d="M154.7 241.406C155.999 241.406 156.538 242.06 156.538 243.289V243.952C156.538 244.836 156.22 245.428 155.513 245.649C156.264 245.87 156.547 246.48 156.547 247.364V248.646C156.523 248.985 156.58 249.325 156.715 249.636H155.787C155.655 249.321 155.601 248.978 155.628 248.637V247.347C155.628 246.41 155.195 246.118 154.434 246.118H153.816V249.654H152.932V241.424L154.7 241.406ZM154.47 245.287C155.195 245.287 155.628 245.048 155.628 244.156V243.369C155.628 242.626 155.363 242.237 154.682 242.237H153.798V245.287H154.47Z" fill="#263238"/>
<path d="M178.462 244.008V245.148H177.578V244.008H178.462ZM178.462 248.49V249.63H177.578V248.49H178.462Z" fill="#263238"/>
<path d="M123.831 260.336V261.035H122.947V260.283C122.947 259.541 122.647 259.099 121.975 259.099C121.303 259.099 121.011 259.541 121.011 260.283V264.641C121.011 265.375 121.321 265.826 121.975 265.826C122.629 265.826 122.947 265.375 122.947 264.641V262.988H122.063V262.157H123.778V264.579C123.778 265.826 123.186 266.648 121.922 266.648C120.658 266.648 120.074 265.826 120.074 264.579V260.327C120.074 259.081 120.658 258.25 121.922 258.25C123.186 258.25 123.831 259.09 123.831 260.336Z" fill="#263238"/>
<path d="M127.632 261.994V262.816H125.617V265.751H128.092V266.582H124.697V258.352H128.092V259.183H125.617V261.994H127.632Z" fill="#263238"/>
<path d="M129.744 266.582H128.922V258.352H130.089L131.989 264.301V258.352H132.803V266.582H131.848L129.744 259.925V266.582Z" fill="#263238"/>
<path d="M135.677 258.352C136.959 258.352 137.542 259.129 137.542 260.394V264.548C137.542 265.804 136.959 266.582 135.677 266.582H133.75V258.352H135.677ZM135.677 265.751C136.331 265.751 136.65 265.335 136.65 264.584V260.394C136.65 259.642 136.331 259.227 135.659 259.227H134.669V265.795L135.677 265.751Z" fill="#263238"/>
<path d="M141.334 261.994V262.816H139.319V265.751H141.794V266.582H138.408V258.352H141.794V259.183H139.319V261.994H141.334Z" fill="#263238"/>
<path d="M144.471 258.352C145.762 258.352 146.31 259.006 146.31 260.234V260.906C146.31 261.79 145.992 262.374 145.285 262.595C146.036 262.816 146.319 263.435 146.319 264.31V265.592C146.289 265.93 146.347 266.271 146.487 266.582H145.55C145.425 266.264 145.373 265.923 145.4 265.583V264.292C145.4 263.364 144.966 263.063 144.197 263.063H143.552V266.599H142.668V258.369L144.471 258.352ZM144.233 262.232C144.966 262.232 145.4 261.994 145.4 261.101V260.314C145.4 259.571 145.134 259.183 144.445 259.183H143.561V262.232H144.233Z" fill="#263238"/>
<path d="M179.152 260.961V262.101H178.268V260.961H179.152ZM179.152 265.443V266.583H178.268V265.443H179.152Z" fill="#263238"/>
<path d="M122.125 276.305C123.407 276.305 123.999 277.083 123.999 278.347V282.493C123.999 283.748 123.407 284.526 122.125 284.526H120.225V276.305H122.125ZM122.125 283.704C122.779 283.704 123.098 283.288 123.098 282.537V278.303C123.098 277.551 122.779 277.136 122.108 277.136H121.109V283.704H122.125Z" fill="#263238"/>
<path d="M125.616 283.375V284.515H124.732V283.375H125.616Z" fill="#263238"/>
<path d="M126.412 278.264C126.412 277 127.04 276.195 128.295 276.195C129.55 276.195 130.196 277 130.196 278.264V282.489C130.234 282.756 130.213 283.028 130.133 283.285C130.054 283.542 129.918 283.779 129.737 283.978C129.555 284.176 129.331 284.332 129.082 284.434C128.833 284.536 128.564 284.581 128.295 284.567C127.04 284.567 126.412 283.736 126.412 282.489V278.264ZM127.296 282.569C127.296 283.32 127.614 283.754 128.269 283.754C128.923 283.754 129.25 283.32 129.25 282.569V278.211C129.25 277.477 128.94 277.026 128.269 277.026C127.597 277.026 127.296 277.477 127.296 278.211V282.569Z" fill="#263238"/>
<path d="M131.779 283.375V284.515H130.895V283.375H131.779Z" fill="#263238"/>
<path d="M134.57 276.305C135.852 276.305 136.338 276.915 136.338 278.126V278.515C136.338 279.399 136.091 279.929 135.375 280.15C136.17 280.371 136.48 281.034 136.48 281.918V282.608C136.519 282.866 136.497 283.13 136.417 283.378C136.337 283.627 136.2 283.853 136.018 284.04C135.835 284.227 135.612 284.368 135.366 284.454C135.119 284.54 134.856 284.568 134.597 284.535H132.705V276.305H134.57ZM134.349 279.796C135.074 279.796 135.454 279.558 135.454 278.7V278.223C135.454 277.489 135.207 277.136 134.57 277.136H133.686V279.788L134.349 279.796ZM134.615 283.704C135.286 283.704 135.596 283.35 135.596 282.581V281.856C135.596 280.972 135.224 280.636 134.438 280.636H133.642V283.704H134.615Z" fill="#263238"/>
<path d="M178.32 278.883V280.023H177.436V278.883H178.32ZM178.32 283.365V284.505H177.436V283.374L178.32 283.365Z" fill="#263238"/>
<path d="M119.525 298.76V302.464H118.641V294.234H119.525V297.938H121.549V294.234H122.433V302.464H121.549V298.76H119.525Z" fill="#263238"/>
<path d="M126.332 297.876V298.699H124.326V301.633H126.792V302.464H123.406V294.234H126.792V295.065H124.326V297.876H126.332Z" fill="#263238"/>
<path d="M128.552 294.234V302.464H127.668V294.234H128.552Z" fill="#263238"/>
<path d="M133.13 296.217V296.924H132.246V296.164C132.246 295.43 131.945 294.979 131.274 294.979C130.602 294.979 130.31 295.43 130.31 296.164V300.522C130.31 301.265 130.619 301.707 131.274 301.707C131.928 301.707 132.246 301.265 132.246 300.522V298.869H131.362V298.047H133.077V300.469C133.077 301.715 132.494 302.546 131.221 302.546C129.948 302.546 129.373 301.715 129.373 300.469V296.217C129.373 294.971 129.956 294.148 131.221 294.148C132.485 294.148 133.13 294.971 133.13 296.217Z" fill="#263238"/>
<path d="M134.915 298.76V302.464H134.031V294.234H134.915V297.938H136.94V294.234H137.824V302.464H136.94V298.76H134.915Z" fill="#263238"/>
<path d="M139.999 302.464V295.065H138.479V294.234H142.43V295.065H140.918V302.464H139.999Z" fill="#263238"/>
<path d="M176.8 296.836V297.976H175.916V296.836H176.8ZM176.8 301.318V302.458H175.916V301.318H176.8Z" fill="#263238"/>
<path d="M118.836 319.41H117.572L116.449 311.18H117.333L118.297 318.19L119.181 311.189H120.065L120.949 318.199L121.886 311.18H122.681L121.568 319.41H120.356L119.561 313.823L118.836 319.41Z" fill="#263238"/>
<path d="M126.412 314.831V315.653H124.406V318.579H126.872V319.41H123.486V311.18H126.872V312.019H124.406V314.831H126.412Z" fill="#263238"/>
<path d="M128.657 311.18V319.41H127.773V311.18H128.657Z" fill="#263238"/>
<path d="M133.228 313.17V313.877H132.344V313.126C132.344 312.383 132.043 311.933 131.38 311.933C130.717 311.933 130.417 312.383 130.417 313.126V317.475C130.417 318.218 130.717 318.66 131.38 318.66C132.043 318.66 132.344 318.218 132.344 317.475V315.831H131.46V315.009H133.175V317.431C133.175 318.677 132.591 319.5 131.318 319.5C130.045 319.5 129.471 318.677 129.471 317.431V313.17C129.471 311.924 130.063 311.102 131.318 311.102C132.574 311.102 133.228 311.924 133.228 313.17Z" fill="#263238"/>
<path d="M135.013 315.706V319.41H134.129V311.18H135.013V314.884H137.02V311.18H137.904V319.41H137.02V315.706H135.013Z" fill="#263238"/>
<path d="M140.096 319.41V312.019H138.584V311.18H142.535V312.019H141.015V319.41H140.096Z" fill="#263238"/>
<path d="M175.032 313.789V314.938H174.148V313.789H175.032ZM175.032 318.271V319.411H174.148V318.271H175.032Z" fill="#263238"/>
<path d="M116.688 330.086C117.969 330.086 118.456 330.696 118.456 331.907V332.296C118.456 333.18 118.208 333.71 117.492 333.931C118.296 334.152 118.597 334.815 118.597 335.699V336.415C118.636 336.674 118.615 336.937 118.534 337.186C118.454 337.434 118.318 337.661 118.135 337.848C117.953 338.034 117.729 338.176 117.483 338.262C117.236 338.348 116.973 338.375 116.714 338.342H114.822V330.112L116.688 330.086ZM116.467 333.622C117.191 333.622 117.572 333.392 117.572 332.526V331.995C117.572 331.262 117.324 330.917 116.688 330.917H115.804V333.569L116.467 333.622ZM116.732 337.529C117.404 337.529 117.713 337.176 117.713 336.415V335.682C117.713 334.798 117.351 334.462 116.555 334.462H115.804V337.529H116.732Z" fill="#263238"/>
<path d="M119.48 338.316V330.086H120.364V337.485H122.716V338.316H119.48Z" fill="#263238"/>
<path d="M123.371 332.076C123.371 330.821 123.999 330.008 125.254 330.008C126.509 330.008 127.146 330.821 127.146 332.076V336.337C127.146 337.584 126.527 338.406 125.254 338.406C123.981 338.406 123.371 337.584 123.371 336.337V332.076ZM124.255 336.381C124.255 337.133 124.573 337.566 125.227 337.566C125.882 337.566 126.2 337.133 126.2 336.381V331.997C126.2 331.254 125.899 330.803 125.227 330.803C124.556 330.803 124.255 331.254 124.255 331.997V336.381Z" fill="#263238"/>
<path d="M127.949 332.076C127.949 330.821 128.568 330.008 129.832 330.008C131.096 330.008 131.724 330.821 131.724 332.076V336.337C131.771 336.604 131.756 336.878 131.68 337.138C131.605 337.398 131.47 337.637 131.287 337.837C131.105 338.037 130.878 338.193 130.626 338.291C130.374 338.39 130.102 338.429 129.832 338.406C128.568 338.406 127.949 337.584 127.949 336.337V332.076ZM128.833 336.381C128.833 337.133 129.151 337.566 129.814 337.566C130.477 337.566 130.787 337.133 130.787 336.381V331.997C130.787 331.254 130.477 330.803 129.814 330.803C129.151 330.803 128.833 331.254 128.833 331.997V336.381Z" fill="#263238"/>
<path d="M134.518 330.086C135.8 330.086 136.392 330.864 136.392 332.137V336.283C136.392 337.547 135.8 338.316 134.518 338.316H132.6V330.086H134.518ZM134.518 337.485C135.181 337.485 135.499 337.07 135.499 336.318V332.084C135.499 331.332 135.181 330.926 134.509 330.926H133.484V337.485H134.518Z" fill="#263238"/>
<path d="M140.272 338.313V330.923H138.787V330.039H142.747V330.923H141.227V338.313H140.272Z" fill="#263238"/>
<path d="M144.799 335.366L143.031 330.062H143.986L145.268 334.111L146.567 330.062H147.451L145.683 335.366V338.319H144.799V335.366Z" fill="#263238"/>
<path d="M149.916 330.086C151.207 330.086 151.764 330.855 151.764 332.101V333.083C151.764 334.391 151.154 335.072 149.846 335.072H149.032V338.316H148.148V330.086H149.916ZM149.846 334.25C150.526 334.25 150.862 333.931 150.862 333.145V332.048C150.862 331.297 150.588 330.926 149.916 330.926H149.032V334.25H149.846Z" fill="#263238"/>
<path d="M155.442 333.767V334.598H153.435V337.524H155.901V338.355H152.516V330.125H155.901V331.009H153.435V333.767H155.442Z" fill="#263238"/>
<path d="M174.042 332.695V333.836H173.158V332.695H174.042ZM174.042 337.177V338.318H173.158V337.177H174.042Z" fill="#263238"/>
<path d="M113.497 352.846V356.55H112.613V348.32H113.497V352.024H115.522V348.32H116.406V356.55H115.522V352.846H113.497Z" fill="#263238"/>
<path d="M117.316 350.311C117.316 349.047 117.935 348.242 119.199 348.242C120.463 348.242 121.091 349.047 121.091 350.311V354.563C121.091 355.809 120.463 356.64 119.199 356.64C117.935 356.64 117.316 355.809 117.316 354.563V350.311ZM118.2 354.616C118.2 355.367 118.519 355.8 119.182 355.8C119.845 355.8 120.154 355.367 120.154 354.616V350.258C120.154 349.524 119.845 349.073 119.182 349.073C118.519 349.073 118.2 349.524 118.2 350.258V354.616Z" fill="#263238"/>
<path d="M124.989 356.542H124.105L122.735 349.991V356.55H121.992V348.32H123.274L124.627 354.897L125.935 348.32H127.217V356.55H126.333V349.929L124.989 356.542Z" fill="#263238"/>
<path d="M131.035 351.962V352.785H129.064V355.719H131.53V356.55H128.145V348.32H131.53V349.151H129.064V351.962H131.035Z" fill="#263238"/>
<path d="M135.093 354.897L134.775 356.55H133.891L135.464 348.32H136.79L138.372 356.55H137.488L137.17 354.897H135.093ZM135.217 354.102H137.02L136.136 349.355L135.217 354.102Z" fill="#263238"/>
<path d="M141.06 348.32C142.342 348.32 142.925 349.098 142.925 350.362V354.517C142.925 355.772 142.342 356.55 141.06 356.55H139.133V348.32H141.06ZM141.06 355.719C141.714 355.719 142.032 355.304 142.032 354.553V350.318C142.032 349.567 141.714 349.151 141.042 349.151H140.052V355.719H141.06Z" fill="#263238"/>
<path d="M145.62 348.32C146.92 348.32 147.459 348.974 147.459 350.203V350.875C147.459 351.759 147.141 352.343 146.434 352.564C147.185 352.785 147.468 353.448 147.468 354.278V355.56C147.438 355.899 147.496 356.24 147.636 356.55H146.752C146.619 356.235 146.564 355.892 146.593 355.551V354.261C146.593 353.333 146.16 353.032 145.399 353.032H144.745V356.568H143.861V348.338L145.62 348.32ZM145.391 352.201C146.116 352.201 146.549 351.962 146.549 351.07V350.283C146.549 349.54 146.283 349.151 145.603 349.151H144.719V352.201H145.391Z" fill="#263238"/>
<path d="M151.35 351.962V352.785H149.343V355.719H151.81V356.55H148.424V348.32H151.81V349.151H149.343V351.962H151.35Z" fill="#263238"/>
<path d="M156.22 350.294V350.559H155.336V350.285C155.336 349.543 155.062 349.11 154.399 349.11C153.736 349.11 153.462 349.543 153.462 350.276C153.462 352.124 156.22 352.301 156.22 354.617C156.22 355.863 155.618 356.677 154.363 356.677C153.108 356.677 152.516 355.863 152.516 354.617V354.095H153.4V354.617C153.4 355.359 153.709 355.793 154.363 355.793C155.017 355.793 155.336 355.359 155.336 354.617C155.336 352.778 152.578 352.61 152.578 350.285C152.578 349.021 153.17 348.234 154.399 348.234C155.627 348.234 156.22 349.048 156.22 350.294Z" fill="#263238"/>
<path d="M160.597 350.294V350.559H159.713V350.285C159.713 349.543 159.439 349.11 158.776 349.11C158.113 349.11 157.838 349.543 157.838 350.276C157.838 352.124 160.597 352.301 160.597 354.617C160.597 355.863 159.995 356.677 158.74 356.677C157.485 356.677 156.893 355.863 156.893 354.617V354.095H157.777V354.617C157.777 355.359 158.086 355.793 158.74 355.793C159.394 355.793 159.704 355.359 159.704 354.617C159.704 352.778 156.954 352.61 156.954 350.285C156.954 349.021 157.547 348.234 158.776 348.234C160.004 348.234 160.597 349.048 160.597 350.294Z" fill="#263238"/>
<path d="M171.407 350.93V352.07H170.523V350.93H171.407ZM171.407 355.412V356.552H170.523V355.412H171.407Z" fill="#263238"/>
<path d="M111.446 367.234C112.736 367.234 113.293 367.995 113.293 369.241V370.231C113.293 371.539 112.674 372.22 111.375 372.22H110.562V375.464H109.678V367.234H111.446ZM111.375 371.398C112.056 371.398 112.383 371.08 112.383 370.293V369.197C112.383 368.445 112.109 368.065 111.446 368.065H110.562V371.398H111.375Z" fill="#263238"/>
<path d="M114.919 371.776V375.48H114.035V367.25H114.919V370.954H116.944V367.25H117.828V375.48H116.944V371.776H114.919Z" fill="#263238"/>
<path d="M118.738 369.218C118.738 367.954 119.357 367.141 120.612 367.141C121.868 367.141 122.513 367.954 122.513 369.218V373.47C122.56 373.738 122.545 374.012 122.469 374.273C122.393 374.534 122.258 374.774 122.074 374.974C121.89 375.174 121.663 375.329 121.409 375.427C121.156 375.525 120.883 375.563 120.612 375.539C119.357 375.539 118.738 374.717 118.738 373.47V369.218ZM119.622 373.523C119.622 374.275 119.941 374.708 120.595 374.708C121.249 374.708 121.576 374.275 121.576 373.523V369.165C121.576 368.422 121.267 367.98 120.595 367.98C119.923 367.98 119.622 368.422 119.622 369.165V373.523Z" fill="#263238"/>
<path d="M124.193 375.464H123.371V367.234H124.538L126.439 373.184V367.234H127.296V375.464H126.341L124.237 368.808L124.193 375.464Z" fill="#263238"/>
<path d="M131.123 370.892V371.714H129.108V374.649H131.574V375.48H128.18V367.25H131.565V368.081H129.099V370.892H131.123Z" fill="#263238"/>
<path d="M135.056 375.464H134.234V367.234H135.401L137.302 373.184V367.234H138.115V375.464H137.16L135.056 368.808V375.464Z" fill="#263238"/>
<path d="M139.928 373.544C139.928 374.278 140.22 374.729 140.891 374.729C141.563 374.729 141.846 374.278 141.846 373.544V367.25H142.73V373.491C142.73 374.737 142.156 375.577 140.883 375.577C139.61 375.577 139.053 374.737 139.053 373.491V367.25H139.937L139.928 373.544Z" fill="#263238"/>
<path d="M146.647 375.456H145.763L144.402 368.905V375.464H143.598V367.234H144.879L146.232 373.811L147.54 367.234H148.822V375.464H147.938V368.843L146.647 375.456Z" fill="#263238"/>
<path d="M151.606 367.234C152.888 367.234 153.374 367.844 153.374 369.055V369.444C153.374 370.328 153.127 370.859 152.411 371.08C153.207 371.301 153.516 371.964 153.516 372.848V373.546C153.555 373.804 153.534 374.068 153.453 374.317C153.373 374.565 153.237 374.792 153.054 374.978C152.872 375.165 152.648 375.307 152.402 375.393C152.155 375.479 151.892 375.506 151.633 375.473H149.732V367.243L151.606 367.234ZM151.385 370.726C152.119 370.726 152.49 370.488 152.49 369.63V369.126C152.49 368.392 152.243 368.039 151.606 368.039H150.722V370.691L151.385 370.726ZM151.66 374.633C152.331 374.633 152.632 374.28 152.632 373.511V372.786C152.632 371.902 152.269 371.557 151.483 371.557H150.678V374.633H151.66Z" fill="#263238"/>
<path d="M157.299 370.892V371.714H155.292V374.649H157.759V375.48H154.373V367.25H157.759V368.081H155.292V370.892H157.299Z" fill="#263238"/>
<path d="M160.446 367.234C161.737 367.234 162.276 367.889 162.276 369.117V369.789C162.276 370.673 161.958 371.257 161.25 371.478C162.011 371.699 162.285 372.317 162.285 373.193V374.474C162.259 374.813 162.317 375.153 162.453 375.464H161.524C161.395 375.148 161.343 374.806 161.374 374.466V373.175C161.374 372.247 160.932 371.946 160.172 371.946H159.527V375.482H158.643V367.252L160.446 367.234ZM160.207 371.115C160.932 371.115 161.374 370.876 161.374 369.984V369.197C161.374 368.454 161.1 368.065 160.419 368.065H159.535V371.115H160.207Z" fill="#263238"/>
<path d="M169.595 369.844V370.984H168.711V369.844H169.595ZM169.595 374.326V375.466H168.711V374.326H169.595Z" fill="#263238"/>
<path d="M286.337 164.117H238.469V225.202H286.337V164.117Z" fill="#BFBFBF"/>
<path d="M283.163 225.411H241.615L242.499 220.39V219.355C242.505 215.277 243.411 211.251 245.151 207.563C245.149 207.528 245.149 207.492 245.151 207.457L255.574 204.628C255.704 203.754 255.982 202.908 256.396 202.126C256.974 201.736 257.609 201.437 258.279 201.242V199.342C257.5 198.076 256.88 196.719 256.431 195.302C256.303 195.303 256.176 195.275 256.06 195.222C255.834 195.119 255.628 194.979 255.45 194.807C254.985 194.436 254.57 194.008 254.212 193.534C253.851 193.053 253.664 192.464 253.682 191.863C253.686 191.283 253.803 190.71 254.027 190.175C254.269 189.86 254.589 189.613 254.955 189.459C255.02 188.765 255.02 188.066 254.955 187.372C253.664 175.323 270.778 172.044 270.991 187.806C270.991 188.398 271.035 189.149 271.035 189.149C271.226 189.231 271.398 189.352 271.539 189.504C271.681 189.657 271.789 189.837 271.857 190.033C271.981 190.631 272.07 191.237 272.122 191.845C272.136 192.446 271.949 193.034 271.592 193.516C271.229 193.989 270.811 194.417 270.345 194.789C270.167 194.961 269.961 195.102 269.735 195.205C269.586 195.273 269.42 195.295 269.258 195.266C268.748 196.895 268.004 198.441 267.048 199.854V201.622C268.294 201.985 269.47 202.666 269.541 203.859C269.554 204.043 269.578 204.226 269.611 204.407C273.501 205.335 279.556 207.059 279.556 207.059L279.636 207.475C281.388 211.171 282.294 215.212 282.288 219.302L283.172 225.429L283.163 225.411Z" fill="#263238"/>
<path d="M412.148 409.945H44.6074" stroke="#263238" stroke-linecap="round" stroke-linejoin="round"/>
</svg>
