<svg width="52" height="32" viewBox="0 0 52 32" fill="none" xmlns="http://www.w3.org/2000/svg">
<g clip-path="url(#clip0_1701_56840)">
<rect x="20" y="4" width="24" height="24" rx="12" fill="#BDBDBD"/>
<path d="M32.0007 16.0026C33.8423 16.0026 35.334 14.5109 35.334 12.6693C35.334 10.8276 33.8423 9.33594 32.0007 9.33594C30.159 9.33594 28.6673 10.8276 28.6673 12.6693C28.6673 14.5109 30.159 16.0026 32.0007 16.0026ZM32.0007 17.6693C29.7757 17.6693 25.334 18.7859 25.334 21.0026V22.6693H38.6673V21.0026C38.6673 18.7859 34.2257 17.6693 32.0007 17.6693Z" fill="white"/>
</g>
<rect x="19" y="3" width="26" height="26" rx="13" stroke="white" stroke-width="2"/>
<g clip-path="url(#clip1_1701_56840)">
<rect x="12" y="4" width="24" height="24" rx="12" fill="#BDBDBD"/>
<path d="M24.0007 16.0026C25.8423 16.0026 27.334 14.5109 27.334 12.6693C27.334 10.8276 25.8423 9.33594 24.0007 9.33594C22.159 9.33594 20.6673 10.8276 20.6673 12.6693C20.6673 14.5109 22.159 16.0026 24.0007 16.0026ZM24.0007 17.6693C21.7757 17.6693 17.334 18.7859 17.334 21.0026V22.6693H30.6673V21.0026C30.6673 18.7859 26.2257 17.6693 24.0007 17.6693Z" fill="white"/>
</g>
<rect x="11" y="3" width="26" height="26" rx="13" stroke="white" stroke-width="2"/>
<g clip-path="url(#clip2_1701_56840)">
<rect x="4" y="4" width="24" height="24" rx="12" fill="#BDBDBD"/>
<path d="M16.0007 16.0026C17.8423 16.0026 19.334 14.5109 19.334 12.6693C19.334 10.8276 17.8423 9.33594 16.0007 9.33594C14.159 9.33594 12.6673 10.8276 12.6673 12.6693C12.6673 14.5109 14.159 16.0026 16.0007 16.0026ZM16.0007 17.6693C13.7757 17.6693 9.33398 18.7859 9.33398 21.0026V22.6693H22.6673V21.0026C22.6673 18.7859 18.2257 17.6693 16.0007 17.6693Z" fill="white"/>
</g>
<rect x="3" y="3" width="26" height="26" rx="13" stroke="white" stroke-width="2"/>
<defs>
<clipPath id="clip0_1701_56840">
<rect x="20" y="4" width="24" height="24" rx="12" fill="white"/>
</clipPath>
<clipPath id="clip1_1701_56840">
<rect x="12" y="4" width="24" height="24" rx="12" fill="white"/>
</clipPath>
<clipPath id="clip2_1701_56840">
<rect x="4" y="4" width="24" height="24" rx="12" fill="white"/>
</clipPath>
</defs>
</svg>
