<svg width="502" height="244" viewBox="0 0 502 244" fill="none" xmlns="http://www.w3.org/2000/svg">
<path d="M501.869 243.234L439.141 243.521L376.401 243.629L250.934 243.832L125.467 243.629L62.7395 243.521L0 243.234L62.7395 242.935L125.467 242.84L250.934 242.637L376.401 242.84L439.141 242.947L501.869 243.234Z" fill="#263238"/>
<path d="M48.8298 243.175L240.98 244C287.682 207.324 292.51 152.998 259.193 120.063C239.02 100.141 213.423 104.157 189.032 100.942H188.96C180.349 100.03 171.974 97.5723 164.235 93.688C139.139 80.435 124.966 49.1967 103.849 22.9058C101.22 19.6075 98.4637 16.4207 95.5797 13.3455C78.2038 -5.2015 43.6313 -5.77511 25.5504 20.2648C-20.3391 86.5297 0.657728 185.144 48.8298 243.175Z" fill="#FFDECC"/>
<path opacity="0.3" d="M44.5614 91.5855C49.5925 170.458 140.643 199.856 197.526 176.23C246.965 155.699 230.784 108.83 189.054 100.943H188.982C180.371 100.03 171.995 97.5731 164.257 93.6888C139.161 80.4358 124.988 49.1975 103.871 22.9066C72.3819 6.60631 40.8687 33.8652 44.5614 91.5855Z" fill="#FFBD99"/>
<path d="M445.631 136.599C445.631 136.599 434.708 119.869 410.281 123.107C387.05 126.203 372.614 166.882 395.104 174.052C417.595 181.222 417.201 142.264 426.175 136.504C432.796 132.285 441.532 134.162 445.631 136.599Z" fill="#FFDECC"/>
<path d="M389.642 144.109C391.332 142.891 393.1 141.785 394.936 140.799C396.663 139.847 398.513 139.135 400.433 138.684C401.497 137.351 402.668 136.108 403.935 134.967C406.251 132.893 408.871 131.185 411.702 129.9C411.463 129.9 411.236 129.805 410.997 129.781C409.733 129.608 408.461 129.5 407.185 129.458C404.62 129.38 402.061 129.764 399.632 130.593C399.604 130.603 399.573 130.601 399.546 130.587C399.519 130.574 399.499 130.55 399.489 130.522C399.48 130.493 399.482 130.462 399.495 130.435C399.509 130.408 399.532 130.388 399.561 130.378C402.019 129.581 404.562 129.072 407.137 128.861C408.39 128.747 409.649 128.747 410.902 128.861C411.571 128.92 412.24 129.04 412.897 129.159L413.28 129.231C415.59 128.33 417.996 127.697 420.45 127.343L419.805 127.104C418.659 126.733 417.495 126.426 416.315 126.184C413.96 125.687 411.549 125.498 409.145 125.622C409.002 125.622 408.978 125.395 409.145 125.395C411.569 125.331 413.995 125.459 416.399 125.777C418.431 126.026 420.433 126.478 422.374 127.128C423.841 127.004 425.314 126.976 426.784 127.044C435.149 127.486 443.956 131.466 448.438 138.803C452.919 146.141 453.063 155.39 453.218 163.756C453.517 175.421 452.717 187.088 450.828 198.603C450.708 199.284 449.752 199.069 449.8 198.412C450.41 188.553 450.995 178.694 450.995 168.811C450.995 164.234 450.995 159.633 450.613 155.068C450.433 151.147 449.68 147.274 448.378 143.571C446.947 139.776 444.423 136.491 441.124 134.131C437.812 131.799 434.025 130.227 430.034 129.53C426.453 128.896 422.788 128.896 419.207 129.53C419.267 130.242 419.218 130.959 419.064 131.657C418.907 132.536 418.651 133.394 418.299 134.214C417.974 134.996 417.573 135.744 417.104 136.449C416.59 137.226 415.969 137.907 415.395 138.648C415.299 138.755 415.12 138.648 415.216 138.493C416.337 137.185 417.128 135.628 417.522 133.951C417.747 133.167 417.918 132.369 418.036 131.561C418.132 130.94 418.132 130.366 418.215 129.709C414.313 130.519 410.596 132.051 407.257 134.226C406.635 134.645 406.062 135.075 405.428 135.529C406.143 136.341 406.746 137.245 407.221 138.218C407.929 139.492 408.521 140.828 408.99 142.209C409.844 144.973 410.323 147.839 410.412 150.73C410.412 150.885 410.185 150.897 410.185 150.73C410.003 147.923 409.336 145.17 408.213 142.592C407.695 141.32 407.097 140.082 406.42 138.887C406.074 138.277 405.703 137.692 405.321 137.07C405.118 136.748 404.891 136.425 404.699 136.091C401.626 138.575 399.024 141.59 397.015 144.994C398.019 146.298 398.824 147.744 399.405 149.284C400.117 150.908 400.713 152.582 401.186 154.291C402.04 157.585 402.687 160.93 403.122 164.305C403.122 164.449 402.907 164.473 402.895 164.305C402.482 160.905 401.647 157.569 400.409 154.375C399.836 152.809 399.214 151.268 398.569 149.738C397.865 148.31 397.247 146.841 396.717 145.34C394.791 148.677 393.51 152.345 392.94 156.155C392.932 156.179 392.917 156.2 392.897 156.215C392.876 156.229 392.852 156.237 392.827 156.237C392.802 156.237 392.777 156.229 392.757 156.215C392.736 156.2 392.721 156.179 392.713 156.155C393.721 150.189 396.111 144.541 399.692 139.664C398.163 140.142 396.645 140.608 395.163 141.229C393.279 142.02 391.497 143.035 389.857 144.253C389.666 144.396 389.558 144.205 389.642 144.109Z" fill="#263238"/>
<path d="M407.104 146.657C407.594 149.047 408.299 151.437 408.705 153.911C409.149 156.274 409.282 158.684 409.099 161.081C409.099 161.141 408.98 161.141 408.98 161.081C408.788 156.24 408.083 151.433 406.877 146.741C406.871 146.726 406.869 146.71 406.869 146.694C406.87 146.678 406.874 146.663 406.88 146.648C406.887 146.634 406.896 146.621 406.908 146.61C406.92 146.599 406.933 146.591 406.948 146.586C406.963 146.58 406.979 146.578 406.995 146.578C407.011 146.579 407.026 146.583 407.041 146.589C407.055 146.596 407.068 146.605 407.079 146.617C407.09 146.629 407.098 146.642 407.104 146.657Z" fill="#263238"/>
<path d="M392.511 139.373C393.536 138.557 394.675 137.896 395.893 137.413C397.126 136.987 398.394 136.667 399.682 136.457C399.825 136.457 399.849 136.672 399.682 136.696C398.418 136.898 397.187 137.272 396.025 137.807C394.84 138.289 393.69 138.852 392.583 139.492C392.575 139.5 392.566 139.506 392.556 139.509C392.545 139.513 392.534 139.514 392.524 139.512C392.513 139.511 392.503 139.507 392.493 139.501C392.484 139.495 392.477 139.488 392.471 139.478C392.466 139.469 392.462 139.459 392.461 139.448C392.46 139.437 392.462 139.426 392.466 139.416C392.469 139.406 392.476 139.397 392.484 139.389C392.491 139.382 392.501 139.376 392.511 139.373Z" fill="#263238"/>
<path d="M433.776 117.15C433.776 117.15 431.47 89.0431 410.581 79.9369C393.133 72.3245 383.155 91.8873 395.487 103.933C405.502 113.637 421.491 109.263 433.776 117.15Z" fill="#FFDECC"/>
<path d="M399.382 85.3756C402.565 86.6782 405.67 88.1666 408.679 89.8331C411.166 91.2763 413.561 92.8727 415.849 94.6133C415.503 93.9082 415.204 93.1554 414.857 92.4622C414.308 91.3867 413.722 90.3231 413.077 89.2954C411.792 87.1672 410.247 85.2081 408.476 83.4636C408.368 83.368 408.536 83.2007 408.643 83.3082C410.405 85.0558 412.023 86.9421 413.483 88.9488C414.206 89.969 414.868 91.0304 415.467 92.1276C416.086 93.1357 416.561 94.2259 416.877 95.3662L417.104 95.5335C420.758 98.4349 424.102 101.707 427.083 105.297C427.023 105.01 426.963 104.735 426.891 104.484C426.509 103.11 426.079 101.76 425.625 100.397C424.73 97.5171 423.464 94.7654 421.86 92.2113C421.777 92.0798 421.98 91.9723 422.052 92.0918C423.698 94.6494 425.159 97.3211 426.425 100.087C427.007 101.436 427.49 102.826 427.871 104.245C428.175 105.165 428.403 106.108 428.553 107.066C429.461 108.261 430.357 109.384 431.206 110.579C440.168 123.354 444.674 138.794 445.749 154.246C446.068 158.851 446.148 163.47 445.988 168.084C445.968 172.742 445.568 177.39 444.793 181.983C444.733 182.269 444.279 182.186 444.291 181.899C444.399 177.836 444.817 173.797 444.889 169.733C444.966 165.662 444.835 161.59 444.494 157.532C443.84 149.425 442.314 141.411 439.941 133.631C437.517 125.66 433.937 118.087 429.317 111.153C428.445 110.985 427.573 110.746 426.7 110.519C425.828 110.292 424.621 109.982 423.581 109.695C421.572 109.175 419.618 108.459 417.749 107.556C417.618 107.556 417.749 107.281 417.869 107.364C419.713 108.368 421.713 109.054 423.784 109.396C425.41 109.731 427.119 109.934 428.756 110.316C427.247 108.106 425.623 105.976 423.892 103.935C419.91 104.295 415.896 103.992 412.013 103.038C409.945 102.548 407.913 101.918 405.931 101.15C403.827 100.338 401.855 99.3098 399.788 98.4374C399.761 98.4248 399.74 98.4019 399.73 98.3739C399.72 98.3459 399.722 98.315 399.734 98.2881C399.747 98.2611 399.77 98.2403 399.798 98.2302C399.826 98.2201 399.857 98.2216 399.884 98.2343C403.625 100.272 407.707 101.609 411.93 102.178C415.657 102.774 419.424 103.086 423.199 103.11C421.717 101.413 420.187 99.752 418.55 98.1865C413.065 92.9641 406.54 88.1601 399.31 85.6625C399.179 85.5549 399.25 85.3278 399.382 85.3756Z" fill="#263238"/>
<path d="M416.389 85.473C417.33 86.6575 418.184 87.9075 418.947 89.2135C419.726 90.5919 420.343 92.0555 420.787 93.5754C420.787 93.5754 420.727 93.6471 420.703 93.5754C420.01 92.2011 419.413 90.7671 418.708 89.4047C418.022 88.0503 417.188 86.7758 416.222 85.6045C416.126 85.5089 416.294 85.3535 416.389 85.473Z" fill="#263238"/>
<path d="M396.957 94.8158C398.314 95.5671 399.748 96.1682 401.236 96.6084C402.669 97.0905 404.13 97.4895 405.609 97.8034C405.669 97.8034 405.609 97.9348 405.609 97.9229C404.071 97.7616 402.556 97.429 401.092 96.931C399.643 96.3926 398.23 95.7619 396.862 95.0428C396.73 94.9472 396.826 94.7441 396.957 94.8158Z" fill="#263238"/>
<path d="M448.892 113.006C449.024 114.201 452.047 102.801 469.722 92.6908C485.759 83.489 504.904 59.5404 489.177 44.4231C476.486 32.1859 443.037 58.7636 448.892 113.006Z" fill="#FFDECC"/>
<path d="M436.742 178.463C436.998 166.581 437.932 154.723 439.538 142.947C440.934 132.119 443.436 121.463 447.007 111.146C448.322 107.442 449.816 103.785 451.453 100.188C451.351 98.7865 451.375 97.3787 451.525 95.9815C451.608 94.177 451.764 92.3964 451.931 90.5918C452.098 88.7873 452.277 87.0067 452.493 85.2142C452.708 83.4216 453.09 81.629 453.162 79.8604C453.156 79.8424 453.154 79.8234 453.157 79.8047C453.16 79.786 453.167 79.7683 453.179 79.753C453.19 79.7377 453.204 79.7253 453.221 79.7167C453.238 79.7081 453.256 79.7036 453.275 79.7036C453.294 79.7036 453.313 79.7081 453.33 79.7167C453.346 79.7253 453.361 79.7377 453.372 79.753C453.383 79.7683 453.39 79.786 453.393 79.8047C453.396 79.8234 453.395 79.8424 453.389 79.8604C453.034 81.7377 452.822 83.6393 452.755 85.5488C452.624 87.2816 452.516 89.0144 452.469 90.7472C452.421 92.48 452.469 94.2248 452.469 95.9695C452.469 96.5909 452.469 97.2601 452.469 97.9294C454.134 94.416 455.922 90.9703 457.834 87.5923C456.639 80.2667 458.193 72.6185 459.687 65.4602C459.695 65.4317 459.714 65.4074 459.739 65.3929C459.765 65.3783 459.796 65.3746 459.824 65.3825C459.853 65.3904 459.877 65.4094 459.891 65.4351C459.906 65.4609 459.91 65.4914 459.902 65.5199C459.158 69.2598 458.758 73.0599 458.707 76.8728C458.635 79.8843 458.778 82.848 458.79 85.8954C459.221 85.1783 459.639 84.4493 460.069 83.7443C462.364 80.0038 464.849 76.335 467.407 72.7738C467.203 71.0379 467.264 69.2812 467.586 67.5634C467.869 65.63 468.296 63.7206 468.865 61.8511C469.43 59.9869 470.08 58.1505 470.812 56.342C471.577 54.4897 472.605 52.7569 473.334 50.8688C473.406 50.7134 473.633 50.809 473.549 50.9524C472.61 52.7137 471.869 54.5733 471.338 56.4974C470.75 58.3003 470.268 60.1357 469.892 61.9946C469.522 63.8588 469.211 65.7111 468.948 67.5993C468.781 68.7943 468.661 70.1208 468.458 71.3876C472.238 66.3219 476.371 61.5298 480.827 57.0471C480.923 56.9395 481.078 57.0471 480.982 57.2144C474.26 64.7811 468.259 72.9588 463.057 81.641L462.459 82.6687C463.439 82.0593 464.55 81.5693 465.471 81.0554L470.621 78.2352C472.294 77.3269 473.963 76.4147 475.628 75.4985C476.477 75.0205 477.325 74.5305 478.198 74.0764C479.24 73.6105 480.24 73.0547 481.185 72.4153C481.329 72.3197 481.472 72.5228 481.329 72.6065C479.632 73.5386 478.126 74.9249 476.477 75.9765C474.828 77.0281 473.155 78.0439 471.434 79C468.303 80.7447 464.885 82.0115 461.802 83.7801C459.651 87.5325 457.679 91.3806 455.827 95.3003C457.703 94.1053 459.615 92.9102 461.563 91.8705C462.818 91.1655 464.072 90.4723 465.339 89.8031C466.611 89.2232 467.814 88.5017 468.924 87.6521C469.032 87.5565 469.187 87.7237 469.08 87.8194C467.024 89.6711 464.743 91.257 462.292 92.5398C460.021 93.8663 457.739 95.1569 455.373 96.3041C453.484 100.455 451.78 104.669 450.258 108.948C442.825 130.004 440.1 152.351 438.785 174.543C438.403 181.164 438.2 187.772 438.116 194.405C438.033 201.037 438.379 207.634 438.367 214.243C438.367 214.446 438.045 214.493 438.021 214.243C437.232 208.375 437.088 202.4 436.826 196.496C436.563 190.593 436.599 184.474 436.742 178.463Z" fill="#263238"/>
<path d="M468.827 83.145C472.053 81.7264 475.186 80.1059 478.208 78.2932C481.277 76.5671 484.253 74.6802 487.123 72.6406C487.123 72.6406 487.231 72.6406 487.183 72.7243C484.477 74.9174 481.618 76.9142 478.627 78.6995C475.5 80.4571 472.263 82.0099 468.935 83.3482C468.804 83.408 468.696 83.2048 468.827 83.145Z" fill="#263238"/>
<path d="M463.711 59.3513C463.974 58.3235 464.297 57.3197 464.643 56.3159C464.63 56.2989 464.622 56.2778 464.622 56.2561C464.622 56.2344 464.63 56.2133 464.643 56.1964C464.87 55.6228 465.097 55.0013 465.336 54.4994C465.352 54.4274 465.381 54.3587 465.42 54.2963C465.42 54.1887 465.504 54.0811 465.552 53.9736C465.599 53.866 465.623 53.9736 465.611 53.9736C465.599 53.9736 465.492 54.368 465.432 54.5592C465.411 54.6697 465.379 54.7778 465.336 54.8818C464.174 58.7963 463.3 62.7904 462.719 66.8322C462.719 66.9517 462.504 66.9637 462.516 66.8322C462.678 64.3065 463.078 61.8018 463.711 59.3513Z" fill="#263238"/>
<path d="M445.725 143.435C451.879 124.315 465.801 112.962 483.679 115.591C501.557 118.22 507.628 141.762 495.677 149.59C483.727 157.417 468.406 141.643 461.117 138.978C453.827 136.313 445.725 143.435 445.725 143.435Z" fill="#FFDECC"/>
<path d="M444.088 192.251C443.826 190.088 443.598 187.925 443.371 185.75C442.909 181.424 442.447 177.098 441.985 172.772C441.149 164.861 440.898 157.009 443.12 149.289C445.057 142.28 449.084 136.027 454.665 131.364C456.729 129.669 459.017 128.265 461.464 127.193C463.448 124.531 466.157 122.498 469.268 121.338C473.13 119.963 477.203 119.28 481.302 119.318C481.445 119.318 481.481 119.533 481.302 119.545C477.412 119.583 473.569 120.396 469.997 121.935C468.474 122.636 467.028 123.493 465.683 124.492C464.833 125.118 464.034 125.809 463.293 126.56C466.654 125.346 470.236 124.87 473.797 125.162C475.085 125.281 476.36 125.509 477.609 125.843C478.516 125.5 479.464 125.283 480.43 125.198C481.688 125.054 482.959 125.054 484.218 125.198C486.803 125.537 489.329 126.232 491.723 127.265C491.746 127.281 491.763 127.304 491.771 127.331C491.779 127.358 491.777 127.387 491.765 127.413C491.754 127.438 491.734 127.459 491.708 127.471C491.683 127.484 491.654 127.487 491.627 127.48C489.297 126.604 486.855 126.061 484.373 125.867C483.18 125.773 481.981 125.773 480.788 125.867C480.125 125.925 479.467 126.025 478.816 126.165C484.028 127.723 488.52 131.076 491.496 135.63C491.579 135.762 491.388 135.893 491.316 135.774C489.558 133.135 487.228 130.927 484.499 129.313C481.77 127.699 478.713 126.721 475.554 126.452C475.159 126.452 474.765 126.452 474.359 126.393C474.534 126.954 474.678 127.524 474.789 128.101C475.028 128.95 475.303 129.798 475.602 130.635C476.211 132.354 476.925 134.035 477.741 135.666C478.564 137.323 479.503 138.92 480.549 140.446C481.562 142.081 482.765 143.589 484.134 144.94C484.15 144.949 484.164 144.962 484.175 144.978C484.185 144.993 484.191 145.011 484.193 145.03C484.195 145.048 484.193 145.067 484.187 145.085C484.18 145.102 484.17 145.118 484.156 145.131C484.142 145.143 484.126 145.153 484.108 145.158C484.09 145.163 484.071 145.164 484.052 145.161C484.034 145.157 484.017 145.149 484.002 145.138C483.987 145.126 483.975 145.112 483.967 145.095C482.772 143.625 481.302 142.31 480.119 140.769C478.992 139.294 477.977 137.736 477.083 136.108C476.173 134.46 475.406 132.737 474.789 130.958C474.454 130.025 474.168 129.069 473.917 128.113C473.72 127.546 473.599 126.956 473.558 126.357C471.495 126.335 469.438 126.584 467.44 127.098C468.814 131.256 470.272 135.582 473.188 138.952C473.283 139.06 473.092 139.215 473.008 139.096C471.606 137.289 470.328 135.388 469.184 133.407C468.099 131.484 467.294 129.416 466.794 127.265C463.334 128.24 460.09 129.862 457.234 132.045C451.861 136.294 447.913 142.08 445.917 148.632C443.831 155.677 443.161 163.065 443.945 170.37C444.674 179.596 445.869 188.809 446.251 198.059C446.251 198.657 445.367 198.991 445.152 198.334C444.6 196.346 444.244 194.309 444.088 192.251Z" fill="#263238"/>
<path d="M455.695 129.793C456.174 129.02 456.752 128.313 457.416 127.69C458.049 126.997 458.695 126.316 459.388 125.695C460.744 124.441 462.304 123.426 464.001 122.695C464.028 122.688 464.057 122.691 464.082 122.704C464.107 122.716 464.127 122.737 464.139 122.762C464.15 122.788 464.152 122.817 464.144 122.844C464.137 122.871 464.119 122.894 464.096 122.91C462.379 123.605 460.83 124.661 459.555 126.005C458.898 126.639 458.288 127.308 457.691 128.001C457.173 128.719 456.585 129.384 455.934 129.985C455.905 130 455.873 130.006 455.841 130.003C455.808 130 455.778 129.987 455.752 129.967C455.727 129.947 455.708 129.92 455.698 129.889C455.688 129.858 455.687 129.825 455.695 129.793Z" fill="#263238"/>
<path d="M484.398 132.316C486.086 133.787 487.682 135.36 489.179 137.025C490.63 138.71 491.903 140.54 492.979 142.486C492.979 142.546 492.919 142.594 492.883 142.546C490.334 138.939 487.458 135.574 484.291 132.496C484.147 132.4 484.291 132.221 484.398 132.316Z" fill="#263238"/>
<path d="M465.422 133.214C465.761 134.307 466.248 135.348 466.868 136.309C467.485 137.243 468.177 138.127 468.935 138.95C468.935 138.95 468.935 139.082 468.839 139.034C467.114 137.515 465.868 135.526 465.254 133.31C465.171 133.166 465.374 133.083 465.422 133.214Z" fill="#263238"/>
<path d="M418.072 182.727L419.327 197.665L423.187 243.231H464.523L468.383 197.665L469.638 182.727H418.072Z" fill="#455A64"/>
<path d="M418.072 182.727L419.327 197.665H468.383L469.638 182.727H418.072Z" fill="#263238"/>
<path d="M414.023 191.066H473.703V176.738H414.023V191.066Z" fill="#455A64"/>
</svg>
