<svg width="48" height="48" viewBox="0 0 48 48" fill="none" xmlns="http://www.w3.org/2000/svg">
<rect x="0.5" y="0.5" width="47" height="47" rx="23.5" fill="white" stroke="#9299A0"/>
<g clip-path="url(#clip0_1138_35674)">
<path d="M24.0008 23.9938C25.4248 23.9938 26.8169 23.5715 28.0009 22.7803C29.1849 21.9892 30.1078 20.8647 30.6527 19.5491C31.1977 18.2334 31.3403 16.7858 31.0624 15.3891C30.7846 13.9924 30.0989 12.7095 29.092 11.7026C28.085 10.6956 26.8021 10.0099 25.4054 9.7321C24.0088 9.45429 22.5611 9.59687 21.2455 10.1418C19.9298 10.6868 18.8053 11.6096 18.0142 12.7936C17.2231 13.9777 16.8008 15.3697 16.8008 16.7938C16.8027 18.7027 17.5619 20.533 18.9117 21.8828C20.2616 23.2327 22.0918 23.9918 24.0008 23.9938ZM24.0008 11.9938C24.9501 11.9938 25.8782 12.2753 26.6675 12.8027C27.4569 13.3301 28.0721 14.0798 28.4354 14.9569C28.7987 15.834 28.8938 16.7991 28.7086 17.7302C28.5233 18.6613 28.0662 19.5166 27.3949 20.1879C26.7236 20.8592 25.8683 21.3163 24.9372 21.5015C24.0061 21.6867 23.041 21.5917 22.1639 21.2284C21.2868 20.8651 20.5372 20.2498 20.0097 19.4605C19.4823 18.6711 19.2008 17.7431 19.2008 16.7938C19.2008 15.5207 19.7065 14.2998 20.6067 13.3996C21.5068 12.4995 22.7277 11.9938 24.0008 11.9938Z" fill="#9299A0"/>
<path d="M24.0012 26.3906C21.1378 26.3938 18.3926 27.5327 16.3679 29.5574C14.3432 31.5821 13.2043 34.3273 13.2012 37.1906C13.2012 37.5089 13.3276 37.8141 13.5526 38.0392C13.7777 38.2642 14.0829 38.3906 14.4012 38.3906C14.7194 38.3906 15.0247 38.2642 15.2497 38.0392C15.4747 37.8141 15.6012 37.5089 15.6012 37.1906C15.6012 34.9628 16.4862 32.8262 18.0615 31.2509C19.6368 29.6756 21.7734 28.7906 24.0012 28.7906C26.229 28.7906 28.3656 29.6756 29.9409 31.2509C31.5162 32.8262 32.4012 34.9628 32.4012 37.1906C32.4012 37.5089 32.5276 37.8141 32.7526 38.0392C32.9777 38.2642 33.2829 38.3906 33.6012 38.3906C33.9194 38.3906 34.2247 38.2642 34.4497 38.0392C34.6747 37.8141 34.8012 37.5089 34.8012 37.1906C34.798 34.3273 33.6591 31.5821 31.6344 29.5574C29.6097 27.5327 26.8645 26.3938 24.0012 26.3906Z" fill="#9299A0"/>
</g>
<defs>
<clipPath id="clip0_1138_35674">
<rect width="28.8" height="28.8" fill="white" transform="translate(9.60156 9.59375)"/>
</clipPath>
</defs>
</svg>
